G04 #@! TF.GenerationSoftware,KiCad,Pcbnew,(5.1.2)-2*
G04 #@! TF.CreationDate,2021-07-07T15:52:23+09:00*
G04 #@! TF.ProjectId,bumper,62756d70-6572-42e6-9b69-6361645f7063,rev?*
G04 #@! TF.SameCoordinates,Original*
G04 #@! TF.FileFunction,Copper,L2,Bot*
G04 #@! TF.FilePolarity,Positive*
%FSLAX46Y46*%
G04 Gerber Fmt 4.6, Leading zero omitted, Abs format (unit mm)*
G04 Created by KiCad (PCBNEW (5.1.2)-2) date 2021-07-07 15:52:23*
%MOMM*%
%LPD*%
G04 APERTURE LIST*
%ADD10O,1.700000X1.700000*%
%ADD11R,1.700000X1.700000*%
%ADD12O,1.600000X1.600000*%
%ADD13R,1.600000X1.600000*%
%ADD14C,1.524000*%
%ADD15O,1.905000X2.000000*%
%ADD16R,1.905000X2.000000*%
%ADD17C,1.600000*%
%ADD18O,1.700000X2.000000*%
%ADD19C,0.100000*%
%ADD20C,1.700000*%
%ADD21O,1.700000X1.950000*%
%ADD22O,1.950000X1.700000*%
%ADD23O,2.000000X1.700000*%
%ADD24C,0.450000*%
%ADD25C,0.254000*%
G04 APERTURE END LIST*
D10*
X161290000Y-128905000D03*
X161290000Y-126365000D03*
X161290000Y-123825000D03*
X161290000Y-121285000D03*
X161290000Y-118745000D03*
X161290000Y-116205000D03*
X161290000Y-113665000D03*
D11*
X161290000Y-111125000D03*
D10*
X158750000Y-128905000D03*
X158750000Y-126365000D03*
X158750000Y-123825000D03*
X158750000Y-121285000D03*
X158750000Y-118745000D03*
X158750000Y-116205000D03*
X158750000Y-113665000D03*
D11*
X158750000Y-111125000D03*
D12*
X122555000Y-125730000D03*
X130175000Y-118110000D03*
X122555000Y-123190000D03*
X130175000Y-120650000D03*
X122555000Y-120650000D03*
X130175000Y-123190000D03*
X122555000Y-118110000D03*
D13*
X130175000Y-125730000D03*
D14*
X149860000Y-109220000D03*
X149860000Y-111760000D03*
X149860000Y-114300000D03*
X149860000Y-116840000D03*
X149860000Y-119380000D03*
X149860000Y-121920000D03*
X149860000Y-124460000D03*
X149860000Y-127000000D03*
X149860000Y-129540000D03*
X149860000Y-132080000D03*
X149860000Y-134620000D03*
X149860000Y-137160000D03*
X149860000Y-139700000D03*
X149860000Y-142240000D03*
X134620000Y-142240000D03*
X134620000Y-139700000D03*
X134620000Y-137160000D03*
X134620000Y-134620000D03*
X134620000Y-132080000D03*
X134620000Y-129540000D03*
X134620000Y-127000000D03*
X134620000Y-124460000D03*
X134620000Y-121920000D03*
X134620000Y-119380000D03*
X134620000Y-116840000D03*
X134620000Y-114300000D03*
X134620000Y-111760000D03*
X134620000Y-109220000D03*
D15*
X123190000Y-112395000D03*
X120650000Y-112395000D03*
D16*
X118110000Y-112395000D03*
D12*
X118110000Y-116840000D03*
D17*
X118110000Y-127000000D03*
D12*
X121285000Y-130175000D03*
D17*
X131445000Y-130175000D03*
D18*
X113030000Y-121920000D03*
D19*
G36*
X111154504Y-120921204D02*
G01*
X111178773Y-120924804D01*
X111202571Y-120930765D01*
X111225671Y-120939030D01*
X111247849Y-120949520D01*
X111268893Y-120962133D01*
X111288598Y-120976747D01*
X111306777Y-120993223D01*
X111323253Y-121011402D01*
X111337867Y-121031107D01*
X111350480Y-121052151D01*
X111360970Y-121074329D01*
X111369235Y-121097429D01*
X111375196Y-121121227D01*
X111378796Y-121145496D01*
X111380000Y-121170000D01*
X111380000Y-122670000D01*
X111378796Y-122694504D01*
X111375196Y-122718773D01*
X111369235Y-122742571D01*
X111360970Y-122765671D01*
X111350480Y-122787849D01*
X111337867Y-122808893D01*
X111323253Y-122828598D01*
X111306777Y-122846777D01*
X111288598Y-122863253D01*
X111268893Y-122877867D01*
X111247849Y-122890480D01*
X111225671Y-122900970D01*
X111202571Y-122909235D01*
X111178773Y-122915196D01*
X111154504Y-122918796D01*
X111130000Y-122920000D01*
X109930000Y-122920000D01*
X109905496Y-122918796D01*
X109881227Y-122915196D01*
X109857429Y-122909235D01*
X109834329Y-122900970D01*
X109812151Y-122890480D01*
X109791107Y-122877867D01*
X109771402Y-122863253D01*
X109753223Y-122846777D01*
X109736747Y-122828598D01*
X109722133Y-122808893D01*
X109709520Y-122787849D01*
X109699030Y-122765671D01*
X109690765Y-122742571D01*
X109684804Y-122718773D01*
X109681204Y-122694504D01*
X109680000Y-122670000D01*
X109680000Y-121170000D01*
X109681204Y-121145496D01*
X109684804Y-121121227D01*
X109690765Y-121097429D01*
X109699030Y-121074329D01*
X109709520Y-121052151D01*
X109722133Y-121031107D01*
X109736747Y-121011402D01*
X109753223Y-120993223D01*
X109771402Y-120976747D01*
X109791107Y-120962133D01*
X109812151Y-120949520D01*
X109834329Y-120939030D01*
X109857429Y-120930765D01*
X109881227Y-120924804D01*
X109905496Y-120921204D01*
X109930000Y-120920000D01*
X111130000Y-120920000D01*
X111154504Y-120921204D01*
X111154504Y-120921204D01*
G37*
D20*
X110530000Y-121920000D03*
D18*
X113030000Y-130175000D03*
D19*
G36*
X111154504Y-129176204D02*
G01*
X111178773Y-129179804D01*
X111202571Y-129185765D01*
X111225671Y-129194030D01*
X111247849Y-129204520D01*
X111268893Y-129217133D01*
X111288598Y-129231747D01*
X111306777Y-129248223D01*
X111323253Y-129266402D01*
X111337867Y-129286107D01*
X111350480Y-129307151D01*
X111360970Y-129329329D01*
X111369235Y-129352429D01*
X111375196Y-129376227D01*
X111378796Y-129400496D01*
X111380000Y-129425000D01*
X111380000Y-130925000D01*
X111378796Y-130949504D01*
X111375196Y-130973773D01*
X111369235Y-130997571D01*
X111360970Y-131020671D01*
X111350480Y-131042849D01*
X111337867Y-131063893D01*
X111323253Y-131083598D01*
X111306777Y-131101777D01*
X111288598Y-131118253D01*
X111268893Y-131132867D01*
X111247849Y-131145480D01*
X111225671Y-131155970D01*
X111202571Y-131164235D01*
X111178773Y-131170196D01*
X111154504Y-131173796D01*
X111130000Y-131175000D01*
X109930000Y-131175000D01*
X109905496Y-131173796D01*
X109881227Y-131170196D01*
X109857429Y-131164235D01*
X109834329Y-131155970D01*
X109812151Y-131145480D01*
X109791107Y-131132867D01*
X109771402Y-131118253D01*
X109753223Y-131101777D01*
X109736747Y-131083598D01*
X109722133Y-131063893D01*
X109709520Y-131042849D01*
X109699030Y-131020671D01*
X109690765Y-130997571D01*
X109684804Y-130973773D01*
X109681204Y-130949504D01*
X109680000Y-130925000D01*
X109680000Y-129425000D01*
X109681204Y-129400496D01*
X109684804Y-129376227D01*
X109690765Y-129352429D01*
X109699030Y-129329329D01*
X109709520Y-129307151D01*
X109722133Y-129286107D01*
X109736747Y-129266402D01*
X109753223Y-129248223D01*
X109771402Y-129231747D01*
X109791107Y-129217133D01*
X109812151Y-129204520D01*
X109834329Y-129194030D01*
X109857429Y-129185765D01*
X109881227Y-129179804D01*
X109905496Y-129176204D01*
X109930000Y-129175000D01*
X111130000Y-129175000D01*
X111154504Y-129176204D01*
X111154504Y-129176204D01*
G37*
D20*
X110530000Y-130175000D03*
D10*
X156210000Y-111125000D03*
X156210000Y-113665000D03*
X156210000Y-116205000D03*
X156210000Y-118745000D03*
X156210000Y-121285000D03*
X156210000Y-123825000D03*
X156210000Y-126365000D03*
X156210000Y-128905000D03*
X156210000Y-131445000D03*
D11*
X156210000Y-133985000D03*
D21*
X155575000Y-140970000D03*
X158075000Y-140970000D03*
D19*
G36*
X161199504Y-139996204D02*
G01*
X161223773Y-139999804D01*
X161247571Y-140005765D01*
X161270671Y-140014030D01*
X161292849Y-140024520D01*
X161313893Y-140037133D01*
X161333598Y-140051747D01*
X161351777Y-140068223D01*
X161368253Y-140086402D01*
X161382867Y-140106107D01*
X161395480Y-140127151D01*
X161405970Y-140149329D01*
X161414235Y-140172429D01*
X161420196Y-140196227D01*
X161423796Y-140220496D01*
X161425000Y-140245000D01*
X161425000Y-141695000D01*
X161423796Y-141719504D01*
X161420196Y-141743773D01*
X161414235Y-141767571D01*
X161405970Y-141790671D01*
X161395480Y-141812849D01*
X161382867Y-141833893D01*
X161368253Y-141853598D01*
X161351777Y-141871777D01*
X161333598Y-141888253D01*
X161313893Y-141902867D01*
X161292849Y-141915480D01*
X161270671Y-141925970D01*
X161247571Y-141934235D01*
X161223773Y-141940196D01*
X161199504Y-141943796D01*
X161175000Y-141945000D01*
X159975000Y-141945000D01*
X159950496Y-141943796D01*
X159926227Y-141940196D01*
X159902429Y-141934235D01*
X159879329Y-141925970D01*
X159857151Y-141915480D01*
X159836107Y-141902867D01*
X159816402Y-141888253D01*
X159798223Y-141871777D01*
X159781747Y-141853598D01*
X159767133Y-141833893D01*
X159754520Y-141812849D01*
X159744030Y-141790671D01*
X159735765Y-141767571D01*
X159729804Y-141743773D01*
X159726204Y-141719504D01*
X159725000Y-141695000D01*
X159725000Y-140245000D01*
X159726204Y-140220496D01*
X159729804Y-140196227D01*
X159735765Y-140172429D01*
X159744030Y-140149329D01*
X159754520Y-140127151D01*
X159767133Y-140106107D01*
X159781747Y-140086402D01*
X159798223Y-140068223D01*
X159816402Y-140051747D01*
X159836107Y-140037133D01*
X159857151Y-140024520D01*
X159879329Y-140014030D01*
X159902429Y-140005765D01*
X159926227Y-139999804D01*
X159950496Y-139996204D01*
X159975000Y-139995000D01*
X161175000Y-139995000D01*
X161199504Y-139996204D01*
X161199504Y-139996204D01*
G37*
D20*
X160575000Y-140970000D03*
D21*
X129540000Y-138430000D03*
X127040000Y-138430000D03*
D19*
G36*
X125164504Y-137456204D02*
G01*
X125188773Y-137459804D01*
X125212571Y-137465765D01*
X125235671Y-137474030D01*
X125257849Y-137484520D01*
X125278893Y-137497133D01*
X125298598Y-137511747D01*
X125316777Y-137528223D01*
X125333253Y-137546402D01*
X125347867Y-137566107D01*
X125360480Y-137587151D01*
X125370970Y-137609329D01*
X125379235Y-137632429D01*
X125385196Y-137656227D01*
X125388796Y-137680496D01*
X125390000Y-137705000D01*
X125390000Y-139155000D01*
X125388796Y-139179504D01*
X125385196Y-139203773D01*
X125379235Y-139227571D01*
X125370970Y-139250671D01*
X125360480Y-139272849D01*
X125347867Y-139293893D01*
X125333253Y-139313598D01*
X125316777Y-139331777D01*
X125298598Y-139348253D01*
X125278893Y-139362867D01*
X125257849Y-139375480D01*
X125235671Y-139385970D01*
X125212571Y-139394235D01*
X125188773Y-139400196D01*
X125164504Y-139403796D01*
X125140000Y-139405000D01*
X123940000Y-139405000D01*
X123915496Y-139403796D01*
X123891227Y-139400196D01*
X123867429Y-139394235D01*
X123844329Y-139385970D01*
X123822151Y-139375480D01*
X123801107Y-139362867D01*
X123781402Y-139348253D01*
X123763223Y-139331777D01*
X123746747Y-139313598D01*
X123732133Y-139293893D01*
X123719520Y-139272849D01*
X123709030Y-139250671D01*
X123700765Y-139227571D01*
X123694804Y-139203773D01*
X123691204Y-139179504D01*
X123690000Y-139155000D01*
X123690000Y-137705000D01*
X123691204Y-137680496D01*
X123694804Y-137656227D01*
X123700765Y-137632429D01*
X123709030Y-137609329D01*
X123719520Y-137587151D01*
X123732133Y-137566107D01*
X123746747Y-137546402D01*
X123763223Y-137528223D01*
X123781402Y-137511747D01*
X123801107Y-137497133D01*
X123822151Y-137484520D01*
X123844329Y-137474030D01*
X123867429Y-137465765D01*
X123891227Y-137459804D01*
X123915496Y-137456204D01*
X123940000Y-137455000D01*
X125140000Y-137455000D01*
X125164504Y-137456204D01*
X125164504Y-137456204D01*
G37*
D20*
X124540000Y-138430000D03*
D22*
X103505000Y-132635000D03*
X103505000Y-130135000D03*
D19*
G36*
X104254504Y-126786204D02*
G01*
X104278773Y-126789804D01*
X104302571Y-126795765D01*
X104325671Y-126804030D01*
X104347849Y-126814520D01*
X104368893Y-126827133D01*
X104388598Y-126841747D01*
X104406777Y-126858223D01*
X104423253Y-126876402D01*
X104437867Y-126896107D01*
X104450480Y-126917151D01*
X104460970Y-126939329D01*
X104469235Y-126962429D01*
X104475196Y-126986227D01*
X104478796Y-127010496D01*
X104480000Y-127035000D01*
X104480000Y-128235000D01*
X104478796Y-128259504D01*
X104475196Y-128283773D01*
X104469235Y-128307571D01*
X104460970Y-128330671D01*
X104450480Y-128352849D01*
X104437867Y-128373893D01*
X104423253Y-128393598D01*
X104406777Y-128411777D01*
X104388598Y-128428253D01*
X104368893Y-128442867D01*
X104347849Y-128455480D01*
X104325671Y-128465970D01*
X104302571Y-128474235D01*
X104278773Y-128480196D01*
X104254504Y-128483796D01*
X104230000Y-128485000D01*
X102780000Y-128485000D01*
X102755496Y-128483796D01*
X102731227Y-128480196D01*
X102707429Y-128474235D01*
X102684329Y-128465970D01*
X102662151Y-128455480D01*
X102641107Y-128442867D01*
X102621402Y-128428253D01*
X102603223Y-128411777D01*
X102586747Y-128393598D01*
X102572133Y-128373893D01*
X102559520Y-128352849D01*
X102549030Y-128330671D01*
X102540765Y-128307571D01*
X102534804Y-128283773D01*
X102531204Y-128259504D01*
X102530000Y-128235000D01*
X102530000Y-127035000D01*
X102531204Y-127010496D01*
X102534804Y-126986227D01*
X102540765Y-126962429D01*
X102549030Y-126939329D01*
X102559520Y-126917151D01*
X102572133Y-126896107D01*
X102586747Y-126876402D01*
X102603223Y-126858223D01*
X102621402Y-126841747D01*
X102641107Y-126827133D01*
X102662151Y-126814520D01*
X102684329Y-126804030D01*
X102707429Y-126795765D01*
X102731227Y-126789804D01*
X102755496Y-126786204D01*
X102780000Y-126785000D01*
X104230000Y-126785000D01*
X104254504Y-126786204D01*
X104254504Y-126786204D01*
G37*
D20*
X103505000Y-127635000D03*
D21*
X117475000Y-138430000D03*
X114975000Y-138430000D03*
D19*
G36*
X113099504Y-137456204D02*
G01*
X113123773Y-137459804D01*
X113147571Y-137465765D01*
X113170671Y-137474030D01*
X113192849Y-137484520D01*
X113213893Y-137497133D01*
X113233598Y-137511747D01*
X113251777Y-137528223D01*
X113268253Y-137546402D01*
X113282867Y-137566107D01*
X113295480Y-137587151D01*
X113305970Y-137609329D01*
X113314235Y-137632429D01*
X113320196Y-137656227D01*
X113323796Y-137680496D01*
X113325000Y-137705000D01*
X113325000Y-139155000D01*
X113323796Y-139179504D01*
X113320196Y-139203773D01*
X113314235Y-139227571D01*
X113305970Y-139250671D01*
X113295480Y-139272849D01*
X113282867Y-139293893D01*
X113268253Y-139313598D01*
X113251777Y-139331777D01*
X113233598Y-139348253D01*
X113213893Y-139362867D01*
X113192849Y-139375480D01*
X113170671Y-139385970D01*
X113147571Y-139394235D01*
X113123773Y-139400196D01*
X113099504Y-139403796D01*
X113075000Y-139405000D01*
X111875000Y-139405000D01*
X111850496Y-139403796D01*
X111826227Y-139400196D01*
X111802429Y-139394235D01*
X111779329Y-139385970D01*
X111757151Y-139375480D01*
X111736107Y-139362867D01*
X111716402Y-139348253D01*
X111698223Y-139331777D01*
X111681747Y-139313598D01*
X111667133Y-139293893D01*
X111654520Y-139272849D01*
X111644030Y-139250671D01*
X111635765Y-139227571D01*
X111629804Y-139203773D01*
X111626204Y-139179504D01*
X111625000Y-139155000D01*
X111625000Y-137705000D01*
X111626204Y-137680496D01*
X111629804Y-137656227D01*
X111635765Y-137632429D01*
X111644030Y-137609329D01*
X111654520Y-137587151D01*
X111667133Y-137566107D01*
X111681747Y-137546402D01*
X111698223Y-137528223D01*
X111716402Y-137511747D01*
X111736107Y-137497133D01*
X111757151Y-137484520D01*
X111779329Y-137474030D01*
X111802429Y-137465765D01*
X111826227Y-137459804D01*
X111850496Y-137456204D01*
X111875000Y-137455000D01*
X113075000Y-137455000D01*
X113099504Y-137456204D01*
X113099504Y-137456204D01*
G37*
D20*
X112475000Y-138430000D03*
D23*
X103505000Y-120650000D03*
D19*
G36*
X104279504Y-117301204D02*
G01*
X104303773Y-117304804D01*
X104327571Y-117310765D01*
X104350671Y-117319030D01*
X104372849Y-117329520D01*
X104393893Y-117342133D01*
X104413598Y-117356747D01*
X104431777Y-117373223D01*
X104448253Y-117391402D01*
X104462867Y-117411107D01*
X104475480Y-117432151D01*
X104485970Y-117454329D01*
X104494235Y-117477429D01*
X104500196Y-117501227D01*
X104503796Y-117525496D01*
X104505000Y-117550000D01*
X104505000Y-118750000D01*
X104503796Y-118774504D01*
X104500196Y-118798773D01*
X104494235Y-118822571D01*
X104485970Y-118845671D01*
X104475480Y-118867849D01*
X104462867Y-118888893D01*
X104448253Y-118908598D01*
X104431777Y-118926777D01*
X104413598Y-118943253D01*
X104393893Y-118957867D01*
X104372849Y-118970480D01*
X104350671Y-118980970D01*
X104327571Y-118989235D01*
X104303773Y-118995196D01*
X104279504Y-118998796D01*
X104255000Y-119000000D01*
X102755000Y-119000000D01*
X102730496Y-118998796D01*
X102706227Y-118995196D01*
X102682429Y-118989235D01*
X102659329Y-118980970D01*
X102637151Y-118970480D01*
X102616107Y-118957867D01*
X102596402Y-118943253D01*
X102578223Y-118926777D01*
X102561747Y-118908598D01*
X102547133Y-118888893D01*
X102534520Y-118867849D01*
X102524030Y-118845671D01*
X102515765Y-118822571D01*
X102509804Y-118798773D01*
X102506204Y-118774504D01*
X102505000Y-118750000D01*
X102505000Y-117550000D01*
X102506204Y-117525496D01*
X102509804Y-117501227D01*
X102515765Y-117477429D01*
X102524030Y-117454329D01*
X102534520Y-117432151D01*
X102547133Y-117411107D01*
X102561747Y-117391402D01*
X102578223Y-117373223D01*
X102596402Y-117356747D01*
X102616107Y-117342133D01*
X102637151Y-117329520D01*
X102659329Y-117319030D01*
X102682429Y-117310765D01*
X102706227Y-117304804D01*
X102730496Y-117301204D01*
X102755000Y-117300000D01*
X104255000Y-117300000D01*
X104279504Y-117301204D01*
X104279504Y-117301204D01*
G37*
D20*
X103505000Y-118150000D03*
D17*
X129540000Y-110395000D03*
D13*
X129540000Y-112395000D03*
D17*
X110490000Y-114260000D03*
D13*
X110490000Y-111760000D03*
D24*
X110490000Y-111760000D02*
X109114700Y-111760000D01*
X103505000Y-118150000D02*
X109114700Y-112540300D01*
X109114700Y-112540300D02*
X109114700Y-111760000D01*
X118110000Y-112395000D02*
X116582200Y-112395000D01*
X110490000Y-111760000D02*
X115947200Y-111760000D01*
X115947200Y-111760000D02*
X116582200Y-112395000D01*
X149860000Y-111760000D02*
X148522200Y-110422200D01*
X148522200Y-108666600D02*
X149306600Y-107882200D01*
X149306600Y-107882200D02*
X158047200Y-107882200D01*
X158047200Y-107882200D02*
X161290000Y-111125000D01*
X132350600Y-110395000D02*
X133445000Y-110395000D01*
X133445000Y-110395000D02*
X134620000Y-109220000D01*
X131445000Y-139981700D02*
X131445000Y-130175000D01*
X124540000Y-138430000D02*
X126091700Y-139981700D01*
X126091700Y-139981700D02*
X131445000Y-139981700D01*
X132350600Y-110395000D02*
X129540000Y-110395000D01*
X130175000Y-123190000D02*
X131577000Y-121788000D01*
X131577000Y-121788000D02*
X131577000Y-119784800D01*
X131577000Y-119784800D02*
X132350600Y-119011200D01*
X132350600Y-119011200D02*
X132350600Y-110395000D01*
X123936700Y-123190000D02*
X123936700Y-115681700D01*
X123936700Y-115681700D02*
X120650000Y-112395000D01*
X128799700Y-123190000D02*
X123936700Y-123190000D01*
X161290000Y-113665000D02*
X161290000Y-111125000D01*
X112475000Y-136605000D02*
X112475000Y-138430000D01*
X129487400Y-123190000D02*
X130175000Y-123190000D01*
X129487400Y-123190000D02*
X128799700Y-123190000D01*
X123936700Y-123190000D02*
X123936700Y-129472700D01*
X123936700Y-129472700D02*
X116804400Y-136605000D01*
X116804400Y-136605000D02*
X112475000Y-136605000D01*
X112475000Y-136605000D02*
X103505000Y-127635000D01*
X156210000Y-135410300D02*
X160575000Y-139775300D01*
X160575000Y-139775300D02*
X160575000Y-140970000D01*
X161290000Y-128905000D02*
X161290000Y-130330300D01*
X161290000Y-130330300D02*
X157635300Y-133985000D01*
X157635300Y-133985000D02*
X156210000Y-133985000D01*
X161290000Y-126365000D02*
X161290000Y-128905000D01*
X161290000Y-123825000D02*
X161290000Y-126365000D01*
X161290000Y-121285000D02*
X161290000Y-123825000D01*
X161290000Y-118745000D02*
X161290000Y-121285000D01*
X161290000Y-116205000D02*
X161290000Y-118745000D01*
X161290000Y-113665000D02*
X161290000Y-116205000D01*
X104292700Y-120650000D02*
X103505000Y-121437700D01*
X103505000Y-121437700D02*
X103505000Y-127635000D01*
X104292700Y-120650000D02*
X105080300Y-120650000D01*
X103505000Y-120650000D02*
X104292700Y-120650000D01*
X156210000Y-133985000D02*
X156210000Y-135410300D01*
X110490000Y-114260000D02*
X105080300Y-119669700D01*
X105080300Y-119669700D02*
X105080300Y-120650000D01*
X148454400Y-109220000D02*
X148522200Y-109287800D01*
X134620000Y-109220000D02*
X148454400Y-109220000D01*
X148522200Y-110422200D02*
X148522200Y-109287800D01*
X148522200Y-109287800D02*
X148522200Y-108666600D01*
X130175000Y-119485300D02*
X130175000Y-120650000D01*
X130175000Y-119485300D02*
X130744700Y-119485300D01*
X130744700Y-119485300D02*
X131550300Y-118679700D01*
X131550300Y-118679700D02*
X131550300Y-115780600D01*
X131550300Y-115780600D02*
X129540000Y-113770300D01*
X124717800Y-112395000D02*
X124717800Y-114597800D01*
X124717800Y-114597800D02*
X129605300Y-119485300D01*
X129605300Y-119485300D02*
X130175000Y-119485300D01*
X129540000Y-112395000D02*
X129540000Y-113770300D01*
X123572000Y-112395000D02*
X121550700Y-110373700D01*
X121550700Y-110373700D02*
X108734800Y-110373700D01*
X108734800Y-110373700D02*
X101852100Y-117256400D01*
X101852100Y-117256400D02*
X101852100Y-130047600D01*
X101852100Y-130047600D02*
X101939500Y-130135000D01*
X123572000Y-112395000D02*
X124717800Y-112395000D01*
X123190000Y-112395000D02*
X123572000Y-112395000D01*
X122017600Y-138418900D02*
X128021900Y-144423200D01*
X128021900Y-144423200D02*
X154621800Y-144423200D01*
X154621800Y-144423200D02*
X158075000Y-140970000D01*
X101939500Y-130135000D02*
X101939500Y-133692900D01*
X101939500Y-133692900D02*
X109838900Y-141592300D01*
X109838900Y-141592300D02*
X118844200Y-141592300D01*
X118844200Y-141592300D02*
X122017600Y-138418900D01*
X122017600Y-138418900D02*
X123567600Y-136868900D01*
X123567600Y-136868900D02*
X125478900Y-136868900D01*
X125478900Y-136868900D02*
X127040000Y-138430000D01*
X158750000Y-111125000D02*
X156845000Y-109220000D01*
X156845000Y-109220000D02*
X149860000Y-109220000D01*
X158750000Y-113665000D02*
X158750000Y-111125000D01*
X101939500Y-130135000D02*
X103505000Y-130135000D01*
X114975000Y-138430000D02*
X113419700Y-139985300D01*
X113419700Y-139985300D02*
X111454100Y-139985300D01*
X111454100Y-139985300D02*
X105484400Y-134015600D01*
X105484400Y-134015600D02*
X105484400Y-132114400D01*
X105484400Y-132114400D02*
X103505000Y-130135000D01*
X158750000Y-126365000D02*
X158750000Y-128905000D01*
X158750000Y-123825000D02*
X158750000Y-126365000D01*
X158750000Y-121285000D02*
X158750000Y-123825000D01*
X158750000Y-118745000D02*
X158750000Y-121285000D01*
X158750000Y-116205000D02*
X158750000Y-118745000D01*
X158750000Y-113665000D02*
X158750000Y-116205000D01*
X158750000Y-128905000D02*
X158750000Y-130330300D01*
X156210000Y-131445000D02*
X157635300Y-131445000D01*
X157635300Y-131445000D02*
X158750000Y-130330300D01*
X158075000Y-140970000D02*
X154756900Y-137651900D01*
X154756900Y-137651900D02*
X154756900Y-132898100D01*
X154756900Y-132898100D02*
X156210000Y-131445000D01*
X122555000Y-123190000D02*
X121179700Y-123190000D01*
X118110000Y-127000000D02*
X121179700Y-123930300D01*
X121179700Y-123930300D02*
X121179700Y-123190000D01*
X113030000Y-127000000D02*
X118110000Y-127000000D01*
X113030000Y-127000000D02*
X113030000Y-121920000D01*
X113030000Y-130175000D02*
X113030000Y-127000000D01*
X118110000Y-116840000D02*
X119485300Y-116840000D01*
X119485300Y-116840000D02*
X119485300Y-117580300D01*
X119485300Y-117580300D02*
X122555000Y-120650000D01*
X110530000Y-121920000D02*
X115610000Y-116840000D01*
X115610000Y-116840000D02*
X118110000Y-116840000D01*
X110530000Y-130175000D02*
X110530000Y-121920000D01*
X121285000Y-130175000D02*
X121285000Y-128799700D01*
X121285000Y-128799700D02*
X122555000Y-127529700D01*
X122555000Y-127529700D02*
X122555000Y-125730000D01*
X134620000Y-119380000D02*
X132577700Y-121422300D01*
X132577700Y-121422300D02*
X132577700Y-123327300D01*
X132577700Y-123327300D02*
X130175000Y-125730000D01*
X134620000Y-124460000D02*
X131916400Y-127163600D01*
X131916400Y-127163600D02*
X130166700Y-127163600D01*
X130166700Y-127163600D02*
X118900300Y-138430000D01*
X117475000Y-138430000D02*
X118900300Y-138430000D01*
X134620000Y-127000000D02*
X133656100Y-127963900D01*
X133656100Y-127963900D02*
X130502100Y-127963900D01*
X130502100Y-127963900D02*
X117674100Y-140791900D01*
X117674100Y-140791900D02*
X110236600Y-140791900D01*
X110236600Y-140791900D02*
X103505000Y-134060300D01*
X103505000Y-132635000D02*
X103505000Y-134060300D01*
X129540000Y-138430000D02*
X129540000Y-130134400D01*
X129540000Y-130134400D02*
X130910200Y-128764200D01*
X130910200Y-128764200D02*
X133844200Y-128764200D01*
X133844200Y-128764200D02*
X134620000Y-129540000D01*
X154275000Y-140970000D02*
X155575000Y-140970000D01*
X151667999Y-143577001D02*
X154275000Y-140970000D01*
X146117001Y-143577001D02*
X151667999Y-143577001D01*
X134620000Y-132080000D02*
X146117001Y-143577001D01*
X150621999Y-121158001D02*
X149860000Y-121920000D01*
X150621999Y-120938849D02*
X150621999Y-121158001D01*
X152869990Y-118690858D02*
X150621999Y-120938849D01*
X152869990Y-114465010D02*
X152869990Y-118690858D01*
X156210000Y-111125000D02*
X152869990Y-114465010D01*
X150621999Y-123698001D02*
X149860000Y-124460000D01*
X151434980Y-122885020D02*
X150621999Y-123698001D01*
X151434980Y-121257252D02*
X151434980Y-122885020D01*
X153670000Y-119022232D02*
X151434980Y-121257252D01*
X153670000Y-116205000D02*
X153670000Y-119022232D01*
X156210000Y-113665000D02*
X153670000Y-116205000D01*
X150621999Y-126238001D02*
X149860000Y-127000000D01*
X152234990Y-124405858D02*
X150621999Y-126018849D01*
X152234990Y-121588626D02*
X152234990Y-124405858D01*
X154784999Y-119038617D02*
X152234990Y-121588626D01*
X150621999Y-126018849D02*
X150621999Y-126238001D01*
X154784999Y-117630001D02*
X154784999Y-119038617D01*
X156210000Y-116205000D02*
X154784999Y-117630001D01*
X150621999Y-128778001D02*
X149860000Y-129540000D01*
X151434980Y-127965020D02*
X150621999Y-128778001D01*
X151434980Y-126337252D02*
X151434980Y-127965020D01*
X153035000Y-124737232D02*
X151434980Y-126337252D01*
X153035000Y-121920000D02*
X153035000Y-124737232D01*
X156210000Y-118745000D02*
X153035000Y-121920000D01*
X149860000Y-131860848D02*
X149860000Y-132080000D01*
X152234990Y-129485858D02*
X149860000Y-131860848D01*
X152234990Y-126668626D02*
X152234990Y-129485858D01*
X154305000Y-124598616D02*
X152234990Y-126668626D01*
X154305000Y-123190000D02*
X154305000Y-124598616D01*
X156210000Y-121285000D02*
X154305000Y-123190000D01*
X150621999Y-133858001D02*
X149860000Y-134620000D01*
X151197001Y-133282999D02*
X150621999Y-133858001D01*
X151197001Y-131655231D02*
X151197001Y-133282999D01*
X153035000Y-129817232D02*
X151197001Y-131655231D01*
X153035000Y-127000000D02*
X153035000Y-129817232D01*
X156210000Y-123825000D02*
X153035000Y-127000000D01*
X152041810Y-134978190D02*
X150495000Y-136525000D01*
X152041810Y-131941806D02*
X152041810Y-134978190D01*
X154784999Y-129198617D02*
X152041810Y-131941806D01*
X154784999Y-127790001D02*
X154784999Y-129198617D01*
X156210000Y-126365000D02*
X154784999Y-127790001D01*
X149860000Y-137160000D02*
X150495000Y-136525000D01*
X150621999Y-138938001D02*
X149860000Y-139700000D01*
X153242110Y-136317890D02*
X150621999Y-138938001D01*
X153242110Y-131872890D02*
X153242110Y-136317890D01*
X156210000Y-128905000D02*
X153242110Y-131872890D01*
D25*
G36*
X147943960Y-108028617D02*
G01*
X147911147Y-108055546D01*
X147884218Y-108088359D01*
X147884216Y-108088361D01*
X147852903Y-108126516D01*
X147803677Y-108186498D01*
X147723820Y-108335900D01*
X147716509Y-108360000D01*
X135725523Y-108360000D01*
X135705120Y-108329465D01*
X135510535Y-108134880D01*
X135281727Y-107981995D01*
X135027490Y-107876686D01*
X134757592Y-107823000D01*
X134482408Y-107823000D01*
X134212510Y-107876686D01*
X133958273Y-107981995D01*
X133729465Y-108134880D01*
X133534880Y-108329465D01*
X133381995Y-108558273D01*
X133276686Y-108812510D01*
X133223000Y-109082408D01*
X133223000Y-109357592D01*
X133230165Y-109393612D01*
X133088777Y-109535000D01*
X132392846Y-109535000D01*
X132350600Y-109530839D01*
X132308354Y-109535000D01*
X130691226Y-109535000D01*
X130654637Y-109480241D01*
X130454759Y-109280363D01*
X130219727Y-109123320D01*
X129958574Y-109015147D01*
X129681335Y-108960000D01*
X129398665Y-108960000D01*
X129121426Y-109015147D01*
X128860273Y-109123320D01*
X128625241Y-109280363D01*
X128425363Y-109480241D01*
X128268320Y-109715273D01*
X128160147Y-109976426D01*
X128105000Y-110253665D01*
X128105000Y-110536335D01*
X128160147Y-110813574D01*
X128268320Y-111074727D01*
X128305393Y-111130210D01*
X128288815Y-111143815D01*
X128209463Y-111240506D01*
X128150498Y-111350820D01*
X128114188Y-111470518D01*
X128101928Y-111595000D01*
X128101928Y-113195000D01*
X128114188Y-113319482D01*
X128150498Y-113439180D01*
X128209463Y-113549494D01*
X128288815Y-113646185D01*
X128385506Y-113725537D01*
X128495820Y-113784502D01*
X128615518Y-113820812D01*
X128681454Y-113827306D01*
X128692444Y-113938889D01*
X128738711Y-114091411D01*
X128741620Y-114101000D01*
X128821477Y-114250402D01*
X128928947Y-114381354D01*
X128961760Y-114408283D01*
X130690301Y-116136825D01*
X130690301Y-116766744D01*
X130456309Y-116695764D01*
X130245492Y-116675000D01*
X130104508Y-116675000D01*
X129893691Y-116695764D01*
X129623192Y-116777818D01*
X129373899Y-116911068D01*
X129155392Y-117090392D01*
X128976068Y-117308899D01*
X128860791Y-117524567D01*
X125577800Y-114241577D01*
X125577800Y-112437246D01*
X125581961Y-112395000D01*
X125565356Y-112226411D01*
X125516181Y-112064300D01*
X125436324Y-111914898D01*
X125328854Y-111783946D01*
X125197902Y-111676476D01*
X125048500Y-111596619D01*
X124886389Y-111547444D01*
X124760046Y-111535000D01*
X124717800Y-111530839D01*
X124675554Y-111535000D01*
X124555757Y-111535000D01*
X124516345Y-111461265D01*
X124317963Y-111219537D01*
X124076234Y-111021155D01*
X123800448Y-110873745D01*
X123501203Y-110782970D01*
X123190000Y-110752319D01*
X123149529Y-110756305D01*
X122188688Y-109795465D01*
X122161754Y-109762646D01*
X122030802Y-109655176D01*
X121881400Y-109575319D01*
X121719289Y-109526144D01*
X121592946Y-109513700D01*
X121592939Y-109513700D01*
X121550700Y-109509540D01*
X121508461Y-109513700D01*
X108777046Y-109513700D01*
X108734800Y-109509539D01*
X108566210Y-109526144D01*
X108404099Y-109575319D01*
X108374815Y-109590972D01*
X108254698Y-109655176D01*
X108123746Y-109762646D01*
X108096817Y-109795459D01*
X101273865Y-116618412D01*
X101241046Y-116645346D01*
X101133576Y-116776299D01*
X101053719Y-116925701D01*
X101025434Y-117018947D01*
X101010202Y-117069161D01*
X101004544Y-117087812D01*
X100992100Y-117214155D01*
X100992100Y-117214161D01*
X100987940Y-117256400D01*
X100992100Y-117298639D01*
X100992101Y-130005351D01*
X100987940Y-130047600D01*
X101004544Y-130216189D01*
X101053720Y-130378300D01*
X101079500Y-130426531D01*
X101079501Y-133650651D01*
X101075340Y-133692900D01*
X101091944Y-133861489D01*
X101141120Y-134023600D01*
X101220977Y-134173002D01*
X101253401Y-134212510D01*
X101328447Y-134303954D01*
X101361260Y-134330883D01*
X109200917Y-142170541D01*
X109227846Y-142203354D01*
X109358798Y-142310824D01*
X109456159Y-142362864D01*
X109508199Y-142390681D01*
X109670310Y-142439856D01*
X109838900Y-142456461D01*
X109881146Y-142452300D01*
X118801961Y-142452300D01*
X118844200Y-142456460D01*
X118886439Y-142452300D01*
X118886446Y-142452300D01*
X119012789Y-142439856D01*
X119174900Y-142390681D01*
X119324302Y-142310824D01*
X119455254Y-142203354D01*
X119482188Y-142170535D01*
X122017600Y-139635123D01*
X127383912Y-145001435D01*
X127410846Y-145034254D01*
X127541798Y-145141724D01*
X127691200Y-145221581D01*
X127765971Y-145244262D01*
X127853309Y-145270756D01*
X127884438Y-145273822D01*
X127979654Y-145283200D01*
X127979660Y-145283200D01*
X128021899Y-145287360D01*
X128064138Y-145283200D01*
X154579561Y-145283200D01*
X154621800Y-145287360D01*
X154664039Y-145283200D01*
X154664046Y-145283200D01*
X154790389Y-145270756D01*
X154952500Y-145221581D01*
X155101902Y-145141724D01*
X155232854Y-145034254D01*
X155259788Y-145001435D01*
X157721605Y-142539619D01*
X157783889Y-142558513D01*
X158075000Y-142587185D01*
X158366110Y-142558513D01*
X158646033Y-142473599D01*
X158904013Y-142335706D01*
X159130134Y-142150134D01*
X159182223Y-142086663D01*
X159236595Y-142188386D01*
X159347038Y-142322962D01*
X159481614Y-142433405D01*
X159635150Y-142515472D01*
X159801746Y-142566008D01*
X159975000Y-142583072D01*
X161175000Y-142583072D01*
X161348254Y-142566008D01*
X161514850Y-142515472D01*
X161668386Y-142433405D01*
X161802962Y-142322962D01*
X161913405Y-142188386D01*
X161995472Y-142034850D01*
X162004497Y-142005098D01*
X163985000Y-142005098D01*
X163985000Y-142474902D01*
X164076654Y-142935679D01*
X164256440Y-143369721D01*
X164517450Y-143760349D01*
X164849651Y-144092550D01*
X165240279Y-144353560D01*
X165674321Y-144533346D01*
X166135098Y-144625000D01*
X166604902Y-144625000D01*
X167065679Y-144533346D01*
X167499721Y-144353560D01*
X167890349Y-144092550D01*
X168222550Y-143760349D01*
X168483560Y-143369721D01*
X168663346Y-142935679D01*
X168755000Y-142474902D01*
X168755000Y-142005098D01*
X168663346Y-141544321D01*
X168483560Y-141110279D01*
X168222550Y-140719651D01*
X167890349Y-140387450D01*
X167499721Y-140126440D01*
X167065679Y-139946654D01*
X166604902Y-139855000D01*
X166135098Y-139855000D01*
X165674321Y-139946654D01*
X165240279Y-140126440D01*
X164849651Y-140387450D01*
X164517450Y-140719651D01*
X164256440Y-141110279D01*
X164076654Y-141544321D01*
X163985000Y-142005098D01*
X162004497Y-142005098D01*
X162046008Y-141868254D01*
X162063072Y-141695000D01*
X162063072Y-140245000D01*
X162046008Y-140071746D01*
X161995472Y-139905150D01*
X161913405Y-139751614D01*
X161802962Y-139617038D01*
X161668386Y-139506595D01*
X161514850Y-139424528D01*
X161348254Y-139373992D01*
X161334939Y-139372681D01*
X161293524Y-139295198D01*
X161186054Y-139164246D01*
X161153242Y-139137318D01*
X157392967Y-135377044D01*
X157414494Y-135365537D01*
X157511185Y-135286185D01*
X157590537Y-135189494D01*
X157649502Y-135079180D01*
X157685812Y-134959482D01*
X157697279Y-134843056D01*
X157803889Y-134832556D01*
X157966000Y-134783381D01*
X158115402Y-134703524D01*
X158246354Y-134596054D01*
X158273288Y-134563235D01*
X161868241Y-130968283D01*
X161901054Y-130941354D01*
X162008524Y-130810402D01*
X162088381Y-130661000D01*
X162135490Y-130505700D01*
X162137556Y-130498891D01*
X162146886Y-130404160D01*
X162150000Y-130372546D01*
X162150000Y-130372540D01*
X162154160Y-130330301D01*
X162150000Y-130288062D01*
X162150000Y-130120276D01*
X162345134Y-129960134D01*
X162530706Y-129734014D01*
X162668599Y-129476034D01*
X162753513Y-129196111D01*
X162782185Y-128905000D01*
X162753513Y-128613889D01*
X162668599Y-128333966D01*
X162530706Y-128075986D01*
X162345134Y-127849866D01*
X162150000Y-127689724D01*
X162150000Y-127580276D01*
X162345134Y-127420134D01*
X162530706Y-127194014D01*
X162668599Y-126936034D01*
X162753513Y-126656111D01*
X162782185Y-126365000D01*
X162753513Y-126073889D01*
X162668599Y-125793966D01*
X162530706Y-125535986D01*
X162345134Y-125309866D01*
X162150000Y-125149724D01*
X162150000Y-125040276D01*
X162345134Y-124880134D01*
X162530706Y-124654014D01*
X162668599Y-124396034D01*
X162753513Y-124116111D01*
X162782185Y-123825000D01*
X162753513Y-123533889D01*
X162668599Y-123253966D01*
X162530706Y-122995986D01*
X162345134Y-122769866D01*
X162150000Y-122609724D01*
X162150000Y-122500276D01*
X162345134Y-122340134D01*
X162530706Y-122114014D01*
X162668599Y-121856034D01*
X162753513Y-121576111D01*
X162782185Y-121285000D01*
X162753513Y-120993889D01*
X162668599Y-120713966D01*
X162530706Y-120455986D01*
X162345134Y-120229866D01*
X162150000Y-120069724D01*
X162150000Y-119960276D01*
X162345134Y-119800134D01*
X162530706Y-119574014D01*
X162668599Y-119316034D01*
X162753513Y-119036111D01*
X162782185Y-118745000D01*
X162753513Y-118453889D01*
X162668599Y-118173966D01*
X162530706Y-117915986D01*
X162345134Y-117689866D01*
X162150000Y-117529724D01*
X162150000Y-117420276D01*
X162345134Y-117260134D01*
X162530706Y-117034014D01*
X162668599Y-116776034D01*
X162753513Y-116496111D01*
X162782185Y-116205000D01*
X162753513Y-115913889D01*
X162668599Y-115633966D01*
X162530706Y-115375986D01*
X162345134Y-115149866D01*
X162150000Y-114989724D01*
X162150000Y-114880276D01*
X162345134Y-114720134D01*
X162530706Y-114494014D01*
X162668599Y-114236034D01*
X162753513Y-113956111D01*
X162782185Y-113665000D01*
X162753513Y-113373889D01*
X162668599Y-113093966D01*
X162530706Y-112835986D01*
X162345134Y-112609866D01*
X162315313Y-112585393D01*
X162384180Y-112564502D01*
X162494494Y-112505537D01*
X162591185Y-112426185D01*
X162670537Y-112329494D01*
X162729502Y-112219180D01*
X162765812Y-112099482D01*
X162778072Y-111975000D01*
X162778072Y-110275000D01*
X162776112Y-110255098D01*
X163985000Y-110255098D01*
X163985000Y-110724902D01*
X164076654Y-111185679D01*
X164256440Y-111619721D01*
X164517450Y-112010349D01*
X164849651Y-112342550D01*
X165240279Y-112603560D01*
X165674321Y-112783346D01*
X166135098Y-112875000D01*
X166604902Y-112875000D01*
X167065679Y-112783346D01*
X167499721Y-112603560D01*
X167890349Y-112342550D01*
X168222550Y-112010349D01*
X168483560Y-111619721D01*
X168663346Y-111185679D01*
X168755000Y-110724902D01*
X168755000Y-110255098D01*
X168663346Y-109794321D01*
X168483560Y-109360279D01*
X168222550Y-108969651D01*
X167890349Y-108637450D01*
X167499721Y-108376440D01*
X167065679Y-108196654D01*
X166604902Y-108105000D01*
X166135098Y-108105000D01*
X165674321Y-108196654D01*
X165240279Y-108376440D01*
X164849651Y-108637450D01*
X164517450Y-108969651D01*
X164256440Y-109360279D01*
X164076654Y-109794321D01*
X163985000Y-110255098D01*
X162776112Y-110255098D01*
X162765812Y-110150518D01*
X162729502Y-110030820D01*
X162670537Y-109920506D01*
X162591185Y-109823815D01*
X162494494Y-109744463D01*
X162384180Y-109685498D01*
X162264482Y-109649188D01*
X162140000Y-109636928D01*
X161018152Y-109636928D01*
X158721223Y-107340000D01*
X167607721Y-107340000D01*
X168004545Y-107378909D01*
X168355208Y-107484780D01*
X168678625Y-107656744D01*
X168962484Y-107888254D01*
X169195965Y-108170486D01*
X169370183Y-108492695D01*
X169478502Y-108842614D01*
X169520001Y-109237452D01*
X169520000Y-143477721D01*
X169481091Y-143874545D01*
X169375220Y-144225206D01*
X169203257Y-144548623D01*
X168971748Y-144832482D01*
X168689514Y-145065965D01*
X168367304Y-145240184D01*
X168017385Y-145348502D01*
X167622557Y-145390000D01*
X101632279Y-145390000D01*
X101235455Y-145351091D01*
X100884794Y-145245220D01*
X100561377Y-145073257D01*
X100277518Y-144841748D01*
X100044035Y-144559514D01*
X99869816Y-144237304D01*
X99761498Y-143887385D01*
X99720000Y-143492557D01*
X99720000Y-142005098D01*
X100485000Y-142005098D01*
X100485000Y-142474902D01*
X100576654Y-142935679D01*
X100756440Y-143369721D01*
X101017450Y-143760349D01*
X101349651Y-144092550D01*
X101740279Y-144353560D01*
X102174321Y-144533346D01*
X102635098Y-144625000D01*
X103104902Y-144625000D01*
X103565679Y-144533346D01*
X103999721Y-144353560D01*
X104390349Y-144092550D01*
X104722550Y-143760349D01*
X104983560Y-143369721D01*
X105163346Y-142935679D01*
X105255000Y-142474902D01*
X105255000Y-142005098D01*
X105163346Y-141544321D01*
X104983560Y-141110279D01*
X104722550Y-140719651D01*
X104390349Y-140387450D01*
X103999721Y-140126440D01*
X103565679Y-139946654D01*
X103104902Y-139855000D01*
X102635098Y-139855000D01*
X102174321Y-139946654D01*
X101740279Y-140126440D01*
X101349651Y-140387450D01*
X101017450Y-140719651D01*
X100756440Y-141110279D01*
X100576654Y-141544321D01*
X100485000Y-142005098D01*
X99720000Y-142005098D01*
X99720000Y-110255098D01*
X100485000Y-110255098D01*
X100485000Y-110724902D01*
X100576654Y-111185679D01*
X100756440Y-111619721D01*
X101017450Y-112010349D01*
X101349651Y-112342550D01*
X101740279Y-112603560D01*
X102174321Y-112783346D01*
X102635098Y-112875000D01*
X103104902Y-112875000D01*
X103565679Y-112783346D01*
X103999721Y-112603560D01*
X104390349Y-112342550D01*
X104722550Y-112010349D01*
X104983560Y-111619721D01*
X105163346Y-111185679D01*
X105255000Y-110724902D01*
X105255000Y-110255098D01*
X105163346Y-109794321D01*
X104983560Y-109360279D01*
X104722550Y-108969651D01*
X104390349Y-108637450D01*
X103999721Y-108376440D01*
X103565679Y-108196654D01*
X103104902Y-108105000D01*
X102635098Y-108105000D01*
X102174321Y-108196654D01*
X101740279Y-108376440D01*
X101349651Y-108637450D01*
X101017450Y-108969651D01*
X100756440Y-109360279D01*
X100576654Y-109794321D01*
X100485000Y-110255098D01*
X99720000Y-110255098D01*
X99720000Y-109252279D01*
X99758909Y-108855455D01*
X99864780Y-108504792D01*
X100036744Y-108181375D01*
X100268254Y-107897516D01*
X100550486Y-107664035D01*
X100872695Y-107489817D01*
X101222614Y-107381498D01*
X101617443Y-107340000D01*
X148632576Y-107340000D01*
X147943960Y-108028617D01*
X147943960Y-108028617D01*
G37*
X147943960Y-108028617D02*
X147911147Y-108055546D01*
X147884218Y-108088359D01*
X147884216Y-108088361D01*
X147852903Y-108126516D01*
X147803677Y-108186498D01*
X147723820Y-108335900D01*
X147716509Y-108360000D01*
X135725523Y-108360000D01*
X135705120Y-108329465D01*
X135510535Y-108134880D01*
X135281727Y-107981995D01*
X135027490Y-107876686D01*
X134757592Y-107823000D01*
X134482408Y-107823000D01*
X134212510Y-107876686D01*
X133958273Y-107981995D01*
X133729465Y-108134880D01*
X133534880Y-108329465D01*
X133381995Y-108558273D01*
X133276686Y-108812510D01*
X133223000Y-109082408D01*
X133223000Y-109357592D01*
X133230165Y-109393612D01*
X133088777Y-109535000D01*
X132392846Y-109535000D01*
X132350600Y-109530839D01*
X132308354Y-109535000D01*
X130691226Y-109535000D01*
X130654637Y-109480241D01*
X130454759Y-109280363D01*
X130219727Y-109123320D01*
X129958574Y-109015147D01*
X129681335Y-108960000D01*
X129398665Y-108960000D01*
X129121426Y-109015147D01*
X128860273Y-109123320D01*
X128625241Y-109280363D01*
X128425363Y-109480241D01*
X128268320Y-109715273D01*
X128160147Y-109976426D01*
X128105000Y-110253665D01*
X128105000Y-110536335D01*
X128160147Y-110813574D01*
X128268320Y-111074727D01*
X128305393Y-111130210D01*
X128288815Y-111143815D01*
X128209463Y-111240506D01*
X128150498Y-111350820D01*
X128114188Y-111470518D01*
X128101928Y-111595000D01*
X128101928Y-113195000D01*
X128114188Y-113319482D01*
X128150498Y-113439180D01*
X128209463Y-113549494D01*
X128288815Y-113646185D01*
X128385506Y-113725537D01*
X128495820Y-113784502D01*
X128615518Y-113820812D01*
X128681454Y-113827306D01*
X128692444Y-113938889D01*
X128738711Y-114091411D01*
X128741620Y-114101000D01*
X128821477Y-114250402D01*
X128928947Y-114381354D01*
X128961760Y-114408283D01*
X130690301Y-116136825D01*
X130690301Y-116766744D01*
X130456309Y-116695764D01*
X130245492Y-116675000D01*
X130104508Y-116675000D01*
X129893691Y-116695764D01*
X129623192Y-116777818D01*
X129373899Y-116911068D01*
X129155392Y-117090392D01*
X128976068Y-117308899D01*
X128860791Y-117524567D01*
X125577800Y-114241577D01*
X125577800Y-112437246D01*
X125581961Y-112395000D01*
X125565356Y-112226411D01*
X125516181Y-112064300D01*
X125436324Y-111914898D01*
X125328854Y-111783946D01*
X125197902Y-111676476D01*
X125048500Y-111596619D01*
X124886389Y-111547444D01*
X124760046Y-111535000D01*
X124717800Y-111530839D01*
X124675554Y-111535000D01*
X124555757Y-111535000D01*
X124516345Y-111461265D01*
X124317963Y-111219537D01*
X124076234Y-111021155D01*
X123800448Y-110873745D01*
X123501203Y-110782970D01*
X123190000Y-110752319D01*
X123149529Y-110756305D01*
X122188688Y-109795465D01*
X122161754Y-109762646D01*
X122030802Y-109655176D01*
X121881400Y-109575319D01*
X121719289Y-109526144D01*
X121592946Y-109513700D01*
X121592939Y-109513700D01*
X121550700Y-109509540D01*
X121508461Y-109513700D01*
X108777046Y-109513700D01*
X108734800Y-109509539D01*
X108566210Y-109526144D01*
X108404099Y-109575319D01*
X108374815Y-109590972D01*
X108254698Y-109655176D01*
X108123746Y-109762646D01*
X108096817Y-109795459D01*
X101273865Y-116618412D01*
X101241046Y-116645346D01*
X101133576Y-116776299D01*
X101053719Y-116925701D01*
X101025434Y-117018947D01*
X101010202Y-117069161D01*
X101004544Y-117087812D01*
X100992100Y-117214155D01*
X100992100Y-117214161D01*
X100987940Y-117256400D01*
X100992100Y-117298639D01*
X100992101Y-130005351D01*
X100987940Y-130047600D01*
X101004544Y-130216189D01*
X101053720Y-130378300D01*
X101079500Y-130426531D01*
X101079501Y-133650651D01*
X101075340Y-133692900D01*
X101091944Y-133861489D01*
X101141120Y-134023600D01*
X101220977Y-134173002D01*
X101253401Y-134212510D01*
X101328447Y-134303954D01*
X101361260Y-134330883D01*
X109200917Y-142170541D01*
X109227846Y-142203354D01*
X109358798Y-142310824D01*
X109456159Y-142362864D01*
X109508199Y-142390681D01*
X109670310Y-142439856D01*
X109838900Y-142456461D01*
X109881146Y-142452300D01*
X118801961Y-142452300D01*
X118844200Y-142456460D01*
X118886439Y-142452300D01*
X118886446Y-142452300D01*
X119012789Y-142439856D01*
X119174900Y-142390681D01*
X119324302Y-142310824D01*
X119455254Y-142203354D01*
X119482188Y-142170535D01*
X122017600Y-139635123D01*
X127383912Y-145001435D01*
X127410846Y-145034254D01*
X127541798Y-145141724D01*
X127691200Y-145221581D01*
X127765971Y-145244262D01*
X127853309Y-145270756D01*
X127884438Y-145273822D01*
X127979654Y-145283200D01*
X127979660Y-145283200D01*
X128021899Y-145287360D01*
X128064138Y-145283200D01*
X154579561Y-145283200D01*
X154621800Y-145287360D01*
X154664039Y-145283200D01*
X154664046Y-145283200D01*
X154790389Y-145270756D01*
X154952500Y-145221581D01*
X155101902Y-145141724D01*
X155232854Y-145034254D01*
X155259788Y-145001435D01*
X157721605Y-142539619D01*
X157783889Y-142558513D01*
X158075000Y-142587185D01*
X158366110Y-142558513D01*
X158646033Y-142473599D01*
X158904013Y-142335706D01*
X159130134Y-142150134D01*
X159182223Y-142086663D01*
X159236595Y-142188386D01*
X159347038Y-142322962D01*
X159481614Y-142433405D01*
X159635150Y-142515472D01*
X159801746Y-142566008D01*
X159975000Y-142583072D01*
X161175000Y-142583072D01*
X161348254Y-142566008D01*
X161514850Y-142515472D01*
X161668386Y-142433405D01*
X161802962Y-142322962D01*
X161913405Y-142188386D01*
X161995472Y-142034850D01*
X162004497Y-142005098D01*
X163985000Y-142005098D01*
X163985000Y-142474902D01*
X164076654Y-142935679D01*
X164256440Y-143369721D01*
X164517450Y-143760349D01*
X164849651Y-144092550D01*
X165240279Y-144353560D01*
X165674321Y-144533346D01*
X166135098Y-144625000D01*
X166604902Y-144625000D01*
X167065679Y-144533346D01*
X167499721Y-144353560D01*
X167890349Y-144092550D01*
X168222550Y-143760349D01*
X168483560Y-143369721D01*
X168663346Y-142935679D01*
X168755000Y-142474902D01*
X168755000Y-142005098D01*
X168663346Y-141544321D01*
X168483560Y-141110279D01*
X168222550Y-140719651D01*
X167890349Y-140387450D01*
X167499721Y-140126440D01*
X167065679Y-139946654D01*
X166604902Y-139855000D01*
X166135098Y-139855000D01*
X165674321Y-139946654D01*
X165240279Y-140126440D01*
X164849651Y-140387450D01*
X164517450Y-140719651D01*
X164256440Y-141110279D01*
X164076654Y-141544321D01*
X163985000Y-142005098D01*
X162004497Y-142005098D01*
X162046008Y-141868254D01*
X162063072Y-141695000D01*
X162063072Y-140245000D01*
X162046008Y-140071746D01*
X161995472Y-139905150D01*
X161913405Y-139751614D01*
X161802962Y-139617038D01*
X161668386Y-139506595D01*
X161514850Y-139424528D01*
X161348254Y-139373992D01*
X161334939Y-139372681D01*
X161293524Y-139295198D01*
X161186054Y-139164246D01*
X161153242Y-139137318D01*
X157392967Y-135377044D01*
X157414494Y-135365537D01*
X157511185Y-135286185D01*
X157590537Y-135189494D01*
X157649502Y-135079180D01*
X157685812Y-134959482D01*
X157697279Y-134843056D01*
X157803889Y-134832556D01*
X157966000Y-134783381D01*
X158115402Y-134703524D01*
X158246354Y-134596054D01*
X158273288Y-134563235D01*
X161868241Y-130968283D01*
X161901054Y-130941354D01*
X162008524Y-130810402D01*
X162088381Y-130661000D01*
X162135490Y-130505700D01*
X162137556Y-130498891D01*
X162146886Y-130404160D01*
X162150000Y-130372546D01*
X162150000Y-130372540D01*
X162154160Y-130330301D01*
X162150000Y-130288062D01*
X162150000Y-130120276D01*
X162345134Y-129960134D01*
X162530706Y-129734014D01*
X162668599Y-129476034D01*
X162753513Y-129196111D01*
X162782185Y-128905000D01*
X162753513Y-128613889D01*
X162668599Y-128333966D01*
X162530706Y-128075986D01*
X162345134Y-127849866D01*
X162150000Y-127689724D01*
X162150000Y-127580276D01*
X162345134Y-127420134D01*
X162530706Y-127194014D01*
X162668599Y-126936034D01*
X162753513Y-126656111D01*
X162782185Y-126365000D01*
X162753513Y-126073889D01*
X162668599Y-125793966D01*
X162530706Y-125535986D01*
X162345134Y-125309866D01*
X162150000Y-125149724D01*
X162150000Y-125040276D01*
X162345134Y-124880134D01*
X162530706Y-124654014D01*
X162668599Y-124396034D01*
X162753513Y-124116111D01*
X162782185Y-123825000D01*
X162753513Y-123533889D01*
X162668599Y-123253966D01*
X162530706Y-122995986D01*
X162345134Y-122769866D01*
X162150000Y-122609724D01*
X162150000Y-122500276D01*
X162345134Y-122340134D01*
X162530706Y-122114014D01*
X162668599Y-121856034D01*
X162753513Y-121576111D01*
X162782185Y-121285000D01*
X162753513Y-120993889D01*
X162668599Y-120713966D01*
X162530706Y-120455986D01*
X162345134Y-120229866D01*
X162150000Y-120069724D01*
X162150000Y-119960276D01*
X162345134Y-119800134D01*
X162530706Y-119574014D01*
X162668599Y-119316034D01*
X162753513Y-119036111D01*
X162782185Y-118745000D01*
X162753513Y-118453889D01*
X162668599Y-118173966D01*
X162530706Y-117915986D01*
X162345134Y-117689866D01*
X162150000Y-117529724D01*
X162150000Y-117420276D01*
X162345134Y-117260134D01*
X162530706Y-117034014D01*
X162668599Y-116776034D01*
X162753513Y-116496111D01*
X162782185Y-116205000D01*
X162753513Y-115913889D01*
X162668599Y-115633966D01*
X162530706Y-115375986D01*
X162345134Y-115149866D01*
X162150000Y-114989724D01*
X162150000Y-114880276D01*
X162345134Y-114720134D01*
X162530706Y-114494014D01*
X162668599Y-114236034D01*
X162753513Y-113956111D01*
X162782185Y-113665000D01*
X162753513Y-113373889D01*
X162668599Y-113093966D01*
X162530706Y-112835986D01*
X162345134Y-112609866D01*
X162315313Y-112585393D01*
X162384180Y-112564502D01*
X162494494Y-112505537D01*
X162591185Y-112426185D01*
X162670537Y-112329494D01*
X162729502Y-112219180D01*
X162765812Y-112099482D01*
X162778072Y-111975000D01*
X162778072Y-110275000D01*
X162776112Y-110255098D01*
X163985000Y-110255098D01*
X163985000Y-110724902D01*
X164076654Y-111185679D01*
X164256440Y-111619721D01*
X164517450Y-112010349D01*
X164849651Y-112342550D01*
X165240279Y-112603560D01*
X165674321Y-112783346D01*
X166135098Y-112875000D01*
X166604902Y-112875000D01*
X167065679Y-112783346D01*
X167499721Y-112603560D01*
X167890349Y-112342550D01*
X168222550Y-112010349D01*
X168483560Y-111619721D01*
X168663346Y-111185679D01*
X168755000Y-110724902D01*
X168755000Y-110255098D01*
X168663346Y-109794321D01*
X168483560Y-109360279D01*
X168222550Y-108969651D01*
X167890349Y-108637450D01*
X167499721Y-108376440D01*
X167065679Y-108196654D01*
X166604902Y-108105000D01*
X166135098Y-108105000D01*
X165674321Y-108196654D01*
X165240279Y-108376440D01*
X164849651Y-108637450D01*
X164517450Y-108969651D01*
X164256440Y-109360279D01*
X164076654Y-109794321D01*
X163985000Y-110255098D01*
X162776112Y-110255098D01*
X162765812Y-110150518D01*
X162729502Y-110030820D01*
X162670537Y-109920506D01*
X162591185Y-109823815D01*
X162494494Y-109744463D01*
X162384180Y-109685498D01*
X162264482Y-109649188D01*
X162140000Y-109636928D01*
X161018152Y-109636928D01*
X158721223Y-107340000D01*
X167607721Y-107340000D01*
X168004545Y-107378909D01*
X168355208Y-107484780D01*
X168678625Y-107656744D01*
X168962484Y-107888254D01*
X169195965Y-108170486D01*
X169370183Y-108492695D01*
X169478502Y-108842614D01*
X169520001Y-109237452D01*
X169520000Y-143477721D01*
X169481091Y-143874545D01*
X169375220Y-144225206D01*
X169203257Y-144548623D01*
X168971748Y-144832482D01*
X168689514Y-145065965D01*
X168367304Y-145240184D01*
X168017385Y-145348502D01*
X167622557Y-145390000D01*
X101632279Y-145390000D01*
X101235455Y-145351091D01*
X100884794Y-145245220D01*
X100561377Y-145073257D01*
X100277518Y-144841748D01*
X100044035Y-144559514D01*
X99869816Y-144237304D01*
X99761498Y-143887385D01*
X99720000Y-143492557D01*
X99720000Y-142005098D01*
X100485000Y-142005098D01*
X100485000Y-142474902D01*
X100576654Y-142935679D01*
X100756440Y-143369721D01*
X101017450Y-143760349D01*
X101349651Y-144092550D01*
X101740279Y-144353560D01*
X102174321Y-144533346D01*
X102635098Y-144625000D01*
X103104902Y-144625000D01*
X103565679Y-144533346D01*
X103999721Y-144353560D01*
X104390349Y-144092550D01*
X104722550Y-143760349D01*
X104983560Y-143369721D01*
X105163346Y-142935679D01*
X105255000Y-142474902D01*
X105255000Y-142005098D01*
X105163346Y-141544321D01*
X104983560Y-141110279D01*
X104722550Y-140719651D01*
X104390349Y-140387450D01*
X103999721Y-140126440D01*
X103565679Y-139946654D01*
X103104902Y-139855000D01*
X102635098Y-139855000D01*
X102174321Y-139946654D01*
X101740279Y-140126440D01*
X101349651Y-140387450D01*
X101017450Y-140719651D01*
X100756440Y-141110279D01*
X100576654Y-141544321D01*
X100485000Y-142005098D01*
X99720000Y-142005098D01*
X99720000Y-110255098D01*
X100485000Y-110255098D01*
X100485000Y-110724902D01*
X100576654Y-111185679D01*
X100756440Y-111619721D01*
X101017450Y-112010349D01*
X101349651Y-112342550D01*
X101740279Y-112603560D01*
X102174321Y-112783346D01*
X102635098Y-112875000D01*
X103104902Y-112875000D01*
X103565679Y-112783346D01*
X103999721Y-112603560D01*
X104390349Y-112342550D01*
X104722550Y-112010349D01*
X104983560Y-111619721D01*
X105163346Y-111185679D01*
X105255000Y-110724902D01*
X105255000Y-110255098D01*
X105163346Y-109794321D01*
X104983560Y-109360279D01*
X104722550Y-108969651D01*
X104390349Y-108637450D01*
X103999721Y-108376440D01*
X103565679Y-108196654D01*
X103104902Y-108105000D01*
X102635098Y-108105000D01*
X102174321Y-108196654D01*
X101740279Y-108376440D01*
X101349651Y-108637450D01*
X101017450Y-108969651D01*
X100756440Y-109360279D01*
X100576654Y-109794321D01*
X100485000Y-110255098D01*
X99720000Y-110255098D01*
X99720000Y-109252279D01*
X99758909Y-108855455D01*
X99864780Y-108504792D01*
X100036744Y-108181375D01*
X100268254Y-107897516D01*
X100550486Y-107664035D01*
X100872695Y-107489817D01*
X101222614Y-107381498D01*
X101617443Y-107340000D01*
X148632576Y-107340000D01*
X147943960Y-108028617D01*
G36*
X154519866Y-142150134D02*
G01*
X154745986Y-142335706D01*
X155003966Y-142473599D01*
X155273435Y-142555342D01*
X154265577Y-143563200D01*
X152898023Y-143563200D01*
X154425759Y-142035464D01*
X154519866Y-142150134D01*
X154519866Y-142150134D01*
G37*
X154519866Y-142150134D02*
X154745986Y-142335706D01*
X155003966Y-142473599D01*
X155273435Y-142555342D01*
X154265577Y-143563200D01*
X152898023Y-143563200D01*
X154425759Y-142035464D01*
X154519866Y-142150134D01*
G36*
X144886976Y-143563200D02*
G01*
X135076049Y-143563200D01*
X135281727Y-143478005D01*
X135510535Y-143325120D01*
X135705120Y-143130535D01*
X135858005Y-142901727D01*
X135963314Y-142647490D01*
X136017000Y-142377592D01*
X136017000Y-142102408D01*
X135963314Y-141832510D01*
X135858005Y-141578273D01*
X135705120Y-141349465D01*
X135510535Y-141154880D01*
X135281727Y-141001995D01*
X135204485Y-140970000D01*
X135281727Y-140938005D01*
X135510535Y-140785120D01*
X135705120Y-140590535D01*
X135858005Y-140361727D01*
X135963314Y-140107490D01*
X136017000Y-139837592D01*
X136017000Y-139562408D01*
X135963314Y-139292510D01*
X135858005Y-139038273D01*
X135705120Y-138809465D01*
X135510535Y-138614880D01*
X135281727Y-138461995D01*
X135204485Y-138430000D01*
X135281727Y-138398005D01*
X135510535Y-138245120D01*
X135705120Y-138050535D01*
X135858005Y-137821727D01*
X135963314Y-137567490D01*
X136017000Y-137297592D01*
X136017000Y-137022408D01*
X135963314Y-136752510D01*
X135858005Y-136498273D01*
X135705120Y-136269465D01*
X135510535Y-136074880D01*
X135281727Y-135921995D01*
X135204485Y-135890000D01*
X135281727Y-135858005D01*
X135510535Y-135705120D01*
X135705120Y-135510535D01*
X135858005Y-135281727D01*
X135963314Y-135027490D01*
X136017000Y-134757592D01*
X136017000Y-134693223D01*
X144886976Y-143563200D01*
X144886976Y-143563200D01*
G37*
X144886976Y-143563200D02*
X135076049Y-143563200D01*
X135281727Y-143478005D01*
X135510535Y-143325120D01*
X135705120Y-143130535D01*
X135858005Y-142901727D01*
X135963314Y-142647490D01*
X136017000Y-142377592D01*
X136017000Y-142102408D01*
X135963314Y-141832510D01*
X135858005Y-141578273D01*
X135705120Y-141349465D01*
X135510535Y-141154880D01*
X135281727Y-141001995D01*
X135204485Y-140970000D01*
X135281727Y-140938005D01*
X135510535Y-140785120D01*
X135705120Y-140590535D01*
X135858005Y-140361727D01*
X135963314Y-140107490D01*
X136017000Y-139837592D01*
X136017000Y-139562408D01*
X135963314Y-139292510D01*
X135858005Y-139038273D01*
X135705120Y-138809465D01*
X135510535Y-138614880D01*
X135281727Y-138461995D01*
X135204485Y-138430000D01*
X135281727Y-138398005D01*
X135510535Y-138245120D01*
X135705120Y-138050535D01*
X135858005Y-137821727D01*
X135963314Y-137567490D01*
X136017000Y-137297592D01*
X136017000Y-137022408D01*
X135963314Y-136752510D01*
X135858005Y-136498273D01*
X135705120Y-136269465D01*
X135510535Y-136074880D01*
X135281727Y-135921995D01*
X135204485Y-135890000D01*
X135281727Y-135858005D01*
X135510535Y-135705120D01*
X135705120Y-135510535D01*
X135858005Y-135281727D01*
X135963314Y-135027490D01*
X136017000Y-134757592D01*
X136017000Y-134693223D01*
X144886976Y-143563200D01*
G36*
X133223000Y-129677592D02*
G01*
X133276686Y-129947490D01*
X133381995Y-130201727D01*
X133534880Y-130430535D01*
X133729465Y-130625120D01*
X133958273Y-130778005D01*
X134035515Y-130810000D01*
X133958273Y-130841995D01*
X133729465Y-130994880D01*
X133534880Y-131189465D01*
X133381995Y-131418273D01*
X133276686Y-131672510D01*
X133223000Y-131942408D01*
X133223000Y-132217592D01*
X133276686Y-132487490D01*
X133381995Y-132741727D01*
X133534880Y-132970535D01*
X133729465Y-133165120D01*
X133958273Y-133318005D01*
X134035515Y-133350000D01*
X133958273Y-133381995D01*
X133729465Y-133534880D01*
X133534880Y-133729465D01*
X133381995Y-133958273D01*
X133276686Y-134212510D01*
X133223000Y-134482408D01*
X133223000Y-134757592D01*
X133276686Y-135027490D01*
X133381995Y-135281727D01*
X133534880Y-135510535D01*
X133729465Y-135705120D01*
X133958273Y-135858005D01*
X134035515Y-135890000D01*
X133958273Y-135921995D01*
X133729465Y-136074880D01*
X133534880Y-136269465D01*
X133381995Y-136498273D01*
X133276686Y-136752510D01*
X133223000Y-137022408D01*
X133223000Y-137297592D01*
X133276686Y-137567490D01*
X133381995Y-137821727D01*
X133534880Y-138050535D01*
X133729465Y-138245120D01*
X133958273Y-138398005D01*
X134035515Y-138430000D01*
X133958273Y-138461995D01*
X133729465Y-138614880D01*
X133534880Y-138809465D01*
X133381995Y-139038273D01*
X133276686Y-139292510D01*
X133223000Y-139562408D01*
X133223000Y-139837592D01*
X133276686Y-140107490D01*
X133381995Y-140361727D01*
X133534880Y-140590535D01*
X133729465Y-140785120D01*
X133958273Y-140938005D01*
X134035515Y-140970000D01*
X133958273Y-141001995D01*
X133729465Y-141154880D01*
X133534880Y-141349465D01*
X133381995Y-141578273D01*
X133276686Y-141832510D01*
X133223000Y-142102408D01*
X133223000Y-142377592D01*
X133276686Y-142647490D01*
X133381995Y-142901727D01*
X133534880Y-143130535D01*
X133729465Y-143325120D01*
X133958273Y-143478005D01*
X134163951Y-143563200D01*
X128378123Y-143563200D01*
X124857995Y-140043072D01*
X124936848Y-140043072D01*
X125453717Y-140559941D01*
X125480646Y-140592754D01*
X125611598Y-140700224D01*
X125761000Y-140780081D01*
X125873935Y-140814339D01*
X125923110Y-140829256D01*
X125940258Y-140830945D01*
X126049454Y-140841700D01*
X126049460Y-140841700D01*
X126091699Y-140845860D01*
X126133938Y-140841700D01*
X131402754Y-140841700D01*
X131445000Y-140845861D01*
X131487246Y-140841700D01*
X131613589Y-140829256D01*
X131775700Y-140780081D01*
X131925102Y-140700224D01*
X132056054Y-140592754D01*
X132163524Y-140461802D01*
X132243381Y-140312400D01*
X132292556Y-140150289D01*
X132309161Y-139981700D01*
X132305000Y-139939454D01*
X132305000Y-131326226D01*
X132359759Y-131289637D01*
X132559637Y-131089759D01*
X132716680Y-130854727D01*
X132824853Y-130593574D01*
X132880000Y-130316335D01*
X132880000Y-130033665D01*
X132824853Y-129756426D01*
X132770083Y-129624200D01*
X133223000Y-129624200D01*
X133223000Y-129677592D01*
X133223000Y-129677592D01*
G37*
X133223000Y-129677592D02*
X133276686Y-129947490D01*
X133381995Y-130201727D01*
X133534880Y-130430535D01*
X133729465Y-130625120D01*
X133958273Y-130778005D01*
X134035515Y-130810000D01*
X133958273Y-130841995D01*
X133729465Y-130994880D01*
X133534880Y-131189465D01*
X133381995Y-131418273D01*
X133276686Y-131672510D01*
X133223000Y-131942408D01*
X133223000Y-132217592D01*
X133276686Y-132487490D01*
X133381995Y-132741727D01*
X133534880Y-132970535D01*
X133729465Y-133165120D01*
X133958273Y-133318005D01*
X134035515Y-133350000D01*
X133958273Y-133381995D01*
X133729465Y-133534880D01*
X133534880Y-133729465D01*
X133381995Y-133958273D01*
X133276686Y-134212510D01*
X133223000Y-134482408D01*
X133223000Y-134757592D01*
X133276686Y-135027490D01*
X133381995Y-135281727D01*
X133534880Y-135510535D01*
X133729465Y-135705120D01*
X133958273Y-135858005D01*
X134035515Y-135890000D01*
X133958273Y-135921995D01*
X133729465Y-136074880D01*
X133534880Y-136269465D01*
X133381995Y-136498273D01*
X133276686Y-136752510D01*
X133223000Y-137022408D01*
X133223000Y-137297592D01*
X133276686Y-137567490D01*
X133381995Y-137821727D01*
X133534880Y-138050535D01*
X133729465Y-138245120D01*
X133958273Y-138398005D01*
X134035515Y-138430000D01*
X133958273Y-138461995D01*
X133729465Y-138614880D01*
X133534880Y-138809465D01*
X133381995Y-139038273D01*
X133276686Y-139292510D01*
X133223000Y-139562408D01*
X133223000Y-139837592D01*
X133276686Y-140107490D01*
X133381995Y-140361727D01*
X133534880Y-140590535D01*
X133729465Y-140785120D01*
X133958273Y-140938005D01*
X134035515Y-140970000D01*
X133958273Y-141001995D01*
X133729465Y-141154880D01*
X133534880Y-141349465D01*
X133381995Y-141578273D01*
X133276686Y-141832510D01*
X133223000Y-142102408D01*
X133223000Y-142377592D01*
X133276686Y-142647490D01*
X133381995Y-142901727D01*
X133534880Y-143130535D01*
X133729465Y-143325120D01*
X133958273Y-143478005D01*
X134163951Y-143563200D01*
X128378123Y-143563200D01*
X124857995Y-140043072D01*
X124936848Y-140043072D01*
X125453717Y-140559941D01*
X125480646Y-140592754D01*
X125611598Y-140700224D01*
X125761000Y-140780081D01*
X125873935Y-140814339D01*
X125923110Y-140829256D01*
X125940258Y-140830945D01*
X126049454Y-140841700D01*
X126049460Y-140841700D01*
X126091699Y-140845860D01*
X126133938Y-140841700D01*
X131402754Y-140841700D01*
X131445000Y-140845861D01*
X131487246Y-140841700D01*
X131613589Y-140829256D01*
X131775700Y-140780081D01*
X131925102Y-140700224D01*
X132056054Y-140592754D01*
X132163524Y-140461802D01*
X132243381Y-140312400D01*
X132292556Y-140150289D01*
X132309161Y-139981700D01*
X132305000Y-139939454D01*
X132305000Y-131326226D01*
X132359759Y-131289637D01*
X132559637Y-131089759D01*
X132716680Y-130854727D01*
X132824853Y-130593574D01*
X132880000Y-130316335D01*
X132880000Y-130033665D01*
X132824853Y-129756426D01*
X132770083Y-129624200D01*
X133223000Y-129624200D01*
X133223000Y-129677592D01*
G36*
X147662200Y-110379961D02*
G01*
X147658040Y-110422200D01*
X147662200Y-110464439D01*
X147662200Y-110464445D01*
X147669281Y-110536335D01*
X147674644Y-110590789D01*
X147682595Y-110617000D01*
X147723819Y-110752899D01*
X147803676Y-110902301D01*
X147911146Y-111033254D01*
X147943965Y-111060188D01*
X148470165Y-111586388D01*
X148463000Y-111622408D01*
X148463000Y-111897592D01*
X148516686Y-112167490D01*
X148621995Y-112421727D01*
X148774880Y-112650535D01*
X148969465Y-112845120D01*
X149198273Y-112998005D01*
X149275515Y-113030000D01*
X149198273Y-113061995D01*
X148969465Y-113214880D01*
X148774880Y-113409465D01*
X148621995Y-113638273D01*
X148516686Y-113892510D01*
X148463000Y-114162408D01*
X148463000Y-114437592D01*
X148516686Y-114707490D01*
X148621995Y-114961727D01*
X148774880Y-115190535D01*
X148969465Y-115385120D01*
X149198273Y-115538005D01*
X149275515Y-115570000D01*
X149198273Y-115601995D01*
X148969465Y-115754880D01*
X148774880Y-115949465D01*
X148621995Y-116178273D01*
X148516686Y-116432510D01*
X148463000Y-116702408D01*
X148463000Y-116977592D01*
X148516686Y-117247490D01*
X148621995Y-117501727D01*
X148774880Y-117730535D01*
X148969465Y-117925120D01*
X149198273Y-118078005D01*
X149275515Y-118110000D01*
X149198273Y-118141995D01*
X148969465Y-118294880D01*
X148774880Y-118489465D01*
X148621995Y-118718273D01*
X148516686Y-118972510D01*
X148463000Y-119242408D01*
X148463000Y-119517592D01*
X148516686Y-119787490D01*
X148621995Y-120041727D01*
X148774880Y-120270535D01*
X148969465Y-120465120D01*
X149198273Y-120618005D01*
X149275515Y-120650000D01*
X149198273Y-120681995D01*
X148969465Y-120834880D01*
X148774880Y-121029465D01*
X148621995Y-121258273D01*
X148516686Y-121512510D01*
X148463000Y-121782408D01*
X148463000Y-122057592D01*
X148516686Y-122327490D01*
X148621995Y-122581727D01*
X148774880Y-122810535D01*
X148969465Y-123005120D01*
X149198273Y-123158005D01*
X149275515Y-123190000D01*
X149198273Y-123221995D01*
X148969465Y-123374880D01*
X148774880Y-123569465D01*
X148621995Y-123798273D01*
X148516686Y-124052510D01*
X148463000Y-124322408D01*
X148463000Y-124597592D01*
X148516686Y-124867490D01*
X148621995Y-125121727D01*
X148774880Y-125350535D01*
X148969465Y-125545120D01*
X149198273Y-125698005D01*
X149275515Y-125730000D01*
X149198273Y-125761995D01*
X148969465Y-125914880D01*
X148774880Y-126109465D01*
X148621995Y-126338273D01*
X148516686Y-126592510D01*
X148463000Y-126862408D01*
X148463000Y-127137592D01*
X148516686Y-127407490D01*
X148621995Y-127661727D01*
X148774880Y-127890535D01*
X148969465Y-128085120D01*
X149198273Y-128238005D01*
X149275515Y-128270000D01*
X149198273Y-128301995D01*
X148969465Y-128454880D01*
X148774880Y-128649465D01*
X148621995Y-128878273D01*
X148516686Y-129132510D01*
X148463000Y-129402408D01*
X148463000Y-129677592D01*
X148516686Y-129947490D01*
X148621995Y-130201727D01*
X148774880Y-130430535D01*
X148969465Y-130625120D01*
X149198273Y-130778005D01*
X149275515Y-130810000D01*
X149198273Y-130841995D01*
X148969465Y-130994880D01*
X148774880Y-131189465D01*
X148621995Y-131418273D01*
X148516686Y-131672510D01*
X148463000Y-131942408D01*
X148463000Y-132217592D01*
X148516686Y-132487490D01*
X148621995Y-132741727D01*
X148774880Y-132970535D01*
X148969465Y-133165120D01*
X149198273Y-133318005D01*
X149275515Y-133350000D01*
X149198273Y-133381995D01*
X148969465Y-133534880D01*
X148774880Y-133729465D01*
X148621995Y-133958273D01*
X148516686Y-134212510D01*
X148463000Y-134482408D01*
X148463000Y-134757592D01*
X148516686Y-135027490D01*
X148621995Y-135281727D01*
X148774880Y-135510535D01*
X148969465Y-135705120D01*
X149198273Y-135858005D01*
X149275515Y-135890000D01*
X149198273Y-135921995D01*
X148969465Y-136074880D01*
X148774880Y-136269465D01*
X148621995Y-136498273D01*
X148516686Y-136752510D01*
X148463000Y-137022408D01*
X148463000Y-137297592D01*
X148516686Y-137567490D01*
X148621995Y-137821727D01*
X148774880Y-138050535D01*
X148969465Y-138245120D01*
X149198273Y-138398005D01*
X149275515Y-138430000D01*
X149198273Y-138461995D01*
X148969465Y-138614880D01*
X148774880Y-138809465D01*
X148621995Y-139038273D01*
X148516686Y-139292510D01*
X148463000Y-139562408D01*
X148463000Y-139837592D01*
X148516686Y-140107490D01*
X148621995Y-140361727D01*
X148774880Y-140590535D01*
X148969465Y-140785120D01*
X149198273Y-140938005D01*
X149275515Y-140970000D01*
X149198273Y-141001995D01*
X148969465Y-141154880D01*
X148774880Y-141349465D01*
X148621995Y-141578273D01*
X148516686Y-141832510D01*
X148463000Y-142102408D01*
X148463000Y-142377592D01*
X148516686Y-142647490D01*
X148545479Y-142717001D01*
X146473225Y-142717001D01*
X136009835Y-132253612D01*
X136017000Y-132217592D01*
X136017000Y-131942408D01*
X135963314Y-131672510D01*
X135858005Y-131418273D01*
X135705120Y-131189465D01*
X135510535Y-130994880D01*
X135281727Y-130841995D01*
X135204485Y-130810000D01*
X135281727Y-130778005D01*
X135510535Y-130625120D01*
X135705120Y-130430535D01*
X135858005Y-130201727D01*
X135963314Y-129947490D01*
X136017000Y-129677592D01*
X136017000Y-129402408D01*
X135963314Y-129132510D01*
X135858005Y-128878273D01*
X135705120Y-128649465D01*
X135510535Y-128454880D01*
X135281727Y-128301995D01*
X135204485Y-128270000D01*
X135281727Y-128238005D01*
X135510535Y-128085120D01*
X135705120Y-127890535D01*
X135858005Y-127661727D01*
X135963314Y-127407490D01*
X136017000Y-127137592D01*
X136017000Y-126862408D01*
X135963314Y-126592510D01*
X135858005Y-126338273D01*
X135705120Y-126109465D01*
X135510535Y-125914880D01*
X135281727Y-125761995D01*
X135204485Y-125730000D01*
X135281727Y-125698005D01*
X135510535Y-125545120D01*
X135705120Y-125350535D01*
X135858005Y-125121727D01*
X135963314Y-124867490D01*
X136017000Y-124597592D01*
X136017000Y-124322408D01*
X135963314Y-124052510D01*
X135858005Y-123798273D01*
X135705120Y-123569465D01*
X135510535Y-123374880D01*
X135281727Y-123221995D01*
X135204485Y-123190000D01*
X135281727Y-123158005D01*
X135510535Y-123005120D01*
X135705120Y-122810535D01*
X135858005Y-122581727D01*
X135963314Y-122327490D01*
X136017000Y-122057592D01*
X136017000Y-121782408D01*
X135963314Y-121512510D01*
X135858005Y-121258273D01*
X135705120Y-121029465D01*
X135510535Y-120834880D01*
X135281727Y-120681995D01*
X135204485Y-120650000D01*
X135281727Y-120618005D01*
X135510535Y-120465120D01*
X135705120Y-120270535D01*
X135858005Y-120041727D01*
X135963314Y-119787490D01*
X136017000Y-119517592D01*
X136017000Y-119242408D01*
X135963314Y-118972510D01*
X135858005Y-118718273D01*
X135705120Y-118489465D01*
X135510535Y-118294880D01*
X135281727Y-118141995D01*
X135204485Y-118110000D01*
X135281727Y-118078005D01*
X135510535Y-117925120D01*
X135705120Y-117730535D01*
X135858005Y-117501727D01*
X135963314Y-117247490D01*
X136017000Y-116977592D01*
X136017000Y-116702408D01*
X135963314Y-116432510D01*
X135858005Y-116178273D01*
X135705120Y-115949465D01*
X135510535Y-115754880D01*
X135281727Y-115601995D01*
X135204485Y-115570000D01*
X135281727Y-115538005D01*
X135510535Y-115385120D01*
X135705120Y-115190535D01*
X135858005Y-114961727D01*
X135963314Y-114707490D01*
X136017000Y-114437592D01*
X136017000Y-114162408D01*
X135963314Y-113892510D01*
X135858005Y-113638273D01*
X135705120Y-113409465D01*
X135510535Y-113214880D01*
X135281727Y-113061995D01*
X135204485Y-113030000D01*
X135281727Y-112998005D01*
X135510535Y-112845120D01*
X135705120Y-112650535D01*
X135858005Y-112421727D01*
X135963314Y-112167490D01*
X136017000Y-111897592D01*
X136017000Y-111622408D01*
X135963314Y-111352510D01*
X135858005Y-111098273D01*
X135705120Y-110869465D01*
X135510535Y-110674880D01*
X135281727Y-110521995D01*
X135204485Y-110490000D01*
X135281727Y-110458005D01*
X135510535Y-110305120D01*
X135705120Y-110110535D01*
X135725523Y-110080000D01*
X147662200Y-110080000D01*
X147662200Y-110379961D01*
X147662200Y-110379961D01*
G37*
X147662200Y-110379961D02*
X147658040Y-110422200D01*
X147662200Y-110464439D01*
X147662200Y-110464445D01*
X147669281Y-110536335D01*
X147674644Y-110590789D01*
X147682595Y-110617000D01*
X147723819Y-110752899D01*
X147803676Y-110902301D01*
X147911146Y-111033254D01*
X147943965Y-111060188D01*
X148470165Y-111586388D01*
X148463000Y-111622408D01*
X148463000Y-111897592D01*
X148516686Y-112167490D01*
X148621995Y-112421727D01*
X148774880Y-112650535D01*
X148969465Y-112845120D01*
X149198273Y-112998005D01*
X149275515Y-113030000D01*
X149198273Y-113061995D01*
X148969465Y-113214880D01*
X148774880Y-113409465D01*
X148621995Y-113638273D01*
X148516686Y-113892510D01*
X148463000Y-114162408D01*
X148463000Y-114437592D01*
X148516686Y-114707490D01*
X148621995Y-114961727D01*
X148774880Y-115190535D01*
X148969465Y-115385120D01*
X149198273Y-115538005D01*
X149275515Y-115570000D01*
X149198273Y-115601995D01*
X148969465Y-115754880D01*
X148774880Y-115949465D01*
X148621995Y-116178273D01*
X148516686Y-116432510D01*
X148463000Y-116702408D01*
X148463000Y-116977592D01*
X148516686Y-117247490D01*
X148621995Y-117501727D01*
X148774880Y-117730535D01*
X148969465Y-117925120D01*
X149198273Y-118078005D01*
X149275515Y-118110000D01*
X149198273Y-118141995D01*
X148969465Y-118294880D01*
X148774880Y-118489465D01*
X148621995Y-118718273D01*
X148516686Y-118972510D01*
X148463000Y-119242408D01*
X148463000Y-119517592D01*
X148516686Y-119787490D01*
X148621995Y-120041727D01*
X148774880Y-120270535D01*
X148969465Y-120465120D01*
X149198273Y-120618005D01*
X149275515Y-120650000D01*
X149198273Y-120681995D01*
X148969465Y-120834880D01*
X148774880Y-121029465D01*
X148621995Y-121258273D01*
X148516686Y-121512510D01*
X148463000Y-121782408D01*
X148463000Y-122057592D01*
X148516686Y-122327490D01*
X148621995Y-122581727D01*
X148774880Y-122810535D01*
X148969465Y-123005120D01*
X149198273Y-123158005D01*
X149275515Y-123190000D01*
X149198273Y-123221995D01*
X148969465Y-123374880D01*
X148774880Y-123569465D01*
X148621995Y-123798273D01*
X148516686Y-124052510D01*
X148463000Y-124322408D01*
X148463000Y-124597592D01*
X148516686Y-124867490D01*
X148621995Y-125121727D01*
X148774880Y-125350535D01*
X148969465Y-125545120D01*
X149198273Y-125698005D01*
X149275515Y-125730000D01*
X149198273Y-125761995D01*
X148969465Y-125914880D01*
X148774880Y-126109465D01*
X148621995Y-126338273D01*
X148516686Y-126592510D01*
X148463000Y-126862408D01*
X148463000Y-127137592D01*
X148516686Y-127407490D01*
X148621995Y-127661727D01*
X148774880Y-127890535D01*
X148969465Y-128085120D01*
X149198273Y-128238005D01*
X149275515Y-128270000D01*
X149198273Y-128301995D01*
X148969465Y-128454880D01*
X148774880Y-128649465D01*
X148621995Y-128878273D01*
X148516686Y-129132510D01*
X148463000Y-129402408D01*
X148463000Y-129677592D01*
X148516686Y-129947490D01*
X148621995Y-130201727D01*
X148774880Y-130430535D01*
X148969465Y-130625120D01*
X149198273Y-130778005D01*
X149275515Y-130810000D01*
X149198273Y-130841995D01*
X148969465Y-130994880D01*
X148774880Y-131189465D01*
X148621995Y-131418273D01*
X148516686Y-131672510D01*
X148463000Y-131942408D01*
X148463000Y-132217592D01*
X148516686Y-132487490D01*
X148621995Y-132741727D01*
X148774880Y-132970535D01*
X148969465Y-133165120D01*
X149198273Y-133318005D01*
X149275515Y-133350000D01*
X149198273Y-133381995D01*
X148969465Y-133534880D01*
X148774880Y-133729465D01*
X148621995Y-133958273D01*
X148516686Y-134212510D01*
X148463000Y-134482408D01*
X148463000Y-134757592D01*
X148516686Y-135027490D01*
X148621995Y-135281727D01*
X148774880Y-135510535D01*
X148969465Y-135705120D01*
X149198273Y-135858005D01*
X149275515Y-135890000D01*
X149198273Y-135921995D01*
X148969465Y-136074880D01*
X148774880Y-136269465D01*
X148621995Y-136498273D01*
X148516686Y-136752510D01*
X148463000Y-137022408D01*
X148463000Y-137297592D01*
X148516686Y-137567490D01*
X148621995Y-137821727D01*
X148774880Y-138050535D01*
X148969465Y-138245120D01*
X149198273Y-138398005D01*
X149275515Y-138430000D01*
X149198273Y-138461995D01*
X148969465Y-138614880D01*
X148774880Y-138809465D01*
X148621995Y-139038273D01*
X148516686Y-139292510D01*
X148463000Y-139562408D01*
X148463000Y-139837592D01*
X148516686Y-140107490D01*
X148621995Y-140361727D01*
X148774880Y-140590535D01*
X148969465Y-140785120D01*
X149198273Y-140938005D01*
X149275515Y-140970000D01*
X149198273Y-141001995D01*
X148969465Y-141154880D01*
X148774880Y-141349465D01*
X148621995Y-141578273D01*
X148516686Y-141832510D01*
X148463000Y-142102408D01*
X148463000Y-142377592D01*
X148516686Y-142647490D01*
X148545479Y-142717001D01*
X146473225Y-142717001D01*
X136009835Y-132253612D01*
X136017000Y-132217592D01*
X136017000Y-131942408D01*
X135963314Y-131672510D01*
X135858005Y-131418273D01*
X135705120Y-131189465D01*
X135510535Y-130994880D01*
X135281727Y-130841995D01*
X135204485Y-130810000D01*
X135281727Y-130778005D01*
X135510535Y-130625120D01*
X135705120Y-130430535D01*
X135858005Y-130201727D01*
X135963314Y-129947490D01*
X136017000Y-129677592D01*
X136017000Y-129402408D01*
X135963314Y-129132510D01*
X135858005Y-128878273D01*
X135705120Y-128649465D01*
X135510535Y-128454880D01*
X135281727Y-128301995D01*
X135204485Y-128270000D01*
X135281727Y-128238005D01*
X135510535Y-128085120D01*
X135705120Y-127890535D01*
X135858005Y-127661727D01*
X135963314Y-127407490D01*
X136017000Y-127137592D01*
X136017000Y-126862408D01*
X135963314Y-126592510D01*
X135858005Y-126338273D01*
X135705120Y-126109465D01*
X135510535Y-125914880D01*
X135281727Y-125761995D01*
X135204485Y-125730000D01*
X135281727Y-125698005D01*
X135510535Y-125545120D01*
X135705120Y-125350535D01*
X135858005Y-125121727D01*
X135963314Y-124867490D01*
X136017000Y-124597592D01*
X136017000Y-124322408D01*
X135963314Y-124052510D01*
X135858005Y-123798273D01*
X135705120Y-123569465D01*
X135510535Y-123374880D01*
X135281727Y-123221995D01*
X135204485Y-123190000D01*
X135281727Y-123158005D01*
X135510535Y-123005120D01*
X135705120Y-122810535D01*
X135858005Y-122581727D01*
X135963314Y-122327490D01*
X136017000Y-122057592D01*
X136017000Y-121782408D01*
X135963314Y-121512510D01*
X135858005Y-121258273D01*
X135705120Y-121029465D01*
X135510535Y-120834880D01*
X135281727Y-120681995D01*
X135204485Y-120650000D01*
X135281727Y-120618005D01*
X135510535Y-120465120D01*
X135705120Y-120270535D01*
X135858005Y-120041727D01*
X135963314Y-119787490D01*
X136017000Y-119517592D01*
X136017000Y-119242408D01*
X135963314Y-118972510D01*
X135858005Y-118718273D01*
X135705120Y-118489465D01*
X135510535Y-118294880D01*
X135281727Y-118141995D01*
X135204485Y-118110000D01*
X135281727Y-118078005D01*
X135510535Y-117925120D01*
X135705120Y-117730535D01*
X135858005Y-117501727D01*
X135963314Y-117247490D01*
X136017000Y-116977592D01*
X136017000Y-116702408D01*
X135963314Y-116432510D01*
X135858005Y-116178273D01*
X135705120Y-115949465D01*
X135510535Y-115754880D01*
X135281727Y-115601995D01*
X135204485Y-115570000D01*
X135281727Y-115538005D01*
X135510535Y-115385120D01*
X135705120Y-115190535D01*
X135858005Y-114961727D01*
X135963314Y-114707490D01*
X136017000Y-114437592D01*
X136017000Y-114162408D01*
X135963314Y-113892510D01*
X135858005Y-113638273D01*
X135705120Y-113409465D01*
X135510535Y-113214880D01*
X135281727Y-113061995D01*
X135204485Y-113030000D01*
X135281727Y-112998005D01*
X135510535Y-112845120D01*
X135705120Y-112650535D01*
X135858005Y-112421727D01*
X135963314Y-112167490D01*
X136017000Y-111897592D01*
X136017000Y-111622408D01*
X135963314Y-111352510D01*
X135858005Y-111098273D01*
X135705120Y-110869465D01*
X135510535Y-110674880D01*
X135281727Y-110521995D01*
X135204485Y-110490000D01*
X135281727Y-110458005D01*
X135510535Y-110305120D01*
X135705120Y-110110535D01*
X135725523Y-110080000D01*
X147662200Y-110080000D01*
X147662200Y-110379961D01*
G36*
X153896900Y-137609661D02*
G01*
X153892740Y-137651900D01*
X153896900Y-137694139D01*
X153896900Y-137694145D01*
X153909344Y-137820488D01*
X153958519Y-137982599D01*
X154038376Y-138132001D01*
X154145846Y-138262954D01*
X154178665Y-138289888D01*
X155273435Y-139384658D01*
X155003967Y-139466401D01*
X154745987Y-139604294D01*
X154519866Y-139789866D01*
X154334294Y-140015986D01*
X154285703Y-140106894D01*
X154274999Y-140105840D01*
X154232760Y-140110000D01*
X154232754Y-140110000D01*
X154123558Y-140120755D01*
X154106410Y-140122444D01*
X154057235Y-140137361D01*
X153944300Y-140171619D01*
X153794898Y-140251476D01*
X153663946Y-140358946D01*
X153637017Y-140391759D01*
X151311776Y-142717001D01*
X151174521Y-142717001D01*
X151203314Y-142647490D01*
X151257000Y-142377592D01*
X151257000Y-142102408D01*
X151203314Y-141832510D01*
X151098005Y-141578273D01*
X150945120Y-141349465D01*
X150750535Y-141154880D01*
X150521727Y-141001995D01*
X150444485Y-140970000D01*
X150521727Y-140938005D01*
X150750535Y-140785120D01*
X150945120Y-140590535D01*
X151098005Y-140361727D01*
X151203314Y-140107490D01*
X151257000Y-139837592D01*
X151257000Y-139562408D01*
X151249835Y-139526389D01*
X151259983Y-139516241D01*
X151259987Y-139516236D01*
X153820351Y-136955873D01*
X153853164Y-136928944D01*
X153896900Y-136875652D01*
X153896900Y-137609661D01*
X153896900Y-137609661D01*
G37*
X153896900Y-137609661D02*
X153892740Y-137651900D01*
X153896900Y-137694139D01*
X153896900Y-137694145D01*
X153909344Y-137820488D01*
X153958519Y-137982599D01*
X154038376Y-138132001D01*
X154145846Y-138262954D01*
X154178665Y-138289888D01*
X155273435Y-139384658D01*
X155003967Y-139466401D01*
X154745987Y-139604294D01*
X154519866Y-139789866D01*
X154334294Y-140015986D01*
X154285703Y-140106894D01*
X154274999Y-140105840D01*
X154232760Y-140110000D01*
X154232754Y-140110000D01*
X154123558Y-140120755D01*
X154106410Y-140122444D01*
X154057235Y-140137361D01*
X153944300Y-140171619D01*
X153794898Y-140251476D01*
X153663946Y-140358946D01*
X153637017Y-140391759D01*
X151311776Y-142717001D01*
X151174521Y-142717001D01*
X151203314Y-142647490D01*
X151257000Y-142377592D01*
X151257000Y-142102408D01*
X151203314Y-141832510D01*
X151098005Y-141578273D01*
X150945120Y-141349465D01*
X150750535Y-141154880D01*
X150521727Y-141001995D01*
X150444485Y-140970000D01*
X150521727Y-140938005D01*
X150750535Y-140785120D01*
X150945120Y-140590535D01*
X151098005Y-140361727D01*
X151203314Y-140107490D01*
X151257000Y-139837592D01*
X151257000Y-139562408D01*
X151249835Y-139526389D01*
X151259983Y-139516241D01*
X151259987Y-139516236D01*
X153820351Y-136955873D01*
X153853164Y-136928944D01*
X153896900Y-136875652D01*
X153896900Y-137609661D01*
G36*
X116234294Y-139384014D02*
G01*
X116419866Y-139610134D01*
X116645987Y-139795706D01*
X116900788Y-139931900D01*
X115549213Y-139931900D01*
X115804014Y-139795706D01*
X116030134Y-139610134D01*
X116215706Y-139384014D01*
X116225000Y-139366626D01*
X116234294Y-139384014D01*
X116234294Y-139384014D01*
G37*
X116234294Y-139384014D02*
X116419866Y-139610134D01*
X116645987Y-139795706D01*
X116900788Y-139931900D01*
X115549213Y-139931900D01*
X115804014Y-139795706D01*
X116030134Y-139610134D01*
X116215706Y-139384014D01*
X116225000Y-139366626D01*
X116234294Y-139384014D01*
G36*
X155631760Y-136048283D02*
G01*
X159280992Y-139697516D01*
X159236595Y-139751614D01*
X159182223Y-139853337D01*
X159130134Y-139789866D01*
X158904014Y-139604294D01*
X158646034Y-139466401D01*
X158366111Y-139381487D01*
X158075000Y-139352815D01*
X157783890Y-139381487D01*
X157721605Y-139400381D01*
X155616900Y-137295677D01*
X155616900Y-136036088D01*
X155631760Y-136048283D01*
X155631760Y-136048283D01*
G37*
X155631760Y-136048283D02*
X159280992Y-139697516D01*
X159236595Y-139751614D01*
X159182223Y-139853337D01*
X159130134Y-139789866D01*
X158904014Y-139604294D01*
X158646034Y-139466401D01*
X158366111Y-139381487D01*
X158075000Y-139352815D01*
X157783890Y-139381487D01*
X157721605Y-139400381D01*
X155616900Y-137295677D01*
X155616900Y-136036088D01*
X155631760Y-136048283D01*
G36*
X111537570Y-136883794D02*
G01*
X111535150Y-136884528D01*
X111381614Y-136966595D01*
X111247038Y-137077038D01*
X111136595Y-137211614D01*
X111054528Y-137365150D01*
X111003992Y-137531746D01*
X110986928Y-137705000D01*
X110986928Y-138301904D01*
X106344400Y-133659377D01*
X106344400Y-132156638D01*
X106348560Y-132114399D01*
X106344400Y-132072160D01*
X106344400Y-132072154D01*
X106331956Y-131945811D01*
X106331956Y-131945809D01*
X106306183Y-131860848D01*
X106282781Y-131783700D01*
X106202924Y-131634298D01*
X106095454Y-131503346D01*
X106062641Y-131476417D01*
X105074619Y-130488396D01*
X105090342Y-130436565D01*
X111537570Y-136883794D01*
X111537570Y-136883794D01*
G37*
X111537570Y-136883794D02*
X111535150Y-136884528D01*
X111381614Y-136966595D01*
X111247038Y-137077038D01*
X111136595Y-137211614D01*
X111054528Y-137365150D01*
X111003992Y-137531746D01*
X110986928Y-137705000D01*
X110986928Y-138301904D01*
X106344400Y-133659377D01*
X106344400Y-132156638D01*
X106348560Y-132114399D01*
X106344400Y-132072160D01*
X106344400Y-132072154D01*
X106331956Y-131945811D01*
X106331956Y-131945809D01*
X106306183Y-131860848D01*
X106282781Y-131783700D01*
X106202924Y-131634298D01*
X106095454Y-131503346D01*
X106062641Y-131476417D01*
X105074619Y-130488396D01*
X105090342Y-130436565D01*
X111537570Y-136883794D01*
G36*
X128680000Y-137089723D02*
G01*
X128484866Y-137249866D01*
X128299294Y-137475987D01*
X128290000Y-137493374D01*
X128280706Y-137475986D01*
X128095134Y-137249866D01*
X127869013Y-137064294D01*
X127611033Y-136926401D01*
X127331110Y-136841487D01*
X127040000Y-136812815D01*
X126748889Y-136841487D01*
X126686604Y-136860381D01*
X126116888Y-136290665D01*
X126089954Y-136257846D01*
X125959002Y-136150376D01*
X125809600Y-136070519D01*
X125647489Y-136021344D01*
X125521146Y-136008900D01*
X125521139Y-136008900D01*
X125478900Y-136004740D01*
X125436661Y-136008900D01*
X123673323Y-136008900D01*
X128680001Y-131002223D01*
X128680000Y-137089723D01*
X128680000Y-137089723D01*
G37*
X128680000Y-137089723D02*
X128484866Y-137249866D01*
X128299294Y-137475987D01*
X128290000Y-137493374D01*
X128280706Y-137475986D01*
X128095134Y-137249866D01*
X127869013Y-137064294D01*
X127611033Y-136926401D01*
X127331110Y-136841487D01*
X127040000Y-136812815D01*
X126748889Y-136841487D01*
X126686604Y-136860381D01*
X126116888Y-136290665D01*
X126089954Y-136257846D01*
X125959002Y-136150376D01*
X125809600Y-136070519D01*
X125647489Y-136021344D01*
X125521146Y-136008900D01*
X125521139Y-136008900D01*
X125478900Y-136004740D01*
X125436661Y-136008900D01*
X123673323Y-136008900D01*
X128680001Y-131002223D01*
X128680000Y-137089723D01*
G36*
X116234294Y-137475987D02*
G01*
X116225000Y-137493374D01*
X116215706Y-137475986D01*
X116206690Y-137465000D01*
X116243311Y-137465000D01*
X116234294Y-137475987D01*
X116234294Y-137475987D01*
G37*
X116234294Y-137475987D02*
X116225000Y-137493374D01*
X116215706Y-137475986D01*
X116206690Y-137465000D01*
X116243311Y-137465000D01*
X116234294Y-137475987D01*
G36*
X129155392Y-124209608D02*
G01*
X129268482Y-124302419D01*
X129250518Y-124304188D01*
X129130820Y-124340498D01*
X129020506Y-124399463D01*
X128923815Y-124478815D01*
X128844463Y-124575506D01*
X128785498Y-124685820D01*
X128749188Y-124805518D01*
X128736928Y-124930000D01*
X128736928Y-126530000D01*
X128749188Y-126654482D01*
X128785498Y-126774180D01*
X128844463Y-126884494D01*
X128923815Y-126981185D01*
X129020506Y-127060537D01*
X129042033Y-127072043D01*
X118680721Y-137433356D01*
X118530134Y-137249866D01*
X118304013Y-137064294D01*
X118046033Y-136926401D01*
X117779941Y-136845682D01*
X124514935Y-130110688D01*
X124547754Y-130083754D01*
X124655224Y-129952802D01*
X124735081Y-129803400D01*
X124767994Y-129694898D01*
X124784256Y-129641291D01*
X124792581Y-129556761D01*
X124796700Y-129514946D01*
X124796700Y-129514940D01*
X124800860Y-129472701D01*
X124796700Y-129430462D01*
X124796700Y-124050000D01*
X129024405Y-124050000D01*
X129155392Y-124209608D01*
X129155392Y-124209608D01*
G37*
X129155392Y-124209608D02*
X129268482Y-124302419D01*
X129250518Y-124304188D01*
X129130820Y-124340498D01*
X129020506Y-124399463D01*
X128923815Y-124478815D01*
X128844463Y-124575506D01*
X128785498Y-124685820D01*
X128749188Y-124805518D01*
X128736928Y-124930000D01*
X128736928Y-126530000D01*
X128749188Y-126654482D01*
X128785498Y-126774180D01*
X128844463Y-126884494D01*
X128923815Y-126981185D01*
X129020506Y-127060537D01*
X129042033Y-127072043D01*
X118680721Y-137433356D01*
X118530134Y-137249866D01*
X118304013Y-137064294D01*
X118046033Y-136926401D01*
X117779941Y-136845682D01*
X124514935Y-130110688D01*
X124547754Y-130083754D01*
X124655224Y-129952802D01*
X124735081Y-129803400D01*
X124767994Y-129694898D01*
X124784256Y-129641291D01*
X124792581Y-129556761D01*
X124796700Y-129514946D01*
X124796700Y-129514940D01*
X124800860Y-129472701D01*
X124796700Y-129430462D01*
X124796700Y-124050000D01*
X129024405Y-124050000D01*
X129155392Y-124209608D01*
G36*
X130530241Y-131289637D02*
G01*
X130585001Y-131326226D01*
X130585000Y-137241550D01*
X130400000Y-137089724D01*
X130400000Y-131159396D01*
X130530241Y-131289637D01*
X130530241Y-131289637D01*
G37*
X130530241Y-131289637D02*
X130585001Y-131326226D01*
X130585000Y-137241550D01*
X130400000Y-137089724D01*
X130400000Y-131159396D01*
X130530241Y-131289637D01*
G36*
X152382111Y-135961665D02*
G01*
X151257000Y-137086777D01*
X151257000Y-137022408D01*
X151249835Y-136986388D01*
X152382111Y-135854113D01*
X152382111Y-135961665D01*
X152382111Y-135961665D01*
G37*
X152382111Y-135961665D02*
X151257000Y-137086777D01*
X151257000Y-137022408D01*
X151249835Y-136986388D01*
X152382111Y-135854113D01*
X152382111Y-135961665D01*
G36*
X115944215Y-112973239D02*
G01*
X115971146Y-113006054D01*
X116102098Y-113113524D01*
X116172873Y-113151354D01*
X116251499Y-113193381D01*
X116413610Y-113242556D01*
X116519428Y-113252978D01*
X116519428Y-113395000D01*
X116531688Y-113519482D01*
X116567998Y-113639180D01*
X116626963Y-113749494D01*
X116706315Y-113846185D01*
X116803006Y-113925537D01*
X116913320Y-113984502D01*
X117033018Y-114020812D01*
X117157500Y-114033072D01*
X119062500Y-114033072D01*
X119186982Y-114020812D01*
X119306680Y-113984502D01*
X119416994Y-113925537D01*
X119513685Y-113846185D01*
X119593037Y-113749494D01*
X119637905Y-113665553D01*
X119763766Y-113768845D01*
X120039552Y-113916255D01*
X120338797Y-114007030D01*
X120650000Y-114037681D01*
X120961204Y-114007030D01*
X121026116Y-113987339D01*
X123076701Y-116037925D01*
X123076701Y-116768685D01*
X122836309Y-116695764D01*
X122625492Y-116675000D01*
X122484508Y-116675000D01*
X122273691Y-116695764D01*
X122003192Y-116777818D01*
X121753899Y-116911068D01*
X121535392Y-117090392D01*
X121356068Y-117308899D01*
X121222818Y-117558192D01*
X121140764Y-117828691D01*
X121123652Y-118002429D01*
X120345300Y-117224077D01*
X120345300Y-116882246D01*
X120349461Y-116840000D01*
X120332856Y-116671411D01*
X120283681Y-116509300D01*
X120203824Y-116359898D01*
X120096354Y-116228946D01*
X119965402Y-116121476D01*
X119816000Y-116041619D01*
X119653889Y-115992444D01*
X119527546Y-115980000D01*
X119485300Y-115975839D01*
X119443054Y-115980000D01*
X119260595Y-115980000D01*
X119129608Y-115820392D01*
X118911101Y-115641068D01*
X118661808Y-115507818D01*
X118391309Y-115425764D01*
X118180492Y-115405000D01*
X118039508Y-115405000D01*
X117828691Y-115425764D01*
X117558192Y-115507818D01*
X117308899Y-115641068D01*
X117090392Y-115820392D01*
X116959405Y-115980000D01*
X115652239Y-115980000D01*
X115610000Y-115975840D01*
X115567761Y-115980000D01*
X115567754Y-115980000D01*
X115456975Y-115990911D01*
X115441410Y-115992444D01*
X115392235Y-116007361D01*
X115279300Y-116041619D01*
X115129898Y-116121476D01*
X114998946Y-116228946D01*
X114972017Y-116261759D01*
X110951849Y-120281928D01*
X109930000Y-120281928D01*
X109756746Y-120298992D01*
X109590150Y-120349528D01*
X109436614Y-120431595D01*
X109302038Y-120542038D01*
X109191595Y-120676614D01*
X109109528Y-120830150D01*
X109058992Y-120996746D01*
X109041928Y-121170000D01*
X109041928Y-122670000D01*
X109058992Y-122843254D01*
X109109528Y-123009850D01*
X109191595Y-123163386D01*
X109302038Y-123297962D01*
X109436614Y-123408405D01*
X109590150Y-123490472D01*
X109670001Y-123514694D01*
X109670000Y-128580306D01*
X109590150Y-128604528D01*
X109436614Y-128686595D01*
X109302038Y-128797038D01*
X109191595Y-128931614D01*
X109109528Y-129085150D01*
X109058992Y-129251746D01*
X109041928Y-129425000D01*
X109041928Y-130925000D01*
X109058992Y-131098254D01*
X109109528Y-131264850D01*
X109191595Y-131418386D01*
X109302038Y-131552962D01*
X109436614Y-131663405D01*
X109590150Y-131745472D01*
X109756746Y-131796008D01*
X109930000Y-131813072D01*
X111130000Y-131813072D01*
X111303254Y-131796008D01*
X111469850Y-131745472D01*
X111623386Y-131663405D01*
X111757962Y-131552962D01*
X111868405Y-131418386D01*
X111922777Y-131316663D01*
X111974866Y-131380134D01*
X112200987Y-131565706D01*
X112458967Y-131703599D01*
X112738890Y-131788513D01*
X113030000Y-131817185D01*
X113321111Y-131788513D01*
X113601034Y-131703599D01*
X113859014Y-131565706D01*
X114085134Y-131380134D01*
X114270706Y-131154014D01*
X114408599Y-130896033D01*
X114493513Y-130616110D01*
X114515000Y-130397949D01*
X114515000Y-129952050D01*
X114493513Y-129733889D01*
X114408599Y-129453966D01*
X114270706Y-129195986D01*
X114085134Y-128969866D01*
X113890000Y-128809724D01*
X113890000Y-127860000D01*
X116958774Y-127860000D01*
X116995363Y-127914759D01*
X117195241Y-128114637D01*
X117430273Y-128271680D01*
X117691426Y-128379853D01*
X117968665Y-128435000D01*
X118251335Y-128435000D01*
X118528574Y-128379853D01*
X118789727Y-128271680D01*
X119024759Y-128114637D01*
X119224637Y-127914759D01*
X119381680Y-127679727D01*
X119489853Y-127418574D01*
X119545000Y-127141335D01*
X119545000Y-126858665D01*
X119532151Y-126794072D01*
X121308694Y-125017530D01*
X121222818Y-125178192D01*
X121140764Y-125448691D01*
X121113057Y-125730000D01*
X121140764Y-126011309D01*
X121222818Y-126281808D01*
X121356068Y-126531101D01*
X121535392Y-126749608D01*
X121695000Y-126880595D01*
X121695000Y-127173476D01*
X120706760Y-128161717D01*
X120673947Y-128188646D01*
X120647018Y-128221459D01*
X120647016Y-128221461D01*
X120566477Y-128319598D01*
X120486620Y-128469000D01*
X120437444Y-128631111D01*
X120420840Y-128799700D01*
X120425001Y-128841948D01*
X120425001Y-129024404D01*
X120265392Y-129155392D01*
X120086068Y-129373899D01*
X119952818Y-129623192D01*
X119870764Y-129893691D01*
X119843057Y-130175000D01*
X119870764Y-130456309D01*
X119952818Y-130726808D01*
X120086068Y-130976101D01*
X120265392Y-131194608D01*
X120483899Y-131373932D01*
X120702435Y-131490742D01*
X116448177Y-135745000D01*
X112831224Y-135745000D01*
X105118072Y-128031849D01*
X105118072Y-127035000D01*
X105101008Y-126861746D01*
X105050472Y-126695150D01*
X104968405Y-126541614D01*
X104857962Y-126407038D01*
X104723386Y-126296595D01*
X104569850Y-126214528D01*
X104403254Y-126163992D01*
X104365000Y-126160224D01*
X104365000Y-121954320D01*
X104484014Y-121890706D01*
X104710134Y-121705134D01*
X104870276Y-121510000D01*
X105038054Y-121510000D01*
X105080300Y-121514161D01*
X105122546Y-121510000D01*
X105248889Y-121497556D01*
X105411000Y-121448381D01*
X105560402Y-121368524D01*
X105691354Y-121261054D01*
X105798824Y-121130102D01*
X105878681Y-120980700D01*
X105927856Y-120818589D01*
X105944461Y-120650000D01*
X105940300Y-120607754D01*
X105940300Y-120025923D01*
X110284072Y-115682152D01*
X110348665Y-115695000D01*
X110631335Y-115695000D01*
X110908574Y-115639853D01*
X111169727Y-115531680D01*
X111404759Y-115374637D01*
X111604637Y-115174759D01*
X111761680Y-114939727D01*
X111869853Y-114678574D01*
X111925000Y-114401335D01*
X111925000Y-114118665D01*
X111869853Y-113841426D01*
X111761680Y-113580273D01*
X111604637Y-113345241D01*
X111438057Y-113178661D01*
X111534180Y-113149502D01*
X111644494Y-113090537D01*
X111741185Y-113011185D01*
X111820537Y-112914494D01*
X111879502Y-112804180D01*
X111915812Y-112684482D01*
X111922163Y-112620000D01*
X115590977Y-112620000D01*
X115944215Y-112973239D01*
X115944215Y-112973239D01*
G37*
X115944215Y-112973239D02*
X115971146Y-113006054D01*
X116102098Y-113113524D01*
X116172873Y-113151354D01*
X116251499Y-113193381D01*
X116413610Y-113242556D01*
X116519428Y-113252978D01*
X116519428Y-113395000D01*
X116531688Y-113519482D01*
X116567998Y-113639180D01*
X116626963Y-113749494D01*
X116706315Y-113846185D01*
X116803006Y-113925537D01*
X116913320Y-113984502D01*
X117033018Y-114020812D01*
X117157500Y-114033072D01*
X119062500Y-114033072D01*
X119186982Y-114020812D01*
X119306680Y-113984502D01*
X119416994Y-113925537D01*
X119513685Y-113846185D01*
X119593037Y-113749494D01*
X119637905Y-113665553D01*
X119763766Y-113768845D01*
X120039552Y-113916255D01*
X120338797Y-114007030D01*
X120650000Y-114037681D01*
X120961204Y-114007030D01*
X121026116Y-113987339D01*
X123076701Y-116037925D01*
X123076701Y-116768685D01*
X122836309Y-116695764D01*
X122625492Y-116675000D01*
X122484508Y-116675000D01*
X122273691Y-116695764D01*
X122003192Y-116777818D01*
X121753899Y-116911068D01*
X121535392Y-117090392D01*
X121356068Y-117308899D01*
X121222818Y-117558192D01*
X121140764Y-117828691D01*
X121123652Y-118002429D01*
X120345300Y-117224077D01*
X120345300Y-116882246D01*
X120349461Y-116840000D01*
X120332856Y-116671411D01*
X120283681Y-116509300D01*
X120203824Y-116359898D01*
X120096354Y-116228946D01*
X119965402Y-116121476D01*
X119816000Y-116041619D01*
X119653889Y-115992444D01*
X119527546Y-115980000D01*
X119485300Y-115975839D01*
X119443054Y-115980000D01*
X119260595Y-115980000D01*
X119129608Y-115820392D01*
X118911101Y-115641068D01*
X118661808Y-115507818D01*
X118391309Y-115425764D01*
X118180492Y-115405000D01*
X118039508Y-115405000D01*
X117828691Y-115425764D01*
X117558192Y-115507818D01*
X117308899Y-115641068D01*
X117090392Y-115820392D01*
X116959405Y-115980000D01*
X115652239Y-115980000D01*
X115610000Y-115975840D01*
X115567761Y-115980000D01*
X115567754Y-115980000D01*
X115456975Y-115990911D01*
X115441410Y-115992444D01*
X115392235Y-116007361D01*
X115279300Y-116041619D01*
X115129898Y-116121476D01*
X114998946Y-116228946D01*
X114972017Y-116261759D01*
X110951849Y-120281928D01*
X109930000Y-120281928D01*
X109756746Y-120298992D01*
X109590150Y-120349528D01*
X109436614Y-120431595D01*
X109302038Y-120542038D01*
X109191595Y-120676614D01*
X109109528Y-120830150D01*
X109058992Y-120996746D01*
X109041928Y-121170000D01*
X109041928Y-122670000D01*
X109058992Y-122843254D01*
X109109528Y-123009850D01*
X109191595Y-123163386D01*
X109302038Y-123297962D01*
X109436614Y-123408405D01*
X109590150Y-123490472D01*
X109670001Y-123514694D01*
X109670000Y-128580306D01*
X109590150Y-128604528D01*
X109436614Y-128686595D01*
X109302038Y-128797038D01*
X109191595Y-128931614D01*
X109109528Y-129085150D01*
X109058992Y-129251746D01*
X109041928Y-129425000D01*
X109041928Y-130925000D01*
X109058992Y-131098254D01*
X109109528Y-131264850D01*
X109191595Y-131418386D01*
X109302038Y-131552962D01*
X109436614Y-131663405D01*
X109590150Y-131745472D01*
X109756746Y-131796008D01*
X109930000Y-131813072D01*
X111130000Y-131813072D01*
X111303254Y-131796008D01*
X111469850Y-131745472D01*
X111623386Y-131663405D01*
X111757962Y-131552962D01*
X111868405Y-131418386D01*
X111922777Y-131316663D01*
X111974866Y-131380134D01*
X112200987Y-131565706D01*
X112458967Y-131703599D01*
X112738890Y-131788513D01*
X113030000Y-131817185D01*
X113321111Y-131788513D01*
X113601034Y-131703599D01*
X113859014Y-131565706D01*
X114085134Y-131380134D01*
X114270706Y-131154014D01*
X114408599Y-130896033D01*
X114493513Y-130616110D01*
X114515000Y-130397949D01*
X114515000Y-129952050D01*
X114493513Y-129733889D01*
X114408599Y-129453966D01*
X114270706Y-129195986D01*
X114085134Y-128969866D01*
X113890000Y-128809724D01*
X113890000Y-127860000D01*
X116958774Y-127860000D01*
X116995363Y-127914759D01*
X117195241Y-128114637D01*
X117430273Y-128271680D01*
X117691426Y-128379853D01*
X117968665Y-128435000D01*
X118251335Y-128435000D01*
X118528574Y-128379853D01*
X118789727Y-128271680D01*
X119024759Y-128114637D01*
X119224637Y-127914759D01*
X119381680Y-127679727D01*
X119489853Y-127418574D01*
X119545000Y-127141335D01*
X119545000Y-126858665D01*
X119532151Y-126794072D01*
X121308694Y-125017530D01*
X121222818Y-125178192D01*
X121140764Y-125448691D01*
X121113057Y-125730000D01*
X121140764Y-126011309D01*
X121222818Y-126281808D01*
X121356068Y-126531101D01*
X121535392Y-126749608D01*
X121695000Y-126880595D01*
X121695000Y-127173476D01*
X120706760Y-128161717D01*
X120673947Y-128188646D01*
X120647018Y-128221459D01*
X120647016Y-128221461D01*
X120566477Y-128319598D01*
X120486620Y-128469000D01*
X120437444Y-128631111D01*
X120420840Y-128799700D01*
X120425001Y-128841948D01*
X120425001Y-129024404D01*
X120265392Y-129155392D01*
X120086068Y-129373899D01*
X119952818Y-129623192D01*
X119870764Y-129893691D01*
X119843057Y-130175000D01*
X119870764Y-130456309D01*
X119952818Y-130726808D01*
X120086068Y-130976101D01*
X120265392Y-131194608D01*
X120483899Y-131373932D01*
X120702435Y-131490742D01*
X116448177Y-135745000D01*
X112831224Y-135745000D01*
X105118072Y-128031849D01*
X105118072Y-127035000D01*
X105101008Y-126861746D01*
X105050472Y-126695150D01*
X104968405Y-126541614D01*
X104857962Y-126407038D01*
X104723386Y-126296595D01*
X104569850Y-126214528D01*
X104403254Y-126163992D01*
X104365000Y-126160224D01*
X104365000Y-121954320D01*
X104484014Y-121890706D01*
X104710134Y-121705134D01*
X104870276Y-121510000D01*
X105038054Y-121510000D01*
X105080300Y-121514161D01*
X105122546Y-121510000D01*
X105248889Y-121497556D01*
X105411000Y-121448381D01*
X105560402Y-121368524D01*
X105691354Y-121261054D01*
X105798824Y-121130102D01*
X105878681Y-120980700D01*
X105927856Y-120818589D01*
X105944461Y-120650000D01*
X105940300Y-120607754D01*
X105940300Y-120025923D01*
X110284072Y-115682152D01*
X110348665Y-115695000D01*
X110631335Y-115695000D01*
X110908574Y-115639853D01*
X111169727Y-115531680D01*
X111404759Y-115374637D01*
X111604637Y-115174759D01*
X111761680Y-114939727D01*
X111869853Y-114678574D01*
X111925000Y-114401335D01*
X111925000Y-114118665D01*
X111869853Y-113841426D01*
X111761680Y-113580273D01*
X111604637Y-113345241D01*
X111438057Y-113178661D01*
X111534180Y-113149502D01*
X111644494Y-113090537D01*
X111741185Y-113011185D01*
X111820537Y-112914494D01*
X111879502Y-112804180D01*
X111915812Y-112684482D01*
X111922163Y-112620000D01*
X115590977Y-112620000D01*
X115944215Y-112973239D01*
G36*
X104624400Y-133963477D02*
G01*
X104501644Y-133840721D01*
X104624400Y-133739977D01*
X104624400Y-133963477D01*
X104624400Y-133963477D01*
G37*
X104624400Y-133963477D02*
X104501644Y-133840721D01*
X104624400Y-133739977D01*
X104624400Y-133963477D01*
G36*
X160049294Y-129734014D02*
G01*
X160234866Y-129960134D01*
X160349700Y-130054376D01*
X157602044Y-132802033D01*
X157590537Y-132780506D01*
X157511185Y-132683815D01*
X157414494Y-132604463D01*
X157304180Y-132545498D01*
X157235313Y-132524607D01*
X157265134Y-132500134D01*
X157425276Y-132305000D01*
X157593061Y-132305000D01*
X157635300Y-132309160D01*
X157677539Y-132305000D01*
X157677546Y-132305000D01*
X157803889Y-132292556D01*
X157966000Y-132243381D01*
X158115402Y-132163524D01*
X158246354Y-132056054D01*
X158273288Y-132023235D01*
X159328240Y-130968284D01*
X159361054Y-130941354D01*
X159468524Y-130810402D01*
X159548381Y-130661000D01*
X159595490Y-130505700D01*
X159597556Y-130498890D01*
X159606886Y-130404160D01*
X159610000Y-130372546D01*
X159610000Y-130372539D01*
X159614160Y-130330300D01*
X159610000Y-130288061D01*
X159610000Y-130120276D01*
X159805134Y-129960134D01*
X159990706Y-129734014D01*
X160020000Y-129679209D01*
X160049294Y-129734014D01*
X160049294Y-129734014D01*
G37*
X160049294Y-129734014D02*
X160234866Y-129960134D01*
X160349700Y-130054376D01*
X157602044Y-132802033D01*
X157590537Y-132780506D01*
X157511185Y-132683815D01*
X157414494Y-132604463D01*
X157304180Y-132545498D01*
X157235313Y-132524607D01*
X157265134Y-132500134D01*
X157425276Y-132305000D01*
X157593061Y-132305000D01*
X157635300Y-132309160D01*
X157677539Y-132305000D01*
X157677546Y-132305000D01*
X157803889Y-132292556D01*
X157966000Y-132243381D01*
X158115402Y-132163524D01*
X158246354Y-132056054D01*
X158273288Y-132023235D01*
X159328240Y-130968284D01*
X159361054Y-130941354D01*
X159468524Y-130810402D01*
X159548381Y-130661000D01*
X159595490Y-130505700D01*
X159597556Y-130498890D01*
X159606886Y-130404160D01*
X159610000Y-130372546D01*
X159610000Y-130372539D01*
X159614160Y-130330300D01*
X159610000Y-130288061D01*
X159610000Y-130120276D01*
X159805134Y-129960134D01*
X159990706Y-129734014D01*
X160020000Y-129679209D01*
X160049294Y-129734014D01*
G36*
X154742558Y-131696219D02*
G01*
X154178660Y-132260117D01*
X154145847Y-132287046D01*
X154118918Y-132319859D01*
X154118916Y-132319861D01*
X154102110Y-132340339D01*
X154102110Y-132229113D01*
X154732915Y-131598309D01*
X154742558Y-131696219D01*
X154742558Y-131696219D01*
G37*
X154742558Y-131696219D02*
X154178660Y-132260117D01*
X154145847Y-132287046D01*
X154118918Y-132319859D01*
X154118916Y-132319861D01*
X154102110Y-132340339D01*
X154102110Y-132229113D01*
X154732915Y-131598309D01*
X154742558Y-131696219D01*
G36*
X157509294Y-129734014D02*
G01*
X157694866Y-129960134D01*
X157809700Y-130054376D01*
X157359376Y-130504700D01*
X157265134Y-130389866D01*
X157039014Y-130204294D01*
X156984209Y-130175000D01*
X157039014Y-130145706D01*
X157265134Y-129960134D01*
X157450706Y-129734014D01*
X157480000Y-129679209D01*
X157509294Y-129734014D01*
X157509294Y-129734014D01*
G37*
X157509294Y-129734014D02*
X157694866Y-129960134D01*
X157809700Y-130054376D01*
X157359376Y-130504700D01*
X157265134Y-130389866D01*
X157039014Y-130204294D01*
X156984209Y-130175000D01*
X157039014Y-130145706D01*
X157265134Y-129960134D01*
X157450706Y-129734014D01*
X157480000Y-129679209D01*
X157509294Y-129734014D01*
G36*
X123076701Y-129116476D02*
G01*
X122600742Y-129592435D01*
X122483932Y-129373899D01*
X122304608Y-129155392D01*
X122217236Y-129083687D01*
X123076701Y-128224223D01*
X123076701Y-129116476D01*
X123076701Y-129116476D01*
G37*
X123076701Y-129116476D02*
X122600742Y-129592435D01*
X122483932Y-129373899D01*
X122304608Y-129155392D01*
X122217236Y-129083687D01*
X123076701Y-128224223D01*
X123076701Y-129116476D01*
G36*
X111974866Y-123125134D02*
G01*
X112170001Y-123285276D01*
X112170000Y-126957754D01*
X112165839Y-127000000D01*
X112170001Y-127042256D01*
X112170000Y-128809723D01*
X111974866Y-128969866D01*
X111922777Y-129033337D01*
X111868405Y-128931614D01*
X111757962Y-128797038D01*
X111623386Y-128686595D01*
X111469850Y-128604528D01*
X111390000Y-128580306D01*
X111390000Y-123514694D01*
X111469850Y-123490472D01*
X111623386Y-123408405D01*
X111757962Y-123297962D01*
X111868405Y-123163386D01*
X111922777Y-123061663D01*
X111974866Y-123125134D01*
X111974866Y-123125134D01*
G37*
X111974866Y-123125134D02*
X112170001Y-123285276D01*
X112170000Y-126957754D01*
X112165839Y-127000000D01*
X112170001Y-127042256D01*
X112170000Y-128809723D01*
X111974866Y-128969866D01*
X111922777Y-129033337D01*
X111868405Y-128931614D01*
X111757962Y-128797038D01*
X111623386Y-128686595D01*
X111469850Y-128604528D01*
X111390000Y-128580306D01*
X111390000Y-123514694D01*
X111469850Y-123490472D01*
X111623386Y-123408405D01*
X111757962Y-123297962D01*
X111868405Y-123163386D01*
X111922777Y-123061663D01*
X111974866Y-123125134D01*
G36*
X154742558Y-126616219D02*
G01*
X154206764Y-127152013D01*
X154173945Y-127178947D01*
X154066475Y-127309900D01*
X153986618Y-127459302D01*
X153969364Y-127516182D01*
X153942208Y-127605706D01*
X153937443Y-127621413D01*
X153924999Y-127747756D01*
X153924999Y-127747762D01*
X153920839Y-127790001D01*
X153924999Y-127832240D01*
X153925000Y-128842392D01*
X153895000Y-128872392D01*
X153895000Y-127356223D01*
X154732915Y-126518309D01*
X154742558Y-126616219D01*
X154742558Y-126616219D01*
G37*
X154742558Y-126616219D02*
X154206764Y-127152013D01*
X154173945Y-127178947D01*
X154066475Y-127309900D01*
X153986618Y-127459302D01*
X153969364Y-127516182D01*
X153942208Y-127605706D01*
X153937443Y-127621413D01*
X153924999Y-127747756D01*
X153924999Y-127747762D01*
X153920839Y-127790001D01*
X153924999Y-127832240D01*
X153925000Y-128842392D01*
X153895000Y-128872392D01*
X153895000Y-127356223D01*
X154732915Y-126518309D01*
X154742558Y-126616219D01*
G36*
X157509294Y-127194014D02*
G01*
X157694866Y-127420134D01*
X157890000Y-127580277D01*
X157890001Y-127689723D01*
X157694866Y-127849866D01*
X157509294Y-128075986D01*
X157480000Y-128130791D01*
X157450706Y-128075986D01*
X157265134Y-127849866D01*
X157039014Y-127664294D01*
X156984209Y-127635000D01*
X157039014Y-127605706D01*
X157265134Y-127420134D01*
X157450706Y-127194014D01*
X157480000Y-127139209D01*
X157509294Y-127194014D01*
X157509294Y-127194014D01*
G37*
X157509294Y-127194014D02*
X157694866Y-127420134D01*
X157890000Y-127580277D01*
X157890001Y-127689723D01*
X157694866Y-127849866D01*
X157509294Y-128075986D01*
X157480000Y-128130791D01*
X157450706Y-128075986D01*
X157265134Y-127849866D01*
X157039014Y-127664294D01*
X156984209Y-127635000D01*
X157039014Y-127605706D01*
X157265134Y-127420134D01*
X157450706Y-127194014D01*
X157480000Y-127139209D01*
X157509294Y-127194014D01*
G36*
X160049294Y-127194014D02*
G01*
X160234866Y-127420134D01*
X160430000Y-127580277D01*
X160430001Y-127689723D01*
X160234866Y-127849866D01*
X160049294Y-128075986D01*
X160020000Y-128130791D01*
X159990706Y-128075986D01*
X159805134Y-127849866D01*
X159610000Y-127689724D01*
X159610000Y-127580276D01*
X159805134Y-127420134D01*
X159990706Y-127194014D01*
X160020000Y-127139209D01*
X160049294Y-127194014D01*
X160049294Y-127194014D01*
G37*
X160049294Y-127194014D02*
X160234866Y-127420134D01*
X160430000Y-127580277D01*
X160430001Y-127689723D01*
X160234866Y-127849866D01*
X160049294Y-128075986D01*
X160020000Y-128130791D01*
X159990706Y-128075986D01*
X159805134Y-127849866D01*
X159610000Y-127689724D01*
X159610000Y-127580276D01*
X159805134Y-127420134D01*
X159990706Y-127194014D01*
X160020000Y-127139209D01*
X160049294Y-127194014D01*
G36*
X133223000Y-127103900D02*
G01*
X133192323Y-127103900D01*
X133223000Y-127073223D01*
X133223000Y-127103900D01*
X133223000Y-127103900D01*
G37*
X133223000Y-127103900D02*
X133192323Y-127103900D01*
X133223000Y-127073223D01*
X133223000Y-127103900D01*
G36*
X133534880Y-122810535D02*
G01*
X133729465Y-123005120D01*
X133958273Y-123158005D01*
X134035515Y-123190000D01*
X133958273Y-123221995D01*
X133729465Y-123374880D01*
X133534880Y-123569465D01*
X133381995Y-123798273D01*
X133276686Y-124052510D01*
X133223000Y-124322408D01*
X133223000Y-124597592D01*
X133230165Y-124633612D01*
X131613072Y-126250705D01*
X131613072Y-125508151D01*
X133155941Y-123965283D01*
X133188754Y-123938354D01*
X133296224Y-123807402D01*
X133376081Y-123658000D01*
X133425256Y-123495889D01*
X133437700Y-123369546D01*
X133437700Y-123369539D01*
X133441860Y-123327300D01*
X133437700Y-123285061D01*
X133437700Y-122665095D01*
X133534880Y-122810535D01*
X133534880Y-122810535D01*
G37*
X133534880Y-122810535D02*
X133729465Y-123005120D01*
X133958273Y-123158005D01*
X134035515Y-123190000D01*
X133958273Y-123221995D01*
X133729465Y-123374880D01*
X133534880Y-123569465D01*
X133381995Y-123798273D01*
X133276686Y-124052510D01*
X133223000Y-124322408D01*
X133223000Y-124597592D01*
X133230165Y-124633612D01*
X131613072Y-126250705D01*
X131613072Y-125508151D01*
X133155941Y-123965283D01*
X133188754Y-123938354D01*
X133296224Y-123807402D01*
X133376081Y-123658000D01*
X133425256Y-123495889D01*
X133437700Y-123369546D01*
X133437700Y-123369539D01*
X133441860Y-123327300D01*
X133437700Y-123285061D01*
X133437700Y-122665095D01*
X133534880Y-122810535D01*
G36*
X117090392Y-117859608D02*
G01*
X117308899Y-118038932D01*
X117558192Y-118172182D01*
X117828691Y-118254236D01*
X118039508Y-118275000D01*
X118180492Y-118275000D01*
X118391309Y-118254236D01*
X118661808Y-118172182D01*
X118798535Y-118099100D01*
X118840309Y-118150000D01*
X118874247Y-118191354D01*
X118907060Y-118218283D01*
X121133295Y-120444519D01*
X121113057Y-120650000D01*
X121140764Y-120931309D01*
X121222818Y-121201808D01*
X121356068Y-121451101D01*
X121535392Y-121669608D01*
X121753899Y-121848932D01*
X121886858Y-121920000D01*
X121753899Y-121991068D01*
X121535392Y-122170392D01*
X121404405Y-122330000D01*
X121221946Y-122330000D01*
X121179700Y-122325839D01*
X121137454Y-122330000D01*
X121011111Y-122342444D01*
X120849000Y-122391619D01*
X120699598Y-122471476D01*
X120568646Y-122578946D01*
X120461176Y-122709898D01*
X120381319Y-122859300D01*
X120332144Y-123021411D01*
X120315539Y-123190000D01*
X120319700Y-123232245D01*
X120319700Y-123574076D01*
X118315928Y-125577849D01*
X118251335Y-125565000D01*
X117968665Y-125565000D01*
X117691426Y-125620147D01*
X117430273Y-125728320D01*
X117195241Y-125885363D01*
X116995363Y-126085241D01*
X116958774Y-126140000D01*
X113890000Y-126140000D01*
X113890000Y-123285276D01*
X114085134Y-123125134D01*
X114270706Y-122899014D01*
X114408599Y-122641033D01*
X114493513Y-122361110D01*
X114515000Y-122142949D01*
X114515000Y-121697050D01*
X114493513Y-121478889D01*
X114408599Y-121198966D01*
X114270706Y-120940986D01*
X114085134Y-120714866D01*
X113859013Y-120529294D01*
X113601033Y-120391401D01*
X113350746Y-120315477D01*
X115966224Y-117700000D01*
X116959405Y-117700000D01*
X117090392Y-117859608D01*
X117090392Y-117859608D01*
G37*
X117090392Y-117859608D02*
X117308899Y-118038932D01*
X117558192Y-118172182D01*
X117828691Y-118254236D01*
X118039508Y-118275000D01*
X118180492Y-118275000D01*
X118391309Y-118254236D01*
X118661808Y-118172182D01*
X118798535Y-118099100D01*
X118840309Y-118150000D01*
X118874247Y-118191354D01*
X118907060Y-118218283D01*
X121133295Y-120444519D01*
X121113057Y-120650000D01*
X121140764Y-120931309D01*
X121222818Y-121201808D01*
X121356068Y-121451101D01*
X121535392Y-121669608D01*
X121753899Y-121848932D01*
X121886858Y-121920000D01*
X121753899Y-121991068D01*
X121535392Y-122170392D01*
X121404405Y-122330000D01*
X121221946Y-122330000D01*
X121179700Y-122325839D01*
X121137454Y-122330000D01*
X121011111Y-122342444D01*
X120849000Y-122391619D01*
X120699598Y-122471476D01*
X120568646Y-122578946D01*
X120461176Y-122709898D01*
X120381319Y-122859300D01*
X120332144Y-123021411D01*
X120315539Y-123190000D01*
X120319700Y-123232245D01*
X120319700Y-123574076D01*
X118315928Y-125577849D01*
X118251335Y-125565000D01*
X117968665Y-125565000D01*
X117691426Y-125620147D01*
X117430273Y-125728320D01*
X117195241Y-125885363D01*
X116995363Y-126085241D01*
X116958774Y-126140000D01*
X113890000Y-126140000D01*
X113890000Y-123285276D01*
X114085134Y-123125134D01*
X114270706Y-122899014D01*
X114408599Y-122641033D01*
X114493513Y-122361110D01*
X114515000Y-122142949D01*
X114515000Y-121697050D01*
X114493513Y-121478889D01*
X114408599Y-121198966D01*
X114270706Y-120940986D01*
X114085134Y-120714866D01*
X113859013Y-120529294D01*
X113601033Y-120391401D01*
X113350746Y-120315477D01*
X115966224Y-117700000D01*
X116959405Y-117700000D01*
X117090392Y-117859608D01*
G36*
X160049294Y-124654014D02*
G01*
X160234866Y-124880134D01*
X160430000Y-125040277D01*
X160430001Y-125149723D01*
X160234866Y-125309866D01*
X160049294Y-125535986D01*
X160020000Y-125590791D01*
X159990706Y-125535986D01*
X159805134Y-125309866D01*
X159610000Y-125149724D01*
X159610000Y-125040276D01*
X159805134Y-124880134D01*
X159990706Y-124654014D01*
X160020000Y-124599209D01*
X160049294Y-124654014D01*
X160049294Y-124654014D01*
G37*
X160049294Y-124654014D02*
X160234866Y-124880134D01*
X160430000Y-125040277D01*
X160430001Y-125149723D01*
X160234866Y-125309866D01*
X160049294Y-125535986D01*
X160020000Y-125590791D01*
X159990706Y-125535986D01*
X159805134Y-125309866D01*
X159610000Y-125149724D01*
X159610000Y-125040276D01*
X159805134Y-124880134D01*
X159990706Y-124654014D01*
X160020000Y-124599209D01*
X160049294Y-124654014D01*
G36*
X157509294Y-124654014D02*
G01*
X157694866Y-124880134D01*
X157890000Y-125040277D01*
X157890001Y-125149723D01*
X157694866Y-125309866D01*
X157509294Y-125535986D01*
X157480000Y-125590791D01*
X157450706Y-125535986D01*
X157265134Y-125309866D01*
X157039014Y-125124294D01*
X156984209Y-125095000D01*
X157039014Y-125065706D01*
X157265134Y-124880134D01*
X157450706Y-124654014D01*
X157480000Y-124599209D01*
X157509294Y-124654014D01*
X157509294Y-124654014D01*
G37*
X157509294Y-124654014D02*
X157694866Y-124880134D01*
X157890000Y-125040277D01*
X157890001Y-125149723D01*
X157694866Y-125309866D01*
X157509294Y-125535986D01*
X157480000Y-125590791D01*
X157450706Y-125535986D01*
X157265134Y-125309866D01*
X157039014Y-125124294D01*
X156984209Y-125095000D01*
X157039014Y-125065706D01*
X157265134Y-124880134D01*
X157450706Y-124654014D01*
X157480000Y-124599209D01*
X157509294Y-124654014D01*
G36*
X121886858Y-124460000D02*
G01*
X121834593Y-124487936D01*
X121866465Y-124449100D01*
X121886858Y-124460000D01*
X121886858Y-124460000D01*
G37*
X121886858Y-124460000D02*
X121834593Y-124487936D01*
X121866465Y-124449100D01*
X121886858Y-124460000D01*
G36*
X131717701Y-122971075D02*
G01*
X131606348Y-123082428D01*
X131596704Y-122984519D01*
X131717701Y-122863522D01*
X131717701Y-122971075D01*
X131717701Y-122971075D01*
G37*
X131717701Y-122971075D02*
X131606348Y-123082428D01*
X131596704Y-122984519D01*
X131717701Y-122863522D01*
X131717701Y-122971075D01*
G36*
X157509294Y-122114014D02*
G01*
X157694866Y-122340134D01*
X157890000Y-122500277D01*
X157890001Y-122609723D01*
X157694866Y-122769866D01*
X157509294Y-122995986D01*
X157480000Y-123050791D01*
X157450706Y-122995986D01*
X157265134Y-122769866D01*
X157039014Y-122584294D01*
X156984209Y-122555000D01*
X157039014Y-122525706D01*
X157265134Y-122340134D01*
X157450706Y-122114014D01*
X157480000Y-122059209D01*
X157509294Y-122114014D01*
X157509294Y-122114014D01*
G37*
X157509294Y-122114014D02*
X157694866Y-122340134D01*
X157890000Y-122500277D01*
X157890001Y-122609723D01*
X157694866Y-122769866D01*
X157509294Y-122995986D01*
X157480000Y-123050791D01*
X157450706Y-122995986D01*
X157265134Y-122769866D01*
X157039014Y-122584294D01*
X156984209Y-122555000D01*
X157039014Y-122525706D01*
X157265134Y-122340134D01*
X157450706Y-122114014D01*
X157480000Y-122059209D01*
X157509294Y-122114014D01*
G36*
X160049294Y-122114014D02*
G01*
X160234866Y-122340134D01*
X160430000Y-122500277D01*
X160430001Y-122609723D01*
X160234866Y-122769866D01*
X160049294Y-122995986D01*
X160020000Y-123050791D01*
X159990706Y-122995986D01*
X159805134Y-122769866D01*
X159610000Y-122609724D01*
X159610000Y-122500276D01*
X159805134Y-122340134D01*
X159990706Y-122114014D01*
X160020000Y-122059209D01*
X160049294Y-122114014D01*
X160049294Y-122114014D01*
G37*
X160049294Y-122114014D02*
X160234866Y-122340134D01*
X160430000Y-122500277D01*
X160430001Y-122609723D01*
X160234866Y-122769866D01*
X160049294Y-122995986D01*
X160020000Y-123050791D01*
X159990706Y-122995986D01*
X159805134Y-122769866D01*
X159610000Y-122609724D01*
X159610000Y-122500276D01*
X159805134Y-122340134D01*
X159990706Y-122114014D01*
X160020000Y-122059209D01*
X160049294Y-122114014D01*
G36*
X154742558Y-121536219D02*
G01*
X153895000Y-122383777D01*
X153895000Y-122276223D01*
X154732915Y-121438309D01*
X154742558Y-121536219D01*
X154742558Y-121536219D01*
G37*
X154742558Y-121536219D02*
X153895000Y-122383777D01*
X153895000Y-122276223D01*
X154732915Y-121438309D01*
X154742558Y-121536219D01*
G36*
X128898254Y-119994478D02*
G01*
X128842818Y-120098192D01*
X128760764Y-120368691D01*
X128733057Y-120650000D01*
X128760764Y-120931309D01*
X128842818Y-121201808D01*
X128976068Y-121451101D01*
X129155392Y-121669608D01*
X129373899Y-121848932D01*
X129506858Y-121920000D01*
X129373899Y-121991068D01*
X129155392Y-122170392D01*
X129024405Y-122330000D01*
X124796700Y-122330000D01*
X124796700Y-115892923D01*
X128898254Y-119994478D01*
X128898254Y-119994478D01*
G37*
X128898254Y-119994478D02*
X128842818Y-120098192D01*
X128760764Y-120368691D01*
X128733057Y-120650000D01*
X128760764Y-120931309D01*
X128842818Y-121201808D01*
X128976068Y-121451101D01*
X129155392Y-121669608D01*
X129373899Y-121848932D01*
X129506858Y-121920000D01*
X129373899Y-121991068D01*
X129155392Y-122170392D01*
X129024405Y-122330000D01*
X124796700Y-122330000D01*
X124796700Y-115892923D01*
X128898254Y-119994478D01*
G36*
X160049294Y-119574014D02*
G01*
X160234866Y-119800134D01*
X160430000Y-119960277D01*
X160430001Y-120069723D01*
X160234866Y-120229866D01*
X160049294Y-120455986D01*
X160020000Y-120510791D01*
X159990706Y-120455986D01*
X159805134Y-120229866D01*
X159610000Y-120069724D01*
X159610000Y-119960276D01*
X159805134Y-119800134D01*
X159990706Y-119574014D01*
X160020000Y-119519209D01*
X160049294Y-119574014D01*
X160049294Y-119574014D01*
G37*
X160049294Y-119574014D02*
X160234866Y-119800134D01*
X160430000Y-119960277D01*
X160430001Y-120069723D01*
X160234866Y-120229866D01*
X160049294Y-120455986D01*
X160020000Y-120510791D01*
X159990706Y-120455986D01*
X159805134Y-120229866D01*
X159610000Y-120069724D01*
X159610000Y-119960276D01*
X159805134Y-119800134D01*
X159990706Y-119574014D01*
X160020000Y-119519209D01*
X160049294Y-119574014D01*
G36*
X157509294Y-119574014D02*
G01*
X157694866Y-119800134D01*
X157890000Y-119960277D01*
X157890001Y-120069723D01*
X157694866Y-120229866D01*
X157509294Y-120455986D01*
X157480000Y-120510791D01*
X157450706Y-120455986D01*
X157265134Y-120229866D01*
X157039014Y-120044294D01*
X156984209Y-120015000D01*
X157039014Y-119985706D01*
X157265134Y-119800134D01*
X157450706Y-119574014D01*
X157480000Y-119519209D01*
X157509294Y-119574014D01*
X157509294Y-119574014D01*
G37*
X157509294Y-119574014D02*
X157694866Y-119800134D01*
X157890000Y-119960277D01*
X157890001Y-120069723D01*
X157694866Y-120229866D01*
X157509294Y-120455986D01*
X157480000Y-120510791D01*
X157450706Y-120455986D01*
X157265134Y-120229866D01*
X157039014Y-120044294D01*
X156984209Y-120015000D01*
X157039014Y-119985706D01*
X157265134Y-119800134D01*
X157450706Y-119574014D01*
X157480000Y-119519209D01*
X157509294Y-119574014D01*
G36*
X133276686Y-111352510D02*
G01*
X133223000Y-111622408D01*
X133223000Y-111897592D01*
X133276686Y-112167490D01*
X133381995Y-112421727D01*
X133534880Y-112650535D01*
X133729465Y-112845120D01*
X133958273Y-112998005D01*
X134035515Y-113030000D01*
X133958273Y-113061995D01*
X133729465Y-113214880D01*
X133534880Y-113409465D01*
X133381995Y-113638273D01*
X133276686Y-113892510D01*
X133223000Y-114162408D01*
X133223000Y-114437592D01*
X133276686Y-114707490D01*
X133381995Y-114961727D01*
X133534880Y-115190535D01*
X133729465Y-115385120D01*
X133958273Y-115538005D01*
X134035515Y-115570000D01*
X133958273Y-115601995D01*
X133729465Y-115754880D01*
X133534880Y-115949465D01*
X133381995Y-116178273D01*
X133276686Y-116432510D01*
X133223000Y-116702408D01*
X133223000Y-116977592D01*
X133276686Y-117247490D01*
X133381995Y-117501727D01*
X133534880Y-117730535D01*
X133729465Y-117925120D01*
X133958273Y-118078005D01*
X134035515Y-118110000D01*
X133958273Y-118141995D01*
X133729465Y-118294880D01*
X133534880Y-118489465D01*
X133381995Y-118718273D01*
X133276686Y-118972510D01*
X133223000Y-119242408D01*
X133223000Y-119517592D01*
X133230165Y-119553612D01*
X132437000Y-120346777D01*
X132437000Y-120141023D01*
X132928841Y-119649182D01*
X132961654Y-119622254D01*
X133069124Y-119491302D01*
X133128616Y-119380001D01*
X133148981Y-119341901D01*
X133198156Y-119179790D01*
X133214761Y-119011200D01*
X133210600Y-118968954D01*
X133210600Y-111255000D01*
X133317076Y-111255000D01*
X133276686Y-111352510D01*
X133276686Y-111352510D01*
G37*
X133276686Y-111352510D02*
X133223000Y-111622408D01*
X133223000Y-111897592D01*
X133276686Y-112167490D01*
X133381995Y-112421727D01*
X133534880Y-112650535D01*
X133729465Y-112845120D01*
X133958273Y-112998005D01*
X134035515Y-113030000D01*
X133958273Y-113061995D01*
X133729465Y-113214880D01*
X133534880Y-113409465D01*
X133381995Y-113638273D01*
X133276686Y-113892510D01*
X133223000Y-114162408D01*
X133223000Y-114437592D01*
X133276686Y-114707490D01*
X133381995Y-114961727D01*
X133534880Y-115190535D01*
X133729465Y-115385120D01*
X133958273Y-115538005D01*
X134035515Y-115570000D01*
X133958273Y-115601995D01*
X133729465Y-115754880D01*
X133534880Y-115949465D01*
X133381995Y-116178273D01*
X133276686Y-116432510D01*
X133223000Y-116702408D01*
X133223000Y-116977592D01*
X133276686Y-117247490D01*
X133381995Y-117501727D01*
X133534880Y-117730535D01*
X133729465Y-117925120D01*
X133958273Y-118078005D01*
X134035515Y-118110000D01*
X133958273Y-118141995D01*
X133729465Y-118294880D01*
X133534880Y-118489465D01*
X133381995Y-118718273D01*
X133276686Y-118972510D01*
X133223000Y-119242408D01*
X133223000Y-119517592D01*
X133230165Y-119553612D01*
X132437000Y-120346777D01*
X132437000Y-120141023D01*
X132928841Y-119649182D01*
X132961654Y-119622254D01*
X133069124Y-119491302D01*
X133128616Y-119380001D01*
X133148981Y-119341901D01*
X133198156Y-119179790D01*
X133214761Y-119011200D01*
X133210600Y-118968954D01*
X133210600Y-111255000D01*
X133317076Y-111255000D01*
X133276686Y-111352510D01*
G36*
X154969294Y-110295986D02*
G01*
X154831401Y-110553966D01*
X154746487Y-110833889D01*
X154717815Y-111125000D01*
X154742558Y-111376219D01*
X152291755Y-113827022D01*
X152258936Y-113853956D01*
X152151466Y-113984909D01*
X152071609Y-114134311D01*
X152040752Y-114236034D01*
X152031329Y-114267100D01*
X152022434Y-114296422D01*
X152009990Y-114422765D01*
X152009990Y-114422771D01*
X152005830Y-114465010D01*
X152009990Y-114507249D01*
X152009991Y-118334633D01*
X151231320Y-119113305D01*
X151203314Y-118972510D01*
X151098005Y-118718273D01*
X150945120Y-118489465D01*
X150750535Y-118294880D01*
X150521727Y-118141995D01*
X150444485Y-118110000D01*
X150521727Y-118078005D01*
X150750535Y-117925120D01*
X150945120Y-117730535D01*
X151098005Y-117501727D01*
X151203314Y-117247490D01*
X151257000Y-116977592D01*
X151257000Y-116702408D01*
X151203314Y-116432510D01*
X151098005Y-116178273D01*
X150945120Y-115949465D01*
X150750535Y-115754880D01*
X150521727Y-115601995D01*
X150444485Y-115570000D01*
X150521727Y-115538005D01*
X150750535Y-115385120D01*
X150945120Y-115190535D01*
X151098005Y-114961727D01*
X151203314Y-114707490D01*
X151257000Y-114437592D01*
X151257000Y-114162408D01*
X151203314Y-113892510D01*
X151098005Y-113638273D01*
X150945120Y-113409465D01*
X150750535Y-113214880D01*
X150521727Y-113061995D01*
X150444485Y-113030000D01*
X150521727Y-112998005D01*
X150750535Y-112845120D01*
X150945120Y-112650535D01*
X151098005Y-112421727D01*
X151203314Y-112167490D01*
X151257000Y-111897592D01*
X151257000Y-111622408D01*
X151203314Y-111352510D01*
X151098005Y-111098273D01*
X150945120Y-110869465D01*
X150750535Y-110674880D01*
X150521727Y-110521995D01*
X150444485Y-110490000D01*
X150521727Y-110458005D01*
X150750535Y-110305120D01*
X150945120Y-110110535D01*
X150965523Y-110080000D01*
X155146549Y-110080000D01*
X154969294Y-110295986D01*
X154969294Y-110295986D01*
G37*
X154969294Y-110295986D02*
X154831401Y-110553966D01*
X154746487Y-110833889D01*
X154717815Y-111125000D01*
X154742558Y-111376219D01*
X152291755Y-113827022D01*
X152258936Y-113853956D01*
X152151466Y-113984909D01*
X152071609Y-114134311D01*
X152040752Y-114236034D01*
X152031329Y-114267100D01*
X152022434Y-114296422D01*
X152009990Y-114422765D01*
X152009990Y-114422771D01*
X152005830Y-114465010D01*
X152009990Y-114507249D01*
X152009991Y-118334633D01*
X151231320Y-119113305D01*
X151203314Y-118972510D01*
X151098005Y-118718273D01*
X150945120Y-118489465D01*
X150750535Y-118294880D01*
X150521727Y-118141995D01*
X150444485Y-118110000D01*
X150521727Y-118078005D01*
X150750535Y-117925120D01*
X150945120Y-117730535D01*
X151098005Y-117501727D01*
X151203314Y-117247490D01*
X151257000Y-116977592D01*
X151257000Y-116702408D01*
X151203314Y-116432510D01*
X151098005Y-116178273D01*
X150945120Y-115949465D01*
X150750535Y-115754880D01*
X150521727Y-115601995D01*
X150444485Y-115570000D01*
X150521727Y-115538005D01*
X150750535Y-115385120D01*
X150945120Y-115190535D01*
X151098005Y-114961727D01*
X151203314Y-114707490D01*
X151257000Y-114437592D01*
X151257000Y-114162408D01*
X151203314Y-113892510D01*
X151098005Y-113638273D01*
X150945120Y-113409465D01*
X150750535Y-113214880D01*
X150521727Y-113061995D01*
X150444485Y-113030000D01*
X150521727Y-112998005D01*
X150750535Y-112845120D01*
X150945120Y-112650535D01*
X151098005Y-112421727D01*
X151203314Y-112167490D01*
X151257000Y-111897592D01*
X151257000Y-111622408D01*
X151203314Y-111352510D01*
X151098005Y-111098273D01*
X150945120Y-110869465D01*
X150750535Y-110674880D01*
X150521727Y-110521995D01*
X150444485Y-110490000D01*
X150521727Y-110458005D01*
X150750535Y-110305120D01*
X150945120Y-110110535D01*
X150965523Y-110080000D01*
X155146549Y-110080000D01*
X154969294Y-110295986D01*
G36*
X109110147Y-113841426D02*
G01*
X109055000Y-114118665D01*
X109055000Y-114401335D01*
X109067848Y-114465928D01*
X105143072Y-118390705D01*
X105143072Y-117728151D01*
X109166962Y-113704262D01*
X109110147Y-113841426D01*
X109110147Y-113841426D01*
G37*
X109110147Y-113841426D02*
X109055000Y-114118665D01*
X109055000Y-114401335D01*
X109067848Y-114465928D01*
X105143072Y-118390705D01*
X105143072Y-117728151D01*
X109166962Y-113704262D01*
X109110147Y-113841426D01*
G36*
X160049294Y-117034014D02*
G01*
X160234866Y-117260134D01*
X160430000Y-117420277D01*
X160430001Y-117529723D01*
X160234866Y-117689866D01*
X160049294Y-117915986D01*
X160020000Y-117970791D01*
X159990706Y-117915986D01*
X159805134Y-117689866D01*
X159610000Y-117529724D01*
X159610000Y-117420276D01*
X159805134Y-117260134D01*
X159990706Y-117034014D01*
X160020000Y-116979209D01*
X160049294Y-117034014D01*
X160049294Y-117034014D01*
G37*
X160049294Y-117034014D02*
X160234866Y-117260134D01*
X160430000Y-117420277D01*
X160430001Y-117529723D01*
X160234866Y-117689866D01*
X160049294Y-117915986D01*
X160020000Y-117970791D01*
X159990706Y-117915986D01*
X159805134Y-117689866D01*
X159610000Y-117529724D01*
X159610000Y-117420276D01*
X159805134Y-117260134D01*
X159990706Y-117034014D01*
X160020000Y-116979209D01*
X160049294Y-117034014D01*
G36*
X157509294Y-117034014D02*
G01*
X157694866Y-117260134D01*
X157890000Y-117420277D01*
X157890001Y-117529723D01*
X157694866Y-117689866D01*
X157509294Y-117915986D01*
X157480000Y-117970791D01*
X157450706Y-117915986D01*
X157265134Y-117689866D01*
X157039014Y-117504294D01*
X156984209Y-117475000D01*
X157039014Y-117445706D01*
X157265134Y-117260134D01*
X157450706Y-117034014D01*
X157480000Y-116979209D01*
X157509294Y-117034014D01*
X157509294Y-117034014D01*
G37*
X157509294Y-117034014D02*
X157694866Y-117260134D01*
X157890000Y-117420277D01*
X157890001Y-117529723D01*
X157694866Y-117689866D01*
X157509294Y-117915986D01*
X157480000Y-117970791D01*
X157450706Y-117915986D01*
X157265134Y-117689866D01*
X157039014Y-117504294D01*
X156984209Y-117475000D01*
X157039014Y-117445706D01*
X157265134Y-117260134D01*
X157450706Y-117034014D01*
X157480000Y-116979209D01*
X157509294Y-117034014D01*
G36*
X154742558Y-116456219D02*
G01*
X154530000Y-116668777D01*
X154530000Y-116561223D01*
X154732915Y-116358308D01*
X154742558Y-116456219D01*
X154742558Y-116456219D01*
G37*
X154742558Y-116456219D02*
X154530000Y-116668777D01*
X154530000Y-116561223D01*
X154732915Y-116358308D01*
X154742558Y-116456219D01*
G36*
X108254700Y-112184076D02*
G01*
X103776849Y-116661928D01*
X103662795Y-116661928D01*
X108254700Y-112070024D01*
X108254700Y-112184076D01*
X108254700Y-112184076D01*
G37*
X108254700Y-112184076D02*
X103776849Y-116661928D01*
X103662795Y-116661928D01*
X108254700Y-112070024D01*
X108254700Y-112184076D01*
G36*
X160049294Y-114494014D02*
G01*
X160234866Y-114720134D01*
X160430000Y-114880277D01*
X160430001Y-114989723D01*
X160234866Y-115149866D01*
X160049294Y-115375986D01*
X160020000Y-115430791D01*
X159990706Y-115375986D01*
X159805134Y-115149866D01*
X159610000Y-114989724D01*
X159610000Y-114880276D01*
X159805134Y-114720134D01*
X159990706Y-114494014D01*
X160020000Y-114439209D01*
X160049294Y-114494014D01*
X160049294Y-114494014D01*
G37*
X160049294Y-114494014D02*
X160234866Y-114720134D01*
X160430000Y-114880277D01*
X160430001Y-114989723D01*
X160234866Y-115149866D01*
X160049294Y-115375986D01*
X160020000Y-115430791D01*
X159990706Y-115375986D01*
X159805134Y-115149866D01*
X159610000Y-114989724D01*
X159610000Y-114880276D01*
X159805134Y-114720134D01*
X159990706Y-114494014D01*
X160020000Y-114439209D01*
X160049294Y-114494014D01*
G36*
X157509294Y-114494014D02*
G01*
X157694866Y-114720134D01*
X157890000Y-114880277D01*
X157890001Y-114989723D01*
X157694866Y-115149866D01*
X157509294Y-115375986D01*
X157480000Y-115430791D01*
X157450706Y-115375986D01*
X157265134Y-115149866D01*
X157039014Y-114964294D01*
X156984209Y-114935000D01*
X157039014Y-114905706D01*
X157265134Y-114720134D01*
X157450706Y-114494014D01*
X157480000Y-114439209D01*
X157509294Y-114494014D01*
X157509294Y-114494014D01*
G37*
X157509294Y-114494014D02*
X157694866Y-114720134D01*
X157890000Y-114880277D01*
X157890001Y-114989723D01*
X157694866Y-115149866D01*
X157509294Y-115375986D01*
X157480000Y-115430791D01*
X157450706Y-115375986D01*
X157265134Y-115149866D01*
X157039014Y-114964294D01*
X156984209Y-114935000D01*
X157039014Y-114905706D01*
X157265134Y-114720134D01*
X157450706Y-114494014D01*
X157480000Y-114439209D01*
X157509294Y-114494014D01*
G36*
X154742558Y-113916219D02*
G01*
X153729990Y-114928787D01*
X153729990Y-114821233D01*
X154732915Y-113818308D01*
X154742558Y-113916219D01*
X154742558Y-113916219D01*
G37*
X154742558Y-113916219D02*
X153729990Y-114928787D01*
X153729990Y-114821233D01*
X154732915Y-113818308D01*
X154742558Y-113916219D01*
G36*
X131490601Y-114504677D02*
G01*
X130703813Y-113717889D01*
X130791185Y-113646185D01*
X130870537Y-113549494D01*
X130929502Y-113439180D01*
X130965812Y-113319482D01*
X130978072Y-113195000D01*
X130978072Y-111595000D01*
X130965812Y-111470518D01*
X130929502Y-111350820D01*
X130878284Y-111255000D01*
X131490601Y-111255000D01*
X131490601Y-114504677D01*
X131490601Y-114504677D01*
G37*
X131490601Y-114504677D02*
X130703813Y-113717889D01*
X130791185Y-113646185D01*
X130870537Y-113549494D01*
X130929502Y-113439180D01*
X130965812Y-113319482D01*
X130978072Y-113195000D01*
X130978072Y-111595000D01*
X130965812Y-111470518D01*
X130929502Y-111350820D01*
X130878284Y-111255000D01*
X131490601Y-111255000D01*
X131490601Y-114504677D01*
G36*
X123857801Y-114386577D02*
G01*
X123480311Y-114009088D01*
X123501204Y-114007030D01*
X123800449Y-113916255D01*
X123857801Y-113885600D01*
X123857801Y-114386577D01*
X123857801Y-114386577D01*
G37*
X123857801Y-114386577D02*
X123480311Y-114009088D01*
X123501204Y-114007030D01*
X123800449Y-113916255D01*
X123857801Y-113885600D01*
X123857801Y-114386577D01*
G36*
X157310498Y-112219180D02*
G01*
X157369463Y-112329494D01*
X157448815Y-112426185D01*
X157545506Y-112505537D01*
X157655820Y-112564502D01*
X157724687Y-112585393D01*
X157694866Y-112609866D01*
X157509294Y-112835986D01*
X157480000Y-112890791D01*
X157450706Y-112835986D01*
X157265134Y-112609866D01*
X157039014Y-112424294D01*
X156984209Y-112395000D01*
X157039014Y-112365706D01*
X157265134Y-112180134D01*
X157289607Y-112150313D01*
X157310498Y-112219180D01*
X157310498Y-112219180D01*
G37*
X157310498Y-112219180D02*
X157369463Y-112329494D01*
X157448815Y-112426185D01*
X157545506Y-112505537D01*
X157655820Y-112564502D01*
X157724687Y-112585393D01*
X157694866Y-112609866D01*
X157509294Y-112835986D01*
X157480000Y-112890791D01*
X157450706Y-112835986D01*
X157265134Y-112609866D01*
X157039014Y-112424294D01*
X156984209Y-112395000D01*
X157039014Y-112365706D01*
X157265134Y-112180134D01*
X157289607Y-112150313D01*
X157310498Y-112219180D01*
G36*
X160085506Y-112505537D02*
G01*
X160195820Y-112564502D01*
X160264687Y-112585393D01*
X160234866Y-112609866D01*
X160049294Y-112835986D01*
X160020000Y-112890791D01*
X159990706Y-112835986D01*
X159805134Y-112609866D01*
X159775313Y-112585393D01*
X159844180Y-112564502D01*
X159954494Y-112505537D01*
X160020000Y-112451778D01*
X160085506Y-112505537D01*
X160085506Y-112505537D01*
G37*
X160085506Y-112505537D02*
X160195820Y-112564502D01*
X160264687Y-112585393D01*
X160234866Y-112609866D01*
X160049294Y-112835986D01*
X160020000Y-112890791D01*
X159990706Y-112835986D01*
X159805134Y-112609866D01*
X159775313Y-112585393D01*
X159844180Y-112564502D01*
X159954494Y-112505537D01*
X160020000Y-112451778D01*
X160085506Y-112505537D01*
G36*
X158585705Y-109636928D02*
G01*
X158478152Y-109636928D01*
X157583423Y-108742200D01*
X157690977Y-108742200D01*
X158585705Y-109636928D01*
X158585705Y-109636928D01*
G37*
X158585705Y-109636928D02*
X158478152Y-109636928D01*
X157583423Y-108742200D01*
X157690977Y-108742200D01*
X158585705Y-109636928D01*
M02*
