M48
; DRILL file {KiCad (5.1.2)-2} date 2021/07/07 15:52:25
; FORMAT={2:4/ absolute / inch / suppress leading zeros}
; #@! TF.CreationDate,2021-07-07T15:52:25+09:00
; #@! TF.GenerationSoftware,Kicad,Pcbnew,(5.1.2)-2
FMAT,2
INCH,TZ
T1C0.0300
T2C0.0315
T3C0.0374
T4C0.0394
T5C0.0433
T6C0.1378
%
G90
G05
T1
X53000Y-43000
X53000Y-44000
X53000Y-45000
X53000Y-46000
X53000Y-47000
X53000Y-48000
X53000Y-49000
X53000Y-50000
X53000Y-51000
X53000Y-52000
X53000Y-53000
X53000Y-54000
X53000Y-55000
X53000Y-56000
X59000Y-43000
X59000Y-44000
X59000Y-45000
X59000Y-46000
X59000Y-47000
X59000Y-48000
X59000Y-49000
X59000Y-50000
X59000Y-51000
X59000Y-52000
X59000Y-53000
X59000Y-54000
X59000Y-55000
X59000Y-56000
T2
X46500Y-46000
X46500Y-50000
X43500Y-44000
X43500Y-44984
X48250Y-46500
X48250Y-47500
X48250Y-48500
X48250Y-49500
X51250Y-46500
X51250Y-47500
X51250Y-48500
X51250Y-49500
X51000Y-43463
X51000Y-44250
X47750Y-51250
X51750Y-51250
T3
X40750Y-50250
X40750Y-51234
X40750Y-52219
X61250Y-55500
X62234Y-55500
X63219Y-55500
X44281Y-54500
X45266Y-54500
X46250Y-54500
X49031Y-54500
X50016Y-54500
X51000Y-54500
T4
X61500Y-43750
X61500Y-44750
X61500Y-45750
X61500Y-46750
X61500Y-47750
X61500Y-48750
X61500Y-49750
X61500Y-50750
X61500Y-51750
X61500Y-52750
X62500Y-43750
X62500Y-44750
X62500Y-45750
X62500Y-46750
X62500Y-47750
X62500Y-48750
X62500Y-49750
X62500Y-50750
X63500Y-43750
X63500Y-44750
X63500Y-45750
X63500Y-46750
X63500Y-47750
X63500Y-48750
X63500Y-49750
X63500Y-50750
X43516Y-48000
X44500Y-48000
X43516Y-51250
X44500Y-51250
X40750Y-46516
X40750Y-47500
T5
X46500Y-44250
X47500Y-44250
X48500Y-44250
T6
X65500Y-56000
X40500Y-56000
X40500Y-43500
X65500Y-43500
T0
M30
