M48
; DRILL file {KiCad (5.1.2)-2} date 2021/06/25 14:57:57
; FORMAT={2:4/ absolute / inch / suppress leading zeros}
; #@! TF.CreationDate,2021-06-25T14:57:57+09:00
; #@! TF.GenerationSoftware,Kicad,Pcbnew,(5.1.2)-2
FMAT,2
INCH,TZ
T1C0.0157
T2C0.0300
T3C0.0315
T4C0.0374
T5C0.0394
T6C0.0433
T7C0.1378
%
G90
G05
T1
X40000Y-28500
X40750Y-27750
X41500Y-30000
X42000Y-29000
X42750Y-40500
X51250Y-41500
T2
X38750Y-28000
X38750Y-29000
X38750Y-30000
X38750Y-31000
X38750Y-32000
X38750Y-33000
X38750Y-34000
X38750Y-35000
X38750Y-36000
X38750Y-37000
X38750Y-38000
X38750Y-39000
X38750Y-40000
X38750Y-41000
X44750Y-28000
X44750Y-29000
X44750Y-30000
X44750Y-31000
X44750Y-32000
X44750Y-33000
X44750Y-34000
X44750Y-35000
X44750Y-36000
X44750Y-37000
X44750Y-38000
X44750Y-39000
X44750Y-40000
X44750Y-41000
T3
X47500Y-29250
X47500Y-30234
X32250Y-28250
X32250Y-32250
X46500Y-32750
X50500Y-32750
X33250Y-37750
X37250Y-37750
X46750Y-37500
X50750Y-37500
X53500Y-28463
X53500Y-29250
X29250Y-36000
X33250Y-36000
X33000Y-34000
X37000Y-34000
X34000Y-29000
X34000Y-30000
X34000Y-31000
X34000Y-32000
X37000Y-29000
X37000Y-30000
X37000Y-31000
X37000Y-32000
T4
X47297Y-40000
X48281Y-40000
X49266Y-40000
X50250Y-40000
X47266Y-35500
X48250Y-35500
X49234Y-35500
T5
X53250Y-35750
X54234Y-35750
X34766Y-40000
X35750Y-40000
X29266Y-29500
X30250Y-29500
X29750Y-40000
X30734Y-40000
X29266Y-33000
X30250Y-33000
X53250Y-39500
X54234Y-39500
X53500Y-31750
X53500Y-32734
T6
X51250Y-28750
X51250Y-29750
X51250Y-30750
T7
X28750Y-25750
X54750Y-43250
X28750Y-43250
X54750Y-25750
T0
M30
