G04 #@! TF.GenerationSoftware,KiCad,Pcbnew,(5.1.2)-2*
G04 #@! TF.CreationDate,2021-06-25T14:57:54+09:00*
G04 #@! TF.ProjectId,ui_board,75695f62-6f61-4726-942e-6b696361645f,rev?*
G04 #@! TF.SameCoordinates,Original*
G04 #@! TF.FileFunction,Copper,L2,Bot*
G04 #@! TF.FilePolarity,Positive*
%FSLAX46Y46*%
G04 Gerber Fmt 4.6, Leading zero omitted, Abs format (unit mm)*
G04 Created by KiCad (PCBNEW (5.1.2)-2) date 2021-06-25 14:57:54*
%MOMM*%
%LPD*%
G04 APERTURE LIST*
%ADD10O,2.000000X1.905000*%
%ADD11R,2.000000X1.905000*%
%ADD12R,1.600000X1.600000*%
%ADD13C,1.600000*%
%ADD14C,0.100000*%
%ADD15C,1.700000*%
%ADD16O,2.000000X1.700000*%
%ADD17O,1.700000X2.000000*%
%ADD18O,1.700000X1.950000*%
%ADD19O,1.600000X1.600000*%
%ADD20C,1.524000*%
%ADD21C,1.500000*%
%ADD22C,0.500000*%
%ADD23C,0.254000*%
G04 APERTURE END LIST*
D10*
X130175000Y-73025000D03*
X130175000Y-75565000D03*
D11*
X130175000Y-78105000D03*
D12*
X120650000Y-76795000D03*
D13*
X120650000Y-74295000D03*
D12*
X135890000Y-72295000D03*
D13*
X135890000Y-74295000D03*
D14*
G36*
X136664504Y-82296204D02*
G01*
X136688773Y-82299804D01*
X136712571Y-82305765D01*
X136735671Y-82314030D01*
X136757849Y-82324520D01*
X136778893Y-82337133D01*
X136798598Y-82351747D01*
X136816777Y-82368223D01*
X136833253Y-82386402D01*
X136847867Y-82406107D01*
X136860480Y-82427151D01*
X136870970Y-82449329D01*
X136879235Y-82472429D01*
X136885196Y-82496227D01*
X136888796Y-82520496D01*
X136890000Y-82545000D01*
X136890000Y-83745000D01*
X136888796Y-83769504D01*
X136885196Y-83793773D01*
X136879235Y-83817571D01*
X136870970Y-83840671D01*
X136860480Y-83862849D01*
X136847867Y-83883893D01*
X136833253Y-83903598D01*
X136816777Y-83921777D01*
X136798598Y-83938253D01*
X136778893Y-83952867D01*
X136757849Y-83965480D01*
X136735671Y-83975970D01*
X136712571Y-83984235D01*
X136688773Y-83990196D01*
X136664504Y-83993796D01*
X136640000Y-83995000D01*
X135140000Y-83995000D01*
X135115496Y-83993796D01*
X135091227Y-83990196D01*
X135067429Y-83984235D01*
X135044329Y-83975970D01*
X135022151Y-83965480D01*
X135001107Y-83952867D01*
X134981402Y-83938253D01*
X134963223Y-83921777D01*
X134946747Y-83903598D01*
X134932133Y-83883893D01*
X134919520Y-83862849D01*
X134909030Y-83840671D01*
X134900765Y-83817571D01*
X134894804Y-83793773D01*
X134891204Y-83769504D01*
X134890000Y-83745000D01*
X134890000Y-82545000D01*
X134891204Y-82520496D01*
X134894804Y-82496227D01*
X134900765Y-82472429D01*
X134909030Y-82449329D01*
X134919520Y-82427151D01*
X134932133Y-82406107D01*
X134946747Y-82386402D01*
X134963223Y-82368223D01*
X134981402Y-82351747D01*
X135001107Y-82337133D01*
X135022151Y-82324520D01*
X135044329Y-82314030D01*
X135067429Y-82305765D01*
X135091227Y-82299804D01*
X135115496Y-82296204D01*
X135140000Y-82295000D01*
X136640000Y-82295000D01*
X136664504Y-82296204D01*
X136664504Y-82296204D01*
G37*
D15*
X135890000Y-83145000D03*
D16*
X135890000Y-80645000D03*
D14*
G36*
X135879504Y-89806204D02*
G01*
X135903773Y-89809804D01*
X135927571Y-89815765D01*
X135950671Y-89824030D01*
X135972849Y-89834520D01*
X135993893Y-89847133D01*
X136013598Y-89861747D01*
X136031777Y-89878223D01*
X136048253Y-89896402D01*
X136062867Y-89916107D01*
X136075480Y-89937151D01*
X136085970Y-89959329D01*
X136094235Y-89982429D01*
X136100196Y-90006227D01*
X136103796Y-90030496D01*
X136105000Y-90055000D01*
X136105000Y-91555000D01*
X136103796Y-91579504D01*
X136100196Y-91603773D01*
X136094235Y-91627571D01*
X136085970Y-91650671D01*
X136075480Y-91672849D01*
X136062867Y-91693893D01*
X136048253Y-91713598D01*
X136031777Y-91731777D01*
X136013598Y-91748253D01*
X135993893Y-91762867D01*
X135972849Y-91775480D01*
X135950671Y-91785970D01*
X135927571Y-91794235D01*
X135903773Y-91800196D01*
X135879504Y-91803796D01*
X135855000Y-91805000D01*
X134655000Y-91805000D01*
X134630496Y-91803796D01*
X134606227Y-91800196D01*
X134582429Y-91794235D01*
X134559329Y-91785970D01*
X134537151Y-91775480D01*
X134516107Y-91762867D01*
X134496402Y-91748253D01*
X134478223Y-91731777D01*
X134461747Y-91713598D01*
X134447133Y-91693893D01*
X134434520Y-91672849D01*
X134424030Y-91650671D01*
X134415765Y-91627571D01*
X134409804Y-91603773D01*
X134406204Y-91579504D01*
X134405000Y-91555000D01*
X134405000Y-90055000D01*
X134406204Y-90030496D01*
X134409804Y-90006227D01*
X134415765Y-89982429D01*
X134424030Y-89959329D01*
X134434520Y-89937151D01*
X134447133Y-89916107D01*
X134461747Y-89896402D01*
X134478223Y-89878223D01*
X134496402Y-89861747D01*
X134516107Y-89847133D01*
X134537151Y-89834520D01*
X134559329Y-89824030D01*
X134582429Y-89815765D01*
X134606227Y-89809804D01*
X134630496Y-89806204D01*
X134655000Y-89805000D01*
X135855000Y-89805000D01*
X135879504Y-89806204D01*
X135879504Y-89806204D01*
G37*
D15*
X135255000Y-90805000D03*
D17*
X137755000Y-90805000D03*
X137755000Y-100330000D03*
D14*
G36*
X135879504Y-99331204D02*
G01*
X135903773Y-99334804D01*
X135927571Y-99340765D01*
X135950671Y-99349030D01*
X135972849Y-99359520D01*
X135993893Y-99372133D01*
X136013598Y-99386747D01*
X136031777Y-99403223D01*
X136048253Y-99421402D01*
X136062867Y-99441107D01*
X136075480Y-99462151D01*
X136085970Y-99484329D01*
X136094235Y-99507429D01*
X136100196Y-99531227D01*
X136103796Y-99555496D01*
X136105000Y-99580000D01*
X136105000Y-101080000D01*
X136103796Y-101104504D01*
X136100196Y-101128773D01*
X136094235Y-101152571D01*
X136085970Y-101175671D01*
X136075480Y-101197849D01*
X136062867Y-101218893D01*
X136048253Y-101238598D01*
X136031777Y-101256777D01*
X136013598Y-101273253D01*
X135993893Y-101287867D01*
X135972849Y-101300480D01*
X135950671Y-101310970D01*
X135927571Y-101319235D01*
X135903773Y-101325196D01*
X135879504Y-101328796D01*
X135855000Y-101330000D01*
X134655000Y-101330000D01*
X134630496Y-101328796D01*
X134606227Y-101325196D01*
X134582429Y-101319235D01*
X134559329Y-101310970D01*
X134537151Y-101300480D01*
X134516107Y-101287867D01*
X134496402Y-101273253D01*
X134478223Y-101256777D01*
X134461747Y-101238598D01*
X134447133Y-101218893D01*
X134434520Y-101197849D01*
X134424030Y-101175671D01*
X134415765Y-101152571D01*
X134409804Y-101128773D01*
X134406204Y-101104504D01*
X134405000Y-101080000D01*
X134405000Y-99580000D01*
X134406204Y-99555496D01*
X134409804Y-99531227D01*
X134415765Y-99507429D01*
X134424030Y-99484329D01*
X134434520Y-99462151D01*
X134447133Y-99441107D01*
X134461747Y-99421402D01*
X134478223Y-99403223D01*
X134496402Y-99386747D01*
X134516107Y-99372133D01*
X134537151Y-99359520D01*
X134559329Y-99349030D01*
X134582429Y-99340765D01*
X134606227Y-99334804D01*
X134630496Y-99331204D01*
X134655000Y-99330000D01*
X135855000Y-99330000D01*
X135879504Y-99331204D01*
X135879504Y-99331204D01*
G37*
D15*
X135255000Y-100330000D03*
D14*
G36*
X76189504Y-100601204D02*
G01*
X76213773Y-100604804D01*
X76237571Y-100610765D01*
X76260671Y-100619030D01*
X76282849Y-100629520D01*
X76303893Y-100642133D01*
X76323598Y-100656747D01*
X76341777Y-100673223D01*
X76358253Y-100691402D01*
X76372867Y-100711107D01*
X76385480Y-100732151D01*
X76395970Y-100754329D01*
X76404235Y-100777429D01*
X76410196Y-100801227D01*
X76413796Y-100825496D01*
X76415000Y-100850000D01*
X76415000Y-102350000D01*
X76413796Y-102374504D01*
X76410196Y-102398773D01*
X76404235Y-102422571D01*
X76395970Y-102445671D01*
X76385480Y-102467849D01*
X76372867Y-102488893D01*
X76358253Y-102508598D01*
X76341777Y-102526777D01*
X76323598Y-102543253D01*
X76303893Y-102557867D01*
X76282849Y-102570480D01*
X76260671Y-102580970D01*
X76237571Y-102589235D01*
X76213773Y-102595196D01*
X76189504Y-102598796D01*
X76165000Y-102600000D01*
X74965000Y-102600000D01*
X74940496Y-102598796D01*
X74916227Y-102595196D01*
X74892429Y-102589235D01*
X74869329Y-102580970D01*
X74847151Y-102570480D01*
X74826107Y-102557867D01*
X74806402Y-102543253D01*
X74788223Y-102526777D01*
X74771747Y-102508598D01*
X74757133Y-102488893D01*
X74744520Y-102467849D01*
X74734030Y-102445671D01*
X74725765Y-102422571D01*
X74719804Y-102398773D01*
X74716204Y-102374504D01*
X74715000Y-102350000D01*
X74715000Y-100850000D01*
X74716204Y-100825496D01*
X74719804Y-100801227D01*
X74725765Y-100777429D01*
X74734030Y-100754329D01*
X74744520Y-100732151D01*
X74757133Y-100711107D01*
X74771747Y-100691402D01*
X74788223Y-100673223D01*
X74806402Y-100656747D01*
X74826107Y-100642133D01*
X74847151Y-100629520D01*
X74869329Y-100619030D01*
X74892429Y-100610765D01*
X74916227Y-100604804D01*
X74940496Y-100601204D01*
X74965000Y-100600000D01*
X76165000Y-100600000D01*
X76189504Y-100601204D01*
X76189504Y-100601204D01*
G37*
D15*
X75565000Y-101600000D03*
D17*
X78065000Y-101600000D03*
X90805000Y-101600000D03*
D14*
G36*
X88929504Y-100601204D02*
G01*
X88953773Y-100604804D01*
X88977571Y-100610765D01*
X89000671Y-100619030D01*
X89022849Y-100629520D01*
X89043893Y-100642133D01*
X89063598Y-100656747D01*
X89081777Y-100673223D01*
X89098253Y-100691402D01*
X89112867Y-100711107D01*
X89125480Y-100732151D01*
X89135970Y-100754329D01*
X89144235Y-100777429D01*
X89150196Y-100801227D01*
X89153796Y-100825496D01*
X89155000Y-100850000D01*
X89155000Y-102350000D01*
X89153796Y-102374504D01*
X89150196Y-102398773D01*
X89144235Y-102422571D01*
X89135970Y-102445671D01*
X89125480Y-102467849D01*
X89112867Y-102488893D01*
X89098253Y-102508598D01*
X89081777Y-102526777D01*
X89063598Y-102543253D01*
X89043893Y-102557867D01*
X89022849Y-102570480D01*
X89000671Y-102580970D01*
X88977571Y-102589235D01*
X88953773Y-102595196D01*
X88929504Y-102598796D01*
X88905000Y-102600000D01*
X87705000Y-102600000D01*
X87680496Y-102598796D01*
X87656227Y-102595196D01*
X87632429Y-102589235D01*
X87609329Y-102580970D01*
X87587151Y-102570480D01*
X87566107Y-102557867D01*
X87546402Y-102543253D01*
X87528223Y-102526777D01*
X87511747Y-102508598D01*
X87497133Y-102488893D01*
X87484520Y-102467849D01*
X87474030Y-102445671D01*
X87465765Y-102422571D01*
X87459804Y-102398773D01*
X87456204Y-102374504D01*
X87455000Y-102350000D01*
X87455000Y-100850000D01*
X87456204Y-100825496D01*
X87459804Y-100801227D01*
X87465765Y-100777429D01*
X87474030Y-100754329D01*
X87484520Y-100732151D01*
X87497133Y-100711107D01*
X87511747Y-100691402D01*
X87528223Y-100673223D01*
X87546402Y-100656747D01*
X87566107Y-100642133D01*
X87587151Y-100629520D01*
X87609329Y-100619030D01*
X87632429Y-100610765D01*
X87656227Y-100604804D01*
X87680496Y-100601204D01*
X87705000Y-100600000D01*
X88905000Y-100600000D01*
X88929504Y-100601204D01*
X88929504Y-100601204D01*
G37*
D15*
X88305000Y-101600000D03*
D14*
G36*
X128259504Y-100626204D02*
G01*
X128283773Y-100629804D01*
X128307571Y-100635765D01*
X128330671Y-100644030D01*
X128352849Y-100654520D01*
X128373893Y-100667133D01*
X128393598Y-100681747D01*
X128411777Y-100698223D01*
X128428253Y-100716402D01*
X128442867Y-100736107D01*
X128455480Y-100757151D01*
X128465970Y-100779329D01*
X128474235Y-100802429D01*
X128480196Y-100826227D01*
X128483796Y-100850496D01*
X128485000Y-100875000D01*
X128485000Y-102325000D01*
X128483796Y-102349504D01*
X128480196Y-102373773D01*
X128474235Y-102397571D01*
X128465970Y-102420671D01*
X128455480Y-102442849D01*
X128442867Y-102463893D01*
X128428253Y-102483598D01*
X128411777Y-102501777D01*
X128393598Y-102518253D01*
X128373893Y-102532867D01*
X128352849Y-102545480D01*
X128330671Y-102555970D01*
X128307571Y-102564235D01*
X128283773Y-102570196D01*
X128259504Y-102573796D01*
X128235000Y-102575000D01*
X127035000Y-102575000D01*
X127010496Y-102573796D01*
X126986227Y-102570196D01*
X126962429Y-102564235D01*
X126939329Y-102555970D01*
X126917151Y-102545480D01*
X126896107Y-102532867D01*
X126876402Y-102518253D01*
X126858223Y-102501777D01*
X126841747Y-102483598D01*
X126827133Y-102463893D01*
X126814520Y-102442849D01*
X126804030Y-102420671D01*
X126795765Y-102397571D01*
X126789804Y-102373773D01*
X126786204Y-102349504D01*
X126785000Y-102325000D01*
X126785000Y-100875000D01*
X126786204Y-100850496D01*
X126789804Y-100826227D01*
X126795765Y-100802429D01*
X126804030Y-100779329D01*
X126814520Y-100757151D01*
X126827133Y-100736107D01*
X126841747Y-100716402D01*
X126858223Y-100698223D01*
X126876402Y-100681747D01*
X126896107Y-100667133D01*
X126917151Y-100654520D01*
X126939329Y-100644030D01*
X126962429Y-100635765D01*
X126986227Y-100629804D01*
X127010496Y-100626204D01*
X127035000Y-100625000D01*
X128235000Y-100625000D01*
X128259504Y-100626204D01*
X128259504Y-100626204D01*
G37*
D15*
X127635000Y-101600000D03*
D18*
X125135000Y-101600000D03*
X122635000Y-101600000D03*
X120135000Y-101600000D03*
D14*
G36*
X125679504Y-89196204D02*
G01*
X125703773Y-89199804D01*
X125727571Y-89205765D01*
X125750671Y-89214030D01*
X125772849Y-89224520D01*
X125793893Y-89237133D01*
X125813598Y-89251747D01*
X125831777Y-89268223D01*
X125848253Y-89286402D01*
X125862867Y-89306107D01*
X125875480Y-89327151D01*
X125885970Y-89349329D01*
X125894235Y-89372429D01*
X125900196Y-89396227D01*
X125903796Y-89420496D01*
X125905000Y-89445000D01*
X125905000Y-90895000D01*
X125903796Y-90919504D01*
X125900196Y-90943773D01*
X125894235Y-90967571D01*
X125885970Y-90990671D01*
X125875480Y-91012849D01*
X125862867Y-91033893D01*
X125848253Y-91053598D01*
X125831777Y-91071777D01*
X125813598Y-91088253D01*
X125793893Y-91102867D01*
X125772849Y-91115480D01*
X125750671Y-91125970D01*
X125727571Y-91134235D01*
X125703773Y-91140196D01*
X125679504Y-91143796D01*
X125655000Y-91145000D01*
X124455000Y-91145000D01*
X124430496Y-91143796D01*
X124406227Y-91140196D01*
X124382429Y-91134235D01*
X124359329Y-91125970D01*
X124337151Y-91115480D01*
X124316107Y-91102867D01*
X124296402Y-91088253D01*
X124278223Y-91071777D01*
X124261747Y-91053598D01*
X124247133Y-91033893D01*
X124234520Y-91012849D01*
X124224030Y-90990671D01*
X124215765Y-90967571D01*
X124209804Y-90943773D01*
X124206204Y-90919504D01*
X124205000Y-90895000D01*
X124205000Y-89445000D01*
X124206204Y-89420496D01*
X124209804Y-89396227D01*
X124215765Y-89372429D01*
X124224030Y-89349329D01*
X124234520Y-89327151D01*
X124247133Y-89306107D01*
X124261747Y-89286402D01*
X124278223Y-89268223D01*
X124296402Y-89251747D01*
X124316107Y-89237133D01*
X124337151Y-89224520D01*
X124359329Y-89214030D01*
X124382429Y-89205765D01*
X124406227Y-89199804D01*
X124430496Y-89196204D01*
X124455000Y-89195000D01*
X125655000Y-89195000D01*
X125679504Y-89196204D01*
X125679504Y-89196204D01*
G37*
D15*
X125055000Y-90170000D03*
D18*
X122555000Y-90170000D03*
X120055000Y-90170000D03*
D14*
G36*
X77459504Y-82821204D02*
G01*
X77483773Y-82824804D01*
X77507571Y-82830765D01*
X77530671Y-82839030D01*
X77552849Y-82849520D01*
X77573893Y-82862133D01*
X77593598Y-82876747D01*
X77611777Y-82893223D01*
X77628253Y-82911402D01*
X77642867Y-82931107D01*
X77655480Y-82952151D01*
X77665970Y-82974329D01*
X77674235Y-82997429D01*
X77680196Y-83021227D01*
X77683796Y-83045496D01*
X77685000Y-83070000D01*
X77685000Y-84570000D01*
X77683796Y-84594504D01*
X77680196Y-84618773D01*
X77674235Y-84642571D01*
X77665970Y-84665671D01*
X77655480Y-84687849D01*
X77642867Y-84708893D01*
X77628253Y-84728598D01*
X77611777Y-84746777D01*
X77593598Y-84763253D01*
X77573893Y-84777867D01*
X77552849Y-84790480D01*
X77530671Y-84800970D01*
X77507571Y-84809235D01*
X77483773Y-84815196D01*
X77459504Y-84818796D01*
X77435000Y-84820000D01*
X76235000Y-84820000D01*
X76210496Y-84818796D01*
X76186227Y-84815196D01*
X76162429Y-84809235D01*
X76139329Y-84800970D01*
X76117151Y-84790480D01*
X76096107Y-84777867D01*
X76076402Y-84763253D01*
X76058223Y-84746777D01*
X76041747Y-84728598D01*
X76027133Y-84708893D01*
X76014520Y-84687849D01*
X76004030Y-84665671D01*
X75995765Y-84642571D01*
X75989804Y-84618773D01*
X75986204Y-84594504D01*
X75985000Y-84570000D01*
X75985000Y-83070000D01*
X75986204Y-83045496D01*
X75989804Y-83021227D01*
X75995765Y-82997429D01*
X76004030Y-82974329D01*
X76014520Y-82952151D01*
X76027133Y-82931107D01*
X76041747Y-82911402D01*
X76058223Y-82893223D01*
X76076402Y-82876747D01*
X76096107Y-82862133D01*
X76117151Y-82849520D01*
X76139329Y-82839030D01*
X76162429Y-82830765D01*
X76186227Y-82824804D01*
X76210496Y-82821204D01*
X76235000Y-82820000D01*
X77435000Y-82820000D01*
X77459504Y-82821204D01*
X77459504Y-82821204D01*
G37*
D15*
X76835000Y-83820000D03*
D17*
X74335000Y-83820000D03*
X74335000Y-74930000D03*
D14*
G36*
X77459504Y-73931204D02*
G01*
X77483773Y-73934804D01*
X77507571Y-73940765D01*
X77530671Y-73949030D01*
X77552849Y-73959520D01*
X77573893Y-73972133D01*
X77593598Y-73986747D01*
X77611777Y-74003223D01*
X77628253Y-74021402D01*
X77642867Y-74041107D01*
X77655480Y-74062151D01*
X77665970Y-74084329D01*
X77674235Y-74107429D01*
X77680196Y-74131227D01*
X77683796Y-74155496D01*
X77685000Y-74180000D01*
X77685000Y-75680000D01*
X77683796Y-75704504D01*
X77680196Y-75728773D01*
X77674235Y-75752571D01*
X77665970Y-75775671D01*
X77655480Y-75797849D01*
X77642867Y-75818893D01*
X77628253Y-75838598D01*
X77611777Y-75856777D01*
X77593598Y-75873253D01*
X77573893Y-75887867D01*
X77552849Y-75900480D01*
X77530671Y-75910970D01*
X77507571Y-75919235D01*
X77483773Y-75925196D01*
X77459504Y-75928796D01*
X77435000Y-75930000D01*
X76235000Y-75930000D01*
X76210496Y-75928796D01*
X76186227Y-75925196D01*
X76162429Y-75919235D01*
X76139329Y-75910970D01*
X76117151Y-75900480D01*
X76096107Y-75887867D01*
X76076402Y-75873253D01*
X76058223Y-75856777D01*
X76041747Y-75838598D01*
X76027133Y-75818893D01*
X76014520Y-75797849D01*
X76004030Y-75775671D01*
X75995765Y-75752571D01*
X75989804Y-75728773D01*
X75986204Y-75704504D01*
X75985000Y-75680000D01*
X75985000Y-74180000D01*
X75986204Y-74155496D01*
X75989804Y-74131227D01*
X75995765Y-74107429D01*
X76004030Y-74084329D01*
X76014520Y-74062151D01*
X76027133Y-74041107D01*
X76041747Y-74021402D01*
X76058223Y-74003223D01*
X76076402Y-73986747D01*
X76096107Y-73972133D01*
X76117151Y-73959520D01*
X76139329Y-73949030D01*
X76162429Y-73940765D01*
X76186227Y-73934804D01*
X76210496Y-73931204D01*
X76235000Y-73930000D01*
X77435000Y-73930000D01*
X77459504Y-73931204D01*
X77459504Y-73931204D01*
G37*
D15*
X76835000Y-74930000D03*
D19*
X84455000Y-95885000D03*
D13*
X94615000Y-95885000D03*
X84455000Y-91440000D03*
D19*
X74295000Y-91440000D03*
X128905000Y-95250000D03*
D13*
X118745000Y-95250000D03*
X128270000Y-83185000D03*
D19*
X118110000Y-83185000D03*
D13*
X93980000Y-86360000D03*
D19*
X83820000Y-86360000D03*
X81915000Y-71755000D03*
D13*
X81915000Y-81915000D03*
D20*
X98425000Y-71120000D03*
X98425000Y-73660000D03*
X98425000Y-76200000D03*
X98425000Y-78740000D03*
X98425000Y-81280000D03*
X98425000Y-83820000D03*
X98425000Y-86360000D03*
X98425000Y-88900000D03*
X98425000Y-91440000D03*
X98425000Y-93980000D03*
X98425000Y-96520000D03*
X98425000Y-99060000D03*
X98425000Y-101600000D03*
X98425000Y-104140000D03*
X113665000Y-104140000D03*
X113665000Y-101600000D03*
X113665000Y-99060000D03*
X113665000Y-96520000D03*
X113665000Y-93980000D03*
X113665000Y-91440000D03*
X113665000Y-88900000D03*
X113665000Y-86360000D03*
X113665000Y-83820000D03*
X113665000Y-81280000D03*
X113665000Y-78740000D03*
X113665000Y-76200000D03*
X113665000Y-73660000D03*
X113665000Y-71120000D03*
D12*
X93980000Y-81280000D03*
D19*
X86360000Y-73660000D03*
X93980000Y-78740000D03*
X86360000Y-76200000D03*
X93980000Y-76200000D03*
X86360000Y-78740000D03*
X93980000Y-73660000D03*
X86360000Y-81280000D03*
D21*
X101600000Y-72390000D03*
X105410000Y-76200000D03*
X103505000Y-70485000D03*
X106680000Y-73660000D03*
X130175000Y-105410000D03*
X108585000Y-102870000D03*
D22*
X90805000Y-102425100D02*
X93955100Y-105575200D01*
X93955100Y-105575200D02*
X111445800Y-105575200D01*
X111445800Y-105575200D02*
X112251600Y-104769400D01*
X90805000Y-101600000D02*
X90805000Y-102425100D01*
X112251600Y-104769400D02*
X113078200Y-105596000D01*
X113665000Y-76200000D02*
X112251600Y-77613400D01*
X112251600Y-77613400D02*
X112251600Y-104769400D01*
X127510500Y-101475500D02*
X127452600Y-101417600D01*
X127452600Y-101417600D02*
X127452600Y-94629800D01*
X127452600Y-94629800D02*
X128320600Y-93761800D01*
X128320600Y-93761800D02*
X137265400Y-93761800D01*
X127635000Y-101600000D02*
X127510500Y-101475500D01*
X137755000Y-100330000D02*
X137755000Y-98679700D01*
X137265400Y-93761800D02*
X137265400Y-92944900D01*
X137265400Y-92944900D02*
X137755000Y-92455300D01*
X137755000Y-98679700D02*
X137265400Y-98190100D01*
X137265400Y-98190100D02*
X137265400Y-93761800D01*
X137755000Y-90805000D02*
X137755000Y-92455300D01*
X126179000Y-105596000D02*
X127635000Y-104140000D01*
X120464000Y-105596000D02*
X126179000Y-105596000D01*
X127635000Y-101600000D02*
X127635000Y-104140000D01*
X113078200Y-105596000D02*
X120464000Y-105596000D01*
X116601200Y-74295000D02*
X120650000Y-74295000D01*
X113665000Y-73660000D02*
X114300000Y-74295000D01*
X114300000Y-74295000D02*
X116601200Y-74295000D01*
X122392600Y-84817100D02*
X117666600Y-84817100D01*
X117666600Y-84817100D02*
X116601200Y-83751700D01*
X116601200Y-83751700D02*
X116601200Y-74295000D01*
X120055000Y-91816900D02*
X120055000Y-90170000D01*
X118745000Y-95250000D02*
X120055000Y-93940000D01*
X93980000Y-78740000D02*
X97012600Y-75707400D01*
X97012600Y-75707400D02*
X97012600Y-72532400D01*
X97012600Y-72532400D02*
X98425000Y-71120000D01*
X92529600Y-84909600D02*
X92529600Y-80190400D01*
X92529600Y-80190400D02*
X93980000Y-78740000D01*
X93980000Y-86360000D02*
X92529600Y-84909600D01*
X92529600Y-84909600D02*
X90985400Y-84909600D01*
X90985400Y-84909600D02*
X84455000Y-91440000D01*
X128270000Y-75819700D02*
X126745300Y-74295000D01*
X126745300Y-74295000D02*
X120650000Y-74295000D01*
X128270000Y-75819700D02*
X128524700Y-75565000D01*
X128270000Y-83185000D02*
X128270000Y-75819700D01*
X135890000Y-75565000D02*
X135890000Y-74295000D01*
X135890000Y-80645000D02*
X135890000Y-75565000D01*
X135890000Y-75565000D02*
X131825300Y-75565000D01*
X130175000Y-75565000D02*
X131825300Y-75565000D01*
X130175000Y-75565000D02*
X128524700Y-75565000D01*
X98425000Y-71120000D02*
X100330000Y-71120000D01*
X100330000Y-71120000D02*
X101600000Y-72390000D01*
X101600000Y-72390000D02*
X101600000Y-72390000D01*
X111125000Y-73660000D02*
X108585000Y-76200000D01*
X113665000Y-73660000D02*
X111125000Y-73660000D01*
X105410000Y-76200000D02*
X108585000Y-76200000D01*
X120135000Y-96640000D02*
X118745000Y-95250000D01*
X120135000Y-101600000D02*
X120135000Y-96640000D01*
X120055000Y-91645000D02*
X120055000Y-92670000D01*
X120055000Y-90170000D02*
X120055000Y-91645000D01*
X120055000Y-92670000D02*
X120055000Y-91816900D01*
X124832750Y-87257250D02*
X125357250Y-87257250D01*
X124832750Y-87257250D02*
X122392600Y-84817100D01*
X125357250Y-87257250D02*
X127635000Y-89535000D01*
X127635000Y-89535000D02*
X127635000Y-92075000D01*
X126325000Y-93385000D02*
X120055000Y-93385000D01*
X127635000Y-92075000D02*
X126325000Y-93385000D01*
X120055000Y-93940000D02*
X120055000Y-93385000D01*
X120055000Y-93385000D02*
X120055000Y-92670000D01*
X98425000Y-81280000D02*
X93980000Y-81280000D01*
X113665000Y-71120000D02*
X129872800Y-71120000D01*
X129872800Y-71120000D02*
X130175000Y-71422200D01*
X131825300Y-73025000D02*
X132555300Y-72295000D01*
X132555300Y-72295000D02*
X135890000Y-72295000D01*
X130175000Y-73025000D02*
X130175000Y-71422200D01*
X131000200Y-73025000D02*
X131825300Y-73025000D01*
X130175000Y-73025000D02*
X130307100Y-73025000D01*
X131000200Y-73025000D02*
X130307100Y-73025000D01*
X97747239Y-69707999D02*
X102727999Y-69707999D01*
X96112591Y-71342647D02*
X97747239Y-69707999D01*
X93980000Y-76200000D02*
X96112590Y-74067410D01*
X96112590Y-74067410D02*
X96112591Y-71342647D01*
X102727999Y-69707999D02*
X103505000Y-70485000D01*
X103505000Y-70485000D02*
X103505000Y-70485000D01*
X109220000Y-71120000D02*
X113665000Y-71120000D01*
X106680000Y-73660000D02*
X109220000Y-71120000D01*
X98425000Y-83820000D02*
X98425000Y-83966200D01*
X98425000Y-83966200D02*
X89478800Y-92912400D01*
X89478800Y-92912400D02*
X83826400Y-92912400D01*
X83826400Y-92912400D02*
X82976300Y-92062300D01*
X82976300Y-92062300D02*
X82976300Y-89831500D01*
X82976300Y-89831500D02*
X91481600Y-81326200D01*
X91481600Y-81326200D02*
X91481600Y-76158400D01*
X91481600Y-76158400D02*
X93980000Y-73660000D01*
X74589700Y-81915000D02*
X74335000Y-82169700D01*
X81915000Y-81915000D02*
X74589700Y-81915000D01*
X74335000Y-74930000D02*
X74335000Y-81660300D01*
X74335000Y-81660300D02*
X74589700Y-81915000D01*
X84909700Y-78740000D02*
X84909700Y-78920300D01*
X84909700Y-78920300D02*
X81915000Y-81915000D01*
X74335000Y-83820000D02*
X74335000Y-82169700D01*
X86360000Y-78740000D02*
X84909700Y-78740000D01*
X76835000Y-73233000D02*
X76835000Y-74930000D01*
X81915000Y-72480100D02*
X77587900Y-72480100D01*
X77587900Y-72480100D02*
X76835000Y-73233000D01*
X76835000Y-73233000D02*
X73729200Y-73233000D01*
X73729200Y-73233000D02*
X72833200Y-74129000D01*
X72833200Y-74129000D02*
X72833200Y-84654000D01*
X72833200Y-84654000D02*
X73657300Y-85478100D01*
X73657300Y-85478100D02*
X75176900Y-85478100D01*
X75176900Y-85478100D02*
X76835000Y-83820000D01*
X81915000Y-72480100D02*
X81915000Y-73205300D01*
X81915000Y-71755000D02*
X81915000Y-72480100D01*
X86360000Y-76200000D02*
X84909700Y-76200000D01*
X84909700Y-76200000D02*
X81915000Y-73205300D01*
X131893600Y-81673500D02*
X128893900Y-84673200D01*
X128893900Y-84673200D02*
X127077900Y-84673200D01*
X127077900Y-84673200D02*
X120650000Y-78245300D01*
X130175000Y-79707800D02*
X131893600Y-81426400D01*
X131893600Y-81426400D02*
X131893600Y-81673500D01*
X135890000Y-83145000D02*
X133365100Y-83145000D01*
X133365100Y-83145000D02*
X131893600Y-81673500D01*
X120650000Y-76795000D02*
X120650000Y-78245300D01*
X130175000Y-78105000D02*
X130175000Y-79707800D01*
X98425000Y-78740000D02*
X107473400Y-69691600D01*
X107473400Y-69691600D02*
X135900900Y-69691600D01*
X135900900Y-69691600D02*
X137555700Y-71346400D01*
X137555700Y-71346400D02*
X137555700Y-88504300D01*
X137555700Y-88504300D02*
X135255000Y-90805000D01*
X118110000Y-83185000D02*
X122992300Y-83185000D01*
X122992300Y-83185000D02*
X130612300Y-90805000D01*
X130612300Y-90805000D02*
X135255000Y-90805000D01*
X132534700Y-100330000D02*
X135255000Y-100330000D01*
X128905000Y-95250000D02*
X128905000Y-96700300D01*
X98425000Y-86360000D02*
X108585000Y-96520000D01*
X108585000Y-96520000D02*
X108585000Y-102870000D01*
X128905000Y-96700300D02*
X132534700Y-100330000D01*
X135255000Y-100330000D02*
X134349447Y-101235553D01*
X134349447Y-101235553D02*
X130175000Y-105410000D01*
X130175000Y-105410000D02*
X130175000Y-105410000D01*
X86317300Y-95641700D02*
X84837300Y-94161700D01*
X84837300Y-94161700D02*
X78467000Y-94161700D01*
X78467000Y-94161700D02*
X75745300Y-91440000D01*
X75565000Y-101600000D02*
X79573900Y-97591100D01*
X79573900Y-97591100D02*
X84855400Y-97591100D01*
X84855400Y-97591100D02*
X86317300Y-96129200D01*
X86317300Y-96129200D02*
X86317300Y-95641700D01*
X98425000Y-88900000D02*
X95008400Y-88900000D01*
X95008400Y-88900000D02*
X88266700Y-95641700D01*
X88266700Y-95641700D02*
X86317300Y-95641700D01*
X74295000Y-91440000D02*
X75745300Y-91440000D01*
X88305000Y-101600000D02*
X86624900Y-103280100D01*
X86624900Y-103280100D02*
X74619600Y-103280100D01*
X74619600Y-103280100D02*
X74036300Y-102696800D01*
X74036300Y-102696800D02*
X74036300Y-100500300D01*
X74036300Y-100500300D02*
X78651600Y-95885000D01*
X78651600Y-95885000D02*
X84455000Y-95885000D01*
X98425000Y-91440000D02*
X96918100Y-91440000D01*
X96918100Y-91440000D02*
X88305000Y-100053100D01*
X88305000Y-100053100D02*
X88305000Y-101600000D01*
X113665000Y-86360000D02*
X118745000Y-86360000D01*
X118745000Y-86360000D02*
X122555000Y-90170000D01*
X86360000Y-81280000D02*
X86360000Y-82730300D01*
X83820000Y-86360000D02*
X83820000Y-84909700D01*
X86360000Y-82730300D02*
X85999400Y-82730300D01*
X85999400Y-82730300D02*
X83820000Y-84909700D01*
X125135000Y-101725000D02*
X125135000Y-101600000D01*
X122720000Y-104140000D02*
X125135000Y-101725000D01*
X118745000Y-104140000D02*
X122720000Y-104140000D01*
X116840000Y-102235000D02*
X118745000Y-104140000D01*
X116840000Y-92075000D02*
X116840000Y-102235000D01*
X113665000Y-88900000D02*
X116840000Y-92075000D01*
D23*
G36*
X73495675Y-62937657D02*
G01*
X73965951Y-63076067D01*
X74400390Y-63303186D01*
X74782437Y-63610361D01*
X75097549Y-63985896D01*
X75333716Y-64415482D01*
X75481945Y-64882759D01*
X75539948Y-65399864D01*
X75540008Y-65408460D01*
X75540081Y-65429459D01*
X75542995Y-65458146D01*
X75542793Y-65486985D01*
X75543693Y-65496156D01*
X75608465Y-66112412D01*
X75620492Y-66171001D01*
X75631701Y-66229766D01*
X75634365Y-66238588D01*
X75817600Y-66830529D01*
X75840784Y-66885680D01*
X75863190Y-66941138D01*
X75867516Y-66949275D01*
X76162238Y-67494350D01*
X76195683Y-67543934D01*
X76228442Y-67593995D01*
X76234267Y-67601136D01*
X76629247Y-68078586D01*
X76671680Y-68120724D01*
X76713546Y-68163477D01*
X76720647Y-68169351D01*
X77200843Y-68560989D01*
X77250629Y-68594066D01*
X77300024Y-68627888D01*
X77308131Y-68632270D01*
X77855251Y-68923179D01*
X77910533Y-68945965D01*
X77965538Y-68969540D01*
X77974341Y-68972265D01*
X78567545Y-69151364D01*
X78626216Y-69162981D01*
X78684737Y-69175420D01*
X78693902Y-69176383D01*
X79310595Y-69236850D01*
X79310598Y-69236850D01*
X79342581Y-69240000D01*
X96963659Y-69240000D01*
X95517542Y-70686118D01*
X95483775Y-70713830D01*
X95456062Y-70747598D01*
X95456059Y-70747601D01*
X95373181Y-70848588D01*
X95291003Y-71002334D01*
X95240396Y-71169157D01*
X95223310Y-71342647D01*
X95227592Y-71386125D01*
X95227591Y-72949933D01*
X95178932Y-72858899D01*
X94999608Y-72640392D01*
X94781101Y-72461068D01*
X94531808Y-72327818D01*
X94261309Y-72245764D01*
X94050492Y-72225000D01*
X93909508Y-72225000D01*
X93698691Y-72245764D01*
X93428192Y-72327818D01*
X93178899Y-72461068D01*
X92960392Y-72640392D01*
X92781068Y-72858899D01*
X92647818Y-73108192D01*
X92565764Y-73378691D01*
X92538057Y-73660000D01*
X92555125Y-73833296D01*
X90886551Y-75501871D01*
X90852784Y-75529583D01*
X90825071Y-75563351D01*
X90825068Y-75563354D01*
X90742190Y-75664341D01*
X90660012Y-75818087D01*
X90609405Y-75984910D01*
X90592319Y-76158400D01*
X90596601Y-76201879D01*
X90596600Y-80959621D01*
X85256050Y-86300171D01*
X85234236Y-86078691D01*
X85152182Y-85808192D01*
X85018932Y-85558899D01*
X84839608Y-85340392D01*
X84730461Y-85250817D01*
X86361882Y-83619397D01*
X86533490Y-83602495D01*
X86700313Y-83551889D01*
X86854059Y-83469711D01*
X86988817Y-83359117D01*
X87099411Y-83224359D01*
X87181589Y-83070613D01*
X87232195Y-82903790D01*
X87245000Y-82773777D01*
X87249282Y-82730300D01*
X87245000Y-82686823D01*
X87245000Y-82410078D01*
X87379608Y-82299608D01*
X87558932Y-82081101D01*
X87692182Y-81831808D01*
X87774236Y-81561309D01*
X87801943Y-81280000D01*
X87774236Y-80998691D01*
X87692182Y-80728192D01*
X87558932Y-80478899D01*
X87379608Y-80260392D01*
X87161101Y-80081068D01*
X87028142Y-80010000D01*
X87161101Y-79938932D01*
X87379608Y-79759608D01*
X87558932Y-79541101D01*
X87692182Y-79291808D01*
X87774236Y-79021309D01*
X87801943Y-78740000D01*
X87774236Y-78458691D01*
X87692182Y-78188192D01*
X87558932Y-77938899D01*
X87379608Y-77720392D01*
X87161101Y-77541068D01*
X87028142Y-77470000D01*
X87161101Y-77398932D01*
X87379608Y-77219608D01*
X87558932Y-77001101D01*
X87692182Y-76751808D01*
X87774236Y-76481309D01*
X87801943Y-76200000D01*
X87774236Y-75918691D01*
X87692182Y-75648192D01*
X87558932Y-75398899D01*
X87379608Y-75180392D01*
X87161101Y-75001068D01*
X87028142Y-74930000D01*
X87161101Y-74858932D01*
X87379608Y-74679608D01*
X87558932Y-74461101D01*
X87692182Y-74211808D01*
X87774236Y-73941309D01*
X87801943Y-73660000D01*
X87774236Y-73378691D01*
X87692182Y-73108192D01*
X87558932Y-72858899D01*
X87379608Y-72640392D01*
X87161101Y-72461068D01*
X86911808Y-72327818D01*
X86641309Y-72245764D01*
X86430492Y-72225000D01*
X86289508Y-72225000D01*
X86078691Y-72245764D01*
X85808192Y-72327818D01*
X85558899Y-72461068D01*
X85340392Y-72640392D01*
X85161068Y-72858899D01*
X85027818Y-73108192D01*
X84945764Y-73378691D01*
X84918057Y-73660000D01*
X84945764Y-73941309D01*
X85027818Y-74211808D01*
X85161068Y-74461101D01*
X85340392Y-74679608D01*
X85558899Y-74858932D01*
X85691858Y-74930000D01*
X85558899Y-75001068D01*
X85340392Y-75180392D01*
X85250818Y-75289539D01*
X82825461Y-72864183D01*
X82934608Y-72774608D01*
X83113932Y-72556101D01*
X83247182Y-72306808D01*
X83329236Y-72036309D01*
X83356943Y-71755000D01*
X83329236Y-71473691D01*
X83247182Y-71203192D01*
X83113932Y-70953899D01*
X82934608Y-70735392D01*
X82716101Y-70556068D01*
X82466808Y-70422818D01*
X82196309Y-70340764D01*
X81985492Y-70320000D01*
X81844508Y-70320000D01*
X81633691Y-70340764D01*
X81363192Y-70422818D01*
X81113899Y-70556068D01*
X80895392Y-70735392D01*
X80716068Y-70953899D01*
X80582818Y-71203192D01*
X80500764Y-71473691D01*
X80488806Y-71595100D01*
X77631365Y-71595100D01*
X77587899Y-71590819D01*
X77544433Y-71595100D01*
X77544423Y-71595100D01*
X77414410Y-71607905D01*
X77247587Y-71658511D01*
X77093841Y-71740689D01*
X77093839Y-71740690D01*
X77093840Y-71740690D01*
X76992853Y-71823568D01*
X76992851Y-71823570D01*
X76959083Y-71851283D01*
X76931370Y-71885051D01*
X76468422Y-72348000D01*
X73772665Y-72348000D01*
X73729199Y-72343719D01*
X73685733Y-72348000D01*
X73685723Y-72348000D01*
X73555710Y-72360805D01*
X73388887Y-72411411D01*
X73235141Y-72493589D01*
X73235139Y-72493590D01*
X73235140Y-72493590D01*
X73134153Y-72576468D01*
X73134151Y-72576470D01*
X73100383Y-72604183D01*
X73072670Y-72637951D01*
X72238156Y-73472466D01*
X72204383Y-73500183D01*
X72093789Y-73634942D01*
X72011611Y-73788688D01*
X71998020Y-73833491D01*
X71962378Y-73950986D01*
X71961005Y-73955511D01*
X71948200Y-74085524D01*
X71948200Y-74085531D01*
X71943919Y-74129000D01*
X71948200Y-74172469D01*
X71948201Y-84610521D01*
X71943919Y-84654000D01*
X71961005Y-84827490D01*
X72011612Y-84994313D01*
X72093790Y-85148059D01*
X72176668Y-85249046D01*
X72176671Y-85249049D01*
X72204384Y-85282817D01*
X72238151Y-85310529D01*
X73000770Y-86073149D01*
X73028483Y-86106917D01*
X73062251Y-86134630D01*
X73062253Y-86134632D01*
X73133752Y-86193310D01*
X73163241Y-86217511D01*
X73316987Y-86299689D01*
X73483810Y-86350295D01*
X73613823Y-86363100D01*
X73613833Y-86363100D01*
X73657299Y-86367381D01*
X73700765Y-86363100D01*
X75133431Y-86363100D01*
X75176900Y-86367381D01*
X75220369Y-86363100D01*
X75220377Y-86363100D01*
X75350390Y-86350295D01*
X75517213Y-86299689D01*
X75670959Y-86217511D01*
X75805717Y-86106917D01*
X75833434Y-86073144D01*
X76448506Y-85458072D01*
X77435000Y-85458072D01*
X77608254Y-85441008D01*
X77774850Y-85390472D01*
X77928386Y-85308405D01*
X78062962Y-85197962D01*
X78173405Y-85063386D01*
X78255472Y-84909850D01*
X78306008Y-84743254D01*
X78323072Y-84570000D01*
X78323072Y-83070000D01*
X78306008Y-82896746D01*
X78276661Y-82800000D01*
X80780479Y-82800000D01*
X80800363Y-82829759D01*
X81000241Y-83029637D01*
X81235273Y-83186680D01*
X81496426Y-83294853D01*
X81773665Y-83350000D01*
X82056335Y-83350000D01*
X82333574Y-83294853D01*
X82594727Y-83186680D01*
X82829759Y-83029637D01*
X83029637Y-82829759D01*
X83186680Y-82594727D01*
X83294853Y-82333574D01*
X83350000Y-82056335D01*
X83350000Y-81773665D01*
X83343017Y-81738561D01*
X85332089Y-79749490D01*
X85340392Y-79759608D01*
X85558899Y-79938932D01*
X85691858Y-80010000D01*
X85558899Y-80081068D01*
X85340392Y-80260392D01*
X85161068Y-80478899D01*
X85027818Y-80728192D01*
X84945764Y-80998691D01*
X84918057Y-81280000D01*
X84945764Y-81561309D01*
X85027818Y-81831808D01*
X85161068Y-82081101D01*
X85267424Y-82210697D01*
X83224951Y-84253171D01*
X83191184Y-84280883D01*
X83163471Y-84314651D01*
X83163468Y-84314654D01*
X83080590Y-84415641D01*
X82998412Y-84569387D01*
X82947805Y-84736210D01*
X82930719Y-84909700D01*
X82935001Y-84953179D01*
X82935001Y-85229921D01*
X82800392Y-85340392D01*
X82621068Y-85558899D01*
X82487818Y-85808192D01*
X82405764Y-86078691D01*
X82378057Y-86360000D01*
X82405764Y-86641309D01*
X82487818Y-86911808D01*
X82621068Y-87161101D01*
X82800392Y-87379608D01*
X83018899Y-87558932D01*
X83268192Y-87692182D01*
X83538691Y-87774236D01*
X83749508Y-87795000D01*
X83761222Y-87795000D01*
X82381252Y-89174970D01*
X82347484Y-89202683D01*
X82319771Y-89236451D01*
X82319768Y-89236454D01*
X82236890Y-89337441D01*
X82154712Y-89491187D01*
X82104105Y-89658010D01*
X82087019Y-89831500D01*
X82091301Y-89874979D01*
X82091300Y-92018831D01*
X82087019Y-92062300D01*
X82091300Y-92105769D01*
X82091300Y-92105776D01*
X82104105Y-92235789D01*
X82154711Y-92402612D01*
X82236889Y-92556358D01*
X82347483Y-92691117D01*
X82381256Y-92718834D01*
X82939121Y-93276700D01*
X78833579Y-93276700D01*
X76401832Y-90844954D01*
X76374117Y-90811183D01*
X76239359Y-90700589D01*
X76085613Y-90618411D01*
X75918790Y-90567805D01*
X75788777Y-90555000D01*
X75788769Y-90555000D01*
X75745300Y-90550719D01*
X75701831Y-90555000D01*
X75425078Y-90555000D01*
X75314608Y-90420392D01*
X75096101Y-90241068D01*
X74846808Y-90107818D01*
X74576309Y-90025764D01*
X74365492Y-90005000D01*
X74224508Y-90005000D01*
X74013691Y-90025764D01*
X73743192Y-90107818D01*
X73493899Y-90241068D01*
X73275392Y-90420392D01*
X73096068Y-90638899D01*
X72962818Y-90888192D01*
X72880764Y-91158691D01*
X72853057Y-91440000D01*
X72880764Y-91721309D01*
X72962818Y-91991808D01*
X73096068Y-92241101D01*
X73275392Y-92459608D01*
X73493899Y-92638932D01*
X73743192Y-92772182D01*
X74013691Y-92854236D01*
X74224508Y-92875000D01*
X74365492Y-92875000D01*
X74576309Y-92854236D01*
X74846808Y-92772182D01*
X75096101Y-92638932D01*
X75314608Y-92459608D01*
X75404183Y-92350461D01*
X77810470Y-94756749D01*
X77838183Y-94790517D01*
X77871951Y-94818230D01*
X77871953Y-94818232D01*
X77888030Y-94831426D01*
X77972941Y-94901111D01*
X78126687Y-94983289D01*
X78293510Y-95033895D01*
X78380382Y-95042451D01*
X78311287Y-95063411D01*
X78157541Y-95145589D01*
X78056553Y-95228468D01*
X78056551Y-95228470D01*
X78022783Y-95256183D01*
X77995070Y-95289951D01*
X73441252Y-99843770D01*
X73407484Y-99871483D01*
X73379771Y-99905251D01*
X73379768Y-99905254D01*
X73296890Y-100006241D01*
X73214712Y-100159987D01*
X73164105Y-100326810D01*
X73147019Y-100500300D01*
X73151301Y-100543779D01*
X73151300Y-102653331D01*
X73147019Y-102696800D01*
X73151300Y-102740269D01*
X73151300Y-102740276D01*
X73164105Y-102870289D01*
X73214711Y-103037112D01*
X73296889Y-103190858D01*
X73407483Y-103325617D01*
X73441256Y-103353334D01*
X73963066Y-103875144D01*
X73990783Y-103908917D01*
X74125541Y-104019511D01*
X74279287Y-104101689D01*
X74446110Y-104152295D01*
X74576123Y-104165100D01*
X74576131Y-104165100D01*
X74619600Y-104169381D01*
X74663069Y-104165100D01*
X86581431Y-104165100D01*
X86624900Y-104169381D01*
X86668369Y-104165100D01*
X86668377Y-104165100D01*
X86798390Y-104152295D01*
X86965213Y-104101689D01*
X87118959Y-104019511D01*
X87253717Y-103908917D01*
X87281434Y-103875144D01*
X87918506Y-103238072D01*
X88905000Y-103238072D01*
X89078254Y-103221008D01*
X89244850Y-103170472D01*
X89398386Y-103088405D01*
X89532962Y-102977962D01*
X89643405Y-102843386D01*
X89697777Y-102741663D01*
X89749866Y-102805134D01*
X89975987Y-102990706D01*
X90233967Y-103128599D01*
X90266916Y-103138594D01*
X93148321Y-106020000D01*
X79342581Y-106020000D01*
X79312818Y-106022931D01*
X79293016Y-106022793D01*
X79283845Y-106023693D01*
X78667588Y-106088465D01*
X78609037Y-106100484D01*
X78550234Y-106111701D01*
X78541412Y-106114365D01*
X77949472Y-106297600D01*
X77894359Y-106320768D01*
X77838861Y-106343190D01*
X77830725Y-106347517D01*
X77285650Y-106642238D01*
X77236028Y-106675709D01*
X77186005Y-106708442D01*
X77178866Y-106714265D01*
X77178862Y-106714268D01*
X77178858Y-106714272D01*
X76701414Y-107109247D01*
X76659292Y-107151664D01*
X76616523Y-107193546D01*
X76610650Y-107200647D01*
X76219011Y-107680843D01*
X76185924Y-107730644D01*
X76152112Y-107780024D01*
X76147730Y-107788130D01*
X75856821Y-108335251D01*
X75834030Y-108390545D01*
X75810460Y-108445538D01*
X75807735Y-108454341D01*
X75628636Y-109047545D01*
X75617019Y-109106216D01*
X75604580Y-109164737D01*
X75603617Y-109173902D01*
X75543150Y-109790595D01*
X75543150Y-109790596D01*
X75488998Y-110342883D01*
X75347307Y-110812186D01*
X75117161Y-111245028D01*
X74807323Y-111624927D01*
X74429600Y-111937406D01*
X73998373Y-112170569D01*
X73530073Y-112315532D01*
X73042539Y-112366774D01*
X72554325Y-112322343D01*
X72084049Y-112183933D01*
X71649615Y-111956816D01*
X71267562Y-111649639D01*
X70952451Y-111274103D01*
X70716284Y-110844519D01*
X70568054Y-110377240D01*
X70510052Y-109860136D01*
X70510000Y-109852695D01*
X70510000Y-109620098D01*
X70640000Y-109620098D01*
X70640000Y-110089902D01*
X70731654Y-110550679D01*
X70911440Y-110984721D01*
X71172450Y-111375349D01*
X71504651Y-111707550D01*
X71895279Y-111968560D01*
X72329321Y-112148346D01*
X72790098Y-112240000D01*
X73259902Y-112240000D01*
X73720679Y-112148346D01*
X74154721Y-111968560D01*
X74545349Y-111707550D01*
X74877550Y-111375349D01*
X75138560Y-110984721D01*
X75318346Y-110550679D01*
X75410000Y-110089902D01*
X75410000Y-109620098D01*
X75318346Y-109159321D01*
X75138560Y-108725279D01*
X74877550Y-108334651D01*
X74545349Y-108002450D01*
X74154721Y-107741440D01*
X73720679Y-107561654D01*
X73259902Y-107470000D01*
X72790098Y-107470000D01*
X72329321Y-107561654D01*
X71895279Y-107741440D01*
X71504651Y-108002450D01*
X71172450Y-108334651D01*
X70911440Y-108725279D01*
X70731654Y-109159321D01*
X70640000Y-109620098D01*
X70510000Y-109620098D01*
X70510000Y-65437278D01*
X70536197Y-65170098D01*
X70640000Y-65170098D01*
X70640000Y-65639902D01*
X70731654Y-66100679D01*
X70911440Y-66534721D01*
X71172450Y-66925349D01*
X71504651Y-67257550D01*
X71895279Y-67518560D01*
X72329321Y-67698346D01*
X72790098Y-67790000D01*
X73259902Y-67790000D01*
X73720679Y-67698346D01*
X74154721Y-67518560D01*
X74545349Y-67257550D01*
X74877550Y-66925349D01*
X75138560Y-66534721D01*
X75318346Y-66100679D01*
X75410000Y-65639902D01*
X75410000Y-65170098D01*
X75318346Y-64709321D01*
X75138560Y-64275279D01*
X74877550Y-63884651D01*
X74545349Y-63552450D01*
X74154721Y-63291440D01*
X73720679Y-63111654D01*
X73259902Y-63020000D01*
X72790098Y-63020000D01*
X72329321Y-63111654D01*
X71895279Y-63291440D01*
X71504651Y-63552450D01*
X71172450Y-63884651D01*
X70911440Y-64275279D01*
X70731654Y-64709321D01*
X70640000Y-65170098D01*
X70536197Y-65170098D01*
X70561002Y-64917116D01*
X70702694Y-64447812D01*
X70932837Y-64014975D01*
X71242678Y-63635073D01*
X71620397Y-63322597D01*
X72051627Y-63089431D01*
X72519928Y-62944468D01*
X73007461Y-62893226D01*
X73495675Y-62937657D01*
X73495675Y-62937657D01*
G37*
X73495675Y-62937657D02*
X73965951Y-63076067D01*
X74400390Y-63303186D01*
X74782437Y-63610361D01*
X75097549Y-63985896D01*
X75333716Y-64415482D01*
X75481945Y-64882759D01*
X75539948Y-65399864D01*
X75540008Y-65408460D01*
X75540081Y-65429459D01*
X75542995Y-65458146D01*
X75542793Y-65486985D01*
X75543693Y-65496156D01*
X75608465Y-66112412D01*
X75620492Y-66171001D01*
X75631701Y-66229766D01*
X75634365Y-66238588D01*
X75817600Y-66830529D01*
X75840784Y-66885680D01*
X75863190Y-66941138D01*
X75867516Y-66949275D01*
X76162238Y-67494350D01*
X76195683Y-67543934D01*
X76228442Y-67593995D01*
X76234267Y-67601136D01*
X76629247Y-68078586D01*
X76671680Y-68120724D01*
X76713546Y-68163477D01*
X76720647Y-68169351D01*
X77200843Y-68560989D01*
X77250629Y-68594066D01*
X77300024Y-68627888D01*
X77308131Y-68632270D01*
X77855251Y-68923179D01*
X77910533Y-68945965D01*
X77965538Y-68969540D01*
X77974341Y-68972265D01*
X78567545Y-69151364D01*
X78626216Y-69162981D01*
X78684737Y-69175420D01*
X78693902Y-69176383D01*
X79310595Y-69236850D01*
X79310598Y-69236850D01*
X79342581Y-69240000D01*
X96963659Y-69240000D01*
X95517542Y-70686118D01*
X95483775Y-70713830D01*
X95456062Y-70747598D01*
X95456059Y-70747601D01*
X95373181Y-70848588D01*
X95291003Y-71002334D01*
X95240396Y-71169157D01*
X95223310Y-71342647D01*
X95227592Y-71386125D01*
X95227591Y-72949933D01*
X95178932Y-72858899D01*
X94999608Y-72640392D01*
X94781101Y-72461068D01*
X94531808Y-72327818D01*
X94261309Y-72245764D01*
X94050492Y-72225000D01*
X93909508Y-72225000D01*
X93698691Y-72245764D01*
X93428192Y-72327818D01*
X93178899Y-72461068D01*
X92960392Y-72640392D01*
X92781068Y-72858899D01*
X92647818Y-73108192D01*
X92565764Y-73378691D01*
X92538057Y-73660000D01*
X92555125Y-73833296D01*
X90886551Y-75501871D01*
X90852784Y-75529583D01*
X90825071Y-75563351D01*
X90825068Y-75563354D01*
X90742190Y-75664341D01*
X90660012Y-75818087D01*
X90609405Y-75984910D01*
X90592319Y-76158400D01*
X90596601Y-76201879D01*
X90596600Y-80959621D01*
X85256050Y-86300171D01*
X85234236Y-86078691D01*
X85152182Y-85808192D01*
X85018932Y-85558899D01*
X84839608Y-85340392D01*
X84730461Y-85250817D01*
X86361882Y-83619397D01*
X86533490Y-83602495D01*
X86700313Y-83551889D01*
X86854059Y-83469711D01*
X86988817Y-83359117D01*
X87099411Y-83224359D01*
X87181589Y-83070613D01*
X87232195Y-82903790D01*
X87245000Y-82773777D01*
X87249282Y-82730300D01*
X87245000Y-82686823D01*
X87245000Y-82410078D01*
X87379608Y-82299608D01*
X87558932Y-82081101D01*
X87692182Y-81831808D01*
X87774236Y-81561309D01*
X87801943Y-81280000D01*
X87774236Y-80998691D01*
X87692182Y-80728192D01*
X87558932Y-80478899D01*
X87379608Y-80260392D01*
X87161101Y-80081068D01*
X87028142Y-80010000D01*
X87161101Y-79938932D01*
X87379608Y-79759608D01*
X87558932Y-79541101D01*
X87692182Y-79291808D01*
X87774236Y-79021309D01*
X87801943Y-78740000D01*
X87774236Y-78458691D01*
X87692182Y-78188192D01*
X87558932Y-77938899D01*
X87379608Y-77720392D01*
X87161101Y-77541068D01*
X87028142Y-77470000D01*
X87161101Y-77398932D01*
X87379608Y-77219608D01*
X87558932Y-77001101D01*
X87692182Y-76751808D01*
X87774236Y-76481309D01*
X87801943Y-76200000D01*
X87774236Y-75918691D01*
X87692182Y-75648192D01*
X87558932Y-75398899D01*
X87379608Y-75180392D01*
X87161101Y-75001068D01*
X87028142Y-74930000D01*
X87161101Y-74858932D01*
X87379608Y-74679608D01*
X87558932Y-74461101D01*
X87692182Y-74211808D01*
X87774236Y-73941309D01*
X87801943Y-73660000D01*
X87774236Y-73378691D01*
X87692182Y-73108192D01*
X87558932Y-72858899D01*
X87379608Y-72640392D01*
X87161101Y-72461068D01*
X86911808Y-72327818D01*
X86641309Y-72245764D01*
X86430492Y-72225000D01*
X86289508Y-72225000D01*
X86078691Y-72245764D01*
X85808192Y-72327818D01*
X85558899Y-72461068D01*
X85340392Y-72640392D01*
X85161068Y-72858899D01*
X85027818Y-73108192D01*
X84945764Y-73378691D01*
X84918057Y-73660000D01*
X84945764Y-73941309D01*
X85027818Y-74211808D01*
X85161068Y-74461101D01*
X85340392Y-74679608D01*
X85558899Y-74858932D01*
X85691858Y-74930000D01*
X85558899Y-75001068D01*
X85340392Y-75180392D01*
X85250818Y-75289539D01*
X82825461Y-72864183D01*
X82934608Y-72774608D01*
X83113932Y-72556101D01*
X83247182Y-72306808D01*
X83329236Y-72036309D01*
X83356943Y-71755000D01*
X83329236Y-71473691D01*
X83247182Y-71203192D01*
X83113932Y-70953899D01*
X82934608Y-70735392D01*
X82716101Y-70556068D01*
X82466808Y-70422818D01*
X82196309Y-70340764D01*
X81985492Y-70320000D01*
X81844508Y-70320000D01*
X81633691Y-70340764D01*
X81363192Y-70422818D01*
X81113899Y-70556068D01*
X80895392Y-70735392D01*
X80716068Y-70953899D01*
X80582818Y-71203192D01*
X80500764Y-71473691D01*
X80488806Y-71595100D01*
X77631365Y-71595100D01*
X77587899Y-71590819D01*
X77544433Y-71595100D01*
X77544423Y-71595100D01*
X77414410Y-71607905D01*
X77247587Y-71658511D01*
X77093841Y-71740689D01*
X77093839Y-71740690D01*
X77093840Y-71740690D01*
X76992853Y-71823568D01*
X76992851Y-71823570D01*
X76959083Y-71851283D01*
X76931370Y-71885051D01*
X76468422Y-72348000D01*
X73772665Y-72348000D01*
X73729199Y-72343719D01*
X73685733Y-72348000D01*
X73685723Y-72348000D01*
X73555710Y-72360805D01*
X73388887Y-72411411D01*
X73235141Y-72493589D01*
X73235139Y-72493590D01*
X73235140Y-72493590D01*
X73134153Y-72576468D01*
X73134151Y-72576470D01*
X73100383Y-72604183D01*
X73072670Y-72637951D01*
X72238156Y-73472466D01*
X72204383Y-73500183D01*
X72093789Y-73634942D01*
X72011611Y-73788688D01*
X71998020Y-73833491D01*
X71962378Y-73950986D01*
X71961005Y-73955511D01*
X71948200Y-74085524D01*
X71948200Y-74085531D01*
X71943919Y-74129000D01*
X71948200Y-74172469D01*
X71948201Y-84610521D01*
X71943919Y-84654000D01*
X71961005Y-84827490D01*
X72011612Y-84994313D01*
X72093790Y-85148059D01*
X72176668Y-85249046D01*
X72176671Y-85249049D01*
X72204384Y-85282817D01*
X72238151Y-85310529D01*
X73000770Y-86073149D01*
X73028483Y-86106917D01*
X73062251Y-86134630D01*
X73062253Y-86134632D01*
X73133752Y-86193310D01*
X73163241Y-86217511D01*
X73316987Y-86299689D01*
X73483810Y-86350295D01*
X73613823Y-86363100D01*
X73613833Y-86363100D01*
X73657299Y-86367381D01*
X73700765Y-86363100D01*
X75133431Y-86363100D01*
X75176900Y-86367381D01*
X75220369Y-86363100D01*
X75220377Y-86363100D01*
X75350390Y-86350295D01*
X75517213Y-86299689D01*
X75670959Y-86217511D01*
X75805717Y-86106917D01*
X75833434Y-86073144D01*
X76448506Y-85458072D01*
X77435000Y-85458072D01*
X77608254Y-85441008D01*
X77774850Y-85390472D01*
X77928386Y-85308405D01*
X78062962Y-85197962D01*
X78173405Y-85063386D01*
X78255472Y-84909850D01*
X78306008Y-84743254D01*
X78323072Y-84570000D01*
X78323072Y-83070000D01*
X78306008Y-82896746D01*
X78276661Y-82800000D01*
X80780479Y-82800000D01*
X80800363Y-82829759D01*
X81000241Y-83029637D01*
X81235273Y-83186680D01*
X81496426Y-83294853D01*
X81773665Y-83350000D01*
X82056335Y-83350000D01*
X82333574Y-83294853D01*
X82594727Y-83186680D01*
X82829759Y-83029637D01*
X83029637Y-82829759D01*
X83186680Y-82594727D01*
X83294853Y-82333574D01*
X83350000Y-82056335D01*
X83350000Y-81773665D01*
X83343017Y-81738561D01*
X85332089Y-79749490D01*
X85340392Y-79759608D01*
X85558899Y-79938932D01*
X85691858Y-80010000D01*
X85558899Y-80081068D01*
X85340392Y-80260392D01*
X85161068Y-80478899D01*
X85027818Y-80728192D01*
X84945764Y-80998691D01*
X84918057Y-81280000D01*
X84945764Y-81561309D01*
X85027818Y-81831808D01*
X85161068Y-82081101D01*
X85267424Y-82210697D01*
X83224951Y-84253171D01*
X83191184Y-84280883D01*
X83163471Y-84314651D01*
X83163468Y-84314654D01*
X83080590Y-84415641D01*
X82998412Y-84569387D01*
X82947805Y-84736210D01*
X82930719Y-84909700D01*
X82935001Y-84953179D01*
X82935001Y-85229921D01*
X82800392Y-85340392D01*
X82621068Y-85558899D01*
X82487818Y-85808192D01*
X82405764Y-86078691D01*
X82378057Y-86360000D01*
X82405764Y-86641309D01*
X82487818Y-86911808D01*
X82621068Y-87161101D01*
X82800392Y-87379608D01*
X83018899Y-87558932D01*
X83268192Y-87692182D01*
X83538691Y-87774236D01*
X83749508Y-87795000D01*
X83761222Y-87795000D01*
X82381252Y-89174970D01*
X82347484Y-89202683D01*
X82319771Y-89236451D01*
X82319768Y-89236454D01*
X82236890Y-89337441D01*
X82154712Y-89491187D01*
X82104105Y-89658010D01*
X82087019Y-89831500D01*
X82091301Y-89874979D01*
X82091300Y-92018831D01*
X82087019Y-92062300D01*
X82091300Y-92105769D01*
X82091300Y-92105776D01*
X82104105Y-92235789D01*
X82154711Y-92402612D01*
X82236889Y-92556358D01*
X82347483Y-92691117D01*
X82381256Y-92718834D01*
X82939121Y-93276700D01*
X78833579Y-93276700D01*
X76401832Y-90844954D01*
X76374117Y-90811183D01*
X76239359Y-90700589D01*
X76085613Y-90618411D01*
X75918790Y-90567805D01*
X75788777Y-90555000D01*
X75788769Y-90555000D01*
X75745300Y-90550719D01*
X75701831Y-90555000D01*
X75425078Y-90555000D01*
X75314608Y-90420392D01*
X75096101Y-90241068D01*
X74846808Y-90107818D01*
X74576309Y-90025764D01*
X74365492Y-90005000D01*
X74224508Y-90005000D01*
X74013691Y-90025764D01*
X73743192Y-90107818D01*
X73493899Y-90241068D01*
X73275392Y-90420392D01*
X73096068Y-90638899D01*
X72962818Y-90888192D01*
X72880764Y-91158691D01*
X72853057Y-91440000D01*
X72880764Y-91721309D01*
X72962818Y-91991808D01*
X73096068Y-92241101D01*
X73275392Y-92459608D01*
X73493899Y-92638932D01*
X73743192Y-92772182D01*
X74013691Y-92854236D01*
X74224508Y-92875000D01*
X74365492Y-92875000D01*
X74576309Y-92854236D01*
X74846808Y-92772182D01*
X75096101Y-92638932D01*
X75314608Y-92459608D01*
X75404183Y-92350461D01*
X77810470Y-94756749D01*
X77838183Y-94790517D01*
X77871951Y-94818230D01*
X77871953Y-94818232D01*
X77888030Y-94831426D01*
X77972941Y-94901111D01*
X78126687Y-94983289D01*
X78293510Y-95033895D01*
X78380382Y-95042451D01*
X78311287Y-95063411D01*
X78157541Y-95145589D01*
X78056553Y-95228468D01*
X78056551Y-95228470D01*
X78022783Y-95256183D01*
X77995070Y-95289951D01*
X73441252Y-99843770D01*
X73407484Y-99871483D01*
X73379771Y-99905251D01*
X73379768Y-99905254D01*
X73296890Y-100006241D01*
X73214712Y-100159987D01*
X73164105Y-100326810D01*
X73147019Y-100500300D01*
X73151301Y-100543779D01*
X73151300Y-102653331D01*
X73147019Y-102696800D01*
X73151300Y-102740269D01*
X73151300Y-102740276D01*
X73164105Y-102870289D01*
X73214711Y-103037112D01*
X73296889Y-103190858D01*
X73407483Y-103325617D01*
X73441256Y-103353334D01*
X73963066Y-103875144D01*
X73990783Y-103908917D01*
X74125541Y-104019511D01*
X74279287Y-104101689D01*
X74446110Y-104152295D01*
X74576123Y-104165100D01*
X74576131Y-104165100D01*
X74619600Y-104169381D01*
X74663069Y-104165100D01*
X86581431Y-104165100D01*
X86624900Y-104169381D01*
X86668369Y-104165100D01*
X86668377Y-104165100D01*
X86798390Y-104152295D01*
X86965213Y-104101689D01*
X87118959Y-104019511D01*
X87253717Y-103908917D01*
X87281434Y-103875144D01*
X87918506Y-103238072D01*
X88905000Y-103238072D01*
X89078254Y-103221008D01*
X89244850Y-103170472D01*
X89398386Y-103088405D01*
X89532962Y-102977962D01*
X89643405Y-102843386D01*
X89697777Y-102741663D01*
X89749866Y-102805134D01*
X89975987Y-102990706D01*
X90233967Y-103128599D01*
X90266916Y-103138594D01*
X93148321Y-106020000D01*
X79342581Y-106020000D01*
X79312818Y-106022931D01*
X79293016Y-106022793D01*
X79283845Y-106023693D01*
X78667588Y-106088465D01*
X78609037Y-106100484D01*
X78550234Y-106111701D01*
X78541412Y-106114365D01*
X77949472Y-106297600D01*
X77894359Y-106320768D01*
X77838861Y-106343190D01*
X77830725Y-106347517D01*
X77285650Y-106642238D01*
X77236028Y-106675709D01*
X77186005Y-106708442D01*
X77178866Y-106714265D01*
X77178862Y-106714268D01*
X77178858Y-106714272D01*
X76701414Y-107109247D01*
X76659292Y-107151664D01*
X76616523Y-107193546D01*
X76610650Y-107200647D01*
X76219011Y-107680843D01*
X76185924Y-107730644D01*
X76152112Y-107780024D01*
X76147730Y-107788130D01*
X75856821Y-108335251D01*
X75834030Y-108390545D01*
X75810460Y-108445538D01*
X75807735Y-108454341D01*
X75628636Y-109047545D01*
X75617019Y-109106216D01*
X75604580Y-109164737D01*
X75603617Y-109173902D01*
X75543150Y-109790595D01*
X75543150Y-109790596D01*
X75488998Y-110342883D01*
X75347307Y-110812186D01*
X75117161Y-111245028D01*
X74807323Y-111624927D01*
X74429600Y-111937406D01*
X73998373Y-112170569D01*
X73530073Y-112315532D01*
X73042539Y-112366774D01*
X72554325Y-112322343D01*
X72084049Y-112183933D01*
X71649615Y-111956816D01*
X71267562Y-111649639D01*
X70952451Y-111274103D01*
X70716284Y-110844519D01*
X70568054Y-110377240D01*
X70510052Y-109860136D01*
X70510000Y-109852695D01*
X70510000Y-109620098D01*
X70640000Y-109620098D01*
X70640000Y-110089902D01*
X70731654Y-110550679D01*
X70911440Y-110984721D01*
X71172450Y-111375349D01*
X71504651Y-111707550D01*
X71895279Y-111968560D01*
X72329321Y-112148346D01*
X72790098Y-112240000D01*
X73259902Y-112240000D01*
X73720679Y-112148346D01*
X74154721Y-111968560D01*
X74545349Y-111707550D01*
X74877550Y-111375349D01*
X75138560Y-110984721D01*
X75318346Y-110550679D01*
X75410000Y-110089902D01*
X75410000Y-109620098D01*
X75318346Y-109159321D01*
X75138560Y-108725279D01*
X74877550Y-108334651D01*
X74545349Y-108002450D01*
X74154721Y-107741440D01*
X73720679Y-107561654D01*
X73259902Y-107470000D01*
X72790098Y-107470000D01*
X72329321Y-107561654D01*
X71895279Y-107741440D01*
X71504651Y-108002450D01*
X71172450Y-108334651D01*
X70911440Y-108725279D01*
X70731654Y-109159321D01*
X70640000Y-109620098D01*
X70510000Y-109620098D01*
X70510000Y-65437278D01*
X70536197Y-65170098D01*
X70640000Y-65170098D01*
X70640000Y-65639902D01*
X70731654Y-66100679D01*
X70911440Y-66534721D01*
X71172450Y-66925349D01*
X71504651Y-67257550D01*
X71895279Y-67518560D01*
X72329321Y-67698346D01*
X72790098Y-67790000D01*
X73259902Y-67790000D01*
X73720679Y-67698346D01*
X74154721Y-67518560D01*
X74545349Y-67257550D01*
X74877550Y-66925349D01*
X75138560Y-66534721D01*
X75318346Y-66100679D01*
X75410000Y-65639902D01*
X75410000Y-65170098D01*
X75318346Y-64709321D01*
X75138560Y-64275279D01*
X74877550Y-63884651D01*
X74545349Y-63552450D01*
X74154721Y-63291440D01*
X73720679Y-63111654D01*
X73259902Y-63020000D01*
X72790098Y-63020000D01*
X72329321Y-63111654D01*
X71895279Y-63291440D01*
X71504651Y-63552450D01*
X71172450Y-63884651D01*
X70911440Y-64275279D01*
X70731654Y-64709321D01*
X70640000Y-65170098D01*
X70536197Y-65170098D01*
X70561002Y-64917116D01*
X70702694Y-64447812D01*
X70932837Y-64014975D01*
X71242678Y-63635073D01*
X71620397Y-63322597D01*
X72051627Y-63089431D01*
X72519928Y-62944468D01*
X73007461Y-62893226D01*
X73495675Y-62937657D01*
G36*
X139535675Y-62937657D02*
G01*
X140005951Y-63076067D01*
X140440390Y-63303186D01*
X140822437Y-63610361D01*
X141137549Y-63985896D01*
X141373716Y-64415482D01*
X141521945Y-64882759D01*
X141579948Y-65399864D01*
X141580001Y-65407448D01*
X141580000Y-109822722D01*
X141528998Y-110342883D01*
X141387307Y-110812186D01*
X141157161Y-111245028D01*
X140847323Y-111624927D01*
X140469600Y-111937406D01*
X140038373Y-112170569D01*
X139570073Y-112315532D01*
X139082539Y-112366774D01*
X138594325Y-112322343D01*
X138124049Y-112183933D01*
X137689615Y-111956816D01*
X137307562Y-111649639D01*
X136992451Y-111274103D01*
X136756284Y-110844519D01*
X136608054Y-110377240D01*
X136550052Y-109860136D01*
X136549992Y-109851540D01*
X136549919Y-109830541D01*
X136547006Y-109801854D01*
X136547207Y-109773016D01*
X136546307Y-109763845D01*
X136531199Y-109620098D01*
X136680000Y-109620098D01*
X136680000Y-110089902D01*
X136771654Y-110550679D01*
X136951440Y-110984721D01*
X137212450Y-111375349D01*
X137544651Y-111707550D01*
X137935279Y-111968560D01*
X138369321Y-112148346D01*
X138830098Y-112240000D01*
X139299902Y-112240000D01*
X139760679Y-112148346D01*
X140194721Y-111968560D01*
X140585349Y-111707550D01*
X140917550Y-111375349D01*
X141178560Y-110984721D01*
X141358346Y-110550679D01*
X141450000Y-110089902D01*
X141450000Y-109620098D01*
X141358346Y-109159321D01*
X141178560Y-108725279D01*
X140917550Y-108334651D01*
X140585349Y-108002450D01*
X140194721Y-107741440D01*
X139760679Y-107561654D01*
X139299902Y-107470000D01*
X138830098Y-107470000D01*
X138369321Y-107561654D01*
X137935279Y-107741440D01*
X137544651Y-108002450D01*
X137212450Y-108334651D01*
X136951440Y-108725279D01*
X136771654Y-109159321D01*
X136680000Y-109620098D01*
X136531199Y-109620098D01*
X136481535Y-109147588D01*
X136469516Y-109089037D01*
X136458299Y-109030234D01*
X136455635Y-109021412D01*
X136272400Y-108429472D01*
X136249232Y-108374359D01*
X136226810Y-108318861D01*
X136222483Y-108310725D01*
X135927762Y-107765650D01*
X135894291Y-107716028D01*
X135861558Y-107666005D01*
X135855733Y-107658864D01*
X135855732Y-107658862D01*
X135855728Y-107658858D01*
X135460753Y-107181414D01*
X135418336Y-107139292D01*
X135376454Y-107096523D01*
X135369353Y-107090650D01*
X134889157Y-106699011D01*
X134839356Y-106665924D01*
X134789976Y-106632112D01*
X134781870Y-106627730D01*
X134234749Y-106336821D01*
X134179455Y-106314030D01*
X134124462Y-106290460D01*
X134115659Y-106287735D01*
X133522455Y-106108636D01*
X133463784Y-106097019D01*
X133405263Y-106084580D01*
X133396098Y-106083617D01*
X132779404Y-106023150D01*
X132779402Y-106023150D01*
X132747419Y-106020000D01*
X131421443Y-106020000D01*
X131506775Y-105813989D01*
X131560000Y-105546411D01*
X131560000Y-105276578D01*
X134868507Y-101968072D01*
X135855000Y-101968072D01*
X136028254Y-101951008D01*
X136194850Y-101900472D01*
X136348386Y-101818405D01*
X136482962Y-101707962D01*
X136593405Y-101573386D01*
X136647777Y-101471663D01*
X136699866Y-101535134D01*
X136925987Y-101720706D01*
X137183967Y-101858599D01*
X137463890Y-101943513D01*
X137755000Y-101972185D01*
X138046111Y-101943513D01*
X138326034Y-101858599D01*
X138584014Y-101720706D01*
X138810134Y-101535134D01*
X138995706Y-101309014D01*
X139133599Y-101051033D01*
X139218513Y-100771110D01*
X139240000Y-100552949D01*
X139240000Y-100107050D01*
X139218513Y-99888889D01*
X139133599Y-99608966D01*
X138995706Y-99350986D01*
X138810134Y-99124866D01*
X138640000Y-98985241D01*
X138640000Y-98723169D01*
X138644281Y-98679700D01*
X138640000Y-98636231D01*
X138640000Y-98636223D01*
X138627195Y-98506210D01*
X138576589Y-98339387D01*
X138494411Y-98185641D01*
X138383817Y-98050883D01*
X138350044Y-98023166D01*
X138150400Y-97823522D01*
X138150400Y-93805276D01*
X138154682Y-93761800D01*
X138150400Y-93718323D01*
X138150400Y-93311478D01*
X138350044Y-93111834D01*
X138383817Y-93084117D01*
X138494411Y-92949359D01*
X138576589Y-92795613D01*
X138614680Y-92670047D01*
X138627195Y-92628791D01*
X138631705Y-92583000D01*
X138640000Y-92498777D01*
X138640000Y-92498769D01*
X138644281Y-92455300D01*
X138640000Y-92411831D01*
X138640000Y-92149759D01*
X138810134Y-92010134D01*
X138995706Y-91784014D01*
X139133599Y-91526033D01*
X139218513Y-91246110D01*
X139240000Y-91027949D01*
X139240000Y-90582050D01*
X139218513Y-90363889D01*
X139133599Y-90083966D01*
X138995706Y-89825986D01*
X138810134Y-89599866D01*
X138584013Y-89414294D01*
X138326033Y-89276401D01*
X138102873Y-89208706D01*
X138150749Y-89160830D01*
X138184517Y-89133117D01*
X138295111Y-88998359D01*
X138377289Y-88844613D01*
X138427895Y-88677790D01*
X138440700Y-88547777D01*
X138440700Y-88547767D01*
X138444981Y-88504301D01*
X138440700Y-88460835D01*
X138440700Y-71389869D01*
X138444981Y-71346400D01*
X138440700Y-71302931D01*
X138440700Y-71302923D01*
X138427895Y-71172910D01*
X138388734Y-71043815D01*
X138377289Y-71006086D01*
X138295111Y-70852341D01*
X138212232Y-70751353D01*
X138212230Y-70751351D01*
X138184517Y-70717583D01*
X138150750Y-70689871D01*
X136557434Y-69096556D01*
X136529717Y-69062783D01*
X136394959Y-68952189D01*
X136241213Y-68870011D01*
X136074390Y-68819405D01*
X135944377Y-68806600D01*
X135944369Y-68806600D01*
X135900900Y-68802319D01*
X135857431Y-68806600D01*
X134455103Y-68806600D01*
X134804350Y-68617762D01*
X134853934Y-68584317D01*
X134903995Y-68551558D01*
X134911136Y-68545733D01*
X135388586Y-68150753D01*
X135430724Y-68108320D01*
X135473477Y-68066454D01*
X135479351Y-68059353D01*
X135870989Y-67579157D01*
X135904066Y-67529371D01*
X135937888Y-67479976D01*
X135942270Y-67471869D01*
X136233179Y-66924749D01*
X136255965Y-66869467D01*
X136279540Y-66814462D01*
X136282265Y-66805659D01*
X136461364Y-66212455D01*
X136472981Y-66153784D01*
X136485420Y-66095263D01*
X136486383Y-66086098D01*
X136546850Y-65469405D01*
X136546850Y-65469404D01*
X136576197Y-65170098D01*
X136680000Y-65170098D01*
X136680000Y-65639902D01*
X136771654Y-66100679D01*
X136951440Y-66534721D01*
X137212450Y-66925349D01*
X137544651Y-67257550D01*
X137935279Y-67518560D01*
X138369321Y-67698346D01*
X138830098Y-67790000D01*
X139299902Y-67790000D01*
X139760679Y-67698346D01*
X140194721Y-67518560D01*
X140585349Y-67257550D01*
X140917550Y-66925349D01*
X141178560Y-66534721D01*
X141358346Y-66100679D01*
X141450000Y-65639902D01*
X141450000Y-65170098D01*
X141358346Y-64709321D01*
X141178560Y-64275279D01*
X140917550Y-63884651D01*
X140585349Y-63552450D01*
X140194721Y-63291440D01*
X139760679Y-63111654D01*
X139299902Y-63020000D01*
X138830098Y-63020000D01*
X138369321Y-63111654D01*
X137935279Y-63291440D01*
X137544651Y-63552450D01*
X137212450Y-63884651D01*
X136951440Y-64275279D01*
X136771654Y-64709321D01*
X136680000Y-65170098D01*
X136576197Y-65170098D01*
X136601002Y-64917116D01*
X136742694Y-64447812D01*
X136972837Y-64014975D01*
X137282678Y-63635073D01*
X137660397Y-63322597D01*
X138091627Y-63089431D01*
X138559928Y-62944468D01*
X139047461Y-62893226D01*
X139535675Y-62937657D01*
X139535675Y-62937657D01*
G37*
X139535675Y-62937657D02*
X140005951Y-63076067D01*
X140440390Y-63303186D01*
X140822437Y-63610361D01*
X141137549Y-63985896D01*
X141373716Y-64415482D01*
X141521945Y-64882759D01*
X141579948Y-65399864D01*
X141580001Y-65407448D01*
X141580000Y-109822722D01*
X141528998Y-110342883D01*
X141387307Y-110812186D01*
X141157161Y-111245028D01*
X140847323Y-111624927D01*
X140469600Y-111937406D01*
X140038373Y-112170569D01*
X139570073Y-112315532D01*
X139082539Y-112366774D01*
X138594325Y-112322343D01*
X138124049Y-112183933D01*
X137689615Y-111956816D01*
X137307562Y-111649639D01*
X136992451Y-111274103D01*
X136756284Y-110844519D01*
X136608054Y-110377240D01*
X136550052Y-109860136D01*
X136549992Y-109851540D01*
X136549919Y-109830541D01*
X136547006Y-109801854D01*
X136547207Y-109773016D01*
X136546307Y-109763845D01*
X136531199Y-109620098D01*
X136680000Y-109620098D01*
X136680000Y-110089902D01*
X136771654Y-110550679D01*
X136951440Y-110984721D01*
X137212450Y-111375349D01*
X137544651Y-111707550D01*
X137935279Y-111968560D01*
X138369321Y-112148346D01*
X138830098Y-112240000D01*
X139299902Y-112240000D01*
X139760679Y-112148346D01*
X140194721Y-111968560D01*
X140585349Y-111707550D01*
X140917550Y-111375349D01*
X141178560Y-110984721D01*
X141358346Y-110550679D01*
X141450000Y-110089902D01*
X141450000Y-109620098D01*
X141358346Y-109159321D01*
X141178560Y-108725279D01*
X140917550Y-108334651D01*
X140585349Y-108002450D01*
X140194721Y-107741440D01*
X139760679Y-107561654D01*
X139299902Y-107470000D01*
X138830098Y-107470000D01*
X138369321Y-107561654D01*
X137935279Y-107741440D01*
X137544651Y-108002450D01*
X137212450Y-108334651D01*
X136951440Y-108725279D01*
X136771654Y-109159321D01*
X136680000Y-109620098D01*
X136531199Y-109620098D01*
X136481535Y-109147588D01*
X136469516Y-109089037D01*
X136458299Y-109030234D01*
X136455635Y-109021412D01*
X136272400Y-108429472D01*
X136249232Y-108374359D01*
X136226810Y-108318861D01*
X136222483Y-108310725D01*
X135927762Y-107765650D01*
X135894291Y-107716028D01*
X135861558Y-107666005D01*
X135855733Y-107658864D01*
X135855732Y-107658862D01*
X135855728Y-107658858D01*
X135460753Y-107181414D01*
X135418336Y-107139292D01*
X135376454Y-107096523D01*
X135369353Y-107090650D01*
X134889157Y-106699011D01*
X134839356Y-106665924D01*
X134789976Y-106632112D01*
X134781870Y-106627730D01*
X134234749Y-106336821D01*
X134179455Y-106314030D01*
X134124462Y-106290460D01*
X134115659Y-106287735D01*
X133522455Y-106108636D01*
X133463784Y-106097019D01*
X133405263Y-106084580D01*
X133396098Y-106083617D01*
X132779404Y-106023150D01*
X132779402Y-106023150D01*
X132747419Y-106020000D01*
X131421443Y-106020000D01*
X131506775Y-105813989D01*
X131560000Y-105546411D01*
X131560000Y-105276578D01*
X134868507Y-101968072D01*
X135855000Y-101968072D01*
X136028254Y-101951008D01*
X136194850Y-101900472D01*
X136348386Y-101818405D01*
X136482962Y-101707962D01*
X136593405Y-101573386D01*
X136647777Y-101471663D01*
X136699866Y-101535134D01*
X136925987Y-101720706D01*
X137183967Y-101858599D01*
X137463890Y-101943513D01*
X137755000Y-101972185D01*
X138046111Y-101943513D01*
X138326034Y-101858599D01*
X138584014Y-101720706D01*
X138810134Y-101535134D01*
X138995706Y-101309014D01*
X139133599Y-101051033D01*
X139218513Y-100771110D01*
X139240000Y-100552949D01*
X139240000Y-100107050D01*
X139218513Y-99888889D01*
X139133599Y-99608966D01*
X138995706Y-99350986D01*
X138810134Y-99124866D01*
X138640000Y-98985241D01*
X138640000Y-98723169D01*
X138644281Y-98679700D01*
X138640000Y-98636231D01*
X138640000Y-98636223D01*
X138627195Y-98506210D01*
X138576589Y-98339387D01*
X138494411Y-98185641D01*
X138383817Y-98050883D01*
X138350044Y-98023166D01*
X138150400Y-97823522D01*
X138150400Y-93805276D01*
X138154682Y-93761800D01*
X138150400Y-93718323D01*
X138150400Y-93311478D01*
X138350044Y-93111834D01*
X138383817Y-93084117D01*
X138494411Y-92949359D01*
X138576589Y-92795613D01*
X138614680Y-92670047D01*
X138627195Y-92628791D01*
X138631705Y-92583000D01*
X138640000Y-92498777D01*
X138640000Y-92498769D01*
X138644281Y-92455300D01*
X138640000Y-92411831D01*
X138640000Y-92149759D01*
X138810134Y-92010134D01*
X138995706Y-91784014D01*
X139133599Y-91526033D01*
X139218513Y-91246110D01*
X139240000Y-91027949D01*
X139240000Y-90582050D01*
X139218513Y-90363889D01*
X139133599Y-90083966D01*
X138995706Y-89825986D01*
X138810134Y-89599866D01*
X138584013Y-89414294D01*
X138326033Y-89276401D01*
X138102873Y-89208706D01*
X138150749Y-89160830D01*
X138184517Y-89133117D01*
X138295111Y-88998359D01*
X138377289Y-88844613D01*
X138427895Y-88677790D01*
X138440700Y-88547777D01*
X138440700Y-88547767D01*
X138444981Y-88504301D01*
X138440700Y-88460835D01*
X138440700Y-71389869D01*
X138444981Y-71346400D01*
X138440700Y-71302931D01*
X138440700Y-71302923D01*
X138427895Y-71172910D01*
X138388734Y-71043815D01*
X138377289Y-71006086D01*
X138295111Y-70852341D01*
X138212232Y-70751353D01*
X138212230Y-70751351D01*
X138184517Y-70717583D01*
X138150750Y-70689871D01*
X136557434Y-69096556D01*
X136529717Y-69062783D01*
X136394959Y-68952189D01*
X136241213Y-68870011D01*
X136074390Y-68819405D01*
X135944377Y-68806600D01*
X135944369Y-68806600D01*
X135900900Y-68802319D01*
X135857431Y-68806600D01*
X134455103Y-68806600D01*
X134804350Y-68617762D01*
X134853934Y-68584317D01*
X134903995Y-68551558D01*
X134911136Y-68545733D01*
X135388586Y-68150753D01*
X135430724Y-68108320D01*
X135473477Y-68066454D01*
X135479351Y-68059353D01*
X135870989Y-67579157D01*
X135904066Y-67529371D01*
X135937888Y-67479976D01*
X135942270Y-67471869D01*
X136233179Y-66924749D01*
X136255965Y-66869467D01*
X136279540Y-66814462D01*
X136282265Y-66805659D01*
X136461364Y-66212455D01*
X136472981Y-66153784D01*
X136485420Y-66095263D01*
X136486383Y-66086098D01*
X136546850Y-65469405D01*
X136546850Y-65469404D01*
X136576197Y-65170098D01*
X136680000Y-65170098D01*
X136680000Y-65639902D01*
X136771654Y-66100679D01*
X136951440Y-66534721D01*
X137212450Y-66925349D01*
X137544651Y-67257550D01*
X137935279Y-67518560D01*
X138369321Y-67698346D01*
X138830098Y-67790000D01*
X139299902Y-67790000D01*
X139760679Y-67698346D01*
X140194721Y-67518560D01*
X140585349Y-67257550D01*
X140917550Y-66925349D01*
X141178560Y-66534721D01*
X141358346Y-66100679D01*
X141450000Y-65639902D01*
X141450000Y-65170098D01*
X141358346Y-64709321D01*
X141178560Y-64275279D01*
X140917550Y-63884651D01*
X140585349Y-63552450D01*
X140194721Y-63291440D01*
X139760679Y-63111654D01*
X139299902Y-63020000D01*
X138830098Y-63020000D01*
X138369321Y-63111654D01*
X137935279Y-63291440D01*
X137544651Y-63552450D01*
X137212450Y-63884651D01*
X136951440Y-64275279D01*
X136771654Y-64709321D01*
X136680000Y-65170098D01*
X136576197Y-65170098D01*
X136601002Y-64917116D01*
X136742694Y-64447812D01*
X136972837Y-64014975D01*
X137282678Y-63635073D01*
X137660397Y-63322597D01*
X138091627Y-63089431D01*
X138559928Y-62944468D01*
X139047461Y-62893226D01*
X139535675Y-62937657D01*
G36*
X131878168Y-100925047D02*
G01*
X131905883Y-100958817D01*
X131939651Y-100986530D01*
X131939653Y-100986532D01*
X132011152Y-101045210D01*
X132040641Y-101069411D01*
X132194387Y-101151589D01*
X132310603Y-101186843D01*
X132361209Y-101202195D01*
X132376006Y-101203652D01*
X132491223Y-101215000D01*
X132491231Y-101215000D01*
X132534700Y-101219281D01*
X132578169Y-101215000D01*
X133118421Y-101215000D01*
X130308422Y-104025000D01*
X130038589Y-104025000D01*
X129771011Y-104078225D01*
X129518957Y-104182629D01*
X129292114Y-104334201D01*
X129099201Y-104527114D01*
X128947629Y-104753957D01*
X128843225Y-105006011D01*
X128790000Y-105273589D01*
X128790000Y-105546411D01*
X128843225Y-105813989D01*
X128928557Y-106020000D01*
X127006578Y-106020000D01*
X128230049Y-104796530D01*
X128263817Y-104768817D01*
X128374411Y-104634059D01*
X128456589Y-104480313D01*
X128507195Y-104313490D01*
X128520000Y-104183477D01*
X128520000Y-104183469D01*
X128524281Y-104140000D01*
X128520000Y-104096531D01*
X128520000Y-103162110D01*
X128574850Y-103145472D01*
X128728386Y-103063405D01*
X128862962Y-102952962D01*
X128973405Y-102818386D01*
X129055472Y-102664850D01*
X129106008Y-102498254D01*
X129123072Y-102325000D01*
X129123072Y-100875000D01*
X129106008Y-100701746D01*
X129055472Y-100535150D01*
X128973405Y-100381614D01*
X128862962Y-100247038D01*
X128728386Y-100136595D01*
X128574850Y-100054528D01*
X128408254Y-100003992D01*
X128337600Y-99997033D01*
X128337600Y-97384478D01*
X131878168Y-100925047D01*
X131878168Y-100925047D01*
G37*
X131878168Y-100925047D02*
X131905883Y-100958817D01*
X131939651Y-100986530D01*
X131939653Y-100986532D01*
X132011152Y-101045210D01*
X132040641Y-101069411D01*
X132194387Y-101151589D01*
X132310603Y-101186843D01*
X132361209Y-101202195D01*
X132376006Y-101203652D01*
X132491223Y-101215000D01*
X132491231Y-101215000D01*
X132534700Y-101219281D01*
X132578169Y-101215000D01*
X133118421Y-101215000D01*
X130308422Y-104025000D01*
X130038589Y-104025000D01*
X129771011Y-104078225D01*
X129518957Y-104182629D01*
X129292114Y-104334201D01*
X129099201Y-104527114D01*
X128947629Y-104753957D01*
X128843225Y-105006011D01*
X128790000Y-105273589D01*
X128790000Y-105546411D01*
X128843225Y-105813989D01*
X128928557Y-106020000D01*
X127006578Y-106020000D01*
X128230049Y-104796530D01*
X128263817Y-104768817D01*
X128374411Y-104634059D01*
X128456589Y-104480313D01*
X128507195Y-104313490D01*
X128520000Y-104183477D01*
X128520000Y-104183469D01*
X128524281Y-104140000D01*
X128520000Y-104096531D01*
X128520000Y-103162110D01*
X128574850Y-103145472D01*
X128728386Y-103063405D01*
X128862962Y-102952962D01*
X128973405Y-102818386D01*
X129055472Y-102664850D01*
X129106008Y-102498254D01*
X129123072Y-102325000D01*
X129123072Y-100875000D01*
X129106008Y-100701746D01*
X129055472Y-100535150D01*
X128973405Y-100381614D01*
X128862962Y-100247038D01*
X128728386Y-100136595D01*
X128574850Y-100054528D01*
X128408254Y-100003992D01*
X128337600Y-99997033D01*
X128337600Y-97384478D01*
X131878168Y-100925047D01*
G36*
X115955000Y-92441579D02*
G01*
X115955001Y-102191521D01*
X115950719Y-102235000D01*
X115967805Y-102408490D01*
X116018412Y-102575313D01*
X116100590Y-102729059D01*
X116183468Y-102830046D01*
X116183471Y-102830049D01*
X116211184Y-102863817D01*
X116244951Y-102891529D01*
X118064421Y-104711000D01*
X114940586Y-104711000D01*
X115008314Y-104547490D01*
X115062000Y-104277592D01*
X115062000Y-104002408D01*
X115008314Y-103732510D01*
X114903005Y-103478273D01*
X114750120Y-103249465D01*
X114555535Y-103054880D01*
X114326727Y-102901995D01*
X114249485Y-102870000D01*
X114326727Y-102838005D01*
X114555535Y-102685120D01*
X114750120Y-102490535D01*
X114903005Y-102261727D01*
X115008314Y-102007490D01*
X115062000Y-101737592D01*
X115062000Y-101462408D01*
X115008314Y-101192510D01*
X114903005Y-100938273D01*
X114750120Y-100709465D01*
X114555535Y-100514880D01*
X114326727Y-100361995D01*
X114249485Y-100330000D01*
X114326727Y-100298005D01*
X114555535Y-100145120D01*
X114750120Y-99950535D01*
X114903005Y-99721727D01*
X115008314Y-99467490D01*
X115062000Y-99197592D01*
X115062000Y-98922408D01*
X115008314Y-98652510D01*
X114903005Y-98398273D01*
X114750120Y-98169465D01*
X114555535Y-97974880D01*
X114326727Y-97821995D01*
X114249485Y-97790000D01*
X114326727Y-97758005D01*
X114555535Y-97605120D01*
X114750120Y-97410535D01*
X114903005Y-97181727D01*
X115008314Y-96927490D01*
X115062000Y-96657592D01*
X115062000Y-96382408D01*
X115008314Y-96112510D01*
X114903005Y-95858273D01*
X114750120Y-95629465D01*
X114555535Y-95434880D01*
X114326727Y-95281995D01*
X114249485Y-95250000D01*
X114326727Y-95218005D01*
X114555535Y-95065120D01*
X114750120Y-94870535D01*
X114903005Y-94641727D01*
X115008314Y-94387490D01*
X115062000Y-94117592D01*
X115062000Y-93842408D01*
X115008314Y-93572510D01*
X114903005Y-93318273D01*
X114750120Y-93089465D01*
X114555535Y-92894880D01*
X114326727Y-92741995D01*
X114249485Y-92710000D01*
X114326727Y-92678005D01*
X114555535Y-92525120D01*
X114750120Y-92330535D01*
X114903005Y-92101727D01*
X115008314Y-91847490D01*
X115062000Y-91577592D01*
X115062000Y-91548579D01*
X115955000Y-92441579D01*
X115955000Y-92441579D01*
G37*
X115955000Y-92441579D02*
X115955001Y-102191521D01*
X115950719Y-102235000D01*
X115967805Y-102408490D01*
X116018412Y-102575313D01*
X116100590Y-102729059D01*
X116183468Y-102830046D01*
X116183471Y-102830049D01*
X116211184Y-102863817D01*
X116244951Y-102891529D01*
X118064421Y-104711000D01*
X114940586Y-104711000D01*
X115008314Y-104547490D01*
X115062000Y-104277592D01*
X115062000Y-104002408D01*
X115008314Y-103732510D01*
X114903005Y-103478273D01*
X114750120Y-103249465D01*
X114555535Y-103054880D01*
X114326727Y-102901995D01*
X114249485Y-102870000D01*
X114326727Y-102838005D01*
X114555535Y-102685120D01*
X114750120Y-102490535D01*
X114903005Y-102261727D01*
X115008314Y-102007490D01*
X115062000Y-101737592D01*
X115062000Y-101462408D01*
X115008314Y-101192510D01*
X114903005Y-100938273D01*
X114750120Y-100709465D01*
X114555535Y-100514880D01*
X114326727Y-100361995D01*
X114249485Y-100330000D01*
X114326727Y-100298005D01*
X114555535Y-100145120D01*
X114750120Y-99950535D01*
X114903005Y-99721727D01*
X115008314Y-99467490D01*
X115062000Y-99197592D01*
X115062000Y-98922408D01*
X115008314Y-98652510D01*
X114903005Y-98398273D01*
X114750120Y-98169465D01*
X114555535Y-97974880D01*
X114326727Y-97821995D01*
X114249485Y-97790000D01*
X114326727Y-97758005D01*
X114555535Y-97605120D01*
X114750120Y-97410535D01*
X114903005Y-97181727D01*
X115008314Y-96927490D01*
X115062000Y-96657592D01*
X115062000Y-96382408D01*
X115008314Y-96112510D01*
X114903005Y-95858273D01*
X114750120Y-95629465D01*
X114555535Y-95434880D01*
X114326727Y-95281995D01*
X114249485Y-95250000D01*
X114326727Y-95218005D01*
X114555535Y-95065120D01*
X114750120Y-94870535D01*
X114903005Y-94641727D01*
X115008314Y-94387490D01*
X115062000Y-94117592D01*
X115062000Y-93842408D01*
X115008314Y-93572510D01*
X114903005Y-93318273D01*
X114750120Y-93089465D01*
X114555535Y-92894880D01*
X114326727Y-92741995D01*
X114249485Y-92710000D01*
X114326727Y-92678005D01*
X114555535Y-92525120D01*
X114750120Y-92330535D01*
X114903005Y-92101727D01*
X115008314Y-91847490D01*
X115062000Y-91577592D01*
X115062000Y-91548579D01*
X115955000Y-92441579D01*
G36*
X126296595Y-102818386D02*
G01*
X126407038Y-102952962D01*
X126541614Y-103063405D01*
X126695150Y-103145472D01*
X126750001Y-103162111D01*
X126750001Y-103773420D01*
X125812422Y-104711000D01*
X123400578Y-104711000D01*
X124915967Y-103195612D01*
X125135000Y-103217185D01*
X125426110Y-103188513D01*
X125706033Y-103103599D01*
X125964013Y-102965706D01*
X126190134Y-102780134D01*
X126242223Y-102716663D01*
X126296595Y-102818386D01*
X126296595Y-102818386D01*
G37*
X126296595Y-102818386D02*
X126407038Y-102952962D01*
X126541614Y-103063405D01*
X126695150Y-103145472D01*
X126750001Y-103162111D01*
X126750001Y-103773420D01*
X125812422Y-104711000D01*
X123400578Y-104711000D01*
X124915967Y-103195612D01*
X125135000Y-103217185D01*
X125426110Y-103188513D01*
X125706033Y-103103599D01*
X125964013Y-102965706D01*
X126190134Y-102780134D01*
X126242223Y-102716663D01*
X126296595Y-102818386D01*
G36*
X97339880Y-92330535D02*
G01*
X97534465Y-92525120D01*
X97763273Y-92678005D01*
X97840515Y-92710000D01*
X97763273Y-92741995D01*
X97534465Y-92894880D01*
X97339880Y-93089465D01*
X97186995Y-93318273D01*
X97081686Y-93572510D01*
X97028000Y-93842408D01*
X97028000Y-94117592D01*
X97081686Y-94387490D01*
X97186995Y-94641727D01*
X97339880Y-94870535D01*
X97534465Y-95065120D01*
X97763273Y-95218005D01*
X97840515Y-95250000D01*
X97763273Y-95281995D01*
X97534465Y-95434880D01*
X97339880Y-95629465D01*
X97186995Y-95858273D01*
X97081686Y-96112510D01*
X97028000Y-96382408D01*
X97028000Y-96657592D01*
X97081686Y-96927490D01*
X97186995Y-97181727D01*
X97339880Y-97410535D01*
X97534465Y-97605120D01*
X97763273Y-97758005D01*
X97840515Y-97790000D01*
X97763273Y-97821995D01*
X97534465Y-97974880D01*
X97339880Y-98169465D01*
X97186995Y-98398273D01*
X97081686Y-98652510D01*
X97028000Y-98922408D01*
X97028000Y-99197592D01*
X97081686Y-99467490D01*
X97186995Y-99721727D01*
X97339880Y-99950535D01*
X97534465Y-100145120D01*
X97763273Y-100298005D01*
X97840515Y-100330000D01*
X97763273Y-100361995D01*
X97534465Y-100514880D01*
X97339880Y-100709465D01*
X97186995Y-100938273D01*
X97081686Y-101192510D01*
X97028000Y-101462408D01*
X97028000Y-101737592D01*
X97081686Y-102007490D01*
X97186995Y-102261727D01*
X97339880Y-102490535D01*
X97534465Y-102685120D01*
X97763273Y-102838005D01*
X97840515Y-102870000D01*
X97763273Y-102901995D01*
X97534465Y-103054880D01*
X97339880Y-103249465D01*
X97186995Y-103478273D01*
X97081686Y-103732510D01*
X97028000Y-104002408D01*
X97028000Y-104277592D01*
X97081686Y-104547490D01*
X97140799Y-104690200D01*
X94321679Y-104690200D01*
X92103105Y-102471627D01*
X92183599Y-102321033D01*
X92268513Y-102041110D01*
X92290000Y-101822949D01*
X92290000Y-101377050D01*
X92268513Y-101158889D01*
X92183599Y-100878966D01*
X92045706Y-100620986D01*
X91860134Y-100394866D01*
X91634013Y-100209294D01*
X91376033Y-100071401D01*
X91096110Y-99986487D01*
X90805000Y-99957815D01*
X90513889Y-99986487D01*
X90233966Y-100071401D01*
X89975986Y-100209294D01*
X89749866Y-100394866D01*
X89697777Y-100458337D01*
X89643405Y-100356614D01*
X89532962Y-100222038D01*
X89453144Y-100156534D01*
X93255930Y-96353749D01*
X93343320Y-96564727D01*
X93500363Y-96799759D01*
X93700241Y-96999637D01*
X93935273Y-97156680D01*
X94196426Y-97264853D01*
X94473665Y-97320000D01*
X94756335Y-97320000D01*
X95033574Y-97264853D01*
X95294727Y-97156680D01*
X95529759Y-96999637D01*
X95729637Y-96799759D01*
X95886680Y-96564727D01*
X95994853Y-96303574D01*
X96050000Y-96026335D01*
X96050000Y-95743665D01*
X95994853Y-95466426D01*
X95886680Y-95205273D01*
X95729637Y-94970241D01*
X95529759Y-94770363D01*
X95294727Y-94613320D01*
X95083749Y-94525930D01*
X97284679Y-92325000D01*
X97336182Y-92325000D01*
X97339880Y-92330535D01*
X97339880Y-92330535D01*
G37*
X97339880Y-92330535D02*
X97534465Y-92525120D01*
X97763273Y-92678005D01*
X97840515Y-92710000D01*
X97763273Y-92741995D01*
X97534465Y-92894880D01*
X97339880Y-93089465D01*
X97186995Y-93318273D01*
X97081686Y-93572510D01*
X97028000Y-93842408D01*
X97028000Y-94117592D01*
X97081686Y-94387490D01*
X97186995Y-94641727D01*
X97339880Y-94870535D01*
X97534465Y-95065120D01*
X97763273Y-95218005D01*
X97840515Y-95250000D01*
X97763273Y-95281995D01*
X97534465Y-95434880D01*
X97339880Y-95629465D01*
X97186995Y-95858273D01*
X97081686Y-96112510D01*
X97028000Y-96382408D01*
X97028000Y-96657592D01*
X97081686Y-96927490D01*
X97186995Y-97181727D01*
X97339880Y-97410535D01*
X97534465Y-97605120D01*
X97763273Y-97758005D01*
X97840515Y-97790000D01*
X97763273Y-97821995D01*
X97534465Y-97974880D01*
X97339880Y-98169465D01*
X97186995Y-98398273D01*
X97081686Y-98652510D01*
X97028000Y-98922408D01*
X97028000Y-99197592D01*
X97081686Y-99467490D01*
X97186995Y-99721727D01*
X97339880Y-99950535D01*
X97534465Y-100145120D01*
X97763273Y-100298005D01*
X97840515Y-100330000D01*
X97763273Y-100361995D01*
X97534465Y-100514880D01*
X97339880Y-100709465D01*
X97186995Y-100938273D01*
X97081686Y-101192510D01*
X97028000Y-101462408D01*
X97028000Y-101737592D01*
X97081686Y-102007490D01*
X97186995Y-102261727D01*
X97339880Y-102490535D01*
X97534465Y-102685120D01*
X97763273Y-102838005D01*
X97840515Y-102870000D01*
X97763273Y-102901995D01*
X97534465Y-103054880D01*
X97339880Y-103249465D01*
X97186995Y-103478273D01*
X97081686Y-103732510D01*
X97028000Y-104002408D01*
X97028000Y-104277592D01*
X97081686Y-104547490D01*
X97140799Y-104690200D01*
X94321679Y-104690200D01*
X92103105Y-102471627D01*
X92183599Y-102321033D01*
X92268513Y-102041110D01*
X92290000Y-101822949D01*
X92290000Y-101377050D01*
X92268513Y-101158889D01*
X92183599Y-100878966D01*
X92045706Y-100620986D01*
X91860134Y-100394866D01*
X91634013Y-100209294D01*
X91376033Y-100071401D01*
X91096110Y-99986487D01*
X90805000Y-99957815D01*
X90513889Y-99986487D01*
X90233966Y-100071401D01*
X89975986Y-100209294D01*
X89749866Y-100394866D01*
X89697777Y-100458337D01*
X89643405Y-100356614D01*
X89532962Y-100222038D01*
X89453144Y-100156534D01*
X93255930Y-96353749D01*
X93343320Y-96564727D01*
X93500363Y-96799759D01*
X93700241Y-96999637D01*
X93935273Y-97156680D01*
X94196426Y-97264853D01*
X94473665Y-97320000D01*
X94756335Y-97320000D01*
X95033574Y-97264853D01*
X95294727Y-97156680D01*
X95529759Y-96999637D01*
X95729637Y-96799759D01*
X95886680Y-96564727D01*
X95994853Y-96303574D01*
X96050000Y-96026335D01*
X96050000Y-95743665D01*
X95994853Y-95466426D01*
X95886680Y-95205273D01*
X95729637Y-94970241D01*
X95529759Y-94770363D01*
X95294727Y-94613320D01*
X95083749Y-94525930D01*
X97284679Y-92325000D01*
X97336182Y-92325000D01*
X97339880Y-92330535D01*
G36*
X112579880Y-72010535D02*
G01*
X112774465Y-72205120D01*
X113003273Y-72358005D01*
X113080515Y-72390000D01*
X113003273Y-72421995D01*
X112774465Y-72574880D01*
X112579880Y-72769465D01*
X112576182Y-72775000D01*
X111168465Y-72775000D01*
X111124999Y-72770719D01*
X111081533Y-72775000D01*
X111081523Y-72775000D01*
X110951510Y-72787805D01*
X110784687Y-72838411D01*
X110630941Y-72920589D01*
X110630939Y-72920590D01*
X110630940Y-72920590D01*
X110529953Y-73003468D01*
X110529951Y-73003470D01*
X110496183Y-73031183D01*
X110468470Y-73064951D01*
X108218422Y-75315000D01*
X106483685Y-75315000D01*
X106292886Y-75124201D01*
X106066043Y-74972629D01*
X105813989Y-74868225D01*
X105546411Y-74815000D01*
X105273589Y-74815000D01*
X105006011Y-74868225D01*
X104753957Y-74972629D01*
X104527114Y-75124201D01*
X104334201Y-75317114D01*
X104182629Y-75543957D01*
X104078225Y-75796011D01*
X104025000Y-76063589D01*
X104025000Y-76336411D01*
X104078225Y-76603989D01*
X104182629Y-76856043D01*
X104334201Y-77082886D01*
X104527114Y-77275799D01*
X104753957Y-77427371D01*
X105006011Y-77531775D01*
X105273589Y-77585000D01*
X105546411Y-77585000D01*
X105813989Y-77531775D01*
X106066043Y-77427371D01*
X106292886Y-77275799D01*
X106483685Y-77085000D01*
X108541531Y-77085000D01*
X108585000Y-77089281D01*
X108628469Y-77085000D01*
X108628477Y-77085000D01*
X108758490Y-77072195D01*
X108925313Y-77021589D01*
X109079059Y-76939411D01*
X109213817Y-76828817D01*
X109241534Y-76795044D01*
X111491579Y-74545000D01*
X112576182Y-74545000D01*
X112579880Y-74550535D01*
X112774465Y-74745120D01*
X113003273Y-74898005D01*
X113080515Y-74930000D01*
X113003273Y-74961995D01*
X112774465Y-75114880D01*
X112579880Y-75309465D01*
X112426995Y-75538273D01*
X112321686Y-75792510D01*
X112268000Y-76062408D01*
X112268000Y-76337592D01*
X112269299Y-76344123D01*
X111656556Y-76956866D01*
X111622783Y-76984583D01*
X111512189Y-77119342D01*
X111430011Y-77273088D01*
X111379405Y-77439911D01*
X111366600Y-77569924D01*
X111366600Y-77569931D01*
X111362319Y-77613400D01*
X111366600Y-77656869D01*
X111366601Y-104402820D01*
X111079222Y-104690200D01*
X99709201Y-104690200D01*
X99768314Y-104547490D01*
X99822000Y-104277592D01*
X99822000Y-104002408D01*
X99768314Y-103732510D01*
X99663005Y-103478273D01*
X99510120Y-103249465D01*
X99315535Y-103054880D01*
X99086727Y-102901995D01*
X99009485Y-102870000D01*
X99086727Y-102838005D01*
X99315535Y-102685120D01*
X99510120Y-102490535D01*
X99663005Y-102261727D01*
X99768314Y-102007490D01*
X99822000Y-101737592D01*
X99822000Y-101462408D01*
X99768314Y-101192510D01*
X99663005Y-100938273D01*
X99510120Y-100709465D01*
X99315535Y-100514880D01*
X99086727Y-100361995D01*
X99009485Y-100330000D01*
X99086727Y-100298005D01*
X99315535Y-100145120D01*
X99510120Y-99950535D01*
X99663005Y-99721727D01*
X99768314Y-99467490D01*
X99822000Y-99197592D01*
X99822000Y-98922408D01*
X99768314Y-98652510D01*
X99663005Y-98398273D01*
X99510120Y-98169465D01*
X99315535Y-97974880D01*
X99086727Y-97821995D01*
X99009485Y-97790000D01*
X99086727Y-97758005D01*
X99315535Y-97605120D01*
X99510120Y-97410535D01*
X99663005Y-97181727D01*
X99768314Y-96927490D01*
X99822000Y-96657592D01*
X99822000Y-96382408D01*
X99768314Y-96112510D01*
X99663005Y-95858273D01*
X99510120Y-95629465D01*
X99315535Y-95434880D01*
X99086727Y-95281995D01*
X99009485Y-95250000D01*
X99086727Y-95218005D01*
X99315535Y-95065120D01*
X99510120Y-94870535D01*
X99663005Y-94641727D01*
X99768314Y-94387490D01*
X99822000Y-94117592D01*
X99822000Y-93842408D01*
X99768314Y-93572510D01*
X99663005Y-93318273D01*
X99510120Y-93089465D01*
X99315535Y-92894880D01*
X99086727Y-92741995D01*
X99009485Y-92710000D01*
X99086727Y-92678005D01*
X99315535Y-92525120D01*
X99510120Y-92330535D01*
X99663005Y-92101727D01*
X99768314Y-91847490D01*
X99822000Y-91577592D01*
X99822000Y-91302408D01*
X99768314Y-91032510D01*
X99663005Y-90778273D01*
X99510120Y-90549465D01*
X99315535Y-90354880D01*
X99086727Y-90201995D01*
X99009485Y-90170000D01*
X99086727Y-90138005D01*
X99315535Y-89985120D01*
X99510120Y-89790535D01*
X99663005Y-89561727D01*
X99768314Y-89307490D01*
X99822000Y-89037592D01*
X99822000Y-89008578D01*
X107700000Y-96886579D01*
X107700001Y-101796314D01*
X107509201Y-101987114D01*
X107357629Y-102213957D01*
X107253225Y-102466011D01*
X107200000Y-102733589D01*
X107200000Y-103006411D01*
X107253225Y-103273989D01*
X107357629Y-103526043D01*
X107509201Y-103752886D01*
X107702114Y-103945799D01*
X107928957Y-104097371D01*
X108181011Y-104201775D01*
X108448589Y-104255000D01*
X108721411Y-104255000D01*
X108988989Y-104201775D01*
X109241043Y-104097371D01*
X109467886Y-103945799D01*
X109660799Y-103752886D01*
X109812371Y-103526043D01*
X109916775Y-103273989D01*
X109970000Y-103006411D01*
X109970000Y-102733589D01*
X109916775Y-102466011D01*
X109812371Y-102213957D01*
X109660799Y-101987114D01*
X109470000Y-101796315D01*
X109470000Y-96563469D01*
X109474281Y-96520000D01*
X109470000Y-96476531D01*
X109470000Y-96476523D01*
X109457195Y-96346510D01*
X109406589Y-96179687D01*
X109324411Y-96025941D01*
X109271025Y-95960890D01*
X109241532Y-95924953D01*
X109241530Y-95924951D01*
X109213817Y-95891183D01*
X109180051Y-95863472D01*
X99820701Y-86504123D01*
X99822000Y-86497592D01*
X99822000Y-86222408D01*
X99768314Y-85952510D01*
X99663005Y-85698273D01*
X99510120Y-85469465D01*
X99315535Y-85274880D01*
X99086727Y-85121995D01*
X99009485Y-85090000D01*
X99086727Y-85058005D01*
X99315535Y-84905120D01*
X99510120Y-84710535D01*
X99663005Y-84481727D01*
X99768314Y-84227490D01*
X99822000Y-83957592D01*
X99822000Y-83682408D01*
X99768314Y-83412510D01*
X99663005Y-83158273D01*
X99510120Y-82929465D01*
X99315535Y-82734880D01*
X99086727Y-82581995D01*
X99009485Y-82550000D01*
X99086727Y-82518005D01*
X99315535Y-82365120D01*
X99510120Y-82170535D01*
X99663005Y-81941727D01*
X99768314Y-81687490D01*
X99822000Y-81417592D01*
X99822000Y-81142408D01*
X99768314Y-80872510D01*
X99663005Y-80618273D01*
X99510120Y-80389465D01*
X99315535Y-80194880D01*
X99086727Y-80041995D01*
X99009485Y-80010000D01*
X99086727Y-79978005D01*
X99315535Y-79825120D01*
X99510120Y-79630535D01*
X99663005Y-79401727D01*
X99768314Y-79147490D01*
X99822000Y-78877592D01*
X99822000Y-78602408D01*
X99820701Y-78595877D01*
X105533191Y-72883388D01*
X105452629Y-73003957D01*
X105348225Y-73256011D01*
X105295000Y-73523589D01*
X105295000Y-73796411D01*
X105348225Y-74063989D01*
X105452629Y-74316043D01*
X105604201Y-74542886D01*
X105797114Y-74735799D01*
X106023957Y-74887371D01*
X106276011Y-74991775D01*
X106543589Y-75045000D01*
X106816411Y-75045000D01*
X107083989Y-74991775D01*
X107336043Y-74887371D01*
X107562886Y-74735799D01*
X107755799Y-74542886D01*
X107907371Y-74316043D01*
X108011775Y-74063989D01*
X108065000Y-73796411D01*
X108065000Y-73526578D01*
X109586579Y-72005000D01*
X112576182Y-72005000D01*
X112579880Y-72010535D01*
X112579880Y-72010535D01*
G37*
X112579880Y-72010535D02*
X112774465Y-72205120D01*
X113003273Y-72358005D01*
X113080515Y-72390000D01*
X113003273Y-72421995D01*
X112774465Y-72574880D01*
X112579880Y-72769465D01*
X112576182Y-72775000D01*
X111168465Y-72775000D01*
X111124999Y-72770719D01*
X111081533Y-72775000D01*
X111081523Y-72775000D01*
X110951510Y-72787805D01*
X110784687Y-72838411D01*
X110630941Y-72920589D01*
X110630939Y-72920590D01*
X110630940Y-72920590D01*
X110529953Y-73003468D01*
X110529951Y-73003470D01*
X110496183Y-73031183D01*
X110468470Y-73064951D01*
X108218422Y-75315000D01*
X106483685Y-75315000D01*
X106292886Y-75124201D01*
X106066043Y-74972629D01*
X105813989Y-74868225D01*
X105546411Y-74815000D01*
X105273589Y-74815000D01*
X105006011Y-74868225D01*
X104753957Y-74972629D01*
X104527114Y-75124201D01*
X104334201Y-75317114D01*
X104182629Y-75543957D01*
X104078225Y-75796011D01*
X104025000Y-76063589D01*
X104025000Y-76336411D01*
X104078225Y-76603989D01*
X104182629Y-76856043D01*
X104334201Y-77082886D01*
X104527114Y-77275799D01*
X104753957Y-77427371D01*
X105006011Y-77531775D01*
X105273589Y-77585000D01*
X105546411Y-77585000D01*
X105813989Y-77531775D01*
X106066043Y-77427371D01*
X106292886Y-77275799D01*
X106483685Y-77085000D01*
X108541531Y-77085000D01*
X108585000Y-77089281D01*
X108628469Y-77085000D01*
X108628477Y-77085000D01*
X108758490Y-77072195D01*
X108925313Y-77021589D01*
X109079059Y-76939411D01*
X109213817Y-76828817D01*
X109241534Y-76795044D01*
X111491579Y-74545000D01*
X112576182Y-74545000D01*
X112579880Y-74550535D01*
X112774465Y-74745120D01*
X113003273Y-74898005D01*
X113080515Y-74930000D01*
X113003273Y-74961995D01*
X112774465Y-75114880D01*
X112579880Y-75309465D01*
X112426995Y-75538273D01*
X112321686Y-75792510D01*
X112268000Y-76062408D01*
X112268000Y-76337592D01*
X112269299Y-76344123D01*
X111656556Y-76956866D01*
X111622783Y-76984583D01*
X111512189Y-77119342D01*
X111430011Y-77273088D01*
X111379405Y-77439911D01*
X111366600Y-77569924D01*
X111366600Y-77569931D01*
X111362319Y-77613400D01*
X111366600Y-77656869D01*
X111366601Y-104402820D01*
X111079222Y-104690200D01*
X99709201Y-104690200D01*
X99768314Y-104547490D01*
X99822000Y-104277592D01*
X99822000Y-104002408D01*
X99768314Y-103732510D01*
X99663005Y-103478273D01*
X99510120Y-103249465D01*
X99315535Y-103054880D01*
X99086727Y-102901995D01*
X99009485Y-102870000D01*
X99086727Y-102838005D01*
X99315535Y-102685120D01*
X99510120Y-102490535D01*
X99663005Y-102261727D01*
X99768314Y-102007490D01*
X99822000Y-101737592D01*
X99822000Y-101462408D01*
X99768314Y-101192510D01*
X99663005Y-100938273D01*
X99510120Y-100709465D01*
X99315535Y-100514880D01*
X99086727Y-100361995D01*
X99009485Y-100330000D01*
X99086727Y-100298005D01*
X99315535Y-100145120D01*
X99510120Y-99950535D01*
X99663005Y-99721727D01*
X99768314Y-99467490D01*
X99822000Y-99197592D01*
X99822000Y-98922408D01*
X99768314Y-98652510D01*
X99663005Y-98398273D01*
X99510120Y-98169465D01*
X99315535Y-97974880D01*
X99086727Y-97821995D01*
X99009485Y-97790000D01*
X99086727Y-97758005D01*
X99315535Y-97605120D01*
X99510120Y-97410535D01*
X99663005Y-97181727D01*
X99768314Y-96927490D01*
X99822000Y-96657592D01*
X99822000Y-96382408D01*
X99768314Y-96112510D01*
X99663005Y-95858273D01*
X99510120Y-95629465D01*
X99315535Y-95434880D01*
X99086727Y-95281995D01*
X99009485Y-95250000D01*
X99086727Y-95218005D01*
X99315535Y-95065120D01*
X99510120Y-94870535D01*
X99663005Y-94641727D01*
X99768314Y-94387490D01*
X99822000Y-94117592D01*
X99822000Y-93842408D01*
X99768314Y-93572510D01*
X99663005Y-93318273D01*
X99510120Y-93089465D01*
X99315535Y-92894880D01*
X99086727Y-92741995D01*
X99009485Y-92710000D01*
X99086727Y-92678005D01*
X99315535Y-92525120D01*
X99510120Y-92330535D01*
X99663005Y-92101727D01*
X99768314Y-91847490D01*
X99822000Y-91577592D01*
X99822000Y-91302408D01*
X99768314Y-91032510D01*
X99663005Y-90778273D01*
X99510120Y-90549465D01*
X99315535Y-90354880D01*
X99086727Y-90201995D01*
X99009485Y-90170000D01*
X99086727Y-90138005D01*
X99315535Y-89985120D01*
X99510120Y-89790535D01*
X99663005Y-89561727D01*
X99768314Y-89307490D01*
X99822000Y-89037592D01*
X99822000Y-89008578D01*
X107700000Y-96886579D01*
X107700001Y-101796314D01*
X107509201Y-101987114D01*
X107357629Y-102213957D01*
X107253225Y-102466011D01*
X107200000Y-102733589D01*
X107200000Y-103006411D01*
X107253225Y-103273989D01*
X107357629Y-103526043D01*
X107509201Y-103752886D01*
X107702114Y-103945799D01*
X107928957Y-104097371D01*
X108181011Y-104201775D01*
X108448589Y-104255000D01*
X108721411Y-104255000D01*
X108988989Y-104201775D01*
X109241043Y-104097371D01*
X109467886Y-103945799D01*
X109660799Y-103752886D01*
X109812371Y-103526043D01*
X109916775Y-103273989D01*
X109970000Y-103006411D01*
X109970000Y-102733589D01*
X109916775Y-102466011D01*
X109812371Y-102213957D01*
X109660799Y-101987114D01*
X109470000Y-101796315D01*
X109470000Y-96563469D01*
X109474281Y-96520000D01*
X109470000Y-96476531D01*
X109470000Y-96476523D01*
X109457195Y-96346510D01*
X109406589Y-96179687D01*
X109324411Y-96025941D01*
X109271025Y-95960890D01*
X109241532Y-95924953D01*
X109241530Y-95924951D01*
X109213817Y-95891183D01*
X109180051Y-95863472D01*
X99820701Y-86504123D01*
X99822000Y-86497592D01*
X99822000Y-86222408D01*
X99768314Y-85952510D01*
X99663005Y-85698273D01*
X99510120Y-85469465D01*
X99315535Y-85274880D01*
X99086727Y-85121995D01*
X99009485Y-85090000D01*
X99086727Y-85058005D01*
X99315535Y-84905120D01*
X99510120Y-84710535D01*
X99663005Y-84481727D01*
X99768314Y-84227490D01*
X99822000Y-83957592D01*
X99822000Y-83682408D01*
X99768314Y-83412510D01*
X99663005Y-83158273D01*
X99510120Y-82929465D01*
X99315535Y-82734880D01*
X99086727Y-82581995D01*
X99009485Y-82550000D01*
X99086727Y-82518005D01*
X99315535Y-82365120D01*
X99510120Y-82170535D01*
X99663005Y-81941727D01*
X99768314Y-81687490D01*
X99822000Y-81417592D01*
X99822000Y-81142408D01*
X99768314Y-80872510D01*
X99663005Y-80618273D01*
X99510120Y-80389465D01*
X99315535Y-80194880D01*
X99086727Y-80041995D01*
X99009485Y-80010000D01*
X99086727Y-79978005D01*
X99315535Y-79825120D01*
X99510120Y-79630535D01*
X99663005Y-79401727D01*
X99768314Y-79147490D01*
X99822000Y-78877592D01*
X99822000Y-78602408D01*
X99820701Y-78595877D01*
X105533191Y-72883388D01*
X105452629Y-73003957D01*
X105348225Y-73256011D01*
X105295000Y-73523589D01*
X105295000Y-73796411D01*
X105348225Y-74063989D01*
X105452629Y-74316043D01*
X105604201Y-74542886D01*
X105797114Y-74735799D01*
X106023957Y-74887371D01*
X106276011Y-74991775D01*
X106543589Y-75045000D01*
X106816411Y-75045000D01*
X107083989Y-74991775D01*
X107336043Y-74887371D01*
X107562886Y-74735799D01*
X107755799Y-74542886D01*
X107907371Y-74316043D01*
X108011775Y-74063989D01*
X108065000Y-73796411D01*
X108065000Y-73526578D01*
X109586579Y-72005000D01*
X112576182Y-72005000D01*
X112579880Y-72010535D01*
G36*
X117830241Y-96364637D02*
G01*
X118065273Y-96521680D01*
X118326426Y-96629853D01*
X118603665Y-96685000D01*
X118886335Y-96685000D01*
X118921439Y-96678017D01*
X119250001Y-97006580D01*
X119250000Y-100280241D01*
X119079866Y-100419866D01*
X118894294Y-100645986D01*
X118756401Y-100903966D01*
X118671487Y-101183889D01*
X118650000Y-101402050D01*
X118650000Y-101797949D01*
X118671487Y-102016110D01*
X118756401Y-102296033D01*
X118894294Y-102554013D01*
X119079866Y-102780134D01*
X119305986Y-102965706D01*
X119563966Y-103103599D01*
X119843889Y-103188513D01*
X120135000Y-103217185D01*
X120426110Y-103188513D01*
X120706033Y-103103599D01*
X120964013Y-102965706D01*
X121190134Y-102780134D01*
X121375706Y-102554014D01*
X121385000Y-102536626D01*
X121394294Y-102554013D01*
X121579866Y-102780134D01*
X121805986Y-102965706D01*
X122063966Y-103103599D01*
X122343889Y-103188513D01*
X122413093Y-103195329D01*
X122353422Y-103255000D01*
X119111579Y-103255000D01*
X117725000Y-101868422D01*
X117725000Y-96259396D01*
X117830241Y-96364637D01*
X117830241Y-96364637D01*
G37*
X117830241Y-96364637D02*
X118065273Y-96521680D01*
X118326426Y-96629853D01*
X118603665Y-96685000D01*
X118886335Y-96685000D01*
X118921439Y-96678017D01*
X119250001Y-97006580D01*
X119250000Y-100280241D01*
X119079866Y-100419866D01*
X118894294Y-100645986D01*
X118756401Y-100903966D01*
X118671487Y-101183889D01*
X118650000Y-101402050D01*
X118650000Y-101797949D01*
X118671487Y-102016110D01*
X118756401Y-102296033D01*
X118894294Y-102554013D01*
X119079866Y-102780134D01*
X119305986Y-102965706D01*
X119563966Y-103103599D01*
X119843889Y-103188513D01*
X120135000Y-103217185D01*
X120426110Y-103188513D01*
X120706033Y-103103599D01*
X120964013Y-102965706D01*
X121190134Y-102780134D01*
X121375706Y-102554014D01*
X121385000Y-102536626D01*
X121394294Y-102554013D01*
X121579866Y-102780134D01*
X121805986Y-102965706D01*
X122063966Y-103103599D01*
X122343889Y-103188513D01*
X122413093Y-103195329D01*
X122353422Y-103255000D01*
X119111579Y-103255000D01*
X117725000Y-101868422D01*
X117725000Y-96259396D01*
X117830241Y-96364637D01*
G36*
X97339880Y-89790535D02*
G01*
X97534465Y-89985120D01*
X97763273Y-90138005D01*
X97840515Y-90170000D01*
X97763273Y-90201995D01*
X97534465Y-90354880D01*
X97339880Y-90549465D01*
X97336182Y-90555000D01*
X96961569Y-90555000D01*
X96918100Y-90550719D01*
X96874631Y-90555000D01*
X96874623Y-90555000D01*
X96744610Y-90567805D01*
X96577787Y-90618411D01*
X96492385Y-90664059D01*
X96424041Y-90700589D01*
X96323053Y-90783468D01*
X96323051Y-90783470D01*
X96289283Y-90811183D01*
X96261570Y-90844951D01*
X87709956Y-99396566D01*
X87676183Y-99424283D01*
X87565589Y-99559042D01*
X87483411Y-99712788D01*
X87448157Y-99829004D01*
X87435271Y-99871483D01*
X87432805Y-99879611D01*
X87420000Y-100009624D01*
X87420000Y-100009631D01*
X87419669Y-100012990D01*
X87365150Y-100029528D01*
X87211614Y-100111595D01*
X87077038Y-100222038D01*
X86966595Y-100356614D01*
X86884528Y-100510150D01*
X86833992Y-100676746D01*
X86816928Y-100850000D01*
X86816928Y-101836494D01*
X86258322Y-102395100D01*
X79404010Y-102395100D01*
X79443599Y-102321033D01*
X79528513Y-102041110D01*
X79550000Y-101822949D01*
X79550000Y-101377050D01*
X79528513Y-101158889D01*
X79443599Y-100878966D01*
X79305706Y-100620986D01*
X79120134Y-100394866D01*
X78894013Y-100209294D01*
X78636033Y-100071401D01*
X78412873Y-100003706D01*
X79940479Y-98476100D01*
X84811931Y-98476100D01*
X84855400Y-98480381D01*
X84898869Y-98476100D01*
X84898877Y-98476100D01*
X85028890Y-98463295D01*
X85195713Y-98412689D01*
X85349459Y-98330511D01*
X85484217Y-98219917D01*
X85511934Y-98186144D01*
X86912350Y-96785729D01*
X86946117Y-96758017D01*
X86988324Y-96706589D01*
X87056711Y-96623259D01*
X87056712Y-96623258D01*
X87108322Y-96526700D01*
X88223231Y-96526700D01*
X88266700Y-96530981D01*
X88310169Y-96526700D01*
X88310177Y-96526700D01*
X88440190Y-96513895D01*
X88607013Y-96463289D01*
X88760759Y-96381111D01*
X88895517Y-96270517D01*
X88923234Y-96236744D01*
X95374979Y-89785000D01*
X97336182Y-89785000D01*
X97339880Y-89790535D01*
X97339880Y-89790535D01*
G37*
X97339880Y-89790535D02*
X97534465Y-89985120D01*
X97763273Y-90138005D01*
X97840515Y-90170000D01*
X97763273Y-90201995D01*
X97534465Y-90354880D01*
X97339880Y-90549465D01*
X97336182Y-90555000D01*
X96961569Y-90555000D01*
X96918100Y-90550719D01*
X96874631Y-90555000D01*
X96874623Y-90555000D01*
X96744610Y-90567805D01*
X96577787Y-90618411D01*
X96492385Y-90664059D01*
X96424041Y-90700589D01*
X96323053Y-90783468D01*
X96323051Y-90783470D01*
X96289283Y-90811183D01*
X96261570Y-90844951D01*
X87709956Y-99396566D01*
X87676183Y-99424283D01*
X87565589Y-99559042D01*
X87483411Y-99712788D01*
X87448157Y-99829004D01*
X87435271Y-99871483D01*
X87432805Y-99879611D01*
X87420000Y-100009624D01*
X87420000Y-100009631D01*
X87419669Y-100012990D01*
X87365150Y-100029528D01*
X87211614Y-100111595D01*
X87077038Y-100222038D01*
X86966595Y-100356614D01*
X86884528Y-100510150D01*
X86833992Y-100676746D01*
X86816928Y-100850000D01*
X86816928Y-101836494D01*
X86258322Y-102395100D01*
X79404010Y-102395100D01*
X79443599Y-102321033D01*
X79528513Y-102041110D01*
X79550000Y-101822949D01*
X79550000Y-101377050D01*
X79528513Y-101158889D01*
X79443599Y-100878966D01*
X79305706Y-100620986D01*
X79120134Y-100394866D01*
X78894013Y-100209294D01*
X78636033Y-100071401D01*
X78412873Y-100003706D01*
X79940479Y-98476100D01*
X84811931Y-98476100D01*
X84855400Y-98480381D01*
X84898869Y-98476100D01*
X84898877Y-98476100D01*
X85028890Y-98463295D01*
X85195713Y-98412689D01*
X85349459Y-98330511D01*
X85484217Y-98219917D01*
X85511934Y-98186144D01*
X86912350Y-96785729D01*
X86946117Y-96758017D01*
X86988324Y-96706589D01*
X87056711Y-96623259D01*
X87056712Y-96623258D01*
X87108322Y-96526700D01*
X88223231Y-96526700D01*
X88266700Y-96530981D01*
X88310169Y-96526700D01*
X88310177Y-96526700D01*
X88440190Y-96513895D01*
X88607013Y-96463289D01*
X88760759Y-96381111D01*
X88895517Y-96270517D01*
X88923234Y-96236744D01*
X95374979Y-89785000D01*
X97336182Y-89785000D01*
X97339880Y-89790535D01*
G36*
X126631012Y-94289487D02*
G01*
X126580405Y-94456310D01*
X126563319Y-94629800D01*
X126567601Y-94673279D01*
X126567600Y-100122705D01*
X126541614Y-100136595D01*
X126407038Y-100247038D01*
X126296595Y-100381614D01*
X126242223Y-100483337D01*
X126190134Y-100419866D01*
X125964014Y-100234294D01*
X125706034Y-100096401D01*
X125426111Y-100011487D01*
X125135000Y-99982815D01*
X124843890Y-100011487D01*
X124563967Y-100096401D01*
X124305987Y-100234294D01*
X124079866Y-100419866D01*
X123894294Y-100645986D01*
X123885000Y-100663374D01*
X123875706Y-100645986D01*
X123690134Y-100419866D01*
X123464014Y-100234294D01*
X123206034Y-100096401D01*
X122926111Y-100011487D01*
X122635000Y-99982815D01*
X122343890Y-100011487D01*
X122063967Y-100096401D01*
X121805987Y-100234294D01*
X121579866Y-100419866D01*
X121394294Y-100645986D01*
X121385000Y-100663374D01*
X121375706Y-100645986D01*
X121190134Y-100419866D01*
X121020000Y-100280241D01*
X121020000Y-96683469D01*
X121024281Y-96640000D01*
X121020000Y-96596531D01*
X121020000Y-96596523D01*
X121007195Y-96466510D01*
X120956589Y-96299687D01*
X120874411Y-96145941D01*
X120813391Y-96071588D01*
X120791532Y-96044953D01*
X120791530Y-96044951D01*
X120763817Y-96011183D01*
X120730049Y-95983470D01*
X120173017Y-95426439D01*
X120180000Y-95391335D01*
X120180000Y-95108665D01*
X120173017Y-95073561D01*
X120650050Y-94596529D01*
X120683817Y-94568817D01*
X120739301Y-94501211D01*
X120794411Y-94434059D01*
X120824479Y-94377805D01*
X120876589Y-94280313D01*
X120879717Y-94270000D01*
X126281531Y-94270000D01*
X126325000Y-94274281D01*
X126368469Y-94270000D01*
X126368477Y-94270000D01*
X126498490Y-94257195D01*
X126665313Y-94206589D01*
X126679324Y-94199100D01*
X126631012Y-94289487D01*
X126631012Y-94289487D01*
G37*
X126631012Y-94289487D02*
X126580405Y-94456310D01*
X126563319Y-94629800D01*
X126567601Y-94673279D01*
X126567600Y-100122705D01*
X126541614Y-100136595D01*
X126407038Y-100247038D01*
X126296595Y-100381614D01*
X126242223Y-100483337D01*
X126190134Y-100419866D01*
X125964014Y-100234294D01*
X125706034Y-100096401D01*
X125426111Y-100011487D01*
X125135000Y-99982815D01*
X124843890Y-100011487D01*
X124563967Y-100096401D01*
X124305987Y-100234294D01*
X124079866Y-100419866D01*
X123894294Y-100645986D01*
X123885000Y-100663374D01*
X123875706Y-100645986D01*
X123690134Y-100419866D01*
X123464014Y-100234294D01*
X123206034Y-100096401D01*
X122926111Y-100011487D01*
X122635000Y-99982815D01*
X122343890Y-100011487D01*
X122063967Y-100096401D01*
X121805987Y-100234294D01*
X121579866Y-100419866D01*
X121394294Y-100645986D01*
X121385000Y-100663374D01*
X121375706Y-100645986D01*
X121190134Y-100419866D01*
X121020000Y-100280241D01*
X121020000Y-96683469D01*
X121024281Y-96640000D01*
X121020000Y-96596531D01*
X121020000Y-96596523D01*
X121007195Y-96466510D01*
X120956589Y-96299687D01*
X120874411Y-96145941D01*
X120813391Y-96071588D01*
X120791532Y-96044953D01*
X120791530Y-96044951D01*
X120763817Y-96011183D01*
X120730049Y-95983470D01*
X120173017Y-95426439D01*
X120180000Y-95391335D01*
X120180000Y-95108665D01*
X120173017Y-95073561D01*
X120650050Y-94596529D01*
X120683817Y-94568817D01*
X120739301Y-94501211D01*
X120794411Y-94434059D01*
X120824479Y-94377805D01*
X120876589Y-94280313D01*
X120879717Y-94270000D01*
X126281531Y-94270000D01*
X126325000Y-94274281D01*
X126368469Y-94270000D01*
X126368477Y-94270000D01*
X126498490Y-94257195D01*
X126665313Y-94206589D01*
X126679324Y-94199100D01*
X126631012Y-94289487D01*
G36*
X79079841Y-96851689D02*
G01*
X78978853Y-96934568D01*
X78978851Y-96934570D01*
X78945083Y-96962283D01*
X78917370Y-96996051D01*
X75951494Y-99961928D01*
X75826250Y-99961928D01*
X79018179Y-96770000D01*
X79232672Y-96770000D01*
X79079841Y-96851689D01*
X79079841Y-96851689D01*
G37*
X79079841Y-96851689D02*
X78978853Y-96934568D01*
X78978851Y-96934570D01*
X78945083Y-96962283D01*
X78917370Y-96996051D01*
X75951494Y-99961928D01*
X75826250Y-99961928D01*
X79018179Y-96770000D01*
X79232672Y-96770000D01*
X79079841Y-96851689D01*
G36*
X136380400Y-98146631D02*
G01*
X136376119Y-98190100D01*
X136380400Y-98233569D01*
X136380400Y-98233576D01*
X136393205Y-98363589D01*
X136443811Y-98530412D01*
X136525989Y-98684158D01*
X136636583Y-98818917D01*
X136670356Y-98846634D01*
X136836475Y-99012753D01*
X136699866Y-99124866D01*
X136647777Y-99188337D01*
X136593405Y-99086614D01*
X136482962Y-98952038D01*
X136348386Y-98841595D01*
X136194850Y-98759528D01*
X136028254Y-98708992D01*
X135855000Y-98691928D01*
X134655000Y-98691928D01*
X134481746Y-98708992D01*
X134315150Y-98759528D01*
X134161614Y-98841595D01*
X134027038Y-98952038D01*
X133916595Y-99086614D01*
X133834528Y-99240150D01*
X133783992Y-99406746D01*
X133780224Y-99445000D01*
X132901279Y-99445000D01*
X129815461Y-96359183D01*
X129924608Y-96269608D01*
X130103932Y-96051101D01*
X130237182Y-95801808D01*
X130319236Y-95531309D01*
X130346943Y-95250000D01*
X130319236Y-94968691D01*
X130237182Y-94698192D01*
X130209712Y-94646800D01*
X136380401Y-94646800D01*
X136380400Y-98146631D01*
X136380400Y-98146631D01*
G37*
X136380400Y-98146631D02*
X136376119Y-98190100D01*
X136380400Y-98233569D01*
X136380400Y-98233576D01*
X136393205Y-98363589D01*
X136443811Y-98530412D01*
X136525989Y-98684158D01*
X136636583Y-98818917D01*
X136670356Y-98846634D01*
X136836475Y-99012753D01*
X136699866Y-99124866D01*
X136647777Y-99188337D01*
X136593405Y-99086614D01*
X136482962Y-98952038D01*
X136348386Y-98841595D01*
X136194850Y-98759528D01*
X136028254Y-98708992D01*
X135855000Y-98691928D01*
X134655000Y-98691928D01*
X134481746Y-98708992D01*
X134315150Y-98759528D01*
X134161614Y-98841595D01*
X134027038Y-98952038D01*
X133916595Y-99086614D01*
X133834528Y-99240150D01*
X133783992Y-99406746D01*
X133780224Y-99445000D01*
X132901279Y-99445000D01*
X129815461Y-96359183D01*
X129924608Y-96269608D01*
X130103932Y-96051101D01*
X130237182Y-95801808D01*
X130319236Y-95531309D01*
X130346943Y-95250000D01*
X130319236Y-94968691D01*
X130237182Y-94698192D01*
X130209712Y-94646800D01*
X136380401Y-94646800D01*
X136380400Y-98146631D01*
G36*
X87900122Y-94756700D02*
G01*
X86683879Y-94756700D01*
X85724578Y-93797400D01*
X88859422Y-93797400D01*
X87900122Y-94756700D01*
X87900122Y-94756700D01*
G37*
X87900122Y-94756700D02*
X86683879Y-94756700D01*
X85724578Y-93797400D01*
X88859422Y-93797400D01*
X87900122Y-94756700D01*
G36*
X119726309Y-88592887D02*
G01*
X119483967Y-88666401D01*
X119225987Y-88804294D01*
X118999866Y-88989866D01*
X118814294Y-89215986D01*
X118676401Y-89473966D01*
X118591487Y-89753889D01*
X118570000Y-89972050D01*
X118570000Y-90367949D01*
X118591487Y-90586110D01*
X118676401Y-90866033D01*
X118814294Y-91124013D01*
X118999866Y-91350134D01*
X119170000Y-91489760D01*
X119170000Y-93341523D01*
X119165718Y-93385000D01*
X119170000Y-93428476D01*
X119170000Y-93573421D01*
X118921439Y-93821983D01*
X118886335Y-93815000D01*
X118603665Y-93815000D01*
X118326426Y-93870147D01*
X118065273Y-93978320D01*
X117830241Y-94135363D01*
X117725000Y-94240604D01*
X117725000Y-92118466D01*
X117729281Y-92074999D01*
X117725000Y-92031533D01*
X117725000Y-92031523D01*
X117712195Y-91901510D01*
X117661589Y-91734687D01*
X117579411Y-91580941D01*
X117534349Y-91526033D01*
X117496532Y-91479953D01*
X117496530Y-91479951D01*
X117468817Y-91446183D01*
X117435050Y-91418471D01*
X115060701Y-89044123D01*
X115062000Y-89037592D01*
X115062000Y-88762408D01*
X115008314Y-88492510D01*
X114903005Y-88238273D01*
X114750120Y-88009465D01*
X114555535Y-87814880D01*
X114326727Y-87661995D01*
X114249485Y-87630000D01*
X114326727Y-87598005D01*
X114555535Y-87445120D01*
X114750120Y-87250535D01*
X114753818Y-87245000D01*
X118378422Y-87245000D01*
X119726309Y-88592887D01*
X119726309Y-88592887D01*
G37*
X119726309Y-88592887D02*
X119483967Y-88666401D01*
X119225987Y-88804294D01*
X118999866Y-88989866D01*
X118814294Y-89215986D01*
X118676401Y-89473966D01*
X118591487Y-89753889D01*
X118570000Y-89972050D01*
X118570000Y-90367949D01*
X118591487Y-90586110D01*
X118676401Y-90866033D01*
X118814294Y-91124013D01*
X118999866Y-91350134D01*
X119170000Y-91489760D01*
X119170000Y-93341523D01*
X119165718Y-93385000D01*
X119170000Y-93428476D01*
X119170000Y-93573421D01*
X118921439Y-93821983D01*
X118886335Y-93815000D01*
X118603665Y-93815000D01*
X118326426Y-93870147D01*
X118065273Y-93978320D01*
X117830241Y-94135363D01*
X117725000Y-94240604D01*
X117725000Y-92118466D01*
X117729281Y-92074999D01*
X117725000Y-92031533D01*
X117725000Y-92031523D01*
X117712195Y-91901510D01*
X117661589Y-91734687D01*
X117579411Y-91580941D01*
X117534349Y-91526033D01*
X117496532Y-91479953D01*
X117496530Y-91479951D01*
X117468817Y-91446183D01*
X117435050Y-91418471D01*
X115060701Y-89044123D01*
X115062000Y-89037592D01*
X115062000Y-88762408D01*
X115008314Y-88492510D01*
X114903005Y-88238273D01*
X114750120Y-88009465D01*
X114555535Y-87814880D01*
X114326727Y-87661995D01*
X114249485Y-87630000D01*
X114326727Y-87598005D01*
X114555535Y-87445120D01*
X114750120Y-87250535D01*
X114753818Y-87245000D01*
X118378422Y-87245000D01*
X119726309Y-88592887D01*
G36*
X129955770Y-91400049D02*
G01*
X129983483Y-91433817D01*
X130017251Y-91461530D01*
X130017253Y-91461532D01*
X130035598Y-91476587D01*
X130118241Y-91544411D01*
X130271987Y-91626589D01*
X130438810Y-91677195D01*
X130568823Y-91690000D01*
X130568833Y-91690000D01*
X130612299Y-91694281D01*
X130655765Y-91690000D01*
X133780224Y-91690000D01*
X133783992Y-91728254D01*
X133834528Y-91894850D01*
X133916595Y-92048386D01*
X134027038Y-92182962D01*
X134161614Y-92293405D01*
X134315150Y-92375472D01*
X134481746Y-92426008D01*
X134655000Y-92443072D01*
X135855000Y-92443072D01*
X136028254Y-92426008D01*
X136194850Y-92375472D01*
X136348386Y-92293405D01*
X136482962Y-92182962D01*
X136593405Y-92048386D01*
X136647777Y-91946663D01*
X136699866Y-92010134D01*
X136836476Y-92122246D01*
X136670352Y-92288370D01*
X136636584Y-92316083D01*
X136608871Y-92349851D01*
X136608868Y-92349854D01*
X136525990Y-92450841D01*
X136443812Y-92604587D01*
X136393205Y-92771410D01*
X136386106Y-92843489D01*
X136382825Y-92876800D01*
X128364065Y-92876800D01*
X128320599Y-92872519D01*
X128277133Y-92876800D01*
X128277123Y-92876800D01*
X128147110Y-92889605D01*
X128039256Y-92922323D01*
X128230049Y-92731530D01*
X128263817Y-92703817D01*
X128317068Y-92638932D01*
X128374411Y-92569059D01*
X128392999Y-92534282D01*
X128456589Y-92415313D01*
X128507195Y-92248490D01*
X128520000Y-92118477D01*
X128520000Y-92118469D01*
X128524281Y-92075000D01*
X128520000Y-92031531D01*
X128520000Y-89964279D01*
X129955770Y-91400049D01*
X129955770Y-91400049D01*
G37*
X129955770Y-91400049D02*
X129983483Y-91433817D01*
X130017251Y-91461530D01*
X130017253Y-91461532D01*
X130035598Y-91476587D01*
X130118241Y-91544411D01*
X130271987Y-91626589D01*
X130438810Y-91677195D01*
X130568823Y-91690000D01*
X130568833Y-91690000D01*
X130612299Y-91694281D01*
X130655765Y-91690000D01*
X133780224Y-91690000D01*
X133783992Y-91728254D01*
X133834528Y-91894850D01*
X133916595Y-92048386D01*
X134027038Y-92182962D01*
X134161614Y-92293405D01*
X134315150Y-92375472D01*
X134481746Y-92426008D01*
X134655000Y-92443072D01*
X135855000Y-92443072D01*
X136028254Y-92426008D01*
X136194850Y-92375472D01*
X136348386Y-92293405D01*
X136482962Y-92182962D01*
X136593405Y-92048386D01*
X136647777Y-91946663D01*
X136699866Y-92010134D01*
X136836476Y-92122246D01*
X136670352Y-92288370D01*
X136636584Y-92316083D01*
X136608871Y-92349851D01*
X136608868Y-92349854D01*
X136525990Y-92450841D01*
X136443812Y-92604587D01*
X136393205Y-92771410D01*
X136386106Y-92843489D01*
X136382825Y-92876800D01*
X128364065Y-92876800D01*
X128320599Y-92872519D01*
X128277133Y-92876800D01*
X128277123Y-92876800D01*
X128147110Y-92889605D01*
X128039256Y-92922323D01*
X128230049Y-92731530D01*
X128263817Y-92703817D01*
X128317068Y-92638932D01*
X128374411Y-92569059D01*
X128392999Y-92534282D01*
X128456589Y-92415313D01*
X128507195Y-92248490D01*
X128520000Y-92118477D01*
X128520000Y-92118469D01*
X128524281Y-92075000D01*
X128520000Y-92031531D01*
X128520000Y-89964279D01*
X129955770Y-91400049D01*
G36*
X126750000Y-89901579D02*
G01*
X126750001Y-91708420D01*
X125958422Y-92500000D01*
X120940000Y-92500000D01*
X120940000Y-91489759D01*
X121110134Y-91350134D01*
X121295706Y-91124014D01*
X121305000Y-91106626D01*
X121314294Y-91124013D01*
X121499866Y-91350134D01*
X121725986Y-91535706D01*
X121983966Y-91673599D01*
X122263889Y-91758513D01*
X122555000Y-91787185D01*
X122846110Y-91758513D01*
X123126033Y-91673599D01*
X123384013Y-91535706D01*
X123610134Y-91350134D01*
X123662223Y-91286663D01*
X123716595Y-91388386D01*
X123827038Y-91522962D01*
X123961614Y-91633405D01*
X124115150Y-91715472D01*
X124281746Y-91766008D01*
X124455000Y-91783072D01*
X125655000Y-91783072D01*
X125828254Y-91766008D01*
X125994850Y-91715472D01*
X126148386Y-91633405D01*
X126282962Y-91522962D01*
X126393405Y-91388386D01*
X126475472Y-91234850D01*
X126526008Y-91068254D01*
X126543072Y-90895000D01*
X126543072Y-89694651D01*
X126750000Y-89901579D01*
X126750000Y-89901579D01*
G37*
X126750000Y-89901579D02*
X126750001Y-91708420D01*
X125958422Y-92500000D01*
X120940000Y-92500000D01*
X120940000Y-91489759D01*
X121110134Y-91350134D01*
X121295706Y-91124014D01*
X121305000Y-91106626D01*
X121314294Y-91124013D01*
X121499866Y-91350134D01*
X121725986Y-91535706D01*
X121983966Y-91673599D01*
X122263889Y-91758513D01*
X122555000Y-91787185D01*
X122846110Y-91758513D01*
X123126033Y-91673599D01*
X123384013Y-91535706D01*
X123610134Y-91350134D01*
X123662223Y-91286663D01*
X123716595Y-91388386D01*
X123827038Y-91522962D01*
X123961614Y-91633405D01*
X124115150Y-91715472D01*
X124281746Y-91766008D01*
X124455000Y-91783072D01*
X125655000Y-91783072D01*
X125828254Y-91766008D01*
X125994850Y-91715472D01*
X126148386Y-91633405D01*
X126282962Y-91522962D01*
X126393405Y-91388386D01*
X126475472Y-91234850D01*
X126526008Y-91068254D01*
X126543072Y-90895000D01*
X126543072Y-89694651D01*
X126750000Y-89901579D01*
G36*
X92551983Y-86183561D02*
G01*
X92545000Y-86218665D01*
X92545000Y-86501335D01*
X92600147Y-86778574D01*
X92708320Y-87039727D01*
X92865363Y-87274759D01*
X93065241Y-87474637D01*
X93300273Y-87631680D01*
X93447117Y-87692505D01*
X89112222Y-92027400D01*
X85764923Y-92027400D01*
X85834853Y-91858574D01*
X85890000Y-91581335D01*
X85890000Y-91298665D01*
X85883017Y-91263561D01*
X91351979Y-85794600D01*
X92163022Y-85794600D01*
X92551983Y-86183561D01*
X92551983Y-86183561D01*
G37*
X92551983Y-86183561D02*
X92545000Y-86218665D01*
X92545000Y-86501335D01*
X92600147Y-86778574D01*
X92708320Y-87039727D01*
X92865363Y-87274759D01*
X93065241Y-87474637D01*
X93300273Y-87631680D01*
X93447117Y-87692505D01*
X89112222Y-92027400D01*
X85764923Y-92027400D01*
X85834853Y-91858574D01*
X85890000Y-91581335D01*
X85890000Y-91298665D01*
X85883017Y-91263561D01*
X91351979Y-85794600D01*
X92163022Y-85794600D01*
X92551983Y-86183561D01*
G36*
X91644600Y-84024600D02*
G01*
X91028865Y-84024600D01*
X90985399Y-84020319D01*
X90941933Y-84024600D01*
X90941923Y-84024600D01*
X90811910Y-84037405D01*
X90645087Y-84088011D01*
X90491341Y-84170189D01*
X90491339Y-84170190D01*
X90491340Y-84170190D01*
X90390353Y-84253068D01*
X90390351Y-84253070D01*
X90356583Y-84280783D01*
X90328870Y-84314551D01*
X84631439Y-90011983D01*
X84596335Y-90005000D01*
X84313665Y-90005000D01*
X84036426Y-90060147D01*
X83972930Y-90086448D01*
X91644601Y-82414778D01*
X91644600Y-84024600D01*
X91644600Y-84024600D01*
G37*
X91644600Y-84024600D02*
X91028865Y-84024600D01*
X90985399Y-84020319D01*
X90941933Y-84024600D01*
X90941923Y-84024600D01*
X90811910Y-84037405D01*
X90645087Y-84088011D01*
X90491341Y-84170189D01*
X90491339Y-84170190D01*
X90491340Y-84170190D01*
X90390353Y-84253068D01*
X90390351Y-84253070D01*
X90356583Y-84280783D01*
X90328870Y-84314551D01*
X84631439Y-90011983D01*
X84596335Y-90005000D01*
X84313665Y-90005000D01*
X84036426Y-90060147D01*
X83972930Y-90086448D01*
X91644601Y-82414778D01*
X91644600Y-84024600D01*
G36*
X119535363Y-75209759D02*
G01*
X119701943Y-75376339D01*
X119605820Y-75405498D01*
X119495506Y-75464463D01*
X119398815Y-75543815D01*
X119319463Y-75640506D01*
X119260498Y-75750820D01*
X119224188Y-75870518D01*
X119211928Y-75995000D01*
X119211928Y-77595000D01*
X119224188Y-77719482D01*
X119260498Y-77839180D01*
X119319463Y-77949494D01*
X119398815Y-78046185D01*
X119495506Y-78125537D01*
X119605820Y-78184502D01*
X119725518Y-78220812D01*
X119762769Y-78224481D01*
X119760719Y-78245300D01*
X119777805Y-78418790D01*
X119828412Y-78585613D01*
X119910590Y-78739359D01*
X119993468Y-78840346D01*
X119993471Y-78840349D01*
X120021184Y-78874117D01*
X120054952Y-78901830D01*
X126421370Y-85268249D01*
X126449083Y-85302017D01*
X126482851Y-85329730D01*
X126482853Y-85329732D01*
X126554352Y-85388410D01*
X126583841Y-85412611D01*
X126737587Y-85494789D01*
X126904410Y-85545395D01*
X127034423Y-85558200D01*
X127034433Y-85558200D01*
X127077899Y-85562481D01*
X127121365Y-85558200D01*
X128850431Y-85558200D01*
X128893900Y-85562481D01*
X128937369Y-85558200D01*
X128937377Y-85558200D01*
X129067390Y-85545395D01*
X129234213Y-85494789D01*
X129387959Y-85412611D01*
X129522717Y-85302017D01*
X129550434Y-85268244D01*
X131893600Y-82925079D01*
X132708570Y-83740049D01*
X132736283Y-83773817D01*
X132770051Y-83801530D01*
X132770053Y-83801532D01*
X132831074Y-83851611D01*
X132871041Y-83884411D01*
X133024787Y-83966589D01*
X133191610Y-84017195D01*
X133321623Y-84030000D01*
X133321633Y-84030000D01*
X133365099Y-84034281D01*
X133408565Y-84030000D01*
X134302890Y-84030000D01*
X134319528Y-84084850D01*
X134401595Y-84238386D01*
X134512038Y-84372962D01*
X134646614Y-84483405D01*
X134800150Y-84565472D01*
X134966746Y-84616008D01*
X135140000Y-84633072D01*
X136640000Y-84633072D01*
X136670701Y-84630048D01*
X136670701Y-88137720D01*
X135641494Y-89166928D01*
X134655000Y-89166928D01*
X134481746Y-89183992D01*
X134315150Y-89234528D01*
X134161614Y-89316595D01*
X134027038Y-89427038D01*
X133916595Y-89561614D01*
X133834528Y-89715150D01*
X133783992Y-89881746D01*
X133780224Y-89920000D01*
X130978879Y-89920000D01*
X123648834Y-82589956D01*
X123621117Y-82556183D01*
X123486359Y-82445589D01*
X123332613Y-82363411D01*
X123165790Y-82312805D01*
X123035777Y-82300000D01*
X123035769Y-82300000D01*
X122992300Y-82295719D01*
X122948831Y-82300000D01*
X119240078Y-82300000D01*
X119129608Y-82165392D01*
X118911101Y-81986068D01*
X118661808Y-81852818D01*
X118391309Y-81770764D01*
X118180492Y-81750000D01*
X118039508Y-81750000D01*
X117828691Y-81770764D01*
X117558192Y-81852818D01*
X117486200Y-81891299D01*
X117486200Y-75180000D01*
X119515479Y-75180000D01*
X119535363Y-75209759D01*
X119535363Y-75209759D01*
G37*
X119535363Y-75209759D02*
X119701943Y-75376339D01*
X119605820Y-75405498D01*
X119495506Y-75464463D01*
X119398815Y-75543815D01*
X119319463Y-75640506D01*
X119260498Y-75750820D01*
X119224188Y-75870518D01*
X119211928Y-75995000D01*
X119211928Y-77595000D01*
X119224188Y-77719482D01*
X119260498Y-77839180D01*
X119319463Y-77949494D01*
X119398815Y-78046185D01*
X119495506Y-78125537D01*
X119605820Y-78184502D01*
X119725518Y-78220812D01*
X119762769Y-78224481D01*
X119760719Y-78245300D01*
X119777805Y-78418790D01*
X119828412Y-78585613D01*
X119910590Y-78739359D01*
X119993468Y-78840346D01*
X119993471Y-78840349D01*
X120021184Y-78874117D01*
X120054952Y-78901830D01*
X126421370Y-85268249D01*
X126449083Y-85302017D01*
X126482851Y-85329730D01*
X126482853Y-85329732D01*
X126554352Y-85388410D01*
X126583841Y-85412611D01*
X126737587Y-85494789D01*
X126904410Y-85545395D01*
X127034423Y-85558200D01*
X127034433Y-85558200D01*
X127077899Y-85562481D01*
X127121365Y-85558200D01*
X128850431Y-85558200D01*
X128893900Y-85562481D01*
X128937369Y-85558200D01*
X128937377Y-85558200D01*
X129067390Y-85545395D01*
X129234213Y-85494789D01*
X129387959Y-85412611D01*
X129522717Y-85302017D01*
X129550434Y-85268244D01*
X131893600Y-82925079D01*
X132708570Y-83740049D01*
X132736283Y-83773817D01*
X132770051Y-83801530D01*
X132770053Y-83801532D01*
X132831074Y-83851611D01*
X132871041Y-83884411D01*
X133024787Y-83966589D01*
X133191610Y-84017195D01*
X133321623Y-84030000D01*
X133321633Y-84030000D01*
X133365099Y-84034281D01*
X133408565Y-84030000D01*
X134302890Y-84030000D01*
X134319528Y-84084850D01*
X134401595Y-84238386D01*
X134512038Y-84372962D01*
X134646614Y-84483405D01*
X134800150Y-84565472D01*
X134966746Y-84616008D01*
X135140000Y-84633072D01*
X136640000Y-84633072D01*
X136670701Y-84630048D01*
X136670701Y-88137720D01*
X135641494Y-89166928D01*
X134655000Y-89166928D01*
X134481746Y-89183992D01*
X134315150Y-89234528D01*
X134161614Y-89316595D01*
X134027038Y-89427038D01*
X133916595Y-89561614D01*
X133834528Y-89715150D01*
X133783992Y-89881746D01*
X133780224Y-89920000D01*
X130978879Y-89920000D01*
X123648834Y-82589956D01*
X123621117Y-82556183D01*
X123486359Y-82445589D01*
X123332613Y-82363411D01*
X123165790Y-82312805D01*
X123035777Y-82300000D01*
X123035769Y-82300000D01*
X122992300Y-82295719D01*
X122948831Y-82300000D01*
X119240078Y-82300000D01*
X119129608Y-82165392D01*
X118911101Y-81986068D01*
X118661808Y-81852818D01*
X118391309Y-81770764D01*
X118180492Y-81750000D01*
X118039508Y-81750000D01*
X117828691Y-81770764D01*
X117558192Y-81852818D01*
X117486200Y-81891299D01*
X117486200Y-75180000D01*
X119515479Y-75180000D01*
X119535363Y-75209759D01*
G36*
X124176220Y-87852299D02*
G01*
X124203933Y-87886067D01*
X124237701Y-87913780D01*
X124237703Y-87913782D01*
X124309202Y-87972460D01*
X124338691Y-87996661D01*
X124492437Y-88078839D01*
X124659260Y-88129445D01*
X124789273Y-88142250D01*
X124789283Y-88142250D01*
X124832749Y-88146531D01*
X124876215Y-88142250D01*
X124990672Y-88142250D01*
X125405350Y-88556928D01*
X124455000Y-88556928D01*
X124281746Y-88573992D01*
X124115150Y-88624528D01*
X123961614Y-88706595D01*
X123827038Y-88817038D01*
X123716595Y-88951614D01*
X123662223Y-89053337D01*
X123610134Y-88989866D01*
X123384014Y-88804294D01*
X123126034Y-88666401D01*
X122846111Y-88581487D01*
X122555000Y-88552815D01*
X122263890Y-88581487D01*
X122228731Y-88592152D01*
X119401534Y-85764956D01*
X119373817Y-85731183D01*
X119338380Y-85702100D01*
X122026022Y-85702100D01*
X124176220Y-87852299D01*
X124176220Y-87852299D01*
G37*
X124176220Y-87852299D02*
X124203933Y-87886067D01*
X124237701Y-87913780D01*
X124237703Y-87913782D01*
X124309202Y-87972460D01*
X124338691Y-87996661D01*
X124492437Y-88078839D01*
X124659260Y-88129445D01*
X124789273Y-88142250D01*
X124789283Y-88142250D01*
X124832749Y-88146531D01*
X124876215Y-88142250D01*
X124990672Y-88142250D01*
X125405350Y-88556928D01*
X124455000Y-88556928D01*
X124281746Y-88573992D01*
X124115150Y-88624528D01*
X123961614Y-88706595D01*
X123827038Y-88817038D01*
X123716595Y-88951614D01*
X123662223Y-89053337D01*
X123610134Y-88989866D01*
X123384014Y-88804294D01*
X123126034Y-88666401D01*
X122846111Y-88581487D01*
X122555000Y-88552815D01*
X122263890Y-88581487D01*
X122228731Y-88592152D01*
X119401534Y-85764956D01*
X119373817Y-85731183D01*
X119338380Y-85702100D01*
X122026022Y-85702100D01*
X124176220Y-87852299D01*
G36*
X97081686Y-86767490D02*
G01*
X97186995Y-87021727D01*
X97339880Y-87250535D01*
X97534465Y-87445120D01*
X97763273Y-87598005D01*
X97840515Y-87630000D01*
X97763273Y-87661995D01*
X97534465Y-87814880D01*
X97339880Y-88009465D01*
X97336182Y-88015000D01*
X95627779Y-88015000D01*
X97047443Y-86595336D01*
X97081686Y-86767490D01*
X97081686Y-86767490D01*
G37*
X97081686Y-86767490D02*
X97186995Y-87021727D01*
X97339880Y-87250535D01*
X97534465Y-87445120D01*
X97763273Y-87598005D01*
X97840515Y-87630000D01*
X97763273Y-87661995D01*
X97534465Y-87814880D01*
X97339880Y-88009465D01*
X97336182Y-88015000D01*
X95627779Y-88015000D01*
X97047443Y-86595336D01*
X97081686Y-86767490D01*
G36*
X97339880Y-82170535D02*
G01*
X97534465Y-82365120D01*
X97763273Y-82518005D01*
X97840515Y-82550000D01*
X97763273Y-82581995D01*
X97534465Y-82734880D01*
X97339880Y-82929465D01*
X97186995Y-83158273D01*
X97081686Y-83412510D01*
X97028000Y-83682408D01*
X97028000Y-83957592D01*
X97053555Y-84086066D01*
X95312505Y-85827117D01*
X95251680Y-85680273D01*
X95094637Y-85445241D01*
X94894759Y-85245363D01*
X94659727Y-85088320D01*
X94398574Y-84980147D01*
X94121335Y-84925000D01*
X93838665Y-84925000D01*
X93803561Y-84931983D01*
X93414600Y-84543022D01*
X93414600Y-82718072D01*
X94780000Y-82718072D01*
X94904482Y-82705812D01*
X95024180Y-82669502D01*
X95134494Y-82610537D01*
X95231185Y-82531185D01*
X95310537Y-82434494D01*
X95369502Y-82324180D01*
X95405812Y-82204482D01*
X95409701Y-82165000D01*
X97336182Y-82165000D01*
X97339880Y-82170535D01*
X97339880Y-82170535D01*
G37*
X97339880Y-82170535D02*
X97534465Y-82365120D01*
X97763273Y-82518005D01*
X97840515Y-82550000D01*
X97763273Y-82581995D01*
X97534465Y-82734880D01*
X97339880Y-82929465D01*
X97186995Y-83158273D01*
X97081686Y-83412510D01*
X97028000Y-83682408D01*
X97028000Y-83957592D01*
X97053555Y-84086066D01*
X95312505Y-85827117D01*
X95251680Y-85680273D01*
X95094637Y-85445241D01*
X94894759Y-85245363D01*
X94659727Y-85088320D01*
X94398574Y-84980147D01*
X94121335Y-84925000D01*
X93838665Y-84925000D01*
X93803561Y-84931983D01*
X93414600Y-84543022D01*
X93414600Y-82718072D01*
X94780000Y-82718072D01*
X94904482Y-82705812D01*
X95024180Y-82669502D01*
X95134494Y-82610537D01*
X95231185Y-82531185D01*
X95310537Y-82434494D01*
X95369502Y-82324180D01*
X95405812Y-82204482D01*
X95409701Y-82165000D01*
X97336182Y-82165000D01*
X97339880Y-82170535D01*
G36*
X115716200Y-83708231D02*
G01*
X115711919Y-83751700D01*
X115716200Y-83795169D01*
X115716200Y-83795176D01*
X115729005Y-83925189D01*
X115779611Y-84092012D01*
X115861789Y-84245758D01*
X115972383Y-84380517D01*
X116006156Y-84408234D01*
X117010070Y-85412149D01*
X117037783Y-85445917D01*
X117071551Y-85473630D01*
X117071553Y-85473632D01*
X117073220Y-85475000D01*
X114753818Y-85475000D01*
X114750120Y-85469465D01*
X114555535Y-85274880D01*
X114326727Y-85121995D01*
X114249485Y-85090000D01*
X114326727Y-85058005D01*
X114555535Y-84905120D01*
X114750120Y-84710535D01*
X114903005Y-84481727D01*
X115008314Y-84227490D01*
X115062000Y-83957592D01*
X115062000Y-83682408D01*
X115008314Y-83412510D01*
X114903005Y-83158273D01*
X114750120Y-82929465D01*
X114555535Y-82734880D01*
X114326727Y-82581995D01*
X114249485Y-82550000D01*
X114326727Y-82518005D01*
X114555535Y-82365120D01*
X114750120Y-82170535D01*
X114903005Y-81941727D01*
X115008314Y-81687490D01*
X115062000Y-81417592D01*
X115062000Y-81142408D01*
X115008314Y-80872510D01*
X114903005Y-80618273D01*
X114750120Y-80389465D01*
X114555535Y-80194880D01*
X114326727Y-80041995D01*
X114249485Y-80010000D01*
X114326727Y-79978005D01*
X114555535Y-79825120D01*
X114750120Y-79630535D01*
X114903005Y-79401727D01*
X115008314Y-79147490D01*
X115062000Y-78877592D01*
X115062000Y-78602408D01*
X115008314Y-78332510D01*
X114903005Y-78078273D01*
X114750120Y-77849465D01*
X114555535Y-77654880D01*
X114326727Y-77501995D01*
X114249485Y-77470000D01*
X114326727Y-77438005D01*
X114555535Y-77285120D01*
X114750120Y-77090535D01*
X114903005Y-76861727D01*
X115008314Y-76607490D01*
X115062000Y-76337592D01*
X115062000Y-76062408D01*
X115008314Y-75792510D01*
X114903005Y-75538273D01*
X114750120Y-75309465D01*
X114620655Y-75180000D01*
X115716201Y-75180000D01*
X115716200Y-83708231D01*
X115716200Y-83708231D01*
G37*
X115716200Y-83708231D02*
X115711919Y-83751700D01*
X115716200Y-83795169D01*
X115716200Y-83795176D01*
X115729005Y-83925189D01*
X115779611Y-84092012D01*
X115861789Y-84245758D01*
X115972383Y-84380517D01*
X116006156Y-84408234D01*
X117010070Y-85412149D01*
X117037783Y-85445917D01*
X117071551Y-85473630D01*
X117071553Y-85473632D01*
X117073220Y-85475000D01*
X114753818Y-85475000D01*
X114750120Y-85469465D01*
X114555535Y-85274880D01*
X114326727Y-85121995D01*
X114249485Y-85090000D01*
X114326727Y-85058005D01*
X114555535Y-84905120D01*
X114750120Y-84710535D01*
X114903005Y-84481727D01*
X115008314Y-84227490D01*
X115062000Y-83957592D01*
X115062000Y-83682408D01*
X115008314Y-83412510D01*
X114903005Y-83158273D01*
X114750120Y-82929465D01*
X114555535Y-82734880D01*
X114326727Y-82581995D01*
X114249485Y-82550000D01*
X114326727Y-82518005D01*
X114555535Y-82365120D01*
X114750120Y-82170535D01*
X114903005Y-81941727D01*
X115008314Y-81687490D01*
X115062000Y-81417592D01*
X115062000Y-81142408D01*
X115008314Y-80872510D01*
X114903005Y-80618273D01*
X114750120Y-80389465D01*
X114555535Y-80194880D01*
X114326727Y-80041995D01*
X114249485Y-80010000D01*
X114326727Y-79978005D01*
X114555535Y-79825120D01*
X114750120Y-79630535D01*
X114903005Y-79401727D01*
X115008314Y-79147490D01*
X115062000Y-78877592D01*
X115062000Y-78602408D01*
X115008314Y-78332510D01*
X114903005Y-78078273D01*
X114750120Y-77849465D01*
X114555535Y-77654880D01*
X114326727Y-77501995D01*
X114249485Y-77470000D01*
X114326727Y-77438005D01*
X114555535Y-77285120D01*
X114750120Y-77090535D01*
X114903005Y-76861727D01*
X115008314Y-76607490D01*
X115062000Y-76337592D01*
X115062000Y-76062408D01*
X115008314Y-75792510D01*
X114903005Y-75538273D01*
X114750120Y-75309465D01*
X114620655Y-75180000D01*
X115716201Y-75180000D01*
X115716200Y-83708231D01*
G36*
X127385001Y-76186280D02*
G01*
X127385000Y-82050479D01*
X127355241Y-82070363D01*
X127155363Y-82270241D01*
X126998320Y-82505273D01*
X126890147Y-82766426D01*
X126835000Y-83043665D01*
X126835000Y-83178721D01*
X121789715Y-78133437D01*
X121804494Y-78125537D01*
X121901185Y-78046185D01*
X121980537Y-77949494D01*
X122039502Y-77839180D01*
X122075812Y-77719482D01*
X122088072Y-77595000D01*
X122088072Y-75995000D01*
X122075812Y-75870518D01*
X122039502Y-75750820D01*
X121980537Y-75640506D01*
X121901185Y-75543815D01*
X121804494Y-75464463D01*
X121694180Y-75405498D01*
X121598057Y-75376339D01*
X121764637Y-75209759D01*
X121784521Y-75180000D01*
X126378722Y-75180000D01*
X127385001Y-76186280D01*
X127385001Y-76186280D01*
G37*
X127385001Y-76186280D02*
X127385000Y-82050479D01*
X127355241Y-82070363D01*
X127155363Y-82270241D01*
X126998320Y-82505273D01*
X126890147Y-82766426D01*
X126835000Y-83043665D01*
X126835000Y-83178721D01*
X121789715Y-78133437D01*
X121804494Y-78125537D01*
X121901185Y-78046185D01*
X121980537Y-77949494D01*
X122039502Y-77839180D01*
X122075812Y-77719482D01*
X122088072Y-77595000D01*
X122088072Y-75995000D01*
X122075812Y-75870518D01*
X122039502Y-75750820D01*
X121980537Y-75640506D01*
X121901185Y-75543815D01*
X121804494Y-75464463D01*
X121694180Y-75405498D01*
X121598057Y-75376339D01*
X121764637Y-75209759D01*
X121784521Y-75180000D01*
X126378722Y-75180000D01*
X127385001Y-76186280D01*
G36*
X129175000Y-79695572D02*
G01*
X129286923Y-79695572D01*
X129285719Y-79707800D01*
X129302805Y-79881290D01*
X129353412Y-80048113D01*
X129435590Y-80201859D01*
X129518468Y-80302846D01*
X129518471Y-80302849D01*
X129546184Y-80336617D01*
X129579951Y-80364329D01*
X130765571Y-81549950D01*
X129620342Y-82695180D01*
X129541680Y-82505273D01*
X129384637Y-82270241D01*
X129184759Y-82070363D01*
X129155000Y-82050479D01*
X129155000Y-79693602D01*
X129175000Y-79695572D01*
X129175000Y-79695572D01*
G37*
X129175000Y-79695572D02*
X129286923Y-79695572D01*
X129285719Y-79707800D01*
X129302805Y-79881290D01*
X129353412Y-80048113D01*
X129435590Y-80201859D01*
X129518468Y-80302846D01*
X129518471Y-80302849D01*
X129546184Y-80336617D01*
X129579951Y-80364329D01*
X130765571Y-81549950D01*
X129620342Y-82695180D01*
X129541680Y-82505273D01*
X129384637Y-82270241D01*
X129184759Y-82070363D01*
X129155000Y-82050479D01*
X129155000Y-79693602D01*
X129175000Y-79695572D01*
G36*
X135005000Y-79354042D02*
G01*
X134910986Y-79404294D01*
X134684866Y-79589866D01*
X134499294Y-79815986D01*
X134361401Y-80073966D01*
X134276487Y-80353889D01*
X134247815Y-80645000D01*
X134276487Y-80936111D01*
X134361401Y-81216034D01*
X134499294Y-81474014D01*
X134684866Y-81700134D01*
X134748337Y-81752223D01*
X134646614Y-81806595D01*
X134512038Y-81917038D01*
X134401595Y-82051614D01*
X134319528Y-82205150D01*
X134302890Y-82260000D01*
X133731679Y-82260000D01*
X132770297Y-81298619D01*
X132765795Y-81252910D01*
X132715189Y-81086087D01*
X132633011Y-80932341D01*
X132556171Y-80838712D01*
X132550132Y-80831353D01*
X132550130Y-80831351D01*
X132522417Y-80797583D01*
X132488650Y-80769871D01*
X131378209Y-79659430D01*
X131419180Y-79647002D01*
X131529494Y-79588037D01*
X131626185Y-79508685D01*
X131705537Y-79411994D01*
X131764502Y-79301680D01*
X131800812Y-79181982D01*
X131813072Y-79057500D01*
X131813072Y-77152500D01*
X131800812Y-77028018D01*
X131764502Y-76908320D01*
X131705537Y-76798006D01*
X131626185Y-76701315D01*
X131529494Y-76621963D01*
X131445554Y-76577095D01*
X131548845Y-76451235D01*
X131549505Y-76450000D01*
X135005001Y-76450000D01*
X135005000Y-79354042D01*
X135005000Y-79354042D01*
G37*
X135005000Y-79354042D02*
X134910986Y-79404294D01*
X134684866Y-79589866D01*
X134499294Y-79815986D01*
X134361401Y-80073966D01*
X134276487Y-80353889D01*
X134247815Y-80645000D01*
X134276487Y-80936111D01*
X134361401Y-81216034D01*
X134499294Y-81474014D01*
X134684866Y-81700134D01*
X134748337Y-81752223D01*
X134646614Y-81806595D01*
X134512038Y-81917038D01*
X134401595Y-82051614D01*
X134319528Y-82205150D01*
X134302890Y-82260000D01*
X133731679Y-82260000D01*
X132770297Y-81298619D01*
X132765795Y-81252910D01*
X132715189Y-81086087D01*
X132633011Y-80932341D01*
X132556171Y-80838712D01*
X132550132Y-80831353D01*
X132550130Y-80831351D01*
X132522417Y-80797583D01*
X132488650Y-80769871D01*
X131378209Y-79659430D01*
X131419180Y-79647002D01*
X131529494Y-79588037D01*
X131626185Y-79508685D01*
X131705537Y-79411994D01*
X131764502Y-79301680D01*
X131800812Y-79181982D01*
X131813072Y-79057500D01*
X131813072Y-77152500D01*
X131800812Y-77028018D01*
X131764502Y-76908320D01*
X131705537Y-76798006D01*
X131626185Y-76701315D01*
X131529494Y-76621963D01*
X131445554Y-76577095D01*
X131548845Y-76451235D01*
X131549505Y-76450000D01*
X135005001Y-76450000D01*
X135005000Y-79354042D01*
G36*
X81042805Y-73378790D02*
G01*
X81093412Y-73545613D01*
X81175590Y-73699359D01*
X81258468Y-73800346D01*
X81258471Y-73800349D01*
X81286184Y-73834117D01*
X81319951Y-73861829D01*
X84253168Y-76795047D01*
X84280883Y-76828817D01*
X84314651Y-76856530D01*
X84314653Y-76856532D01*
X84357073Y-76891345D01*
X84415641Y-76939411D01*
X84569387Y-77021589D01*
X84736210Y-77072195D01*
X84866223Y-77085000D01*
X84866233Y-77085000D01*
X84909699Y-77089281D01*
X84953165Y-77085000D01*
X85229922Y-77085000D01*
X85340392Y-77219608D01*
X85558899Y-77398932D01*
X85691858Y-77470000D01*
X85558899Y-77541068D01*
X85340392Y-77720392D01*
X85229922Y-77855000D01*
X84953176Y-77855000D01*
X84909700Y-77850718D01*
X84866223Y-77855000D01*
X84736210Y-77867805D01*
X84569387Y-77918411D01*
X84415641Y-78000589D01*
X84280883Y-78111183D01*
X84170289Y-78245941D01*
X84088111Y-78399687D01*
X84048650Y-78529771D01*
X82091439Y-80486983D01*
X82056335Y-80480000D01*
X81773665Y-80480000D01*
X81496426Y-80535147D01*
X81235273Y-80643320D01*
X81000241Y-80800363D01*
X80800363Y-81000241D01*
X80780479Y-81030000D01*
X75220000Y-81030000D01*
X75220000Y-76274759D01*
X75390134Y-76135134D01*
X75442223Y-76071663D01*
X75496595Y-76173386D01*
X75607038Y-76307962D01*
X75741614Y-76418405D01*
X75895150Y-76500472D01*
X76061746Y-76551008D01*
X76235000Y-76568072D01*
X77435000Y-76568072D01*
X77608254Y-76551008D01*
X77774850Y-76500472D01*
X77928386Y-76418405D01*
X78062962Y-76307962D01*
X78173405Y-76173386D01*
X78255472Y-76019850D01*
X78306008Y-75853254D01*
X78323072Y-75680000D01*
X78323072Y-74180000D01*
X78306008Y-74006746D01*
X78255472Y-73840150D01*
X78173405Y-73686614D01*
X78062962Y-73552038D01*
X77928386Y-73441595D01*
X77895540Y-73424038D01*
X77954479Y-73365100D01*
X81041457Y-73365100D01*
X81042805Y-73378790D01*
X81042805Y-73378790D01*
G37*
X81042805Y-73378790D02*
X81093412Y-73545613D01*
X81175590Y-73699359D01*
X81258468Y-73800346D01*
X81258471Y-73800349D01*
X81286184Y-73834117D01*
X81319951Y-73861829D01*
X84253168Y-76795047D01*
X84280883Y-76828817D01*
X84314651Y-76856530D01*
X84314653Y-76856532D01*
X84357073Y-76891345D01*
X84415641Y-76939411D01*
X84569387Y-77021589D01*
X84736210Y-77072195D01*
X84866223Y-77085000D01*
X84866233Y-77085000D01*
X84909699Y-77089281D01*
X84953165Y-77085000D01*
X85229922Y-77085000D01*
X85340392Y-77219608D01*
X85558899Y-77398932D01*
X85691858Y-77470000D01*
X85558899Y-77541068D01*
X85340392Y-77720392D01*
X85229922Y-77855000D01*
X84953176Y-77855000D01*
X84909700Y-77850718D01*
X84866223Y-77855000D01*
X84736210Y-77867805D01*
X84569387Y-77918411D01*
X84415641Y-78000589D01*
X84280883Y-78111183D01*
X84170289Y-78245941D01*
X84088111Y-78399687D01*
X84048650Y-78529771D01*
X82091439Y-80486983D01*
X82056335Y-80480000D01*
X81773665Y-80480000D01*
X81496426Y-80535147D01*
X81235273Y-80643320D01*
X81000241Y-80800363D01*
X80800363Y-81000241D01*
X80780479Y-81030000D01*
X75220000Y-81030000D01*
X75220000Y-76274759D01*
X75390134Y-76135134D01*
X75442223Y-76071663D01*
X75496595Y-76173386D01*
X75607038Y-76307962D01*
X75741614Y-76418405D01*
X75895150Y-76500472D01*
X76061746Y-76551008D01*
X76235000Y-76568072D01*
X77435000Y-76568072D01*
X77608254Y-76551008D01*
X77774850Y-76500472D01*
X77928386Y-76418405D01*
X78062962Y-76307962D01*
X78173405Y-76173386D01*
X78255472Y-76019850D01*
X78306008Y-75853254D01*
X78323072Y-75680000D01*
X78323072Y-74180000D01*
X78306008Y-74006746D01*
X78255472Y-73840150D01*
X78173405Y-73686614D01*
X78062962Y-73552038D01*
X77928386Y-73441595D01*
X77895540Y-73424038D01*
X77954479Y-73365100D01*
X81041457Y-73365100D01*
X81042805Y-73378790D01*
G36*
X97186995Y-76861727D02*
G01*
X97339880Y-77090535D01*
X97534465Y-77285120D01*
X97763273Y-77438005D01*
X97840515Y-77470000D01*
X97763273Y-77501995D01*
X97534465Y-77654880D01*
X97339880Y-77849465D01*
X97186995Y-78078273D01*
X97081686Y-78332510D01*
X97028000Y-78602408D01*
X97028000Y-78877592D01*
X97081686Y-79147490D01*
X97186995Y-79401727D01*
X97339880Y-79630535D01*
X97534465Y-79825120D01*
X97763273Y-79978005D01*
X97840515Y-80010000D01*
X97763273Y-80041995D01*
X97534465Y-80194880D01*
X97339880Y-80389465D01*
X97336182Y-80395000D01*
X95409701Y-80395000D01*
X95405812Y-80355518D01*
X95369502Y-80235820D01*
X95310537Y-80125506D01*
X95231185Y-80028815D01*
X95134494Y-79949463D01*
X95024180Y-79890498D01*
X94904482Y-79854188D01*
X94886518Y-79852419D01*
X94999608Y-79759608D01*
X95178932Y-79541101D01*
X95312182Y-79291808D01*
X95394236Y-79021309D01*
X95421943Y-78740000D01*
X95404875Y-78566704D01*
X97164400Y-76807179D01*
X97186995Y-76861727D01*
X97186995Y-76861727D01*
G37*
X97186995Y-76861727D02*
X97339880Y-77090535D01*
X97534465Y-77285120D01*
X97763273Y-77438005D01*
X97840515Y-77470000D01*
X97763273Y-77501995D01*
X97534465Y-77654880D01*
X97339880Y-77849465D01*
X97186995Y-78078273D01*
X97081686Y-78332510D01*
X97028000Y-78602408D01*
X97028000Y-78877592D01*
X97081686Y-79147490D01*
X97186995Y-79401727D01*
X97339880Y-79630535D01*
X97534465Y-79825120D01*
X97763273Y-79978005D01*
X97840515Y-80010000D01*
X97763273Y-80041995D01*
X97534465Y-80194880D01*
X97339880Y-80389465D01*
X97336182Y-80395000D01*
X95409701Y-80395000D01*
X95405812Y-80355518D01*
X95369502Y-80235820D01*
X95310537Y-80125506D01*
X95231185Y-80028815D01*
X95134494Y-79949463D01*
X95024180Y-79890498D01*
X94904482Y-79854188D01*
X94886518Y-79852419D01*
X94999608Y-79759608D01*
X95178932Y-79541101D01*
X95312182Y-79291808D01*
X95394236Y-79021309D01*
X95421943Y-78740000D01*
X95404875Y-78566704D01*
X97164400Y-76807179D01*
X97186995Y-76861727D01*
G36*
X92565764Y-76481309D02*
G01*
X92647818Y-76751808D01*
X92781068Y-77001101D01*
X92960392Y-77219608D01*
X93178899Y-77398932D01*
X93311858Y-77470000D01*
X93178899Y-77541068D01*
X92960392Y-77720392D01*
X92781068Y-77938899D01*
X92647818Y-78188192D01*
X92565764Y-78458691D01*
X92538057Y-78740000D01*
X92555125Y-78913296D01*
X92366600Y-79101822D01*
X92366600Y-76524978D01*
X92551822Y-76339756D01*
X92565764Y-76481309D01*
X92565764Y-76481309D01*
G37*
X92565764Y-76481309D02*
X92647818Y-76751808D01*
X92781068Y-77001101D01*
X92960392Y-77219608D01*
X93178899Y-77398932D01*
X93311858Y-77470000D01*
X93178899Y-77541068D01*
X92960392Y-77720392D01*
X92781068Y-77938899D01*
X92647818Y-78188192D01*
X92565764Y-78458691D01*
X92538057Y-78740000D01*
X92555125Y-78913296D01*
X92366600Y-79101822D01*
X92366600Y-76524978D01*
X92551822Y-76339756D01*
X92565764Y-76481309D01*
G36*
X100215000Y-72256578D02*
G01*
X100215000Y-72526411D01*
X100268225Y-72793989D01*
X100372629Y-73046043D01*
X100524201Y-73272886D01*
X100717114Y-73465799D01*
X100943957Y-73617371D01*
X101196011Y-73721775D01*
X101463589Y-73775000D01*
X101736411Y-73775000D01*
X102003989Y-73721775D01*
X102256043Y-73617371D01*
X102376613Y-73536809D01*
X99822000Y-76091422D01*
X99822000Y-76062408D01*
X99768314Y-75792510D01*
X99663005Y-75538273D01*
X99510120Y-75309465D01*
X99315535Y-75114880D01*
X99086727Y-74961995D01*
X99009485Y-74930000D01*
X99086727Y-74898005D01*
X99315535Y-74745120D01*
X99510120Y-74550535D01*
X99663005Y-74321727D01*
X99768314Y-74067490D01*
X99822000Y-73797592D01*
X99822000Y-73522408D01*
X99768314Y-73252510D01*
X99663005Y-72998273D01*
X99510120Y-72769465D01*
X99315535Y-72574880D01*
X99086727Y-72421995D01*
X99009485Y-72390000D01*
X99086727Y-72358005D01*
X99315535Y-72205120D01*
X99510120Y-72010535D01*
X99513818Y-72005000D01*
X99963422Y-72005000D01*
X100215000Y-72256578D01*
X100215000Y-72256578D01*
G37*
X100215000Y-72256578D02*
X100215000Y-72526411D01*
X100268225Y-72793989D01*
X100372629Y-73046043D01*
X100524201Y-73272886D01*
X100717114Y-73465799D01*
X100943957Y-73617371D01*
X101196011Y-73721775D01*
X101463589Y-73775000D01*
X101736411Y-73775000D01*
X102003989Y-73721775D01*
X102256043Y-73617371D01*
X102376613Y-73536809D01*
X99822000Y-76091422D01*
X99822000Y-76062408D01*
X99768314Y-75792510D01*
X99663005Y-75538273D01*
X99510120Y-75309465D01*
X99315535Y-75114880D01*
X99086727Y-74961995D01*
X99009485Y-74930000D01*
X99086727Y-74898005D01*
X99315535Y-74745120D01*
X99510120Y-74550535D01*
X99663005Y-74321727D01*
X99768314Y-74067490D01*
X99822000Y-73797592D01*
X99822000Y-73522408D01*
X99768314Y-73252510D01*
X99663005Y-72998273D01*
X99510120Y-72769465D01*
X99315535Y-72574880D01*
X99086727Y-72421995D01*
X99009485Y-72390000D01*
X99086727Y-72358005D01*
X99315535Y-72205120D01*
X99510120Y-72010535D01*
X99513818Y-72005000D01*
X99963422Y-72005000D01*
X100215000Y-72256578D01*
G36*
X96127600Y-75340821D02*
G01*
X95408178Y-76060243D01*
X95404875Y-76026704D01*
X96127600Y-75303979D01*
X96127600Y-75340821D01*
X96127600Y-75340821D01*
G37*
X96127600Y-75340821D02*
X95408178Y-76060243D01*
X95404875Y-76026704D01*
X96127600Y-75303979D01*
X96127600Y-75340821D01*
G36*
X128801155Y-72138765D02*
G01*
X128653745Y-72414551D01*
X128562970Y-72713796D01*
X128532319Y-73025000D01*
X128562970Y-73336204D01*
X128653745Y-73635449D01*
X128801155Y-73911235D01*
X128999537Y-74152963D01*
X129172609Y-74295000D01*
X128999537Y-74437037D01*
X128801155Y-74678765D01*
X128800495Y-74680000D01*
X128568165Y-74680000D01*
X128524699Y-74675719D01*
X128481233Y-74680000D01*
X128481223Y-74680000D01*
X128390786Y-74688907D01*
X127401834Y-73699956D01*
X127374117Y-73666183D01*
X127239359Y-73555589D01*
X127085613Y-73473411D01*
X126918790Y-73422805D01*
X126788777Y-73410000D01*
X126788769Y-73410000D01*
X126745300Y-73405719D01*
X126701831Y-73410000D01*
X121784521Y-73410000D01*
X121764637Y-73380241D01*
X121564759Y-73180363D01*
X121329727Y-73023320D01*
X121068574Y-72915147D01*
X120791335Y-72860000D01*
X120508665Y-72860000D01*
X120231426Y-72915147D01*
X119970273Y-73023320D01*
X119735241Y-73180363D01*
X119535363Y-73380241D01*
X119515479Y-73410000D01*
X116644677Y-73410000D01*
X116601200Y-73405718D01*
X116557724Y-73410000D01*
X115039641Y-73410000D01*
X115008314Y-73252510D01*
X114903005Y-72998273D01*
X114750120Y-72769465D01*
X114555535Y-72574880D01*
X114326727Y-72421995D01*
X114249485Y-72390000D01*
X114326727Y-72358005D01*
X114555535Y-72205120D01*
X114750120Y-72010535D01*
X114753818Y-72005000D01*
X128910934Y-72005000D01*
X128801155Y-72138765D01*
X128801155Y-72138765D01*
G37*
X128801155Y-72138765D02*
X128653745Y-72414551D01*
X128562970Y-72713796D01*
X128532319Y-73025000D01*
X128562970Y-73336204D01*
X128653745Y-73635449D01*
X128801155Y-73911235D01*
X128999537Y-74152963D01*
X129172609Y-74295000D01*
X128999537Y-74437037D01*
X128801155Y-74678765D01*
X128800495Y-74680000D01*
X128568165Y-74680000D01*
X128524699Y-74675719D01*
X128481233Y-74680000D01*
X128481223Y-74680000D01*
X128390786Y-74688907D01*
X127401834Y-73699956D01*
X127374117Y-73666183D01*
X127239359Y-73555589D01*
X127085613Y-73473411D01*
X126918790Y-73422805D01*
X126788777Y-73410000D01*
X126788769Y-73410000D01*
X126745300Y-73405719D01*
X126701831Y-73410000D01*
X121784521Y-73410000D01*
X121764637Y-73380241D01*
X121564759Y-73180363D01*
X121329727Y-73023320D01*
X121068574Y-72915147D01*
X120791335Y-72860000D01*
X120508665Y-72860000D01*
X120231426Y-72915147D01*
X119970273Y-73023320D01*
X119735241Y-73180363D01*
X119535363Y-73380241D01*
X119515479Y-73410000D01*
X116644677Y-73410000D01*
X116601200Y-73405718D01*
X116557724Y-73410000D01*
X115039641Y-73410000D01*
X115008314Y-73252510D01*
X114903005Y-72998273D01*
X114750120Y-72769465D01*
X114555535Y-72574880D01*
X114326727Y-72421995D01*
X114249485Y-72390000D01*
X114326727Y-72358005D01*
X114555535Y-72205120D01*
X114750120Y-72010535D01*
X114753818Y-72005000D01*
X128910934Y-72005000D01*
X128801155Y-72138765D01*
G36*
X134464188Y-73219482D02*
G01*
X134500498Y-73339180D01*
X134559463Y-73449494D01*
X134638815Y-73546185D01*
X134655393Y-73559790D01*
X134618320Y-73615273D01*
X134510147Y-73876426D01*
X134455000Y-74153665D01*
X134455000Y-74436335D01*
X134503469Y-74680000D01*
X131549505Y-74680000D01*
X131548845Y-74678765D01*
X131350463Y-74437037D01*
X131177391Y-74295000D01*
X131350463Y-74152963D01*
X131548845Y-73911235D01*
X131549505Y-73910000D01*
X131781831Y-73910000D01*
X131825300Y-73914281D01*
X131868769Y-73910000D01*
X131868777Y-73910000D01*
X131998790Y-73897195D01*
X132165613Y-73846589D01*
X132319359Y-73764411D01*
X132454117Y-73653817D01*
X132481834Y-73620044D01*
X132921879Y-73180000D01*
X134460299Y-73180000D01*
X134464188Y-73219482D01*
X134464188Y-73219482D01*
G37*
X134464188Y-73219482D02*
X134500498Y-73339180D01*
X134559463Y-73449494D01*
X134638815Y-73546185D01*
X134655393Y-73559790D01*
X134618320Y-73615273D01*
X134510147Y-73876426D01*
X134455000Y-74153665D01*
X134455000Y-74436335D01*
X134503469Y-74680000D01*
X131549505Y-74680000D01*
X131548845Y-74678765D01*
X131350463Y-74437037D01*
X131177391Y-74295000D01*
X131350463Y-74152963D01*
X131548845Y-73911235D01*
X131549505Y-73910000D01*
X131781831Y-73910000D01*
X131825300Y-73914281D01*
X131868769Y-73910000D01*
X131868777Y-73910000D01*
X131998790Y-73897195D01*
X132165613Y-73846589D01*
X132319359Y-73764411D01*
X132454117Y-73653817D01*
X132481834Y-73620044D01*
X132921879Y-73180000D01*
X134460299Y-73180000D01*
X134464188Y-73219482D01*
G36*
X102746809Y-73166613D02*
G01*
X102827371Y-73046043D01*
X102931775Y-72793989D01*
X102985000Y-72526411D01*
X102985000Y-72253589D01*
X102931775Y-71986011D01*
X102827371Y-71733957D01*
X102783904Y-71668904D01*
X102848957Y-71712371D01*
X103101011Y-71816775D01*
X103368589Y-71870000D01*
X103641411Y-71870000D01*
X103908989Y-71816775D01*
X104161043Y-71712371D01*
X104281612Y-71631809D01*
X102746809Y-73166613D01*
X102746809Y-73166613D01*
G37*
X102746809Y-73166613D02*
X102827371Y-73046043D01*
X102931775Y-72793989D01*
X102985000Y-72526411D01*
X102985000Y-72253589D01*
X102931775Y-71986011D01*
X102827371Y-71733957D01*
X102783904Y-71668904D01*
X102848957Y-71712371D01*
X103101011Y-71816775D01*
X103368589Y-71870000D01*
X103641411Y-71870000D01*
X103908989Y-71816775D01*
X104161043Y-71712371D01*
X104281612Y-71631809D01*
X102746809Y-73166613D01*
G36*
X106813422Y-72275000D02*
G01*
X106543589Y-72275000D01*
X106276011Y-72328225D01*
X106023957Y-72432629D01*
X105903388Y-72513191D01*
X107839979Y-70576600D01*
X108511821Y-70576600D01*
X106813422Y-72275000D01*
X106813422Y-72275000D01*
G37*
X106813422Y-72275000D02*
X106543589Y-72275000D01*
X106276011Y-72328225D01*
X106023957Y-72432629D01*
X105903388Y-72513191D01*
X107839979Y-70576600D01*
X108511821Y-70576600D01*
X106813422Y-72275000D01*
G36*
X135814650Y-70856928D02*
G01*
X135090000Y-70856928D01*
X134965518Y-70869188D01*
X134845820Y-70905498D01*
X134735506Y-70964463D01*
X134638815Y-71043815D01*
X134559463Y-71140506D01*
X134500498Y-71250820D01*
X134464188Y-71370518D01*
X134460299Y-71410000D01*
X132598769Y-71410000D01*
X132555300Y-71405719D01*
X132511831Y-71410000D01*
X132511823Y-71410000D01*
X132381810Y-71422805D01*
X132214987Y-71473411D01*
X132131931Y-71517805D01*
X132061241Y-71555589D01*
X131960253Y-71638468D01*
X131960251Y-71638470D01*
X131926483Y-71666183D01*
X131898770Y-71699951D01*
X131508778Y-72089944D01*
X131350463Y-71897037D01*
X131108735Y-71698655D01*
X131060000Y-71672606D01*
X131060000Y-71465665D01*
X131064281Y-71422199D01*
X131060000Y-71378733D01*
X131060000Y-71378723D01*
X131047195Y-71248710D01*
X130996589Y-71081887D01*
X130914411Y-70928141D01*
X130803817Y-70793383D01*
X130770044Y-70765666D01*
X130580978Y-70576600D01*
X135534322Y-70576600D01*
X135814650Y-70856928D01*
X135814650Y-70856928D01*
G37*
X135814650Y-70856928D02*
X135090000Y-70856928D01*
X134965518Y-70869188D01*
X134845820Y-70905498D01*
X134735506Y-70964463D01*
X134638815Y-71043815D01*
X134559463Y-71140506D01*
X134500498Y-71250820D01*
X134464188Y-71370518D01*
X134460299Y-71410000D01*
X132598769Y-71410000D01*
X132555300Y-71405719D01*
X132511831Y-71410000D01*
X132511823Y-71410000D01*
X132381810Y-71422805D01*
X132214987Y-71473411D01*
X132131931Y-71517805D01*
X132061241Y-71555589D01*
X131960253Y-71638468D01*
X131960251Y-71638470D01*
X131926483Y-71666183D01*
X131898770Y-71699951D01*
X131508778Y-72089944D01*
X131350463Y-71897037D01*
X131108735Y-71698655D01*
X131060000Y-71672606D01*
X131060000Y-71465665D01*
X131064281Y-71422199D01*
X131060000Y-71378733D01*
X131060000Y-71378723D01*
X131047195Y-71248710D01*
X130996589Y-71081887D01*
X130914411Y-70928141D01*
X130803817Y-70793383D01*
X130770044Y-70765666D01*
X130580978Y-70576600D01*
X135534322Y-70576600D01*
X135814650Y-70856928D01*
G36*
X104651809Y-71261612D02*
G01*
X104732371Y-71141043D01*
X104836775Y-70888989D01*
X104890000Y-70621411D01*
X104890000Y-70348589D01*
X104836775Y-70081011D01*
X104732371Y-69828957D01*
X104580799Y-69602114D01*
X104387886Y-69409201D01*
X104161043Y-69257629D01*
X104118483Y-69240000D01*
X106673421Y-69240000D01*
X104651809Y-71261612D01*
X104651809Y-71261612D01*
G37*
X104651809Y-71261612D02*
X104732371Y-71141043D01*
X104836775Y-70888989D01*
X104890000Y-70621411D01*
X104890000Y-70348589D01*
X104836775Y-70081011D01*
X104732371Y-69828957D01*
X104580799Y-69602114D01*
X104387886Y-69409201D01*
X104161043Y-69257629D01*
X104118483Y-69240000D01*
X106673421Y-69240000D01*
X104651809Y-71261612D01*
G36*
X102120000Y-70621411D02*
G01*
X102173225Y-70888989D01*
X102277629Y-71141043D01*
X102321096Y-71206096D01*
X102256043Y-71162629D01*
X102003989Y-71058225D01*
X101736411Y-71005000D01*
X101466578Y-71005000D01*
X101054577Y-70592999D01*
X102120000Y-70592999D01*
X102120000Y-70621411D01*
X102120000Y-70621411D01*
G37*
X102120000Y-70621411D02*
X102173225Y-70888989D01*
X102277629Y-71141043D01*
X102321096Y-71206096D01*
X102256043Y-71162629D01*
X102003989Y-71058225D01*
X101736411Y-71005000D01*
X101466578Y-71005000D01*
X101054577Y-70592999D01*
X102120000Y-70592999D01*
X102120000Y-70621411D01*
M02*
