G04 #@! TF.GenerationSoftware,KiCad,Pcbnew,(5.1.2)-2*
G04 #@! TF.CreationDate,2021-07-08T12:20:00+09:00*
G04 #@! TF.ProjectId,RIOboard,52494f62-6f61-4726-942e-6b696361645f,rev?*
G04 #@! TF.SameCoordinates,Original*
G04 #@! TF.FileFunction,Copper,L1,Top*
G04 #@! TF.FilePolarity,Positive*
%FSLAX46Y46*%
G04 Gerber Fmt 4.6, Leading zero omitted, Abs format (unit mm)*
G04 Created by KiCad (PCBNEW (5.1.2)-2) date 2021-07-08 12:20:00*
%MOMM*%
%LPD*%
G04 APERTURE LIST*
%ADD10R,1.600000X1.600000*%
%ADD11O,1.600000X1.600000*%
%ADD12C,1.524000*%
%ADD13C,1.600000*%
%ADD14C,0.100000*%
%ADD15C,1.700000*%
%ADD16O,1.700000X2.000000*%
%ADD17R,1.700000X1.700000*%
%ADD18O,1.700000X1.700000*%
%ADD19C,1.500000*%
%ADD20C,1.800000*%
%ADD21C,0.500000*%
%ADD22C,0.254000*%
G04 APERTURE END LIST*
D10*
X55945000Y-156910000D03*
D11*
X48325000Y-149290000D03*
X55945000Y-154370000D03*
X48325000Y-151830000D03*
X55945000Y-151830000D03*
X48325000Y-154370000D03*
X55945000Y-149290000D03*
X48325000Y-156910000D03*
D12*
X66040000Y-138430000D03*
X66040000Y-140970000D03*
X66040000Y-143510000D03*
X66040000Y-146050000D03*
X66040000Y-148590000D03*
X66040000Y-151130000D03*
X66040000Y-153670000D03*
X66040000Y-156210000D03*
X66040000Y-158750000D03*
X66040000Y-161290000D03*
X66040000Y-163830000D03*
X66040000Y-166370000D03*
X66040000Y-168910000D03*
X66040000Y-171450000D03*
X81280000Y-171450000D03*
X81280000Y-168910000D03*
X81280000Y-166370000D03*
X81280000Y-163830000D03*
X81280000Y-161290000D03*
X81280000Y-158750000D03*
X81280000Y-156210000D03*
X81280000Y-153670000D03*
X81280000Y-151130000D03*
X81280000Y-148590000D03*
X81280000Y-146050000D03*
X81280000Y-143510000D03*
X81280000Y-140970000D03*
X81280000Y-138430000D03*
D13*
X44450000Y-158115000D03*
D11*
X44450000Y-147955000D03*
D13*
X46990000Y-161290000D03*
D11*
X57150000Y-161290000D03*
D14*
G36*
X45074504Y-169181204D02*
G01*
X45098773Y-169184804D01*
X45122571Y-169190765D01*
X45145671Y-169199030D01*
X45167849Y-169209520D01*
X45188893Y-169222133D01*
X45208598Y-169236747D01*
X45226777Y-169253223D01*
X45243253Y-169271402D01*
X45257867Y-169291107D01*
X45270480Y-169312151D01*
X45280970Y-169334329D01*
X45289235Y-169357429D01*
X45295196Y-169381227D01*
X45298796Y-169405496D01*
X45300000Y-169430000D01*
X45300000Y-170930000D01*
X45298796Y-170954504D01*
X45295196Y-170978773D01*
X45289235Y-171002571D01*
X45280970Y-171025671D01*
X45270480Y-171047849D01*
X45257867Y-171068893D01*
X45243253Y-171088598D01*
X45226777Y-171106777D01*
X45208598Y-171123253D01*
X45188893Y-171137867D01*
X45167849Y-171150480D01*
X45145671Y-171160970D01*
X45122571Y-171169235D01*
X45098773Y-171175196D01*
X45074504Y-171178796D01*
X45050000Y-171180000D01*
X43850000Y-171180000D01*
X43825496Y-171178796D01*
X43801227Y-171175196D01*
X43777429Y-171169235D01*
X43754329Y-171160970D01*
X43732151Y-171150480D01*
X43711107Y-171137867D01*
X43691402Y-171123253D01*
X43673223Y-171106777D01*
X43656747Y-171088598D01*
X43642133Y-171068893D01*
X43629520Y-171047849D01*
X43619030Y-171025671D01*
X43610765Y-171002571D01*
X43604804Y-170978773D01*
X43601204Y-170954504D01*
X43600000Y-170930000D01*
X43600000Y-169430000D01*
X43601204Y-169405496D01*
X43604804Y-169381227D01*
X43610765Y-169357429D01*
X43619030Y-169334329D01*
X43629520Y-169312151D01*
X43642133Y-169291107D01*
X43656747Y-169271402D01*
X43673223Y-169253223D01*
X43691402Y-169236747D01*
X43711107Y-169222133D01*
X43732151Y-169209520D01*
X43754329Y-169199030D01*
X43777429Y-169190765D01*
X43801227Y-169184804D01*
X43825496Y-169181204D01*
X43850000Y-169180000D01*
X45050000Y-169180000D01*
X45074504Y-169181204D01*
X45074504Y-169181204D01*
G37*
D15*
X44450000Y-170180000D03*
D16*
X46950000Y-170180000D03*
D14*
G36*
X57139504Y-169181204D02*
G01*
X57163773Y-169184804D01*
X57187571Y-169190765D01*
X57210671Y-169199030D01*
X57232849Y-169209520D01*
X57253893Y-169222133D01*
X57273598Y-169236747D01*
X57291777Y-169253223D01*
X57308253Y-169271402D01*
X57322867Y-169291107D01*
X57335480Y-169312151D01*
X57345970Y-169334329D01*
X57354235Y-169357429D01*
X57360196Y-169381227D01*
X57363796Y-169405496D01*
X57365000Y-169430000D01*
X57365000Y-170930000D01*
X57363796Y-170954504D01*
X57360196Y-170978773D01*
X57354235Y-171002571D01*
X57345970Y-171025671D01*
X57335480Y-171047849D01*
X57322867Y-171068893D01*
X57308253Y-171088598D01*
X57291777Y-171106777D01*
X57273598Y-171123253D01*
X57253893Y-171137867D01*
X57232849Y-171150480D01*
X57210671Y-171160970D01*
X57187571Y-171169235D01*
X57163773Y-171175196D01*
X57139504Y-171178796D01*
X57115000Y-171180000D01*
X55915000Y-171180000D01*
X55890496Y-171178796D01*
X55866227Y-171175196D01*
X55842429Y-171169235D01*
X55819329Y-171160970D01*
X55797151Y-171150480D01*
X55776107Y-171137867D01*
X55756402Y-171123253D01*
X55738223Y-171106777D01*
X55721747Y-171088598D01*
X55707133Y-171068893D01*
X55694520Y-171047849D01*
X55684030Y-171025671D01*
X55675765Y-171002571D01*
X55669804Y-170978773D01*
X55666204Y-170954504D01*
X55665000Y-170930000D01*
X55665000Y-169430000D01*
X55666204Y-169405496D01*
X55669804Y-169381227D01*
X55675765Y-169357429D01*
X55684030Y-169334329D01*
X55694520Y-169312151D01*
X55707133Y-169291107D01*
X55721747Y-169271402D01*
X55738223Y-169253223D01*
X55756402Y-169236747D01*
X55776107Y-169222133D01*
X55797151Y-169209520D01*
X55819329Y-169199030D01*
X55842429Y-169190765D01*
X55866227Y-169184804D01*
X55890496Y-169181204D01*
X55915000Y-169180000D01*
X57115000Y-169180000D01*
X57139504Y-169181204D01*
X57139504Y-169181204D01*
G37*
D15*
X56515000Y-170180000D03*
D16*
X59015000Y-170180000D03*
D17*
X50800000Y-134620000D03*
D18*
X48260000Y-134620000D03*
X50800000Y-137160000D03*
X48260000Y-137160000D03*
X50800000Y-139700000D03*
X48260000Y-139700000D03*
X50800000Y-142240000D03*
X48260000Y-142240000D03*
D14*
G36*
X34681756Y-133236806D02*
G01*
X34718159Y-133242206D01*
X34753857Y-133251147D01*
X34788506Y-133263545D01*
X34821774Y-133279280D01*
X34853339Y-133298199D01*
X34882897Y-133320121D01*
X34910165Y-133344835D01*
X34934879Y-133372103D01*
X34956801Y-133401661D01*
X34975720Y-133433226D01*
X34991455Y-133466494D01*
X35003853Y-133501143D01*
X35012794Y-133536841D01*
X35018194Y-133573244D01*
X35020000Y-133610000D01*
X35020000Y-134360000D01*
X35018194Y-134396756D01*
X35012794Y-134433159D01*
X35003853Y-134468857D01*
X34991455Y-134503506D01*
X34975720Y-134536774D01*
X34956801Y-134568339D01*
X34934879Y-134597897D01*
X34910165Y-134625165D01*
X34882897Y-134649879D01*
X34853339Y-134671801D01*
X34821774Y-134690720D01*
X34788506Y-134706455D01*
X34753857Y-134718853D01*
X34718159Y-134727794D01*
X34681756Y-134733194D01*
X34645000Y-134735000D01*
X31395000Y-134735000D01*
X31358244Y-134733194D01*
X31321841Y-134727794D01*
X31286143Y-134718853D01*
X31251494Y-134706455D01*
X31218226Y-134690720D01*
X31186661Y-134671801D01*
X31157103Y-134649879D01*
X31129835Y-134625165D01*
X31105121Y-134597897D01*
X31083199Y-134568339D01*
X31064280Y-134536774D01*
X31048545Y-134503506D01*
X31036147Y-134468857D01*
X31027206Y-134433159D01*
X31021806Y-134396756D01*
X31020000Y-134360000D01*
X31020000Y-133610000D01*
X31021806Y-133573244D01*
X31027206Y-133536841D01*
X31036147Y-133501143D01*
X31048545Y-133466494D01*
X31064280Y-133433226D01*
X31083199Y-133401661D01*
X31105121Y-133372103D01*
X31129835Y-133344835D01*
X31157103Y-133320121D01*
X31186661Y-133298199D01*
X31218226Y-133279280D01*
X31251494Y-133263545D01*
X31286143Y-133251147D01*
X31321841Y-133242206D01*
X31358244Y-133236806D01*
X31395000Y-133235000D01*
X34645000Y-133235000D01*
X34681756Y-133236806D01*
X34681756Y-133236806D01*
G37*
D19*
X33020000Y-133985000D03*
D14*
G36*
X34681756Y-135776806D02*
G01*
X34718159Y-135782206D01*
X34753857Y-135791147D01*
X34788506Y-135803545D01*
X34821774Y-135819280D01*
X34853339Y-135838199D01*
X34882897Y-135860121D01*
X34910165Y-135884835D01*
X34934879Y-135912103D01*
X34956801Y-135941661D01*
X34975720Y-135973226D01*
X34991455Y-136006494D01*
X35003853Y-136041143D01*
X35012794Y-136076841D01*
X35018194Y-136113244D01*
X35020000Y-136150000D01*
X35020000Y-136900000D01*
X35018194Y-136936756D01*
X35012794Y-136973159D01*
X35003853Y-137008857D01*
X34991455Y-137043506D01*
X34975720Y-137076774D01*
X34956801Y-137108339D01*
X34934879Y-137137897D01*
X34910165Y-137165165D01*
X34882897Y-137189879D01*
X34853339Y-137211801D01*
X34821774Y-137230720D01*
X34788506Y-137246455D01*
X34753857Y-137258853D01*
X34718159Y-137267794D01*
X34681756Y-137273194D01*
X34645000Y-137275000D01*
X31395000Y-137275000D01*
X31358244Y-137273194D01*
X31321841Y-137267794D01*
X31286143Y-137258853D01*
X31251494Y-137246455D01*
X31218226Y-137230720D01*
X31186661Y-137211801D01*
X31157103Y-137189879D01*
X31129835Y-137165165D01*
X31105121Y-137137897D01*
X31083199Y-137108339D01*
X31064280Y-137076774D01*
X31048545Y-137043506D01*
X31036147Y-137008857D01*
X31027206Y-136973159D01*
X31021806Y-136936756D01*
X31020000Y-136900000D01*
X31020000Y-136150000D01*
X31021806Y-136113244D01*
X31027206Y-136076841D01*
X31036147Y-136041143D01*
X31048545Y-136006494D01*
X31064280Y-135973226D01*
X31083199Y-135941661D01*
X31105121Y-135912103D01*
X31129835Y-135884835D01*
X31157103Y-135860121D01*
X31186661Y-135838199D01*
X31218226Y-135819280D01*
X31251494Y-135803545D01*
X31286143Y-135791147D01*
X31321841Y-135782206D01*
X31358244Y-135776806D01*
X31395000Y-135775000D01*
X34645000Y-135775000D01*
X34681756Y-135776806D01*
X34681756Y-135776806D01*
G37*
D19*
X33020000Y-136525000D03*
D14*
G36*
X34681756Y-138316806D02*
G01*
X34718159Y-138322206D01*
X34753857Y-138331147D01*
X34788506Y-138343545D01*
X34821774Y-138359280D01*
X34853339Y-138378199D01*
X34882897Y-138400121D01*
X34910165Y-138424835D01*
X34934879Y-138452103D01*
X34956801Y-138481661D01*
X34975720Y-138513226D01*
X34991455Y-138546494D01*
X35003853Y-138581143D01*
X35012794Y-138616841D01*
X35018194Y-138653244D01*
X35020000Y-138690000D01*
X35020000Y-139440000D01*
X35018194Y-139476756D01*
X35012794Y-139513159D01*
X35003853Y-139548857D01*
X34991455Y-139583506D01*
X34975720Y-139616774D01*
X34956801Y-139648339D01*
X34934879Y-139677897D01*
X34910165Y-139705165D01*
X34882897Y-139729879D01*
X34853339Y-139751801D01*
X34821774Y-139770720D01*
X34788506Y-139786455D01*
X34753857Y-139798853D01*
X34718159Y-139807794D01*
X34681756Y-139813194D01*
X34645000Y-139815000D01*
X31395000Y-139815000D01*
X31358244Y-139813194D01*
X31321841Y-139807794D01*
X31286143Y-139798853D01*
X31251494Y-139786455D01*
X31218226Y-139770720D01*
X31186661Y-139751801D01*
X31157103Y-139729879D01*
X31129835Y-139705165D01*
X31105121Y-139677897D01*
X31083199Y-139648339D01*
X31064280Y-139616774D01*
X31048545Y-139583506D01*
X31036147Y-139548857D01*
X31027206Y-139513159D01*
X31021806Y-139476756D01*
X31020000Y-139440000D01*
X31020000Y-138690000D01*
X31021806Y-138653244D01*
X31027206Y-138616841D01*
X31036147Y-138581143D01*
X31048545Y-138546494D01*
X31064280Y-138513226D01*
X31083199Y-138481661D01*
X31105121Y-138452103D01*
X31129835Y-138424835D01*
X31157103Y-138400121D01*
X31186661Y-138378199D01*
X31218226Y-138359280D01*
X31251494Y-138343545D01*
X31286143Y-138331147D01*
X31321841Y-138322206D01*
X31358244Y-138316806D01*
X31395000Y-138315000D01*
X34645000Y-138315000D01*
X34681756Y-138316806D01*
X34681756Y-138316806D01*
G37*
D19*
X33020000Y-139065000D03*
D14*
G36*
X34681756Y-140856806D02*
G01*
X34718159Y-140862206D01*
X34753857Y-140871147D01*
X34788506Y-140883545D01*
X34821774Y-140899280D01*
X34853339Y-140918199D01*
X34882897Y-140940121D01*
X34910165Y-140964835D01*
X34934879Y-140992103D01*
X34956801Y-141021661D01*
X34975720Y-141053226D01*
X34991455Y-141086494D01*
X35003853Y-141121143D01*
X35012794Y-141156841D01*
X35018194Y-141193244D01*
X35020000Y-141230000D01*
X35020000Y-141980000D01*
X35018194Y-142016756D01*
X35012794Y-142053159D01*
X35003853Y-142088857D01*
X34991455Y-142123506D01*
X34975720Y-142156774D01*
X34956801Y-142188339D01*
X34934879Y-142217897D01*
X34910165Y-142245165D01*
X34882897Y-142269879D01*
X34853339Y-142291801D01*
X34821774Y-142310720D01*
X34788506Y-142326455D01*
X34753857Y-142338853D01*
X34718159Y-142347794D01*
X34681756Y-142353194D01*
X34645000Y-142355000D01*
X31395000Y-142355000D01*
X31358244Y-142353194D01*
X31321841Y-142347794D01*
X31286143Y-142338853D01*
X31251494Y-142326455D01*
X31218226Y-142310720D01*
X31186661Y-142291801D01*
X31157103Y-142269879D01*
X31129835Y-142245165D01*
X31105121Y-142217897D01*
X31083199Y-142188339D01*
X31064280Y-142156774D01*
X31048545Y-142123506D01*
X31036147Y-142088857D01*
X31027206Y-142053159D01*
X31021806Y-142016756D01*
X31020000Y-141980000D01*
X31020000Y-141230000D01*
X31021806Y-141193244D01*
X31027206Y-141156841D01*
X31036147Y-141121143D01*
X31048545Y-141086494D01*
X31064280Y-141053226D01*
X31083199Y-141021661D01*
X31105121Y-140992103D01*
X31129835Y-140964835D01*
X31157103Y-140940121D01*
X31186661Y-140918199D01*
X31218226Y-140899280D01*
X31251494Y-140883545D01*
X31286143Y-140871147D01*
X31321841Y-140862206D01*
X31358244Y-140856806D01*
X31395000Y-140855000D01*
X34645000Y-140855000D01*
X34681756Y-140856806D01*
X34681756Y-140856806D01*
G37*
D19*
X33020000Y-141605000D03*
D14*
G36*
X34681756Y-143396806D02*
G01*
X34718159Y-143402206D01*
X34753857Y-143411147D01*
X34788506Y-143423545D01*
X34821774Y-143439280D01*
X34853339Y-143458199D01*
X34882897Y-143480121D01*
X34910165Y-143504835D01*
X34934879Y-143532103D01*
X34956801Y-143561661D01*
X34975720Y-143593226D01*
X34991455Y-143626494D01*
X35003853Y-143661143D01*
X35012794Y-143696841D01*
X35018194Y-143733244D01*
X35020000Y-143770000D01*
X35020000Y-144520000D01*
X35018194Y-144556756D01*
X35012794Y-144593159D01*
X35003853Y-144628857D01*
X34991455Y-144663506D01*
X34975720Y-144696774D01*
X34956801Y-144728339D01*
X34934879Y-144757897D01*
X34910165Y-144785165D01*
X34882897Y-144809879D01*
X34853339Y-144831801D01*
X34821774Y-144850720D01*
X34788506Y-144866455D01*
X34753857Y-144878853D01*
X34718159Y-144887794D01*
X34681756Y-144893194D01*
X34645000Y-144895000D01*
X31395000Y-144895000D01*
X31358244Y-144893194D01*
X31321841Y-144887794D01*
X31286143Y-144878853D01*
X31251494Y-144866455D01*
X31218226Y-144850720D01*
X31186661Y-144831801D01*
X31157103Y-144809879D01*
X31129835Y-144785165D01*
X31105121Y-144757897D01*
X31083199Y-144728339D01*
X31064280Y-144696774D01*
X31048545Y-144663506D01*
X31036147Y-144628857D01*
X31027206Y-144593159D01*
X31021806Y-144556756D01*
X31020000Y-144520000D01*
X31020000Y-143770000D01*
X31021806Y-143733244D01*
X31027206Y-143696841D01*
X31036147Y-143661143D01*
X31048545Y-143626494D01*
X31064280Y-143593226D01*
X31083199Y-143561661D01*
X31105121Y-143532103D01*
X31129835Y-143504835D01*
X31157103Y-143480121D01*
X31186661Y-143458199D01*
X31218226Y-143439280D01*
X31251494Y-143423545D01*
X31286143Y-143411147D01*
X31321841Y-143402206D01*
X31358244Y-143396806D01*
X31395000Y-143395000D01*
X34645000Y-143395000D01*
X34681756Y-143396806D01*
X34681756Y-143396806D01*
G37*
D19*
X33020000Y-144145000D03*
D14*
G36*
X34681756Y-145936806D02*
G01*
X34718159Y-145942206D01*
X34753857Y-145951147D01*
X34788506Y-145963545D01*
X34821774Y-145979280D01*
X34853339Y-145998199D01*
X34882897Y-146020121D01*
X34910165Y-146044835D01*
X34934879Y-146072103D01*
X34956801Y-146101661D01*
X34975720Y-146133226D01*
X34991455Y-146166494D01*
X35003853Y-146201143D01*
X35012794Y-146236841D01*
X35018194Y-146273244D01*
X35020000Y-146310000D01*
X35020000Y-147060000D01*
X35018194Y-147096756D01*
X35012794Y-147133159D01*
X35003853Y-147168857D01*
X34991455Y-147203506D01*
X34975720Y-147236774D01*
X34956801Y-147268339D01*
X34934879Y-147297897D01*
X34910165Y-147325165D01*
X34882897Y-147349879D01*
X34853339Y-147371801D01*
X34821774Y-147390720D01*
X34788506Y-147406455D01*
X34753857Y-147418853D01*
X34718159Y-147427794D01*
X34681756Y-147433194D01*
X34645000Y-147435000D01*
X31395000Y-147435000D01*
X31358244Y-147433194D01*
X31321841Y-147427794D01*
X31286143Y-147418853D01*
X31251494Y-147406455D01*
X31218226Y-147390720D01*
X31186661Y-147371801D01*
X31157103Y-147349879D01*
X31129835Y-147325165D01*
X31105121Y-147297897D01*
X31083199Y-147268339D01*
X31064280Y-147236774D01*
X31048545Y-147203506D01*
X31036147Y-147168857D01*
X31027206Y-147133159D01*
X31021806Y-147096756D01*
X31020000Y-147060000D01*
X31020000Y-146310000D01*
X31021806Y-146273244D01*
X31027206Y-146236841D01*
X31036147Y-146201143D01*
X31048545Y-146166494D01*
X31064280Y-146133226D01*
X31083199Y-146101661D01*
X31105121Y-146072103D01*
X31129835Y-146044835D01*
X31157103Y-146020121D01*
X31186661Y-145998199D01*
X31218226Y-145979280D01*
X31251494Y-145963545D01*
X31286143Y-145951147D01*
X31321841Y-145942206D01*
X31358244Y-145936806D01*
X31395000Y-145935000D01*
X34645000Y-145935000D01*
X34681756Y-145936806D01*
X34681756Y-145936806D01*
G37*
D19*
X33020000Y-146685000D03*
D14*
G36*
X34681756Y-148476806D02*
G01*
X34718159Y-148482206D01*
X34753857Y-148491147D01*
X34788506Y-148503545D01*
X34821774Y-148519280D01*
X34853339Y-148538199D01*
X34882897Y-148560121D01*
X34910165Y-148584835D01*
X34934879Y-148612103D01*
X34956801Y-148641661D01*
X34975720Y-148673226D01*
X34991455Y-148706494D01*
X35003853Y-148741143D01*
X35012794Y-148776841D01*
X35018194Y-148813244D01*
X35020000Y-148850000D01*
X35020000Y-149600000D01*
X35018194Y-149636756D01*
X35012794Y-149673159D01*
X35003853Y-149708857D01*
X34991455Y-149743506D01*
X34975720Y-149776774D01*
X34956801Y-149808339D01*
X34934879Y-149837897D01*
X34910165Y-149865165D01*
X34882897Y-149889879D01*
X34853339Y-149911801D01*
X34821774Y-149930720D01*
X34788506Y-149946455D01*
X34753857Y-149958853D01*
X34718159Y-149967794D01*
X34681756Y-149973194D01*
X34645000Y-149975000D01*
X31395000Y-149975000D01*
X31358244Y-149973194D01*
X31321841Y-149967794D01*
X31286143Y-149958853D01*
X31251494Y-149946455D01*
X31218226Y-149930720D01*
X31186661Y-149911801D01*
X31157103Y-149889879D01*
X31129835Y-149865165D01*
X31105121Y-149837897D01*
X31083199Y-149808339D01*
X31064280Y-149776774D01*
X31048545Y-149743506D01*
X31036147Y-149708857D01*
X31027206Y-149673159D01*
X31021806Y-149636756D01*
X31020000Y-149600000D01*
X31020000Y-148850000D01*
X31021806Y-148813244D01*
X31027206Y-148776841D01*
X31036147Y-148741143D01*
X31048545Y-148706494D01*
X31064280Y-148673226D01*
X31083199Y-148641661D01*
X31105121Y-148612103D01*
X31129835Y-148584835D01*
X31157103Y-148560121D01*
X31186661Y-148538199D01*
X31218226Y-148519280D01*
X31251494Y-148503545D01*
X31286143Y-148491147D01*
X31321841Y-148482206D01*
X31358244Y-148476806D01*
X31395000Y-148475000D01*
X34645000Y-148475000D01*
X34681756Y-148476806D01*
X34681756Y-148476806D01*
G37*
D19*
X33020000Y-149225000D03*
D14*
G36*
X34681756Y-151016806D02*
G01*
X34718159Y-151022206D01*
X34753857Y-151031147D01*
X34788506Y-151043545D01*
X34821774Y-151059280D01*
X34853339Y-151078199D01*
X34882897Y-151100121D01*
X34910165Y-151124835D01*
X34934879Y-151152103D01*
X34956801Y-151181661D01*
X34975720Y-151213226D01*
X34991455Y-151246494D01*
X35003853Y-151281143D01*
X35012794Y-151316841D01*
X35018194Y-151353244D01*
X35020000Y-151390000D01*
X35020000Y-152140000D01*
X35018194Y-152176756D01*
X35012794Y-152213159D01*
X35003853Y-152248857D01*
X34991455Y-152283506D01*
X34975720Y-152316774D01*
X34956801Y-152348339D01*
X34934879Y-152377897D01*
X34910165Y-152405165D01*
X34882897Y-152429879D01*
X34853339Y-152451801D01*
X34821774Y-152470720D01*
X34788506Y-152486455D01*
X34753857Y-152498853D01*
X34718159Y-152507794D01*
X34681756Y-152513194D01*
X34645000Y-152515000D01*
X31395000Y-152515000D01*
X31358244Y-152513194D01*
X31321841Y-152507794D01*
X31286143Y-152498853D01*
X31251494Y-152486455D01*
X31218226Y-152470720D01*
X31186661Y-152451801D01*
X31157103Y-152429879D01*
X31129835Y-152405165D01*
X31105121Y-152377897D01*
X31083199Y-152348339D01*
X31064280Y-152316774D01*
X31048545Y-152283506D01*
X31036147Y-152248857D01*
X31027206Y-152213159D01*
X31021806Y-152176756D01*
X31020000Y-152140000D01*
X31020000Y-151390000D01*
X31021806Y-151353244D01*
X31027206Y-151316841D01*
X31036147Y-151281143D01*
X31048545Y-151246494D01*
X31064280Y-151213226D01*
X31083199Y-151181661D01*
X31105121Y-151152103D01*
X31129835Y-151124835D01*
X31157103Y-151100121D01*
X31186661Y-151078199D01*
X31218226Y-151059280D01*
X31251494Y-151043545D01*
X31286143Y-151031147D01*
X31321841Y-151022206D01*
X31358244Y-151016806D01*
X31395000Y-151015000D01*
X34645000Y-151015000D01*
X34681756Y-151016806D01*
X34681756Y-151016806D01*
G37*
D19*
X33020000Y-151765000D03*
D14*
G36*
X34681756Y-153556806D02*
G01*
X34718159Y-153562206D01*
X34753857Y-153571147D01*
X34788506Y-153583545D01*
X34821774Y-153599280D01*
X34853339Y-153618199D01*
X34882897Y-153640121D01*
X34910165Y-153664835D01*
X34934879Y-153692103D01*
X34956801Y-153721661D01*
X34975720Y-153753226D01*
X34991455Y-153786494D01*
X35003853Y-153821143D01*
X35012794Y-153856841D01*
X35018194Y-153893244D01*
X35020000Y-153930000D01*
X35020000Y-154680000D01*
X35018194Y-154716756D01*
X35012794Y-154753159D01*
X35003853Y-154788857D01*
X34991455Y-154823506D01*
X34975720Y-154856774D01*
X34956801Y-154888339D01*
X34934879Y-154917897D01*
X34910165Y-154945165D01*
X34882897Y-154969879D01*
X34853339Y-154991801D01*
X34821774Y-155010720D01*
X34788506Y-155026455D01*
X34753857Y-155038853D01*
X34718159Y-155047794D01*
X34681756Y-155053194D01*
X34645000Y-155055000D01*
X31395000Y-155055000D01*
X31358244Y-155053194D01*
X31321841Y-155047794D01*
X31286143Y-155038853D01*
X31251494Y-155026455D01*
X31218226Y-155010720D01*
X31186661Y-154991801D01*
X31157103Y-154969879D01*
X31129835Y-154945165D01*
X31105121Y-154917897D01*
X31083199Y-154888339D01*
X31064280Y-154856774D01*
X31048545Y-154823506D01*
X31036147Y-154788857D01*
X31027206Y-154753159D01*
X31021806Y-154716756D01*
X31020000Y-154680000D01*
X31020000Y-153930000D01*
X31021806Y-153893244D01*
X31027206Y-153856841D01*
X31036147Y-153821143D01*
X31048545Y-153786494D01*
X31064280Y-153753226D01*
X31083199Y-153721661D01*
X31105121Y-153692103D01*
X31129835Y-153664835D01*
X31157103Y-153640121D01*
X31186661Y-153618199D01*
X31218226Y-153599280D01*
X31251494Y-153583545D01*
X31286143Y-153571147D01*
X31321841Y-153562206D01*
X31358244Y-153556806D01*
X31395000Y-153555000D01*
X34645000Y-153555000D01*
X34681756Y-153556806D01*
X34681756Y-153556806D01*
G37*
D19*
X33020000Y-154305000D03*
D14*
G36*
X34681756Y-156096806D02*
G01*
X34718159Y-156102206D01*
X34753857Y-156111147D01*
X34788506Y-156123545D01*
X34821774Y-156139280D01*
X34853339Y-156158199D01*
X34882897Y-156180121D01*
X34910165Y-156204835D01*
X34934879Y-156232103D01*
X34956801Y-156261661D01*
X34975720Y-156293226D01*
X34991455Y-156326494D01*
X35003853Y-156361143D01*
X35012794Y-156396841D01*
X35018194Y-156433244D01*
X35020000Y-156470000D01*
X35020000Y-157220000D01*
X35018194Y-157256756D01*
X35012794Y-157293159D01*
X35003853Y-157328857D01*
X34991455Y-157363506D01*
X34975720Y-157396774D01*
X34956801Y-157428339D01*
X34934879Y-157457897D01*
X34910165Y-157485165D01*
X34882897Y-157509879D01*
X34853339Y-157531801D01*
X34821774Y-157550720D01*
X34788506Y-157566455D01*
X34753857Y-157578853D01*
X34718159Y-157587794D01*
X34681756Y-157593194D01*
X34645000Y-157595000D01*
X31395000Y-157595000D01*
X31358244Y-157593194D01*
X31321841Y-157587794D01*
X31286143Y-157578853D01*
X31251494Y-157566455D01*
X31218226Y-157550720D01*
X31186661Y-157531801D01*
X31157103Y-157509879D01*
X31129835Y-157485165D01*
X31105121Y-157457897D01*
X31083199Y-157428339D01*
X31064280Y-157396774D01*
X31048545Y-157363506D01*
X31036147Y-157328857D01*
X31027206Y-157293159D01*
X31021806Y-157256756D01*
X31020000Y-157220000D01*
X31020000Y-156470000D01*
X31021806Y-156433244D01*
X31027206Y-156396841D01*
X31036147Y-156361143D01*
X31048545Y-156326494D01*
X31064280Y-156293226D01*
X31083199Y-156261661D01*
X31105121Y-156232103D01*
X31129835Y-156204835D01*
X31157103Y-156180121D01*
X31186661Y-156158199D01*
X31218226Y-156139280D01*
X31251494Y-156123545D01*
X31286143Y-156111147D01*
X31321841Y-156102206D01*
X31358244Y-156096806D01*
X31395000Y-156095000D01*
X34645000Y-156095000D01*
X34681756Y-156096806D01*
X34681756Y-156096806D01*
G37*
D19*
X33020000Y-156845000D03*
D14*
G36*
X34681756Y-158636806D02*
G01*
X34718159Y-158642206D01*
X34753857Y-158651147D01*
X34788506Y-158663545D01*
X34821774Y-158679280D01*
X34853339Y-158698199D01*
X34882897Y-158720121D01*
X34910165Y-158744835D01*
X34934879Y-158772103D01*
X34956801Y-158801661D01*
X34975720Y-158833226D01*
X34991455Y-158866494D01*
X35003853Y-158901143D01*
X35012794Y-158936841D01*
X35018194Y-158973244D01*
X35020000Y-159010000D01*
X35020000Y-159760000D01*
X35018194Y-159796756D01*
X35012794Y-159833159D01*
X35003853Y-159868857D01*
X34991455Y-159903506D01*
X34975720Y-159936774D01*
X34956801Y-159968339D01*
X34934879Y-159997897D01*
X34910165Y-160025165D01*
X34882897Y-160049879D01*
X34853339Y-160071801D01*
X34821774Y-160090720D01*
X34788506Y-160106455D01*
X34753857Y-160118853D01*
X34718159Y-160127794D01*
X34681756Y-160133194D01*
X34645000Y-160135000D01*
X31395000Y-160135000D01*
X31358244Y-160133194D01*
X31321841Y-160127794D01*
X31286143Y-160118853D01*
X31251494Y-160106455D01*
X31218226Y-160090720D01*
X31186661Y-160071801D01*
X31157103Y-160049879D01*
X31129835Y-160025165D01*
X31105121Y-159997897D01*
X31083199Y-159968339D01*
X31064280Y-159936774D01*
X31048545Y-159903506D01*
X31036147Y-159868857D01*
X31027206Y-159833159D01*
X31021806Y-159796756D01*
X31020000Y-159760000D01*
X31020000Y-159010000D01*
X31021806Y-158973244D01*
X31027206Y-158936841D01*
X31036147Y-158901143D01*
X31048545Y-158866494D01*
X31064280Y-158833226D01*
X31083199Y-158801661D01*
X31105121Y-158772103D01*
X31129835Y-158744835D01*
X31157103Y-158720121D01*
X31186661Y-158698199D01*
X31218226Y-158679280D01*
X31251494Y-158663545D01*
X31286143Y-158651147D01*
X31321841Y-158642206D01*
X31358244Y-158636806D01*
X31395000Y-158635000D01*
X34645000Y-158635000D01*
X34681756Y-158636806D01*
X34681756Y-158636806D01*
G37*
D19*
X33020000Y-159385000D03*
D14*
G36*
X34681756Y-161176806D02*
G01*
X34718159Y-161182206D01*
X34753857Y-161191147D01*
X34788506Y-161203545D01*
X34821774Y-161219280D01*
X34853339Y-161238199D01*
X34882897Y-161260121D01*
X34910165Y-161284835D01*
X34934879Y-161312103D01*
X34956801Y-161341661D01*
X34975720Y-161373226D01*
X34991455Y-161406494D01*
X35003853Y-161441143D01*
X35012794Y-161476841D01*
X35018194Y-161513244D01*
X35020000Y-161550000D01*
X35020000Y-162300000D01*
X35018194Y-162336756D01*
X35012794Y-162373159D01*
X35003853Y-162408857D01*
X34991455Y-162443506D01*
X34975720Y-162476774D01*
X34956801Y-162508339D01*
X34934879Y-162537897D01*
X34910165Y-162565165D01*
X34882897Y-162589879D01*
X34853339Y-162611801D01*
X34821774Y-162630720D01*
X34788506Y-162646455D01*
X34753857Y-162658853D01*
X34718159Y-162667794D01*
X34681756Y-162673194D01*
X34645000Y-162675000D01*
X31395000Y-162675000D01*
X31358244Y-162673194D01*
X31321841Y-162667794D01*
X31286143Y-162658853D01*
X31251494Y-162646455D01*
X31218226Y-162630720D01*
X31186661Y-162611801D01*
X31157103Y-162589879D01*
X31129835Y-162565165D01*
X31105121Y-162537897D01*
X31083199Y-162508339D01*
X31064280Y-162476774D01*
X31048545Y-162443506D01*
X31036147Y-162408857D01*
X31027206Y-162373159D01*
X31021806Y-162336756D01*
X31020000Y-162300000D01*
X31020000Y-161550000D01*
X31021806Y-161513244D01*
X31027206Y-161476841D01*
X31036147Y-161441143D01*
X31048545Y-161406494D01*
X31064280Y-161373226D01*
X31083199Y-161341661D01*
X31105121Y-161312103D01*
X31129835Y-161284835D01*
X31157103Y-161260121D01*
X31186661Y-161238199D01*
X31218226Y-161219280D01*
X31251494Y-161203545D01*
X31286143Y-161191147D01*
X31321841Y-161182206D01*
X31358244Y-161176806D01*
X31395000Y-161175000D01*
X34645000Y-161175000D01*
X34681756Y-161176806D01*
X34681756Y-161176806D01*
G37*
D19*
X33020000Y-161925000D03*
D14*
G36*
X34681756Y-163716806D02*
G01*
X34718159Y-163722206D01*
X34753857Y-163731147D01*
X34788506Y-163743545D01*
X34821774Y-163759280D01*
X34853339Y-163778199D01*
X34882897Y-163800121D01*
X34910165Y-163824835D01*
X34934879Y-163852103D01*
X34956801Y-163881661D01*
X34975720Y-163913226D01*
X34991455Y-163946494D01*
X35003853Y-163981143D01*
X35012794Y-164016841D01*
X35018194Y-164053244D01*
X35020000Y-164090000D01*
X35020000Y-164840000D01*
X35018194Y-164876756D01*
X35012794Y-164913159D01*
X35003853Y-164948857D01*
X34991455Y-164983506D01*
X34975720Y-165016774D01*
X34956801Y-165048339D01*
X34934879Y-165077897D01*
X34910165Y-165105165D01*
X34882897Y-165129879D01*
X34853339Y-165151801D01*
X34821774Y-165170720D01*
X34788506Y-165186455D01*
X34753857Y-165198853D01*
X34718159Y-165207794D01*
X34681756Y-165213194D01*
X34645000Y-165215000D01*
X31395000Y-165215000D01*
X31358244Y-165213194D01*
X31321841Y-165207794D01*
X31286143Y-165198853D01*
X31251494Y-165186455D01*
X31218226Y-165170720D01*
X31186661Y-165151801D01*
X31157103Y-165129879D01*
X31129835Y-165105165D01*
X31105121Y-165077897D01*
X31083199Y-165048339D01*
X31064280Y-165016774D01*
X31048545Y-164983506D01*
X31036147Y-164948857D01*
X31027206Y-164913159D01*
X31021806Y-164876756D01*
X31020000Y-164840000D01*
X31020000Y-164090000D01*
X31021806Y-164053244D01*
X31027206Y-164016841D01*
X31036147Y-163981143D01*
X31048545Y-163946494D01*
X31064280Y-163913226D01*
X31083199Y-163881661D01*
X31105121Y-163852103D01*
X31129835Y-163824835D01*
X31157103Y-163800121D01*
X31186661Y-163778199D01*
X31218226Y-163759280D01*
X31251494Y-163743545D01*
X31286143Y-163731147D01*
X31321841Y-163722206D01*
X31358244Y-163716806D01*
X31395000Y-163715000D01*
X34645000Y-163715000D01*
X34681756Y-163716806D01*
X34681756Y-163716806D01*
G37*
D19*
X33020000Y-164465000D03*
D14*
G36*
X34681756Y-166256806D02*
G01*
X34718159Y-166262206D01*
X34753857Y-166271147D01*
X34788506Y-166283545D01*
X34821774Y-166299280D01*
X34853339Y-166318199D01*
X34882897Y-166340121D01*
X34910165Y-166364835D01*
X34934879Y-166392103D01*
X34956801Y-166421661D01*
X34975720Y-166453226D01*
X34991455Y-166486494D01*
X35003853Y-166521143D01*
X35012794Y-166556841D01*
X35018194Y-166593244D01*
X35020000Y-166630000D01*
X35020000Y-167380000D01*
X35018194Y-167416756D01*
X35012794Y-167453159D01*
X35003853Y-167488857D01*
X34991455Y-167523506D01*
X34975720Y-167556774D01*
X34956801Y-167588339D01*
X34934879Y-167617897D01*
X34910165Y-167645165D01*
X34882897Y-167669879D01*
X34853339Y-167691801D01*
X34821774Y-167710720D01*
X34788506Y-167726455D01*
X34753857Y-167738853D01*
X34718159Y-167747794D01*
X34681756Y-167753194D01*
X34645000Y-167755000D01*
X31395000Y-167755000D01*
X31358244Y-167753194D01*
X31321841Y-167747794D01*
X31286143Y-167738853D01*
X31251494Y-167726455D01*
X31218226Y-167710720D01*
X31186661Y-167691801D01*
X31157103Y-167669879D01*
X31129835Y-167645165D01*
X31105121Y-167617897D01*
X31083199Y-167588339D01*
X31064280Y-167556774D01*
X31048545Y-167523506D01*
X31036147Y-167488857D01*
X31027206Y-167453159D01*
X31021806Y-167416756D01*
X31020000Y-167380000D01*
X31020000Y-166630000D01*
X31021806Y-166593244D01*
X31027206Y-166556841D01*
X31036147Y-166521143D01*
X31048545Y-166486494D01*
X31064280Y-166453226D01*
X31083199Y-166421661D01*
X31105121Y-166392103D01*
X31129835Y-166364835D01*
X31157103Y-166340121D01*
X31186661Y-166318199D01*
X31218226Y-166299280D01*
X31251494Y-166283545D01*
X31286143Y-166271147D01*
X31321841Y-166262206D01*
X31358244Y-166256806D01*
X31395000Y-166255000D01*
X34645000Y-166255000D01*
X34681756Y-166256806D01*
X34681756Y-166256806D01*
G37*
D19*
X33020000Y-167005000D03*
D14*
G36*
X34681756Y-168796806D02*
G01*
X34718159Y-168802206D01*
X34753857Y-168811147D01*
X34788506Y-168823545D01*
X34821774Y-168839280D01*
X34853339Y-168858199D01*
X34882897Y-168880121D01*
X34910165Y-168904835D01*
X34934879Y-168932103D01*
X34956801Y-168961661D01*
X34975720Y-168993226D01*
X34991455Y-169026494D01*
X35003853Y-169061143D01*
X35012794Y-169096841D01*
X35018194Y-169133244D01*
X35020000Y-169170000D01*
X35020000Y-169920000D01*
X35018194Y-169956756D01*
X35012794Y-169993159D01*
X35003853Y-170028857D01*
X34991455Y-170063506D01*
X34975720Y-170096774D01*
X34956801Y-170128339D01*
X34934879Y-170157897D01*
X34910165Y-170185165D01*
X34882897Y-170209879D01*
X34853339Y-170231801D01*
X34821774Y-170250720D01*
X34788506Y-170266455D01*
X34753857Y-170278853D01*
X34718159Y-170287794D01*
X34681756Y-170293194D01*
X34645000Y-170295000D01*
X31395000Y-170295000D01*
X31358244Y-170293194D01*
X31321841Y-170287794D01*
X31286143Y-170278853D01*
X31251494Y-170266455D01*
X31218226Y-170250720D01*
X31186661Y-170231801D01*
X31157103Y-170209879D01*
X31129835Y-170185165D01*
X31105121Y-170157897D01*
X31083199Y-170128339D01*
X31064280Y-170096774D01*
X31048545Y-170063506D01*
X31036147Y-170028857D01*
X31027206Y-169993159D01*
X31021806Y-169956756D01*
X31020000Y-169920000D01*
X31020000Y-169170000D01*
X31021806Y-169133244D01*
X31027206Y-169096841D01*
X31036147Y-169061143D01*
X31048545Y-169026494D01*
X31064280Y-168993226D01*
X31083199Y-168961661D01*
X31105121Y-168932103D01*
X31129835Y-168904835D01*
X31157103Y-168880121D01*
X31186661Y-168858199D01*
X31218226Y-168839280D01*
X31251494Y-168823545D01*
X31286143Y-168811147D01*
X31321841Y-168802206D01*
X31358244Y-168796806D01*
X31395000Y-168795000D01*
X34645000Y-168795000D01*
X34681756Y-168796806D01*
X34681756Y-168796806D01*
G37*
D19*
X33020000Y-169545000D03*
D14*
G36*
X34681756Y-171336806D02*
G01*
X34718159Y-171342206D01*
X34753857Y-171351147D01*
X34788506Y-171363545D01*
X34821774Y-171379280D01*
X34853339Y-171398199D01*
X34882897Y-171420121D01*
X34910165Y-171444835D01*
X34934879Y-171472103D01*
X34956801Y-171501661D01*
X34975720Y-171533226D01*
X34991455Y-171566494D01*
X35003853Y-171601143D01*
X35012794Y-171636841D01*
X35018194Y-171673244D01*
X35020000Y-171710000D01*
X35020000Y-172460000D01*
X35018194Y-172496756D01*
X35012794Y-172533159D01*
X35003853Y-172568857D01*
X34991455Y-172603506D01*
X34975720Y-172636774D01*
X34956801Y-172668339D01*
X34934879Y-172697897D01*
X34910165Y-172725165D01*
X34882897Y-172749879D01*
X34853339Y-172771801D01*
X34821774Y-172790720D01*
X34788506Y-172806455D01*
X34753857Y-172818853D01*
X34718159Y-172827794D01*
X34681756Y-172833194D01*
X34645000Y-172835000D01*
X31395000Y-172835000D01*
X31358244Y-172833194D01*
X31321841Y-172827794D01*
X31286143Y-172818853D01*
X31251494Y-172806455D01*
X31218226Y-172790720D01*
X31186661Y-172771801D01*
X31157103Y-172749879D01*
X31129835Y-172725165D01*
X31105121Y-172697897D01*
X31083199Y-172668339D01*
X31064280Y-172636774D01*
X31048545Y-172603506D01*
X31036147Y-172568857D01*
X31027206Y-172533159D01*
X31021806Y-172496756D01*
X31020000Y-172460000D01*
X31020000Y-171710000D01*
X31021806Y-171673244D01*
X31027206Y-171636841D01*
X31036147Y-171601143D01*
X31048545Y-171566494D01*
X31064280Y-171533226D01*
X31083199Y-171501661D01*
X31105121Y-171472103D01*
X31129835Y-171444835D01*
X31157103Y-171420121D01*
X31186661Y-171398199D01*
X31218226Y-171379280D01*
X31251494Y-171363545D01*
X31286143Y-171351147D01*
X31321841Y-171342206D01*
X31358244Y-171336806D01*
X31395000Y-171335000D01*
X34645000Y-171335000D01*
X34681756Y-171336806D01*
X34681756Y-171336806D01*
G37*
D19*
X33020000Y-172085000D03*
D14*
G36*
X34681756Y-173876806D02*
G01*
X34718159Y-173882206D01*
X34753857Y-173891147D01*
X34788506Y-173903545D01*
X34821774Y-173919280D01*
X34853339Y-173938199D01*
X34882897Y-173960121D01*
X34910165Y-173984835D01*
X34934879Y-174012103D01*
X34956801Y-174041661D01*
X34975720Y-174073226D01*
X34991455Y-174106494D01*
X35003853Y-174141143D01*
X35012794Y-174176841D01*
X35018194Y-174213244D01*
X35020000Y-174250000D01*
X35020000Y-175000000D01*
X35018194Y-175036756D01*
X35012794Y-175073159D01*
X35003853Y-175108857D01*
X34991455Y-175143506D01*
X34975720Y-175176774D01*
X34956801Y-175208339D01*
X34934879Y-175237897D01*
X34910165Y-175265165D01*
X34882897Y-175289879D01*
X34853339Y-175311801D01*
X34821774Y-175330720D01*
X34788506Y-175346455D01*
X34753857Y-175358853D01*
X34718159Y-175367794D01*
X34681756Y-175373194D01*
X34645000Y-175375000D01*
X31395000Y-175375000D01*
X31358244Y-175373194D01*
X31321841Y-175367794D01*
X31286143Y-175358853D01*
X31251494Y-175346455D01*
X31218226Y-175330720D01*
X31186661Y-175311801D01*
X31157103Y-175289879D01*
X31129835Y-175265165D01*
X31105121Y-175237897D01*
X31083199Y-175208339D01*
X31064280Y-175176774D01*
X31048545Y-175143506D01*
X31036147Y-175108857D01*
X31027206Y-175073159D01*
X31021806Y-175036756D01*
X31020000Y-175000000D01*
X31020000Y-174250000D01*
X31021806Y-174213244D01*
X31027206Y-174176841D01*
X31036147Y-174141143D01*
X31048545Y-174106494D01*
X31064280Y-174073226D01*
X31083199Y-174041661D01*
X31105121Y-174012103D01*
X31129835Y-173984835D01*
X31157103Y-173960121D01*
X31186661Y-173938199D01*
X31218226Y-173919280D01*
X31251494Y-173903545D01*
X31286143Y-173891147D01*
X31321841Y-173882206D01*
X31358244Y-173876806D01*
X31395000Y-173875000D01*
X34645000Y-173875000D01*
X34681756Y-173876806D01*
X34681756Y-173876806D01*
G37*
D19*
X33020000Y-174625000D03*
D20*
X53340000Y-146685000D03*
X56779999Y-134249999D03*
X62865000Y-161290000D03*
X62865000Y-158750000D03*
X62865000Y-156210000D03*
X62865000Y-153670000D03*
X59055000Y-148590000D03*
X62865000Y-151130000D03*
D21*
X54239999Y-145785001D02*
X54239999Y-134249999D01*
X53340000Y-146685000D02*
X54239999Y-145785001D01*
X54239999Y-134249999D02*
X56779999Y-134249999D01*
X56779999Y-134249999D02*
X56779999Y-134249999D01*
X55880000Y-133350000D02*
X56779999Y-134249999D01*
X55749999Y-133219999D02*
X55880000Y-133350000D01*
X35885001Y-133219999D02*
X55749999Y-133219999D01*
X35120000Y-133985000D02*
X35885001Y-133219999D01*
X33020000Y-133985000D02*
X35120000Y-133985000D01*
X46341999Y-162640001D02*
X61514999Y-162640001D01*
X39246988Y-155544990D02*
X46341999Y-162640001D01*
X33409990Y-155544990D02*
X39246988Y-155544990D01*
X33020000Y-154305000D02*
X33020000Y-155155000D01*
X33020000Y-155155000D02*
X33409990Y-155544990D01*
X61514999Y-162640001D02*
X62865000Y-161290000D01*
X62865000Y-161290000D02*
X62865000Y-161290000D01*
X47393013Y-159060011D02*
X62554989Y-159060011D01*
X33020000Y-151765000D02*
X40098002Y-151765000D01*
X40098002Y-151765000D02*
X47393013Y-159060011D01*
X62554989Y-159060011D02*
X62865000Y-158750000D01*
X62865000Y-158750000D02*
X62865000Y-158750000D01*
X62865000Y-156210000D02*
X62865000Y-156210000D01*
X60814999Y-158260001D02*
X62865000Y-156210000D01*
X54704999Y-158260001D02*
X60814999Y-158260001D01*
X51317613Y-154872615D02*
X54704999Y-158260001D01*
X51317613Y-150284611D02*
X51317613Y-154872615D01*
X48973001Y-147939999D02*
X51317613Y-150284611D01*
X47676999Y-147939999D02*
X48973001Y-147939999D01*
X46311997Y-149305001D02*
X47676999Y-147939999D01*
X43801999Y-149305001D02*
X46311997Y-149305001D01*
X43721998Y-149225000D02*
X43801999Y-149305001D01*
X33020000Y-149225000D02*
X43721998Y-149225000D01*
X56593001Y-147939999D02*
X57604999Y-148951997D01*
X55296999Y-147939999D02*
X56593001Y-147939999D01*
X57604999Y-148951997D02*
X57604999Y-149286001D01*
X43721998Y-146685000D02*
X43801999Y-146604999D01*
X33020000Y-146685000D02*
X43721998Y-146685000D01*
X43801999Y-146604999D02*
X51113997Y-146604999D01*
X51113997Y-146604999D02*
X52643999Y-148135001D01*
X52643999Y-148135001D02*
X55101997Y-148135001D01*
X57604999Y-149286001D02*
X61988998Y-153670000D01*
X55101997Y-148135001D02*
X55296999Y-147939999D01*
X61988998Y-153670000D02*
X62865000Y-153670000D01*
X62865000Y-153670000D02*
X62865000Y-153670000D01*
X46355000Y-144145000D02*
X48260000Y-142240000D01*
X33020000Y-144145000D02*
X46355000Y-144145000D01*
X46355000Y-141605000D02*
X48260000Y-139700000D01*
X33020000Y-141605000D02*
X46355000Y-141605000D01*
X46355000Y-139065000D02*
X48260000Y-137160000D01*
X33020000Y-139065000D02*
X46355000Y-139065000D01*
X46355000Y-136525000D02*
X48260000Y-134620000D01*
X33020000Y-136525000D02*
X46355000Y-136525000D01*
X59954999Y-149489999D02*
X61224999Y-149489999D01*
X59055000Y-148590000D02*
X59954999Y-149489999D01*
X61224999Y-149489999D02*
X62230000Y-150495000D01*
X62230000Y-150495000D02*
X62865000Y-151130000D01*
X62865000Y-151130000D02*
X62865000Y-151130000D01*
D22*
G36*
X81521204Y-133401815D02*
G01*
X81753226Y-133471867D01*
X81967222Y-133585650D01*
X82155041Y-133738832D01*
X82309530Y-133925577D01*
X82424801Y-134138769D01*
X82496472Y-134370300D01*
X82525000Y-134641725D01*
X82525000Y-137785161D01*
X82518005Y-137768273D01*
X82365120Y-137539465D01*
X82170535Y-137344880D01*
X81941727Y-137191995D01*
X81687490Y-137086686D01*
X81417592Y-137033000D01*
X81142408Y-137033000D01*
X80872510Y-137086686D01*
X80618273Y-137191995D01*
X80389465Y-137344880D01*
X80194880Y-137539465D01*
X80041995Y-137768273D01*
X79936686Y-138022510D01*
X79883000Y-138292408D01*
X79883000Y-138567592D01*
X79936686Y-138837490D01*
X80041995Y-139091727D01*
X80194880Y-139320535D01*
X80389465Y-139515120D01*
X80618273Y-139668005D01*
X80695515Y-139700000D01*
X80618273Y-139731995D01*
X80389465Y-139884880D01*
X80194880Y-140079465D01*
X80041995Y-140308273D01*
X79936686Y-140562510D01*
X79883000Y-140832408D01*
X79883000Y-141107592D01*
X79936686Y-141377490D01*
X80041995Y-141631727D01*
X80194880Y-141860535D01*
X80389465Y-142055120D01*
X80618273Y-142208005D01*
X80695515Y-142240000D01*
X80618273Y-142271995D01*
X80389465Y-142424880D01*
X80194880Y-142619465D01*
X80041995Y-142848273D01*
X79936686Y-143102510D01*
X79883000Y-143372408D01*
X79883000Y-143647592D01*
X79936686Y-143917490D01*
X80041995Y-144171727D01*
X80194880Y-144400535D01*
X80389465Y-144595120D01*
X80618273Y-144748005D01*
X80695515Y-144780000D01*
X80618273Y-144811995D01*
X80389465Y-144964880D01*
X80194880Y-145159465D01*
X80041995Y-145388273D01*
X79936686Y-145642510D01*
X79883000Y-145912408D01*
X79883000Y-146187592D01*
X79936686Y-146457490D01*
X80041995Y-146711727D01*
X80194880Y-146940535D01*
X80389465Y-147135120D01*
X80618273Y-147288005D01*
X80695515Y-147320000D01*
X80618273Y-147351995D01*
X80389465Y-147504880D01*
X80194880Y-147699465D01*
X80041995Y-147928273D01*
X79936686Y-148182510D01*
X79883000Y-148452408D01*
X79883000Y-148727592D01*
X79936686Y-148997490D01*
X80041995Y-149251727D01*
X80194880Y-149480535D01*
X80389465Y-149675120D01*
X80618273Y-149828005D01*
X80695515Y-149860000D01*
X80618273Y-149891995D01*
X80389465Y-150044880D01*
X80194880Y-150239465D01*
X80041995Y-150468273D01*
X79936686Y-150722510D01*
X79883000Y-150992408D01*
X79883000Y-151267592D01*
X79936686Y-151537490D01*
X80041995Y-151791727D01*
X80194880Y-152020535D01*
X80389465Y-152215120D01*
X80618273Y-152368005D01*
X80695515Y-152400000D01*
X80618273Y-152431995D01*
X80389465Y-152584880D01*
X80194880Y-152779465D01*
X80041995Y-153008273D01*
X79936686Y-153262510D01*
X79883000Y-153532408D01*
X79883000Y-153807592D01*
X79936686Y-154077490D01*
X80041995Y-154331727D01*
X80194880Y-154560535D01*
X80389465Y-154755120D01*
X80618273Y-154908005D01*
X80695515Y-154940000D01*
X80618273Y-154971995D01*
X80389465Y-155124880D01*
X80194880Y-155319465D01*
X80041995Y-155548273D01*
X79936686Y-155802510D01*
X79883000Y-156072408D01*
X79883000Y-156347592D01*
X79936686Y-156617490D01*
X80041995Y-156871727D01*
X80194880Y-157100535D01*
X80389465Y-157295120D01*
X80618273Y-157448005D01*
X80695515Y-157480000D01*
X80618273Y-157511995D01*
X80389465Y-157664880D01*
X80194880Y-157859465D01*
X80041995Y-158088273D01*
X79936686Y-158342510D01*
X79883000Y-158612408D01*
X79883000Y-158887592D01*
X79936686Y-159157490D01*
X80041995Y-159411727D01*
X80194880Y-159640535D01*
X80389465Y-159835120D01*
X80618273Y-159988005D01*
X80695515Y-160020000D01*
X80618273Y-160051995D01*
X80389465Y-160204880D01*
X80194880Y-160399465D01*
X80041995Y-160628273D01*
X79936686Y-160882510D01*
X79883000Y-161152408D01*
X79883000Y-161427592D01*
X79936686Y-161697490D01*
X80041995Y-161951727D01*
X80194880Y-162180535D01*
X80389465Y-162375120D01*
X80618273Y-162528005D01*
X80695515Y-162560000D01*
X80618273Y-162591995D01*
X80389465Y-162744880D01*
X80194880Y-162939465D01*
X80041995Y-163168273D01*
X79936686Y-163422510D01*
X79883000Y-163692408D01*
X79883000Y-163967592D01*
X79936686Y-164237490D01*
X80041995Y-164491727D01*
X80194880Y-164720535D01*
X80389465Y-164915120D01*
X80618273Y-165068005D01*
X80695515Y-165100000D01*
X80618273Y-165131995D01*
X80389465Y-165284880D01*
X80194880Y-165479465D01*
X80041995Y-165708273D01*
X79936686Y-165962510D01*
X79883000Y-166232408D01*
X79883000Y-166507592D01*
X79936686Y-166777490D01*
X80041995Y-167031727D01*
X80194880Y-167260535D01*
X80389465Y-167455120D01*
X80618273Y-167608005D01*
X80695515Y-167640000D01*
X80618273Y-167671995D01*
X80389465Y-167824880D01*
X80194880Y-168019465D01*
X80041995Y-168248273D01*
X79936686Y-168502510D01*
X79883000Y-168772408D01*
X79883000Y-169047592D01*
X79936686Y-169317490D01*
X80041995Y-169571727D01*
X80194880Y-169800535D01*
X80389465Y-169995120D01*
X80618273Y-170148005D01*
X80695515Y-170180000D01*
X80618273Y-170211995D01*
X80389465Y-170364880D01*
X80194880Y-170559465D01*
X80041995Y-170788273D01*
X79936686Y-171042510D01*
X79883000Y-171312408D01*
X79883000Y-171587592D01*
X79936686Y-171857490D01*
X80041995Y-172111727D01*
X80194880Y-172340535D01*
X80389465Y-172535120D01*
X80618273Y-172688005D01*
X80872510Y-172793314D01*
X81142408Y-172847000D01*
X81417592Y-172847000D01*
X81687490Y-172793314D01*
X81941727Y-172688005D01*
X82170535Y-172535120D01*
X82365120Y-172340535D01*
X82518005Y-172111727D01*
X82525001Y-172094837D01*
X82525001Y-173957712D01*
X82498185Y-174231205D01*
X82428133Y-174463226D01*
X82314350Y-174677222D01*
X82161169Y-174865039D01*
X81974424Y-175019529D01*
X81761231Y-175134802D01*
X81529701Y-175206472D01*
X81258276Y-175235000D01*
X35627273Y-175235000D01*
X35638606Y-175197641D01*
X35658072Y-175000000D01*
X35658072Y-174250000D01*
X35638606Y-174052359D01*
X35580956Y-173862314D01*
X35487339Y-173687167D01*
X35361350Y-173533650D01*
X35207833Y-173407661D01*
X35109310Y-173355000D01*
X35207833Y-173302339D01*
X35361350Y-173176350D01*
X35487339Y-173022833D01*
X35580956Y-172847686D01*
X35638606Y-172657641D01*
X35658072Y-172460000D01*
X35658072Y-171710000D01*
X35638606Y-171512359D01*
X35580956Y-171322314D01*
X35487339Y-171147167D01*
X35361350Y-170993650D01*
X35207833Y-170867661D01*
X35109310Y-170815000D01*
X35207833Y-170762339D01*
X35361350Y-170636350D01*
X35487339Y-170482833D01*
X35580956Y-170307686D01*
X35638606Y-170117641D01*
X35658072Y-169920000D01*
X35658072Y-169430000D01*
X42961928Y-169430000D01*
X42961928Y-170930000D01*
X42978992Y-171103254D01*
X43029528Y-171269850D01*
X43111595Y-171423386D01*
X43222038Y-171557962D01*
X43356614Y-171668405D01*
X43510150Y-171750472D01*
X43676746Y-171801008D01*
X43850000Y-171818072D01*
X45050000Y-171818072D01*
X45223254Y-171801008D01*
X45389850Y-171750472D01*
X45543386Y-171668405D01*
X45677962Y-171557962D01*
X45788405Y-171423386D01*
X45842777Y-171321663D01*
X45894866Y-171385134D01*
X46120987Y-171570706D01*
X46378967Y-171708599D01*
X46658890Y-171793513D01*
X46950000Y-171822185D01*
X47241111Y-171793513D01*
X47521034Y-171708599D01*
X47779014Y-171570706D01*
X48005134Y-171385134D01*
X48190706Y-171159014D01*
X48328599Y-170901033D01*
X48413513Y-170621110D01*
X48435000Y-170402949D01*
X48435000Y-169957050D01*
X48413513Y-169738889D01*
X48328599Y-169458966D01*
X48313117Y-169430000D01*
X55026928Y-169430000D01*
X55026928Y-170930000D01*
X55043992Y-171103254D01*
X55094528Y-171269850D01*
X55176595Y-171423386D01*
X55287038Y-171557962D01*
X55421614Y-171668405D01*
X55575150Y-171750472D01*
X55741746Y-171801008D01*
X55915000Y-171818072D01*
X57115000Y-171818072D01*
X57288254Y-171801008D01*
X57454850Y-171750472D01*
X57608386Y-171668405D01*
X57742962Y-171557962D01*
X57853405Y-171423386D01*
X57907777Y-171321663D01*
X57959866Y-171385134D01*
X58185987Y-171570706D01*
X58443967Y-171708599D01*
X58723890Y-171793513D01*
X59015000Y-171822185D01*
X59306111Y-171793513D01*
X59586034Y-171708599D01*
X59844014Y-171570706D01*
X60070134Y-171385134D01*
X60255706Y-171159014D01*
X60393599Y-170901033D01*
X60478513Y-170621110D01*
X60500000Y-170402949D01*
X60500000Y-169957050D01*
X60478513Y-169738889D01*
X60393599Y-169458966D01*
X60255706Y-169200986D01*
X60070134Y-168974866D01*
X59844013Y-168789294D01*
X59586033Y-168651401D01*
X59306110Y-168566487D01*
X59015000Y-168537815D01*
X58723889Y-168566487D01*
X58443966Y-168651401D01*
X58185986Y-168789294D01*
X57959866Y-168974866D01*
X57907777Y-169038337D01*
X57853405Y-168936614D01*
X57742962Y-168802038D01*
X57608386Y-168691595D01*
X57454850Y-168609528D01*
X57288254Y-168558992D01*
X57115000Y-168541928D01*
X55915000Y-168541928D01*
X55741746Y-168558992D01*
X55575150Y-168609528D01*
X55421614Y-168691595D01*
X55287038Y-168802038D01*
X55176595Y-168936614D01*
X55094528Y-169090150D01*
X55043992Y-169256746D01*
X55026928Y-169430000D01*
X48313117Y-169430000D01*
X48190706Y-169200986D01*
X48005134Y-168974866D01*
X47779013Y-168789294D01*
X47521033Y-168651401D01*
X47241110Y-168566487D01*
X46950000Y-168537815D01*
X46658889Y-168566487D01*
X46378966Y-168651401D01*
X46120986Y-168789294D01*
X45894866Y-168974866D01*
X45842777Y-169038337D01*
X45788405Y-168936614D01*
X45677962Y-168802038D01*
X45543386Y-168691595D01*
X45389850Y-168609528D01*
X45223254Y-168558992D01*
X45050000Y-168541928D01*
X43850000Y-168541928D01*
X43676746Y-168558992D01*
X43510150Y-168609528D01*
X43356614Y-168691595D01*
X43222038Y-168802038D01*
X43111595Y-168936614D01*
X43029528Y-169090150D01*
X42978992Y-169256746D01*
X42961928Y-169430000D01*
X35658072Y-169430000D01*
X35658072Y-169170000D01*
X35638606Y-168972359D01*
X35580956Y-168782314D01*
X35487339Y-168607167D01*
X35361350Y-168453650D01*
X35207833Y-168327661D01*
X35109310Y-168275000D01*
X35207833Y-168222339D01*
X35361350Y-168096350D01*
X35487339Y-167942833D01*
X35580956Y-167767686D01*
X35638606Y-167577641D01*
X35658072Y-167380000D01*
X35658072Y-166630000D01*
X35638606Y-166432359D01*
X35580956Y-166242314D01*
X35487339Y-166067167D01*
X35361350Y-165913650D01*
X35207833Y-165787661D01*
X35109310Y-165735000D01*
X35207833Y-165682339D01*
X35361350Y-165556350D01*
X35487339Y-165402833D01*
X35580956Y-165227686D01*
X35638606Y-165037641D01*
X35658072Y-164840000D01*
X35658072Y-164090000D01*
X35638606Y-163892359D01*
X35580956Y-163702314D01*
X35487339Y-163527167D01*
X35361350Y-163373650D01*
X35207833Y-163247661D01*
X35109310Y-163195000D01*
X35207833Y-163142339D01*
X35361350Y-163016350D01*
X35487339Y-162862833D01*
X35580956Y-162687686D01*
X35638606Y-162497641D01*
X35658072Y-162300000D01*
X35658072Y-161550000D01*
X35638606Y-161352359D01*
X35580956Y-161162314D01*
X35487339Y-160987167D01*
X35361350Y-160833650D01*
X35207833Y-160707661D01*
X35109310Y-160655000D01*
X35207833Y-160602339D01*
X35361350Y-160476350D01*
X35487339Y-160322833D01*
X35580956Y-160147686D01*
X35638606Y-159957641D01*
X35658072Y-159760000D01*
X35658072Y-159010000D01*
X35638606Y-158812359D01*
X35580956Y-158622314D01*
X35487339Y-158447167D01*
X35361350Y-158293650D01*
X35207833Y-158167661D01*
X35109310Y-158115000D01*
X35207833Y-158062339D01*
X35361350Y-157936350D01*
X35487339Y-157782833D01*
X35580956Y-157607686D01*
X35638606Y-157417641D01*
X35658072Y-157220000D01*
X35658072Y-156470000D01*
X35654131Y-156429990D01*
X38880410Y-156429990D01*
X45685469Y-163235050D01*
X45713182Y-163268818D01*
X45746950Y-163296531D01*
X45746952Y-163296533D01*
X45767105Y-163313072D01*
X45847940Y-163379412D01*
X46001686Y-163461590D01*
X46168509Y-163512196D01*
X46298522Y-163525001D01*
X46298530Y-163525001D01*
X46341999Y-163529282D01*
X46385468Y-163525001D01*
X61471530Y-163525001D01*
X61514999Y-163529282D01*
X61558468Y-163525001D01*
X61558476Y-163525001D01*
X61688489Y-163512196D01*
X61855312Y-163461590D01*
X62009058Y-163379412D01*
X62143816Y-163268818D01*
X62171533Y-163235045D01*
X62603518Y-162803060D01*
X62713816Y-162825000D01*
X63016184Y-162825000D01*
X63312743Y-162766011D01*
X63592095Y-162650299D01*
X63843505Y-162482312D01*
X64057312Y-162268505D01*
X64225299Y-162017095D01*
X64341011Y-161737743D01*
X64400000Y-161441184D01*
X64400000Y-161138816D01*
X64341011Y-160842257D01*
X64225299Y-160562905D01*
X64057312Y-160311495D01*
X63843505Y-160097688D01*
X63727237Y-160020000D01*
X63843505Y-159942312D01*
X64057312Y-159728505D01*
X64225299Y-159477095D01*
X64341011Y-159197743D01*
X64400000Y-158901184D01*
X64400000Y-158598816D01*
X64341011Y-158302257D01*
X64225299Y-158022905D01*
X64057312Y-157771495D01*
X63843505Y-157557688D01*
X63727237Y-157480000D01*
X63843505Y-157402312D01*
X64057312Y-157188505D01*
X64225299Y-156937095D01*
X64341011Y-156657743D01*
X64400000Y-156361184D01*
X64400000Y-156058816D01*
X64341011Y-155762257D01*
X64225299Y-155482905D01*
X64057312Y-155231495D01*
X63843505Y-155017688D01*
X63727237Y-154940000D01*
X63843505Y-154862312D01*
X64057312Y-154648505D01*
X64225299Y-154397095D01*
X64341011Y-154117743D01*
X64400000Y-153821184D01*
X64400000Y-153518816D01*
X64341011Y-153222257D01*
X64225299Y-152942905D01*
X64057312Y-152691495D01*
X63843505Y-152477688D01*
X63727237Y-152400000D01*
X63843505Y-152322312D01*
X64057312Y-152108505D01*
X64225299Y-151857095D01*
X64341011Y-151577743D01*
X64400000Y-151281184D01*
X64400000Y-150978816D01*
X64341011Y-150682257D01*
X64225299Y-150402905D01*
X64057312Y-150151495D01*
X63843505Y-149937688D01*
X63592095Y-149769701D01*
X63312743Y-149653989D01*
X63016184Y-149595000D01*
X62713816Y-149595000D01*
X62603518Y-149616939D01*
X61881533Y-148894955D01*
X61853816Y-148861182D01*
X61719058Y-148750588D01*
X61565312Y-148668410D01*
X61398489Y-148617804D01*
X61268476Y-148604999D01*
X61268468Y-148604999D01*
X61224999Y-148600718D01*
X61181530Y-148604999D01*
X60590000Y-148604999D01*
X60590000Y-148438816D01*
X60531011Y-148142257D01*
X60415299Y-147862905D01*
X60247312Y-147611495D01*
X60033505Y-147397688D01*
X59782095Y-147229701D01*
X59502743Y-147113989D01*
X59206184Y-147055000D01*
X58903816Y-147055000D01*
X58607257Y-147113989D01*
X58327905Y-147229701D01*
X58076495Y-147397688D01*
X57862688Y-147611495D01*
X57723854Y-147819274D01*
X57249535Y-147344955D01*
X57221818Y-147311182D01*
X57087060Y-147200588D01*
X56933314Y-147118410D01*
X56766491Y-147067804D01*
X56636478Y-147054999D01*
X56636470Y-147054999D01*
X56593001Y-147050718D01*
X56549532Y-147054999D01*
X55340464Y-147054999D01*
X55296998Y-147050718D01*
X55253532Y-147054999D01*
X55253522Y-147054999D01*
X55123509Y-147067804D01*
X54956686Y-147118410D01*
X54802940Y-147200588D01*
X54780167Y-147219277D01*
X54816011Y-147132743D01*
X54875000Y-146836184D01*
X54875000Y-146533816D01*
X54853613Y-146426295D01*
X54868816Y-146413818D01*
X54979410Y-146279060D01*
X55061588Y-146125314D01*
X55112194Y-145958491D01*
X55124999Y-145828478D01*
X55124999Y-145828470D01*
X55129280Y-145785001D01*
X55124999Y-145741532D01*
X55124999Y-138292408D01*
X64643000Y-138292408D01*
X64643000Y-138567592D01*
X64696686Y-138837490D01*
X64801995Y-139091727D01*
X64954880Y-139320535D01*
X65149465Y-139515120D01*
X65378273Y-139668005D01*
X65455515Y-139700000D01*
X65378273Y-139731995D01*
X65149465Y-139884880D01*
X64954880Y-140079465D01*
X64801995Y-140308273D01*
X64696686Y-140562510D01*
X64643000Y-140832408D01*
X64643000Y-141107592D01*
X64696686Y-141377490D01*
X64801995Y-141631727D01*
X64954880Y-141860535D01*
X65149465Y-142055120D01*
X65378273Y-142208005D01*
X65455515Y-142240000D01*
X65378273Y-142271995D01*
X65149465Y-142424880D01*
X64954880Y-142619465D01*
X64801995Y-142848273D01*
X64696686Y-143102510D01*
X64643000Y-143372408D01*
X64643000Y-143647592D01*
X64696686Y-143917490D01*
X64801995Y-144171727D01*
X64954880Y-144400535D01*
X65149465Y-144595120D01*
X65378273Y-144748005D01*
X65455515Y-144780000D01*
X65378273Y-144811995D01*
X65149465Y-144964880D01*
X64954880Y-145159465D01*
X64801995Y-145388273D01*
X64696686Y-145642510D01*
X64643000Y-145912408D01*
X64643000Y-146187592D01*
X64696686Y-146457490D01*
X64801995Y-146711727D01*
X64954880Y-146940535D01*
X65149465Y-147135120D01*
X65378273Y-147288005D01*
X65455515Y-147320000D01*
X65378273Y-147351995D01*
X65149465Y-147504880D01*
X64954880Y-147699465D01*
X64801995Y-147928273D01*
X64696686Y-148182510D01*
X64643000Y-148452408D01*
X64643000Y-148727592D01*
X64696686Y-148997490D01*
X64801995Y-149251727D01*
X64954880Y-149480535D01*
X65149465Y-149675120D01*
X65378273Y-149828005D01*
X65455515Y-149860000D01*
X65378273Y-149891995D01*
X65149465Y-150044880D01*
X64954880Y-150239465D01*
X64801995Y-150468273D01*
X64696686Y-150722510D01*
X64643000Y-150992408D01*
X64643000Y-151267592D01*
X64696686Y-151537490D01*
X64801995Y-151791727D01*
X64954880Y-152020535D01*
X65149465Y-152215120D01*
X65378273Y-152368005D01*
X65455515Y-152400000D01*
X65378273Y-152431995D01*
X65149465Y-152584880D01*
X64954880Y-152779465D01*
X64801995Y-153008273D01*
X64696686Y-153262510D01*
X64643000Y-153532408D01*
X64643000Y-153807592D01*
X64696686Y-154077490D01*
X64801995Y-154331727D01*
X64954880Y-154560535D01*
X65149465Y-154755120D01*
X65378273Y-154908005D01*
X65455515Y-154940000D01*
X65378273Y-154971995D01*
X65149465Y-155124880D01*
X64954880Y-155319465D01*
X64801995Y-155548273D01*
X64696686Y-155802510D01*
X64643000Y-156072408D01*
X64643000Y-156347592D01*
X64696686Y-156617490D01*
X64801995Y-156871727D01*
X64954880Y-157100535D01*
X65149465Y-157295120D01*
X65378273Y-157448005D01*
X65455515Y-157480000D01*
X65378273Y-157511995D01*
X65149465Y-157664880D01*
X64954880Y-157859465D01*
X64801995Y-158088273D01*
X64696686Y-158342510D01*
X64643000Y-158612408D01*
X64643000Y-158887592D01*
X64696686Y-159157490D01*
X64801995Y-159411727D01*
X64954880Y-159640535D01*
X65149465Y-159835120D01*
X65378273Y-159988005D01*
X65455515Y-160020000D01*
X65378273Y-160051995D01*
X65149465Y-160204880D01*
X64954880Y-160399465D01*
X64801995Y-160628273D01*
X64696686Y-160882510D01*
X64643000Y-161152408D01*
X64643000Y-161427592D01*
X64696686Y-161697490D01*
X64801995Y-161951727D01*
X64954880Y-162180535D01*
X65149465Y-162375120D01*
X65378273Y-162528005D01*
X65455515Y-162560000D01*
X65378273Y-162591995D01*
X65149465Y-162744880D01*
X64954880Y-162939465D01*
X64801995Y-163168273D01*
X64696686Y-163422510D01*
X64643000Y-163692408D01*
X64643000Y-163967592D01*
X64696686Y-164237490D01*
X64801995Y-164491727D01*
X64954880Y-164720535D01*
X65149465Y-164915120D01*
X65378273Y-165068005D01*
X65455515Y-165100000D01*
X65378273Y-165131995D01*
X65149465Y-165284880D01*
X64954880Y-165479465D01*
X64801995Y-165708273D01*
X64696686Y-165962510D01*
X64643000Y-166232408D01*
X64643000Y-166507592D01*
X64696686Y-166777490D01*
X64801995Y-167031727D01*
X64954880Y-167260535D01*
X65149465Y-167455120D01*
X65378273Y-167608005D01*
X65455515Y-167640000D01*
X65378273Y-167671995D01*
X65149465Y-167824880D01*
X64954880Y-168019465D01*
X64801995Y-168248273D01*
X64696686Y-168502510D01*
X64643000Y-168772408D01*
X64643000Y-169047592D01*
X64696686Y-169317490D01*
X64801995Y-169571727D01*
X64954880Y-169800535D01*
X65149465Y-169995120D01*
X65378273Y-170148005D01*
X65455515Y-170180000D01*
X65378273Y-170211995D01*
X65149465Y-170364880D01*
X64954880Y-170559465D01*
X64801995Y-170788273D01*
X64696686Y-171042510D01*
X64643000Y-171312408D01*
X64643000Y-171587592D01*
X64696686Y-171857490D01*
X64801995Y-172111727D01*
X64954880Y-172340535D01*
X65149465Y-172535120D01*
X65378273Y-172688005D01*
X65632510Y-172793314D01*
X65902408Y-172847000D01*
X66177592Y-172847000D01*
X66447490Y-172793314D01*
X66701727Y-172688005D01*
X66930535Y-172535120D01*
X67125120Y-172340535D01*
X67278005Y-172111727D01*
X67383314Y-171857490D01*
X67437000Y-171587592D01*
X67437000Y-171312408D01*
X67383314Y-171042510D01*
X67278005Y-170788273D01*
X67125120Y-170559465D01*
X66930535Y-170364880D01*
X66701727Y-170211995D01*
X66624485Y-170180000D01*
X66701727Y-170148005D01*
X66930535Y-169995120D01*
X67125120Y-169800535D01*
X67278005Y-169571727D01*
X67383314Y-169317490D01*
X67437000Y-169047592D01*
X67437000Y-168772408D01*
X67383314Y-168502510D01*
X67278005Y-168248273D01*
X67125120Y-168019465D01*
X66930535Y-167824880D01*
X66701727Y-167671995D01*
X66624485Y-167640000D01*
X66701727Y-167608005D01*
X66930535Y-167455120D01*
X67125120Y-167260535D01*
X67278005Y-167031727D01*
X67383314Y-166777490D01*
X67437000Y-166507592D01*
X67437000Y-166232408D01*
X67383314Y-165962510D01*
X67278005Y-165708273D01*
X67125120Y-165479465D01*
X66930535Y-165284880D01*
X66701727Y-165131995D01*
X66624485Y-165100000D01*
X66701727Y-165068005D01*
X66930535Y-164915120D01*
X67125120Y-164720535D01*
X67278005Y-164491727D01*
X67383314Y-164237490D01*
X67437000Y-163967592D01*
X67437000Y-163692408D01*
X67383314Y-163422510D01*
X67278005Y-163168273D01*
X67125120Y-162939465D01*
X66930535Y-162744880D01*
X66701727Y-162591995D01*
X66624485Y-162560000D01*
X66701727Y-162528005D01*
X66930535Y-162375120D01*
X67125120Y-162180535D01*
X67278005Y-161951727D01*
X67383314Y-161697490D01*
X67437000Y-161427592D01*
X67437000Y-161152408D01*
X67383314Y-160882510D01*
X67278005Y-160628273D01*
X67125120Y-160399465D01*
X66930535Y-160204880D01*
X66701727Y-160051995D01*
X66624485Y-160020000D01*
X66701727Y-159988005D01*
X66930535Y-159835120D01*
X67125120Y-159640535D01*
X67278005Y-159411727D01*
X67383314Y-159157490D01*
X67437000Y-158887592D01*
X67437000Y-158612408D01*
X67383314Y-158342510D01*
X67278005Y-158088273D01*
X67125120Y-157859465D01*
X66930535Y-157664880D01*
X66701727Y-157511995D01*
X66624485Y-157480000D01*
X66701727Y-157448005D01*
X66930535Y-157295120D01*
X67125120Y-157100535D01*
X67278005Y-156871727D01*
X67383314Y-156617490D01*
X67437000Y-156347592D01*
X67437000Y-156072408D01*
X67383314Y-155802510D01*
X67278005Y-155548273D01*
X67125120Y-155319465D01*
X66930535Y-155124880D01*
X66701727Y-154971995D01*
X66624485Y-154940000D01*
X66701727Y-154908005D01*
X66930535Y-154755120D01*
X67125120Y-154560535D01*
X67278005Y-154331727D01*
X67383314Y-154077490D01*
X67437000Y-153807592D01*
X67437000Y-153532408D01*
X67383314Y-153262510D01*
X67278005Y-153008273D01*
X67125120Y-152779465D01*
X66930535Y-152584880D01*
X66701727Y-152431995D01*
X66624485Y-152400000D01*
X66701727Y-152368005D01*
X66930535Y-152215120D01*
X67125120Y-152020535D01*
X67278005Y-151791727D01*
X67383314Y-151537490D01*
X67437000Y-151267592D01*
X67437000Y-150992408D01*
X67383314Y-150722510D01*
X67278005Y-150468273D01*
X67125120Y-150239465D01*
X66930535Y-150044880D01*
X66701727Y-149891995D01*
X66624485Y-149860000D01*
X66701727Y-149828005D01*
X66930535Y-149675120D01*
X67125120Y-149480535D01*
X67278005Y-149251727D01*
X67383314Y-148997490D01*
X67437000Y-148727592D01*
X67437000Y-148452408D01*
X67383314Y-148182510D01*
X67278005Y-147928273D01*
X67125120Y-147699465D01*
X66930535Y-147504880D01*
X66701727Y-147351995D01*
X66624485Y-147320000D01*
X66701727Y-147288005D01*
X66930535Y-147135120D01*
X67125120Y-146940535D01*
X67278005Y-146711727D01*
X67383314Y-146457490D01*
X67437000Y-146187592D01*
X67437000Y-145912408D01*
X67383314Y-145642510D01*
X67278005Y-145388273D01*
X67125120Y-145159465D01*
X66930535Y-144964880D01*
X66701727Y-144811995D01*
X66624485Y-144780000D01*
X66701727Y-144748005D01*
X66930535Y-144595120D01*
X67125120Y-144400535D01*
X67278005Y-144171727D01*
X67383314Y-143917490D01*
X67437000Y-143647592D01*
X67437000Y-143372408D01*
X67383314Y-143102510D01*
X67278005Y-142848273D01*
X67125120Y-142619465D01*
X66930535Y-142424880D01*
X66701727Y-142271995D01*
X66624485Y-142240000D01*
X66701727Y-142208005D01*
X66930535Y-142055120D01*
X67125120Y-141860535D01*
X67278005Y-141631727D01*
X67383314Y-141377490D01*
X67437000Y-141107592D01*
X67437000Y-140832408D01*
X67383314Y-140562510D01*
X67278005Y-140308273D01*
X67125120Y-140079465D01*
X66930535Y-139884880D01*
X66701727Y-139731995D01*
X66624485Y-139700000D01*
X66701727Y-139668005D01*
X66930535Y-139515120D01*
X67125120Y-139320535D01*
X67278005Y-139091727D01*
X67383314Y-138837490D01*
X67437000Y-138567592D01*
X67437000Y-138292408D01*
X67383314Y-138022510D01*
X67278005Y-137768273D01*
X67125120Y-137539465D01*
X66930535Y-137344880D01*
X66701727Y-137191995D01*
X66447490Y-137086686D01*
X66177592Y-137033000D01*
X65902408Y-137033000D01*
X65632510Y-137086686D01*
X65378273Y-137191995D01*
X65149465Y-137344880D01*
X64954880Y-137539465D01*
X64801995Y-137768273D01*
X64696686Y-138022510D01*
X64643000Y-138292408D01*
X55124999Y-138292408D01*
X55124999Y-135134999D01*
X55525209Y-135134999D01*
X55587687Y-135228504D01*
X55801494Y-135442311D01*
X56052904Y-135610298D01*
X56332256Y-135726010D01*
X56628815Y-135784999D01*
X56931183Y-135784999D01*
X57227742Y-135726010D01*
X57507094Y-135610298D01*
X57758504Y-135442311D01*
X57972311Y-135228504D01*
X58140298Y-134977094D01*
X58256010Y-134697742D01*
X58314999Y-134401183D01*
X58314999Y-134098815D01*
X58256010Y-133802256D01*
X58140298Y-133522904D01*
X58041472Y-133375000D01*
X81247723Y-133375000D01*
X81521204Y-133401815D01*
X81521204Y-133401815D01*
G37*
X81521204Y-133401815D02*
X81753226Y-133471867D01*
X81967222Y-133585650D01*
X82155041Y-133738832D01*
X82309530Y-133925577D01*
X82424801Y-134138769D01*
X82496472Y-134370300D01*
X82525000Y-134641725D01*
X82525000Y-137785161D01*
X82518005Y-137768273D01*
X82365120Y-137539465D01*
X82170535Y-137344880D01*
X81941727Y-137191995D01*
X81687490Y-137086686D01*
X81417592Y-137033000D01*
X81142408Y-137033000D01*
X80872510Y-137086686D01*
X80618273Y-137191995D01*
X80389465Y-137344880D01*
X80194880Y-137539465D01*
X80041995Y-137768273D01*
X79936686Y-138022510D01*
X79883000Y-138292408D01*
X79883000Y-138567592D01*
X79936686Y-138837490D01*
X80041995Y-139091727D01*
X80194880Y-139320535D01*
X80389465Y-139515120D01*
X80618273Y-139668005D01*
X80695515Y-139700000D01*
X80618273Y-139731995D01*
X80389465Y-139884880D01*
X80194880Y-140079465D01*
X80041995Y-140308273D01*
X79936686Y-140562510D01*
X79883000Y-140832408D01*
X79883000Y-141107592D01*
X79936686Y-141377490D01*
X80041995Y-141631727D01*
X80194880Y-141860535D01*
X80389465Y-142055120D01*
X80618273Y-142208005D01*
X80695515Y-142240000D01*
X80618273Y-142271995D01*
X80389465Y-142424880D01*
X80194880Y-142619465D01*
X80041995Y-142848273D01*
X79936686Y-143102510D01*
X79883000Y-143372408D01*
X79883000Y-143647592D01*
X79936686Y-143917490D01*
X80041995Y-144171727D01*
X80194880Y-144400535D01*
X80389465Y-144595120D01*
X80618273Y-144748005D01*
X80695515Y-144780000D01*
X80618273Y-144811995D01*
X80389465Y-144964880D01*
X80194880Y-145159465D01*
X80041995Y-145388273D01*
X79936686Y-145642510D01*
X79883000Y-145912408D01*
X79883000Y-146187592D01*
X79936686Y-146457490D01*
X80041995Y-146711727D01*
X80194880Y-146940535D01*
X80389465Y-147135120D01*
X80618273Y-147288005D01*
X80695515Y-147320000D01*
X80618273Y-147351995D01*
X80389465Y-147504880D01*
X80194880Y-147699465D01*
X80041995Y-147928273D01*
X79936686Y-148182510D01*
X79883000Y-148452408D01*
X79883000Y-148727592D01*
X79936686Y-148997490D01*
X80041995Y-149251727D01*
X80194880Y-149480535D01*
X80389465Y-149675120D01*
X80618273Y-149828005D01*
X80695515Y-149860000D01*
X80618273Y-149891995D01*
X80389465Y-150044880D01*
X80194880Y-150239465D01*
X80041995Y-150468273D01*
X79936686Y-150722510D01*
X79883000Y-150992408D01*
X79883000Y-151267592D01*
X79936686Y-151537490D01*
X80041995Y-151791727D01*
X80194880Y-152020535D01*
X80389465Y-152215120D01*
X80618273Y-152368005D01*
X80695515Y-152400000D01*
X80618273Y-152431995D01*
X80389465Y-152584880D01*
X80194880Y-152779465D01*
X80041995Y-153008273D01*
X79936686Y-153262510D01*
X79883000Y-153532408D01*
X79883000Y-153807592D01*
X79936686Y-154077490D01*
X80041995Y-154331727D01*
X80194880Y-154560535D01*
X80389465Y-154755120D01*
X80618273Y-154908005D01*
X80695515Y-154940000D01*
X80618273Y-154971995D01*
X80389465Y-155124880D01*
X80194880Y-155319465D01*
X80041995Y-155548273D01*
X79936686Y-155802510D01*
X79883000Y-156072408D01*
X79883000Y-156347592D01*
X79936686Y-156617490D01*
X80041995Y-156871727D01*
X80194880Y-157100535D01*
X80389465Y-157295120D01*
X80618273Y-157448005D01*
X80695515Y-157480000D01*
X80618273Y-157511995D01*
X80389465Y-157664880D01*
X80194880Y-157859465D01*
X80041995Y-158088273D01*
X79936686Y-158342510D01*
X79883000Y-158612408D01*
X79883000Y-158887592D01*
X79936686Y-159157490D01*
X80041995Y-159411727D01*
X80194880Y-159640535D01*
X80389465Y-159835120D01*
X80618273Y-159988005D01*
X80695515Y-160020000D01*
X80618273Y-160051995D01*
X80389465Y-160204880D01*
X80194880Y-160399465D01*
X80041995Y-160628273D01*
X79936686Y-160882510D01*
X79883000Y-161152408D01*
X79883000Y-161427592D01*
X79936686Y-161697490D01*
X80041995Y-161951727D01*
X80194880Y-162180535D01*
X80389465Y-162375120D01*
X80618273Y-162528005D01*
X80695515Y-162560000D01*
X80618273Y-162591995D01*
X80389465Y-162744880D01*
X80194880Y-162939465D01*
X80041995Y-163168273D01*
X79936686Y-163422510D01*
X79883000Y-163692408D01*
X79883000Y-163967592D01*
X79936686Y-164237490D01*
X80041995Y-164491727D01*
X80194880Y-164720535D01*
X80389465Y-164915120D01*
X80618273Y-165068005D01*
X80695515Y-165100000D01*
X80618273Y-165131995D01*
X80389465Y-165284880D01*
X80194880Y-165479465D01*
X80041995Y-165708273D01*
X79936686Y-165962510D01*
X79883000Y-166232408D01*
X79883000Y-166507592D01*
X79936686Y-166777490D01*
X80041995Y-167031727D01*
X80194880Y-167260535D01*
X80389465Y-167455120D01*
X80618273Y-167608005D01*
X80695515Y-167640000D01*
X80618273Y-167671995D01*
X80389465Y-167824880D01*
X80194880Y-168019465D01*
X80041995Y-168248273D01*
X79936686Y-168502510D01*
X79883000Y-168772408D01*
X79883000Y-169047592D01*
X79936686Y-169317490D01*
X80041995Y-169571727D01*
X80194880Y-169800535D01*
X80389465Y-169995120D01*
X80618273Y-170148005D01*
X80695515Y-170180000D01*
X80618273Y-170211995D01*
X80389465Y-170364880D01*
X80194880Y-170559465D01*
X80041995Y-170788273D01*
X79936686Y-171042510D01*
X79883000Y-171312408D01*
X79883000Y-171587592D01*
X79936686Y-171857490D01*
X80041995Y-172111727D01*
X80194880Y-172340535D01*
X80389465Y-172535120D01*
X80618273Y-172688005D01*
X80872510Y-172793314D01*
X81142408Y-172847000D01*
X81417592Y-172847000D01*
X81687490Y-172793314D01*
X81941727Y-172688005D01*
X82170535Y-172535120D01*
X82365120Y-172340535D01*
X82518005Y-172111727D01*
X82525001Y-172094837D01*
X82525001Y-173957712D01*
X82498185Y-174231205D01*
X82428133Y-174463226D01*
X82314350Y-174677222D01*
X82161169Y-174865039D01*
X81974424Y-175019529D01*
X81761231Y-175134802D01*
X81529701Y-175206472D01*
X81258276Y-175235000D01*
X35627273Y-175235000D01*
X35638606Y-175197641D01*
X35658072Y-175000000D01*
X35658072Y-174250000D01*
X35638606Y-174052359D01*
X35580956Y-173862314D01*
X35487339Y-173687167D01*
X35361350Y-173533650D01*
X35207833Y-173407661D01*
X35109310Y-173355000D01*
X35207833Y-173302339D01*
X35361350Y-173176350D01*
X35487339Y-173022833D01*
X35580956Y-172847686D01*
X35638606Y-172657641D01*
X35658072Y-172460000D01*
X35658072Y-171710000D01*
X35638606Y-171512359D01*
X35580956Y-171322314D01*
X35487339Y-171147167D01*
X35361350Y-170993650D01*
X35207833Y-170867661D01*
X35109310Y-170815000D01*
X35207833Y-170762339D01*
X35361350Y-170636350D01*
X35487339Y-170482833D01*
X35580956Y-170307686D01*
X35638606Y-170117641D01*
X35658072Y-169920000D01*
X35658072Y-169430000D01*
X42961928Y-169430000D01*
X42961928Y-170930000D01*
X42978992Y-171103254D01*
X43029528Y-171269850D01*
X43111595Y-171423386D01*
X43222038Y-171557962D01*
X43356614Y-171668405D01*
X43510150Y-171750472D01*
X43676746Y-171801008D01*
X43850000Y-171818072D01*
X45050000Y-171818072D01*
X45223254Y-171801008D01*
X45389850Y-171750472D01*
X45543386Y-171668405D01*
X45677962Y-171557962D01*
X45788405Y-171423386D01*
X45842777Y-171321663D01*
X45894866Y-171385134D01*
X46120987Y-171570706D01*
X46378967Y-171708599D01*
X46658890Y-171793513D01*
X46950000Y-171822185D01*
X47241111Y-171793513D01*
X47521034Y-171708599D01*
X47779014Y-171570706D01*
X48005134Y-171385134D01*
X48190706Y-171159014D01*
X48328599Y-170901033D01*
X48413513Y-170621110D01*
X48435000Y-170402949D01*
X48435000Y-169957050D01*
X48413513Y-169738889D01*
X48328599Y-169458966D01*
X48313117Y-169430000D01*
X55026928Y-169430000D01*
X55026928Y-170930000D01*
X55043992Y-171103254D01*
X55094528Y-171269850D01*
X55176595Y-171423386D01*
X55287038Y-171557962D01*
X55421614Y-171668405D01*
X55575150Y-171750472D01*
X55741746Y-171801008D01*
X55915000Y-171818072D01*
X57115000Y-171818072D01*
X57288254Y-171801008D01*
X57454850Y-171750472D01*
X57608386Y-171668405D01*
X57742962Y-171557962D01*
X57853405Y-171423386D01*
X57907777Y-171321663D01*
X57959866Y-171385134D01*
X58185987Y-171570706D01*
X58443967Y-171708599D01*
X58723890Y-171793513D01*
X59015000Y-171822185D01*
X59306111Y-171793513D01*
X59586034Y-171708599D01*
X59844014Y-171570706D01*
X60070134Y-171385134D01*
X60255706Y-171159014D01*
X60393599Y-170901033D01*
X60478513Y-170621110D01*
X60500000Y-170402949D01*
X60500000Y-169957050D01*
X60478513Y-169738889D01*
X60393599Y-169458966D01*
X60255706Y-169200986D01*
X60070134Y-168974866D01*
X59844013Y-168789294D01*
X59586033Y-168651401D01*
X59306110Y-168566487D01*
X59015000Y-168537815D01*
X58723889Y-168566487D01*
X58443966Y-168651401D01*
X58185986Y-168789294D01*
X57959866Y-168974866D01*
X57907777Y-169038337D01*
X57853405Y-168936614D01*
X57742962Y-168802038D01*
X57608386Y-168691595D01*
X57454850Y-168609528D01*
X57288254Y-168558992D01*
X57115000Y-168541928D01*
X55915000Y-168541928D01*
X55741746Y-168558992D01*
X55575150Y-168609528D01*
X55421614Y-168691595D01*
X55287038Y-168802038D01*
X55176595Y-168936614D01*
X55094528Y-169090150D01*
X55043992Y-169256746D01*
X55026928Y-169430000D01*
X48313117Y-169430000D01*
X48190706Y-169200986D01*
X48005134Y-168974866D01*
X47779013Y-168789294D01*
X47521033Y-168651401D01*
X47241110Y-168566487D01*
X46950000Y-168537815D01*
X46658889Y-168566487D01*
X46378966Y-168651401D01*
X46120986Y-168789294D01*
X45894866Y-168974866D01*
X45842777Y-169038337D01*
X45788405Y-168936614D01*
X45677962Y-168802038D01*
X45543386Y-168691595D01*
X45389850Y-168609528D01*
X45223254Y-168558992D01*
X45050000Y-168541928D01*
X43850000Y-168541928D01*
X43676746Y-168558992D01*
X43510150Y-168609528D01*
X43356614Y-168691595D01*
X43222038Y-168802038D01*
X43111595Y-168936614D01*
X43029528Y-169090150D01*
X42978992Y-169256746D01*
X42961928Y-169430000D01*
X35658072Y-169430000D01*
X35658072Y-169170000D01*
X35638606Y-168972359D01*
X35580956Y-168782314D01*
X35487339Y-168607167D01*
X35361350Y-168453650D01*
X35207833Y-168327661D01*
X35109310Y-168275000D01*
X35207833Y-168222339D01*
X35361350Y-168096350D01*
X35487339Y-167942833D01*
X35580956Y-167767686D01*
X35638606Y-167577641D01*
X35658072Y-167380000D01*
X35658072Y-166630000D01*
X35638606Y-166432359D01*
X35580956Y-166242314D01*
X35487339Y-166067167D01*
X35361350Y-165913650D01*
X35207833Y-165787661D01*
X35109310Y-165735000D01*
X35207833Y-165682339D01*
X35361350Y-165556350D01*
X35487339Y-165402833D01*
X35580956Y-165227686D01*
X35638606Y-165037641D01*
X35658072Y-164840000D01*
X35658072Y-164090000D01*
X35638606Y-163892359D01*
X35580956Y-163702314D01*
X35487339Y-163527167D01*
X35361350Y-163373650D01*
X35207833Y-163247661D01*
X35109310Y-163195000D01*
X35207833Y-163142339D01*
X35361350Y-163016350D01*
X35487339Y-162862833D01*
X35580956Y-162687686D01*
X35638606Y-162497641D01*
X35658072Y-162300000D01*
X35658072Y-161550000D01*
X35638606Y-161352359D01*
X35580956Y-161162314D01*
X35487339Y-160987167D01*
X35361350Y-160833650D01*
X35207833Y-160707661D01*
X35109310Y-160655000D01*
X35207833Y-160602339D01*
X35361350Y-160476350D01*
X35487339Y-160322833D01*
X35580956Y-160147686D01*
X35638606Y-159957641D01*
X35658072Y-159760000D01*
X35658072Y-159010000D01*
X35638606Y-158812359D01*
X35580956Y-158622314D01*
X35487339Y-158447167D01*
X35361350Y-158293650D01*
X35207833Y-158167661D01*
X35109310Y-158115000D01*
X35207833Y-158062339D01*
X35361350Y-157936350D01*
X35487339Y-157782833D01*
X35580956Y-157607686D01*
X35638606Y-157417641D01*
X35658072Y-157220000D01*
X35658072Y-156470000D01*
X35654131Y-156429990D01*
X38880410Y-156429990D01*
X45685469Y-163235050D01*
X45713182Y-163268818D01*
X45746950Y-163296531D01*
X45746952Y-163296533D01*
X45767105Y-163313072D01*
X45847940Y-163379412D01*
X46001686Y-163461590D01*
X46168509Y-163512196D01*
X46298522Y-163525001D01*
X46298530Y-163525001D01*
X46341999Y-163529282D01*
X46385468Y-163525001D01*
X61471530Y-163525001D01*
X61514999Y-163529282D01*
X61558468Y-163525001D01*
X61558476Y-163525001D01*
X61688489Y-163512196D01*
X61855312Y-163461590D01*
X62009058Y-163379412D01*
X62143816Y-163268818D01*
X62171533Y-163235045D01*
X62603518Y-162803060D01*
X62713816Y-162825000D01*
X63016184Y-162825000D01*
X63312743Y-162766011D01*
X63592095Y-162650299D01*
X63843505Y-162482312D01*
X64057312Y-162268505D01*
X64225299Y-162017095D01*
X64341011Y-161737743D01*
X64400000Y-161441184D01*
X64400000Y-161138816D01*
X64341011Y-160842257D01*
X64225299Y-160562905D01*
X64057312Y-160311495D01*
X63843505Y-160097688D01*
X63727237Y-160020000D01*
X63843505Y-159942312D01*
X64057312Y-159728505D01*
X64225299Y-159477095D01*
X64341011Y-159197743D01*
X64400000Y-158901184D01*
X64400000Y-158598816D01*
X64341011Y-158302257D01*
X64225299Y-158022905D01*
X64057312Y-157771495D01*
X63843505Y-157557688D01*
X63727237Y-157480000D01*
X63843505Y-157402312D01*
X64057312Y-157188505D01*
X64225299Y-156937095D01*
X64341011Y-156657743D01*
X64400000Y-156361184D01*
X64400000Y-156058816D01*
X64341011Y-155762257D01*
X64225299Y-155482905D01*
X64057312Y-155231495D01*
X63843505Y-155017688D01*
X63727237Y-154940000D01*
X63843505Y-154862312D01*
X64057312Y-154648505D01*
X64225299Y-154397095D01*
X64341011Y-154117743D01*
X64400000Y-153821184D01*
X64400000Y-153518816D01*
X64341011Y-153222257D01*
X64225299Y-152942905D01*
X64057312Y-152691495D01*
X63843505Y-152477688D01*
X63727237Y-152400000D01*
X63843505Y-152322312D01*
X64057312Y-152108505D01*
X64225299Y-151857095D01*
X64341011Y-151577743D01*
X64400000Y-151281184D01*
X64400000Y-150978816D01*
X64341011Y-150682257D01*
X64225299Y-150402905D01*
X64057312Y-150151495D01*
X63843505Y-149937688D01*
X63592095Y-149769701D01*
X63312743Y-149653989D01*
X63016184Y-149595000D01*
X62713816Y-149595000D01*
X62603518Y-149616939D01*
X61881533Y-148894955D01*
X61853816Y-148861182D01*
X61719058Y-148750588D01*
X61565312Y-148668410D01*
X61398489Y-148617804D01*
X61268476Y-148604999D01*
X61268468Y-148604999D01*
X61224999Y-148600718D01*
X61181530Y-148604999D01*
X60590000Y-148604999D01*
X60590000Y-148438816D01*
X60531011Y-148142257D01*
X60415299Y-147862905D01*
X60247312Y-147611495D01*
X60033505Y-147397688D01*
X59782095Y-147229701D01*
X59502743Y-147113989D01*
X59206184Y-147055000D01*
X58903816Y-147055000D01*
X58607257Y-147113989D01*
X58327905Y-147229701D01*
X58076495Y-147397688D01*
X57862688Y-147611495D01*
X57723854Y-147819274D01*
X57249535Y-147344955D01*
X57221818Y-147311182D01*
X57087060Y-147200588D01*
X56933314Y-147118410D01*
X56766491Y-147067804D01*
X56636478Y-147054999D01*
X56636470Y-147054999D01*
X56593001Y-147050718D01*
X56549532Y-147054999D01*
X55340464Y-147054999D01*
X55296998Y-147050718D01*
X55253532Y-147054999D01*
X55253522Y-147054999D01*
X55123509Y-147067804D01*
X54956686Y-147118410D01*
X54802940Y-147200588D01*
X54780167Y-147219277D01*
X54816011Y-147132743D01*
X54875000Y-146836184D01*
X54875000Y-146533816D01*
X54853613Y-146426295D01*
X54868816Y-146413818D01*
X54979410Y-146279060D01*
X55061588Y-146125314D01*
X55112194Y-145958491D01*
X55124999Y-145828478D01*
X55124999Y-145828470D01*
X55129280Y-145785001D01*
X55124999Y-145741532D01*
X55124999Y-138292408D01*
X64643000Y-138292408D01*
X64643000Y-138567592D01*
X64696686Y-138837490D01*
X64801995Y-139091727D01*
X64954880Y-139320535D01*
X65149465Y-139515120D01*
X65378273Y-139668005D01*
X65455515Y-139700000D01*
X65378273Y-139731995D01*
X65149465Y-139884880D01*
X64954880Y-140079465D01*
X64801995Y-140308273D01*
X64696686Y-140562510D01*
X64643000Y-140832408D01*
X64643000Y-141107592D01*
X64696686Y-141377490D01*
X64801995Y-141631727D01*
X64954880Y-141860535D01*
X65149465Y-142055120D01*
X65378273Y-142208005D01*
X65455515Y-142240000D01*
X65378273Y-142271995D01*
X65149465Y-142424880D01*
X64954880Y-142619465D01*
X64801995Y-142848273D01*
X64696686Y-143102510D01*
X64643000Y-143372408D01*
X64643000Y-143647592D01*
X64696686Y-143917490D01*
X64801995Y-144171727D01*
X64954880Y-144400535D01*
X65149465Y-144595120D01*
X65378273Y-144748005D01*
X65455515Y-144780000D01*
X65378273Y-144811995D01*
X65149465Y-144964880D01*
X64954880Y-145159465D01*
X64801995Y-145388273D01*
X64696686Y-145642510D01*
X64643000Y-145912408D01*
X64643000Y-146187592D01*
X64696686Y-146457490D01*
X64801995Y-146711727D01*
X64954880Y-146940535D01*
X65149465Y-147135120D01*
X65378273Y-147288005D01*
X65455515Y-147320000D01*
X65378273Y-147351995D01*
X65149465Y-147504880D01*
X64954880Y-147699465D01*
X64801995Y-147928273D01*
X64696686Y-148182510D01*
X64643000Y-148452408D01*
X64643000Y-148727592D01*
X64696686Y-148997490D01*
X64801995Y-149251727D01*
X64954880Y-149480535D01*
X65149465Y-149675120D01*
X65378273Y-149828005D01*
X65455515Y-149860000D01*
X65378273Y-149891995D01*
X65149465Y-150044880D01*
X64954880Y-150239465D01*
X64801995Y-150468273D01*
X64696686Y-150722510D01*
X64643000Y-150992408D01*
X64643000Y-151267592D01*
X64696686Y-151537490D01*
X64801995Y-151791727D01*
X64954880Y-152020535D01*
X65149465Y-152215120D01*
X65378273Y-152368005D01*
X65455515Y-152400000D01*
X65378273Y-152431995D01*
X65149465Y-152584880D01*
X64954880Y-152779465D01*
X64801995Y-153008273D01*
X64696686Y-153262510D01*
X64643000Y-153532408D01*
X64643000Y-153807592D01*
X64696686Y-154077490D01*
X64801995Y-154331727D01*
X64954880Y-154560535D01*
X65149465Y-154755120D01*
X65378273Y-154908005D01*
X65455515Y-154940000D01*
X65378273Y-154971995D01*
X65149465Y-155124880D01*
X64954880Y-155319465D01*
X64801995Y-155548273D01*
X64696686Y-155802510D01*
X64643000Y-156072408D01*
X64643000Y-156347592D01*
X64696686Y-156617490D01*
X64801995Y-156871727D01*
X64954880Y-157100535D01*
X65149465Y-157295120D01*
X65378273Y-157448005D01*
X65455515Y-157480000D01*
X65378273Y-157511995D01*
X65149465Y-157664880D01*
X64954880Y-157859465D01*
X64801995Y-158088273D01*
X64696686Y-158342510D01*
X64643000Y-158612408D01*
X64643000Y-158887592D01*
X64696686Y-159157490D01*
X64801995Y-159411727D01*
X64954880Y-159640535D01*
X65149465Y-159835120D01*
X65378273Y-159988005D01*
X65455515Y-160020000D01*
X65378273Y-160051995D01*
X65149465Y-160204880D01*
X64954880Y-160399465D01*
X64801995Y-160628273D01*
X64696686Y-160882510D01*
X64643000Y-161152408D01*
X64643000Y-161427592D01*
X64696686Y-161697490D01*
X64801995Y-161951727D01*
X64954880Y-162180535D01*
X65149465Y-162375120D01*
X65378273Y-162528005D01*
X65455515Y-162560000D01*
X65378273Y-162591995D01*
X65149465Y-162744880D01*
X64954880Y-162939465D01*
X64801995Y-163168273D01*
X64696686Y-163422510D01*
X64643000Y-163692408D01*
X64643000Y-163967592D01*
X64696686Y-164237490D01*
X64801995Y-164491727D01*
X64954880Y-164720535D01*
X65149465Y-164915120D01*
X65378273Y-165068005D01*
X65455515Y-165100000D01*
X65378273Y-165131995D01*
X65149465Y-165284880D01*
X64954880Y-165479465D01*
X64801995Y-165708273D01*
X64696686Y-165962510D01*
X64643000Y-166232408D01*
X64643000Y-166507592D01*
X64696686Y-166777490D01*
X64801995Y-167031727D01*
X64954880Y-167260535D01*
X65149465Y-167455120D01*
X65378273Y-167608005D01*
X65455515Y-167640000D01*
X65378273Y-167671995D01*
X65149465Y-167824880D01*
X64954880Y-168019465D01*
X64801995Y-168248273D01*
X64696686Y-168502510D01*
X64643000Y-168772408D01*
X64643000Y-169047592D01*
X64696686Y-169317490D01*
X64801995Y-169571727D01*
X64954880Y-169800535D01*
X65149465Y-169995120D01*
X65378273Y-170148005D01*
X65455515Y-170180000D01*
X65378273Y-170211995D01*
X65149465Y-170364880D01*
X64954880Y-170559465D01*
X64801995Y-170788273D01*
X64696686Y-171042510D01*
X64643000Y-171312408D01*
X64643000Y-171587592D01*
X64696686Y-171857490D01*
X64801995Y-172111727D01*
X64954880Y-172340535D01*
X65149465Y-172535120D01*
X65378273Y-172688005D01*
X65632510Y-172793314D01*
X65902408Y-172847000D01*
X66177592Y-172847000D01*
X66447490Y-172793314D01*
X66701727Y-172688005D01*
X66930535Y-172535120D01*
X67125120Y-172340535D01*
X67278005Y-172111727D01*
X67383314Y-171857490D01*
X67437000Y-171587592D01*
X67437000Y-171312408D01*
X67383314Y-171042510D01*
X67278005Y-170788273D01*
X67125120Y-170559465D01*
X66930535Y-170364880D01*
X66701727Y-170211995D01*
X66624485Y-170180000D01*
X66701727Y-170148005D01*
X66930535Y-169995120D01*
X67125120Y-169800535D01*
X67278005Y-169571727D01*
X67383314Y-169317490D01*
X67437000Y-169047592D01*
X67437000Y-168772408D01*
X67383314Y-168502510D01*
X67278005Y-168248273D01*
X67125120Y-168019465D01*
X66930535Y-167824880D01*
X66701727Y-167671995D01*
X66624485Y-167640000D01*
X66701727Y-167608005D01*
X66930535Y-167455120D01*
X67125120Y-167260535D01*
X67278005Y-167031727D01*
X67383314Y-166777490D01*
X67437000Y-166507592D01*
X67437000Y-166232408D01*
X67383314Y-165962510D01*
X67278005Y-165708273D01*
X67125120Y-165479465D01*
X66930535Y-165284880D01*
X66701727Y-165131995D01*
X66624485Y-165100000D01*
X66701727Y-165068005D01*
X66930535Y-164915120D01*
X67125120Y-164720535D01*
X67278005Y-164491727D01*
X67383314Y-164237490D01*
X67437000Y-163967592D01*
X67437000Y-163692408D01*
X67383314Y-163422510D01*
X67278005Y-163168273D01*
X67125120Y-162939465D01*
X66930535Y-162744880D01*
X66701727Y-162591995D01*
X66624485Y-162560000D01*
X66701727Y-162528005D01*
X66930535Y-162375120D01*
X67125120Y-162180535D01*
X67278005Y-161951727D01*
X67383314Y-161697490D01*
X67437000Y-161427592D01*
X67437000Y-161152408D01*
X67383314Y-160882510D01*
X67278005Y-160628273D01*
X67125120Y-160399465D01*
X66930535Y-160204880D01*
X66701727Y-160051995D01*
X66624485Y-160020000D01*
X66701727Y-159988005D01*
X66930535Y-159835120D01*
X67125120Y-159640535D01*
X67278005Y-159411727D01*
X67383314Y-159157490D01*
X67437000Y-158887592D01*
X67437000Y-158612408D01*
X67383314Y-158342510D01*
X67278005Y-158088273D01*
X67125120Y-157859465D01*
X66930535Y-157664880D01*
X66701727Y-157511995D01*
X66624485Y-157480000D01*
X66701727Y-157448005D01*
X66930535Y-157295120D01*
X67125120Y-157100535D01*
X67278005Y-156871727D01*
X67383314Y-156617490D01*
X67437000Y-156347592D01*
X67437000Y-156072408D01*
X67383314Y-155802510D01*
X67278005Y-155548273D01*
X67125120Y-155319465D01*
X66930535Y-155124880D01*
X66701727Y-154971995D01*
X66624485Y-154940000D01*
X66701727Y-154908005D01*
X66930535Y-154755120D01*
X67125120Y-154560535D01*
X67278005Y-154331727D01*
X67383314Y-154077490D01*
X67437000Y-153807592D01*
X67437000Y-153532408D01*
X67383314Y-153262510D01*
X67278005Y-153008273D01*
X67125120Y-152779465D01*
X66930535Y-152584880D01*
X66701727Y-152431995D01*
X66624485Y-152400000D01*
X66701727Y-152368005D01*
X66930535Y-152215120D01*
X67125120Y-152020535D01*
X67278005Y-151791727D01*
X67383314Y-151537490D01*
X67437000Y-151267592D01*
X67437000Y-150992408D01*
X67383314Y-150722510D01*
X67278005Y-150468273D01*
X67125120Y-150239465D01*
X66930535Y-150044880D01*
X66701727Y-149891995D01*
X66624485Y-149860000D01*
X66701727Y-149828005D01*
X66930535Y-149675120D01*
X67125120Y-149480535D01*
X67278005Y-149251727D01*
X67383314Y-148997490D01*
X67437000Y-148727592D01*
X67437000Y-148452408D01*
X67383314Y-148182510D01*
X67278005Y-147928273D01*
X67125120Y-147699465D01*
X66930535Y-147504880D01*
X66701727Y-147351995D01*
X66624485Y-147320000D01*
X66701727Y-147288005D01*
X66930535Y-147135120D01*
X67125120Y-146940535D01*
X67278005Y-146711727D01*
X67383314Y-146457490D01*
X67437000Y-146187592D01*
X67437000Y-145912408D01*
X67383314Y-145642510D01*
X67278005Y-145388273D01*
X67125120Y-145159465D01*
X66930535Y-144964880D01*
X66701727Y-144811995D01*
X66624485Y-144780000D01*
X66701727Y-144748005D01*
X66930535Y-144595120D01*
X67125120Y-144400535D01*
X67278005Y-144171727D01*
X67383314Y-143917490D01*
X67437000Y-143647592D01*
X67437000Y-143372408D01*
X67383314Y-143102510D01*
X67278005Y-142848273D01*
X67125120Y-142619465D01*
X66930535Y-142424880D01*
X66701727Y-142271995D01*
X66624485Y-142240000D01*
X66701727Y-142208005D01*
X66930535Y-142055120D01*
X67125120Y-141860535D01*
X67278005Y-141631727D01*
X67383314Y-141377490D01*
X67437000Y-141107592D01*
X67437000Y-140832408D01*
X67383314Y-140562510D01*
X67278005Y-140308273D01*
X67125120Y-140079465D01*
X66930535Y-139884880D01*
X66701727Y-139731995D01*
X66624485Y-139700000D01*
X66701727Y-139668005D01*
X66930535Y-139515120D01*
X67125120Y-139320535D01*
X67278005Y-139091727D01*
X67383314Y-138837490D01*
X67437000Y-138567592D01*
X67437000Y-138292408D01*
X67383314Y-138022510D01*
X67278005Y-137768273D01*
X67125120Y-137539465D01*
X66930535Y-137344880D01*
X66701727Y-137191995D01*
X66447490Y-137086686D01*
X66177592Y-137033000D01*
X65902408Y-137033000D01*
X65632510Y-137086686D01*
X65378273Y-137191995D01*
X65149465Y-137344880D01*
X64954880Y-137539465D01*
X64801995Y-137768273D01*
X64696686Y-138022510D01*
X64643000Y-138292408D01*
X55124999Y-138292408D01*
X55124999Y-135134999D01*
X55525209Y-135134999D01*
X55587687Y-135228504D01*
X55801494Y-135442311D01*
X56052904Y-135610298D01*
X56332256Y-135726010D01*
X56628815Y-135784999D01*
X56931183Y-135784999D01*
X57227742Y-135726010D01*
X57507094Y-135610298D01*
X57758504Y-135442311D01*
X57972311Y-135228504D01*
X58140298Y-134977094D01*
X58256010Y-134697742D01*
X58314999Y-134401183D01*
X58314999Y-134098815D01*
X58256010Y-133802256D01*
X58140298Y-133522904D01*
X58041472Y-133375000D01*
X81247723Y-133375000D01*
X81521204Y-133401815D01*
G36*
X82525001Y-170805163D02*
G01*
X82518005Y-170788273D01*
X82365120Y-170559465D01*
X82170535Y-170364880D01*
X81941727Y-170211995D01*
X81864485Y-170180000D01*
X81941727Y-170148005D01*
X82170535Y-169995120D01*
X82365120Y-169800535D01*
X82518005Y-169571727D01*
X82525001Y-169554838D01*
X82525001Y-170805163D01*
X82525001Y-170805163D01*
G37*
X82525001Y-170805163D02*
X82518005Y-170788273D01*
X82365120Y-170559465D01*
X82170535Y-170364880D01*
X81941727Y-170211995D01*
X81864485Y-170180000D01*
X81941727Y-170148005D01*
X82170535Y-169995120D01*
X82365120Y-169800535D01*
X82518005Y-169571727D01*
X82525001Y-169554838D01*
X82525001Y-170805163D01*
G36*
X82525001Y-168265162D02*
G01*
X82518005Y-168248273D01*
X82365120Y-168019465D01*
X82170535Y-167824880D01*
X81941727Y-167671995D01*
X81864485Y-167640000D01*
X81941727Y-167608005D01*
X82170535Y-167455120D01*
X82365120Y-167260535D01*
X82518005Y-167031727D01*
X82525001Y-167014838D01*
X82525001Y-168265162D01*
X82525001Y-168265162D01*
G37*
X82525001Y-168265162D02*
X82518005Y-168248273D01*
X82365120Y-168019465D01*
X82170535Y-167824880D01*
X81941727Y-167671995D01*
X81864485Y-167640000D01*
X81941727Y-167608005D01*
X82170535Y-167455120D01*
X82365120Y-167260535D01*
X82518005Y-167031727D01*
X82525001Y-167014838D01*
X82525001Y-168265162D01*
G36*
X82525001Y-165725162D02*
G01*
X82518005Y-165708273D01*
X82365120Y-165479465D01*
X82170535Y-165284880D01*
X81941727Y-165131995D01*
X81864485Y-165100000D01*
X81941727Y-165068005D01*
X82170535Y-164915120D01*
X82365120Y-164720535D01*
X82518005Y-164491727D01*
X82525001Y-164474838D01*
X82525001Y-165725162D01*
X82525001Y-165725162D01*
G37*
X82525001Y-165725162D02*
X82518005Y-165708273D01*
X82365120Y-165479465D01*
X82170535Y-165284880D01*
X81941727Y-165131995D01*
X81864485Y-165100000D01*
X81941727Y-165068005D01*
X82170535Y-164915120D01*
X82365120Y-164720535D01*
X82518005Y-164491727D01*
X82525001Y-164474838D01*
X82525001Y-165725162D01*
G36*
X82525001Y-163185162D02*
G01*
X82518005Y-163168273D01*
X82365120Y-162939465D01*
X82170535Y-162744880D01*
X81941727Y-162591995D01*
X81864485Y-162560000D01*
X81941727Y-162528005D01*
X82170535Y-162375120D01*
X82365120Y-162180535D01*
X82518005Y-161951727D01*
X82525001Y-161934838D01*
X82525001Y-163185162D01*
X82525001Y-163185162D01*
G37*
X82525001Y-163185162D02*
X82518005Y-163168273D01*
X82365120Y-162939465D01*
X82170535Y-162744880D01*
X81941727Y-162591995D01*
X81864485Y-162560000D01*
X81941727Y-162528005D01*
X82170535Y-162375120D01*
X82365120Y-162180535D01*
X82518005Y-161951727D01*
X82525001Y-161934838D01*
X82525001Y-163185162D01*
G36*
X62002763Y-160020000D02*
G01*
X61886495Y-160097688D01*
X61672688Y-160311495D01*
X61504701Y-160562905D01*
X61388989Y-160842257D01*
X61330000Y-161138816D01*
X61330000Y-161441184D01*
X61351940Y-161551482D01*
X61148421Y-161755001D01*
X58508514Y-161755001D01*
X58564236Y-161571309D01*
X58591943Y-161290000D01*
X58564236Y-161008691D01*
X58482182Y-160738192D01*
X58348932Y-160488899D01*
X58169608Y-160270392D01*
X57951101Y-160091068D01*
X57701808Y-159957818D01*
X57659588Y-159945011D01*
X61890534Y-159945011D01*
X62002763Y-160020000D01*
X62002763Y-160020000D01*
G37*
X62002763Y-160020000D02*
X61886495Y-160097688D01*
X61672688Y-160311495D01*
X61504701Y-160562905D01*
X61388989Y-160842257D01*
X61330000Y-161138816D01*
X61330000Y-161441184D01*
X61351940Y-161551482D01*
X61148421Y-161755001D01*
X58508514Y-161755001D01*
X58564236Y-161571309D01*
X58591943Y-161290000D01*
X58564236Y-161008691D01*
X58482182Y-160738192D01*
X58348932Y-160488899D01*
X58169608Y-160270392D01*
X57951101Y-160091068D01*
X57701808Y-159957818D01*
X57659588Y-159945011D01*
X61890534Y-159945011D01*
X62002763Y-160020000D01*
G36*
X56598192Y-159957818D02*
G01*
X56348899Y-160091068D01*
X56130392Y-160270392D01*
X55951068Y-160488899D01*
X55817818Y-160738192D01*
X55735764Y-161008691D01*
X55708057Y-161290000D01*
X55735764Y-161571309D01*
X55791486Y-161755001D01*
X48350622Y-161755001D01*
X48369853Y-161708574D01*
X48425000Y-161431335D01*
X48425000Y-161148665D01*
X48369853Y-160871426D01*
X48261680Y-160610273D01*
X48104637Y-160375241D01*
X47904759Y-160175363D01*
X47669727Y-160018320D01*
X47492743Y-159945011D01*
X56640412Y-159945011D01*
X56598192Y-159957818D01*
X56598192Y-159957818D01*
G37*
X56598192Y-159957818D02*
X56348899Y-160091068D01*
X56130392Y-160270392D01*
X55951068Y-160488899D01*
X55817818Y-160738192D01*
X55735764Y-161008691D01*
X55708057Y-161290000D01*
X55735764Y-161571309D01*
X55791486Y-161755001D01*
X48350622Y-161755001D01*
X48369853Y-161708574D01*
X48425000Y-161431335D01*
X48425000Y-161148665D01*
X48369853Y-160871426D01*
X48261680Y-160610273D01*
X48104637Y-160375241D01*
X47904759Y-160175363D01*
X47669727Y-160018320D01*
X47492743Y-159945011D01*
X56640412Y-159945011D01*
X56598192Y-159957818D01*
G36*
X46736483Y-159655060D02*
G01*
X46764196Y-159688828D01*
X46797964Y-159716541D01*
X46797966Y-159716543D01*
X46869465Y-159775221D01*
X46898954Y-159799422D01*
X47002934Y-159855000D01*
X46848665Y-159855000D01*
X46571426Y-159910147D01*
X46310273Y-160018320D01*
X46075241Y-160175363D01*
X45875363Y-160375241D01*
X45718320Y-160610273D01*
X45673077Y-160719500D01*
X44503577Y-159550000D01*
X44591335Y-159550000D01*
X44868574Y-159494853D01*
X45129727Y-159386680D01*
X45364759Y-159229637D01*
X45564637Y-159029759D01*
X45721680Y-158794727D01*
X45766923Y-158685500D01*
X46736483Y-159655060D01*
X46736483Y-159655060D01*
G37*
X46736483Y-159655060D02*
X46764196Y-159688828D01*
X46797964Y-159716541D01*
X46797966Y-159716543D01*
X46869465Y-159775221D01*
X46898954Y-159799422D01*
X47002934Y-159855000D01*
X46848665Y-159855000D01*
X46571426Y-159910147D01*
X46310273Y-160018320D01*
X46075241Y-160175363D01*
X45875363Y-160375241D01*
X45718320Y-160610273D01*
X45673077Y-160719500D01*
X44503577Y-159550000D01*
X44591335Y-159550000D01*
X44868574Y-159494853D01*
X45129727Y-159386680D01*
X45364759Y-159229637D01*
X45564637Y-159029759D01*
X45721680Y-158794727D01*
X45766923Y-158685500D01*
X46736483Y-159655060D01*
G36*
X82525001Y-160645162D02*
G01*
X82518005Y-160628273D01*
X82365120Y-160399465D01*
X82170535Y-160204880D01*
X81941727Y-160051995D01*
X81864485Y-160020000D01*
X81941727Y-159988005D01*
X82170535Y-159835120D01*
X82365120Y-159640535D01*
X82518005Y-159411727D01*
X82525001Y-159394838D01*
X82525001Y-160645162D01*
X82525001Y-160645162D01*
G37*
X82525001Y-160645162D02*
X82518005Y-160628273D01*
X82365120Y-160399465D01*
X82170535Y-160204880D01*
X81941727Y-160051995D01*
X81864485Y-160020000D01*
X81941727Y-159988005D01*
X82170535Y-159835120D01*
X82365120Y-159640535D01*
X82518005Y-159411727D01*
X82525001Y-159394838D01*
X82525001Y-160645162D01*
G36*
X50432613Y-150651190D02*
G01*
X50432614Y-154829136D01*
X50428332Y-154872615D01*
X50445418Y-155046105D01*
X50496025Y-155212928D01*
X50578203Y-155366674D01*
X50661081Y-155467661D01*
X50661084Y-155467664D01*
X50688797Y-155501432D01*
X50722564Y-155529144D01*
X53368430Y-158175011D01*
X49002476Y-158175011D01*
X49126101Y-158108932D01*
X49344608Y-157929608D01*
X49523932Y-157711101D01*
X49657182Y-157461808D01*
X49739236Y-157191309D01*
X49766943Y-156910000D01*
X49739236Y-156628691D01*
X49657182Y-156358192D01*
X49523932Y-156108899D01*
X49344608Y-155890392D01*
X49126101Y-155711068D01*
X48993142Y-155640000D01*
X49126101Y-155568932D01*
X49344608Y-155389608D01*
X49523932Y-155171101D01*
X49657182Y-154921808D01*
X49739236Y-154651309D01*
X49766943Y-154370000D01*
X49739236Y-154088691D01*
X49657182Y-153818192D01*
X49523932Y-153568899D01*
X49344608Y-153350392D01*
X49126101Y-153171068D01*
X48993142Y-153100000D01*
X49126101Y-153028932D01*
X49344608Y-152849608D01*
X49523932Y-152631101D01*
X49657182Y-152381808D01*
X49739236Y-152111309D01*
X49766943Y-151830000D01*
X49739236Y-151548691D01*
X49657182Y-151278192D01*
X49523932Y-151028899D01*
X49344608Y-150810392D01*
X49126101Y-150631068D01*
X48993142Y-150560000D01*
X49126101Y-150488932D01*
X49344608Y-150309608D01*
X49523932Y-150091101D01*
X49645356Y-149863933D01*
X50432613Y-150651190D01*
X50432613Y-150651190D01*
G37*
X50432613Y-150651190D02*
X50432614Y-154829136D01*
X50428332Y-154872615D01*
X50445418Y-155046105D01*
X50496025Y-155212928D01*
X50578203Y-155366674D01*
X50661081Y-155467661D01*
X50661084Y-155467664D01*
X50688797Y-155501432D01*
X50722564Y-155529144D01*
X53368430Y-158175011D01*
X49002476Y-158175011D01*
X49126101Y-158108932D01*
X49344608Y-157929608D01*
X49523932Y-157711101D01*
X49657182Y-157461808D01*
X49739236Y-157191309D01*
X49766943Y-156910000D01*
X49739236Y-156628691D01*
X49657182Y-156358192D01*
X49523932Y-156108899D01*
X49344608Y-155890392D01*
X49126101Y-155711068D01*
X48993142Y-155640000D01*
X49126101Y-155568932D01*
X49344608Y-155389608D01*
X49523932Y-155171101D01*
X49657182Y-154921808D01*
X49739236Y-154651309D01*
X49766943Y-154370000D01*
X49739236Y-154088691D01*
X49657182Y-153818192D01*
X49523932Y-153568899D01*
X49344608Y-153350392D01*
X49126101Y-153171068D01*
X48993142Y-153100000D01*
X49126101Y-153028932D01*
X49344608Y-152849608D01*
X49523932Y-152631101D01*
X49657182Y-152381808D01*
X49739236Y-152111309D01*
X49766943Y-151830000D01*
X49739236Y-151548691D01*
X49657182Y-151278192D01*
X49523932Y-151028899D01*
X49344608Y-150810392D01*
X49126101Y-150631068D01*
X48993142Y-150560000D01*
X49126101Y-150488932D01*
X49344608Y-150309608D01*
X49523932Y-150091101D01*
X49645356Y-149863933D01*
X50432613Y-150651190D01*
G36*
X82525001Y-158105162D02*
G01*
X82518005Y-158088273D01*
X82365120Y-157859465D01*
X82170535Y-157664880D01*
X81941727Y-157511995D01*
X81864485Y-157480000D01*
X81941727Y-157448005D01*
X82170535Y-157295120D01*
X82365120Y-157100535D01*
X82518005Y-156871727D01*
X82525001Y-156854838D01*
X82525001Y-158105162D01*
X82525001Y-158105162D01*
G37*
X82525001Y-158105162D02*
X82518005Y-158088273D01*
X82365120Y-157859465D01*
X82170535Y-157664880D01*
X81941727Y-157511995D01*
X81864485Y-157480000D01*
X81941727Y-157448005D01*
X82170535Y-157295120D01*
X82365120Y-157100535D01*
X82518005Y-156871727D01*
X82525001Y-156854838D01*
X82525001Y-158105162D01*
G36*
X43879500Y-156798077D02*
G01*
X43770273Y-156843320D01*
X43535241Y-157000363D01*
X43335363Y-157200241D01*
X43178320Y-157435273D01*
X43070147Y-157696426D01*
X43015000Y-157973665D01*
X43015000Y-158061424D01*
X39903520Y-154949944D01*
X39875805Y-154916173D01*
X39741047Y-154805579D01*
X39587301Y-154723401D01*
X39420478Y-154672795D01*
X39290465Y-154659990D01*
X39290457Y-154659990D01*
X39246988Y-154655709D01*
X39203519Y-154659990D01*
X35658072Y-154659990D01*
X35658072Y-153930000D01*
X35638606Y-153732359D01*
X35580956Y-153542314D01*
X35487339Y-153367167D01*
X35361350Y-153213650D01*
X35207833Y-153087661D01*
X35109310Y-153035000D01*
X35207833Y-152982339D01*
X35361350Y-152856350D01*
X35487339Y-152702833D01*
X35515579Y-152650000D01*
X39731424Y-152650000D01*
X43879500Y-156798077D01*
X43879500Y-156798077D01*
G37*
X43879500Y-156798077D02*
X43770273Y-156843320D01*
X43535241Y-157000363D01*
X43335363Y-157200241D01*
X43178320Y-157435273D01*
X43070147Y-157696426D01*
X43015000Y-157973665D01*
X43015000Y-158061424D01*
X39903520Y-154949944D01*
X39875805Y-154916173D01*
X39741047Y-154805579D01*
X39587301Y-154723401D01*
X39420478Y-154672795D01*
X39290465Y-154659990D01*
X39290457Y-154659990D01*
X39246988Y-154655709D01*
X39203519Y-154659990D01*
X35658072Y-154659990D01*
X35658072Y-153930000D01*
X35638606Y-153732359D01*
X35580956Y-153542314D01*
X35487339Y-153367167D01*
X35361350Y-153213650D01*
X35207833Y-153087661D01*
X35109310Y-153035000D01*
X35207833Y-152982339D01*
X35361350Y-152856350D01*
X35487339Y-152702833D01*
X35515579Y-152650000D01*
X39731424Y-152650000D01*
X43879500Y-156798077D01*
G36*
X47126068Y-150091101D02*
G01*
X47305392Y-150309608D01*
X47523899Y-150488932D01*
X47656858Y-150560000D01*
X47523899Y-150631068D01*
X47305392Y-150810392D01*
X47126068Y-151028899D01*
X46992818Y-151278192D01*
X46910764Y-151548691D01*
X46883057Y-151830000D01*
X46910764Y-152111309D01*
X46992818Y-152381808D01*
X47126068Y-152631101D01*
X47305392Y-152849608D01*
X47523899Y-153028932D01*
X47656858Y-153100000D01*
X47523899Y-153171068D01*
X47305392Y-153350392D01*
X47126068Y-153568899D01*
X46992818Y-153818192D01*
X46910764Y-154088691D01*
X46883057Y-154370000D01*
X46910764Y-154651309D01*
X46992818Y-154921808D01*
X47126068Y-155171101D01*
X47305392Y-155389608D01*
X47523899Y-155568932D01*
X47656858Y-155640000D01*
X47523899Y-155711068D01*
X47305392Y-155890392D01*
X47126068Y-156108899D01*
X46992818Y-156358192D01*
X46910764Y-156628691D01*
X46883057Y-156910000D01*
X46910764Y-157191309D01*
X46969492Y-157384911D01*
X40754536Y-151169956D01*
X40726819Y-151136183D01*
X40592061Y-151025589D01*
X40438315Y-150943411D01*
X40271492Y-150892805D01*
X40141479Y-150880000D01*
X40141471Y-150880000D01*
X40098002Y-150875719D01*
X40054533Y-150880000D01*
X35515579Y-150880000D01*
X35487339Y-150827167D01*
X35361350Y-150673650D01*
X35207833Y-150547661D01*
X35109310Y-150495000D01*
X35207833Y-150442339D01*
X35361350Y-150316350D01*
X35487339Y-150162833D01*
X35515579Y-150110000D01*
X43430648Y-150110000D01*
X43461686Y-150126590D01*
X43628509Y-150177196D01*
X43758522Y-150190001D01*
X43758532Y-150190001D01*
X43801998Y-150194282D01*
X43845464Y-150190001D01*
X46268528Y-150190001D01*
X46311997Y-150194282D01*
X46355466Y-150190001D01*
X46355474Y-150190001D01*
X46485487Y-150177196D01*
X46652310Y-150126590D01*
X46806056Y-150044412D01*
X46940814Y-149933818D01*
X46968531Y-149900045D01*
X47004644Y-149863932D01*
X47126068Y-150091101D01*
X47126068Y-150091101D01*
G37*
X47126068Y-150091101D02*
X47305392Y-150309608D01*
X47523899Y-150488932D01*
X47656858Y-150560000D01*
X47523899Y-150631068D01*
X47305392Y-150810392D01*
X47126068Y-151028899D01*
X46992818Y-151278192D01*
X46910764Y-151548691D01*
X46883057Y-151830000D01*
X46910764Y-152111309D01*
X46992818Y-152381808D01*
X47126068Y-152631101D01*
X47305392Y-152849608D01*
X47523899Y-153028932D01*
X47656858Y-153100000D01*
X47523899Y-153171068D01*
X47305392Y-153350392D01*
X47126068Y-153568899D01*
X46992818Y-153818192D01*
X46910764Y-154088691D01*
X46883057Y-154370000D01*
X46910764Y-154651309D01*
X46992818Y-154921808D01*
X47126068Y-155171101D01*
X47305392Y-155389608D01*
X47523899Y-155568932D01*
X47656858Y-155640000D01*
X47523899Y-155711068D01*
X47305392Y-155890392D01*
X47126068Y-156108899D01*
X46992818Y-156358192D01*
X46910764Y-156628691D01*
X46883057Y-156910000D01*
X46910764Y-157191309D01*
X46969492Y-157384911D01*
X40754536Y-151169956D01*
X40726819Y-151136183D01*
X40592061Y-151025589D01*
X40438315Y-150943411D01*
X40271492Y-150892805D01*
X40141479Y-150880000D01*
X40141471Y-150880000D01*
X40098002Y-150875719D01*
X40054533Y-150880000D01*
X35515579Y-150880000D01*
X35487339Y-150827167D01*
X35361350Y-150673650D01*
X35207833Y-150547661D01*
X35109310Y-150495000D01*
X35207833Y-150442339D01*
X35361350Y-150316350D01*
X35487339Y-150162833D01*
X35515579Y-150110000D01*
X43430648Y-150110000D01*
X43461686Y-150126590D01*
X43628509Y-150177196D01*
X43758522Y-150190001D01*
X43758532Y-150190001D01*
X43801998Y-150194282D01*
X43845464Y-150190001D01*
X46268528Y-150190001D01*
X46311997Y-150194282D01*
X46355466Y-150190001D01*
X46355474Y-150190001D01*
X46485487Y-150177196D01*
X46652310Y-150126590D01*
X46806056Y-150044412D01*
X46940814Y-149933818D01*
X46968531Y-149900045D01*
X47004644Y-149863932D01*
X47126068Y-150091101D01*
G36*
X61332468Y-154265049D02*
G01*
X61360181Y-154298817D01*
X61393949Y-154326530D01*
X61393951Y-154326532D01*
X61446917Y-154370000D01*
X61494939Y-154409411D01*
X61522926Y-154424370D01*
X61672688Y-154648505D01*
X61886495Y-154862312D01*
X62002763Y-154940000D01*
X61886495Y-155017688D01*
X61672688Y-155231495D01*
X61504701Y-155482905D01*
X61388989Y-155762257D01*
X61330000Y-156058816D01*
X61330000Y-156361184D01*
X61351940Y-156471482D01*
X60448421Y-157375001D01*
X57383072Y-157375001D01*
X57383072Y-156110000D01*
X57370812Y-155985518D01*
X57334502Y-155865820D01*
X57275537Y-155755506D01*
X57196185Y-155658815D01*
X57099494Y-155579463D01*
X56989180Y-155520498D01*
X56869482Y-155484188D01*
X56851518Y-155482419D01*
X56964608Y-155389608D01*
X57143932Y-155171101D01*
X57277182Y-154921808D01*
X57359236Y-154651309D01*
X57386943Y-154370000D01*
X57359236Y-154088691D01*
X57277182Y-153818192D01*
X57143932Y-153568899D01*
X56964608Y-153350392D01*
X56746101Y-153171068D01*
X56613142Y-153100000D01*
X56746101Y-153028932D01*
X56964608Y-152849608D01*
X57143932Y-152631101D01*
X57277182Y-152381808D01*
X57359236Y-152111309D01*
X57386943Y-151830000D01*
X57359236Y-151548691D01*
X57277182Y-151278192D01*
X57143932Y-151028899D01*
X56964608Y-150810392D01*
X56746101Y-150631068D01*
X56613142Y-150560000D01*
X56746101Y-150488932D01*
X56964608Y-150309608D01*
X57143932Y-150091101D01*
X57149014Y-150081594D01*
X61332468Y-154265049D01*
X61332468Y-154265049D01*
G37*
X61332468Y-154265049D02*
X61360181Y-154298817D01*
X61393949Y-154326530D01*
X61393951Y-154326532D01*
X61446917Y-154370000D01*
X61494939Y-154409411D01*
X61522926Y-154424370D01*
X61672688Y-154648505D01*
X61886495Y-154862312D01*
X62002763Y-154940000D01*
X61886495Y-155017688D01*
X61672688Y-155231495D01*
X61504701Y-155482905D01*
X61388989Y-155762257D01*
X61330000Y-156058816D01*
X61330000Y-156361184D01*
X61351940Y-156471482D01*
X60448421Y-157375001D01*
X57383072Y-157375001D01*
X57383072Y-156110000D01*
X57370812Y-155985518D01*
X57334502Y-155865820D01*
X57275537Y-155755506D01*
X57196185Y-155658815D01*
X57099494Y-155579463D01*
X56989180Y-155520498D01*
X56869482Y-155484188D01*
X56851518Y-155482419D01*
X56964608Y-155389608D01*
X57143932Y-155171101D01*
X57277182Y-154921808D01*
X57359236Y-154651309D01*
X57386943Y-154370000D01*
X57359236Y-154088691D01*
X57277182Y-153818192D01*
X57143932Y-153568899D01*
X56964608Y-153350392D01*
X56746101Y-153171068D01*
X56613142Y-153100000D01*
X56746101Y-153028932D01*
X56964608Y-152849608D01*
X57143932Y-152631101D01*
X57277182Y-152381808D01*
X57359236Y-152111309D01*
X57386943Y-151830000D01*
X57359236Y-151548691D01*
X57277182Y-151278192D01*
X57143932Y-151028899D01*
X56964608Y-150810392D01*
X56746101Y-150631068D01*
X56613142Y-150560000D01*
X56746101Y-150488932D01*
X56964608Y-150309608D01*
X57143932Y-150091101D01*
X57149014Y-150081594D01*
X61332468Y-154265049D01*
G36*
X51987469Y-148730050D02*
G01*
X52015182Y-148763818D01*
X52048950Y-148791531D01*
X52048952Y-148791533D01*
X52149940Y-148874412D01*
X52303685Y-148956590D01*
X52438513Y-148997490D01*
X52470509Y-149007196D01*
X52600522Y-149020001D01*
X52600530Y-149020001D01*
X52643999Y-149024282D01*
X52687468Y-149020001D01*
X54529650Y-149020001D01*
X54503057Y-149290000D01*
X54530764Y-149571309D01*
X54612818Y-149841808D01*
X54746068Y-150091101D01*
X54925392Y-150309608D01*
X55143899Y-150488932D01*
X55276858Y-150560000D01*
X55143899Y-150631068D01*
X54925392Y-150810392D01*
X54746068Y-151028899D01*
X54612818Y-151278192D01*
X54530764Y-151548691D01*
X54503057Y-151830000D01*
X54530764Y-152111309D01*
X54612818Y-152381808D01*
X54746068Y-152631101D01*
X54925392Y-152849608D01*
X55143899Y-153028932D01*
X55276858Y-153100000D01*
X55143899Y-153171068D01*
X54925392Y-153350392D01*
X54746068Y-153568899D01*
X54612818Y-153818192D01*
X54530764Y-154088691D01*
X54503057Y-154370000D01*
X54530764Y-154651309D01*
X54612818Y-154921808D01*
X54746068Y-155171101D01*
X54925392Y-155389608D01*
X55038482Y-155482419D01*
X55020518Y-155484188D01*
X54900820Y-155520498D01*
X54790506Y-155579463D01*
X54693815Y-155658815D01*
X54614463Y-155755506D01*
X54555498Y-155865820D01*
X54519188Y-155985518D01*
X54506928Y-156110000D01*
X54506928Y-156810351D01*
X52202613Y-154506037D01*
X52202613Y-150328077D01*
X52206894Y-150284610D01*
X52202613Y-150241144D01*
X52202613Y-150241134D01*
X52189808Y-150111121D01*
X52139202Y-149944298D01*
X52057024Y-149790552D01*
X51998351Y-149719059D01*
X51974145Y-149689564D01*
X51974143Y-149689562D01*
X51946430Y-149655794D01*
X51912663Y-149628082D01*
X49774579Y-147489999D01*
X50747419Y-147489999D01*
X51987469Y-148730050D01*
X51987469Y-148730050D01*
G37*
X51987469Y-148730050D02*
X52015182Y-148763818D01*
X52048950Y-148791531D01*
X52048952Y-148791533D01*
X52149940Y-148874412D01*
X52303685Y-148956590D01*
X52438513Y-148997490D01*
X52470509Y-149007196D01*
X52600522Y-149020001D01*
X52600530Y-149020001D01*
X52643999Y-149024282D01*
X52687468Y-149020001D01*
X54529650Y-149020001D01*
X54503057Y-149290000D01*
X54530764Y-149571309D01*
X54612818Y-149841808D01*
X54746068Y-150091101D01*
X54925392Y-150309608D01*
X55143899Y-150488932D01*
X55276858Y-150560000D01*
X55143899Y-150631068D01*
X54925392Y-150810392D01*
X54746068Y-151028899D01*
X54612818Y-151278192D01*
X54530764Y-151548691D01*
X54503057Y-151830000D01*
X54530764Y-152111309D01*
X54612818Y-152381808D01*
X54746068Y-152631101D01*
X54925392Y-152849608D01*
X55143899Y-153028932D01*
X55276858Y-153100000D01*
X55143899Y-153171068D01*
X54925392Y-153350392D01*
X54746068Y-153568899D01*
X54612818Y-153818192D01*
X54530764Y-154088691D01*
X54503057Y-154370000D01*
X54530764Y-154651309D01*
X54612818Y-154921808D01*
X54746068Y-155171101D01*
X54925392Y-155389608D01*
X55038482Y-155482419D01*
X55020518Y-155484188D01*
X54900820Y-155520498D01*
X54790506Y-155579463D01*
X54693815Y-155658815D01*
X54614463Y-155755506D01*
X54555498Y-155865820D01*
X54519188Y-155985518D01*
X54506928Y-156110000D01*
X54506928Y-156810351D01*
X52202613Y-154506037D01*
X52202613Y-150328077D01*
X52206894Y-150284610D01*
X52202613Y-150241144D01*
X52202613Y-150241134D01*
X52189808Y-150111121D01*
X52139202Y-149944298D01*
X52057024Y-149790552D01*
X51998351Y-149719059D01*
X51974145Y-149689564D01*
X51974143Y-149689562D01*
X51946430Y-149655794D01*
X51912663Y-149628082D01*
X49774579Y-147489999D01*
X50747419Y-147489999D01*
X51987469Y-148730050D01*
G36*
X82525001Y-155565162D02*
G01*
X82518005Y-155548273D01*
X82365120Y-155319465D01*
X82170535Y-155124880D01*
X81941727Y-154971995D01*
X81864485Y-154940000D01*
X81941727Y-154908005D01*
X82170535Y-154755120D01*
X82365120Y-154560535D01*
X82518005Y-154331727D01*
X82525001Y-154314838D01*
X82525001Y-155565162D01*
X82525001Y-155565162D01*
G37*
X82525001Y-155565162D02*
X82518005Y-155548273D01*
X82365120Y-155319465D01*
X82170535Y-155124880D01*
X81941727Y-154971995D01*
X81864485Y-154940000D01*
X81941727Y-154908005D01*
X82170535Y-154755120D01*
X82365120Y-154560535D01*
X82518005Y-154331727D01*
X82525001Y-154314838D01*
X82525001Y-155565162D01*
G36*
X82525000Y-153025161D02*
G01*
X82518005Y-153008273D01*
X82365120Y-152779465D01*
X82170535Y-152584880D01*
X81941727Y-152431995D01*
X81864485Y-152400000D01*
X81941727Y-152368005D01*
X82170535Y-152215120D01*
X82365120Y-152020535D01*
X82518005Y-151791727D01*
X82525000Y-151774839D01*
X82525000Y-153025161D01*
X82525000Y-153025161D01*
G37*
X82525000Y-153025161D02*
X82518005Y-153008273D01*
X82365120Y-152779465D01*
X82170535Y-152584880D01*
X81941727Y-152431995D01*
X81864485Y-152400000D01*
X81941727Y-152368005D01*
X82170535Y-152215120D01*
X82365120Y-152020535D01*
X82518005Y-151791727D01*
X82525000Y-151774839D01*
X82525000Y-153025161D01*
G36*
X62002763Y-152400000D02*
G01*
X61983469Y-152412892D01*
X61905764Y-152335187D01*
X62002763Y-152400000D01*
X62002763Y-152400000D01*
G37*
X62002763Y-152400000D02*
X61983469Y-152412892D01*
X61905764Y-152335187D01*
X62002763Y-152400000D01*
G36*
X61351939Y-150868518D02*
G01*
X61330000Y-150978816D01*
X61330000Y-151281184D01*
X61388989Y-151577743D01*
X61504701Y-151857095D01*
X61659813Y-152089236D01*
X59949295Y-150378718D01*
X59954999Y-150379280D01*
X59998468Y-150374999D01*
X60858421Y-150374999D01*
X61351939Y-150868518D01*
X61351939Y-150868518D01*
G37*
X61351939Y-150868518D02*
X61330000Y-150978816D01*
X61330000Y-151281184D01*
X61388989Y-151577743D01*
X61504701Y-151857095D01*
X61659813Y-152089236D01*
X59949295Y-150378718D01*
X59954999Y-150379280D01*
X59998468Y-150374999D01*
X60858421Y-150374999D01*
X61351939Y-150868518D01*
G36*
X82525000Y-150485161D02*
G01*
X82518005Y-150468273D01*
X82365120Y-150239465D01*
X82170535Y-150044880D01*
X81941727Y-149891995D01*
X81864485Y-149860000D01*
X81941727Y-149828005D01*
X82170535Y-149675120D01*
X82365120Y-149480535D01*
X82518005Y-149251727D01*
X82525000Y-149234839D01*
X82525000Y-150485161D01*
X82525000Y-150485161D01*
G37*
X82525000Y-150485161D02*
X82518005Y-150468273D01*
X82365120Y-150239465D01*
X82170535Y-150044880D01*
X81941727Y-149891995D01*
X81864485Y-149860000D01*
X81941727Y-149828005D01*
X82170535Y-149675120D01*
X82365120Y-149480535D01*
X82518005Y-149251727D01*
X82525000Y-149234839D01*
X82525000Y-150485161D01*
G36*
X45945419Y-148420001D02*
G01*
X45808514Y-148420001D01*
X45864236Y-148236309D01*
X45891943Y-147955000D01*
X45864236Y-147673691D01*
X45808514Y-147489999D01*
X46875420Y-147489999D01*
X45945419Y-148420001D01*
X45945419Y-148420001D01*
G37*
X45945419Y-148420001D02*
X45808514Y-148420001D01*
X45864236Y-148236309D01*
X45891943Y-147955000D01*
X45864236Y-147673691D01*
X45808514Y-147489999D01*
X46875420Y-147489999D01*
X45945419Y-148420001D01*
G36*
X43035764Y-147673691D02*
G01*
X43008057Y-147955000D01*
X43035764Y-148236309D01*
X43067218Y-148340000D01*
X35515579Y-148340000D01*
X35487339Y-148287167D01*
X35361350Y-148133650D01*
X35207833Y-148007661D01*
X35109310Y-147955000D01*
X35207833Y-147902339D01*
X35361350Y-147776350D01*
X35487339Y-147622833D01*
X35515579Y-147570000D01*
X43067218Y-147570000D01*
X43035764Y-147673691D01*
X43035764Y-147673691D01*
G37*
X43035764Y-147673691D02*
X43008057Y-147955000D01*
X43035764Y-148236309D01*
X43067218Y-148340000D01*
X35515579Y-148340000D01*
X35487339Y-148287167D01*
X35361350Y-148133650D01*
X35207833Y-148007661D01*
X35109310Y-147955000D01*
X35207833Y-147902339D01*
X35361350Y-147776350D01*
X35487339Y-147622833D01*
X35515579Y-147570000D01*
X43067218Y-147570000D01*
X43035764Y-147673691D01*
G36*
X82525000Y-147945161D02*
G01*
X82518005Y-147928273D01*
X82365120Y-147699465D01*
X82170535Y-147504880D01*
X81941727Y-147351995D01*
X81864485Y-147320000D01*
X81941727Y-147288005D01*
X82170535Y-147135120D01*
X82365120Y-146940535D01*
X82518005Y-146711727D01*
X82525000Y-146694839D01*
X82525000Y-147945161D01*
X82525000Y-147945161D01*
G37*
X82525000Y-147945161D02*
X82518005Y-147928273D01*
X82365120Y-147699465D01*
X82170535Y-147504880D01*
X81941727Y-147351995D01*
X81864485Y-147320000D01*
X81941727Y-147288005D01*
X82170535Y-147135120D01*
X82365120Y-146940535D01*
X82518005Y-146711727D01*
X82525000Y-146694839D01*
X82525000Y-147945161D01*
G36*
X53350717Y-134249999D02*
G01*
X53355000Y-134293486D01*
X53354999Y-145150000D01*
X53188816Y-145150000D01*
X52892257Y-145208989D01*
X52612905Y-145324701D01*
X52361495Y-145492688D01*
X52147688Y-145706495D01*
X51979701Y-145957905D01*
X51903191Y-146142615D01*
X51770531Y-146009955D01*
X51742814Y-145976182D01*
X51608056Y-145865588D01*
X51454310Y-145783410D01*
X51287487Y-145732804D01*
X51157474Y-145719999D01*
X51157466Y-145719999D01*
X51113997Y-145715718D01*
X51070528Y-145719999D01*
X43845464Y-145719999D01*
X43801998Y-145715718D01*
X43758532Y-145719999D01*
X43758522Y-145719999D01*
X43628509Y-145732804D01*
X43461686Y-145783410D01*
X43430648Y-145800000D01*
X35515579Y-145800000D01*
X35487339Y-145747167D01*
X35361350Y-145593650D01*
X35207833Y-145467661D01*
X35109310Y-145415000D01*
X35207833Y-145362339D01*
X35361350Y-145236350D01*
X35487339Y-145082833D01*
X35515579Y-145030000D01*
X46311531Y-145030000D01*
X46355000Y-145034281D01*
X46398469Y-145030000D01*
X46398477Y-145030000D01*
X46528490Y-145017195D01*
X46695313Y-144966589D01*
X46849059Y-144884411D01*
X46983817Y-144773817D01*
X47011534Y-144740044D01*
X48040967Y-143710612D01*
X48187050Y-143725000D01*
X48332950Y-143725000D01*
X48551111Y-143703513D01*
X48831034Y-143618599D01*
X49089014Y-143480706D01*
X49315134Y-143295134D01*
X49500706Y-143069014D01*
X49530000Y-143014209D01*
X49559294Y-143069014D01*
X49744866Y-143295134D01*
X49970986Y-143480706D01*
X50228966Y-143618599D01*
X50508889Y-143703513D01*
X50727050Y-143725000D01*
X50872950Y-143725000D01*
X51091111Y-143703513D01*
X51371034Y-143618599D01*
X51629014Y-143480706D01*
X51855134Y-143295134D01*
X52040706Y-143069014D01*
X52178599Y-142811034D01*
X52263513Y-142531111D01*
X52292185Y-142240000D01*
X52263513Y-141948889D01*
X52178599Y-141668966D01*
X52040706Y-141410986D01*
X51855134Y-141184866D01*
X51629014Y-140999294D01*
X51574209Y-140970000D01*
X51629014Y-140940706D01*
X51855134Y-140755134D01*
X52040706Y-140529014D01*
X52178599Y-140271034D01*
X52263513Y-139991111D01*
X52292185Y-139700000D01*
X52263513Y-139408889D01*
X52178599Y-139128966D01*
X52040706Y-138870986D01*
X51855134Y-138644866D01*
X51629014Y-138459294D01*
X51574209Y-138430000D01*
X51629014Y-138400706D01*
X51855134Y-138215134D01*
X52040706Y-137989014D01*
X52178599Y-137731034D01*
X52263513Y-137451111D01*
X52292185Y-137160000D01*
X52263513Y-136868889D01*
X52178599Y-136588966D01*
X52040706Y-136330986D01*
X51855134Y-136104866D01*
X51825313Y-136080393D01*
X51894180Y-136059502D01*
X52004494Y-136000537D01*
X52101185Y-135921185D01*
X52180537Y-135824494D01*
X52239502Y-135714180D01*
X52275812Y-135594482D01*
X52288072Y-135470000D01*
X52288072Y-134104999D01*
X53364998Y-134104999D01*
X53350717Y-134249999D01*
X53350717Y-134249999D01*
G37*
X53350717Y-134249999D02*
X53355000Y-134293486D01*
X53354999Y-145150000D01*
X53188816Y-145150000D01*
X52892257Y-145208989D01*
X52612905Y-145324701D01*
X52361495Y-145492688D01*
X52147688Y-145706495D01*
X51979701Y-145957905D01*
X51903191Y-146142615D01*
X51770531Y-146009955D01*
X51742814Y-145976182D01*
X51608056Y-145865588D01*
X51454310Y-145783410D01*
X51287487Y-145732804D01*
X51157474Y-145719999D01*
X51157466Y-145719999D01*
X51113997Y-145715718D01*
X51070528Y-145719999D01*
X43845464Y-145719999D01*
X43801998Y-145715718D01*
X43758532Y-145719999D01*
X43758522Y-145719999D01*
X43628509Y-145732804D01*
X43461686Y-145783410D01*
X43430648Y-145800000D01*
X35515579Y-145800000D01*
X35487339Y-145747167D01*
X35361350Y-145593650D01*
X35207833Y-145467661D01*
X35109310Y-145415000D01*
X35207833Y-145362339D01*
X35361350Y-145236350D01*
X35487339Y-145082833D01*
X35515579Y-145030000D01*
X46311531Y-145030000D01*
X46355000Y-145034281D01*
X46398469Y-145030000D01*
X46398477Y-145030000D01*
X46528490Y-145017195D01*
X46695313Y-144966589D01*
X46849059Y-144884411D01*
X46983817Y-144773817D01*
X47011534Y-144740044D01*
X48040967Y-143710612D01*
X48187050Y-143725000D01*
X48332950Y-143725000D01*
X48551111Y-143703513D01*
X48831034Y-143618599D01*
X49089014Y-143480706D01*
X49315134Y-143295134D01*
X49500706Y-143069014D01*
X49530000Y-143014209D01*
X49559294Y-143069014D01*
X49744866Y-143295134D01*
X49970986Y-143480706D01*
X50228966Y-143618599D01*
X50508889Y-143703513D01*
X50727050Y-143725000D01*
X50872950Y-143725000D01*
X51091111Y-143703513D01*
X51371034Y-143618599D01*
X51629014Y-143480706D01*
X51855134Y-143295134D01*
X52040706Y-143069014D01*
X52178599Y-142811034D01*
X52263513Y-142531111D01*
X52292185Y-142240000D01*
X52263513Y-141948889D01*
X52178599Y-141668966D01*
X52040706Y-141410986D01*
X51855134Y-141184866D01*
X51629014Y-140999294D01*
X51574209Y-140970000D01*
X51629014Y-140940706D01*
X51855134Y-140755134D01*
X52040706Y-140529014D01*
X52178599Y-140271034D01*
X52263513Y-139991111D01*
X52292185Y-139700000D01*
X52263513Y-139408889D01*
X52178599Y-139128966D01*
X52040706Y-138870986D01*
X51855134Y-138644866D01*
X51629014Y-138459294D01*
X51574209Y-138430000D01*
X51629014Y-138400706D01*
X51855134Y-138215134D01*
X52040706Y-137989014D01*
X52178599Y-137731034D01*
X52263513Y-137451111D01*
X52292185Y-137160000D01*
X52263513Y-136868889D01*
X52178599Y-136588966D01*
X52040706Y-136330986D01*
X51855134Y-136104866D01*
X51825313Y-136080393D01*
X51894180Y-136059502D01*
X52004494Y-136000537D01*
X52101185Y-135921185D01*
X52180537Y-135824494D01*
X52239502Y-135714180D01*
X52275812Y-135594482D01*
X52288072Y-135470000D01*
X52288072Y-134104999D01*
X53364998Y-134104999D01*
X53350717Y-134249999D01*
G36*
X82525000Y-145405161D02*
G01*
X82518005Y-145388273D01*
X82365120Y-145159465D01*
X82170535Y-144964880D01*
X81941727Y-144811995D01*
X81864485Y-144780000D01*
X81941727Y-144748005D01*
X82170535Y-144595120D01*
X82365120Y-144400535D01*
X82518005Y-144171727D01*
X82525000Y-144154839D01*
X82525000Y-145405161D01*
X82525000Y-145405161D01*
G37*
X82525000Y-145405161D02*
X82518005Y-145388273D01*
X82365120Y-145159465D01*
X82170535Y-144964880D01*
X81941727Y-144811995D01*
X81864485Y-144780000D01*
X81941727Y-144748005D01*
X82170535Y-144595120D01*
X82365120Y-144400535D01*
X82518005Y-144171727D01*
X82525000Y-144154839D01*
X82525000Y-145405161D01*
G36*
X46789388Y-142459033D02*
G01*
X45988422Y-143260000D01*
X35515579Y-143260000D01*
X35487339Y-143207167D01*
X35361350Y-143053650D01*
X35207833Y-142927661D01*
X35109310Y-142875000D01*
X35207833Y-142822339D01*
X35361350Y-142696350D01*
X35487339Y-142542833D01*
X35515579Y-142490000D01*
X46311531Y-142490000D01*
X46355000Y-142494281D01*
X46398469Y-142490000D01*
X46398477Y-142490000D01*
X46528490Y-142477195D01*
X46695313Y-142426589D01*
X46781647Y-142380443D01*
X46789388Y-142459033D01*
X46789388Y-142459033D01*
G37*
X46789388Y-142459033D02*
X45988422Y-143260000D01*
X35515579Y-143260000D01*
X35487339Y-143207167D01*
X35361350Y-143053650D01*
X35207833Y-142927661D01*
X35109310Y-142875000D01*
X35207833Y-142822339D01*
X35361350Y-142696350D01*
X35487339Y-142542833D01*
X35515579Y-142490000D01*
X46311531Y-142490000D01*
X46355000Y-142494281D01*
X46398469Y-142490000D01*
X46398477Y-142490000D01*
X46528490Y-142477195D01*
X46695313Y-142426589D01*
X46781647Y-142380443D01*
X46789388Y-142459033D01*
G36*
X82525000Y-142865161D02*
G01*
X82518005Y-142848273D01*
X82365120Y-142619465D01*
X82170535Y-142424880D01*
X81941727Y-142271995D01*
X81864485Y-142240000D01*
X81941727Y-142208005D01*
X82170535Y-142055120D01*
X82365120Y-141860535D01*
X82518005Y-141631727D01*
X82525000Y-141614839D01*
X82525000Y-142865161D01*
X82525000Y-142865161D01*
G37*
X82525000Y-142865161D02*
X82518005Y-142848273D01*
X82365120Y-142619465D01*
X82170535Y-142424880D01*
X81941727Y-142271995D01*
X81864485Y-142240000D01*
X81941727Y-142208005D01*
X82170535Y-142055120D01*
X82365120Y-141860535D01*
X82518005Y-141631727D01*
X82525000Y-141614839D01*
X82525000Y-142865161D01*
G36*
X49559294Y-140529014D02*
G01*
X49744866Y-140755134D01*
X49970986Y-140940706D01*
X50025791Y-140970000D01*
X49970986Y-140999294D01*
X49744866Y-141184866D01*
X49559294Y-141410986D01*
X49530000Y-141465791D01*
X49500706Y-141410986D01*
X49315134Y-141184866D01*
X49089014Y-140999294D01*
X49034209Y-140970000D01*
X49089014Y-140940706D01*
X49315134Y-140755134D01*
X49500706Y-140529014D01*
X49530000Y-140474209D01*
X49559294Y-140529014D01*
X49559294Y-140529014D01*
G37*
X49559294Y-140529014D02*
X49744866Y-140755134D01*
X49970986Y-140940706D01*
X50025791Y-140970000D01*
X49970986Y-140999294D01*
X49744866Y-141184866D01*
X49559294Y-141410986D01*
X49530000Y-141465791D01*
X49500706Y-141410986D01*
X49315134Y-141184866D01*
X49089014Y-140999294D01*
X49034209Y-140970000D01*
X49089014Y-140940706D01*
X49315134Y-140755134D01*
X49500706Y-140529014D01*
X49530000Y-140474209D01*
X49559294Y-140529014D01*
G36*
X46789388Y-139919033D02*
G01*
X45988422Y-140720000D01*
X35515579Y-140720000D01*
X35487339Y-140667167D01*
X35361350Y-140513650D01*
X35207833Y-140387661D01*
X35109310Y-140335000D01*
X35207833Y-140282339D01*
X35361350Y-140156350D01*
X35487339Y-140002833D01*
X35515579Y-139950000D01*
X46311531Y-139950000D01*
X46355000Y-139954281D01*
X46398469Y-139950000D01*
X46398477Y-139950000D01*
X46528490Y-139937195D01*
X46695313Y-139886589D01*
X46781647Y-139840443D01*
X46789388Y-139919033D01*
X46789388Y-139919033D01*
G37*
X46789388Y-139919033D02*
X45988422Y-140720000D01*
X35515579Y-140720000D01*
X35487339Y-140667167D01*
X35361350Y-140513650D01*
X35207833Y-140387661D01*
X35109310Y-140335000D01*
X35207833Y-140282339D01*
X35361350Y-140156350D01*
X35487339Y-140002833D01*
X35515579Y-139950000D01*
X46311531Y-139950000D01*
X46355000Y-139954281D01*
X46398469Y-139950000D01*
X46398477Y-139950000D01*
X46528490Y-139937195D01*
X46695313Y-139886589D01*
X46781647Y-139840443D01*
X46789388Y-139919033D01*
G36*
X82525000Y-140325161D02*
G01*
X82518005Y-140308273D01*
X82365120Y-140079465D01*
X82170535Y-139884880D01*
X81941727Y-139731995D01*
X81864485Y-139700000D01*
X81941727Y-139668005D01*
X82170535Y-139515120D01*
X82365120Y-139320535D01*
X82518005Y-139091727D01*
X82525000Y-139074839D01*
X82525000Y-140325161D01*
X82525000Y-140325161D01*
G37*
X82525000Y-140325161D02*
X82518005Y-140308273D01*
X82365120Y-140079465D01*
X82170535Y-139884880D01*
X81941727Y-139731995D01*
X81864485Y-139700000D01*
X81941727Y-139668005D01*
X82170535Y-139515120D01*
X82365120Y-139320535D01*
X82518005Y-139091727D01*
X82525000Y-139074839D01*
X82525000Y-140325161D01*
G36*
X49559294Y-137989014D02*
G01*
X49744866Y-138215134D01*
X49970986Y-138400706D01*
X50025791Y-138430000D01*
X49970986Y-138459294D01*
X49744866Y-138644866D01*
X49559294Y-138870986D01*
X49530000Y-138925791D01*
X49500706Y-138870986D01*
X49315134Y-138644866D01*
X49089014Y-138459294D01*
X49034209Y-138430000D01*
X49089014Y-138400706D01*
X49315134Y-138215134D01*
X49500706Y-137989014D01*
X49530000Y-137934209D01*
X49559294Y-137989014D01*
X49559294Y-137989014D01*
G37*
X49559294Y-137989014D02*
X49744866Y-138215134D01*
X49970986Y-138400706D01*
X50025791Y-138430000D01*
X49970986Y-138459294D01*
X49744866Y-138644866D01*
X49559294Y-138870986D01*
X49530000Y-138925791D01*
X49500706Y-138870986D01*
X49315134Y-138644866D01*
X49089014Y-138459294D01*
X49034209Y-138430000D01*
X49089014Y-138400706D01*
X49315134Y-138215134D01*
X49500706Y-137989014D01*
X49530000Y-137934209D01*
X49559294Y-137989014D01*
G36*
X46789388Y-137379033D02*
G01*
X45988422Y-138180000D01*
X35515579Y-138180000D01*
X35487339Y-138127167D01*
X35361350Y-137973650D01*
X35207833Y-137847661D01*
X35109310Y-137795000D01*
X35207833Y-137742339D01*
X35361350Y-137616350D01*
X35487339Y-137462833D01*
X35515579Y-137410000D01*
X46311531Y-137410000D01*
X46355000Y-137414281D01*
X46398469Y-137410000D01*
X46398477Y-137410000D01*
X46528490Y-137397195D01*
X46695313Y-137346589D01*
X46781647Y-137300443D01*
X46789388Y-137379033D01*
X46789388Y-137379033D01*
G37*
X46789388Y-137379033D02*
X45988422Y-138180000D01*
X35515579Y-138180000D01*
X35487339Y-138127167D01*
X35361350Y-137973650D01*
X35207833Y-137847661D01*
X35109310Y-137795000D01*
X35207833Y-137742339D01*
X35361350Y-137616350D01*
X35487339Y-137462833D01*
X35515579Y-137410000D01*
X46311531Y-137410000D01*
X46355000Y-137414281D01*
X46398469Y-137410000D01*
X46398477Y-137410000D01*
X46528490Y-137397195D01*
X46695313Y-137346589D01*
X46781647Y-137300443D01*
X46789388Y-137379033D01*
G36*
X49360498Y-135714180D02*
G01*
X49419463Y-135824494D01*
X49498815Y-135921185D01*
X49595506Y-136000537D01*
X49705820Y-136059502D01*
X49774687Y-136080393D01*
X49744866Y-136104866D01*
X49559294Y-136330986D01*
X49530000Y-136385791D01*
X49500706Y-136330986D01*
X49315134Y-136104866D01*
X49089014Y-135919294D01*
X49034209Y-135890000D01*
X49089014Y-135860706D01*
X49315134Y-135675134D01*
X49339607Y-135645313D01*
X49360498Y-135714180D01*
X49360498Y-135714180D01*
G37*
X49360498Y-135714180D02*
X49419463Y-135824494D01*
X49498815Y-135921185D01*
X49595506Y-136000537D01*
X49705820Y-136059502D01*
X49774687Y-136080393D01*
X49744866Y-136104866D01*
X49559294Y-136330986D01*
X49530000Y-136385791D01*
X49500706Y-136330986D01*
X49315134Y-136104866D01*
X49089014Y-135919294D01*
X49034209Y-135890000D01*
X49089014Y-135860706D01*
X49315134Y-135675134D01*
X49339607Y-135645313D01*
X49360498Y-135714180D01*
G36*
X46796487Y-134328889D02*
G01*
X46767815Y-134620000D01*
X46789388Y-134839033D01*
X45988422Y-135640000D01*
X35515579Y-135640000D01*
X35487339Y-135587167D01*
X35361350Y-135433650D01*
X35207833Y-135307661D01*
X35109310Y-135255000D01*
X35207833Y-135202339D01*
X35361350Y-135076350D01*
X35487339Y-134922833D01*
X35580956Y-134747686D01*
X35582977Y-134741025D01*
X35614059Y-134724411D01*
X35748817Y-134613817D01*
X35776534Y-134580044D01*
X36251580Y-134104999D01*
X46864404Y-134104999D01*
X46796487Y-134328889D01*
X46796487Y-134328889D01*
G37*
X46796487Y-134328889D02*
X46767815Y-134620000D01*
X46789388Y-134839033D01*
X45988422Y-135640000D01*
X35515579Y-135640000D01*
X35487339Y-135587167D01*
X35361350Y-135433650D01*
X35207833Y-135307661D01*
X35109310Y-135255000D01*
X35207833Y-135202339D01*
X35361350Y-135076350D01*
X35487339Y-134922833D01*
X35580956Y-134747686D01*
X35582977Y-134741025D01*
X35614059Y-134724411D01*
X35748817Y-134613817D01*
X35776534Y-134580044D01*
X36251580Y-134104999D01*
X46864404Y-134104999D01*
X46796487Y-134328889D01*
M02*
