M48
; DRILL file {KiCad (5.1.2)-2} date 2021/07/08 12:20:07
; FORMAT={2:4/ absolute / inch / suppress leading zeros}
; #@! TF.CreationDate,2021-07-08T12:20:07+09:00
; #@! TF.GenerationSoftware,Kicad,Pcbnew,(5.1.2)-2
FMAT,2
INCH,TZ
T1C0.0157
T2C0.0300
T3C0.0315
T4C0.0394
%
G90
G05
T1
X21000Y-57750
X22354Y-52854
X23250Y-58500
X24750Y-59500
X24750Y-60500
X24750Y-61500
X24750Y-62500
X24750Y-63500
T2
X26000Y-54500
X26000Y-55500
X26000Y-56500
X26000Y-57500
X26000Y-58500
X26000Y-59500
X26000Y-60500
X26000Y-61500
X26000Y-62500
X26000Y-63500
X26000Y-64500
X26000Y-65500
X26000Y-66500
X26000Y-67500
X32000Y-54500
X32000Y-55500
X32000Y-56500
X32000Y-57500
X32000Y-58500
X32000Y-59500
X32000Y-60500
X32000Y-61500
X32000Y-62500
X32000Y-63500
X32000Y-64500
X32000Y-65500
X32000Y-66500
X32000Y-67500
T3
X19026Y-58776
X19026Y-59776
X19026Y-60776
X19026Y-61776
X22026Y-58776
X22026Y-59776
X22026Y-60776
X22026Y-61776
X18500Y-63500
X22500Y-63500
X17500Y-58250
X17500Y-62250
T4
X22250Y-67000
X23234Y-67000
X17500Y-67000
X18484Y-67000
X19000Y-53000
X19000Y-54000
X19000Y-55000
X19000Y-56000
X20000Y-53000
X20000Y-54000
X20000Y-55000
X20000Y-56000
T0
M30
