G04 #@! TF.GenerationSoftware,KiCad,Pcbnew,(5.1.2)-2*
G04 #@! TF.CreationDate,2021-05-31T16:07:44+09:00*
G04 #@! TF.ProjectId,enc_can_2,656e635f-6361-46e5-9f32-2e6b69636164,rev?*
G04 #@! TF.SameCoordinates,Original*
G04 #@! TF.FileFunction,Soldermask,Top*
G04 #@! TF.FilePolarity,Negative*
%FSLAX46Y46*%
G04 Gerber Fmt 4.6, Leading zero omitted, Abs format (unit mm)*
G04 Created by KiCad (PCBNEW (5.1.2)-2) date 2021-05-31 16:07:44*
%MOMM*%
%LPD*%
G04 APERTURE LIST*
%ADD10C,0.100000*%
G04 APERTURE END LIST*
D10*
G36*
X158640331Y-127808211D02*
G01*
X158968092Y-127943974D01*
X159263070Y-128141072D01*
X159513928Y-128391930D01*
X159711026Y-128686908D01*
X159846789Y-129014669D01*
X159916000Y-129362616D01*
X159916000Y-129717384D01*
X159846789Y-130065331D01*
X159711026Y-130393092D01*
X159513928Y-130688070D01*
X159263070Y-130938928D01*
X158968092Y-131136026D01*
X158640331Y-131271789D01*
X158292384Y-131341000D01*
X157937616Y-131341000D01*
X157589669Y-131271789D01*
X157261908Y-131136026D01*
X156966930Y-130938928D01*
X156716072Y-130688070D01*
X156518974Y-130393092D01*
X156383211Y-130065331D01*
X156314000Y-129717384D01*
X156314000Y-129362616D01*
X156383211Y-129014669D01*
X156518974Y-128686908D01*
X156716072Y-128391930D01*
X156966930Y-128141072D01*
X157261908Y-127943974D01*
X157589669Y-127808211D01*
X157937616Y-127739000D01*
X158292384Y-127739000D01*
X158640331Y-127808211D01*
X158640331Y-127808211D01*
G37*
G36*
X111650331Y-127808211D02*
G01*
X111978092Y-127943974D01*
X112273070Y-128141072D01*
X112523928Y-128391930D01*
X112721026Y-128686908D01*
X112856789Y-129014669D01*
X112926000Y-129362616D01*
X112926000Y-129717384D01*
X112856789Y-130065331D01*
X112721026Y-130393092D01*
X112523928Y-130688070D01*
X112273070Y-130938928D01*
X111978092Y-131136026D01*
X111650331Y-131271789D01*
X111302384Y-131341000D01*
X110947616Y-131341000D01*
X110599669Y-131271789D01*
X110271908Y-131136026D01*
X109976930Y-130938928D01*
X109726072Y-130688070D01*
X109528974Y-130393092D01*
X109393211Y-130065331D01*
X109324000Y-129717384D01*
X109324000Y-129362616D01*
X109393211Y-129014669D01*
X109528974Y-128686908D01*
X109726072Y-128391930D01*
X109976930Y-128141072D01*
X110271908Y-127943974D01*
X110599669Y-127808211D01*
X110947616Y-127739000D01*
X111302384Y-127739000D01*
X111650331Y-127808211D01*
X111650331Y-127808211D01*
G37*
G36*
X120191626Y-127232037D02*
G01*
X120361465Y-127283557D01*
X120361467Y-127283558D01*
X120517989Y-127367221D01*
X120655186Y-127479814D01*
X120738448Y-127581271D01*
X120767778Y-127617009D01*
X120851443Y-127773534D01*
X120902963Y-127943373D01*
X120916000Y-128075742D01*
X120916000Y-128464257D01*
X120902963Y-128596626D01*
X120851443Y-128766466D01*
X120767778Y-128922991D01*
X120738448Y-128958729D01*
X120655186Y-129060186D01*
X120560250Y-129138097D01*
X120517991Y-129172778D01*
X120361466Y-129256443D01*
X120191627Y-129307963D01*
X120015000Y-129325359D01*
X119838374Y-129307963D01*
X119668535Y-129256443D01*
X119512010Y-129172778D01*
X119374815Y-129060185D01*
X119262222Y-128922991D01*
X119178557Y-128766466D01*
X119127037Y-128596627D01*
X119114000Y-128464258D01*
X119114000Y-128075743D01*
X119127037Y-127943374D01*
X119178557Y-127773535D01*
X119262222Y-127617010D01*
X119272358Y-127604659D01*
X119374814Y-127479814D01*
X119476271Y-127396552D01*
X119512009Y-127367222D01*
X119668534Y-127283557D01*
X119838373Y-127232037D01*
X120015000Y-127214641D01*
X120191626Y-127232037D01*
X120191626Y-127232037D01*
G37*
G36*
X129676626Y-127232037D02*
G01*
X129846465Y-127283557D01*
X129846467Y-127283558D01*
X130002989Y-127367221D01*
X130140186Y-127479814D01*
X130223448Y-127581271D01*
X130252778Y-127617009D01*
X130336443Y-127773534D01*
X130387963Y-127943373D01*
X130401000Y-128075742D01*
X130401000Y-128464257D01*
X130387963Y-128596626D01*
X130336443Y-128766466D01*
X130252778Y-128922991D01*
X130223448Y-128958729D01*
X130140186Y-129060186D01*
X130045250Y-129138097D01*
X130002991Y-129172778D01*
X129846466Y-129256443D01*
X129676627Y-129307963D01*
X129500000Y-129325359D01*
X129323374Y-129307963D01*
X129153535Y-129256443D01*
X128997010Y-129172778D01*
X128859815Y-129060185D01*
X128747222Y-128922991D01*
X128663557Y-128766466D01*
X128612037Y-128596627D01*
X128599000Y-128464258D01*
X128599000Y-128075743D01*
X128612037Y-127943374D01*
X128663557Y-127773535D01*
X128747222Y-127617010D01*
X128757358Y-127604659D01*
X128859814Y-127479814D01*
X128961271Y-127396552D01*
X128997009Y-127367222D01*
X129153534Y-127283557D01*
X129323373Y-127232037D01*
X129500000Y-127214641D01*
X129676626Y-127232037D01*
X129676626Y-127232037D01*
G37*
G36*
X118273600Y-127222989D02*
G01*
X118306652Y-127233015D01*
X118337103Y-127249292D01*
X118363799Y-127271201D01*
X118385708Y-127297897D01*
X118401985Y-127328348D01*
X118412011Y-127361400D01*
X118416000Y-127401903D01*
X118416000Y-129138097D01*
X118412011Y-129178600D01*
X118401985Y-129211652D01*
X118385708Y-129242103D01*
X118363799Y-129268799D01*
X118337103Y-129290708D01*
X118306652Y-129306985D01*
X118273600Y-129317011D01*
X118233097Y-129321000D01*
X116796903Y-129321000D01*
X116756400Y-129317011D01*
X116723348Y-129306985D01*
X116692897Y-129290708D01*
X116666201Y-129268799D01*
X116644292Y-129242103D01*
X116628015Y-129211652D01*
X116617989Y-129178600D01*
X116614000Y-129138097D01*
X116614000Y-127401903D01*
X116617989Y-127361400D01*
X116628015Y-127328348D01*
X116644292Y-127297897D01*
X116666201Y-127271201D01*
X116692897Y-127249292D01*
X116723348Y-127233015D01*
X116756400Y-127222989D01*
X116796903Y-127219000D01*
X118233097Y-127219000D01*
X118273600Y-127222989D01*
X118273600Y-127222989D01*
G37*
G36*
X127758600Y-127222989D02*
G01*
X127791652Y-127233015D01*
X127822103Y-127249292D01*
X127848799Y-127271201D01*
X127870708Y-127297897D01*
X127886985Y-127328348D01*
X127897011Y-127361400D01*
X127901000Y-127401903D01*
X127901000Y-129138097D01*
X127897011Y-129178600D01*
X127886985Y-129211652D01*
X127870708Y-129242103D01*
X127848799Y-129268799D01*
X127822103Y-129290708D01*
X127791652Y-129306985D01*
X127758600Y-129317011D01*
X127718097Y-129321000D01*
X126281903Y-129321000D01*
X126241400Y-129317011D01*
X126208348Y-129306985D01*
X126177897Y-129290708D01*
X126151201Y-129268799D01*
X126129292Y-129242103D01*
X126113015Y-129211652D01*
X126102989Y-129178600D01*
X126099000Y-129138097D01*
X126099000Y-127401903D01*
X126102989Y-127361400D01*
X126113015Y-127328348D01*
X126129292Y-127297897D01*
X126151201Y-127271201D01*
X126177897Y-127249292D01*
X126208348Y-127233015D01*
X126241400Y-127222989D01*
X126281903Y-127219000D01*
X127718097Y-127219000D01*
X127758600Y-127222989D01*
X127758600Y-127222989D01*
G37*
G36*
X150026823Y-126161313D02*
G01*
X150187242Y-126209976D01*
X150319906Y-126280886D01*
X150335078Y-126288996D01*
X150464659Y-126395341D01*
X150571004Y-126524922D01*
X150571005Y-126524924D01*
X150650024Y-126672758D01*
X150698687Y-126833177D01*
X150715117Y-127000000D01*
X150698687Y-127166823D01*
X150650024Y-127327242D01*
X150628654Y-127367222D01*
X150571004Y-127475078D01*
X150464659Y-127604659D01*
X150335078Y-127711004D01*
X150335076Y-127711005D01*
X150187242Y-127790024D01*
X150026823Y-127838687D01*
X149901804Y-127851000D01*
X149818196Y-127851000D01*
X149693177Y-127838687D01*
X149532758Y-127790024D01*
X149384924Y-127711005D01*
X149384922Y-127711004D01*
X149255341Y-127604659D01*
X149148996Y-127475078D01*
X149091346Y-127367222D01*
X149069976Y-127327242D01*
X149021313Y-127166823D01*
X149004883Y-127000000D01*
X149021313Y-126833177D01*
X149069976Y-126672758D01*
X149148995Y-126524924D01*
X149148996Y-126524922D01*
X149255341Y-126395341D01*
X149384922Y-126288996D01*
X149400094Y-126280886D01*
X149532758Y-126209976D01*
X149693177Y-126161313D01*
X149818196Y-126149000D01*
X149901804Y-126149000D01*
X150026823Y-126161313D01*
X150026823Y-126161313D01*
G37*
G36*
X134786823Y-126161313D02*
G01*
X134947242Y-126209976D01*
X135079906Y-126280886D01*
X135095078Y-126288996D01*
X135224659Y-126395341D01*
X135331004Y-126524922D01*
X135331005Y-126524924D01*
X135410024Y-126672758D01*
X135458687Y-126833177D01*
X135475117Y-127000000D01*
X135458687Y-127166823D01*
X135410024Y-127327242D01*
X135388654Y-127367222D01*
X135331004Y-127475078D01*
X135224659Y-127604659D01*
X135095078Y-127711004D01*
X135095076Y-127711005D01*
X134947242Y-127790024D01*
X134786823Y-127838687D01*
X134661804Y-127851000D01*
X134578196Y-127851000D01*
X134453177Y-127838687D01*
X134292758Y-127790024D01*
X134144924Y-127711005D01*
X134144922Y-127711004D01*
X134015341Y-127604659D01*
X133908996Y-127475078D01*
X133851346Y-127367222D01*
X133829976Y-127327242D01*
X133781313Y-127166823D01*
X133764883Y-127000000D01*
X133781313Y-126833177D01*
X133829976Y-126672758D01*
X133908995Y-126524924D01*
X133908996Y-126524922D01*
X134015341Y-126395341D01*
X134144922Y-126288996D01*
X134160094Y-126280886D01*
X134292758Y-126209976D01*
X134453177Y-126161313D01*
X134578196Y-126149000D01*
X134661804Y-126149000D01*
X134786823Y-126161313D01*
X134786823Y-126161313D01*
G37*
G36*
X150026823Y-123621313D02*
G01*
X150187242Y-123669976D01*
X150319906Y-123740886D01*
X150335078Y-123748996D01*
X150464659Y-123855341D01*
X150571004Y-123984922D01*
X150571005Y-123984924D01*
X150650024Y-124132758D01*
X150698687Y-124293177D01*
X150715117Y-124460000D01*
X150698687Y-124626823D01*
X150650024Y-124787242D01*
X150579114Y-124919906D01*
X150571004Y-124935078D01*
X150464659Y-125064659D01*
X150335078Y-125171004D01*
X150335076Y-125171005D01*
X150187242Y-125250024D01*
X150026823Y-125298687D01*
X149901804Y-125311000D01*
X149818196Y-125311000D01*
X149693177Y-125298687D01*
X149532758Y-125250024D01*
X149384924Y-125171005D01*
X149384922Y-125171004D01*
X149255341Y-125064659D01*
X149148996Y-124935078D01*
X149140886Y-124919906D01*
X149069976Y-124787242D01*
X149021313Y-124626823D01*
X149004883Y-124460000D01*
X149021313Y-124293177D01*
X149069976Y-124132758D01*
X149148995Y-123984924D01*
X149148996Y-123984922D01*
X149255341Y-123855341D01*
X149384922Y-123748996D01*
X149400094Y-123740886D01*
X149532758Y-123669976D01*
X149693177Y-123621313D01*
X149818196Y-123609000D01*
X149901804Y-123609000D01*
X150026823Y-123621313D01*
X150026823Y-123621313D01*
G37*
G36*
X134786823Y-123621313D02*
G01*
X134947242Y-123669976D01*
X135079906Y-123740886D01*
X135095078Y-123748996D01*
X135224659Y-123855341D01*
X135331004Y-123984922D01*
X135331005Y-123984924D01*
X135410024Y-124132758D01*
X135458687Y-124293177D01*
X135475117Y-124460000D01*
X135458687Y-124626823D01*
X135410024Y-124787242D01*
X135339114Y-124919906D01*
X135331004Y-124935078D01*
X135224659Y-125064659D01*
X135095078Y-125171004D01*
X135095076Y-125171005D01*
X134947242Y-125250024D01*
X134786823Y-125298687D01*
X134661804Y-125311000D01*
X134578196Y-125311000D01*
X134453177Y-125298687D01*
X134292758Y-125250024D01*
X134144924Y-125171005D01*
X134144922Y-125171004D01*
X134015341Y-125064659D01*
X133908996Y-124935078D01*
X133900886Y-124919906D01*
X133829976Y-124787242D01*
X133781313Y-124626823D01*
X133764883Y-124460000D01*
X133781313Y-124293177D01*
X133829976Y-124132758D01*
X133908995Y-123984924D01*
X133908996Y-123984922D01*
X134015341Y-123855341D01*
X134144922Y-123748996D01*
X134160094Y-123740886D01*
X134292758Y-123669976D01*
X134453177Y-123621313D01*
X134578196Y-123609000D01*
X134661804Y-123609000D01*
X134786823Y-123621313D01*
X134786823Y-123621313D01*
G37*
G36*
X157728600Y-122292989D02*
G01*
X157761652Y-122303015D01*
X157792103Y-122319292D01*
X157818799Y-122341201D01*
X157840708Y-122367897D01*
X157856985Y-122398348D01*
X157867011Y-122431400D01*
X157871000Y-122471903D01*
X157871000Y-123908097D01*
X157867011Y-123948600D01*
X157856985Y-123981652D01*
X157840708Y-124012103D01*
X157818799Y-124038799D01*
X157792103Y-124060708D01*
X157761652Y-124076985D01*
X157728600Y-124087011D01*
X157688097Y-124091000D01*
X156001903Y-124091000D01*
X155961400Y-124087011D01*
X155928348Y-124076985D01*
X155897897Y-124060708D01*
X155871201Y-124038799D01*
X155849292Y-124012103D01*
X155833015Y-123981652D01*
X155822989Y-123948600D01*
X155819000Y-123908097D01*
X155819000Y-122471903D01*
X155822989Y-122431400D01*
X155833015Y-122398348D01*
X155849292Y-122367897D01*
X155871201Y-122341201D01*
X155897897Y-122319292D01*
X155928348Y-122303015D01*
X155961400Y-122292989D01*
X156001903Y-122289000D01*
X157688097Y-122289000D01*
X157728600Y-122292989D01*
X157728600Y-122292989D01*
G37*
G36*
X119651000Y-122966000D02*
G01*
X113149000Y-122966000D01*
X113149000Y-117064000D01*
X119651000Y-117064000D01*
X119651000Y-122966000D01*
X119651000Y-122966000D01*
G37*
G36*
X111251000Y-122946000D02*
G01*
X108949000Y-122946000D01*
X108949000Y-121644000D01*
X111251000Y-121644000D01*
X111251000Y-122946000D01*
X111251000Y-122946000D01*
G37*
G36*
X134786823Y-121081313D02*
G01*
X134947242Y-121129976D01*
X135065131Y-121192989D01*
X135095078Y-121208996D01*
X135224659Y-121315341D01*
X135331004Y-121444922D01*
X135331005Y-121444924D01*
X135410024Y-121592758D01*
X135458687Y-121753177D01*
X135475117Y-121920000D01*
X135458687Y-122086823D01*
X135410024Y-122247242D01*
X135371512Y-122319292D01*
X135331004Y-122395078D01*
X135224659Y-122524659D01*
X135095078Y-122631004D01*
X135095076Y-122631005D01*
X134947242Y-122710024D01*
X134786823Y-122758687D01*
X134661804Y-122771000D01*
X134578196Y-122771000D01*
X134453177Y-122758687D01*
X134292758Y-122710024D01*
X134144924Y-122631005D01*
X134144922Y-122631004D01*
X134015341Y-122524659D01*
X133908996Y-122395078D01*
X133868488Y-122319292D01*
X133829976Y-122247242D01*
X133781313Y-122086823D01*
X133764883Y-121920000D01*
X133781313Y-121753177D01*
X133829976Y-121592758D01*
X133908995Y-121444924D01*
X133908996Y-121444922D01*
X134015341Y-121315341D01*
X134144922Y-121208996D01*
X134174869Y-121192989D01*
X134292758Y-121129976D01*
X134453177Y-121081313D01*
X134578196Y-121069000D01*
X134661804Y-121069000D01*
X134786823Y-121081313D01*
X134786823Y-121081313D01*
G37*
G36*
X150026823Y-121081313D02*
G01*
X150187242Y-121129976D01*
X150305131Y-121192989D01*
X150335078Y-121208996D01*
X150464659Y-121315341D01*
X150571004Y-121444922D01*
X150571005Y-121444924D01*
X150650024Y-121592758D01*
X150698687Y-121753177D01*
X150715117Y-121920000D01*
X150698687Y-122086823D01*
X150650024Y-122247242D01*
X150611512Y-122319292D01*
X150571004Y-122395078D01*
X150464659Y-122524659D01*
X150335078Y-122631004D01*
X150335076Y-122631005D01*
X150187242Y-122710024D01*
X150026823Y-122758687D01*
X149901804Y-122771000D01*
X149818196Y-122771000D01*
X149693177Y-122758687D01*
X149532758Y-122710024D01*
X149384924Y-122631005D01*
X149384922Y-122631004D01*
X149255341Y-122524659D01*
X149148996Y-122395078D01*
X149108488Y-122319292D01*
X149069976Y-122247242D01*
X149021313Y-122086823D01*
X149004883Y-121920000D01*
X149021313Y-121753177D01*
X149069976Y-121592758D01*
X149148995Y-121444924D01*
X149148996Y-121444922D01*
X149255341Y-121315341D01*
X149384922Y-121208996D01*
X149414869Y-121192989D01*
X149532758Y-121129976D01*
X149693177Y-121081313D01*
X149818196Y-121069000D01*
X149901804Y-121069000D01*
X150026823Y-121081313D01*
X150026823Y-121081313D01*
G37*
G36*
X157080443Y-119795519D02*
G01*
X157146627Y-119802037D01*
X157316466Y-119853557D01*
X157472991Y-119937222D01*
X157508729Y-119966552D01*
X157610186Y-120049814D01*
X157693448Y-120151271D01*
X157722778Y-120187009D01*
X157806443Y-120343534D01*
X157857963Y-120513373D01*
X157875359Y-120690000D01*
X157857963Y-120866627D01*
X157806443Y-121036466D01*
X157722778Y-121192991D01*
X157709643Y-121208996D01*
X157610186Y-121330186D01*
X157508729Y-121413448D01*
X157472991Y-121442778D01*
X157316466Y-121526443D01*
X157146627Y-121577963D01*
X157080442Y-121584482D01*
X157014260Y-121591000D01*
X156675740Y-121591000D01*
X156609558Y-121584482D01*
X156543373Y-121577963D01*
X156373534Y-121526443D01*
X156217009Y-121442778D01*
X156181271Y-121413448D01*
X156079814Y-121330186D01*
X155980357Y-121208996D01*
X155967222Y-121192991D01*
X155883557Y-121036466D01*
X155832037Y-120866627D01*
X155814641Y-120690000D01*
X155832037Y-120513373D01*
X155883557Y-120343534D01*
X155967222Y-120187009D01*
X155996552Y-120151271D01*
X156079814Y-120049814D01*
X156181271Y-119966552D01*
X156217009Y-119937222D01*
X156373534Y-119853557D01*
X156543373Y-119802037D01*
X156609557Y-119795519D01*
X156675740Y-119789000D01*
X157014260Y-119789000D01*
X157080443Y-119795519D01*
X157080443Y-119795519D01*
G37*
G36*
X127978228Y-119196703D02*
G01*
X128133100Y-119260853D01*
X128272481Y-119353985D01*
X128391015Y-119472519D01*
X128484147Y-119611900D01*
X128548297Y-119766772D01*
X128581000Y-119931184D01*
X128581000Y-120098816D01*
X128548297Y-120263228D01*
X128484147Y-120418100D01*
X128391015Y-120557481D01*
X128272481Y-120676015D01*
X128133100Y-120769147D01*
X127978228Y-120833297D01*
X127813816Y-120866000D01*
X127646184Y-120866000D01*
X127481772Y-120833297D01*
X127326900Y-120769147D01*
X127187519Y-120676015D01*
X127068985Y-120557481D01*
X126975853Y-120418100D01*
X126911703Y-120263228D01*
X126879000Y-120098816D01*
X126879000Y-119931184D01*
X126911703Y-119766772D01*
X126975853Y-119611900D01*
X127068985Y-119472519D01*
X127187519Y-119353985D01*
X127326900Y-119260853D01*
X127481772Y-119196703D01*
X127646184Y-119164000D01*
X127813816Y-119164000D01*
X127978228Y-119196703D01*
X127978228Y-119196703D01*
G37*
G36*
X126581000Y-120866000D02*
G01*
X124879000Y-120866000D01*
X124879000Y-119164000D01*
X126581000Y-119164000D01*
X126581000Y-120866000D01*
X126581000Y-120866000D01*
G37*
G36*
X150026823Y-118541313D02*
G01*
X150187242Y-118589976D01*
X150319906Y-118660886D01*
X150335078Y-118668996D01*
X150464659Y-118775341D01*
X150571004Y-118904922D01*
X150571005Y-118904924D01*
X150650024Y-119052758D01*
X150698687Y-119213177D01*
X150715117Y-119380000D01*
X150698687Y-119546823D01*
X150650024Y-119707242D01*
X150606323Y-119789000D01*
X150571004Y-119855078D01*
X150464659Y-119984659D01*
X150335078Y-120091004D01*
X150335076Y-120091005D01*
X150187242Y-120170024D01*
X150026823Y-120218687D01*
X149901804Y-120231000D01*
X149818196Y-120231000D01*
X149693177Y-120218687D01*
X149532758Y-120170024D01*
X149384924Y-120091005D01*
X149384922Y-120091004D01*
X149255341Y-119984659D01*
X149148996Y-119855078D01*
X149113677Y-119789000D01*
X149069976Y-119707242D01*
X149021313Y-119546823D01*
X149004883Y-119380000D01*
X149021313Y-119213177D01*
X149069976Y-119052758D01*
X149148995Y-118904924D01*
X149148996Y-118904922D01*
X149255341Y-118775341D01*
X149384922Y-118668996D01*
X149400094Y-118660886D01*
X149532758Y-118589976D01*
X149693177Y-118541313D01*
X149818196Y-118529000D01*
X149901804Y-118529000D01*
X150026823Y-118541313D01*
X150026823Y-118541313D01*
G37*
G36*
X134786823Y-118541313D02*
G01*
X134947242Y-118589976D01*
X135079906Y-118660886D01*
X135095078Y-118668996D01*
X135224659Y-118775341D01*
X135331004Y-118904922D01*
X135331005Y-118904924D01*
X135410024Y-119052758D01*
X135458687Y-119213177D01*
X135475117Y-119380000D01*
X135458687Y-119546823D01*
X135410024Y-119707242D01*
X135366323Y-119789000D01*
X135331004Y-119855078D01*
X135224659Y-119984659D01*
X135095078Y-120091004D01*
X135095076Y-120091005D01*
X134947242Y-120170024D01*
X134786823Y-120218687D01*
X134661804Y-120231000D01*
X134578196Y-120231000D01*
X134453177Y-120218687D01*
X134292758Y-120170024D01*
X134144924Y-120091005D01*
X134144922Y-120091004D01*
X134015341Y-119984659D01*
X133908996Y-119855078D01*
X133873677Y-119789000D01*
X133829976Y-119707242D01*
X133781313Y-119546823D01*
X133764883Y-119380000D01*
X133781313Y-119213177D01*
X133829976Y-119052758D01*
X133908995Y-118904924D01*
X133908996Y-118904922D01*
X134015341Y-118775341D01*
X134144922Y-118668996D01*
X134160094Y-118660886D01*
X134292758Y-118589976D01*
X134453177Y-118541313D01*
X134578196Y-118529000D01*
X134661804Y-118529000D01*
X134786823Y-118541313D01*
X134786823Y-118541313D01*
G37*
G36*
X157080442Y-117295518D02*
G01*
X157146627Y-117302037D01*
X157316466Y-117353557D01*
X157472991Y-117437222D01*
X157508729Y-117466552D01*
X157610186Y-117549814D01*
X157676012Y-117630025D01*
X157722778Y-117687009D01*
X157806443Y-117843534D01*
X157857963Y-118013373D01*
X157875359Y-118190000D01*
X157857963Y-118366627D01*
X157806443Y-118536466D01*
X157722778Y-118692991D01*
X157693448Y-118728729D01*
X157610186Y-118830186D01*
X157519116Y-118904924D01*
X157472991Y-118942778D01*
X157316466Y-119026443D01*
X157146627Y-119077963D01*
X157080442Y-119084482D01*
X157014260Y-119091000D01*
X156675740Y-119091000D01*
X156609558Y-119084482D01*
X156543373Y-119077963D01*
X156373534Y-119026443D01*
X156217009Y-118942778D01*
X156170884Y-118904924D01*
X156079814Y-118830186D01*
X155996552Y-118728729D01*
X155967222Y-118692991D01*
X155883557Y-118536466D01*
X155832037Y-118366627D01*
X155814641Y-118190000D01*
X155832037Y-118013373D01*
X155883557Y-117843534D01*
X155967222Y-117687009D01*
X156013988Y-117630025D01*
X156079814Y-117549814D01*
X156181271Y-117466552D01*
X156217009Y-117437222D01*
X156373534Y-117353557D01*
X156543373Y-117302037D01*
X156609558Y-117295518D01*
X156675740Y-117289000D01*
X157014260Y-117289000D01*
X157080442Y-117295518D01*
X157080442Y-117295518D01*
G37*
G36*
X111251000Y-118386000D02*
G01*
X108949000Y-118386000D01*
X108949000Y-117084000D01*
X111251000Y-117084000D01*
X111251000Y-118386000D01*
X111251000Y-118386000D01*
G37*
G36*
X134786823Y-116001313D02*
G01*
X134947242Y-116049976D01*
X135079906Y-116120886D01*
X135095078Y-116128996D01*
X135224659Y-116235341D01*
X135331004Y-116364922D01*
X135331005Y-116364924D01*
X135410024Y-116512758D01*
X135458687Y-116673177D01*
X135475117Y-116840000D01*
X135458687Y-117006823D01*
X135410024Y-117167242D01*
X135344943Y-117289000D01*
X135331004Y-117315078D01*
X135224659Y-117444659D01*
X135095078Y-117551004D01*
X135095076Y-117551005D01*
X134947242Y-117630024D01*
X134786823Y-117678687D01*
X134661804Y-117691000D01*
X134578196Y-117691000D01*
X134453177Y-117678687D01*
X134292758Y-117630024D01*
X134144924Y-117551005D01*
X134144922Y-117551004D01*
X134015341Y-117444659D01*
X133908996Y-117315078D01*
X133895057Y-117289000D01*
X133829976Y-117167242D01*
X133781313Y-117006823D01*
X133764883Y-116840000D01*
X133781313Y-116673177D01*
X133829976Y-116512758D01*
X133908995Y-116364924D01*
X133908996Y-116364922D01*
X134015341Y-116235341D01*
X134144922Y-116128996D01*
X134160094Y-116120886D01*
X134292758Y-116049976D01*
X134453177Y-116001313D01*
X134578196Y-115989000D01*
X134661804Y-115989000D01*
X134786823Y-116001313D01*
X134786823Y-116001313D01*
G37*
G36*
X150026823Y-116001313D02*
G01*
X150187242Y-116049976D01*
X150319906Y-116120886D01*
X150335078Y-116128996D01*
X150464659Y-116235341D01*
X150571004Y-116364922D01*
X150571005Y-116364924D01*
X150650024Y-116512758D01*
X150698687Y-116673177D01*
X150715117Y-116840000D01*
X150698687Y-117006823D01*
X150650024Y-117167242D01*
X150584943Y-117289000D01*
X150571004Y-117315078D01*
X150464659Y-117444659D01*
X150335078Y-117551004D01*
X150335076Y-117551005D01*
X150187242Y-117630024D01*
X150026823Y-117678687D01*
X149901804Y-117691000D01*
X149818196Y-117691000D01*
X149693177Y-117678687D01*
X149532758Y-117630024D01*
X149384924Y-117551005D01*
X149384922Y-117551004D01*
X149255341Y-117444659D01*
X149148996Y-117315078D01*
X149135057Y-117289000D01*
X149069976Y-117167242D01*
X149021313Y-117006823D01*
X149004883Y-116840000D01*
X149021313Y-116673177D01*
X149069976Y-116512758D01*
X149148995Y-116364924D01*
X149148996Y-116364922D01*
X149255341Y-116235341D01*
X149384922Y-116128996D01*
X149400094Y-116120886D01*
X149532758Y-116049976D01*
X149693177Y-116001313D01*
X149818196Y-115989000D01*
X149901804Y-115989000D01*
X150026823Y-116001313D01*
X150026823Y-116001313D01*
G37*
G36*
X157080442Y-114795518D02*
G01*
X157146627Y-114802037D01*
X157316466Y-114853557D01*
X157472991Y-114937222D01*
X157508729Y-114966552D01*
X157610186Y-115049814D01*
X157683120Y-115138686D01*
X157722778Y-115187009D01*
X157806443Y-115343534D01*
X157857963Y-115513373D01*
X157875359Y-115690000D01*
X157857963Y-115866627D01*
X157806443Y-116036466D01*
X157722778Y-116192991D01*
X157693448Y-116228729D01*
X157610186Y-116330186D01*
X157508729Y-116413448D01*
X157472991Y-116442778D01*
X157316466Y-116526443D01*
X157146627Y-116577963D01*
X157080442Y-116584482D01*
X157014260Y-116591000D01*
X156675740Y-116591000D01*
X156609558Y-116584482D01*
X156543373Y-116577963D01*
X156373534Y-116526443D01*
X156217009Y-116442778D01*
X156181271Y-116413448D01*
X156079814Y-116330186D01*
X155996552Y-116228729D01*
X155967222Y-116192991D01*
X155883557Y-116036466D01*
X155832037Y-115866627D01*
X155814641Y-115690000D01*
X155832037Y-115513373D01*
X155883557Y-115343534D01*
X155967222Y-115187009D01*
X156006880Y-115138686D01*
X156079814Y-115049814D01*
X156181271Y-114966552D01*
X156217009Y-114937222D01*
X156373534Y-114853557D01*
X156543373Y-114802037D01*
X156609558Y-114795518D01*
X156675740Y-114789000D01*
X157014260Y-114789000D01*
X157080442Y-114795518D01*
X157080442Y-114795518D01*
G37*
G36*
X150026823Y-113461313D02*
G01*
X150187242Y-113509976D01*
X150319906Y-113580886D01*
X150335078Y-113588996D01*
X150464659Y-113695341D01*
X150571004Y-113824922D01*
X150571005Y-113824924D01*
X150650024Y-113972758D01*
X150698687Y-114133177D01*
X150715117Y-114300000D01*
X150698687Y-114466823D01*
X150650024Y-114627242D01*
X150579114Y-114759906D01*
X150571004Y-114775078D01*
X150464659Y-114904659D01*
X150335078Y-115011004D01*
X150335076Y-115011005D01*
X150187242Y-115090024D01*
X150026823Y-115138687D01*
X149901804Y-115151000D01*
X149818196Y-115151000D01*
X149693177Y-115138687D01*
X149532758Y-115090024D01*
X149384924Y-115011005D01*
X149384922Y-115011004D01*
X149255341Y-114904659D01*
X149148996Y-114775078D01*
X149140886Y-114759906D01*
X149069976Y-114627242D01*
X149021313Y-114466823D01*
X149004883Y-114300000D01*
X149021313Y-114133177D01*
X149069976Y-113972758D01*
X149148995Y-113824924D01*
X149148996Y-113824922D01*
X149255341Y-113695341D01*
X149384922Y-113588996D01*
X149400094Y-113580886D01*
X149532758Y-113509976D01*
X149693177Y-113461313D01*
X149818196Y-113449000D01*
X149901804Y-113449000D01*
X150026823Y-113461313D01*
X150026823Y-113461313D01*
G37*
G36*
X134786823Y-113461313D02*
G01*
X134947242Y-113509976D01*
X135079906Y-113580886D01*
X135095078Y-113588996D01*
X135224659Y-113695341D01*
X135331004Y-113824922D01*
X135331005Y-113824924D01*
X135410024Y-113972758D01*
X135458687Y-114133177D01*
X135475117Y-114300000D01*
X135458687Y-114466823D01*
X135410024Y-114627242D01*
X135339114Y-114759906D01*
X135331004Y-114775078D01*
X135224659Y-114904659D01*
X135095078Y-115011004D01*
X135095076Y-115011005D01*
X134947242Y-115090024D01*
X134786823Y-115138687D01*
X134661804Y-115151000D01*
X134578196Y-115151000D01*
X134453177Y-115138687D01*
X134292758Y-115090024D01*
X134144924Y-115011005D01*
X134144922Y-115011004D01*
X134015341Y-114904659D01*
X133908996Y-114775078D01*
X133900886Y-114759906D01*
X133829976Y-114627242D01*
X133781313Y-114466823D01*
X133764883Y-114300000D01*
X133781313Y-114133177D01*
X133829976Y-113972758D01*
X133908995Y-113824924D01*
X133908996Y-113824922D01*
X134015341Y-113695341D01*
X134144922Y-113588996D01*
X134160094Y-113580886D01*
X134292758Y-113509976D01*
X134453177Y-113461313D01*
X134578196Y-113449000D01*
X134661804Y-113449000D01*
X134786823Y-113461313D01*
X134786823Y-113461313D01*
G37*
G36*
X131026000Y-113881000D02*
G01*
X129324000Y-113881000D01*
X129324000Y-112179000D01*
X131026000Y-112179000D01*
X131026000Y-113881000D01*
X131026000Y-113881000D01*
G37*
G36*
X122721823Y-112191313D02*
G01*
X122882242Y-112239976D01*
X123014906Y-112310886D01*
X123030078Y-112318996D01*
X123159659Y-112425341D01*
X123266004Y-112554922D01*
X123266005Y-112554924D01*
X123345024Y-112702758D01*
X123393687Y-112863177D01*
X123410117Y-113030000D01*
X123393687Y-113196823D01*
X123345024Y-113357242D01*
X123295978Y-113449000D01*
X123266004Y-113505078D01*
X123159659Y-113634659D01*
X123030078Y-113741004D01*
X123030076Y-113741005D01*
X122882242Y-113820024D01*
X122721823Y-113868687D01*
X122596804Y-113881000D01*
X122513196Y-113881000D01*
X122388177Y-113868687D01*
X122227758Y-113820024D01*
X122079924Y-113741005D01*
X122079922Y-113741004D01*
X121950341Y-113634659D01*
X121843996Y-113505078D01*
X121814022Y-113449000D01*
X121764976Y-113357242D01*
X121716313Y-113196823D01*
X121699883Y-113030000D01*
X121716313Y-112863177D01*
X121764976Y-112702758D01*
X121843995Y-112554924D01*
X121843996Y-112554922D01*
X121950341Y-112425341D01*
X122079922Y-112318996D01*
X122095094Y-112310886D01*
X122227758Y-112239976D01*
X122388177Y-112191313D01*
X122513196Y-112179000D01*
X122596804Y-112179000D01*
X122721823Y-112191313D01*
X122721823Y-112191313D01*
G37*
G36*
X134786823Y-110921313D02*
G01*
X134947242Y-110969976D01*
X135079906Y-111040886D01*
X135095078Y-111048996D01*
X135224659Y-111155341D01*
X135331004Y-111284922D01*
X135331005Y-111284924D01*
X135410024Y-111432758D01*
X135458687Y-111593177D01*
X135475117Y-111760000D01*
X135458687Y-111926823D01*
X135410024Y-112087242D01*
X135360978Y-112179000D01*
X135331004Y-112235078D01*
X135224659Y-112364659D01*
X135095078Y-112471004D01*
X135095076Y-112471005D01*
X134947242Y-112550024D01*
X134786823Y-112598687D01*
X134661804Y-112611000D01*
X134578196Y-112611000D01*
X134453177Y-112598687D01*
X134292758Y-112550024D01*
X134144924Y-112471005D01*
X134144922Y-112471004D01*
X134015341Y-112364659D01*
X133908996Y-112235078D01*
X133879022Y-112179000D01*
X133829976Y-112087242D01*
X133781313Y-111926823D01*
X133764883Y-111760000D01*
X133781313Y-111593177D01*
X133829976Y-111432758D01*
X133908995Y-111284924D01*
X133908996Y-111284922D01*
X134015341Y-111155341D01*
X134144922Y-111048996D01*
X134160094Y-111040886D01*
X134292758Y-110969976D01*
X134453177Y-110921313D01*
X134578196Y-110909000D01*
X134661804Y-110909000D01*
X134786823Y-110921313D01*
X134786823Y-110921313D01*
G37*
G36*
X150026823Y-110921313D02*
G01*
X150187242Y-110969976D01*
X150319906Y-111040886D01*
X150335078Y-111048996D01*
X150464659Y-111155341D01*
X150571004Y-111284922D01*
X150571005Y-111284924D01*
X150650024Y-111432758D01*
X150698687Y-111593177D01*
X150715117Y-111760000D01*
X150698687Y-111926823D01*
X150650024Y-112087242D01*
X150600978Y-112179000D01*
X150571004Y-112235078D01*
X150464659Y-112364659D01*
X150335078Y-112471004D01*
X150335076Y-112471005D01*
X150187242Y-112550024D01*
X150026823Y-112598687D01*
X149901804Y-112611000D01*
X149818196Y-112611000D01*
X149693177Y-112598687D01*
X149532758Y-112550024D01*
X149384924Y-112471005D01*
X149384922Y-112471004D01*
X149255341Y-112364659D01*
X149148996Y-112235078D01*
X149119022Y-112179000D01*
X149069976Y-112087242D01*
X149021313Y-111926823D01*
X149004883Y-111760000D01*
X149021313Y-111593177D01*
X149069976Y-111432758D01*
X149148995Y-111284924D01*
X149148996Y-111284922D01*
X149255341Y-111155341D01*
X149384922Y-111048996D01*
X149400094Y-111040886D01*
X149532758Y-110969976D01*
X149693177Y-110921313D01*
X149818196Y-110909000D01*
X149901804Y-110909000D01*
X150026823Y-110921313D01*
X150026823Y-110921313D01*
G37*
G36*
X127494591Y-110603085D02*
G01*
X127528569Y-110613393D01*
X127559890Y-110630134D01*
X127587339Y-110652661D01*
X127609866Y-110680110D01*
X127626607Y-110711431D01*
X127636915Y-110745409D01*
X127641000Y-110786890D01*
X127641000Y-111463110D01*
X127636915Y-111504591D01*
X127626607Y-111538569D01*
X127609866Y-111569890D01*
X127587339Y-111597339D01*
X127559890Y-111619866D01*
X127528569Y-111636607D01*
X127494591Y-111646915D01*
X127453110Y-111651000D01*
X126851890Y-111651000D01*
X126810409Y-111646915D01*
X126776431Y-111636607D01*
X126745110Y-111619866D01*
X126717661Y-111597339D01*
X126695134Y-111569890D01*
X126678393Y-111538569D01*
X126668085Y-111504591D01*
X126664000Y-111463110D01*
X126664000Y-110786890D01*
X126668085Y-110745409D01*
X126678393Y-110711431D01*
X126695134Y-110680110D01*
X126717661Y-110652661D01*
X126745110Y-110630134D01*
X126776431Y-110613393D01*
X126810409Y-110603085D01*
X126851890Y-110599000D01*
X127453110Y-110599000D01*
X127494591Y-110603085D01*
X127494591Y-110603085D01*
G37*
G36*
X125919591Y-110603085D02*
G01*
X125953569Y-110613393D01*
X125984890Y-110630134D01*
X126012339Y-110652661D01*
X126034866Y-110680110D01*
X126051607Y-110711431D01*
X126061915Y-110745409D01*
X126066000Y-110786890D01*
X126066000Y-111463110D01*
X126061915Y-111504591D01*
X126051607Y-111538569D01*
X126034866Y-111569890D01*
X126012339Y-111597339D01*
X125984890Y-111619866D01*
X125953569Y-111636607D01*
X125919591Y-111646915D01*
X125878110Y-111651000D01*
X125276890Y-111651000D01*
X125235409Y-111646915D01*
X125201431Y-111636607D01*
X125170110Y-111619866D01*
X125142661Y-111597339D01*
X125120134Y-111569890D01*
X125103393Y-111538569D01*
X125093085Y-111504591D01*
X125089000Y-111463110D01*
X125089000Y-110786890D01*
X125093085Y-110745409D01*
X125103393Y-110711431D01*
X125120134Y-110680110D01*
X125142661Y-110652661D01*
X125170110Y-110630134D01*
X125201431Y-110613393D01*
X125235409Y-110603085D01*
X125276890Y-110599000D01*
X125878110Y-110599000D01*
X125919591Y-110603085D01*
X125919591Y-110603085D01*
G37*
G36*
X130341823Y-109651313D02*
G01*
X130502242Y-109699976D01*
X130634906Y-109770886D01*
X130650078Y-109778996D01*
X130779659Y-109885341D01*
X130886004Y-110014922D01*
X130886005Y-110014924D01*
X130965024Y-110162758D01*
X131013687Y-110323177D01*
X131030117Y-110490000D01*
X131013687Y-110656823D01*
X130965024Y-110817242D01*
X130951122Y-110843250D01*
X130886004Y-110965078D01*
X130779659Y-111094659D01*
X130650078Y-111201004D01*
X130650076Y-111201005D01*
X130502242Y-111280024D01*
X130341823Y-111328687D01*
X130216804Y-111341000D01*
X130133196Y-111341000D01*
X130008177Y-111328687D01*
X129847758Y-111280024D01*
X129699924Y-111201005D01*
X129699922Y-111201004D01*
X129570341Y-111094659D01*
X129463996Y-110965078D01*
X129398878Y-110843250D01*
X129384976Y-110817242D01*
X129336313Y-110656823D01*
X129319883Y-110490000D01*
X129336313Y-110323177D01*
X129384976Y-110162758D01*
X129463995Y-110014924D01*
X129463996Y-110014922D01*
X129570341Y-109885341D01*
X129699922Y-109778996D01*
X129715094Y-109770886D01*
X129847758Y-109699976D01*
X130008177Y-109651313D01*
X130133196Y-109639000D01*
X130216804Y-109639000D01*
X130341823Y-109651313D01*
X130341823Y-109651313D01*
G37*
G36*
X122721823Y-109651313D02*
G01*
X122882242Y-109699976D01*
X123014906Y-109770886D01*
X123030078Y-109778996D01*
X123159659Y-109885341D01*
X123266004Y-110014922D01*
X123266005Y-110014924D01*
X123345024Y-110162758D01*
X123393687Y-110323177D01*
X123410117Y-110490000D01*
X123393687Y-110656823D01*
X123345024Y-110817242D01*
X123331122Y-110843250D01*
X123266004Y-110965078D01*
X123159659Y-111094659D01*
X123030078Y-111201004D01*
X123030076Y-111201005D01*
X122882242Y-111280024D01*
X122721823Y-111328687D01*
X122596804Y-111341000D01*
X122513196Y-111341000D01*
X122388177Y-111328687D01*
X122227758Y-111280024D01*
X122079924Y-111201005D01*
X122079922Y-111201004D01*
X121950341Y-111094659D01*
X121843996Y-110965078D01*
X121778878Y-110843250D01*
X121764976Y-110817242D01*
X121716313Y-110656823D01*
X121699883Y-110490000D01*
X121716313Y-110323177D01*
X121764976Y-110162758D01*
X121843995Y-110014924D01*
X121843996Y-110014922D01*
X121950341Y-109885341D01*
X122079922Y-109778996D01*
X122095094Y-109770886D01*
X122227758Y-109699976D01*
X122388177Y-109651313D01*
X122513196Y-109639000D01*
X122596804Y-109639000D01*
X122721823Y-109651313D01*
X122721823Y-109651313D01*
G37*
G36*
X134786823Y-108381313D02*
G01*
X134947242Y-108429976D01*
X135079906Y-108500886D01*
X135095078Y-108508996D01*
X135224659Y-108615341D01*
X135331004Y-108744922D01*
X135331005Y-108744924D01*
X135410024Y-108892758D01*
X135458687Y-109053177D01*
X135475117Y-109220000D01*
X135458687Y-109386823D01*
X135410024Y-109547242D01*
X135360978Y-109639000D01*
X135331004Y-109695078D01*
X135224659Y-109824659D01*
X135095078Y-109931004D01*
X135095076Y-109931005D01*
X134947242Y-110010024D01*
X134786823Y-110058687D01*
X134661804Y-110071000D01*
X134578196Y-110071000D01*
X134453177Y-110058687D01*
X134292758Y-110010024D01*
X134144924Y-109931005D01*
X134144922Y-109931004D01*
X134015341Y-109824659D01*
X133908996Y-109695078D01*
X133879022Y-109639000D01*
X133829976Y-109547242D01*
X133781313Y-109386823D01*
X133764883Y-109220000D01*
X133781313Y-109053177D01*
X133829976Y-108892758D01*
X133908995Y-108744924D01*
X133908996Y-108744922D01*
X134015341Y-108615341D01*
X134144922Y-108508996D01*
X134160094Y-108500886D01*
X134292758Y-108429976D01*
X134453177Y-108381313D01*
X134578196Y-108369000D01*
X134661804Y-108369000D01*
X134786823Y-108381313D01*
X134786823Y-108381313D01*
G37*
G36*
X150026823Y-108381313D02*
G01*
X150187242Y-108429976D01*
X150319906Y-108500886D01*
X150335078Y-108508996D01*
X150464659Y-108615341D01*
X150571004Y-108744922D01*
X150571005Y-108744924D01*
X150650024Y-108892758D01*
X150698687Y-109053177D01*
X150715117Y-109220000D01*
X150698687Y-109386823D01*
X150650024Y-109547242D01*
X150600978Y-109639000D01*
X150571004Y-109695078D01*
X150464659Y-109824659D01*
X150335078Y-109931004D01*
X150335076Y-109931005D01*
X150187242Y-110010024D01*
X150026823Y-110058687D01*
X149901804Y-110071000D01*
X149818196Y-110071000D01*
X149693177Y-110058687D01*
X149532758Y-110010024D01*
X149384924Y-109931005D01*
X149384922Y-109931004D01*
X149255341Y-109824659D01*
X149148996Y-109695078D01*
X149119022Y-109639000D01*
X149069976Y-109547242D01*
X149021313Y-109386823D01*
X149004883Y-109220000D01*
X149021313Y-109053177D01*
X149069976Y-108892758D01*
X149148995Y-108744924D01*
X149148996Y-108744922D01*
X149255341Y-108615341D01*
X149384922Y-108508996D01*
X149400094Y-108500886D01*
X149532758Y-108429976D01*
X149693177Y-108381313D01*
X149818196Y-108369000D01*
X149901804Y-108369000D01*
X150026823Y-108381313D01*
X150026823Y-108381313D01*
G37*
G36*
X113286000Y-109436000D02*
G01*
X111584000Y-109436000D01*
X111584000Y-107734000D01*
X113286000Y-107734000D01*
X113286000Y-109436000D01*
X113286000Y-109436000D01*
G37*
G36*
X115183228Y-107766703D02*
G01*
X115338100Y-107830853D01*
X115477481Y-107923985D01*
X115596015Y-108042519D01*
X115689147Y-108181900D01*
X115753297Y-108336772D01*
X115786000Y-108501184D01*
X115786000Y-108668816D01*
X115753297Y-108833228D01*
X115689147Y-108988100D01*
X115596015Y-109127481D01*
X115477481Y-109246015D01*
X115338100Y-109339147D01*
X115183228Y-109403297D01*
X115018816Y-109436000D01*
X114851184Y-109436000D01*
X114686772Y-109403297D01*
X114531900Y-109339147D01*
X114392519Y-109246015D01*
X114273985Y-109127481D01*
X114180853Y-108988100D01*
X114116703Y-108833228D01*
X114084000Y-108668816D01*
X114084000Y-108501184D01*
X114116703Y-108336772D01*
X114180853Y-108181900D01*
X114273985Y-108042519D01*
X114392519Y-107923985D01*
X114531900Y-107830853D01*
X114686772Y-107766703D01*
X114851184Y-107734000D01*
X115018816Y-107734000D01*
X115183228Y-107766703D01*
X115183228Y-107766703D01*
G37*
G36*
X130341823Y-107111313D02*
G01*
X130502242Y-107159976D01*
X130634906Y-107230886D01*
X130650078Y-107238996D01*
X130779659Y-107345341D01*
X130886004Y-107474922D01*
X130886005Y-107474924D01*
X130965024Y-107622758D01*
X131013687Y-107783177D01*
X131030117Y-107950000D01*
X131013687Y-108116823D01*
X130965024Y-108277242D01*
X130918881Y-108363569D01*
X130886004Y-108425078D01*
X130779659Y-108554659D01*
X130650078Y-108661004D01*
X130650076Y-108661005D01*
X130502242Y-108740024D01*
X130341823Y-108788687D01*
X130216804Y-108801000D01*
X130133196Y-108801000D01*
X130008177Y-108788687D01*
X129847758Y-108740024D01*
X129699924Y-108661005D01*
X129699922Y-108661004D01*
X129570341Y-108554659D01*
X129463996Y-108425078D01*
X129431119Y-108363569D01*
X129384976Y-108277242D01*
X129336313Y-108116823D01*
X129319883Y-107950000D01*
X129336313Y-107783177D01*
X129384976Y-107622758D01*
X129463995Y-107474924D01*
X129463996Y-107474922D01*
X129570341Y-107345341D01*
X129699922Y-107238996D01*
X129715094Y-107230886D01*
X129847758Y-107159976D01*
X130008177Y-107111313D01*
X130133196Y-107099000D01*
X130216804Y-107099000D01*
X130341823Y-107111313D01*
X130341823Y-107111313D01*
G37*
G36*
X122721823Y-107111313D02*
G01*
X122882242Y-107159976D01*
X123014906Y-107230886D01*
X123030078Y-107238996D01*
X123159659Y-107345341D01*
X123266004Y-107474922D01*
X123266005Y-107474924D01*
X123345024Y-107622758D01*
X123393687Y-107783177D01*
X123410117Y-107950000D01*
X123393687Y-108116823D01*
X123345024Y-108277242D01*
X123298881Y-108363569D01*
X123266004Y-108425078D01*
X123159659Y-108554659D01*
X123030078Y-108661004D01*
X123030076Y-108661005D01*
X122882242Y-108740024D01*
X122721823Y-108788687D01*
X122596804Y-108801000D01*
X122513196Y-108801000D01*
X122388177Y-108788687D01*
X122227758Y-108740024D01*
X122079924Y-108661005D01*
X122079922Y-108661004D01*
X121950341Y-108554659D01*
X121843996Y-108425078D01*
X121811119Y-108363569D01*
X121764976Y-108277242D01*
X121716313Y-108116823D01*
X121699883Y-107950000D01*
X121716313Y-107783177D01*
X121764976Y-107622758D01*
X121843995Y-107474924D01*
X121843996Y-107474922D01*
X121950341Y-107345341D01*
X122079922Y-107238996D01*
X122095094Y-107230886D01*
X122227758Y-107159976D01*
X122388177Y-107111313D01*
X122513196Y-107099000D01*
X122596804Y-107099000D01*
X122721823Y-107111313D01*
X122721823Y-107111313D01*
G37*
G36*
X127494591Y-107428085D02*
G01*
X127528569Y-107438393D01*
X127559890Y-107455134D01*
X127587339Y-107477661D01*
X127609866Y-107505110D01*
X127626607Y-107536431D01*
X127636915Y-107570409D01*
X127641000Y-107611890D01*
X127641000Y-108288110D01*
X127636915Y-108329591D01*
X127626607Y-108363569D01*
X127609866Y-108394890D01*
X127587339Y-108422339D01*
X127559890Y-108444866D01*
X127528569Y-108461607D01*
X127494591Y-108471915D01*
X127453110Y-108476000D01*
X126851890Y-108476000D01*
X126810409Y-108471915D01*
X126776431Y-108461607D01*
X126745110Y-108444866D01*
X126717661Y-108422339D01*
X126695134Y-108394890D01*
X126678393Y-108363569D01*
X126668085Y-108329591D01*
X126664000Y-108288110D01*
X126664000Y-107611890D01*
X126668085Y-107570409D01*
X126678393Y-107536431D01*
X126695134Y-107505110D01*
X126717661Y-107477661D01*
X126745110Y-107455134D01*
X126776431Y-107438393D01*
X126810409Y-107428085D01*
X126851890Y-107424000D01*
X127453110Y-107424000D01*
X127494591Y-107428085D01*
X127494591Y-107428085D01*
G37*
G36*
X125919591Y-107428085D02*
G01*
X125953569Y-107438393D01*
X125984890Y-107455134D01*
X126012339Y-107477661D01*
X126034866Y-107505110D01*
X126051607Y-107536431D01*
X126061915Y-107570409D01*
X126066000Y-107611890D01*
X126066000Y-108288110D01*
X126061915Y-108329591D01*
X126051607Y-108363569D01*
X126034866Y-108394890D01*
X126012339Y-108422339D01*
X125984890Y-108444866D01*
X125953569Y-108461607D01*
X125919591Y-108471915D01*
X125878110Y-108476000D01*
X125276890Y-108476000D01*
X125235409Y-108471915D01*
X125201431Y-108461607D01*
X125170110Y-108444866D01*
X125142661Y-108422339D01*
X125120134Y-108394890D01*
X125103393Y-108363569D01*
X125093085Y-108329591D01*
X125089000Y-108288110D01*
X125089000Y-107611890D01*
X125093085Y-107570409D01*
X125103393Y-107536431D01*
X125120134Y-107505110D01*
X125142661Y-107477661D01*
X125170110Y-107455134D01*
X125201431Y-107438393D01*
X125235409Y-107428085D01*
X125276890Y-107424000D01*
X125878110Y-107424000D01*
X125919591Y-107428085D01*
X125919591Y-107428085D01*
G37*
G36*
X150026823Y-105841313D02*
G01*
X150187242Y-105889976D01*
X150319906Y-105960886D01*
X150335078Y-105968996D01*
X150464659Y-106075341D01*
X150571004Y-106204922D01*
X150571005Y-106204924D01*
X150650024Y-106352758D01*
X150698687Y-106513177D01*
X150715117Y-106680000D01*
X150698687Y-106846823D01*
X150650024Y-107007242D01*
X150600978Y-107099000D01*
X150571004Y-107155078D01*
X150464659Y-107284659D01*
X150335078Y-107391004D01*
X150335076Y-107391005D01*
X150187242Y-107470024D01*
X150026823Y-107518687D01*
X149901804Y-107531000D01*
X149818196Y-107531000D01*
X149693177Y-107518687D01*
X149532758Y-107470024D01*
X149384924Y-107391005D01*
X149384922Y-107391004D01*
X149255341Y-107284659D01*
X149148996Y-107155078D01*
X149119022Y-107099000D01*
X149069976Y-107007242D01*
X149021313Y-106846823D01*
X149004883Y-106680000D01*
X149021313Y-106513177D01*
X149069976Y-106352758D01*
X149148995Y-106204924D01*
X149148996Y-106204922D01*
X149255341Y-106075341D01*
X149384922Y-105968996D01*
X149400094Y-105960886D01*
X149532758Y-105889976D01*
X149693177Y-105841313D01*
X149818196Y-105829000D01*
X149901804Y-105829000D01*
X150026823Y-105841313D01*
X150026823Y-105841313D01*
G37*
G36*
X134786823Y-105841313D02*
G01*
X134947242Y-105889976D01*
X135079906Y-105960886D01*
X135095078Y-105968996D01*
X135224659Y-106075341D01*
X135331004Y-106204922D01*
X135331005Y-106204924D01*
X135410024Y-106352758D01*
X135458687Y-106513177D01*
X135475117Y-106680000D01*
X135458687Y-106846823D01*
X135410024Y-107007242D01*
X135360978Y-107099000D01*
X135331004Y-107155078D01*
X135224659Y-107284659D01*
X135095078Y-107391004D01*
X135095076Y-107391005D01*
X134947242Y-107470024D01*
X134786823Y-107518687D01*
X134661804Y-107531000D01*
X134578196Y-107531000D01*
X134453177Y-107518687D01*
X134292758Y-107470024D01*
X134144924Y-107391005D01*
X134144922Y-107391004D01*
X134015341Y-107284659D01*
X133908996Y-107155078D01*
X133879022Y-107099000D01*
X133829976Y-107007242D01*
X133781313Y-106846823D01*
X133764883Y-106680000D01*
X133781313Y-106513177D01*
X133829976Y-106352758D01*
X133908995Y-106204924D01*
X133908996Y-106204922D01*
X134015341Y-106075341D01*
X134144922Y-105968996D01*
X134160094Y-105960886D01*
X134292758Y-105889976D01*
X134453177Y-105841313D01*
X134578196Y-105829000D01*
X134661804Y-105829000D01*
X134786823Y-105841313D01*
X134786823Y-105841313D01*
G37*
G36*
X157728600Y-105147989D02*
G01*
X157761652Y-105158015D01*
X157792103Y-105174292D01*
X157818799Y-105196201D01*
X157840708Y-105222897D01*
X157856985Y-105253348D01*
X157867011Y-105286400D01*
X157871000Y-105326903D01*
X157871000Y-106763097D01*
X157867011Y-106803600D01*
X157856985Y-106836652D01*
X157840708Y-106867103D01*
X157818799Y-106893799D01*
X157792103Y-106915708D01*
X157761652Y-106931985D01*
X157728600Y-106942011D01*
X157688097Y-106946000D01*
X156001903Y-106946000D01*
X155961400Y-106942011D01*
X155928348Y-106931985D01*
X155897897Y-106915708D01*
X155871201Y-106893799D01*
X155849292Y-106867103D01*
X155833015Y-106836652D01*
X155822989Y-106803600D01*
X155819000Y-106763097D01*
X155819000Y-105326903D01*
X155822989Y-105286400D01*
X155833015Y-105253348D01*
X155849292Y-105222897D01*
X155871201Y-105196201D01*
X155897897Y-105174292D01*
X155928348Y-105158015D01*
X155961400Y-105147989D01*
X156001903Y-105144000D01*
X157688097Y-105144000D01*
X157728600Y-105147989D01*
X157728600Y-105147989D01*
G37*
G36*
X122721823Y-104571313D02*
G01*
X122882242Y-104619976D01*
X123014906Y-104690886D01*
X123030078Y-104698996D01*
X123159659Y-104805341D01*
X123266004Y-104934922D01*
X123266005Y-104934924D01*
X123345024Y-105082758D01*
X123393687Y-105243177D01*
X123410117Y-105410000D01*
X123393687Y-105576823D01*
X123345024Y-105737242D01*
X123295978Y-105829000D01*
X123266004Y-105885078D01*
X123159659Y-106014659D01*
X123030078Y-106121004D01*
X123030076Y-106121005D01*
X122882242Y-106200024D01*
X122721823Y-106248687D01*
X122596804Y-106261000D01*
X122513196Y-106261000D01*
X122388177Y-106248687D01*
X122227758Y-106200024D01*
X122079924Y-106121005D01*
X122079922Y-106121004D01*
X121950341Y-106014659D01*
X121843996Y-105885078D01*
X121814022Y-105829000D01*
X121764976Y-105737242D01*
X121716313Y-105576823D01*
X121699883Y-105410000D01*
X121716313Y-105243177D01*
X121764976Y-105082758D01*
X121843995Y-104934924D01*
X121843996Y-104934922D01*
X121950341Y-104805341D01*
X122079922Y-104698996D01*
X122095094Y-104690886D01*
X122227758Y-104619976D01*
X122388177Y-104571313D01*
X122513196Y-104559000D01*
X122596804Y-104559000D01*
X122721823Y-104571313D01*
X122721823Y-104571313D01*
G37*
G36*
X130341823Y-104571313D02*
G01*
X130502242Y-104619976D01*
X130634906Y-104690886D01*
X130650078Y-104698996D01*
X130779659Y-104805341D01*
X130886004Y-104934922D01*
X130886005Y-104934924D01*
X130965024Y-105082758D01*
X131013687Y-105243177D01*
X131030117Y-105410000D01*
X131013687Y-105576823D01*
X130965024Y-105737242D01*
X130915978Y-105829000D01*
X130886004Y-105885078D01*
X130779659Y-106014659D01*
X130650078Y-106121004D01*
X130650076Y-106121005D01*
X130502242Y-106200024D01*
X130341823Y-106248687D01*
X130216804Y-106261000D01*
X130133196Y-106261000D01*
X130008177Y-106248687D01*
X129847758Y-106200024D01*
X129699924Y-106121005D01*
X129699922Y-106121004D01*
X129570341Y-106014659D01*
X129463996Y-105885078D01*
X129434022Y-105829000D01*
X129384976Y-105737242D01*
X129336313Y-105576823D01*
X129319883Y-105410000D01*
X129336313Y-105243177D01*
X129384976Y-105082758D01*
X129463995Y-104934924D01*
X129463996Y-104934922D01*
X129570341Y-104805341D01*
X129699922Y-104698996D01*
X129715094Y-104690886D01*
X129847758Y-104619976D01*
X130008177Y-104571313D01*
X130133196Y-104559000D01*
X130216804Y-104559000D01*
X130341823Y-104571313D01*
X130341823Y-104571313D01*
G37*
G36*
X134786823Y-103301313D02*
G01*
X134947242Y-103349976D01*
X135079906Y-103420886D01*
X135095078Y-103428996D01*
X135224659Y-103535341D01*
X135331004Y-103664922D01*
X135331005Y-103664924D01*
X135410024Y-103812758D01*
X135458687Y-103973177D01*
X135475117Y-104140000D01*
X135458687Y-104306823D01*
X135410024Y-104467242D01*
X135360978Y-104559000D01*
X135331004Y-104615078D01*
X135224659Y-104744659D01*
X135095078Y-104851004D01*
X135095076Y-104851005D01*
X134947242Y-104930024D01*
X134786823Y-104978687D01*
X134661804Y-104991000D01*
X134578196Y-104991000D01*
X134453177Y-104978687D01*
X134292758Y-104930024D01*
X134144924Y-104851005D01*
X134144922Y-104851004D01*
X134015341Y-104744659D01*
X133908996Y-104615078D01*
X133879022Y-104559000D01*
X133829976Y-104467242D01*
X133781313Y-104306823D01*
X133764883Y-104140000D01*
X133781313Y-103973177D01*
X133829976Y-103812758D01*
X133908995Y-103664924D01*
X133908996Y-103664922D01*
X134015341Y-103535341D01*
X134144922Y-103428996D01*
X134160094Y-103420886D01*
X134292758Y-103349976D01*
X134453177Y-103301313D01*
X134578196Y-103289000D01*
X134661804Y-103289000D01*
X134786823Y-103301313D01*
X134786823Y-103301313D01*
G37*
G36*
X150026823Y-103301313D02*
G01*
X150187242Y-103349976D01*
X150319906Y-103420886D01*
X150335078Y-103428996D01*
X150464659Y-103535341D01*
X150571004Y-103664922D01*
X150571005Y-103664924D01*
X150650024Y-103812758D01*
X150698687Y-103973177D01*
X150715117Y-104140000D01*
X150698687Y-104306823D01*
X150650024Y-104467242D01*
X150600978Y-104559000D01*
X150571004Y-104615078D01*
X150464659Y-104744659D01*
X150335078Y-104851004D01*
X150335076Y-104851005D01*
X150187242Y-104930024D01*
X150026823Y-104978687D01*
X149901804Y-104991000D01*
X149818196Y-104991000D01*
X149693177Y-104978687D01*
X149532758Y-104930024D01*
X149384924Y-104851005D01*
X149384922Y-104851004D01*
X149255341Y-104744659D01*
X149148996Y-104615078D01*
X149119022Y-104559000D01*
X149069976Y-104467242D01*
X149021313Y-104306823D01*
X149004883Y-104140000D01*
X149021313Y-103973177D01*
X149069976Y-103812758D01*
X149148995Y-103664924D01*
X149148996Y-103664922D01*
X149255341Y-103535341D01*
X149384922Y-103428996D01*
X149400094Y-103420886D01*
X149532758Y-103349976D01*
X149693177Y-103301313D01*
X149818196Y-103289000D01*
X149901804Y-103289000D01*
X150026823Y-103301313D01*
X150026823Y-103301313D01*
G37*
G36*
X157080442Y-102650518D02*
G01*
X157146627Y-102657037D01*
X157316466Y-102708557D01*
X157472991Y-102792222D01*
X157508729Y-102821552D01*
X157610186Y-102904814D01*
X157693448Y-103006271D01*
X157722778Y-103042009D01*
X157806443Y-103198534D01*
X157857963Y-103368373D01*
X157875359Y-103545000D01*
X157857963Y-103721627D01*
X157806443Y-103891466D01*
X157722778Y-104047991D01*
X157693448Y-104083729D01*
X157610186Y-104185186D01*
X157508729Y-104268448D01*
X157472991Y-104297778D01*
X157316466Y-104381443D01*
X157146627Y-104432963D01*
X157080443Y-104439481D01*
X157014260Y-104446000D01*
X156675740Y-104446000D01*
X156609557Y-104439481D01*
X156543373Y-104432963D01*
X156373534Y-104381443D01*
X156217009Y-104297778D01*
X156181271Y-104268448D01*
X156079814Y-104185186D01*
X155996552Y-104083729D01*
X155967222Y-104047991D01*
X155883557Y-103891466D01*
X155832037Y-103721627D01*
X155814641Y-103545000D01*
X155832037Y-103368373D01*
X155883557Y-103198534D01*
X155967222Y-103042009D01*
X155996552Y-103006271D01*
X156079814Y-102904814D01*
X156181271Y-102821552D01*
X156217009Y-102792222D01*
X156373534Y-102708557D01*
X156543373Y-102657037D01*
X156609558Y-102650518D01*
X156675740Y-102644000D01*
X157014260Y-102644000D01*
X157080442Y-102650518D01*
X157080442Y-102650518D01*
G37*
G36*
X150026823Y-100761313D02*
G01*
X150187242Y-100809976D01*
X150296495Y-100868373D01*
X150335078Y-100888996D01*
X150464659Y-100995341D01*
X150571004Y-101124922D01*
X150571005Y-101124924D01*
X150650024Y-101272758D01*
X150698687Y-101433177D01*
X150715117Y-101600000D01*
X150698687Y-101766823D01*
X150650024Y-101927242D01*
X150579114Y-102059906D01*
X150571004Y-102075078D01*
X150464659Y-102204659D01*
X150335078Y-102311004D01*
X150335076Y-102311005D01*
X150187242Y-102390024D01*
X150026823Y-102438687D01*
X149901804Y-102451000D01*
X149818196Y-102451000D01*
X149693177Y-102438687D01*
X149532758Y-102390024D01*
X149384924Y-102311005D01*
X149384922Y-102311004D01*
X149255341Y-102204659D01*
X149148996Y-102075078D01*
X149140886Y-102059906D01*
X149069976Y-101927242D01*
X149021313Y-101766823D01*
X149004883Y-101600000D01*
X149021313Y-101433177D01*
X149069976Y-101272758D01*
X149148995Y-101124924D01*
X149148996Y-101124922D01*
X149255341Y-100995341D01*
X149384922Y-100888996D01*
X149423505Y-100868373D01*
X149532758Y-100809976D01*
X149693177Y-100761313D01*
X149818196Y-100749000D01*
X149901804Y-100749000D01*
X150026823Y-100761313D01*
X150026823Y-100761313D01*
G37*
G36*
X134786823Y-100761313D02*
G01*
X134947242Y-100809976D01*
X135056495Y-100868373D01*
X135095078Y-100888996D01*
X135224659Y-100995341D01*
X135331004Y-101124922D01*
X135331005Y-101124924D01*
X135410024Y-101272758D01*
X135458687Y-101433177D01*
X135475117Y-101600000D01*
X135458687Y-101766823D01*
X135410024Y-101927242D01*
X135339114Y-102059906D01*
X135331004Y-102075078D01*
X135224659Y-102204659D01*
X135095078Y-102311004D01*
X135095076Y-102311005D01*
X134947242Y-102390024D01*
X134786823Y-102438687D01*
X134661804Y-102451000D01*
X134578196Y-102451000D01*
X134453177Y-102438687D01*
X134292758Y-102390024D01*
X134144924Y-102311005D01*
X134144922Y-102311004D01*
X134015341Y-102204659D01*
X133908996Y-102075078D01*
X133900886Y-102059906D01*
X133829976Y-101927242D01*
X133781313Y-101766823D01*
X133764883Y-101600000D01*
X133781313Y-101433177D01*
X133829976Y-101272758D01*
X133908995Y-101124924D01*
X133908996Y-101124922D01*
X134015341Y-100995341D01*
X134144922Y-100888996D01*
X134183505Y-100868373D01*
X134292758Y-100809976D01*
X134453177Y-100761313D01*
X134578196Y-100749000D01*
X134661804Y-100749000D01*
X134786823Y-100761313D01*
X134786823Y-100761313D01*
G37*
G36*
X157080442Y-100150518D02*
G01*
X157146627Y-100157037D01*
X157316466Y-100208557D01*
X157472991Y-100292222D01*
X157503400Y-100317178D01*
X157610186Y-100404814D01*
X157659758Y-100465219D01*
X157722778Y-100542009D01*
X157806443Y-100698534D01*
X157857963Y-100868373D01*
X157875359Y-101045000D01*
X157857963Y-101221627D01*
X157806443Y-101391466D01*
X157722778Y-101547991D01*
X157693448Y-101583729D01*
X157610186Y-101685186D01*
X157510710Y-101766823D01*
X157472991Y-101797778D01*
X157316466Y-101881443D01*
X157146627Y-101932963D01*
X157080442Y-101939482D01*
X157014260Y-101946000D01*
X156675740Y-101946000D01*
X156609558Y-101939482D01*
X156543373Y-101932963D01*
X156373534Y-101881443D01*
X156217009Y-101797778D01*
X156179290Y-101766823D01*
X156079814Y-101685186D01*
X155996552Y-101583729D01*
X155967222Y-101547991D01*
X155883557Y-101391466D01*
X155832037Y-101221627D01*
X155814641Y-101045000D01*
X155832037Y-100868373D01*
X155883557Y-100698534D01*
X155967222Y-100542009D01*
X156030242Y-100465219D01*
X156079814Y-100404814D01*
X156186600Y-100317178D01*
X156217009Y-100292222D01*
X156373534Y-100208557D01*
X156543373Y-100157037D01*
X156609558Y-100150518D01*
X156675740Y-100144000D01*
X157014260Y-100144000D01*
X157080442Y-100150518D01*
X157080442Y-100150518D01*
G37*
G36*
X113898642Y-98924781D02*
G01*
X114044414Y-98985162D01*
X114044416Y-98985163D01*
X114175608Y-99072822D01*
X114287178Y-99184392D01*
X114362940Y-99297779D01*
X114374838Y-99315586D01*
X114435219Y-99461358D01*
X114466000Y-99616107D01*
X114466000Y-99773893D01*
X114435219Y-99928642D01*
X114374838Y-100074414D01*
X114374837Y-100074416D01*
X114287178Y-100205608D01*
X114175608Y-100317178D01*
X114044416Y-100404837D01*
X114044415Y-100404838D01*
X114044414Y-100404838D01*
X113898642Y-100465219D01*
X113743893Y-100496000D01*
X113586107Y-100496000D01*
X113431358Y-100465219D01*
X113285586Y-100404838D01*
X113285585Y-100404838D01*
X113285584Y-100404837D01*
X113154392Y-100317178D01*
X113042822Y-100205608D01*
X112955163Y-100074416D01*
X112955162Y-100074414D01*
X112894781Y-99928642D01*
X112864000Y-99773893D01*
X112864000Y-99616107D01*
X112894781Y-99461358D01*
X112955162Y-99315586D01*
X112967060Y-99297779D01*
X113042822Y-99184392D01*
X113154392Y-99072822D01*
X113285584Y-98985163D01*
X113285586Y-98985162D01*
X113431358Y-98924781D01*
X113586107Y-98894000D01*
X113743893Y-98894000D01*
X113898642Y-98924781D01*
X113898642Y-98924781D01*
G37*
G36*
X111358642Y-98924781D02*
G01*
X111504414Y-98985162D01*
X111504416Y-98985163D01*
X111635608Y-99072822D01*
X111747178Y-99184392D01*
X111822940Y-99297779D01*
X111834838Y-99315586D01*
X111895219Y-99461358D01*
X111926000Y-99616107D01*
X111926000Y-99773893D01*
X111895219Y-99928642D01*
X111834838Y-100074414D01*
X111834837Y-100074416D01*
X111747178Y-100205608D01*
X111635608Y-100317178D01*
X111504416Y-100404837D01*
X111504415Y-100404838D01*
X111504414Y-100404838D01*
X111358642Y-100465219D01*
X111203893Y-100496000D01*
X111046107Y-100496000D01*
X110891358Y-100465219D01*
X110745586Y-100404838D01*
X110745585Y-100404838D01*
X110745584Y-100404837D01*
X110614392Y-100317178D01*
X110502822Y-100205608D01*
X110415163Y-100074416D01*
X110415162Y-100074414D01*
X110354781Y-99928642D01*
X110324000Y-99773893D01*
X110324000Y-99616107D01*
X110354781Y-99461358D01*
X110415162Y-99315586D01*
X110427060Y-99297779D01*
X110502822Y-99184392D01*
X110614392Y-99072822D01*
X110745584Y-98985163D01*
X110745586Y-98985162D01*
X110891358Y-98924781D01*
X111046107Y-98894000D01*
X111203893Y-98894000D01*
X111358642Y-98924781D01*
X111358642Y-98924781D01*
G37*
G36*
X116438642Y-98924781D02*
G01*
X116584414Y-98985162D01*
X116584416Y-98985163D01*
X116715608Y-99072822D01*
X116827178Y-99184392D01*
X116902940Y-99297779D01*
X116914838Y-99315586D01*
X116975219Y-99461358D01*
X117006000Y-99616107D01*
X117006000Y-99773893D01*
X116975219Y-99928642D01*
X116914838Y-100074414D01*
X116914837Y-100074416D01*
X116827178Y-100205608D01*
X116715608Y-100317178D01*
X116584416Y-100404837D01*
X116584415Y-100404838D01*
X116584414Y-100404838D01*
X116438642Y-100465219D01*
X116283893Y-100496000D01*
X116126107Y-100496000D01*
X115971358Y-100465219D01*
X115825586Y-100404838D01*
X115825585Y-100404838D01*
X115825584Y-100404837D01*
X115694392Y-100317178D01*
X115582822Y-100205608D01*
X115495163Y-100074416D01*
X115495162Y-100074414D01*
X115434781Y-99928642D01*
X115404000Y-99773893D01*
X115404000Y-99616107D01*
X115434781Y-99461358D01*
X115495162Y-99315586D01*
X115507060Y-99297779D01*
X115582822Y-99184392D01*
X115694392Y-99072822D01*
X115825584Y-98985163D01*
X115825586Y-98985162D01*
X115971358Y-98924781D01*
X116126107Y-98894000D01*
X116283893Y-98894000D01*
X116438642Y-98924781D01*
X116438642Y-98924781D01*
G37*
G36*
X134786823Y-98221313D02*
G01*
X134947242Y-98269976D01*
X135079906Y-98340886D01*
X135095078Y-98348996D01*
X135224659Y-98455341D01*
X135331004Y-98584922D01*
X135331005Y-98584924D01*
X135410024Y-98732758D01*
X135458687Y-98893177D01*
X135475117Y-99060000D01*
X135458687Y-99226823D01*
X135410024Y-99387242D01*
X135370408Y-99461358D01*
X135331004Y-99535078D01*
X135224659Y-99664659D01*
X135095078Y-99771004D01*
X135095076Y-99771005D01*
X134947242Y-99850024D01*
X134786823Y-99898687D01*
X134661804Y-99911000D01*
X134578196Y-99911000D01*
X134453177Y-99898687D01*
X134292758Y-99850024D01*
X134144924Y-99771005D01*
X134144922Y-99771004D01*
X134015341Y-99664659D01*
X133908996Y-99535078D01*
X133869592Y-99461358D01*
X133829976Y-99387242D01*
X133781313Y-99226823D01*
X133764883Y-99060000D01*
X133781313Y-98893177D01*
X133829976Y-98732758D01*
X133908995Y-98584924D01*
X133908996Y-98584922D01*
X134015341Y-98455341D01*
X134144922Y-98348996D01*
X134160094Y-98340886D01*
X134292758Y-98269976D01*
X134453177Y-98221313D01*
X134578196Y-98209000D01*
X134661804Y-98209000D01*
X134786823Y-98221313D01*
X134786823Y-98221313D01*
G37*
G36*
X150026823Y-98221313D02*
G01*
X150187242Y-98269976D01*
X150319906Y-98340886D01*
X150335078Y-98348996D01*
X150464659Y-98455341D01*
X150571004Y-98584922D01*
X150571005Y-98584924D01*
X150650024Y-98732758D01*
X150698687Y-98893177D01*
X150715117Y-99060000D01*
X150698687Y-99226823D01*
X150650024Y-99387242D01*
X150610408Y-99461358D01*
X150571004Y-99535078D01*
X150464659Y-99664659D01*
X150335078Y-99771004D01*
X150335076Y-99771005D01*
X150187242Y-99850024D01*
X150026823Y-99898687D01*
X149901804Y-99911000D01*
X149818196Y-99911000D01*
X149693177Y-99898687D01*
X149532758Y-99850024D01*
X149384924Y-99771005D01*
X149384922Y-99771004D01*
X149255341Y-99664659D01*
X149148996Y-99535078D01*
X149109592Y-99461358D01*
X149069976Y-99387242D01*
X149021313Y-99226823D01*
X149004883Y-99060000D01*
X149021313Y-98893177D01*
X149069976Y-98732758D01*
X149148995Y-98584924D01*
X149148996Y-98584922D01*
X149255341Y-98455341D01*
X149384922Y-98348996D01*
X149400094Y-98340886D01*
X149532758Y-98269976D01*
X149693177Y-98221313D01*
X149818196Y-98209000D01*
X149901804Y-98209000D01*
X150026823Y-98221313D01*
X150026823Y-98221313D01*
G37*
G36*
X157080443Y-97650519D02*
G01*
X157146627Y-97657037D01*
X157316466Y-97708557D01*
X157472991Y-97792222D01*
X157508729Y-97821552D01*
X157610186Y-97904814D01*
X157687097Y-97998532D01*
X157722778Y-98042009D01*
X157722779Y-98042011D01*
X157790322Y-98168373D01*
X157806443Y-98198534D01*
X157857963Y-98368373D01*
X157875359Y-98545000D01*
X157857963Y-98721627D01*
X157819631Y-98847991D01*
X157806442Y-98891468D01*
X157805089Y-98894000D01*
X157722778Y-99047991D01*
X157693448Y-99083729D01*
X157610186Y-99185186D01*
X157508729Y-99268448D01*
X157472991Y-99297778D01*
X157316466Y-99381443D01*
X157146627Y-99432963D01*
X157080442Y-99439482D01*
X157014260Y-99446000D01*
X156675740Y-99446000D01*
X156609557Y-99439481D01*
X156543373Y-99432963D01*
X156373534Y-99381443D01*
X156217009Y-99297778D01*
X156181271Y-99268448D01*
X156079814Y-99185186D01*
X155996552Y-99083729D01*
X155967222Y-99047991D01*
X155884911Y-98894000D01*
X155883558Y-98891468D01*
X155870369Y-98847991D01*
X155832037Y-98721627D01*
X155814641Y-98545000D01*
X155832037Y-98368373D01*
X155883557Y-98198534D01*
X155899679Y-98168373D01*
X155967221Y-98042011D01*
X155967222Y-98042009D01*
X156002903Y-97998532D01*
X156079814Y-97904814D01*
X156181271Y-97821552D01*
X156217009Y-97792222D01*
X156373534Y-97708557D01*
X156543373Y-97657037D01*
X156609557Y-97650519D01*
X156675740Y-97644000D01*
X157014260Y-97644000D01*
X157080443Y-97650519D01*
X157080443Y-97650519D01*
G37*
G36*
X128505442Y-97450518D02*
G01*
X128571627Y-97457037D01*
X128741466Y-97508557D01*
X128897991Y-97592222D01*
X128933729Y-97621552D01*
X129035186Y-97704814D01*
X129106918Y-97792221D01*
X129147778Y-97842009D01*
X129231443Y-97998534D01*
X129282963Y-98168373D01*
X129300359Y-98345000D01*
X129282963Y-98521627D01*
X129263762Y-98584924D01*
X129231442Y-98691468D01*
X129209372Y-98732758D01*
X129147778Y-98847991D01*
X129118448Y-98883729D01*
X129035186Y-98985186D01*
X128933729Y-99068448D01*
X128897991Y-99097778D01*
X128741466Y-99181443D01*
X128571627Y-99232963D01*
X128505443Y-99239481D01*
X128439260Y-99246000D01*
X128100740Y-99246000D01*
X128034557Y-99239481D01*
X127968373Y-99232963D01*
X127798534Y-99181443D01*
X127642009Y-99097778D01*
X127606271Y-99068448D01*
X127504814Y-98985186D01*
X127421552Y-98883729D01*
X127392222Y-98847991D01*
X127330628Y-98732758D01*
X127308558Y-98691468D01*
X127276238Y-98584924D01*
X127257037Y-98521627D01*
X127239641Y-98345000D01*
X127257037Y-98168373D01*
X127308557Y-97998534D01*
X127392222Y-97842009D01*
X127433082Y-97792221D01*
X127504814Y-97704814D01*
X127606271Y-97621552D01*
X127642009Y-97592222D01*
X127798534Y-97508557D01*
X127968373Y-97457037D01*
X128034558Y-97450518D01*
X128100740Y-97444000D01*
X128439260Y-97444000D01*
X128505442Y-97450518D01*
X128505442Y-97450518D01*
G37*
G36*
X150026823Y-95681313D02*
G01*
X150187242Y-95729976D01*
X150319906Y-95800886D01*
X150335078Y-95808996D01*
X150464659Y-95915341D01*
X150571004Y-96044922D01*
X150571005Y-96044924D01*
X150650024Y-96192758D01*
X150698687Y-96353177D01*
X150715117Y-96520000D01*
X150698687Y-96686823D01*
X150650024Y-96847242D01*
X150579114Y-96979906D01*
X150571004Y-96995078D01*
X150464659Y-97124659D01*
X150335078Y-97231004D01*
X150335076Y-97231005D01*
X150187242Y-97310024D01*
X150026823Y-97358687D01*
X149901804Y-97371000D01*
X149818196Y-97371000D01*
X149693177Y-97358687D01*
X149532758Y-97310024D01*
X149384924Y-97231005D01*
X149384922Y-97231004D01*
X149255341Y-97124659D01*
X149148996Y-96995078D01*
X149140886Y-96979906D01*
X149069976Y-96847242D01*
X149021313Y-96686823D01*
X149004883Y-96520000D01*
X149021313Y-96353177D01*
X149069976Y-96192758D01*
X149148995Y-96044924D01*
X149148996Y-96044922D01*
X149255341Y-95915341D01*
X149384922Y-95808996D01*
X149400094Y-95800886D01*
X149532758Y-95729976D01*
X149693177Y-95681313D01*
X149818196Y-95669000D01*
X149901804Y-95669000D01*
X150026823Y-95681313D01*
X150026823Y-95681313D01*
G37*
G36*
X134786823Y-95681313D02*
G01*
X134947242Y-95729976D01*
X135079906Y-95800886D01*
X135095078Y-95808996D01*
X135224659Y-95915341D01*
X135331004Y-96044922D01*
X135331005Y-96044924D01*
X135410024Y-96192758D01*
X135458687Y-96353177D01*
X135475117Y-96520000D01*
X135458687Y-96686823D01*
X135410024Y-96847242D01*
X135339114Y-96979906D01*
X135331004Y-96995078D01*
X135224659Y-97124659D01*
X135095078Y-97231004D01*
X135095076Y-97231005D01*
X134947242Y-97310024D01*
X134786823Y-97358687D01*
X134661804Y-97371000D01*
X134578196Y-97371000D01*
X134453177Y-97358687D01*
X134292758Y-97310024D01*
X134144924Y-97231005D01*
X134144922Y-97231004D01*
X134015341Y-97124659D01*
X133908996Y-96995078D01*
X133900886Y-96979906D01*
X133829976Y-96847242D01*
X133781313Y-96686823D01*
X133764883Y-96520000D01*
X133781313Y-96353177D01*
X133829976Y-96192758D01*
X133908995Y-96044924D01*
X133908996Y-96044922D01*
X134015341Y-95915341D01*
X134144922Y-95808996D01*
X134160094Y-95800886D01*
X134292758Y-95729976D01*
X134453177Y-95681313D01*
X134578196Y-95669000D01*
X134661804Y-95669000D01*
X134786823Y-95681313D01*
X134786823Y-95681313D01*
G37*
G36*
X128505442Y-94950518D02*
G01*
X128571627Y-94957037D01*
X128741466Y-95008557D01*
X128897991Y-95092222D01*
X128933729Y-95121552D01*
X129035186Y-95204814D01*
X129118448Y-95306271D01*
X129147778Y-95342009D01*
X129231443Y-95498534D01*
X129282963Y-95668373D01*
X129300359Y-95845000D01*
X129282963Y-96021627D01*
X129231443Y-96191466D01*
X129147778Y-96347991D01*
X129118448Y-96383729D01*
X129035186Y-96485186D01*
X128933729Y-96568448D01*
X128897991Y-96597778D01*
X128741466Y-96681443D01*
X128571627Y-96732963D01*
X128505443Y-96739481D01*
X128439260Y-96746000D01*
X128100740Y-96746000D01*
X128034557Y-96739481D01*
X127968373Y-96732963D01*
X127798534Y-96681443D01*
X127642009Y-96597778D01*
X127606271Y-96568448D01*
X127504814Y-96485186D01*
X127421552Y-96383729D01*
X127392222Y-96347991D01*
X127308557Y-96191466D01*
X127257037Y-96021627D01*
X127239641Y-95845000D01*
X127257037Y-95668373D01*
X127308557Y-95498534D01*
X127392222Y-95342009D01*
X127421552Y-95306271D01*
X127504814Y-95204814D01*
X127606271Y-95121552D01*
X127642009Y-95092222D01*
X127798534Y-95008557D01*
X127968373Y-94957037D01*
X128034558Y-94950518D01*
X128100740Y-94944000D01*
X128439260Y-94944000D01*
X128505442Y-94950518D01*
X128505442Y-94950518D01*
G37*
G36*
X150026823Y-93141313D02*
G01*
X150187242Y-93189976D01*
X150319906Y-93260886D01*
X150335078Y-93268996D01*
X150464659Y-93375341D01*
X150571004Y-93504922D01*
X150571005Y-93504924D01*
X150650024Y-93652758D01*
X150698687Y-93813177D01*
X150715117Y-93980000D01*
X150698687Y-94146823D01*
X150650024Y-94307242D01*
X150579114Y-94439906D01*
X150571004Y-94455078D01*
X150464659Y-94584659D01*
X150335078Y-94691004D01*
X150335076Y-94691005D01*
X150187242Y-94770024D01*
X150026823Y-94818687D01*
X149901804Y-94831000D01*
X149818196Y-94831000D01*
X149693177Y-94818687D01*
X149532758Y-94770024D01*
X149384924Y-94691005D01*
X149384922Y-94691004D01*
X149255341Y-94584659D01*
X149148996Y-94455078D01*
X149140886Y-94439906D01*
X149069976Y-94307242D01*
X149021313Y-94146823D01*
X149004883Y-93980000D01*
X149021313Y-93813177D01*
X149069976Y-93652758D01*
X149148995Y-93504924D01*
X149148996Y-93504922D01*
X149255341Y-93375341D01*
X149384922Y-93268996D01*
X149400094Y-93260886D01*
X149532758Y-93189976D01*
X149693177Y-93141313D01*
X149818196Y-93129000D01*
X149901804Y-93129000D01*
X150026823Y-93141313D01*
X150026823Y-93141313D01*
G37*
G36*
X134786823Y-93141313D02*
G01*
X134947242Y-93189976D01*
X135079906Y-93260886D01*
X135095078Y-93268996D01*
X135224659Y-93375341D01*
X135331004Y-93504922D01*
X135331005Y-93504924D01*
X135410024Y-93652758D01*
X135458687Y-93813177D01*
X135475117Y-93980000D01*
X135458687Y-94146823D01*
X135410024Y-94307242D01*
X135339114Y-94439906D01*
X135331004Y-94455078D01*
X135224659Y-94584659D01*
X135095078Y-94691004D01*
X135095076Y-94691005D01*
X134947242Y-94770024D01*
X134786823Y-94818687D01*
X134661804Y-94831000D01*
X134578196Y-94831000D01*
X134453177Y-94818687D01*
X134292758Y-94770024D01*
X134144924Y-94691005D01*
X134144922Y-94691004D01*
X134015341Y-94584659D01*
X133908996Y-94455078D01*
X133900886Y-94439906D01*
X133829976Y-94307242D01*
X133781313Y-94146823D01*
X133764883Y-93980000D01*
X133781313Y-93813177D01*
X133829976Y-93652758D01*
X133908995Y-93504924D01*
X133908996Y-93504922D01*
X134015341Y-93375341D01*
X134144922Y-93268996D01*
X134160094Y-93260886D01*
X134292758Y-93189976D01*
X134453177Y-93141313D01*
X134578196Y-93129000D01*
X134661804Y-93129000D01*
X134786823Y-93141313D01*
X134786823Y-93141313D01*
G37*
G36*
X128505443Y-92450519D02*
G01*
X128571627Y-92457037D01*
X128741466Y-92508557D01*
X128897991Y-92592222D01*
X128933729Y-92621552D01*
X129035186Y-92704814D01*
X129118448Y-92806271D01*
X129147778Y-92842009D01*
X129231443Y-92998534D01*
X129282963Y-93168373D01*
X129300359Y-93345000D01*
X129282963Y-93521627D01*
X129231443Y-93691466D01*
X129147778Y-93847991D01*
X129118448Y-93883729D01*
X129035186Y-93985186D01*
X128933729Y-94068448D01*
X128897991Y-94097778D01*
X128741466Y-94181443D01*
X128571627Y-94232963D01*
X128505443Y-94239481D01*
X128439260Y-94246000D01*
X128100740Y-94246000D01*
X128034557Y-94239481D01*
X127968373Y-94232963D01*
X127798534Y-94181443D01*
X127642009Y-94097778D01*
X127606271Y-94068448D01*
X127504814Y-93985186D01*
X127421552Y-93883729D01*
X127392222Y-93847991D01*
X127308557Y-93691466D01*
X127257037Y-93521627D01*
X127239641Y-93345000D01*
X127257037Y-93168373D01*
X127308557Y-92998534D01*
X127392222Y-92842009D01*
X127421552Y-92806271D01*
X127504814Y-92704814D01*
X127606271Y-92621552D01*
X127642009Y-92592222D01*
X127798534Y-92508557D01*
X127968373Y-92457037D01*
X128034557Y-92450519D01*
X128100740Y-92444000D01*
X128439260Y-92444000D01*
X128505443Y-92450519D01*
X128505443Y-92450519D01*
G37*
G36*
X120786626Y-90402037D02*
G01*
X120956465Y-90453557D01*
X120956467Y-90453558D01*
X121112989Y-90537221D01*
X121250186Y-90649814D01*
X121315167Y-90728995D01*
X121362778Y-90787009D01*
X121446443Y-90943534D01*
X121497963Y-91113373D01*
X121511000Y-91245742D01*
X121511000Y-91634257D01*
X121497963Y-91766626D01*
X121446443Y-91936466D01*
X121362778Y-92092991D01*
X121333448Y-92128729D01*
X121250186Y-92230186D01*
X121155250Y-92308097D01*
X121112991Y-92342778D01*
X120956466Y-92426443D01*
X120786627Y-92477963D01*
X120610000Y-92495359D01*
X120433374Y-92477963D01*
X120263535Y-92426443D01*
X120107010Y-92342778D01*
X119969815Y-92230185D01*
X119857222Y-92092991D01*
X119773557Y-91936466D01*
X119722037Y-91766627D01*
X119709000Y-91634258D01*
X119709000Y-91245743D01*
X119722037Y-91113374D01*
X119773557Y-90943535D01*
X119857222Y-90787010D01*
X119857223Y-90787009D01*
X119969814Y-90649814D01*
X120071271Y-90566552D01*
X120107009Y-90537222D01*
X120263534Y-90453557D01*
X120433373Y-90402037D01*
X120610000Y-90384641D01*
X120786626Y-90402037D01*
X120786626Y-90402037D01*
G37*
G36*
X118868600Y-90392989D02*
G01*
X118901652Y-90403015D01*
X118932103Y-90419292D01*
X118958799Y-90441201D01*
X118980708Y-90467897D01*
X118996985Y-90498348D01*
X119007011Y-90531400D01*
X119011000Y-90571903D01*
X119011000Y-92308097D01*
X119007011Y-92348600D01*
X118996985Y-92381652D01*
X118980708Y-92412103D01*
X118958799Y-92438799D01*
X118932103Y-92460708D01*
X118901652Y-92476985D01*
X118868600Y-92487011D01*
X118828097Y-92491000D01*
X117391903Y-92491000D01*
X117351400Y-92487011D01*
X117318348Y-92476985D01*
X117287897Y-92460708D01*
X117261201Y-92438799D01*
X117239292Y-92412103D01*
X117223015Y-92381652D01*
X117212989Y-92348600D01*
X117209000Y-92308097D01*
X117209000Y-90571903D01*
X117212989Y-90531400D01*
X117223015Y-90498348D01*
X117239292Y-90467897D01*
X117261201Y-90441201D01*
X117287897Y-90419292D01*
X117318348Y-90403015D01*
X117351400Y-90392989D01*
X117391903Y-90389000D01*
X118828097Y-90389000D01*
X118868600Y-90392989D01*
X118868600Y-90392989D01*
G37*
G36*
X150026823Y-90601313D02*
G01*
X150157380Y-90640917D01*
X150186712Y-90649815D01*
X150187242Y-90649976D01*
X150272095Y-90695331D01*
X150335078Y-90728996D01*
X150464659Y-90835341D01*
X150571004Y-90964922D01*
X150571005Y-90964924D01*
X150650024Y-91112758D01*
X150650025Y-91112761D01*
X150659083Y-91142620D01*
X150698687Y-91273177D01*
X150715117Y-91440000D01*
X150698687Y-91606823D01*
X150690364Y-91634259D01*
X150650212Y-91766624D01*
X150650024Y-91767242D01*
X150579114Y-91899906D01*
X150571004Y-91915078D01*
X150464659Y-92044659D01*
X150335078Y-92151004D01*
X150335076Y-92151005D01*
X150187242Y-92230024D01*
X150187239Y-92230025D01*
X150186708Y-92230186D01*
X150026823Y-92278687D01*
X149901804Y-92291000D01*
X149818196Y-92291000D01*
X149693177Y-92278687D01*
X149533292Y-92230186D01*
X149532761Y-92230025D01*
X149532758Y-92230024D01*
X149384924Y-92151005D01*
X149384922Y-92151004D01*
X149255341Y-92044659D01*
X149148996Y-91915078D01*
X149140886Y-91899906D01*
X149069976Y-91767242D01*
X149069789Y-91766624D01*
X149029636Y-91634259D01*
X149021313Y-91606823D01*
X149004883Y-91440000D01*
X149021313Y-91273177D01*
X149060917Y-91142620D01*
X149069975Y-91112761D01*
X149069976Y-91112758D01*
X149148995Y-90964924D01*
X149148996Y-90964922D01*
X149255341Y-90835341D01*
X149384922Y-90728996D01*
X149447905Y-90695331D01*
X149532758Y-90649976D01*
X149533289Y-90649815D01*
X149562620Y-90640917D01*
X149693177Y-90601313D01*
X149818196Y-90589000D01*
X149901804Y-90589000D01*
X150026823Y-90601313D01*
X150026823Y-90601313D01*
G37*
G36*
X135471000Y-92291000D02*
G01*
X133769000Y-92291000D01*
X133769000Y-90589000D01*
X135471000Y-90589000D01*
X135471000Y-92291000D01*
X135471000Y-92291000D01*
G37*
G36*
X111650331Y-88438211D02*
G01*
X111978092Y-88573974D01*
X112273070Y-88771072D01*
X112523928Y-89021930D01*
X112721026Y-89316908D01*
X112856789Y-89644669D01*
X112926000Y-89992616D01*
X112926000Y-90347384D01*
X112856789Y-90695331D01*
X112721026Y-91023092D01*
X112523928Y-91318070D01*
X112273070Y-91568928D01*
X111978092Y-91766026D01*
X111650331Y-91901789D01*
X111302384Y-91971000D01*
X110947616Y-91971000D01*
X110599669Y-91901789D01*
X110271908Y-91766026D01*
X109976930Y-91568928D01*
X109726072Y-91318070D01*
X109528974Y-91023092D01*
X109393211Y-90695331D01*
X109324000Y-90347384D01*
X109324000Y-89992616D01*
X109393211Y-89644669D01*
X109528974Y-89316908D01*
X109726072Y-89021930D01*
X109976930Y-88771072D01*
X110271908Y-88573974D01*
X110599669Y-88438211D01*
X110947616Y-88369000D01*
X111302384Y-88369000D01*
X111650331Y-88438211D01*
X111650331Y-88438211D01*
G37*
G36*
X158640331Y-88438211D02*
G01*
X158968092Y-88573974D01*
X159263070Y-88771072D01*
X159513928Y-89021930D01*
X159711026Y-89316908D01*
X159846789Y-89644669D01*
X159916000Y-89992616D01*
X159916000Y-90347384D01*
X159846789Y-90695331D01*
X159711026Y-91023092D01*
X159513928Y-91318070D01*
X159263070Y-91568928D01*
X158968092Y-91766026D01*
X158640331Y-91901789D01*
X158292384Y-91971000D01*
X157937616Y-91971000D01*
X157589669Y-91901789D01*
X157261908Y-91766026D01*
X156966930Y-91568928D01*
X156716072Y-91318070D01*
X156518974Y-91023092D01*
X156383211Y-90695331D01*
X156314000Y-90347384D01*
X156314000Y-89992616D01*
X156383211Y-89644669D01*
X156518974Y-89316908D01*
X156716072Y-89021930D01*
X156966930Y-88771072D01*
X157261908Y-88573974D01*
X157589669Y-88438211D01*
X157937616Y-88369000D01*
X158292384Y-88369000D01*
X158640331Y-88438211D01*
X158640331Y-88438211D01*
G37*
G36*
X129153600Y-89947989D02*
G01*
X129186652Y-89958015D01*
X129217103Y-89974292D01*
X129243799Y-89996201D01*
X129265708Y-90022897D01*
X129281985Y-90053348D01*
X129292011Y-90086400D01*
X129296000Y-90126903D01*
X129296000Y-91563097D01*
X129292011Y-91603600D01*
X129281985Y-91636652D01*
X129265708Y-91667103D01*
X129243799Y-91693799D01*
X129217103Y-91715708D01*
X129186652Y-91731985D01*
X129153600Y-91742011D01*
X129113097Y-91746000D01*
X127426903Y-91746000D01*
X127386400Y-91742011D01*
X127353348Y-91731985D01*
X127322897Y-91715708D01*
X127296201Y-91693799D01*
X127274292Y-91667103D01*
X127258015Y-91636652D01*
X127247989Y-91603600D01*
X127244000Y-91563097D01*
X127244000Y-90126903D01*
X127247989Y-90086400D01*
X127258015Y-90053348D01*
X127274292Y-90022897D01*
X127296201Y-89996201D01*
X127322897Y-89974292D01*
X127353348Y-89958015D01*
X127386400Y-89947989D01*
X127426903Y-89944000D01*
X129113097Y-89944000D01*
X129153600Y-89947989D01*
X129153600Y-89947989D01*
G37*
M02*
