G04 #@! TF.GenerationSoftware,KiCad,Pcbnew,(5.1.2)-2*
G04 #@! TF.CreationDate,2021-07-01T16:30:17+09:00*
G04 #@! TF.ProjectId,stepper_tokutyu,73746570-7065-4725-9f74-6f6b75747975,rev?*
G04 #@! TF.SameCoordinates,Original*
G04 #@! TF.FileFunction,Soldermask,Bot*
G04 #@! TF.FilePolarity,Negative*
%FSLAX46Y46*%
G04 Gerber Fmt 4.6, Leading zero omitted, Abs format (unit mm)*
G04 Created by KiCad (PCBNEW (5.1.2)-2) date 2021-07-01 16:30:17*
%MOMM*%
%LPD*%
G04 APERTURE LIST*
%ADD10C,0.100000*%
G04 APERTURE END LIST*
D10*
G36*
X140572142Y-149078242D02*
G01*
X140720101Y-149139529D01*
X140853255Y-149228499D01*
X140966501Y-149341745D01*
X141055471Y-149474899D01*
X141116758Y-149622858D01*
X141148000Y-149779925D01*
X141148000Y-149940075D01*
X141116758Y-150097142D01*
X141055471Y-150245101D01*
X140966501Y-150378255D01*
X140853255Y-150491501D01*
X140720101Y-150580471D01*
X140572142Y-150641758D01*
X140415075Y-150673000D01*
X140254925Y-150673000D01*
X140097858Y-150641758D01*
X139949899Y-150580471D01*
X139816745Y-150491501D01*
X139703499Y-150378255D01*
X139614529Y-150245101D01*
X139553242Y-150097142D01*
X139522000Y-149940075D01*
X139522000Y-149779925D01*
X139553242Y-149622858D01*
X139614529Y-149474899D01*
X139703499Y-149341745D01*
X139816745Y-149228499D01*
X139949899Y-149139529D01*
X140097858Y-149078242D01*
X140254925Y-149047000D01*
X140415075Y-149047000D01*
X140572142Y-149078242D01*
X140572142Y-149078242D01*
G37*
G36*
X125332142Y-149078242D02*
G01*
X125480101Y-149139529D01*
X125613255Y-149228499D01*
X125726501Y-149341745D01*
X125815471Y-149474899D01*
X125876758Y-149622858D01*
X125908000Y-149779925D01*
X125908000Y-149940075D01*
X125876758Y-150097142D01*
X125815471Y-150245101D01*
X125726501Y-150378255D01*
X125613255Y-150491501D01*
X125480101Y-150580471D01*
X125332142Y-150641758D01*
X125175075Y-150673000D01*
X125014925Y-150673000D01*
X124857858Y-150641758D01*
X124709899Y-150580471D01*
X124576745Y-150491501D01*
X124463499Y-150378255D01*
X124374529Y-150245101D01*
X124313242Y-150097142D01*
X124282000Y-149940075D01*
X124282000Y-149779925D01*
X124313242Y-149622858D01*
X124374529Y-149474899D01*
X124463499Y-149341745D01*
X124576745Y-149228499D01*
X124709899Y-149139529D01*
X124857858Y-149078242D01*
X125014925Y-149047000D01*
X125175075Y-149047000D01*
X125332142Y-149078242D01*
X125332142Y-149078242D01*
G37*
G36*
X171975331Y-146858211D02*
G01*
X172303092Y-146993974D01*
X172598070Y-147191072D01*
X172848928Y-147441930D01*
X173046026Y-147736908D01*
X173181789Y-148064669D01*
X173251000Y-148412616D01*
X173251000Y-148767384D01*
X173181789Y-149115331D01*
X173046026Y-149443092D01*
X172848928Y-149738070D01*
X172598070Y-149988928D01*
X172303092Y-150186026D01*
X171975331Y-150321789D01*
X171627384Y-150391000D01*
X171272616Y-150391000D01*
X170924669Y-150321789D01*
X170596908Y-150186026D01*
X170301930Y-149988928D01*
X170051072Y-149738070D01*
X169853974Y-149443092D01*
X169718211Y-149115331D01*
X169649000Y-148767384D01*
X169649000Y-148412616D01*
X169718211Y-148064669D01*
X169853974Y-147736908D01*
X170051072Y-147441930D01*
X170301930Y-147191072D01*
X170596908Y-146993974D01*
X170924669Y-146858211D01*
X171272616Y-146789000D01*
X171627384Y-146789000D01*
X171975331Y-146858211D01*
X171975331Y-146858211D01*
G37*
G36*
X109110331Y-146858211D02*
G01*
X109438092Y-146993974D01*
X109733070Y-147191072D01*
X109983928Y-147441930D01*
X110181026Y-147736908D01*
X110316789Y-148064669D01*
X110386000Y-148412616D01*
X110386000Y-148767384D01*
X110316789Y-149115331D01*
X110181026Y-149443092D01*
X109983928Y-149738070D01*
X109733070Y-149988928D01*
X109438092Y-150186026D01*
X109110331Y-150321789D01*
X108762384Y-150391000D01*
X108407616Y-150391000D01*
X108059669Y-150321789D01*
X107731908Y-150186026D01*
X107436930Y-149988928D01*
X107186072Y-149738070D01*
X106988974Y-149443092D01*
X106853211Y-149115331D01*
X106784000Y-148767384D01*
X106784000Y-148412616D01*
X106853211Y-148064669D01*
X106988974Y-147736908D01*
X107186072Y-147441930D01*
X107436930Y-147191072D01*
X107731908Y-146993974D01*
X108059669Y-146858211D01*
X108407616Y-146789000D01*
X108762384Y-146789000D01*
X109110331Y-146858211D01*
X109110331Y-146858211D01*
G37*
G36*
X117691626Y-146307037D02*
G01*
X117861465Y-146358557D01*
X117861467Y-146358558D01*
X118017989Y-146442221D01*
X118155186Y-146554814D01*
X118238448Y-146656271D01*
X118267778Y-146692009D01*
X118267779Y-146692011D01*
X118326433Y-146801743D01*
X118351443Y-146848534D01*
X118402963Y-147018373D01*
X118416000Y-147150742D01*
X118416000Y-147489257D01*
X118402963Y-147621626D01*
X118351443Y-147791466D01*
X118267778Y-147947991D01*
X118264897Y-147951501D01*
X118155186Y-148085186D01*
X118060250Y-148163097D01*
X118017991Y-148197778D01*
X117861466Y-148281443D01*
X117691627Y-148332963D01*
X117515000Y-148350359D01*
X117338374Y-148332963D01*
X117168535Y-148281443D01*
X117012010Y-148197778D01*
X116874815Y-148085185D01*
X116762222Y-147947991D01*
X116720390Y-147869729D01*
X116678558Y-147791468D01*
X116663054Y-147740359D01*
X116627037Y-147621627D01*
X116614000Y-147489258D01*
X116614000Y-147150743D01*
X116627037Y-147018374D01*
X116678557Y-146848535D01*
X116762222Y-146692010D01*
X116765103Y-146688499D01*
X116874814Y-146554814D01*
X116976271Y-146471552D01*
X117012009Y-146442222D01*
X117168534Y-146358557D01*
X117338373Y-146307037D01*
X117515000Y-146289641D01*
X117691626Y-146307037D01*
X117691626Y-146307037D01*
G37*
G36*
X120191626Y-146307037D02*
G01*
X120361465Y-146358557D01*
X120361467Y-146358558D01*
X120517989Y-146442221D01*
X120655186Y-146554814D01*
X120738448Y-146656271D01*
X120767778Y-146692009D01*
X120767779Y-146692011D01*
X120826433Y-146801743D01*
X120851443Y-146848534D01*
X120902963Y-147018373D01*
X120916000Y-147150742D01*
X120916000Y-147489257D01*
X120902963Y-147621626D01*
X120851443Y-147791466D01*
X120767778Y-147947991D01*
X120764897Y-147951501D01*
X120655186Y-148085186D01*
X120560250Y-148163097D01*
X120517991Y-148197778D01*
X120361466Y-148281443D01*
X120191627Y-148332963D01*
X120015000Y-148350359D01*
X119838374Y-148332963D01*
X119668535Y-148281443D01*
X119512010Y-148197778D01*
X119374815Y-148085185D01*
X119262222Y-147947991D01*
X119220390Y-147869729D01*
X119178558Y-147791468D01*
X119163054Y-147740359D01*
X119127037Y-147621627D01*
X119114000Y-147489258D01*
X119114000Y-147150743D01*
X119127037Y-147018374D01*
X119178557Y-146848535D01*
X119262222Y-146692010D01*
X119265103Y-146688499D01*
X119374814Y-146554814D01*
X119476271Y-146471552D01*
X119512009Y-146442222D01*
X119668534Y-146358557D01*
X119838373Y-146307037D01*
X120015000Y-146289641D01*
X120191626Y-146307037D01*
X120191626Y-146307037D01*
G37*
G36*
X115773600Y-146297989D02*
G01*
X115806652Y-146308015D01*
X115837103Y-146324292D01*
X115863799Y-146346201D01*
X115885708Y-146372897D01*
X115901985Y-146403348D01*
X115912011Y-146436400D01*
X115916000Y-146476903D01*
X115916000Y-148163097D01*
X115912011Y-148203600D01*
X115901985Y-148236652D01*
X115885708Y-148267103D01*
X115863799Y-148293799D01*
X115837103Y-148315708D01*
X115806652Y-148331985D01*
X115773600Y-148342011D01*
X115733097Y-148346000D01*
X114296903Y-148346000D01*
X114256400Y-148342011D01*
X114223348Y-148331985D01*
X114192897Y-148315708D01*
X114166201Y-148293799D01*
X114144292Y-148267103D01*
X114128015Y-148236652D01*
X114117989Y-148203600D01*
X114114000Y-148163097D01*
X114114000Y-146476903D01*
X114117989Y-146436400D01*
X114128015Y-146403348D01*
X114144292Y-146372897D01*
X114166201Y-146346201D01*
X114192897Y-146324292D01*
X114223348Y-146308015D01*
X114256400Y-146297989D01*
X114296903Y-146294000D01*
X115733097Y-146294000D01*
X115773600Y-146297989D01*
X115773600Y-146297989D01*
G37*
G36*
X125332142Y-146538242D02*
G01*
X125480101Y-146599529D01*
X125613255Y-146688499D01*
X125726501Y-146801745D01*
X125815471Y-146934899D01*
X125876758Y-147082858D01*
X125908000Y-147239925D01*
X125908000Y-147400075D01*
X125876758Y-147557142D01*
X125815471Y-147705101D01*
X125726501Y-147838255D01*
X125613255Y-147951501D01*
X125480101Y-148040471D01*
X125332142Y-148101758D01*
X125175075Y-148133000D01*
X125014925Y-148133000D01*
X124857858Y-148101758D01*
X124709899Y-148040471D01*
X124576745Y-147951501D01*
X124463499Y-147838255D01*
X124374529Y-147705101D01*
X124313242Y-147557142D01*
X124282000Y-147400075D01*
X124282000Y-147239925D01*
X124313242Y-147082858D01*
X124374529Y-146934899D01*
X124463499Y-146801745D01*
X124576745Y-146688499D01*
X124709899Y-146599529D01*
X124857858Y-146538242D01*
X125014925Y-146507000D01*
X125175075Y-146507000D01*
X125332142Y-146538242D01*
X125332142Y-146538242D01*
G37*
G36*
X140572142Y-146538242D02*
G01*
X140720101Y-146599529D01*
X140853255Y-146688499D01*
X140966501Y-146801745D01*
X141055471Y-146934899D01*
X141116758Y-147082858D01*
X141148000Y-147239925D01*
X141148000Y-147400075D01*
X141116758Y-147557142D01*
X141055471Y-147705101D01*
X140966501Y-147838255D01*
X140853255Y-147951501D01*
X140720101Y-148040471D01*
X140572142Y-148101758D01*
X140415075Y-148133000D01*
X140254925Y-148133000D01*
X140097858Y-148101758D01*
X139949899Y-148040471D01*
X139816745Y-147951501D01*
X139703499Y-147838255D01*
X139614529Y-147705101D01*
X139553242Y-147557142D01*
X139522000Y-147400075D01*
X139522000Y-147239925D01*
X139553242Y-147082858D01*
X139614529Y-146934899D01*
X139703499Y-146801745D01*
X139816745Y-146688499D01*
X139949899Y-146599529D01*
X140097858Y-146538242D01*
X140254925Y-146507000D01*
X140415075Y-146507000D01*
X140572142Y-146538242D01*
X140572142Y-146538242D01*
G37*
G36*
X159521626Y-145647037D02*
G01*
X159691465Y-145698557D01*
X159691467Y-145698558D01*
X159847989Y-145782221D01*
X159985186Y-145894814D01*
X160068448Y-145996271D01*
X160097778Y-146032009D01*
X160181443Y-146188534D01*
X160232963Y-146358373D01*
X160246000Y-146490742D01*
X160246000Y-146879257D01*
X160232963Y-147011626D01*
X160181443Y-147181466D01*
X160097778Y-147337991D01*
X160068448Y-147373729D01*
X159985186Y-147475186D01*
X159890250Y-147553097D01*
X159847991Y-147587778D01*
X159691466Y-147671443D01*
X159521627Y-147722963D01*
X159345000Y-147740359D01*
X159168374Y-147722963D01*
X158998535Y-147671443D01*
X158842010Y-147587778D01*
X158704815Y-147475185D01*
X158592222Y-147337991D01*
X158539804Y-147239925D01*
X158508558Y-147181468D01*
X158508557Y-147181466D01*
X158457037Y-147011627D01*
X158444000Y-146879258D01*
X158444000Y-146490743D01*
X158457037Y-146358374D01*
X158508557Y-146188535D01*
X158592222Y-146032010D01*
X158592223Y-146032009D01*
X158704814Y-145894814D01*
X158806271Y-145811552D01*
X158842009Y-145782222D01*
X158998534Y-145698557D01*
X159168373Y-145647037D01*
X159345000Y-145629641D01*
X159521626Y-145647037D01*
X159521626Y-145647037D01*
G37*
G36*
X149996626Y-145647037D02*
G01*
X150166465Y-145698557D01*
X150166467Y-145698558D01*
X150322989Y-145782221D01*
X150460186Y-145894814D01*
X150543448Y-145996271D01*
X150572778Y-146032009D01*
X150656443Y-146188534D01*
X150707963Y-146358373D01*
X150721000Y-146490742D01*
X150721000Y-146879257D01*
X150707963Y-147011626D01*
X150656443Y-147181466D01*
X150572778Y-147337991D01*
X150543448Y-147373729D01*
X150460186Y-147475186D01*
X150365250Y-147553097D01*
X150322991Y-147587778D01*
X150166466Y-147671443D01*
X149996627Y-147722963D01*
X149820000Y-147740359D01*
X149643374Y-147722963D01*
X149473535Y-147671443D01*
X149317010Y-147587778D01*
X149179815Y-147475185D01*
X149067222Y-147337991D01*
X149014804Y-147239925D01*
X148983558Y-147181468D01*
X148983557Y-147181466D01*
X148932037Y-147011627D01*
X148919000Y-146879258D01*
X148919000Y-146490743D01*
X148932037Y-146358374D01*
X148983557Y-146188535D01*
X149067222Y-146032010D01*
X149067223Y-146032009D01*
X149179814Y-145894814D01*
X149281271Y-145811552D01*
X149317009Y-145782222D01*
X149473534Y-145698557D01*
X149643373Y-145647037D01*
X149820000Y-145629641D01*
X149996626Y-145647037D01*
X149996626Y-145647037D01*
G37*
G36*
X157603600Y-145637989D02*
G01*
X157636652Y-145648015D01*
X157667103Y-145664292D01*
X157693799Y-145686201D01*
X157715708Y-145712897D01*
X157731985Y-145743348D01*
X157742011Y-145776400D01*
X157746000Y-145816903D01*
X157746000Y-147553097D01*
X157742011Y-147593600D01*
X157731985Y-147626652D01*
X157715708Y-147657103D01*
X157693799Y-147683799D01*
X157667103Y-147705708D01*
X157636652Y-147721985D01*
X157603600Y-147732011D01*
X157563097Y-147736000D01*
X156126903Y-147736000D01*
X156086400Y-147732011D01*
X156053348Y-147721985D01*
X156022897Y-147705708D01*
X155996201Y-147683799D01*
X155974292Y-147657103D01*
X155958015Y-147626652D01*
X155947989Y-147593600D01*
X155944000Y-147553097D01*
X155944000Y-145816903D01*
X155947989Y-145776400D01*
X155958015Y-145743348D01*
X155974292Y-145712897D01*
X155996201Y-145686201D01*
X156022897Y-145664292D01*
X156053348Y-145648015D01*
X156086400Y-145637989D01*
X156126903Y-145634000D01*
X157563097Y-145634000D01*
X157603600Y-145637989D01*
X157603600Y-145637989D01*
G37*
G36*
X148078600Y-145637989D02*
G01*
X148111652Y-145648015D01*
X148142103Y-145664292D01*
X148168799Y-145686201D01*
X148190708Y-145712897D01*
X148206985Y-145743348D01*
X148217011Y-145776400D01*
X148221000Y-145816903D01*
X148221000Y-147553097D01*
X148217011Y-147593600D01*
X148206985Y-147626652D01*
X148190708Y-147657103D01*
X148168799Y-147683799D01*
X148142103Y-147705708D01*
X148111652Y-147721985D01*
X148078600Y-147732011D01*
X148038097Y-147736000D01*
X146601903Y-147736000D01*
X146561400Y-147732011D01*
X146528348Y-147721985D01*
X146497897Y-147705708D01*
X146471201Y-147683799D01*
X146449292Y-147657103D01*
X146433015Y-147626652D01*
X146422989Y-147593600D01*
X146419000Y-147553097D01*
X146419000Y-145816903D01*
X146422989Y-145776400D01*
X146433015Y-145743348D01*
X146449292Y-145712897D01*
X146471201Y-145686201D01*
X146497897Y-145664292D01*
X146528348Y-145648015D01*
X146561400Y-145637989D01*
X146601903Y-145634000D01*
X148038097Y-145634000D01*
X148078600Y-145637989D01*
X148078600Y-145637989D01*
G37*
G36*
X140572142Y-143998242D02*
G01*
X140720101Y-144059529D01*
X140853255Y-144148499D01*
X140966501Y-144261745D01*
X141055471Y-144394899D01*
X141116758Y-144542858D01*
X141148000Y-144699925D01*
X141148000Y-144860075D01*
X141116758Y-145017142D01*
X141055471Y-145165101D01*
X140966501Y-145298255D01*
X140853255Y-145411501D01*
X140720101Y-145500471D01*
X140572142Y-145561758D01*
X140415075Y-145593000D01*
X140254925Y-145593000D01*
X140097858Y-145561758D01*
X139949899Y-145500471D01*
X139816745Y-145411501D01*
X139703499Y-145298255D01*
X139614529Y-145165101D01*
X139553242Y-145017142D01*
X139522000Y-144860075D01*
X139522000Y-144699925D01*
X139553242Y-144542858D01*
X139614529Y-144394899D01*
X139703499Y-144261745D01*
X139816745Y-144148499D01*
X139949899Y-144059529D01*
X140097858Y-143998242D01*
X140254925Y-143967000D01*
X140415075Y-143967000D01*
X140572142Y-143998242D01*
X140572142Y-143998242D01*
G37*
G36*
X125332142Y-143998242D02*
G01*
X125480101Y-144059529D01*
X125613255Y-144148499D01*
X125726501Y-144261745D01*
X125815471Y-144394899D01*
X125876758Y-144542858D01*
X125908000Y-144699925D01*
X125908000Y-144860075D01*
X125876758Y-145017142D01*
X125815471Y-145165101D01*
X125726501Y-145298255D01*
X125613255Y-145411501D01*
X125480101Y-145500471D01*
X125332142Y-145561758D01*
X125175075Y-145593000D01*
X125014925Y-145593000D01*
X124857858Y-145561758D01*
X124709899Y-145500471D01*
X124576745Y-145411501D01*
X124463499Y-145298255D01*
X124374529Y-145165101D01*
X124313242Y-145017142D01*
X124282000Y-144860075D01*
X124282000Y-144699925D01*
X124313242Y-144542858D01*
X124374529Y-144394899D01*
X124463499Y-144261745D01*
X124576745Y-144148499D01*
X124709899Y-144059529D01*
X124857858Y-143998242D01*
X125014925Y-143967000D01*
X125175075Y-143967000D01*
X125332142Y-143998242D01*
X125332142Y-143998242D01*
G37*
G36*
X113409591Y-143331085D02*
G01*
X113443569Y-143341393D01*
X113474890Y-143358134D01*
X113502339Y-143380661D01*
X113524866Y-143408110D01*
X113541607Y-143439431D01*
X113551915Y-143473409D01*
X113556000Y-143514890D01*
X113556000Y-144116110D01*
X113551915Y-144157591D01*
X113541607Y-144191569D01*
X113524866Y-144222890D01*
X113502339Y-144250339D01*
X113474890Y-144272866D01*
X113443569Y-144289607D01*
X113409591Y-144299915D01*
X113368110Y-144304000D01*
X112691890Y-144304000D01*
X112650409Y-144299915D01*
X112616431Y-144289607D01*
X112585110Y-144272866D01*
X112557661Y-144250339D01*
X112535134Y-144222890D01*
X112518393Y-144191569D01*
X112508085Y-144157591D01*
X112504000Y-144116110D01*
X112504000Y-143514890D01*
X112508085Y-143473409D01*
X112518393Y-143439431D01*
X112535134Y-143408110D01*
X112557661Y-143380661D01*
X112585110Y-143358134D01*
X112616431Y-143341393D01*
X112650409Y-143331085D01*
X112691890Y-143327000D01*
X113368110Y-143327000D01*
X113409591Y-143331085D01*
X113409591Y-143331085D01*
G37*
G36*
X129071823Y-142036313D02*
G01*
X129232242Y-142084976D01*
X129364906Y-142155886D01*
X129380078Y-142163996D01*
X129509659Y-142270341D01*
X129616004Y-142399922D01*
X129616005Y-142399924D01*
X129695024Y-142547758D01*
X129743687Y-142708177D01*
X129760117Y-142875000D01*
X129743687Y-143041823D01*
X129695024Y-143202242D01*
X129628339Y-143327000D01*
X129616004Y-143350078D01*
X129509659Y-143479659D01*
X129380078Y-143586004D01*
X129380076Y-143586005D01*
X129232242Y-143665024D01*
X129071823Y-143713687D01*
X128946804Y-143726000D01*
X128863196Y-143726000D01*
X128738177Y-143713687D01*
X128577758Y-143665024D01*
X128429924Y-143586005D01*
X128429922Y-143586004D01*
X128300341Y-143479659D01*
X128193996Y-143350078D01*
X128181661Y-143327000D01*
X128114976Y-143202242D01*
X128066313Y-143041823D01*
X128049883Y-142875000D01*
X128066313Y-142708177D01*
X128114976Y-142547758D01*
X128193995Y-142399924D01*
X128193996Y-142399922D01*
X128300341Y-142270341D01*
X128429922Y-142163996D01*
X128445094Y-142155886D01*
X128577758Y-142084976D01*
X128738177Y-142036313D01*
X128863196Y-142024000D01*
X128946804Y-142024000D01*
X129071823Y-142036313D01*
X129071823Y-142036313D01*
G37*
G36*
X137376000Y-143726000D02*
G01*
X135674000Y-143726000D01*
X135674000Y-142024000D01*
X137376000Y-142024000D01*
X137376000Y-143726000D01*
X137376000Y-143726000D01*
G37*
G36*
X140572142Y-141458242D02*
G01*
X140720101Y-141519529D01*
X140853255Y-141608499D01*
X140966501Y-141721745D01*
X141055471Y-141854899D01*
X141116758Y-142002858D01*
X141148000Y-142159925D01*
X141148000Y-142320075D01*
X141116758Y-142477142D01*
X141055471Y-142625101D01*
X140966501Y-142758255D01*
X140853255Y-142871501D01*
X140720101Y-142960471D01*
X140572142Y-143021758D01*
X140415075Y-143053000D01*
X140254925Y-143053000D01*
X140097858Y-143021758D01*
X139949899Y-142960471D01*
X139816745Y-142871501D01*
X139703499Y-142758255D01*
X139614529Y-142625101D01*
X139553242Y-142477142D01*
X139522000Y-142320075D01*
X139522000Y-142159925D01*
X139553242Y-142002858D01*
X139614529Y-141854899D01*
X139703499Y-141721745D01*
X139816745Y-141608499D01*
X139949899Y-141519529D01*
X140097858Y-141458242D01*
X140254925Y-141427000D01*
X140415075Y-141427000D01*
X140572142Y-141458242D01*
X140572142Y-141458242D01*
G37*
G36*
X125332142Y-141458242D02*
G01*
X125480101Y-141519529D01*
X125613255Y-141608499D01*
X125726501Y-141721745D01*
X125815471Y-141854899D01*
X125876758Y-142002858D01*
X125908000Y-142159925D01*
X125908000Y-142320075D01*
X125876758Y-142477142D01*
X125815471Y-142625101D01*
X125726501Y-142758255D01*
X125613255Y-142871501D01*
X125480101Y-142960471D01*
X125332142Y-143021758D01*
X125175075Y-143053000D01*
X125014925Y-143053000D01*
X124857858Y-143021758D01*
X124709899Y-142960471D01*
X124576745Y-142871501D01*
X124463499Y-142758255D01*
X124374529Y-142625101D01*
X124313242Y-142477142D01*
X124282000Y-142320075D01*
X124282000Y-142159925D01*
X124313242Y-142002858D01*
X124374529Y-141854899D01*
X124463499Y-141721745D01*
X124576745Y-141608499D01*
X124709899Y-141519529D01*
X124857858Y-141458242D01*
X125014925Y-141427000D01*
X125175075Y-141427000D01*
X125332142Y-141458242D01*
X125332142Y-141458242D01*
G37*
G36*
X113409591Y-141756085D02*
G01*
X113443569Y-141766393D01*
X113474890Y-141783134D01*
X113502339Y-141805661D01*
X113524866Y-141833110D01*
X113541607Y-141864431D01*
X113551915Y-141898409D01*
X113556000Y-141939890D01*
X113556000Y-142541110D01*
X113551915Y-142582591D01*
X113541607Y-142616569D01*
X113524866Y-142647890D01*
X113502339Y-142675339D01*
X113474890Y-142697866D01*
X113443569Y-142714607D01*
X113409591Y-142724915D01*
X113368110Y-142729000D01*
X112691890Y-142729000D01*
X112650409Y-142724915D01*
X112616431Y-142714607D01*
X112585110Y-142697866D01*
X112557661Y-142675339D01*
X112535134Y-142647890D01*
X112518393Y-142616569D01*
X112508085Y-142582591D01*
X112504000Y-142541110D01*
X112504000Y-141939890D01*
X112508085Y-141898409D01*
X112518393Y-141864431D01*
X112535134Y-141833110D01*
X112557661Y-141805661D01*
X112585110Y-141783134D01*
X112616431Y-141766393D01*
X112650409Y-141756085D01*
X112691890Y-141752000D01*
X113368110Y-141752000D01*
X113409591Y-141756085D01*
X113409591Y-141756085D01*
G37*
G36*
X133691591Y-141083085D02*
G01*
X133725569Y-141093393D01*
X133756890Y-141110134D01*
X133784339Y-141132661D01*
X133806866Y-141160110D01*
X133823607Y-141191431D01*
X133833915Y-141225409D01*
X133838000Y-141266890D01*
X133838000Y-141943110D01*
X133833915Y-141984591D01*
X133823607Y-142018569D01*
X133806866Y-142049890D01*
X133784339Y-142077339D01*
X133756890Y-142099866D01*
X133725569Y-142116607D01*
X133691591Y-142126915D01*
X133650110Y-142131000D01*
X133048890Y-142131000D01*
X133007409Y-142126915D01*
X132973431Y-142116607D01*
X132942110Y-142099866D01*
X132914661Y-142077339D01*
X132892134Y-142049890D01*
X132875393Y-142018569D01*
X132865085Y-141984591D01*
X132861000Y-141943110D01*
X132861000Y-141266890D01*
X132865085Y-141225409D01*
X132875393Y-141191431D01*
X132892134Y-141160110D01*
X132914661Y-141132661D01*
X132942110Y-141110134D01*
X132973431Y-141093393D01*
X133007409Y-141083085D01*
X133048890Y-141079000D01*
X133650110Y-141079000D01*
X133691591Y-141083085D01*
X133691591Y-141083085D01*
G37*
G36*
X132116591Y-141083085D02*
G01*
X132150569Y-141093393D01*
X132181890Y-141110134D01*
X132209339Y-141132661D01*
X132231866Y-141160110D01*
X132248607Y-141191431D01*
X132258915Y-141225409D01*
X132263000Y-141266890D01*
X132263000Y-141943110D01*
X132258915Y-141984591D01*
X132248607Y-142018569D01*
X132231866Y-142049890D01*
X132209339Y-142077339D01*
X132181890Y-142099866D01*
X132150569Y-142116607D01*
X132116591Y-142126915D01*
X132075110Y-142131000D01*
X131473890Y-142131000D01*
X131432409Y-142126915D01*
X131398431Y-142116607D01*
X131367110Y-142099866D01*
X131339661Y-142077339D01*
X131317134Y-142049890D01*
X131300393Y-142018569D01*
X131290085Y-141984591D01*
X131286000Y-141943110D01*
X131286000Y-141266890D01*
X131290085Y-141225409D01*
X131300393Y-141191431D01*
X131317134Y-141160110D01*
X131339661Y-141132661D01*
X131367110Y-141110134D01*
X131398431Y-141093393D01*
X131432409Y-141083085D01*
X131473890Y-141079000D01*
X132075110Y-141079000D01*
X132116591Y-141083085D01*
X132116591Y-141083085D01*
G37*
G36*
X136691823Y-139496313D02*
G01*
X136852242Y-139544976D01*
X136984906Y-139615886D01*
X137000078Y-139623996D01*
X137129659Y-139730341D01*
X137236004Y-139859922D01*
X137236005Y-139859924D01*
X137315024Y-140007758D01*
X137363687Y-140168177D01*
X137380117Y-140335000D01*
X137363687Y-140501823D01*
X137315024Y-140662242D01*
X137244114Y-140794906D01*
X137236004Y-140810078D01*
X137129659Y-140939659D01*
X137000078Y-141046004D01*
X137000076Y-141046005D01*
X136852242Y-141125024D01*
X136691823Y-141173687D01*
X136566804Y-141186000D01*
X136483196Y-141186000D01*
X136358177Y-141173687D01*
X136197758Y-141125024D01*
X136049924Y-141046005D01*
X136049922Y-141046004D01*
X135920341Y-140939659D01*
X135813996Y-140810078D01*
X135805886Y-140794906D01*
X135734976Y-140662242D01*
X135686313Y-140501823D01*
X135669883Y-140335000D01*
X135686313Y-140168177D01*
X135734976Y-140007758D01*
X135813995Y-139859924D01*
X135813996Y-139859922D01*
X135920341Y-139730341D01*
X136049922Y-139623996D01*
X136065094Y-139615886D01*
X136197758Y-139544976D01*
X136358177Y-139496313D01*
X136483196Y-139484000D01*
X136566804Y-139484000D01*
X136691823Y-139496313D01*
X136691823Y-139496313D01*
G37*
G36*
X129071823Y-139496313D02*
G01*
X129232242Y-139544976D01*
X129364906Y-139615886D01*
X129380078Y-139623996D01*
X129509659Y-139730341D01*
X129616004Y-139859922D01*
X129616005Y-139859924D01*
X129695024Y-140007758D01*
X129743687Y-140168177D01*
X129760117Y-140335000D01*
X129743687Y-140501823D01*
X129695024Y-140662242D01*
X129624114Y-140794906D01*
X129616004Y-140810078D01*
X129509659Y-140939659D01*
X129380078Y-141046004D01*
X129380076Y-141046005D01*
X129232242Y-141125024D01*
X129071823Y-141173687D01*
X128946804Y-141186000D01*
X128863196Y-141186000D01*
X128738177Y-141173687D01*
X128577758Y-141125024D01*
X128429924Y-141046005D01*
X128429922Y-141046004D01*
X128300341Y-140939659D01*
X128193996Y-140810078D01*
X128185886Y-140794906D01*
X128114976Y-140662242D01*
X128066313Y-140501823D01*
X128049883Y-140335000D01*
X128066313Y-140168177D01*
X128114976Y-140007758D01*
X128193995Y-139859924D01*
X128193996Y-139859922D01*
X128300341Y-139730341D01*
X128429922Y-139623996D01*
X128445094Y-139615886D01*
X128577758Y-139544976D01*
X128738177Y-139496313D01*
X128863196Y-139484000D01*
X128946804Y-139484000D01*
X129071823Y-139496313D01*
X129071823Y-139496313D01*
G37*
G36*
X140572142Y-138918242D02*
G01*
X140720101Y-138979529D01*
X140853255Y-139068499D01*
X140966501Y-139181745D01*
X141055471Y-139314899D01*
X141116758Y-139462858D01*
X141148000Y-139619925D01*
X141148000Y-139780075D01*
X141116758Y-139937142D01*
X141055471Y-140085101D01*
X140966501Y-140218255D01*
X140853255Y-140331501D01*
X140720101Y-140420471D01*
X140572142Y-140481758D01*
X140415075Y-140513000D01*
X140254925Y-140513000D01*
X140097858Y-140481758D01*
X139949899Y-140420471D01*
X139816745Y-140331501D01*
X139703499Y-140218255D01*
X139614529Y-140085101D01*
X139553242Y-139937142D01*
X139522000Y-139780075D01*
X139522000Y-139619925D01*
X139553242Y-139462858D01*
X139614529Y-139314899D01*
X139703499Y-139181745D01*
X139816745Y-139068499D01*
X139949899Y-138979529D01*
X140097858Y-138918242D01*
X140254925Y-138887000D01*
X140415075Y-138887000D01*
X140572142Y-138918242D01*
X140572142Y-138918242D01*
G37*
G36*
X125332142Y-138918242D02*
G01*
X125480101Y-138979529D01*
X125613255Y-139068499D01*
X125726501Y-139181745D01*
X125815471Y-139314899D01*
X125876758Y-139462858D01*
X125908000Y-139619925D01*
X125908000Y-139780075D01*
X125876758Y-139937142D01*
X125815471Y-140085101D01*
X125726501Y-140218255D01*
X125613255Y-140331501D01*
X125480101Y-140420471D01*
X125332142Y-140481758D01*
X125175075Y-140513000D01*
X125014925Y-140513000D01*
X124857858Y-140481758D01*
X124709899Y-140420471D01*
X124576745Y-140331501D01*
X124463499Y-140218255D01*
X124374529Y-140085101D01*
X124313242Y-139937142D01*
X124282000Y-139780075D01*
X124282000Y-139619925D01*
X124313242Y-139462858D01*
X124374529Y-139314899D01*
X124463499Y-139181745D01*
X124576745Y-139068499D01*
X124709899Y-138979529D01*
X124857858Y-138918242D01*
X125014925Y-138887000D01*
X125175075Y-138887000D01*
X125332142Y-138918242D01*
X125332142Y-138918242D01*
G37*
G36*
X118426000Y-140016000D02*
G01*
X116524000Y-140016000D01*
X116524000Y-138114000D01*
X118426000Y-138114000D01*
X118426000Y-140016000D01*
X118426000Y-140016000D01*
G37*
G36*
X120292395Y-138150546D02*
G01*
X120465466Y-138222234D01*
X120537069Y-138270078D01*
X120621227Y-138326310D01*
X120753690Y-138458773D01*
X120785249Y-138506005D01*
X120857766Y-138614534D01*
X120929454Y-138787605D01*
X120966000Y-138971333D01*
X120966000Y-139158667D01*
X120929454Y-139342395D01*
X120857766Y-139515466D01*
X120838048Y-139544976D01*
X120753690Y-139671227D01*
X120621227Y-139803690D01*
X120542818Y-139856081D01*
X120465466Y-139907766D01*
X120292395Y-139979454D01*
X120108667Y-140016000D01*
X119921333Y-140016000D01*
X119737605Y-139979454D01*
X119564534Y-139907766D01*
X119487182Y-139856081D01*
X119408773Y-139803690D01*
X119276310Y-139671227D01*
X119191952Y-139544976D01*
X119172234Y-139515466D01*
X119100546Y-139342395D01*
X119064000Y-139158667D01*
X119064000Y-138971333D01*
X119100546Y-138787605D01*
X119172234Y-138614534D01*
X119244751Y-138506005D01*
X119276310Y-138458773D01*
X119408773Y-138326310D01*
X119492931Y-138270078D01*
X119564534Y-138222234D01*
X119737605Y-138150546D01*
X119921333Y-138114000D01*
X120108667Y-138114000D01*
X120292395Y-138150546D01*
X120292395Y-138150546D01*
G37*
G36*
X136691823Y-136956313D02*
G01*
X136852242Y-137004976D01*
X136984906Y-137075886D01*
X137000078Y-137083996D01*
X137129659Y-137190341D01*
X137236004Y-137319922D01*
X137236005Y-137319924D01*
X137315024Y-137467758D01*
X137363687Y-137628177D01*
X137380117Y-137795000D01*
X137363687Y-137961823D01*
X137315024Y-138122242D01*
X137257245Y-138230339D01*
X137236004Y-138270078D01*
X137129659Y-138399659D01*
X137000078Y-138506004D01*
X137000076Y-138506005D01*
X136852242Y-138585024D01*
X136691823Y-138633687D01*
X136566804Y-138646000D01*
X136483196Y-138646000D01*
X136358177Y-138633687D01*
X136197758Y-138585024D01*
X136049924Y-138506005D01*
X136049922Y-138506004D01*
X135920341Y-138399659D01*
X135813996Y-138270078D01*
X135792755Y-138230339D01*
X135734976Y-138122242D01*
X135686313Y-137961823D01*
X135669883Y-137795000D01*
X135686313Y-137628177D01*
X135734976Y-137467758D01*
X135813995Y-137319924D01*
X135813996Y-137319922D01*
X135920341Y-137190341D01*
X136049922Y-137083996D01*
X136065094Y-137075886D01*
X136197758Y-137004976D01*
X136358177Y-136956313D01*
X136483196Y-136944000D01*
X136566804Y-136944000D01*
X136691823Y-136956313D01*
X136691823Y-136956313D01*
G37*
G36*
X129071823Y-136956313D02*
G01*
X129232242Y-137004976D01*
X129364906Y-137075886D01*
X129380078Y-137083996D01*
X129509659Y-137190341D01*
X129616004Y-137319922D01*
X129616005Y-137319924D01*
X129695024Y-137467758D01*
X129743687Y-137628177D01*
X129760117Y-137795000D01*
X129743687Y-137961823D01*
X129695024Y-138122242D01*
X129637245Y-138230339D01*
X129616004Y-138270078D01*
X129509659Y-138399659D01*
X129380078Y-138506004D01*
X129380076Y-138506005D01*
X129232242Y-138585024D01*
X129071823Y-138633687D01*
X128946804Y-138646000D01*
X128863196Y-138646000D01*
X128738177Y-138633687D01*
X128577758Y-138585024D01*
X128429924Y-138506005D01*
X128429922Y-138506004D01*
X128300341Y-138399659D01*
X128193996Y-138270078D01*
X128172755Y-138230339D01*
X128114976Y-138122242D01*
X128066313Y-137961823D01*
X128049883Y-137795000D01*
X128066313Y-137628177D01*
X128114976Y-137467758D01*
X128193995Y-137319924D01*
X128193996Y-137319922D01*
X128300341Y-137190341D01*
X128429922Y-137083996D01*
X128445094Y-137075886D01*
X128577758Y-137004976D01*
X128738177Y-136956313D01*
X128863196Y-136944000D01*
X128946804Y-136944000D01*
X129071823Y-136956313D01*
X129071823Y-136956313D01*
G37*
G36*
X133094591Y-137311085D02*
G01*
X133128569Y-137321393D01*
X133159890Y-137338134D01*
X133187339Y-137360661D01*
X133209866Y-137388110D01*
X133226607Y-137419431D01*
X133236915Y-137453409D01*
X133241000Y-137494890D01*
X133241000Y-138096110D01*
X133236915Y-138137591D01*
X133226607Y-138171569D01*
X133209866Y-138202890D01*
X133187339Y-138230339D01*
X133159890Y-138252866D01*
X133128569Y-138269607D01*
X133094591Y-138279915D01*
X133053110Y-138284000D01*
X132376890Y-138284000D01*
X132335409Y-138279915D01*
X132301431Y-138269607D01*
X132270110Y-138252866D01*
X132242661Y-138230339D01*
X132220134Y-138202890D01*
X132203393Y-138171569D01*
X132193085Y-138137591D01*
X132189000Y-138096110D01*
X132189000Y-137494890D01*
X132193085Y-137453409D01*
X132203393Y-137419431D01*
X132220134Y-137388110D01*
X132242661Y-137360661D01*
X132270110Y-137338134D01*
X132301431Y-137321393D01*
X132335409Y-137311085D01*
X132376890Y-137307000D01*
X133053110Y-137307000D01*
X133094591Y-137311085D01*
X133094591Y-137311085D01*
G37*
G36*
X113881000Y-138011000D02*
G01*
X112179000Y-138011000D01*
X112179000Y-136309000D01*
X113881000Y-136309000D01*
X113881000Y-138011000D01*
X113881000Y-138011000D01*
G37*
G36*
X111278228Y-136341703D02*
G01*
X111433100Y-136405853D01*
X111572481Y-136498985D01*
X111691015Y-136617519D01*
X111784147Y-136756900D01*
X111848297Y-136911772D01*
X111881000Y-137076184D01*
X111881000Y-137243816D01*
X111848297Y-137408228D01*
X111784147Y-137563100D01*
X111691015Y-137702481D01*
X111572481Y-137821015D01*
X111433100Y-137914147D01*
X111278228Y-137978297D01*
X111113816Y-138011000D01*
X110946184Y-138011000D01*
X110781772Y-137978297D01*
X110626900Y-137914147D01*
X110487519Y-137821015D01*
X110368985Y-137702481D01*
X110275853Y-137563100D01*
X110211703Y-137408228D01*
X110179000Y-137243816D01*
X110179000Y-137076184D01*
X110211703Y-136911772D01*
X110275853Y-136756900D01*
X110368985Y-136617519D01*
X110487519Y-136498985D01*
X110626900Y-136405853D01*
X110781772Y-136341703D01*
X110946184Y-136309000D01*
X111113816Y-136309000D01*
X111278228Y-136341703D01*
X111278228Y-136341703D01*
G37*
G36*
X140572142Y-136378242D02*
G01*
X140720101Y-136439529D01*
X140853255Y-136528499D01*
X140966501Y-136641745D01*
X141055471Y-136774899D01*
X141116758Y-136922858D01*
X141148000Y-137079925D01*
X141148000Y-137240075D01*
X141116758Y-137397142D01*
X141055471Y-137545101D01*
X140966501Y-137678255D01*
X140853255Y-137791501D01*
X140720101Y-137880471D01*
X140572142Y-137941758D01*
X140415075Y-137973000D01*
X140254925Y-137973000D01*
X140097858Y-137941758D01*
X139949899Y-137880471D01*
X139816745Y-137791501D01*
X139703499Y-137678255D01*
X139614529Y-137545101D01*
X139553242Y-137397142D01*
X139522000Y-137240075D01*
X139522000Y-137079925D01*
X139553242Y-136922858D01*
X139614529Y-136774899D01*
X139703499Y-136641745D01*
X139816745Y-136528499D01*
X139949899Y-136439529D01*
X140097858Y-136378242D01*
X140254925Y-136347000D01*
X140415075Y-136347000D01*
X140572142Y-136378242D01*
X140572142Y-136378242D01*
G37*
G36*
X125332142Y-136378242D02*
G01*
X125480101Y-136439529D01*
X125613255Y-136528499D01*
X125726501Y-136641745D01*
X125815471Y-136774899D01*
X125876758Y-136922858D01*
X125908000Y-137079925D01*
X125908000Y-137240075D01*
X125876758Y-137397142D01*
X125815471Y-137545101D01*
X125726501Y-137678255D01*
X125613255Y-137791501D01*
X125480101Y-137880471D01*
X125332142Y-137941758D01*
X125175075Y-137973000D01*
X125014925Y-137973000D01*
X124857858Y-137941758D01*
X124709899Y-137880471D01*
X124576745Y-137791501D01*
X124463499Y-137678255D01*
X124374529Y-137545101D01*
X124313242Y-137397142D01*
X124282000Y-137240075D01*
X124282000Y-137079925D01*
X124313242Y-136922858D01*
X124374529Y-136774899D01*
X124463499Y-136641745D01*
X124576745Y-136528499D01*
X124709899Y-136439529D01*
X124857858Y-136378242D01*
X125014925Y-136347000D01*
X125175075Y-136347000D01*
X125332142Y-136378242D01*
X125332142Y-136378242D01*
G37*
G36*
X149996626Y-135487037D02*
G01*
X150166465Y-135538557D01*
X150166467Y-135538558D01*
X150322989Y-135622221D01*
X150460186Y-135734814D01*
X150543448Y-135836271D01*
X150572778Y-135872009D01*
X150656443Y-136028534D01*
X150707963Y-136198373D01*
X150721000Y-136330742D01*
X150721000Y-136719257D01*
X150707963Y-136851626D01*
X150656443Y-137021466D01*
X150572778Y-137177991D01*
X150543448Y-137213729D01*
X150460186Y-137315186D01*
X150365250Y-137393097D01*
X150322991Y-137427778D01*
X150166466Y-137511443D01*
X149996627Y-137562963D01*
X149820000Y-137580359D01*
X149643374Y-137562963D01*
X149473535Y-137511443D01*
X149317010Y-137427778D01*
X149179815Y-137315185D01*
X149067222Y-137177991D01*
X148983557Y-137021466D01*
X148932037Y-136851627D01*
X148919000Y-136719258D01*
X148919000Y-136330743D01*
X148932037Y-136198374D01*
X148983557Y-136028535D01*
X149061465Y-135882780D01*
X149067221Y-135872011D01*
X149179814Y-135734814D01*
X149281271Y-135651552D01*
X149317009Y-135622222D01*
X149473534Y-135538557D01*
X149643373Y-135487037D01*
X149820000Y-135469641D01*
X149996626Y-135487037D01*
X149996626Y-135487037D01*
G37*
G36*
X148078600Y-135477989D02*
G01*
X148111652Y-135488015D01*
X148142103Y-135504292D01*
X148168799Y-135526201D01*
X148190708Y-135552897D01*
X148206985Y-135583348D01*
X148217011Y-135616400D01*
X148221000Y-135656903D01*
X148221000Y-137393097D01*
X148217011Y-137433600D01*
X148206985Y-137466652D01*
X148190708Y-137497103D01*
X148168799Y-137523799D01*
X148142103Y-137545708D01*
X148111652Y-137561985D01*
X148078600Y-137572011D01*
X148038097Y-137576000D01*
X146601903Y-137576000D01*
X146561400Y-137572011D01*
X146528348Y-137561985D01*
X146497897Y-137545708D01*
X146471201Y-137523799D01*
X146449292Y-137497103D01*
X146433015Y-137466652D01*
X146422989Y-137433600D01*
X146419000Y-137393097D01*
X146419000Y-135656903D01*
X146422989Y-135616400D01*
X146433015Y-135583348D01*
X146449292Y-135552897D01*
X146471201Y-135526201D01*
X146497897Y-135504292D01*
X146528348Y-135488015D01*
X146561400Y-135477989D01*
X146601903Y-135474000D01*
X148038097Y-135474000D01*
X148078600Y-135477989D01*
X148078600Y-135477989D01*
G37*
G36*
X152742591Y-136003085D02*
G01*
X152776569Y-136013393D01*
X152807890Y-136030134D01*
X152835339Y-136052661D01*
X152857866Y-136080110D01*
X152874607Y-136111431D01*
X152884915Y-136145409D01*
X152889000Y-136186890D01*
X152889000Y-136863110D01*
X152884915Y-136904591D01*
X152874607Y-136938569D01*
X152857866Y-136969890D01*
X152835339Y-136997339D01*
X152807890Y-137019866D01*
X152776569Y-137036607D01*
X152742591Y-137046915D01*
X152701110Y-137051000D01*
X152099890Y-137051000D01*
X152058409Y-137046915D01*
X152024431Y-137036607D01*
X151993110Y-137019866D01*
X151965661Y-136997339D01*
X151943134Y-136969890D01*
X151926393Y-136938569D01*
X151916085Y-136904591D01*
X151912000Y-136863110D01*
X151912000Y-136186890D01*
X151916085Y-136145409D01*
X151926393Y-136111431D01*
X151943134Y-136080110D01*
X151965661Y-136052661D01*
X151993110Y-136030134D01*
X152024431Y-136013393D01*
X152058409Y-136003085D01*
X152099890Y-135999000D01*
X152701110Y-135999000D01*
X152742591Y-136003085D01*
X152742591Y-136003085D01*
G37*
G36*
X154317591Y-136003085D02*
G01*
X154351569Y-136013393D01*
X154382890Y-136030134D01*
X154410339Y-136052661D01*
X154432866Y-136080110D01*
X154449607Y-136111431D01*
X154459915Y-136145409D01*
X154464000Y-136186890D01*
X154464000Y-136863110D01*
X154459915Y-136904591D01*
X154449607Y-136938569D01*
X154432866Y-136969890D01*
X154410339Y-136997339D01*
X154382890Y-137019866D01*
X154351569Y-137036607D01*
X154317591Y-137046915D01*
X154276110Y-137051000D01*
X153674890Y-137051000D01*
X153633409Y-137046915D01*
X153599431Y-137036607D01*
X153568110Y-137019866D01*
X153540661Y-136997339D01*
X153518134Y-136969890D01*
X153501393Y-136938569D01*
X153491085Y-136904591D01*
X153487000Y-136863110D01*
X153487000Y-136186890D01*
X153491085Y-136145409D01*
X153501393Y-136111431D01*
X153518134Y-136080110D01*
X153540661Y-136052661D01*
X153568110Y-136030134D01*
X153599431Y-136013393D01*
X153633409Y-136003085D01*
X153674890Y-135999000D01*
X154276110Y-135999000D01*
X154317591Y-136003085D01*
X154317591Y-136003085D01*
G37*
G36*
X133094591Y-135736085D02*
G01*
X133128569Y-135746393D01*
X133159890Y-135763134D01*
X133187339Y-135785661D01*
X133209866Y-135813110D01*
X133226607Y-135844431D01*
X133236915Y-135878409D01*
X133241000Y-135919890D01*
X133241000Y-136521110D01*
X133236915Y-136562591D01*
X133226607Y-136596569D01*
X133209866Y-136627890D01*
X133187339Y-136655339D01*
X133159890Y-136677866D01*
X133128569Y-136694607D01*
X133094591Y-136704915D01*
X133053110Y-136709000D01*
X132376890Y-136709000D01*
X132335409Y-136704915D01*
X132301431Y-136694607D01*
X132270110Y-136677866D01*
X132242661Y-136655339D01*
X132220134Y-136627890D01*
X132203393Y-136596569D01*
X132193085Y-136562591D01*
X132189000Y-136521110D01*
X132189000Y-135919890D01*
X132193085Y-135878409D01*
X132203393Y-135844431D01*
X132220134Y-135813110D01*
X132242661Y-135785661D01*
X132270110Y-135763134D01*
X132301431Y-135746393D01*
X132335409Y-135736085D01*
X132376890Y-135732000D01*
X133053110Y-135732000D01*
X133094591Y-135736085D01*
X133094591Y-135736085D01*
G37*
G36*
X136691823Y-134416313D02*
G01*
X136852242Y-134464976D01*
X136984906Y-134535886D01*
X137000078Y-134543996D01*
X137129659Y-134650341D01*
X137236004Y-134779922D01*
X137236005Y-134779924D01*
X137315024Y-134927758D01*
X137363687Y-135088177D01*
X137380117Y-135255000D01*
X137363687Y-135421823D01*
X137315024Y-135582242D01*
X137293654Y-135622222D01*
X137236004Y-135730078D01*
X137129659Y-135859659D01*
X137000078Y-135966004D01*
X137000076Y-135966005D01*
X136852242Y-136045024D01*
X136691823Y-136093687D01*
X136566804Y-136106000D01*
X136483196Y-136106000D01*
X136358177Y-136093687D01*
X136197758Y-136045024D01*
X136049924Y-135966005D01*
X136049922Y-135966004D01*
X135920341Y-135859659D01*
X135813996Y-135730078D01*
X135756346Y-135622222D01*
X135734976Y-135582242D01*
X135686313Y-135421823D01*
X135669883Y-135255000D01*
X135686313Y-135088177D01*
X135734976Y-134927758D01*
X135813995Y-134779924D01*
X135813996Y-134779922D01*
X135920341Y-134650341D01*
X136049922Y-134543996D01*
X136065094Y-134535886D01*
X136197758Y-134464976D01*
X136358177Y-134416313D01*
X136483196Y-134404000D01*
X136566804Y-134404000D01*
X136691823Y-134416313D01*
X136691823Y-134416313D01*
G37*
G36*
X129071823Y-134416313D02*
G01*
X129232242Y-134464976D01*
X129364906Y-134535886D01*
X129380078Y-134543996D01*
X129509659Y-134650341D01*
X129616004Y-134779922D01*
X129616005Y-134779924D01*
X129695024Y-134927758D01*
X129743687Y-135088177D01*
X129760117Y-135255000D01*
X129743687Y-135421823D01*
X129695024Y-135582242D01*
X129673654Y-135622222D01*
X129616004Y-135730078D01*
X129509659Y-135859659D01*
X129380078Y-135966004D01*
X129380076Y-135966005D01*
X129232242Y-136045024D01*
X129071823Y-136093687D01*
X128946804Y-136106000D01*
X128863196Y-136106000D01*
X128738177Y-136093687D01*
X128577758Y-136045024D01*
X128429924Y-135966005D01*
X128429922Y-135966004D01*
X128300341Y-135859659D01*
X128193996Y-135730078D01*
X128136346Y-135622222D01*
X128114976Y-135582242D01*
X128066313Y-135421823D01*
X128049883Y-135255000D01*
X128066313Y-135088177D01*
X128114976Y-134927758D01*
X128193995Y-134779924D01*
X128193996Y-134779922D01*
X128300341Y-134650341D01*
X128429922Y-134543996D01*
X128445094Y-134535886D01*
X128577758Y-134464976D01*
X128738177Y-134416313D01*
X128863196Y-134404000D01*
X128946804Y-134404000D01*
X129071823Y-134416313D01*
X129071823Y-134416313D01*
G37*
G36*
X159658600Y-133722989D02*
G01*
X159691652Y-133733015D01*
X159722103Y-133749292D01*
X159748799Y-133771201D01*
X159770708Y-133797897D01*
X159786985Y-133828348D01*
X159797011Y-133861400D01*
X159801000Y-133901903D01*
X159801000Y-135338097D01*
X159797011Y-135378600D01*
X159786985Y-135411652D01*
X159770708Y-135442103D01*
X159748799Y-135468799D01*
X159722103Y-135490708D01*
X159691652Y-135506985D01*
X159658600Y-135517011D01*
X159618097Y-135521000D01*
X157881903Y-135521000D01*
X157841400Y-135517011D01*
X157808348Y-135506985D01*
X157777897Y-135490708D01*
X157751201Y-135468799D01*
X157729292Y-135442103D01*
X157713015Y-135411652D01*
X157702989Y-135378600D01*
X157699000Y-135338097D01*
X157699000Y-133901903D01*
X157702989Y-133861400D01*
X157713015Y-133828348D01*
X157729292Y-133797897D01*
X157751201Y-133771201D01*
X157777897Y-133749292D01*
X157808348Y-133733015D01*
X157841400Y-133722989D01*
X157881903Y-133719000D01*
X159618097Y-133719000D01*
X159658600Y-133722989D01*
X159658600Y-133722989D01*
G37*
G36*
X125332142Y-133838242D02*
G01*
X125480101Y-133899529D01*
X125613255Y-133988499D01*
X125726501Y-134101745D01*
X125815471Y-134234899D01*
X125876758Y-134382858D01*
X125908000Y-134539925D01*
X125908000Y-134700075D01*
X125876758Y-134857142D01*
X125815471Y-135005101D01*
X125726501Y-135138255D01*
X125613255Y-135251501D01*
X125480101Y-135340471D01*
X125332142Y-135401758D01*
X125175075Y-135433000D01*
X125014925Y-135433000D01*
X124857858Y-135401758D01*
X124709899Y-135340471D01*
X124576745Y-135251501D01*
X124463499Y-135138255D01*
X124374529Y-135005101D01*
X124313242Y-134857142D01*
X124282000Y-134700075D01*
X124282000Y-134539925D01*
X124313242Y-134382858D01*
X124374529Y-134234899D01*
X124463499Y-134101745D01*
X124576745Y-133988499D01*
X124709899Y-133899529D01*
X124857858Y-133838242D01*
X125014925Y-133807000D01*
X125175075Y-133807000D01*
X125332142Y-133838242D01*
X125332142Y-133838242D01*
G37*
G36*
X140572142Y-133838242D02*
G01*
X140720101Y-133899529D01*
X140853255Y-133988499D01*
X140966501Y-134101745D01*
X141055471Y-134234899D01*
X141116758Y-134382858D01*
X141148000Y-134539925D01*
X141148000Y-134700075D01*
X141116758Y-134857142D01*
X141055471Y-135005101D01*
X140966501Y-135138255D01*
X140853255Y-135251501D01*
X140720101Y-135340471D01*
X140572142Y-135401758D01*
X140415075Y-135433000D01*
X140254925Y-135433000D01*
X140097858Y-135401758D01*
X139949899Y-135340471D01*
X139816745Y-135251501D01*
X139703499Y-135138255D01*
X139614529Y-135005101D01*
X139553242Y-134857142D01*
X139522000Y-134700075D01*
X139522000Y-134539925D01*
X139553242Y-134382858D01*
X139614529Y-134234899D01*
X139703499Y-134101745D01*
X139816745Y-133988499D01*
X139949899Y-133899529D01*
X140097858Y-133838242D01*
X140254925Y-133807000D01*
X140415075Y-133807000D01*
X140572142Y-133838242D01*
X140572142Y-133838242D01*
G37*
G36*
X170994294Y-131813633D02*
G01*
X171166695Y-131865931D01*
X171325583Y-131950858D01*
X171464849Y-132065151D01*
X171579142Y-132204417D01*
X171664069Y-132363305D01*
X171716367Y-132535706D01*
X171734025Y-132715000D01*
X171716367Y-132894294D01*
X171664069Y-133066695D01*
X171579142Y-133225583D01*
X171464849Y-133364849D01*
X171325583Y-133479142D01*
X171166695Y-133564069D01*
X170994294Y-133616367D01*
X170859931Y-133629600D01*
X170770069Y-133629600D01*
X170635706Y-133616367D01*
X170463305Y-133564069D01*
X170304417Y-133479142D01*
X170165151Y-133364849D01*
X170050858Y-133225583D01*
X169965931Y-133066695D01*
X169913633Y-132894294D01*
X169895975Y-132715000D01*
X169913633Y-132535706D01*
X169965931Y-132363305D01*
X170050858Y-132204417D01*
X170165151Y-132065151D01*
X170304417Y-131950858D01*
X170463305Y-131865931D01*
X170635706Y-131813633D01*
X170770069Y-131800400D01*
X170859931Y-131800400D01*
X170994294Y-131813633D01*
X170994294Y-131813633D01*
G37*
G36*
X168454294Y-131813633D02*
G01*
X168626695Y-131865931D01*
X168785583Y-131950858D01*
X168924849Y-132065151D01*
X169039142Y-132204417D01*
X169124069Y-132363305D01*
X169176367Y-132535706D01*
X169194025Y-132715000D01*
X169176367Y-132894294D01*
X169124069Y-133066695D01*
X169039142Y-133225583D01*
X168924849Y-133364849D01*
X168785583Y-133479142D01*
X168626695Y-133564069D01*
X168454294Y-133616367D01*
X168319931Y-133629600D01*
X168230069Y-133629600D01*
X168095706Y-133616367D01*
X167923305Y-133564069D01*
X167764417Y-133479142D01*
X167625151Y-133364849D01*
X167510858Y-133225583D01*
X167425931Y-133066695D01*
X167373633Y-132894294D01*
X167355975Y-132715000D01*
X167373633Y-132535706D01*
X167425931Y-132363305D01*
X167510858Y-132204417D01*
X167625151Y-132065151D01*
X167764417Y-131950858D01*
X167923305Y-131865931D01*
X168095706Y-131813633D01*
X168230069Y-131800400D01*
X168319931Y-131800400D01*
X168454294Y-131813633D01*
X168454294Y-131813633D01*
G37*
G36*
X159010443Y-131225519D02*
G01*
X159076627Y-131232037D01*
X159246466Y-131283557D01*
X159246468Y-131283558D01*
X159273941Y-131298243D01*
X159402991Y-131367222D01*
X159438729Y-131396552D01*
X159540186Y-131479814D01*
X159607422Y-131561743D01*
X159652778Y-131617009D01*
X159736443Y-131773534D01*
X159787963Y-131943373D01*
X159805359Y-132120000D01*
X159787963Y-132296627D01*
X159736443Y-132466466D01*
X159652778Y-132622991D01*
X159623448Y-132658729D01*
X159540186Y-132760186D01*
X159438729Y-132843448D01*
X159402991Y-132872778D01*
X159246466Y-132956443D01*
X159076627Y-133007963D01*
X159010443Y-133014481D01*
X158944260Y-133021000D01*
X158555740Y-133021000D01*
X158489557Y-133014481D01*
X158423373Y-133007963D01*
X158253534Y-132956443D01*
X158097009Y-132872778D01*
X158061271Y-132843448D01*
X157959814Y-132760186D01*
X157876552Y-132658729D01*
X157847222Y-132622991D01*
X157763557Y-132466466D01*
X157712037Y-132296627D01*
X157694641Y-132120000D01*
X157712037Y-131943373D01*
X157763557Y-131773534D01*
X157847222Y-131617009D01*
X157892578Y-131561743D01*
X157959814Y-131479814D01*
X158061271Y-131396552D01*
X158097009Y-131367222D01*
X158226059Y-131298243D01*
X158253532Y-131283558D01*
X158253534Y-131283557D01*
X158423373Y-131232037D01*
X158489557Y-131225519D01*
X158555740Y-131219000D01*
X158944260Y-131219000D01*
X159010443Y-131225519D01*
X159010443Y-131225519D01*
G37*
G36*
X140572142Y-131298242D02*
G01*
X140720101Y-131359529D01*
X140853255Y-131448499D01*
X140966501Y-131561745D01*
X141055471Y-131694899D01*
X141116758Y-131842858D01*
X141148000Y-131999925D01*
X141148000Y-132160075D01*
X141116758Y-132317142D01*
X141055471Y-132465101D01*
X140966501Y-132598255D01*
X140853255Y-132711501D01*
X140720101Y-132800471D01*
X140572142Y-132861758D01*
X140415075Y-132893000D01*
X140254925Y-132893000D01*
X140097858Y-132861758D01*
X139949899Y-132800471D01*
X139816745Y-132711501D01*
X139703499Y-132598255D01*
X139614529Y-132465101D01*
X139553242Y-132317142D01*
X139522000Y-132160075D01*
X139522000Y-131999925D01*
X139553242Y-131842858D01*
X139614529Y-131694899D01*
X139703499Y-131561745D01*
X139816745Y-131448499D01*
X139949899Y-131359529D01*
X140097858Y-131298242D01*
X140254925Y-131267000D01*
X140415075Y-131267000D01*
X140572142Y-131298242D01*
X140572142Y-131298242D01*
G37*
G36*
X125332142Y-131298242D02*
G01*
X125480101Y-131359529D01*
X125613255Y-131448499D01*
X125726501Y-131561745D01*
X125815471Y-131694899D01*
X125876758Y-131842858D01*
X125908000Y-131999925D01*
X125908000Y-132160075D01*
X125876758Y-132317142D01*
X125815471Y-132465101D01*
X125726501Y-132598255D01*
X125613255Y-132711501D01*
X125480101Y-132800471D01*
X125332142Y-132861758D01*
X125175075Y-132893000D01*
X125014925Y-132893000D01*
X124857858Y-132861758D01*
X124709899Y-132800471D01*
X124576745Y-132711501D01*
X124463499Y-132598255D01*
X124374529Y-132465101D01*
X124313242Y-132317142D01*
X124282000Y-132160075D01*
X124282000Y-131999925D01*
X124313242Y-131842858D01*
X124374529Y-131694899D01*
X124463499Y-131561745D01*
X124576745Y-131448499D01*
X124709899Y-131359529D01*
X124857858Y-131298242D01*
X125014925Y-131267000D01*
X125175075Y-131267000D01*
X125332142Y-131298242D01*
X125332142Y-131298242D01*
G37*
G36*
X121701000Y-131813500D02*
G01*
X119599000Y-131813500D01*
X119599000Y-129806500D01*
X121701000Y-129806500D01*
X121701000Y-131813500D01*
X121701000Y-131813500D01*
G37*
G36*
X170994294Y-129273633D02*
G01*
X171166695Y-129325931D01*
X171325583Y-129410858D01*
X171464849Y-129525151D01*
X171579142Y-129664417D01*
X171664069Y-129823305D01*
X171716367Y-129995706D01*
X171734025Y-130175000D01*
X171716367Y-130354294D01*
X171664069Y-130526695D01*
X171579142Y-130685583D01*
X171464849Y-130824849D01*
X171325583Y-130939142D01*
X171166695Y-131024069D01*
X170994294Y-131076367D01*
X170859931Y-131089600D01*
X170770069Y-131089600D01*
X170635706Y-131076367D01*
X170463305Y-131024069D01*
X170304417Y-130939142D01*
X170165151Y-130824849D01*
X170050858Y-130685583D01*
X169965931Y-130526695D01*
X169913633Y-130354294D01*
X169895975Y-130175000D01*
X169913633Y-129995706D01*
X169965931Y-129823305D01*
X170050858Y-129664417D01*
X170165151Y-129525151D01*
X170304417Y-129410858D01*
X170463305Y-129325931D01*
X170635706Y-129273633D01*
X170770069Y-129260400D01*
X170859931Y-129260400D01*
X170994294Y-129273633D01*
X170994294Y-129273633D01*
G37*
G36*
X168454294Y-129273633D02*
G01*
X168626695Y-129325931D01*
X168785583Y-129410858D01*
X168924849Y-129525151D01*
X169039142Y-129664417D01*
X169124069Y-129823305D01*
X169176367Y-129995706D01*
X169194025Y-130175000D01*
X169176367Y-130354294D01*
X169124069Y-130526695D01*
X169039142Y-130685583D01*
X168924849Y-130824849D01*
X168785583Y-130939142D01*
X168626695Y-131024069D01*
X168454294Y-131076367D01*
X168319931Y-131089600D01*
X168230069Y-131089600D01*
X168095706Y-131076367D01*
X167923305Y-131024069D01*
X167764417Y-130939142D01*
X167625151Y-130824849D01*
X167510858Y-130685583D01*
X167425931Y-130526695D01*
X167373633Y-130354294D01*
X167355975Y-130175000D01*
X167373633Y-129995706D01*
X167425931Y-129823305D01*
X167510858Y-129664417D01*
X167625151Y-129525151D01*
X167764417Y-129410858D01*
X167923305Y-129325931D01*
X168095706Y-129273633D01*
X168230069Y-129260400D01*
X168319931Y-129260400D01*
X168454294Y-129273633D01*
X168454294Y-129273633D01*
G37*
G36*
X140572142Y-128758242D02*
G01*
X140720101Y-128819529D01*
X140853255Y-128908499D01*
X140966501Y-129021745D01*
X141055471Y-129154899D01*
X141116758Y-129302858D01*
X141148000Y-129459925D01*
X141148000Y-129620075D01*
X141116758Y-129777142D01*
X141055471Y-129925101D01*
X140966501Y-130058255D01*
X140853255Y-130171501D01*
X140720101Y-130260471D01*
X140572142Y-130321758D01*
X140415075Y-130353000D01*
X140254925Y-130353000D01*
X140097858Y-130321758D01*
X139949899Y-130260471D01*
X139816745Y-130171501D01*
X139703499Y-130058255D01*
X139614529Y-129925101D01*
X139553242Y-129777142D01*
X139522000Y-129620075D01*
X139522000Y-129459925D01*
X139553242Y-129302858D01*
X139614529Y-129154899D01*
X139703499Y-129021745D01*
X139816745Y-128908499D01*
X139949899Y-128819529D01*
X140097858Y-128758242D01*
X140254925Y-128727000D01*
X140415075Y-128727000D01*
X140572142Y-128758242D01*
X140572142Y-128758242D01*
G37*
G36*
X125332142Y-128758242D02*
G01*
X125480101Y-128819529D01*
X125613255Y-128908499D01*
X125726501Y-129021745D01*
X125815471Y-129154899D01*
X125876758Y-129302858D01*
X125908000Y-129459925D01*
X125908000Y-129620075D01*
X125876758Y-129777142D01*
X125815471Y-129925101D01*
X125726501Y-130058255D01*
X125613255Y-130171501D01*
X125480101Y-130260471D01*
X125332142Y-130321758D01*
X125175075Y-130353000D01*
X125014925Y-130353000D01*
X124857858Y-130321758D01*
X124709899Y-130260471D01*
X124576745Y-130171501D01*
X124463499Y-130058255D01*
X124374529Y-129925101D01*
X124313242Y-129777142D01*
X124282000Y-129620075D01*
X124282000Y-129459925D01*
X124313242Y-129302858D01*
X124374529Y-129154899D01*
X124463499Y-129021745D01*
X124576745Y-128908499D01*
X124709899Y-128819529D01*
X124857858Y-128758242D01*
X125014925Y-128727000D01*
X125175075Y-128727000D01*
X125332142Y-128758242D01*
X125332142Y-128758242D01*
G37*
G36*
X120795936Y-127271340D02*
G01*
X120894220Y-127281020D01*
X121083381Y-127338401D01*
X121257712Y-127431583D01*
X121410515Y-127556985D01*
X121535917Y-127709788D01*
X121629099Y-127884119D01*
X121686480Y-128073280D01*
X121705855Y-128270000D01*
X121686480Y-128466720D01*
X121629099Y-128655881D01*
X121535917Y-128830212D01*
X121410515Y-128983015D01*
X121257712Y-129108417D01*
X121083381Y-129201599D01*
X120894220Y-129258980D01*
X120795936Y-129268660D01*
X120746795Y-129273500D01*
X120553205Y-129273500D01*
X120504064Y-129268660D01*
X120405780Y-129258980D01*
X120216619Y-129201599D01*
X120042288Y-129108417D01*
X119889485Y-128983015D01*
X119764083Y-128830212D01*
X119670901Y-128655881D01*
X119613520Y-128466720D01*
X119594145Y-128270000D01*
X119613520Y-128073280D01*
X119670901Y-127884119D01*
X119764083Y-127709788D01*
X119889485Y-127556985D01*
X120042288Y-127431583D01*
X120216619Y-127338401D01*
X120405780Y-127281020D01*
X120504064Y-127271340D01*
X120553205Y-127266500D01*
X120746795Y-127266500D01*
X120795936Y-127271340D01*
X120795936Y-127271340D01*
G37*
G36*
X112033600Y-127332989D02*
G01*
X112066652Y-127343015D01*
X112097103Y-127359292D01*
X112123799Y-127381201D01*
X112145708Y-127407897D01*
X112161985Y-127438348D01*
X112172011Y-127471400D01*
X112176000Y-127511903D01*
X112176000Y-128948097D01*
X112172011Y-128988600D01*
X112161985Y-129021652D01*
X112145708Y-129052103D01*
X112123799Y-129078799D01*
X112097103Y-129100708D01*
X112066652Y-129116985D01*
X112033600Y-129127011D01*
X111993097Y-129131000D01*
X110256903Y-129131000D01*
X110216400Y-129127011D01*
X110183348Y-129116985D01*
X110152897Y-129100708D01*
X110126201Y-129078799D01*
X110104292Y-129052103D01*
X110088015Y-129021652D01*
X110077989Y-128988600D01*
X110074000Y-128948097D01*
X110074000Y-127511903D01*
X110077989Y-127471400D01*
X110088015Y-127438348D01*
X110104292Y-127407897D01*
X110126201Y-127381201D01*
X110152897Y-127359292D01*
X110183348Y-127343015D01*
X110216400Y-127332989D01*
X110256903Y-127329000D01*
X111993097Y-127329000D01*
X112033600Y-127332989D01*
X112033600Y-127332989D01*
G37*
G36*
X149996626Y-126597037D02*
G01*
X150166465Y-126648557D01*
X150166467Y-126648558D01*
X150322989Y-126732221D01*
X150460186Y-126844814D01*
X150543448Y-126946271D01*
X150572778Y-126982009D01*
X150656443Y-127138534D01*
X150707963Y-127308373D01*
X150721000Y-127440742D01*
X150721000Y-127829257D01*
X150707963Y-127961626D01*
X150656443Y-128131466D01*
X150572778Y-128287991D01*
X150543448Y-128323729D01*
X150460186Y-128425186D01*
X150365250Y-128503097D01*
X150322991Y-128537778D01*
X150166466Y-128621443D01*
X149996627Y-128672963D01*
X149820000Y-128690359D01*
X149643374Y-128672963D01*
X149473535Y-128621443D01*
X149317010Y-128537778D01*
X149179815Y-128425185D01*
X149067222Y-128287991D01*
X148983557Y-128131466D01*
X148932037Y-127961627D01*
X148919000Y-127829258D01*
X148919000Y-127440743D01*
X148932037Y-127308374D01*
X148983557Y-127138535D01*
X149067222Y-126982010D01*
X149067223Y-126982009D01*
X149179814Y-126844814D01*
X149281271Y-126761552D01*
X149317009Y-126732222D01*
X149473534Y-126648557D01*
X149643373Y-126597037D01*
X149820000Y-126579641D01*
X149996626Y-126597037D01*
X149996626Y-126597037D01*
G37*
G36*
X148078600Y-126587989D02*
G01*
X148111652Y-126598015D01*
X148142103Y-126614292D01*
X148168799Y-126636201D01*
X148190708Y-126662897D01*
X148206985Y-126693348D01*
X148217011Y-126726400D01*
X148221000Y-126766903D01*
X148221000Y-128503097D01*
X148217011Y-128543600D01*
X148206985Y-128576652D01*
X148190708Y-128607103D01*
X148168799Y-128633799D01*
X148142103Y-128655708D01*
X148111652Y-128671985D01*
X148078600Y-128682011D01*
X148038097Y-128686000D01*
X146601903Y-128686000D01*
X146561400Y-128682011D01*
X146528348Y-128671985D01*
X146497897Y-128655708D01*
X146471201Y-128633799D01*
X146449292Y-128607103D01*
X146433015Y-128576652D01*
X146422989Y-128543600D01*
X146419000Y-128503097D01*
X146419000Y-126766903D01*
X146422989Y-126726400D01*
X146433015Y-126693348D01*
X146449292Y-126662897D01*
X146471201Y-126636201D01*
X146497897Y-126614292D01*
X146528348Y-126598015D01*
X146561400Y-126587989D01*
X146601903Y-126584000D01*
X148038097Y-126584000D01*
X148078600Y-126587989D01*
X148078600Y-126587989D01*
G37*
G36*
X170994294Y-126733633D02*
G01*
X171166695Y-126785931D01*
X171325583Y-126870858D01*
X171464849Y-126985151D01*
X171579142Y-127124417D01*
X171664069Y-127283305D01*
X171716367Y-127455706D01*
X171734025Y-127635000D01*
X171716367Y-127814294D01*
X171664069Y-127986695D01*
X171579142Y-128145583D01*
X171464849Y-128284849D01*
X171325583Y-128399142D01*
X171166695Y-128484069D01*
X170994294Y-128536367D01*
X170859931Y-128549600D01*
X170770069Y-128549600D01*
X170635706Y-128536367D01*
X170463305Y-128484069D01*
X170304417Y-128399142D01*
X170165151Y-128284849D01*
X170050858Y-128145583D01*
X169965931Y-127986695D01*
X169913633Y-127814294D01*
X169895975Y-127635000D01*
X169913633Y-127455706D01*
X169965931Y-127283305D01*
X170050858Y-127124417D01*
X170165151Y-126985151D01*
X170304417Y-126870858D01*
X170463305Y-126785931D01*
X170635706Y-126733633D01*
X170770069Y-126720400D01*
X170859931Y-126720400D01*
X170994294Y-126733633D01*
X170994294Y-126733633D01*
G37*
G36*
X168454294Y-126733633D02*
G01*
X168626695Y-126785931D01*
X168785583Y-126870858D01*
X168924849Y-126985151D01*
X169039142Y-127124417D01*
X169124069Y-127283305D01*
X169176367Y-127455706D01*
X169194025Y-127635000D01*
X169176367Y-127814294D01*
X169124069Y-127986695D01*
X169039142Y-128145583D01*
X168924849Y-128284849D01*
X168785583Y-128399142D01*
X168626695Y-128484069D01*
X168454294Y-128536367D01*
X168319931Y-128549600D01*
X168230069Y-128549600D01*
X168095706Y-128536367D01*
X167923305Y-128484069D01*
X167764417Y-128399142D01*
X167625151Y-128284849D01*
X167510858Y-128145583D01*
X167425931Y-127986695D01*
X167373633Y-127814294D01*
X167355975Y-127635000D01*
X167373633Y-127455706D01*
X167425931Y-127283305D01*
X167510858Y-127124417D01*
X167625151Y-126985151D01*
X167764417Y-126870858D01*
X167923305Y-126785931D01*
X168095706Y-126733633D01*
X168230069Y-126720400D01*
X168319931Y-126720400D01*
X168454294Y-126733633D01*
X168454294Y-126733633D01*
G37*
G36*
X152742591Y-127113085D02*
G01*
X152776569Y-127123393D01*
X152807890Y-127140134D01*
X152835339Y-127162661D01*
X152857866Y-127190110D01*
X152874607Y-127221431D01*
X152884915Y-127255409D01*
X152889000Y-127296890D01*
X152889000Y-127973110D01*
X152884915Y-128014591D01*
X152874607Y-128048569D01*
X152857866Y-128079890D01*
X152835339Y-128107339D01*
X152807890Y-128129866D01*
X152776569Y-128146607D01*
X152742591Y-128156915D01*
X152701110Y-128161000D01*
X152099890Y-128161000D01*
X152058409Y-128156915D01*
X152024431Y-128146607D01*
X151993110Y-128129866D01*
X151965661Y-128107339D01*
X151943134Y-128079890D01*
X151926393Y-128048569D01*
X151916085Y-128014591D01*
X151912000Y-127973110D01*
X151912000Y-127296890D01*
X151916085Y-127255409D01*
X151926393Y-127221431D01*
X151943134Y-127190110D01*
X151965661Y-127162661D01*
X151993110Y-127140134D01*
X152024431Y-127123393D01*
X152058409Y-127113085D01*
X152099890Y-127109000D01*
X152701110Y-127109000D01*
X152742591Y-127113085D01*
X152742591Y-127113085D01*
G37*
G36*
X154317591Y-127113085D02*
G01*
X154351569Y-127123393D01*
X154382890Y-127140134D01*
X154410339Y-127162661D01*
X154432866Y-127190110D01*
X154449607Y-127221431D01*
X154459915Y-127255409D01*
X154464000Y-127296890D01*
X154464000Y-127973110D01*
X154459915Y-128014591D01*
X154449607Y-128048569D01*
X154432866Y-128079890D01*
X154410339Y-128107339D01*
X154382890Y-128129866D01*
X154351569Y-128146607D01*
X154317591Y-128156915D01*
X154276110Y-128161000D01*
X153674890Y-128161000D01*
X153633409Y-128156915D01*
X153599431Y-128146607D01*
X153568110Y-128129866D01*
X153540661Y-128107339D01*
X153518134Y-128079890D01*
X153501393Y-128048569D01*
X153491085Y-128014591D01*
X153487000Y-127973110D01*
X153487000Y-127296890D01*
X153491085Y-127255409D01*
X153501393Y-127221431D01*
X153518134Y-127190110D01*
X153540661Y-127162661D01*
X153568110Y-127140134D01*
X153599431Y-127123393D01*
X153633409Y-127113085D01*
X153674890Y-127109000D01*
X154276110Y-127109000D01*
X154317591Y-127113085D01*
X154317591Y-127113085D01*
G37*
G36*
X125332142Y-126218242D02*
G01*
X125480101Y-126279529D01*
X125613255Y-126368499D01*
X125726501Y-126481745D01*
X125815471Y-126614899D01*
X125876758Y-126762858D01*
X125908000Y-126919925D01*
X125908000Y-127080075D01*
X125876758Y-127237142D01*
X125815471Y-127385101D01*
X125726501Y-127518255D01*
X125613255Y-127631501D01*
X125480101Y-127720471D01*
X125332142Y-127781758D01*
X125175075Y-127813000D01*
X125014925Y-127813000D01*
X124857858Y-127781758D01*
X124709899Y-127720471D01*
X124576745Y-127631501D01*
X124463499Y-127518255D01*
X124374529Y-127385101D01*
X124313242Y-127237142D01*
X124282000Y-127080075D01*
X124282000Y-126919925D01*
X124313242Y-126762858D01*
X124374529Y-126614899D01*
X124463499Y-126481745D01*
X124576745Y-126368499D01*
X124709899Y-126279529D01*
X124857858Y-126218242D01*
X125014925Y-126187000D01*
X125175075Y-126187000D01*
X125332142Y-126218242D01*
X125332142Y-126218242D01*
G37*
G36*
X140572142Y-126218242D02*
G01*
X140720101Y-126279529D01*
X140853255Y-126368499D01*
X140966501Y-126481745D01*
X141055471Y-126614899D01*
X141116758Y-126762858D01*
X141148000Y-126919925D01*
X141148000Y-127080075D01*
X141116758Y-127237142D01*
X141055471Y-127385101D01*
X140966501Y-127518255D01*
X140853255Y-127631501D01*
X140720101Y-127720471D01*
X140572142Y-127781758D01*
X140415075Y-127813000D01*
X140254925Y-127813000D01*
X140097858Y-127781758D01*
X139949899Y-127720471D01*
X139816745Y-127631501D01*
X139703499Y-127518255D01*
X139614529Y-127385101D01*
X139553242Y-127237142D01*
X139522000Y-127080075D01*
X139522000Y-126919925D01*
X139553242Y-126762858D01*
X139614529Y-126614899D01*
X139703499Y-126481745D01*
X139816745Y-126368499D01*
X139949899Y-126279529D01*
X140097858Y-126218242D01*
X140254925Y-126187000D01*
X140415075Y-126187000D01*
X140572142Y-126218242D01*
X140572142Y-126218242D01*
G37*
G36*
X120795936Y-124731340D02*
G01*
X120894220Y-124741020D01*
X121083381Y-124798401D01*
X121257712Y-124891583D01*
X121410515Y-125016985D01*
X121535917Y-125169788D01*
X121629099Y-125344119D01*
X121686480Y-125533280D01*
X121705855Y-125730000D01*
X121686480Y-125926720D01*
X121629099Y-126115881D01*
X121535917Y-126290212D01*
X121410515Y-126443015D01*
X121257712Y-126568417D01*
X121083381Y-126661599D01*
X120894220Y-126718980D01*
X120818882Y-126726400D01*
X120746795Y-126733500D01*
X120553205Y-126733500D01*
X120481118Y-126726400D01*
X120405780Y-126718980D01*
X120216619Y-126661599D01*
X120042288Y-126568417D01*
X119889485Y-126443015D01*
X119764083Y-126290212D01*
X119670901Y-126115881D01*
X119613520Y-125926720D01*
X119594145Y-125730000D01*
X119613520Y-125533280D01*
X119670901Y-125344119D01*
X119764083Y-125169788D01*
X119889485Y-125016985D01*
X120042288Y-124891583D01*
X120216619Y-124798401D01*
X120405780Y-124741020D01*
X120504064Y-124731340D01*
X120553205Y-124726500D01*
X120746795Y-124726500D01*
X120795936Y-124731340D01*
X120795936Y-124731340D01*
G37*
G36*
X111385443Y-124835519D02*
G01*
X111451627Y-124842037D01*
X111621466Y-124893557D01*
X111777991Y-124977222D01*
X111813729Y-125006552D01*
X111915186Y-125089814D01*
X111989585Y-125180471D01*
X112027778Y-125227009D01*
X112111443Y-125383534D01*
X112162963Y-125553373D01*
X112180359Y-125730000D01*
X112162963Y-125906627D01*
X112111443Y-126076466D01*
X112027778Y-126232991D01*
X111998448Y-126268729D01*
X111915186Y-126370186D01*
X111826442Y-126443015D01*
X111777991Y-126482778D01*
X111621466Y-126566443D01*
X111451627Y-126617963D01*
X111385442Y-126624482D01*
X111319260Y-126631000D01*
X110930740Y-126631000D01*
X110864558Y-126624482D01*
X110798373Y-126617963D01*
X110628534Y-126566443D01*
X110472009Y-126482778D01*
X110423558Y-126443015D01*
X110334814Y-126370186D01*
X110251552Y-126268729D01*
X110222222Y-126232991D01*
X110138557Y-126076466D01*
X110087037Y-125906627D01*
X110069641Y-125730000D01*
X110087037Y-125553373D01*
X110138557Y-125383534D01*
X110222222Y-125227009D01*
X110260415Y-125180471D01*
X110334814Y-125089814D01*
X110436271Y-125006552D01*
X110472009Y-124977222D01*
X110628534Y-124893557D01*
X110798373Y-124842037D01*
X110864557Y-124835519D01*
X110930740Y-124829000D01*
X111319260Y-124829000D01*
X111385443Y-124835519D01*
X111385443Y-124835519D01*
G37*
G36*
X170994294Y-124193633D02*
G01*
X171166695Y-124245931D01*
X171325583Y-124330858D01*
X171464849Y-124445151D01*
X171579142Y-124584417D01*
X171664069Y-124743305D01*
X171716367Y-124915706D01*
X171734025Y-125095000D01*
X171716367Y-125274294D01*
X171664069Y-125446695D01*
X171579142Y-125605583D01*
X171464849Y-125744849D01*
X171325583Y-125859142D01*
X171166695Y-125944069D01*
X170994294Y-125996367D01*
X170859931Y-126009600D01*
X170770069Y-126009600D01*
X170635706Y-125996367D01*
X170463305Y-125944069D01*
X170304417Y-125859142D01*
X170165151Y-125744849D01*
X170050858Y-125605583D01*
X169965931Y-125446695D01*
X169913633Y-125274294D01*
X169895975Y-125095000D01*
X169913633Y-124915706D01*
X169965931Y-124743305D01*
X170050858Y-124584417D01*
X170165151Y-124445151D01*
X170304417Y-124330858D01*
X170463305Y-124245931D01*
X170635706Y-124193633D01*
X170770069Y-124180400D01*
X170859931Y-124180400D01*
X170994294Y-124193633D01*
X170994294Y-124193633D01*
G37*
G36*
X168454294Y-124193633D02*
G01*
X168626695Y-124245931D01*
X168785583Y-124330858D01*
X168924849Y-124445151D01*
X169039142Y-124584417D01*
X169124069Y-124743305D01*
X169176367Y-124915706D01*
X169194025Y-125095000D01*
X169176367Y-125274294D01*
X169124069Y-125446695D01*
X169039142Y-125605583D01*
X168924849Y-125744849D01*
X168785583Y-125859142D01*
X168626695Y-125944069D01*
X168454294Y-125996367D01*
X168319931Y-126009600D01*
X168230069Y-126009600D01*
X168095706Y-125996367D01*
X167923305Y-125944069D01*
X167764417Y-125859142D01*
X167625151Y-125744849D01*
X167510858Y-125605583D01*
X167425931Y-125446695D01*
X167373633Y-125274294D01*
X167355975Y-125095000D01*
X167373633Y-124915706D01*
X167425931Y-124743305D01*
X167510858Y-124584417D01*
X167625151Y-124445151D01*
X167764417Y-124330858D01*
X167923305Y-124245931D01*
X168095706Y-124193633D01*
X168230069Y-124180400D01*
X168319931Y-124180400D01*
X168454294Y-124193633D01*
X168454294Y-124193633D01*
G37*
G36*
X140572142Y-123678242D02*
G01*
X140720101Y-123739529D01*
X140853255Y-123828499D01*
X140966501Y-123941745D01*
X141055471Y-124074899D01*
X141116758Y-124222858D01*
X141148000Y-124379925D01*
X141148000Y-124540075D01*
X141116758Y-124697142D01*
X141055471Y-124845101D01*
X140966501Y-124978255D01*
X140853255Y-125091501D01*
X140720101Y-125180471D01*
X140572142Y-125241758D01*
X140415075Y-125273000D01*
X140254925Y-125273000D01*
X140097858Y-125241758D01*
X139949899Y-125180471D01*
X139816745Y-125091501D01*
X139703499Y-124978255D01*
X139614529Y-124845101D01*
X139553242Y-124697142D01*
X139522000Y-124540075D01*
X139522000Y-124379925D01*
X139553242Y-124222858D01*
X139614529Y-124074899D01*
X139703499Y-123941745D01*
X139816745Y-123828499D01*
X139949899Y-123739529D01*
X140097858Y-123678242D01*
X140254925Y-123647000D01*
X140415075Y-123647000D01*
X140572142Y-123678242D01*
X140572142Y-123678242D01*
G37*
G36*
X125332142Y-123678242D02*
G01*
X125480101Y-123739529D01*
X125613255Y-123828499D01*
X125726501Y-123941745D01*
X125815471Y-124074899D01*
X125876758Y-124222858D01*
X125908000Y-124379925D01*
X125908000Y-124540075D01*
X125876758Y-124697142D01*
X125815471Y-124845101D01*
X125726501Y-124978255D01*
X125613255Y-125091501D01*
X125480101Y-125180471D01*
X125332142Y-125241758D01*
X125175075Y-125273000D01*
X125014925Y-125273000D01*
X124857858Y-125241758D01*
X124709899Y-125180471D01*
X124576745Y-125091501D01*
X124463499Y-124978255D01*
X124374529Y-124845101D01*
X124313242Y-124697142D01*
X124282000Y-124540075D01*
X124282000Y-124379925D01*
X124313242Y-124222858D01*
X124374529Y-124074899D01*
X124463499Y-123941745D01*
X124576745Y-123828499D01*
X124709899Y-123739529D01*
X124857858Y-123678242D01*
X125014925Y-123647000D01*
X125175075Y-123647000D01*
X125332142Y-123678242D01*
X125332142Y-123678242D01*
G37*
G36*
X159658600Y-122292989D02*
G01*
X159691652Y-122303015D01*
X159722103Y-122319292D01*
X159748799Y-122341201D01*
X159770708Y-122367897D01*
X159786985Y-122398348D01*
X159797011Y-122431400D01*
X159801000Y-122471903D01*
X159801000Y-123908097D01*
X159797011Y-123948600D01*
X159786985Y-123981652D01*
X159770708Y-124012103D01*
X159748799Y-124038799D01*
X159722103Y-124060708D01*
X159691652Y-124076985D01*
X159658600Y-124087011D01*
X159618097Y-124091000D01*
X157881903Y-124091000D01*
X157841400Y-124087011D01*
X157808348Y-124076985D01*
X157777897Y-124060708D01*
X157751201Y-124038799D01*
X157729292Y-124012103D01*
X157713015Y-123981652D01*
X157702989Y-123948600D01*
X157699000Y-123908097D01*
X157699000Y-122471903D01*
X157702989Y-122431400D01*
X157713015Y-122398348D01*
X157729292Y-122367897D01*
X157751201Y-122341201D01*
X157777897Y-122319292D01*
X157808348Y-122303015D01*
X157841400Y-122292989D01*
X157881903Y-122289000D01*
X159618097Y-122289000D01*
X159658600Y-122292989D01*
X159658600Y-122292989D01*
G37*
G36*
X169189600Y-123469600D02*
G01*
X167360400Y-123469600D01*
X167360400Y-121640400D01*
X169189600Y-121640400D01*
X169189600Y-123469600D01*
X169189600Y-123469600D01*
G37*
G36*
X170994294Y-121653633D02*
G01*
X171166695Y-121705931D01*
X171325583Y-121790858D01*
X171464849Y-121905151D01*
X171579142Y-122044417D01*
X171664069Y-122203305D01*
X171716367Y-122375706D01*
X171734025Y-122555000D01*
X171716367Y-122734294D01*
X171664069Y-122906695D01*
X171579142Y-123065583D01*
X171464849Y-123204849D01*
X171325583Y-123319142D01*
X171166695Y-123404069D01*
X170994294Y-123456367D01*
X170859931Y-123469600D01*
X170770069Y-123469600D01*
X170635706Y-123456367D01*
X170463305Y-123404069D01*
X170304417Y-123319142D01*
X170165151Y-123204849D01*
X170050858Y-123065583D01*
X169965931Y-122906695D01*
X169913633Y-122734294D01*
X169895975Y-122555000D01*
X169913633Y-122375706D01*
X169965931Y-122203305D01*
X170050858Y-122044417D01*
X170165151Y-121905151D01*
X170304417Y-121790858D01*
X170463305Y-121705931D01*
X170635706Y-121653633D01*
X170770069Y-121640400D01*
X170859931Y-121640400D01*
X170994294Y-121653633D01*
X170994294Y-121653633D01*
G37*
G36*
X125332142Y-121138242D02*
G01*
X125480101Y-121199529D01*
X125613255Y-121288499D01*
X125726501Y-121401745D01*
X125815471Y-121534899D01*
X125876758Y-121682858D01*
X125908000Y-121839925D01*
X125908000Y-122000075D01*
X125876758Y-122157142D01*
X125815471Y-122305101D01*
X125726501Y-122438255D01*
X125613255Y-122551501D01*
X125480101Y-122640471D01*
X125332142Y-122701758D01*
X125175075Y-122733000D01*
X125014925Y-122733000D01*
X124857858Y-122701758D01*
X124709899Y-122640471D01*
X124576745Y-122551501D01*
X124463499Y-122438255D01*
X124374529Y-122305101D01*
X124313242Y-122157142D01*
X124282000Y-122000075D01*
X124282000Y-121839925D01*
X124313242Y-121682858D01*
X124374529Y-121534899D01*
X124463499Y-121401745D01*
X124576745Y-121288499D01*
X124709899Y-121199529D01*
X124857858Y-121138242D01*
X125014925Y-121107000D01*
X125175075Y-121107000D01*
X125332142Y-121138242D01*
X125332142Y-121138242D01*
G37*
G36*
X140572142Y-121138242D02*
G01*
X140720101Y-121199529D01*
X140853255Y-121288499D01*
X140966501Y-121401745D01*
X141055471Y-121534899D01*
X141116758Y-121682858D01*
X141148000Y-121839925D01*
X141148000Y-122000075D01*
X141116758Y-122157142D01*
X141055471Y-122305101D01*
X140966501Y-122438255D01*
X140853255Y-122551501D01*
X140720101Y-122640471D01*
X140572142Y-122701758D01*
X140415075Y-122733000D01*
X140254925Y-122733000D01*
X140097858Y-122701758D01*
X139949899Y-122640471D01*
X139816745Y-122551501D01*
X139703499Y-122438255D01*
X139614529Y-122305101D01*
X139553242Y-122157142D01*
X139522000Y-122000075D01*
X139522000Y-121839925D01*
X139553242Y-121682858D01*
X139614529Y-121534899D01*
X139703499Y-121401745D01*
X139816745Y-121288499D01*
X139949899Y-121199529D01*
X140097858Y-121138242D01*
X140254925Y-121107000D01*
X140415075Y-121107000D01*
X140572142Y-121138242D01*
X140572142Y-121138242D01*
G37*
G36*
X159010443Y-119795519D02*
G01*
X159076627Y-119802037D01*
X159246466Y-119853557D01*
X159402991Y-119937222D01*
X159438729Y-119966552D01*
X159540186Y-120049814D01*
X159623448Y-120151271D01*
X159652778Y-120187009D01*
X159736443Y-120343534D01*
X159787963Y-120513373D01*
X159805359Y-120690000D01*
X159787963Y-120866627D01*
X159736443Y-121036466D01*
X159652778Y-121192991D01*
X159647412Y-121199529D01*
X159540186Y-121330186D01*
X159452992Y-121401743D01*
X159402991Y-121442778D01*
X159246466Y-121526443D01*
X159076627Y-121577963D01*
X159010442Y-121584482D01*
X158944260Y-121591000D01*
X158555740Y-121591000D01*
X158489558Y-121584482D01*
X158423373Y-121577963D01*
X158253534Y-121526443D01*
X158097009Y-121442778D01*
X158047008Y-121401743D01*
X157959814Y-121330186D01*
X157852588Y-121199529D01*
X157847222Y-121192991D01*
X157763557Y-121036466D01*
X157712037Y-120866627D01*
X157694641Y-120690000D01*
X157712037Y-120513373D01*
X157763557Y-120343534D01*
X157847222Y-120187009D01*
X157876552Y-120151271D01*
X157959814Y-120049814D01*
X158061271Y-119966552D01*
X158097009Y-119937222D01*
X158253534Y-119853557D01*
X158423373Y-119802037D01*
X158489557Y-119795519D01*
X158555740Y-119789000D01*
X158944260Y-119789000D01*
X159010443Y-119795519D01*
X159010443Y-119795519D01*
G37*
G36*
X140572142Y-118598242D02*
G01*
X140720101Y-118659529D01*
X140853255Y-118748499D01*
X140966501Y-118861745D01*
X141055471Y-118994899D01*
X141116758Y-119142858D01*
X141148000Y-119299925D01*
X141148000Y-119460075D01*
X141116758Y-119617142D01*
X141055471Y-119765101D01*
X140966501Y-119898255D01*
X140853255Y-120011501D01*
X140720101Y-120100471D01*
X140572142Y-120161758D01*
X140415075Y-120193000D01*
X140254925Y-120193000D01*
X140097858Y-120161758D01*
X139949899Y-120100471D01*
X139816745Y-120011501D01*
X139703499Y-119898255D01*
X139614529Y-119765101D01*
X139553242Y-119617142D01*
X139522000Y-119460075D01*
X139522000Y-119299925D01*
X139553242Y-119142858D01*
X139614529Y-118994899D01*
X139703499Y-118861745D01*
X139816745Y-118748499D01*
X139949899Y-118659529D01*
X140097858Y-118598242D01*
X140254925Y-118567000D01*
X140415075Y-118567000D01*
X140572142Y-118598242D01*
X140572142Y-118598242D01*
G37*
G36*
X125332142Y-118598242D02*
G01*
X125480101Y-118659529D01*
X125613255Y-118748499D01*
X125726501Y-118861745D01*
X125815471Y-118994899D01*
X125876758Y-119142858D01*
X125908000Y-119299925D01*
X125908000Y-119460075D01*
X125876758Y-119617142D01*
X125815471Y-119765101D01*
X125726501Y-119898255D01*
X125613255Y-120011501D01*
X125480101Y-120100471D01*
X125332142Y-120161758D01*
X125175075Y-120193000D01*
X125014925Y-120193000D01*
X124857858Y-120161758D01*
X124709899Y-120100471D01*
X124576745Y-120011501D01*
X124463499Y-119898255D01*
X124374529Y-119765101D01*
X124313242Y-119617142D01*
X124282000Y-119460075D01*
X124282000Y-119299925D01*
X124313242Y-119142858D01*
X124374529Y-118994899D01*
X124463499Y-118861745D01*
X124576745Y-118748499D01*
X124709899Y-118659529D01*
X124857858Y-118598242D01*
X125014925Y-118567000D01*
X125175075Y-118567000D01*
X125332142Y-118598242D01*
X125332142Y-118598242D01*
G37*
G36*
X149996626Y-117707037D02*
G01*
X150166465Y-117758557D01*
X150166467Y-117758558D01*
X150322989Y-117842221D01*
X150460186Y-117954814D01*
X150543448Y-118056271D01*
X150572778Y-118092009D01*
X150656443Y-118248534D01*
X150707963Y-118418373D01*
X150721000Y-118550742D01*
X150721000Y-118939257D01*
X150707963Y-119071626D01*
X150656443Y-119241466D01*
X150572778Y-119397991D01*
X150543448Y-119433729D01*
X150460186Y-119535186D01*
X150365250Y-119613097D01*
X150322991Y-119647778D01*
X150166466Y-119731443D01*
X149996627Y-119782963D01*
X149820000Y-119800359D01*
X149643374Y-119782963D01*
X149473535Y-119731443D01*
X149317010Y-119647778D01*
X149179815Y-119535185D01*
X149067222Y-119397991D01*
X148983557Y-119241466D01*
X148932037Y-119071627D01*
X148919000Y-118939258D01*
X148919000Y-118550743D01*
X148932037Y-118418374D01*
X148983557Y-118248535D01*
X148999344Y-118219000D01*
X149067221Y-118092011D01*
X149179814Y-117954814D01*
X149281271Y-117871552D01*
X149317009Y-117842222D01*
X149473534Y-117758557D01*
X149643373Y-117707037D01*
X149820000Y-117689641D01*
X149996626Y-117707037D01*
X149996626Y-117707037D01*
G37*
G36*
X148078600Y-117697989D02*
G01*
X148111652Y-117708015D01*
X148142103Y-117724292D01*
X148168799Y-117746201D01*
X148190708Y-117772897D01*
X148206985Y-117803348D01*
X148217011Y-117836400D01*
X148221000Y-117876903D01*
X148221000Y-119613097D01*
X148217011Y-119653600D01*
X148206985Y-119686652D01*
X148190708Y-119717103D01*
X148168799Y-119743799D01*
X148142103Y-119765708D01*
X148111652Y-119781985D01*
X148078600Y-119792011D01*
X148038097Y-119796000D01*
X146601903Y-119796000D01*
X146561400Y-119792011D01*
X146528348Y-119781985D01*
X146497897Y-119765708D01*
X146471201Y-119743799D01*
X146449292Y-119717103D01*
X146433015Y-119686652D01*
X146422989Y-119653600D01*
X146419000Y-119613097D01*
X146419000Y-117876903D01*
X146422989Y-117836400D01*
X146433015Y-117803348D01*
X146449292Y-117772897D01*
X146471201Y-117746201D01*
X146497897Y-117724292D01*
X146528348Y-117708015D01*
X146561400Y-117697989D01*
X146601903Y-117694000D01*
X148038097Y-117694000D01*
X148078600Y-117697989D01*
X148078600Y-117697989D01*
G37*
G36*
X154317591Y-118223085D02*
G01*
X154351569Y-118233393D01*
X154382890Y-118250134D01*
X154410339Y-118272661D01*
X154432866Y-118300110D01*
X154449607Y-118331431D01*
X154459915Y-118365409D01*
X154464000Y-118406890D01*
X154464000Y-119083110D01*
X154459915Y-119124591D01*
X154449607Y-119158569D01*
X154432866Y-119189890D01*
X154410339Y-119217339D01*
X154382890Y-119239866D01*
X154351569Y-119256607D01*
X154317591Y-119266915D01*
X154276110Y-119271000D01*
X153674890Y-119271000D01*
X153633409Y-119266915D01*
X153599431Y-119256607D01*
X153568110Y-119239866D01*
X153540661Y-119217339D01*
X153518134Y-119189890D01*
X153501393Y-119158569D01*
X153491085Y-119124591D01*
X153487000Y-119083110D01*
X153487000Y-118406890D01*
X153491085Y-118365409D01*
X153501393Y-118331431D01*
X153518134Y-118300110D01*
X153540661Y-118272661D01*
X153568110Y-118250134D01*
X153599431Y-118233393D01*
X153633409Y-118223085D01*
X153674890Y-118219000D01*
X154276110Y-118219000D01*
X154317591Y-118223085D01*
X154317591Y-118223085D01*
G37*
G36*
X152742591Y-118223085D02*
G01*
X152776569Y-118233393D01*
X152807890Y-118250134D01*
X152835339Y-118272661D01*
X152857866Y-118300110D01*
X152874607Y-118331431D01*
X152884915Y-118365409D01*
X152889000Y-118406890D01*
X152889000Y-119083110D01*
X152884915Y-119124591D01*
X152874607Y-119158569D01*
X152857866Y-119189890D01*
X152835339Y-119217339D01*
X152807890Y-119239866D01*
X152776569Y-119256607D01*
X152742591Y-119266915D01*
X152701110Y-119271000D01*
X152099890Y-119271000D01*
X152058409Y-119266915D01*
X152024431Y-119256607D01*
X151993110Y-119239866D01*
X151965661Y-119217339D01*
X151943134Y-119189890D01*
X151926393Y-119158569D01*
X151916085Y-119124591D01*
X151912000Y-119083110D01*
X151912000Y-118406890D01*
X151916085Y-118365409D01*
X151926393Y-118331431D01*
X151943134Y-118300110D01*
X151965661Y-118272661D01*
X151993110Y-118250134D01*
X152024431Y-118233393D01*
X152058409Y-118223085D01*
X152099890Y-118219000D01*
X152701110Y-118219000D01*
X152742591Y-118223085D01*
X152742591Y-118223085D01*
G37*
G36*
X120223228Y-116656703D02*
G01*
X120378100Y-116720853D01*
X120517481Y-116813985D01*
X120636015Y-116932519D01*
X120729147Y-117071900D01*
X120793297Y-117226772D01*
X120826000Y-117391184D01*
X120826000Y-117558816D01*
X120793297Y-117723228D01*
X120729147Y-117878100D01*
X120636015Y-118017481D01*
X120517481Y-118136015D01*
X120378100Y-118229147D01*
X120223228Y-118293297D01*
X120058816Y-118326000D01*
X119891184Y-118326000D01*
X119726772Y-118293297D01*
X119571900Y-118229147D01*
X119432519Y-118136015D01*
X119313985Y-118017481D01*
X119220853Y-117878100D01*
X119156703Y-117723228D01*
X119124000Y-117558816D01*
X119124000Y-117391184D01*
X119156703Y-117226772D01*
X119220853Y-117071900D01*
X119313985Y-116932519D01*
X119432519Y-116813985D01*
X119571900Y-116720853D01*
X119726772Y-116656703D01*
X119891184Y-116624000D01*
X120058816Y-116624000D01*
X120223228Y-116656703D01*
X120223228Y-116656703D01*
G37*
G36*
X118326000Y-118326000D02*
G01*
X116624000Y-118326000D01*
X116624000Y-116624000D01*
X118326000Y-116624000D01*
X118326000Y-118326000D01*
X118326000Y-118326000D01*
G37*
G36*
X140572142Y-116058242D02*
G01*
X140720101Y-116119529D01*
X140853255Y-116208499D01*
X140966501Y-116321745D01*
X141055471Y-116454899D01*
X141116758Y-116602858D01*
X141148000Y-116759925D01*
X141148000Y-116920075D01*
X141116758Y-117077142D01*
X141055471Y-117225101D01*
X140966501Y-117358255D01*
X140853255Y-117471501D01*
X140720101Y-117560471D01*
X140572142Y-117621758D01*
X140415075Y-117653000D01*
X140254925Y-117653000D01*
X140097858Y-117621758D01*
X139949899Y-117560471D01*
X139816745Y-117471501D01*
X139703499Y-117358255D01*
X139614529Y-117225101D01*
X139553242Y-117077142D01*
X139522000Y-116920075D01*
X139522000Y-116759925D01*
X139553242Y-116602858D01*
X139614529Y-116454899D01*
X139703499Y-116321745D01*
X139816745Y-116208499D01*
X139949899Y-116119529D01*
X140097858Y-116058242D01*
X140254925Y-116027000D01*
X140415075Y-116027000D01*
X140572142Y-116058242D01*
X140572142Y-116058242D01*
G37*
G36*
X125332142Y-116058242D02*
G01*
X125480101Y-116119529D01*
X125613255Y-116208499D01*
X125726501Y-116321745D01*
X125815471Y-116454899D01*
X125876758Y-116602858D01*
X125908000Y-116759925D01*
X125908000Y-116920075D01*
X125876758Y-117077142D01*
X125815471Y-117225101D01*
X125726501Y-117358255D01*
X125613255Y-117471501D01*
X125480101Y-117560471D01*
X125332142Y-117621758D01*
X125175075Y-117653000D01*
X125014925Y-117653000D01*
X124857858Y-117621758D01*
X124709899Y-117560471D01*
X124576745Y-117471501D01*
X124463499Y-117358255D01*
X124374529Y-117225101D01*
X124313242Y-117077142D01*
X124282000Y-116920075D01*
X124282000Y-116759925D01*
X124313242Y-116602858D01*
X124374529Y-116454899D01*
X124463499Y-116321745D01*
X124576745Y-116208499D01*
X124709899Y-116119529D01*
X124857858Y-116058242D01*
X125014925Y-116027000D01*
X125175075Y-116027000D01*
X125332142Y-116058242D01*
X125332142Y-116058242D01*
G37*
G36*
X127814294Y-108318633D02*
G01*
X127986695Y-108370931D01*
X128145583Y-108455858D01*
X128284849Y-108570151D01*
X128399142Y-108709417D01*
X128484069Y-108868305D01*
X128536367Y-109040706D01*
X128554025Y-109220000D01*
X128536367Y-109399294D01*
X128484069Y-109571695D01*
X128399142Y-109730583D01*
X128284849Y-109869849D01*
X128145583Y-109984142D01*
X127986695Y-110069069D01*
X127814294Y-110121367D01*
X127679931Y-110134600D01*
X127590069Y-110134600D01*
X127455706Y-110121367D01*
X127283305Y-110069069D01*
X127124417Y-109984142D01*
X126985151Y-109869849D01*
X126870858Y-109730583D01*
X126785931Y-109571695D01*
X126733633Y-109399294D01*
X126715975Y-109220000D01*
X126733633Y-109040706D01*
X126785931Y-108868305D01*
X126870858Y-108709417D01*
X126985151Y-108570151D01*
X127124417Y-108455858D01*
X127283305Y-108370931D01*
X127455706Y-108318633D01*
X127590069Y-108305400D01*
X127679931Y-108305400D01*
X127814294Y-108318633D01*
X127814294Y-108318633D01*
G37*
G36*
X130354294Y-108318633D02*
G01*
X130526695Y-108370931D01*
X130685583Y-108455858D01*
X130824849Y-108570151D01*
X130939142Y-108709417D01*
X131024069Y-108868305D01*
X131076367Y-109040706D01*
X131094025Y-109220000D01*
X131076367Y-109399294D01*
X131024069Y-109571695D01*
X130939142Y-109730583D01*
X130824849Y-109869849D01*
X130685583Y-109984142D01*
X130526695Y-110069069D01*
X130354294Y-110121367D01*
X130219931Y-110134600D01*
X130130069Y-110134600D01*
X129995706Y-110121367D01*
X129823305Y-110069069D01*
X129664417Y-109984142D01*
X129525151Y-109869849D01*
X129410858Y-109730583D01*
X129325931Y-109571695D01*
X129273633Y-109399294D01*
X129255975Y-109220000D01*
X129273633Y-109040706D01*
X129325931Y-108868305D01*
X129410858Y-108709417D01*
X129525151Y-108570151D01*
X129664417Y-108455858D01*
X129823305Y-108370931D01*
X129995706Y-108318633D01*
X130130069Y-108305400D01*
X130219931Y-108305400D01*
X130354294Y-108318633D01*
X130354294Y-108318633D01*
G37*
G36*
X150774600Y-110134600D02*
G01*
X148945400Y-110134600D01*
X148945400Y-108305400D01*
X150774600Y-108305400D01*
X150774600Y-110134600D01*
X150774600Y-110134600D01*
G37*
G36*
X152579294Y-108318633D02*
G01*
X152751695Y-108370931D01*
X152910583Y-108455858D01*
X153049849Y-108570151D01*
X153164142Y-108709417D01*
X153249069Y-108868305D01*
X153301367Y-109040706D01*
X153319025Y-109220000D01*
X153301367Y-109399294D01*
X153249069Y-109571695D01*
X153164142Y-109730583D01*
X153049849Y-109869849D01*
X152910583Y-109984142D01*
X152751695Y-110069069D01*
X152579294Y-110121367D01*
X152444931Y-110134600D01*
X152355069Y-110134600D01*
X152220706Y-110121367D01*
X152048305Y-110069069D01*
X151889417Y-109984142D01*
X151750151Y-109869849D01*
X151635858Y-109730583D01*
X151550931Y-109571695D01*
X151498633Y-109399294D01*
X151480975Y-109220000D01*
X151498633Y-109040706D01*
X151550931Y-108868305D01*
X151635858Y-108709417D01*
X151750151Y-108570151D01*
X151889417Y-108455858D01*
X152048305Y-108370931D01*
X152220706Y-108318633D01*
X152355069Y-108305400D01*
X152444931Y-108305400D01*
X152579294Y-108318633D01*
X152579294Y-108318633D01*
G37*
G36*
X155119294Y-108318633D02*
G01*
X155291695Y-108370931D01*
X155450583Y-108455858D01*
X155589849Y-108570151D01*
X155704142Y-108709417D01*
X155789069Y-108868305D01*
X155841367Y-109040706D01*
X155859025Y-109220000D01*
X155841367Y-109399294D01*
X155789069Y-109571695D01*
X155704142Y-109730583D01*
X155589849Y-109869849D01*
X155450583Y-109984142D01*
X155291695Y-110069069D01*
X155119294Y-110121367D01*
X154984931Y-110134600D01*
X154895069Y-110134600D01*
X154760706Y-110121367D01*
X154588305Y-110069069D01*
X154429417Y-109984142D01*
X154290151Y-109869849D01*
X154175858Y-109730583D01*
X154090931Y-109571695D01*
X154038633Y-109399294D01*
X154020975Y-109220000D01*
X154038633Y-109040706D01*
X154090931Y-108868305D01*
X154175858Y-108709417D01*
X154290151Y-108570151D01*
X154429417Y-108455858D01*
X154588305Y-108370931D01*
X154760706Y-108318633D01*
X154895069Y-108305400D01*
X154984931Y-108305400D01*
X155119294Y-108318633D01*
X155119294Y-108318633D01*
G37*
G36*
X157659294Y-108318633D02*
G01*
X157831695Y-108370931D01*
X157990583Y-108455858D01*
X158129849Y-108570151D01*
X158244142Y-108709417D01*
X158329069Y-108868305D01*
X158381367Y-109040706D01*
X158399025Y-109220000D01*
X158381367Y-109399294D01*
X158329069Y-109571695D01*
X158244142Y-109730583D01*
X158129849Y-109869849D01*
X157990583Y-109984142D01*
X157831695Y-110069069D01*
X157659294Y-110121367D01*
X157524931Y-110134600D01*
X157435069Y-110134600D01*
X157300706Y-110121367D01*
X157128305Y-110069069D01*
X156969417Y-109984142D01*
X156830151Y-109869849D01*
X156715858Y-109730583D01*
X156630931Y-109571695D01*
X156578633Y-109399294D01*
X156560975Y-109220000D01*
X156578633Y-109040706D01*
X156630931Y-108868305D01*
X156715858Y-108709417D01*
X156830151Y-108570151D01*
X156969417Y-108455858D01*
X157128305Y-108370931D01*
X157300706Y-108318633D01*
X157435069Y-108305400D01*
X157524931Y-108305400D01*
X157659294Y-108318633D01*
X157659294Y-108318633D01*
G37*
G36*
X160199294Y-108318633D02*
G01*
X160371695Y-108370931D01*
X160530583Y-108455858D01*
X160669849Y-108570151D01*
X160784142Y-108709417D01*
X160869069Y-108868305D01*
X160921367Y-109040706D01*
X160939025Y-109220000D01*
X160921367Y-109399294D01*
X160869069Y-109571695D01*
X160784142Y-109730583D01*
X160669849Y-109869849D01*
X160530583Y-109984142D01*
X160371695Y-110069069D01*
X160199294Y-110121367D01*
X160064931Y-110134600D01*
X159975069Y-110134600D01*
X159840706Y-110121367D01*
X159668305Y-110069069D01*
X159509417Y-109984142D01*
X159370151Y-109869849D01*
X159255858Y-109730583D01*
X159170931Y-109571695D01*
X159118633Y-109399294D01*
X159100975Y-109220000D01*
X159118633Y-109040706D01*
X159170931Y-108868305D01*
X159255858Y-108709417D01*
X159370151Y-108570151D01*
X159509417Y-108455858D01*
X159668305Y-108370931D01*
X159840706Y-108318633D01*
X159975069Y-108305400D01*
X160064931Y-108305400D01*
X160199294Y-108318633D01*
X160199294Y-108318633D01*
G37*
G36*
X125274294Y-108318633D02*
G01*
X125446695Y-108370931D01*
X125605583Y-108455858D01*
X125744849Y-108570151D01*
X125859142Y-108709417D01*
X125944069Y-108868305D01*
X125996367Y-109040706D01*
X126014025Y-109220000D01*
X125996367Y-109399294D01*
X125944069Y-109571695D01*
X125859142Y-109730583D01*
X125744849Y-109869849D01*
X125605583Y-109984142D01*
X125446695Y-110069069D01*
X125274294Y-110121367D01*
X125139931Y-110134600D01*
X125050069Y-110134600D01*
X124915706Y-110121367D01*
X124743305Y-110069069D01*
X124584417Y-109984142D01*
X124445151Y-109869849D01*
X124330858Y-109730583D01*
X124245931Y-109571695D01*
X124193633Y-109399294D01*
X124175975Y-109220000D01*
X124193633Y-109040706D01*
X124245931Y-108868305D01*
X124330858Y-108709417D01*
X124445151Y-108570151D01*
X124584417Y-108455858D01*
X124743305Y-108370931D01*
X124915706Y-108318633D01*
X125050069Y-108305400D01*
X125139931Y-108305400D01*
X125274294Y-108318633D01*
X125274294Y-108318633D01*
G37*
G36*
X120929600Y-110134600D02*
G01*
X119100400Y-110134600D01*
X119100400Y-108305400D01*
X120929600Y-108305400D01*
X120929600Y-110134600D01*
X120929600Y-110134600D01*
G37*
G36*
X122734294Y-108318633D02*
G01*
X122906695Y-108370931D01*
X123065583Y-108455858D01*
X123204849Y-108570151D01*
X123319142Y-108709417D01*
X123404069Y-108868305D01*
X123456367Y-109040706D01*
X123474025Y-109220000D01*
X123456367Y-109399294D01*
X123404069Y-109571695D01*
X123319142Y-109730583D01*
X123204849Y-109869849D01*
X123065583Y-109984142D01*
X122906695Y-110069069D01*
X122734294Y-110121367D01*
X122599931Y-110134600D01*
X122510069Y-110134600D01*
X122375706Y-110121367D01*
X122203305Y-110069069D01*
X122044417Y-109984142D01*
X121905151Y-109869849D01*
X121790858Y-109730583D01*
X121705931Y-109571695D01*
X121653633Y-109399294D01*
X121635975Y-109220000D01*
X121653633Y-109040706D01*
X121705931Y-108868305D01*
X121790858Y-108709417D01*
X121905151Y-108570151D01*
X122044417Y-108455858D01*
X122203305Y-108370931D01*
X122375706Y-108318633D01*
X122510069Y-108305400D01*
X122599931Y-108305400D01*
X122734294Y-108318633D01*
X122734294Y-108318633D01*
G37*
G36*
X140595443Y-108285519D02*
G01*
X140661627Y-108292037D01*
X140831466Y-108343557D01*
X140987991Y-108427222D01*
X141022884Y-108455858D01*
X141125186Y-108539814D01*
X141208448Y-108641271D01*
X141237778Y-108677009D01*
X141321443Y-108833534D01*
X141372963Y-109003373D01*
X141390359Y-109180000D01*
X141372963Y-109356627D01*
X141321443Y-109526466D01*
X141237778Y-109682991D01*
X141208448Y-109718729D01*
X141125186Y-109820186D01*
X141023729Y-109903448D01*
X140987991Y-109932778D01*
X140831466Y-110016443D01*
X140661627Y-110067963D01*
X140595442Y-110074482D01*
X140529260Y-110081000D01*
X140140740Y-110081000D01*
X140074558Y-110074482D01*
X140008373Y-110067963D01*
X139838534Y-110016443D01*
X139682009Y-109932778D01*
X139646271Y-109903448D01*
X139544814Y-109820186D01*
X139461552Y-109718729D01*
X139432222Y-109682991D01*
X139348557Y-109526466D01*
X139297037Y-109356627D01*
X139279641Y-109180000D01*
X139297037Y-109003373D01*
X139348557Y-108833534D01*
X139432222Y-108677009D01*
X139461552Y-108641271D01*
X139544814Y-108539814D01*
X139647116Y-108455858D01*
X139682009Y-108427222D01*
X139838534Y-108343557D01*
X140008373Y-108292037D01*
X140074557Y-108285519D01*
X140140740Y-108279000D01*
X140529260Y-108279000D01*
X140595443Y-108285519D01*
X140595443Y-108285519D01*
G37*
G36*
X171975331Y-104313211D02*
G01*
X172303092Y-104448974D01*
X172598070Y-104646072D01*
X172848928Y-104896930D01*
X173046026Y-105191908D01*
X173181789Y-105519669D01*
X173251000Y-105867616D01*
X173251000Y-106222384D01*
X173181789Y-106570331D01*
X173046026Y-106898092D01*
X172848928Y-107193070D01*
X172598070Y-107443928D01*
X172303092Y-107641026D01*
X171975331Y-107776789D01*
X171627384Y-107846000D01*
X171272616Y-107846000D01*
X170924669Y-107776789D01*
X170596908Y-107641026D01*
X170301930Y-107443928D01*
X170051072Y-107193070D01*
X169853974Y-106898092D01*
X169718211Y-106570331D01*
X169649000Y-106222384D01*
X169649000Y-105867616D01*
X169718211Y-105519669D01*
X169853974Y-105191908D01*
X170051072Y-104896930D01*
X170301930Y-104646072D01*
X170596908Y-104448974D01*
X170924669Y-104313211D01*
X171272616Y-104244000D01*
X171627384Y-104244000D01*
X171975331Y-104313211D01*
X171975331Y-104313211D01*
G37*
G36*
X109110331Y-104313211D02*
G01*
X109438092Y-104448974D01*
X109733070Y-104646072D01*
X109983928Y-104896930D01*
X110181026Y-105191908D01*
X110316789Y-105519669D01*
X110386000Y-105867616D01*
X110386000Y-106222384D01*
X110316789Y-106570331D01*
X110181026Y-106898092D01*
X109983928Y-107193070D01*
X109733070Y-107443928D01*
X109438092Y-107641026D01*
X109110331Y-107776789D01*
X108762384Y-107846000D01*
X108407616Y-107846000D01*
X108059669Y-107776789D01*
X107731908Y-107641026D01*
X107436930Y-107443928D01*
X107186072Y-107193070D01*
X106988974Y-106898092D01*
X106853211Y-106570331D01*
X106784000Y-106222384D01*
X106784000Y-105867616D01*
X106853211Y-105519669D01*
X106988974Y-105191908D01*
X107186072Y-104896930D01*
X107436930Y-104646072D01*
X107731908Y-104448974D01*
X108059669Y-104313211D01*
X108407616Y-104244000D01*
X108762384Y-104244000D01*
X109110331Y-104313211D01*
X109110331Y-104313211D01*
G37*
G36*
X130354294Y-105778633D02*
G01*
X130526695Y-105830931D01*
X130685583Y-105915858D01*
X130824849Y-106030151D01*
X130939142Y-106169417D01*
X131024069Y-106328305D01*
X131076367Y-106500706D01*
X131094025Y-106680000D01*
X131076367Y-106859294D01*
X131024069Y-107031695D01*
X130939142Y-107190583D01*
X130824849Y-107329849D01*
X130685583Y-107444142D01*
X130526695Y-107529069D01*
X130354294Y-107581367D01*
X130219931Y-107594600D01*
X130130069Y-107594600D01*
X129995706Y-107581367D01*
X129823305Y-107529069D01*
X129664417Y-107444142D01*
X129525151Y-107329849D01*
X129410858Y-107190583D01*
X129325931Y-107031695D01*
X129273633Y-106859294D01*
X129255975Y-106680000D01*
X129273633Y-106500706D01*
X129325931Y-106328305D01*
X129410858Y-106169417D01*
X129525151Y-106030151D01*
X129664417Y-105915858D01*
X129823305Y-105830931D01*
X129995706Y-105778633D01*
X130130069Y-105765400D01*
X130219931Y-105765400D01*
X130354294Y-105778633D01*
X130354294Y-105778633D01*
G37*
G36*
X120194294Y-105778633D02*
G01*
X120366695Y-105830931D01*
X120525583Y-105915858D01*
X120664849Y-106030151D01*
X120779142Y-106169417D01*
X120864069Y-106328305D01*
X120916367Y-106500706D01*
X120934025Y-106680000D01*
X120916367Y-106859294D01*
X120864069Y-107031695D01*
X120779142Y-107190583D01*
X120664849Y-107329849D01*
X120525583Y-107444142D01*
X120366695Y-107529069D01*
X120194294Y-107581367D01*
X120059931Y-107594600D01*
X119970069Y-107594600D01*
X119835706Y-107581367D01*
X119663305Y-107529069D01*
X119504417Y-107444142D01*
X119365151Y-107329849D01*
X119250858Y-107190583D01*
X119165931Y-107031695D01*
X119113633Y-106859294D01*
X119095975Y-106680000D01*
X119113633Y-106500706D01*
X119165931Y-106328305D01*
X119250858Y-106169417D01*
X119365151Y-106030151D01*
X119504417Y-105915858D01*
X119663305Y-105830931D01*
X119835706Y-105778633D01*
X119970069Y-105765400D01*
X120059931Y-105765400D01*
X120194294Y-105778633D01*
X120194294Y-105778633D01*
G37*
G36*
X122734294Y-105778633D02*
G01*
X122906695Y-105830931D01*
X123065583Y-105915858D01*
X123204849Y-106030151D01*
X123319142Y-106169417D01*
X123404069Y-106328305D01*
X123456367Y-106500706D01*
X123474025Y-106680000D01*
X123456367Y-106859294D01*
X123404069Y-107031695D01*
X123319142Y-107190583D01*
X123204849Y-107329849D01*
X123065583Y-107444142D01*
X122906695Y-107529069D01*
X122734294Y-107581367D01*
X122599931Y-107594600D01*
X122510069Y-107594600D01*
X122375706Y-107581367D01*
X122203305Y-107529069D01*
X122044417Y-107444142D01*
X121905151Y-107329849D01*
X121790858Y-107190583D01*
X121705931Y-107031695D01*
X121653633Y-106859294D01*
X121635975Y-106680000D01*
X121653633Y-106500706D01*
X121705931Y-106328305D01*
X121790858Y-106169417D01*
X121905151Y-106030151D01*
X122044417Y-105915858D01*
X122203305Y-105830931D01*
X122375706Y-105778633D01*
X122510069Y-105765400D01*
X122599931Y-105765400D01*
X122734294Y-105778633D01*
X122734294Y-105778633D01*
G37*
G36*
X160199294Y-105778633D02*
G01*
X160371695Y-105830931D01*
X160530583Y-105915858D01*
X160669849Y-106030151D01*
X160784142Y-106169417D01*
X160869069Y-106328305D01*
X160921367Y-106500706D01*
X160939025Y-106680000D01*
X160921367Y-106859294D01*
X160869069Y-107031695D01*
X160784142Y-107190583D01*
X160669849Y-107329849D01*
X160530583Y-107444142D01*
X160371695Y-107529069D01*
X160199294Y-107581367D01*
X160064931Y-107594600D01*
X159975069Y-107594600D01*
X159840706Y-107581367D01*
X159668305Y-107529069D01*
X159509417Y-107444142D01*
X159370151Y-107329849D01*
X159255858Y-107190583D01*
X159170931Y-107031695D01*
X159118633Y-106859294D01*
X159100975Y-106680000D01*
X159118633Y-106500706D01*
X159170931Y-106328305D01*
X159255858Y-106169417D01*
X159370151Y-106030151D01*
X159509417Y-105915858D01*
X159668305Y-105830931D01*
X159840706Y-105778633D01*
X159975069Y-105765400D01*
X160064931Y-105765400D01*
X160199294Y-105778633D01*
X160199294Y-105778633D01*
G37*
G36*
X125274294Y-105778633D02*
G01*
X125446695Y-105830931D01*
X125605583Y-105915858D01*
X125744849Y-106030151D01*
X125859142Y-106169417D01*
X125944069Y-106328305D01*
X125996367Y-106500706D01*
X126014025Y-106680000D01*
X125996367Y-106859294D01*
X125944069Y-107031695D01*
X125859142Y-107190583D01*
X125744849Y-107329849D01*
X125605583Y-107444142D01*
X125446695Y-107529069D01*
X125274294Y-107581367D01*
X125139931Y-107594600D01*
X125050069Y-107594600D01*
X124915706Y-107581367D01*
X124743305Y-107529069D01*
X124584417Y-107444142D01*
X124445151Y-107329849D01*
X124330858Y-107190583D01*
X124245931Y-107031695D01*
X124193633Y-106859294D01*
X124175975Y-106680000D01*
X124193633Y-106500706D01*
X124245931Y-106328305D01*
X124330858Y-106169417D01*
X124445151Y-106030151D01*
X124584417Y-105915858D01*
X124743305Y-105830931D01*
X124915706Y-105778633D01*
X125050069Y-105765400D01*
X125139931Y-105765400D01*
X125274294Y-105778633D01*
X125274294Y-105778633D01*
G37*
G36*
X127814294Y-105778633D02*
G01*
X127986695Y-105830931D01*
X128145583Y-105915858D01*
X128284849Y-106030151D01*
X128399142Y-106169417D01*
X128484069Y-106328305D01*
X128536367Y-106500706D01*
X128554025Y-106680000D01*
X128536367Y-106859294D01*
X128484069Y-107031695D01*
X128399142Y-107190583D01*
X128284849Y-107329849D01*
X128145583Y-107444142D01*
X127986695Y-107529069D01*
X127814294Y-107581367D01*
X127679931Y-107594600D01*
X127590069Y-107594600D01*
X127455706Y-107581367D01*
X127283305Y-107529069D01*
X127124417Y-107444142D01*
X126985151Y-107329849D01*
X126870858Y-107190583D01*
X126785931Y-107031695D01*
X126733633Y-106859294D01*
X126715975Y-106680000D01*
X126733633Y-106500706D01*
X126785931Y-106328305D01*
X126870858Y-106169417D01*
X126985151Y-106030151D01*
X127124417Y-105915858D01*
X127283305Y-105830931D01*
X127455706Y-105778633D01*
X127590069Y-105765400D01*
X127679931Y-105765400D01*
X127814294Y-105778633D01*
X127814294Y-105778633D01*
G37*
G36*
X157659294Y-105778633D02*
G01*
X157831695Y-105830931D01*
X157990583Y-105915858D01*
X158129849Y-106030151D01*
X158244142Y-106169417D01*
X158329069Y-106328305D01*
X158381367Y-106500706D01*
X158399025Y-106680000D01*
X158381367Y-106859294D01*
X158329069Y-107031695D01*
X158244142Y-107190583D01*
X158129849Y-107329849D01*
X157990583Y-107444142D01*
X157831695Y-107529069D01*
X157659294Y-107581367D01*
X157524931Y-107594600D01*
X157435069Y-107594600D01*
X157300706Y-107581367D01*
X157128305Y-107529069D01*
X156969417Y-107444142D01*
X156830151Y-107329849D01*
X156715858Y-107190583D01*
X156630931Y-107031695D01*
X156578633Y-106859294D01*
X156560975Y-106680000D01*
X156578633Y-106500706D01*
X156630931Y-106328305D01*
X156715858Y-106169417D01*
X156830151Y-106030151D01*
X156969417Y-105915858D01*
X157128305Y-105830931D01*
X157300706Y-105778633D01*
X157435069Y-105765400D01*
X157524931Y-105765400D01*
X157659294Y-105778633D01*
X157659294Y-105778633D01*
G37*
G36*
X150039294Y-105778633D02*
G01*
X150211695Y-105830931D01*
X150370583Y-105915858D01*
X150509849Y-106030151D01*
X150624142Y-106169417D01*
X150709069Y-106328305D01*
X150761367Y-106500706D01*
X150779025Y-106680000D01*
X150761367Y-106859294D01*
X150709069Y-107031695D01*
X150624142Y-107190583D01*
X150509849Y-107329849D01*
X150370583Y-107444142D01*
X150211695Y-107529069D01*
X150039294Y-107581367D01*
X149904931Y-107594600D01*
X149815069Y-107594600D01*
X149680706Y-107581367D01*
X149508305Y-107529069D01*
X149349417Y-107444142D01*
X149210151Y-107329849D01*
X149095858Y-107190583D01*
X149010931Y-107031695D01*
X148958633Y-106859294D01*
X148940975Y-106680000D01*
X148958633Y-106500706D01*
X149010931Y-106328305D01*
X149095858Y-106169417D01*
X149210151Y-106030151D01*
X149349417Y-105915858D01*
X149508305Y-105830931D01*
X149680706Y-105778633D01*
X149815069Y-105765400D01*
X149904931Y-105765400D01*
X150039294Y-105778633D01*
X150039294Y-105778633D01*
G37*
G36*
X152579294Y-105778633D02*
G01*
X152751695Y-105830931D01*
X152910583Y-105915858D01*
X153049849Y-106030151D01*
X153164142Y-106169417D01*
X153249069Y-106328305D01*
X153301367Y-106500706D01*
X153319025Y-106680000D01*
X153301367Y-106859294D01*
X153249069Y-107031695D01*
X153164142Y-107190583D01*
X153049849Y-107329849D01*
X152910583Y-107444142D01*
X152751695Y-107529069D01*
X152579294Y-107581367D01*
X152444931Y-107594600D01*
X152355069Y-107594600D01*
X152220706Y-107581367D01*
X152048305Y-107529069D01*
X151889417Y-107444142D01*
X151750151Y-107329849D01*
X151635858Y-107190583D01*
X151550931Y-107031695D01*
X151498633Y-106859294D01*
X151480975Y-106680000D01*
X151498633Y-106500706D01*
X151550931Y-106328305D01*
X151635858Y-106169417D01*
X151750151Y-106030151D01*
X151889417Y-105915858D01*
X152048305Y-105830931D01*
X152220706Y-105778633D01*
X152355069Y-105765400D01*
X152444931Y-105765400D01*
X152579294Y-105778633D01*
X152579294Y-105778633D01*
G37*
G36*
X155119294Y-105778633D02*
G01*
X155291695Y-105830931D01*
X155450583Y-105915858D01*
X155589849Y-106030151D01*
X155704142Y-106169417D01*
X155789069Y-106328305D01*
X155841367Y-106500706D01*
X155859025Y-106680000D01*
X155841367Y-106859294D01*
X155789069Y-107031695D01*
X155704142Y-107190583D01*
X155589849Y-107329849D01*
X155450583Y-107444142D01*
X155291695Y-107529069D01*
X155119294Y-107581367D01*
X154984931Y-107594600D01*
X154895069Y-107594600D01*
X154760706Y-107581367D01*
X154588305Y-107529069D01*
X154429417Y-107444142D01*
X154290151Y-107329849D01*
X154175858Y-107190583D01*
X154090931Y-107031695D01*
X154038633Y-106859294D01*
X154020975Y-106680000D01*
X154038633Y-106500706D01*
X154090931Y-106328305D01*
X154175858Y-106169417D01*
X154290151Y-106030151D01*
X154429417Y-105915858D01*
X154588305Y-105830931D01*
X154760706Y-105778633D01*
X154895069Y-105765400D01*
X154984931Y-105765400D01*
X155119294Y-105778633D01*
X155119294Y-105778633D01*
G37*
G36*
X141243600Y-105782989D02*
G01*
X141276652Y-105793015D01*
X141307103Y-105809292D01*
X141333799Y-105831201D01*
X141355708Y-105857897D01*
X141371985Y-105888348D01*
X141382011Y-105921400D01*
X141386000Y-105961903D01*
X141386000Y-107398097D01*
X141382011Y-107438600D01*
X141371985Y-107471652D01*
X141355708Y-107502103D01*
X141333799Y-107528799D01*
X141307103Y-107550708D01*
X141276652Y-107566985D01*
X141243600Y-107577011D01*
X141203097Y-107581000D01*
X139466903Y-107581000D01*
X139426400Y-107577011D01*
X139393348Y-107566985D01*
X139362897Y-107550708D01*
X139336201Y-107528799D01*
X139314292Y-107502103D01*
X139298015Y-107471652D01*
X139287989Y-107438600D01*
X139284000Y-107398097D01*
X139284000Y-105961903D01*
X139287989Y-105921400D01*
X139298015Y-105888348D01*
X139314292Y-105857897D01*
X139336201Y-105831201D01*
X139362897Y-105809292D01*
X139393348Y-105793015D01*
X139426400Y-105782989D01*
X139466903Y-105779000D01*
X141203097Y-105779000D01*
X141243600Y-105782989D01*
X141243600Y-105782989D01*
G37*
M02*
