G04 #@! TF.GenerationSoftware,KiCad,Pcbnew,(5.1.2)-2*
G04 #@! TF.CreationDate,2021-07-01T16:30:17+09:00*
G04 #@! TF.ProjectId,stepper_tokutyu,73746570-7065-4725-9f74-6f6b75747975,rev?*
G04 #@! TF.SameCoordinates,Original*
G04 #@! TF.FileFunction,Copper,L2,Bot*
G04 #@! TF.FilePolarity,Positive*
%FSLAX46Y46*%
G04 Gerber Fmt 4.6, Leading zero omitted, Abs format (unit mm)*
G04 Created by KiCad (PCBNEW (5.1.2)-2) date 2021-07-01 16:30:17*
%MOMM*%
%LPD*%
G04 APERTURE LIST*
%ADD10R,1.600000X1.600000*%
%ADD11C,1.600000*%
%ADD12C,0.100000*%
%ADD13C,1.700000*%
%ADD14O,2.000000X1.700000*%
%ADD15O,1.727200X1.727200*%
%ADD16R,1.727200X1.727200*%
%ADD17O,1.700000X2.000000*%
%ADD18O,1.700000X1.950000*%
%ADD19C,0.875000*%
%ADD20R,2.000000X1.905000*%
%ADD21O,2.000000X1.905000*%
%ADD22C,1.524000*%
%ADD23O,1.600000X1.600000*%
%ADD24R,1.800000X1.800000*%
%ADD25C,1.800000*%
%ADD26C,0.800000*%
%ADD27C,1.000000*%
%ADD28C,0.300000*%
%ADD29C,0.254000*%
G04 APERTURE END LIST*
D10*
X117475000Y-117475000D03*
D11*
X119975000Y-117475000D03*
D10*
X113030000Y-137160000D03*
D11*
X111030000Y-137160000D03*
D12*
G36*
X111899504Y-127381204D02*
G01*
X111923773Y-127384804D01*
X111947571Y-127390765D01*
X111970671Y-127399030D01*
X111992849Y-127409520D01*
X112013893Y-127422133D01*
X112033598Y-127436747D01*
X112051777Y-127453223D01*
X112068253Y-127471402D01*
X112082867Y-127491107D01*
X112095480Y-127512151D01*
X112105970Y-127534329D01*
X112114235Y-127557429D01*
X112120196Y-127581227D01*
X112123796Y-127605496D01*
X112125000Y-127630000D01*
X112125000Y-128830000D01*
X112123796Y-128854504D01*
X112120196Y-128878773D01*
X112114235Y-128902571D01*
X112105970Y-128925671D01*
X112095480Y-128947849D01*
X112082867Y-128968893D01*
X112068253Y-128988598D01*
X112051777Y-129006777D01*
X112033598Y-129023253D01*
X112013893Y-129037867D01*
X111992849Y-129050480D01*
X111970671Y-129060970D01*
X111947571Y-129069235D01*
X111923773Y-129075196D01*
X111899504Y-129078796D01*
X111875000Y-129080000D01*
X110375000Y-129080000D01*
X110350496Y-129078796D01*
X110326227Y-129075196D01*
X110302429Y-129069235D01*
X110279329Y-129060970D01*
X110257151Y-129050480D01*
X110236107Y-129037867D01*
X110216402Y-129023253D01*
X110198223Y-129006777D01*
X110181747Y-128988598D01*
X110167133Y-128968893D01*
X110154520Y-128947849D01*
X110144030Y-128925671D01*
X110135765Y-128902571D01*
X110129804Y-128878773D01*
X110126204Y-128854504D01*
X110125000Y-128830000D01*
X110125000Y-127630000D01*
X110126204Y-127605496D01*
X110129804Y-127581227D01*
X110135765Y-127557429D01*
X110144030Y-127534329D01*
X110154520Y-127512151D01*
X110167133Y-127491107D01*
X110181747Y-127471402D01*
X110198223Y-127453223D01*
X110216402Y-127436747D01*
X110236107Y-127422133D01*
X110257151Y-127409520D01*
X110279329Y-127399030D01*
X110302429Y-127390765D01*
X110326227Y-127384804D01*
X110350496Y-127381204D01*
X110375000Y-127380000D01*
X111875000Y-127380000D01*
X111899504Y-127381204D01*
X111899504Y-127381204D01*
G37*
D13*
X111125000Y-128230000D03*
D14*
X111125000Y-125730000D03*
D15*
X170815000Y-132715000D03*
X168275000Y-132715000D03*
X170815000Y-130175000D03*
X168275000Y-130175000D03*
X170815000Y-127635000D03*
X168275000Y-127635000D03*
X170815000Y-125095000D03*
X168275000Y-125095000D03*
X170815000Y-122555000D03*
D16*
X168275000Y-122555000D03*
D12*
G36*
X141109504Y-105831204D02*
G01*
X141133773Y-105834804D01*
X141157571Y-105840765D01*
X141180671Y-105849030D01*
X141202849Y-105859520D01*
X141223893Y-105872133D01*
X141243598Y-105886747D01*
X141261777Y-105903223D01*
X141278253Y-105921402D01*
X141292867Y-105941107D01*
X141305480Y-105962151D01*
X141315970Y-105984329D01*
X141324235Y-106007429D01*
X141330196Y-106031227D01*
X141333796Y-106055496D01*
X141335000Y-106080000D01*
X141335000Y-107280000D01*
X141333796Y-107304504D01*
X141330196Y-107328773D01*
X141324235Y-107352571D01*
X141315970Y-107375671D01*
X141305480Y-107397849D01*
X141292867Y-107418893D01*
X141278253Y-107438598D01*
X141261777Y-107456777D01*
X141243598Y-107473253D01*
X141223893Y-107487867D01*
X141202849Y-107500480D01*
X141180671Y-107510970D01*
X141157571Y-107519235D01*
X141133773Y-107525196D01*
X141109504Y-107528796D01*
X141085000Y-107530000D01*
X139585000Y-107530000D01*
X139560496Y-107528796D01*
X139536227Y-107525196D01*
X139512429Y-107519235D01*
X139489329Y-107510970D01*
X139467151Y-107500480D01*
X139446107Y-107487867D01*
X139426402Y-107473253D01*
X139408223Y-107456777D01*
X139391747Y-107438598D01*
X139377133Y-107418893D01*
X139364520Y-107397849D01*
X139354030Y-107375671D01*
X139345765Y-107352571D01*
X139339804Y-107328773D01*
X139336204Y-107304504D01*
X139335000Y-107280000D01*
X139335000Y-106080000D01*
X139336204Y-106055496D01*
X139339804Y-106031227D01*
X139345765Y-106007429D01*
X139354030Y-105984329D01*
X139364520Y-105962151D01*
X139377133Y-105941107D01*
X139391747Y-105921402D01*
X139408223Y-105903223D01*
X139426402Y-105886747D01*
X139446107Y-105872133D01*
X139467151Y-105859520D01*
X139489329Y-105849030D01*
X139512429Y-105840765D01*
X139536227Y-105834804D01*
X139560496Y-105831204D01*
X139585000Y-105830000D01*
X141085000Y-105830000D01*
X141109504Y-105831204D01*
X141109504Y-105831204D01*
G37*
D13*
X140335000Y-106680000D03*
D14*
X140335000Y-109180000D03*
X158750000Y-120690000D03*
D12*
G36*
X159524504Y-122341204D02*
G01*
X159548773Y-122344804D01*
X159572571Y-122350765D01*
X159595671Y-122359030D01*
X159617849Y-122369520D01*
X159638893Y-122382133D01*
X159658598Y-122396747D01*
X159676777Y-122413223D01*
X159693253Y-122431402D01*
X159707867Y-122451107D01*
X159720480Y-122472151D01*
X159730970Y-122494329D01*
X159739235Y-122517429D01*
X159745196Y-122541227D01*
X159748796Y-122565496D01*
X159750000Y-122590000D01*
X159750000Y-123790000D01*
X159748796Y-123814504D01*
X159745196Y-123838773D01*
X159739235Y-123862571D01*
X159730970Y-123885671D01*
X159720480Y-123907849D01*
X159707867Y-123928893D01*
X159693253Y-123948598D01*
X159676777Y-123966777D01*
X159658598Y-123983253D01*
X159638893Y-123997867D01*
X159617849Y-124010480D01*
X159595671Y-124020970D01*
X159572571Y-124029235D01*
X159548773Y-124035196D01*
X159524504Y-124038796D01*
X159500000Y-124040000D01*
X158000000Y-124040000D01*
X157975496Y-124038796D01*
X157951227Y-124035196D01*
X157927429Y-124029235D01*
X157904329Y-124020970D01*
X157882151Y-124010480D01*
X157861107Y-123997867D01*
X157841402Y-123983253D01*
X157823223Y-123966777D01*
X157806747Y-123948598D01*
X157792133Y-123928893D01*
X157779520Y-123907849D01*
X157769030Y-123885671D01*
X157760765Y-123862571D01*
X157754804Y-123838773D01*
X157751204Y-123814504D01*
X157750000Y-123790000D01*
X157750000Y-122590000D01*
X157751204Y-122565496D01*
X157754804Y-122541227D01*
X157760765Y-122517429D01*
X157769030Y-122494329D01*
X157779520Y-122472151D01*
X157792133Y-122451107D01*
X157806747Y-122431402D01*
X157823223Y-122413223D01*
X157841402Y-122396747D01*
X157861107Y-122382133D01*
X157882151Y-122369520D01*
X157904329Y-122359030D01*
X157927429Y-122350765D01*
X157951227Y-122344804D01*
X157975496Y-122341204D01*
X158000000Y-122340000D01*
X159500000Y-122340000D01*
X159524504Y-122341204D01*
X159524504Y-122341204D01*
G37*
D13*
X158750000Y-123190000D03*
D17*
X149820000Y-136525000D03*
D12*
G36*
X147944504Y-135526204D02*
G01*
X147968773Y-135529804D01*
X147992571Y-135535765D01*
X148015671Y-135544030D01*
X148037849Y-135554520D01*
X148058893Y-135567133D01*
X148078598Y-135581747D01*
X148096777Y-135598223D01*
X148113253Y-135616402D01*
X148127867Y-135636107D01*
X148140480Y-135657151D01*
X148150970Y-135679329D01*
X148159235Y-135702429D01*
X148165196Y-135726227D01*
X148168796Y-135750496D01*
X148170000Y-135775000D01*
X148170000Y-137275000D01*
X148168796Y-137299504D01*
X148165196Y-137323773D01*
X148159235Y-137347571D01*
X148150970Y-137370671D01*
X148140480Y-137392849D01*
X148127867Y-137413893D01*
X148113253Y-137433598D01*
X148096777Y-137451777D01*
X148078598Y-137468253D01*
X148058893Y-137482867D01*
X148037849Y-137495480D01*
X148015671Y-137505970D01*
X147992571Y-137514235D01*
X147968773Y-137520196D01*
X147944504Y-137523796D01*
X147920000Y-137525000D01*
X146720000Y-137525000D01*
X146695496Y-137523796D01*
X146671227Y-137520196D01*
X146647429Y-137514235D01*
X146624329Y-137505970D01*
X146602151Y-137495480D01*
X146581107Y-137482867D01*
X146561402Y-137468253D01*
X146543223Y-137451777D01*
X146526747Y-137433598D01*
X146512133Y-137413893D01*
X146499520Y-137392849D01*
X146489030Y-137370671D01*
X146480765Y-137347571D01*
X146474804Y-137323773D01*
X146471204Y-137299504D01*
X146470000Y-137275000D01*
X146470000Y-135775000D01*
X146471204Y-135750496D01*
X146474804Y-135726227D01*
X146480765Y-135702429D01*
X146489030Y-135679329D01*
X146499520Y-135657151D01*
X146512133Y-135636107D01*
X146526747Y-135616402D01*
X146543223Y-135598223D01*
X146561402Y-135581747D01*
X146581107Y-135567133D01*
X146602151Y-135554520D01*
X146624329Y-135544030D01*
X146647429Y-135535765D01*
X146671227Y-135529804D01*
X146695496Y-135526204D01*
X146720000Y-135525000D01*
X147920000Y-135525000D01*
X147944504Y-135526204D01*
X147944504Y-135526204D01*
G37*
D13*
X147320000Y-136525000D03*
D12*
G36*
X147944504Y-126636204D02*
G01*
X147968773Y-126639804D01*
X147992571Y-126645765D01*
X148015671Y-126654030D01*
X148037849Y-126664520D01*
X148058893Y-126677133D01*
X148078598Y-126691747D01*
X148096777Y-126708223D01*
X148113253Y-126726402D01*
X148127867Y-126746107D01*
X148140480Y-126767151D01*
X148150970Y-126789329D01*
X148159235Y-126812429D01*
X148165196Y-126836227D01*
X148168796Y-126860496D01*
X148170000Y-126885000D01*
X148170000Y-128385000D01*
X148168796Y-128409504D01*
X148165196Y-128433773D01*
X148159235Y-128457571D01*
X148150970Y-128480671D01*
X148140480Y-128502849D01*
X148127867Y-128523893D01*
X148113253Y-128543598D01*
X148096777Y-128561777D01*
X148078598Y-128578253D01*
X148058893Y-128592867D01*
X148037849Y-128605480D01*
X148015671Y-128615970D01*
X147992571Y-128624235D01*
X147968773Y-128630196D01*
X147944504Y-128633796D01*
X147920000Y-128635000D01*
X146720000Y-128635000D01*
X146695496Y-128633796D01*
X146671227Y-128630196D01*
X146647429Y-128624235D01*
X146624329Y-128615970D01*
X146602151Y-128605480D01*
X146581107Y-128592867D01*
X146561402Y-128578253D01*
X146543223Y-128561777D01*
X146526747Y-128543598D01*
X146512133Y-128523893D01*
X146499520Y-128502849D01*
X146489030Y-128480671D01*
X146480765Y-128457571D01*
X146474804Y-128433773D01*
X146471204Y-128409504D01*
X146470000Y-128385000D01*
X146470000Y-126885000D01*
X146471204Y-126860496D01*
X146474804Y-126836227D01*
X146480765Y-126812429D01*
X146489030Y-126789329D01*
X146499520Y-126767151D01*
X146512133Y-126746107D01*
X146526747Y-126726402D01*
X146543223Y-126708223D01*
X146561402Y-126691747D01*
X146581107Y-126677133D01*
X146602151Y-126664520D01*
X146624329Y-126654030D01*
X146647429Y-126645765D01*
X146671227Y-126639804D01*
X146695496Y-126636204D01*
X146720000Y-126635000D01*
X147920000Y-126635000D01*
X147944504Y-126636204D01*
X147944504Y-126636204D01*
G37*
D13*
X147320000Y-127635000D03*
D17*
X149820000Y-127635000D03*
D12*
G36*
X159524504Y-133771204D02*
G01*
X159548773Y-133774804D01*
X159572571Y-133780765D01*
X159595671Y-133789030D01*
X159617849Y-133799520D01*
X159638893Y-133812133D01*
X159658598Y-133826747D01*
X159676777Y-133843223D01*
X159693253Y-133861402D01*
X159707867Y-133881107D01*
X159720480Y-133902151D01*
X159730970Y-133924329D01*
X159739235Y-133947429D01*
X159745196Y-133971227D01*
X159748796Y-133995496D01*
X159750000Y-134020000D01*
X159750000Y-135220000D01*
X159748796Y-135244504D01*
X159745196Y-135268773D01*
X159739235Y-135292571D01*
X159730970Y-135315671D01*
X159720480Y-135337849D01*
X159707867Y-135358893D01*
X159693253Y-135378598D01*
X159676777Y-135396777D01*
X159658598Y-135413253D01*
X159638893Y-135427867D01*
X159617849Y-135440480D01*
X159595671Y-135450970D01*
X159572571Y-135459235D01*
X159548773Y-135465196D01*
X159524504Y-135468796D01*
X159500000Y-135470000D01*
X158000000Y-135470000D01*
X157975496Y-135468796D01*
X157951227Y-135465196D01*
X157927429Y-135459235D01*
X157904329Y-135450970D01*
X157882151Y-135440480D01*
X157861107Y-135427867D01*
X157841402Y-135413253D01*
X157823223Y-135396777D01*
X157806747Y-135378598D01*
X157792133Y-135358893D01*
X157779520Y-135337849D01*
X157769030Y-135315671D01*
X157760765Y-135292571D01*
X157754804Y-135268773D01*
X157751204Y-135244504D01*
X157750000Y-135220000D01*
X157750000Y-134020000D01*
X157751204Y-133995496D01*
X157754804Y-133971227D01*
X157760765Y-133947429D01*
X157769030Y-133924329D01*
X157779520Y-133902151D01*
X157792133Y-133881107D01*
X157806747Y-133861402D01*
X157823223Y-133843223D01*
X157841402Y-133826747D01*
X157861107Y-133812133D01*
X157882151Y-133799520D01*
X157904329Y-133789030D01*
X157927429Y-133780765D01*
X157951227Y-133774804D01*
X157975496Y-133771204D01*
X158000000Y-133770000D01*
X159500000Y-133770000D01*
X159524504Y-133771204D01*
X159524504Y-133771204D01*
G37*
D13*
X158750000Y-134620000D03*
D14*
X158750000Y-132120000D03*
D17*
X149820000Y-118745000D03*
D12*
G36*
X147944504Y-117746204D02*
G01*
X147968773Y-117749804D01*
X147992571Y-117755765D01*
X148015671Y-117764030D01*
X148037849Y-117774520D01*
X148058893Y-117787133D01*
X148078598Y-117801747D01*
X148096777Y-117818223D01*
X148113253Y-117836402D01*
X148127867Y-117856107D01*
X148140480Y-117877151D01*
X148150970Y-117899329D01*
X148159235Y-117922429D01*
X148165196Y-117946227D01*
X148168796Y-117970496D01*
X148170000Y-117995000D01*
X148170000Y-119495000D01*
X148168796Y-119519504D01*
X148165196Y-119543773D01*
X148159235Y-119567571D01*
X148150970Y-119590671D01*
X148140480Y-119612849D01*
X148127867Y-119633893D01*
X148113253Y-119653598D01*
X148096777Y-119671777D01*
X148078598Y-119688253D01*
X148058893Y-119702867D01*
X148037849Y-119715480D01*
X148015671Y-119725970D01*
X147992571Y-119734235D01*
X147968773Y-119740196D01*
X147944504Y-119743796D01*
X147920000Y-119745000D01*
X146720000Y-119745000D01*
X146695496Y-119743796D01*
X146671227Y-119740196D01*
X146647429Y-119734235D01*
X146624329Y-119725970D01*
X146602151Y-119715480D01*
X146581107Y-119702867D01*
X146561402Y-119688253D01*
X146543223Y-119671777D01*
X146526747Y-119653598D01*
X146512133Y-119633893D01*
X146499520Y-119612849D01*
X146489030Y-119590671D01*
X146480765Y-119567571D01*
X146474804Y-119543773D01*
X146471204Y-119519504D01*
X146470000Y-119495000D01*
X146470000Y-117995000D01*
X146471204Y-117970496D01*
X146474804Y-117946227D01*
X146480765Y-117922429D01*
X146489030Y-117899329D01*
X146499520Y-117877151D01*
X146512133Y-117856107D01*
X146526747Y-117836402D01*
X146543223Y-117818223D01*
X146561402Y-117801747D01*
X146581107Y-117787133D01*
X146602151Y-117774520D01*
X146624329Y-117764030D01*
X146647429Y-117755765D01*
X146671227Y-117749804D01*
X146695496Y-117746204D01*
X146720000Y-117745000D01*
X147920000Y-117745000D01*
X147944504Y-117746204D01*
X147944504Y-117746204D01*
G37*
D13*
X147320000Y-118745000D03*
D16*
X149860000Y-109220000D03*
D15*
X149860000Y-106680000D03*
X152400000Y-109220000D03*
X152400000Y-106680000D03*
X154940000Y-109220000D03*
X154940000Y-106680000D03*
X157480000Y-109220000D03*
X157480000Y-106680000D03*
X160020000Y-109220000D03*
X160020000Y-106680000D03*
D17*
X149820000Y-146685000D03*
D12*
G36*
X147944504Y-145686204D02*
G01*
X147968773Y-145689804D01*
X147992571Y-145695765D01*
X148015671Y-145704030D01*
X148037849Y-145714520D01*
X148058893Y-145727133D01*
X148078598Y-145741747D01*
X148096777Y-145758223D01*
X148113253Y-145776402D01*
X148127867Y-145796107D01*
X148140480Y-145817151D01*
X148150970Y-145839329D01*
X148159235Y-145862429D01*
X148165196Y-145886227D01*
X148168796Y-145910496D01*
X148170000Y-145935000D01*
X148170000Y-147435000D01*
X148168796Y-147459504D01*
X148165196Y-147483773D01*
X148159235Y-147507571D01*
X148150970Y-147530671D01*
X148140480Y-147552849D01*
X148127867Y-147573893D01*
X148113253Y-147593598D01*
X148096777Y-147611777D01*
X148078598Y-147628253D01*
X148058893Y-147642867D01*
X148037849Y-147655480D01*
X148015671Y-147665970D01*
X147992571Y-147674235D01*
X147968773Y-147680196D01*
X147944504Y-147683796D01*
X147920000Y-147685000D01*
X146720000Y-147685000D01*
X146695496Y-147683796D01*
X146671227Y-147680196D01*
X146647429Y-147674235D01*
X146624329Y-147665970D01*
X146602151Y-147655480D01*
X146581107Y-147642867D01*
X146561402Y-147628253D01*
X146543223Y-147611777D01*
X146526747Y-147593598D01*
X146512133Y-147573893D01*
X146499520Y-147552849D01*
X146489030Y-147530671D01*
X146480765Y-147507571D01*
X146474804Y-147483773D01*
X146471204Y-147459504D01*
X146470000Y-147435000D01*
X146470000Y-145935000D01*
X146471204Y-145910496D01*
X146474804Y-145886227D01*
X146480765Y-145862429D01*
X146489030Y-145839329D01*
X146499520Y-145817151D01*
X146512133Y-145796107D01*
X146526747Y-145776402D01*
X146543223Y-145758223D01*
X146561402Y-145741747D01*
X146581107Y-145727133D01*
X146602151Y-145714520D01*
X146624329Y-145704030D01*
X146647429Y-145695765D01*
X146671227Y-145689804D01*
X146695496Y-145686204D01*
X146720000Y-145685000D01*
X147920000Y-145685000D01*
X147944504Y-145686204D01*
X147944504Y-145686204D01*
G37*
D13*
X147320000Y-146685000D03*
D12*
G36*
X157469504Y-145686204D02*
G01*
X157493773Y-145689804D01*
X157517571Y-145695765D01*
X157540671Y-145704030D01*
X157562849Y-145714520D01*
X157583893Y-145727133D01*
X157603598Y-145741747D01*
X157621777Y-145758223D01*
X157638253Y-145776402D01*
X157652867Y-145796107D01*
X157665480Y-145817151D01*
X157675970Y-145839329D01*
X157684235Y-145862429D01*
X157690196Y-145886227D01*
X157693796Y-145910496D01*
X157695000Y-145935000D01*
X157695000Y-147435000D01*
X157693796Y-147459504D01*
X157690196Y-147483773D01*
X157684235Y-147507571D01*
X157675970Y-147530671D01*
X157665480Y-147552849D01*
X157652867Y-147573893D01*
X157638253Y-147593598D01*
X157621777Y-147611777D01*
X157603598Y-147628253D01*
X157583893Y-147642867D01*
X157562849Y-147655480D01*
X157540671Y-147665970D01*
X157517571Y-147674235D01*
X157493773Y-147680196D01*
X157469504Y-147683796D01*
X157445000Y-147685000D01*
X156245000Y-147685000D01*
X156220496Y-147683796D01*
X156196227Y-147680196D01*
X156172429Y-147674235D01*
X156149329Y-147665970D01*
X156127151Y-147655480D01*
X156106107Y-147642867D01*
X156086402Y-147628253D01*
X156068223Y-147611777D01*
X156051747Y-147593598D01*
X156037133Y-147573893D01*
X156024520Y-147552849D01*
X156014030Y-147530671D01*
X156005765Y-147507571D01*
X155999804Y-147483773D01*
X155996204Y-147459504D01*
X155995000Y-147435000D01*
X155995000Y-145935000D01*
X155996204Y-145910496D01*
X155999804Y-145886227D01*
X156005765Y-145862429D01*
X156014030Y-145839329D01*
X156024520Y-145817151D01*
X156037133Y-145796107D01*
X156051747Y-145776402D01*
X156068223Y-145758223D01*
X156086402Y-145741747D01*
X156106107Y-145727133D01*
X156127151Y-145714520D01*
X156149329Y-145704030D01*
X156172429Y-145695765D01*
X156196227Y-145689804D01*
X156220496Y-145686204D01*
X156245000Y-145685000D01*
X157445000Y-145685000D01*
X157469504Y-145686204D01*
X157469504Y-145686204D01*
G37*
D13*
X156845000Y-146685000D03*
D17*
X159345000Y-146685000D03*
D16*
X120015000Y-109220000D03*
D15*
X120015000Y-106680000D03*
X122555000Y-109220000D03*
X122555000Y-106680000D03*
X125095000Y-109220000D03*
X125095000Y-106680000D03*
X127635000Y-109220000D03*
X127635000Y-106680000D03*
X130175000Y-109220000D03*
X130175000Y-106680000D03*
D12*
G36*
X115639504Y-146346204D02*
G01*
X115663773Y-146349804D01*
X115687571Y-146355765D01*
X115710671Y-146364030D01*
X115732849Y-146374520D01*
X115753893Y-146387133D01*
X115773598Y-146401747D01*
X115791777Y-146418223D01*
X115808253Y-146436402D01*
X115822867Y-146456107D01*
X115835480Y-146477151D01*
X115845970Y-146499329D01*
X115854235Y-146522429D01*
X115860196Y-146546227D01*
X115863796Y-146570496D01*
X115865000Y-146595000D01*
X115865000Y-148045000D01*
X115863796Y-148069504D01*
X115860196Y-148093773D01*
X115854235Y-148117571D01*
X115845970Y-148140671D01*
X115835480Y-148162849D01*
X115822867Y-148183893D01*
X115808253Y-148203598D01*
X115791777Y-148221777D01*
X115773598Y-148238253D01*
X115753893Y-148252867D01*
X115732849Y-148265480D01*
X115710671Y-148275970D01*
X115687571Y-148284235D01*
X115663773Y-148290196D01*
X115639504Y-148293796D01*
X115615000Y-148295000D01*
X114415000Y-148295000D01*
X114390496Y-148293796D01*
X114366227Y-148290196D01*
X114342429Y-148284235D01*
X114319329Y-148275970D01*
X114297151Y-148265480D01*
X114276107Y-148252867D01*
X114256402Y-148238253D01*
X114238223Y-148221777D01*
X114221747Y-148203598D01*
X114207133Y-148183893D01*
X114194520Y-148162849D01*
X114184030Y-148140671D01*
X114175765Y-148117571D01*
X114169804Y-148093773D01*
X114166204Y-148069504D01*
X114165000Y-148045000D01*
X114165000Y-146595000D01*
X114166204Y-146570496D01*
X114169804Y-146546227D01*
X114175765Y-146522429D01*
X114184030Y-146499329D01*
X114194520Y-146477151D01*
X114207133Y-146456107D01*
X114221747Y-146436402D01*
X114238223Y-146418223D01*
X114256402Y-146401747D01*
X114276107Y-146387133D01*
X114297151Y-146374520D01*
X114319329Y-146364030D01*
X114342429Y-146355765D01*
X114366227Y-146349804D01*
X114390496Y-146346204D01*
X114415000Y-146345000D01*
X115615000Y-146345000D01*
X115639504Y-146346204D01*
X115639504Y-146346204D01*
G37*
D13*
X115015000Y-147320000D03*
D18*
X117515000Y-147320000D03*
X120015000Y-147320000D03*
D12*
G36*
X152640691Y-136051053D02*
G01*
X152661926Y-136054203D01*
X152682750Y-136059419D01*
X152702962Y-136066651D01*
X152722368Y-136075830D01*
X152740781Y-136086866D01*
X152758024Y-136099654D01*
X152773930Y-136114070D01*
X152788346Y-136129976D01*
X152801134Y-136147219D01*
X152812170Y-136165632D01*
X152821349Y-136185038D01*
X152828581Y-136205250D01*
X152833797Y-136226074D01*
X152836947Y-136247309D01*
X152838000Y-136268750D01*
X152838000Y-136781250D01*
X152836947Y-136802691D01*
X152833797Y-136823926D01*
X152828581Y-136844750D01*
X152821349Y-136864962D01*
X152812170Y-136884368D01*
X152801134Y-136902781D01*
X152788346Y-136920024D01*
X152773930Y-136935930D01*
X152758024Y-136950346D01*
X152740781Y-136963134D01*
X152722368Y-136974170D01*
X152702962Y-136983349D01*
X152682750Y-136990581D01*
X152661926Y-136995797D01*
X152640691Y-136998947D01*
X152619250Y-137000000D01*
X152181750Y-137000000D01*
X152160309Y-136998947D01*
X152139074Y-136995797D01*
X152118250Y-136990581D01*
X152098038Y-136983349D01*
X152078632Y-136974170D01*
X152060219Y-136963134D01*
X152042976Y-136950346D01*
X152027070Y-136935930D01*
X152012654Y-136920024D01*
X151999866Y-136902781D01*
X151988830Y-136884368D01*
X151979651Y-136864962D01*
X151972419Y-136844750D01*
X151967203Y-136823926D01*
X151964053Y-136802691D01*
X151963000Y-136781250D01*
X151963000Y-136268750D01*
X151964053Y-136247309D01*
X151967203Y-136226074D01*
X151972419Y-136205250D01*
X151979651Y-136185038D01*
X151988830Y-136165632D01*
X151999866Y-136147219D01*
X152012654Y-136129976D01*
X152027070Y-136114070D01*
X152042976Y-136099654D01*
X152060219Y-136086866D01*
X152078632Y-136075830D01*
X152098038Y-136066651D01*
X152118250Y-136059419D01*
X152139074Y-136054203D01*
X152160309Y-136051053D01*
X152181750Y-136050000D01*
X152619250Y-136050000D01*
X152640691Y-136051053D01*
X152640691Y-136051053D01*
G37*
D19*
X152400500Y-136525000D03*
D12*
G36*
X154215691Y-136051053D02*
G01*
X154236926Y-136054203D01*
X154257750Y-136059419D01*
X154277962Y-136066651D01*
X154297368Y-136075830D01*
X154315781Y-136086866D01*
X154333024Y-136099654D01*
X154348930Y-136114070D01*
X154363346Y-136129976D01*
X154376134Y-136147219D01*
X154387170Y-136165632D01*
X154396349Y-136185038D01*
X154403581Y-136205250D01*
X154408797Y-136226074D01*
X154411947Y-136247309D01*
X154413000Y-136268750D01*
X154413000Y-136781250D01*
X154411947Y-136802691D01*
X154408797Y-136823926D01*
X154403581Y-136844750D01*
X154396349Y-136864962D01*
X154387170Y-136884368D01*
X154376134Y-136902781D01*
X154363346Y-136920024D01*
X154348930Y-136935930D01*
X154333024Y-136950346D01*
X154315781Y-136963134D01*
X154297368Y-136974170D01*
X154277962Y-136983349D01*
X154257750Y-136990581D01*
X154236926Y-136995797D01*
X154215691Y-136998947D01*
X154194250Y-137000000D01*
X153756750Y-137000000D01*
X153735309Y-136998947D01*
X153714074Y-136995797D01*
X153693250Y-136990581D01*
X153673038Y-136983349D01*
X153653632Y-136974170D01*
X153635219Y-136963134D01*
X153617976Y-136950346D01*
X153602070Y-136935930D01*
X153587654Y-136920024D01*
X153574866Y-136902781D01*
X153563830Y-136884368D01*
X153554651Y-136864962D01*
X153547419Y-136844750D01*
X153542203Y-136823926D01*
X153539053Y-136802691D01*
X153538000Y-136781250D01*
X153538000Y-136268750D01*
X153539053Y-136247309D01*
X153542203Y-136226074D01*
X153547419Y-136205250D01*
X153554651Y-136185038D01*
X153563830Y-136165632D01*
X153574866Y-136147219D01*
X153587654Y-136129976D01*
X153602070Y-136114070D01*
X153617976Y-136099654D01*
X153635219Y-136086866D01*
X153653632Y-136075830D01*
X153673038Y-136066651D01*
X153693250Y-136059419D01*
X153714074Y-136054203D01*
X153735309Y-136051053D01*
X153756750Y-136050000D01*
X154194250Y-136050000D01*
X154215691Y-136051053D01*
X154215691Y-136051053D01*
G37*
D19*
X153975500Y-136525000D03*
D12*
G36*
X154215691Y-127161053D02*
G01*
X154236926Y-127164203D01*
X154257750Y-127169419D01*
X154277962Y-127176651D01*
X154297368Y-127185830D01*
X154315781Y-127196866D01*
X154333024Y-127209654D01*
X154348930Y-127224070D01*
X154363346Y-127239976D01*
X154376134Y-127257219D01*
X154387170Y-127275632D01*
X154396349Y-127295038D01*
X154403581Y-127315250D01*
X154408797Y-127336074D01*
X154411947Y-127357309D01*
X154413000Y-127378750D01*
X154413000Y-127891250D01*
X154411947Y-127912691D01*
X154408797Y-127933926D01*
X154403581Y-127954750D01*
X154396349Y-127974962D01*
X154387170Y-127994368D01*
X154376134Y-128012781D01*
X154363346Y-128030024D01*
X154348930Y-128045930D01*
X154333024Y-128060346D01*
X154315781Y-128073134D01*
X154297368Y-128084170D01*
X154277962Y-128093349D01*
X154257750Y-128100581D01*
X154236926Y-128105797D01*
X154215691Y-128108947D01*
X154194250Y-128110000D01*
X153756750Y-128110000D01*
X153735309Y-128108947D01*
X153714074Y-128105797D01*
X153693250Y-128100581D01*
X153673038Y-128093349D01*
X153653632Y-128084170D01*
X153635219Y-128073134D01*
X153617976Y-128060346D01*
X153602070Y-128045930D01*
X153587654Y-128030024D01*
X153574866Y-128012781D01*
X153563830Y-127994368D01*
X153554651Y-127974962D01*
X153547419Y-127954750D01*
X153542203Y-127933926D01*
X153539053Y-127912691D01*
X153538000Y-127891250D01*
X153538000Y-127378750D01*
X153539053Y-127357309D01*
X153542203Y-127336074D01*
X153547419Y-127315250D01*
X153554651Y-127295038D01*
X153563830Y-127275632D01*
X153574866Y-127257219D01*
X153587654Y-127239976D01*
X153602070Y-127224070D01*
X153617976Y-127209654D01*
X153635219Y-127196866D01*
X153653632Y-127185830D01*
X153673038Y-127176651D01*
X153693250Y-127169419D01*
X153714074Y-127164203D01*
X153735309Y-127161053D01*
X153756750Y-127160000D01*
X154194250Y-127160000D01*
X154215691Y-127161053D01*
X154215691Y-127161053D01*
G37*
D19*
X153975500Y-127635000D03*
D12*
G36*
X152640691Y-127161053D02*
G01*
X152661926Y-127164203D01*
X152682750Y-127169419D01*
X152702962Y-127176651D01*
X152722368Y-127185830D01*
X152740781Y-127196866D01*
X152758024Y-127209654D01*
X152773930Y-127224070D01*
X152788346Y-127239976D01*
X152801134Y-127257219D01*
X152812170Y-127275632D01*
X152821349Y-127295038D01*
X152828581Y-127315250D01*
X152833797Y-127336074D01*
X152836947Y-127357309D01*
X152838000Y-127378750D01*
X152838000Y-127891250D01*
X152836947Y-127912691D01*
X152833797Y-127933926D01*
X152828581Y-127954750D01*
X152821349Y-127974962D01*
X152812170Y-127994368D01*
X152801134Y-128012781D01*
X152788346Y-128030024D01*
X152773930Y-128045930D01*
X152758024Y-128060346D01*
X152740781Y-128073134D01*
X152722368Y-128084170D01*
X152702962Y-128093349D01*
X152682750Y-128100581D01*
X152661926Y-128105797D01*
X152640691Y-128108947D01*
X152619250Y-128110000D01*
X152181750Y-128110000D01*
X152160309Y-128108947D01*
X152139074Y-128105797D01*
X152118250Y-128100581D01*
X152098038Y-128093349D01*
X152078632Y-128084170D01*
X152060219Y-128073134D01*
X152042976Y-128060346D01*
X152027070Y-128045930D01*
X152012654Y-128030024D01*
X151999866Y-128012781D01*
X151988830Y-127994368D01*
X151979651Y-127974962D01*
X151972419Y-127954750D01*
X151967203Y-127933926D01*
X151964053Y-127912691D01*
X151963000Y-127891250D01*
X151963000Y-127378750D01*
X151964053Y-127357309D01*
X151967203Y-127336074D01*
X151972419Y-127315250D01*
X151979651Y-127295038D01*
X151988830Y-127275632D01*
X151999866Y-127257219D01*
X152012654Y-127239976D01*
X152027070Y-127224070D01*
X152042976Y-127209654D01*
X152060219Y-127196866D01*
X152078632Y-127185830D01*
X152098038Y-127176651D01*
X152118250Y-127169419D01*
X152139074Y-127164203D01*
X152160309Y-127161053D01*
X152181750Y-127160000D01*
X152619250Y-127160000D01*
X152640691Y-127161053D01*
X152640691Y-127161053D01*
G37*
D19*
X152400500Y-127635000D03*
D12*
G36*
X154215691Y-118271053D02*
G01*
X154236926Y-118274203D01*
X154257750Y-118279419D01*
X154277962Y-118286651D01*
X154297368Y-118295830D01*
X154315781Y-118306866D01*
X154333024Y-118319654D01*
X154348930Y-118334070D01*
X154363346Y-118349976D01*
X154376134Y-118367219D01*
X154387170Y-118385632D01*
X154396349Y-118405038D01*
X154403581Y-118425250D01*
X154408797Y-118446074D01*
X154411947Y-118467309D01*
X154413000Y-118488750D01*
X154413000Y-119001250D01*
X154411947Y-119022691D01*
X154408797Y-119043926D01*
X154403581Y-119064750D01*
X154396349Y-119084962D01*
X154387170Y-119104368D01*
X154376134Y-119122781D01*
X154363346Y-119140024D01*
X154348930Y-119155930D01*
X154333024Y-119170346D01*
X154315781Y-119183134D01*
X154297368Y-119194170D01*
X154277962Y-119203349D01*
X154257750Y-119210581D01*
X154236926Y-119215797D01*
X154215691Y-119218947D01*
X154194250Y-119220000D01*
X153756750Y-119220000D01*
X153735309Y-119218947D01*
X153714074Y-119215797D01*
X153693250Y-119210581D01*
X153673038Y-119203349D01*
X153653632Y-119194170D01*
X153635219Y-119183134D01*
X153617976Y-119170346D01*
X153602070Y-119155930D01*
X153587654Y-119140024D01*
X153574866Y-119122781D01*
X153563830Y-119104368D01*
X153554651Y-119084962D01*
X153547419Y-119064750D01*
X153542203Y-119043926D01*
X153539053Y-119022691D01*
X153538000Y-119001250D01*
X153538000Y-118488750D01*
X153539053Y-118467309D01*
X153542203Y-118446074D01*
X153547419Y-118425250D01*
X153554651Y-118405038D01*
X153563830Y-118385632D01*
X153574866Y-118367219D01*
X153587654Y-118349976D01*
X153602070Y-118334070D01*
X153617976Y-118319654D01*
X153635219Y-118306866D01*
X153653632Y-118295830D01*
X153673038Y-118286651D01*
X153693250Y-118279419D01*
X153714074Y-118274203D01*
X153735309Y-118271053D01*
X153756750Y-118270000D01*
X154194250Y-118270000D01*
X154215691Y-118271053D01*
X154215691Y-118271053D01*
G37*
D19*
X153975500Y-118745000D03*
D12*
G36*
X152640691Y-118271053D02*
G01*
X152661926Y-118274203D01*
X152682750Y-118279419D01*
X152702962Y-118286651D01*
X152722368Y-118295830D01*
X152740781Y-118306866D01*
X152758024Y-118319654D01*
X152773930Y-118334070D01*
X152788346Y-118349976D01*
X152801134Y-118367219D01*
X152812170Y-118385632D01*
X152821349Y-118405038D01*
X152828581Y-118425250D01*
X152833797Y-118446074D01*
X152836947Y-118467309D01*
X152838000Y-118488750D01*
X152838000Y-119001250D01*
X152836947Y-119022691D01*
X152833797Y-119043926D01*
X152828581Y-119064750D01*
X152821349Y-119084962D01*
X152812170Y-119104368D01*
X152801134Y-119122781D01*
X152788346Y-119140024D01*
X152773930Y-119155930D01*
X152758024Y-119170346D01*
X152740781Y-119183134D01*
X152722368Y-119194170D01*
X152702962Y-119203349D01*
X152682750Y-119210581D01*
X152661926Y-119215797D01*
X152640691Y-119218947D01*
X152619250Y-119220000D01*
X152181750Y-119220000D01*
X152160309Y-119218947D01*
X152139074Y-119215797D01*
X152118250Y-119210581D01*
X152098038Y-119203349D01*
X152078632Y-119194170D01*
X152060219Y-119183134D01*
X152042976Y-119170346D01*
X152027070Y-119155930D01*
X152012654Y-119140024D01*
X151999866Y-119122781D01*
X151988830Y-119104368D01*
X151979651Y-119084962D01*
X151972419Y-119064750D01*
X151967203Y-119043926D01*
X151964053Y-119022691D01*
X151963000Y-119001250D01*
X151963000Y-118488750D01*
X151964053Y-118467309D01*
X151967203Y-118446074D01*
X151972419Y-118425250D01*
X151979651Y-118405038D01*
X151988830Y-118385632D01*
X151999866Y-118367219D01*
X152012654Y-118349976D01*
X152027070Y-118334070D01*
X152042976Y-118319654D01*
X152060219Y-118306866D01*
X152078632Y-118295830D01*
X152098038Y-118286651D01*
X152118250Y-118279419D01*
X152139074Y-118274203D01*
X152160309Y-118271053D01*
X152181750Y-118270000D01*
X152619250Y-118270000D01*
X152640691Y-118271053D01*
X152640691Y-118271053D01*
G37*
D19*
X152400500Y-118745000D03*
D12*
G36*
X113307691Y-143379053D02*
G01*
X113328926Y-143382203D01*
X113349750Y-143387419D01*
X113369962Y-143394651D01*
X113389368Y-143403830D01*
X113407781Y-143414866D01*
X113425024Y-143427654D01*
X113440930Y-143442070D01*
X113455346Y-143457976D01*
X113468134Y-143475219D01*
X113479170Y-143493632D01*
X113488349Y-143513038D01*
X113495581Y-143533250D01*
X113500797Y-143554074D01*
X113503947Y-143575309D01*
X113505000Y-143596750D01*
X113505000Y-144034250D01*
X113503947Y-144055691D01*
X113500797Y-144076926D01*
X113495581Y-144097750D01*
X113488349Y-144117962D01*
X113479170Y-144137368D01*
X113468134Y-144155781D01*
X113455346Y-144173024D01*
X113440930Y-144188930D01*
X113425024Y-144203346D01*
X113407781Y-144216134D01*
X113389368Y-144227170D01*
X113369962Y-144236349D01*
X113349750Y-144243581D01*
X113328926Y-144248797D01*
X113307691Y-144251947D01*
X113286250Y-144253000D01*
X112773750Y-144253000D01*
X112752309Y-144251947D01*
X112731074Y-144248797D01*
X112710250Y-144243581D01*
X112690038Y-144236349D01*
X112670632Y-144227170D01*
X112652219Y-144216134D01*
X112634976Y-144203346D01*
X112619070Y-144188930D01*
X112604654Y-144173024D01*
X112591866Y-144155781D01*
X112580830Y-144137368D01*
X112571651Y-144117962D01*
X112564419Y-144097750D01*
X112559203Y-144076926D01*
X112556053Y-144055691D01*
X112555000Y-144034250D01*
X112555000Y-143596750D01*
X112556053Y-143575309D01*
X112559203Y-143554074D01*
X112564419Y-143533250D01*
X112571651Y-143513038D01*
X112580830Y-143493632D01*
X112591866Y-143475219D01*
X112604654Y-143457976D01*
X112619070Y-143442070D01*
X112634976Y-143427654D01*
X112652219Y-143414866D01*
X112670632Y-143403830D01*
X112690038Y-143394651D01*
X112710250Y-143387419D01*
X112731074Y-143382203D01*
X112752309Y-143379053D01*
X112773750Y-143378000D01*
X113286250Y-143378000D01*
X113307691Y-143379053D01*
X113307691Y-143379053D01*
G37*
D19*
X113030000Y-143815500D03*
D12*
G36*
X113307691Y-141804053D02*
G01*
X113328926Y-141807203D01*
X113349750Y-141812419D01*
X113369962Y-141819651D01*
X113389368Y-141828830D01*
X113407781Y-141839866D01*
X113425024Y-141852654D01*
X113440930Y-141867070D01*
X113455346Y-141882976D01*
X113468134Y-141900219D01*
X113479170Y-141918632D01*
X113488349Y-141938038D01*
X113495581Y-141958250D01*
X113500797Y-141979074D01*
X113503947Y-142000309D01*
X113505000Y-142021750D01*
X113505000Y-142459250D01*
X113503947Y-142480691D01*
X113500797Y-142501926D01*
X113495581Y-142522750D01*
X113488349Y-142542962D01*
X113479170Y-142562368D01*
X113468134Y-142580781D01*
X113455346Y-142598024D01*
X113440930Y-142613930D01*
X113425024Y-142628346D01*
X113407781Y-142641134D01*
X113389368Y-142652170D01*
X113369962Y-142661349D01*
X113349750Y-142668581D01*
X113328926Y-142673797D01*
X113307691Y-142676947D01*
X113286250Y-142678000D01*
X112773750Y-142678000D01*
X112752309Y-142676947D01*
X112731074Y-142673797D01*
X112710250Y-142668581D01*
X112690038Y-142661349D01*
X112670632Y-142652170D01*
X112652219Y-142641134D01*
X112634976Y-142628346D01*
X112619070Y-142613930D01*
X112604654Y-142598024D01*
X112591866Y-142580781D01*
X112580830Y-142562368D01*
X112571651Y-142542962D01*
X112564419Y-142522750D01*
X112559203Y-142501926D01*
X112556053Y-142480691D01*
X112555000Y-142459250D01*
X112555000Y-142021750D01*
X112556053Y-142000309D01*
X112559203Y-141979074D01*
X112564419Y-141958250D01*
X112571651Y-141938038D01*
X112580830Y-141918632D01*
X112591866Y-141900219D01*
X112604654Y-141882976D01*
X112619070Y-141867070D01*
X112634976Y-141852654D01*
X112652219Y-141839866D01*
X112670632Y-141828830D01*
X112690038Y-141819651D01*
X112710250Y-141812419D01*
X112731074Y-141807203D01*
X112752309Y-141804053D01*
X112773750Y-141803000D01*
X113286250Y-141803000D01*
X113307691Y-141804053D01*
X113307691Y-141804053D01*
G37*
D19*
X113030000Y-142240500D03*
D12*
G36*
X133589691Y-141131053D02*
G01*
X133610926Y-141134203D01*
X133631750Y-141139419D01*
X133651962Y-141146651D01*
X133671368Y-141155830D01*
X133689781Y-141166866D01*
X133707024Y-141179654D01*
X133722930Y-141194070D01*
X133737346Y-141209976D01*
X133750134Y-141227219D01*
X133761170Y-141245632D01*
X133770349Y-141265038D01*
X133777581Y-141285250D01*
X133782797Y-141306074D01*
X133785947Y-141327309D01*
X133787000Y-141348750D01*
X133787000Y-141861250D01*
X133785947Y-141882691D01*
X133782797Y-141903926D01*
X133777581Y-141924750D01*
X133770349Y-141944962D01*
X133761170Y-141964368D01*
X133750134Y-141982781D01*
X133737346Y-142000024D01*
X133722930Y-142015930D01*
X133707024Y-142030346D01*
X133689781Y-142043134D01*
X133671368Y-142054170D01*
X133651962Y-142063349D01*
X133631750Y-142070581D01*
X133610926Y-142075797D01*
X133589691Y-142078947D01*
X133568250Y-142080000D01*
X133130750Y-142080000D01*
X133109309Y-142078947D01*
X133088074Y-142075797D01*
X133067250Y-142070581D01*
X133047038Y-142063349D01*
X133027632Y-142054170D01*
X133009219Y-142043134D01*
X132991976Y-142030346D01*
X132976070Y-142015930D01*
X132961654Y-142000024D01*
X132948866Y-141982781D01*
X132937830Y-141964368D01*
X132928651Y-141944962D01*
X132921419Y-141924750D01*
X132916203Y-141903926D01*
X132913053Y-141882691D01*
X132912000Y-141861250D01*
X132912000Y-141348750D01*
X132913053Y-141327309D01*
X132916203Y-141306074D01*
X132921419Y-141285250D01*
X132928651Y-141265038D01*
X132937830Y-141245632D01*
X132948866Y-141227219D01*
X132961654Y-141209976D01*
X132976070Y-141194070D01*
X132991976Y-141179654D01*
X133009219Y-141166866D01*
X133027632Y-141155830D01*
X133047038Y-141146651D01*
X133067250Y-141139419D01*
X133088074Y-141134203D01*
X133109309Y-141131053D01*
X133130750Y-141130000D01*
X133568250Y-141130000D01*
X133589691Y-141131053D01*
X133589691Y-141131053D01*
G37*
D19*
X133349500Y-141605000D03*
D12*
G36*
X132014691Y-141131053D02*
G01*
X132035926Y-141134203D01*
X132056750Y-141139419D01*
X132076962Y-141146651D01*
X132096368Y-141155830D01*
X132114781Y-141166866D01*
X132132024Y-141179654D01*
X132147930Y-141194070D01*
X132162346Y-141209976D01*
X132175134Y-141227219D01*
X132186170Y-141245632D01*
X132195349Y-141265038D01*
X132202581Y-141285250D01*
X132207797Y-141306074D01*
X132210947Y-141327309D01*
X132212000Y-141348750D01*
X132212000Y-141861250D01*
X132210947Y-141882691D01*
X132207797Y-141903926D01*
X132202581Y-141924750D01*
X132195349Y-141944962D01*
X132186170Y-141964368D01*
X132175134Y-141982781D01*
X132162346Y-142000024D01*
X132147930Y-142015930D01*
X132132024Y-142030346D01*
X132114781Y-142043134D01*
X132096368Y-142054170D01*
X132076962Y-142063349D01*
X132056750Y-142070581D01*
X132035926Y-142075797D01*
X132014691Y-142078947D01*
X131993250Y-142080000D01*
X131555750Y-142080000D01*
X131534309Y-142078947D01*
X131513074Y-142075797D01*
X131492250Y-142070581D01*
X131472038Y-142063349D01*
X131452632Y-142054170D01*
X131434219Y-142043134D01*
X131416976Y-142030346D01*
X131401070Y-142015930D01*
X131386654Y-142000024D01*
X131373866Y-141982781D01*
X131362830Y-141964368D01*
X131353651Y-141944962D01*
X131346419Y-141924750D01*
X131341203Y-141903926D01*
X131338053Y-141882691D01*
X131337000Y-141861250D01*
X131337000Y-141348750D01*
X131338053Y-141327309D01*
X131341203Y-141306074D01*
X131346419Y-141285250D01*
X131353651Y-141265038D01*
X131362830Y-141245632D01*
X131373866Y-141227219D01*
X131386654Y-141209976D01*
X131401070Y-141194070D01*
X131416976Y-141179654D01*
X131434219Y-141166866D01*
X131452632Y-141155830D01*
X131472038Y-141146651D01*
X131492250Y-141139419D01*
X131513074Y-141134203D01*
X131534309Y-141131053D01*
X131555750Y-141130000D01*
X131993250Y-141130000D01*
X132014691Y-141131053D01*
X132014691Y-141131053D01*
G37*
D19*
X131774500Y-141605000D03*
D12*
G36*
X132992691Y-135784053D02*
G01*
X133013926Y-135787203D01*
X133034750Y-135792419D01*
X133054962Y-135799651D01*
X133074368Y-135808830D01*
X133092781Y-135819866D01*
X133110024Y-135832654D01*
X133125930Y-135847070D01*
X133140346Y-135862976D01*
X133153134Y-135880219D01*
X133164170Y-135898632D01*
X133173349Y-135918038D01*
X133180581Y-135938250D01*
X133185797Y-135959074D01*
X133188947Y-135980309D01*
X133190000Y-136001750D01*
X133190000Y-136439250D01*
X133188947Y-136460691D01*
X133185797Y-136481926D01*
X133180581Y-136502750D01*
X133173349Y-136522962D01*
X133164170Y-136542368D01*
X133153134Y-136560781D01*
X133140346Y-136578024D01*
X133125930Y-136593930D01*
X133110024Y-136608346D01*
X133092781Y-136621134D01*
X133074368Y-136632170D01*
X133054962Y-136641349D01*
X133034750Y-136648581D01*
X133013926Y-136653797D01*
X132992691Y-136656947D01*
X132971250Y-136658000D01*
X132458750Y-136658000D01*
X132437309Y-136656947D01*
X132416074Y-136653797D01*
X132395250Y-136648581D01*
X132375038Y-136641349D01*
X132355632Y-136632170D01*
X132337219Y-136621134D01*
X132319976Y-136608346D01*
X132304070Y-136593930D01*
X132289654Y-136578024D01*
X132276866Y-136560781D01*
X132265830Y-136542368D01*
X132256651Y-136522962D01*
X132249419Y-136502750D01*
X132244203Y-136481926D01*
X132241053Y-136460691D01*
X132240000Y-136439250D01*
X132240000Y-136001750D01*
X132241053Y-135980309D01*
X132244203Y-135959074D01*
X132249419Y-135938250D01*
X132256651Y-135918038D01*
X132265830Y-135898632D01*
X132276866Y-135880219D01*
X132289654Y-135862976D01*
X132304070Y-135847070D01*
X132319976Y-135832654D01*
X132337219Y-135819866D01*
X132355632Y-135808830D01*
X132375038Y-135799651D01*
X132395250Y-135792419D01*
X132416074Y-135787203D01*
X132437309Y-135784053D01*
X132458750Y-135783000D01*
X132971250Y-135783000D01*
X132992691Y-135784053D01*
X132992691Y-135784053D01*
G37*
D19*
X132715000Y-136220500D03*
D12*
G36*
X132992691Y-137359053D02*
G01*
X133013926Y-137362203D01*
X133034750Y-137367419D01*
X133054962Y-137374651D01*
X133074368Y-137383830D01*
X133092781Y-137394866D01*
X133110024Y-137407654D01*
X133125930Y-137422070D01*
X133140346Y-137437976D01*
X133153134Y-137455219D01*
X133164170Y-137473632D01*
X133173349Y-137493038D01*
X133180581Y-137513250D01*
X133185797Y-137534074D01*
X133188947Y-137555309D01*
X133190000Y-137576750D01*
X133190000Y-138014250D01*
X133188947Y-138035691D01*
X133185797Y-138056926D01*
X133180581Y-138077750D01*
X133173349Y-138097962D01*
X133164170Y-138117368D01*
X133153134Y-138135781D01*
X133140346Y-138153024D01*
X133125930Y-138168930D01*
X133110024Y-138183346D01*
X133092781Y-138196134D01*
X133074368Y-138207170D01*
X133054962Y-138216349D01*
X133034750Y-138223581D01*
X133013926Y-138228797D01*
X132992691Y-138231947D01*
X132971250Y-138233000D01*
X132458750Y-138233000D01*
X132437309Y-138231947D01*
X132416074Y-138228797D01*
X132395250Y-138223581D01*
X132375038Y-138216349D01*
X132355632Y-138207170D01*
X132337219Y-138196134D01*
X132319976Y-138183346D01*
X132304070Y-138168930D01*
X132289654Y-138153024D01*
X132276866Y-138135781D01*
X132265830Y-138117368D01*
X132256651Y-138097962D01*
X132249419Y-138077750D01*
X132244203Y-138056926D01*
X132241053Y-138035691D01*
X132240000Y-138014250D01*
X132240000Y-137576750D01*
X132241053Y-137555309D01*
X132244203Y-137534074D01*
X132249419Y-137513250D01*
X132256651Y-137493038D01*
X132265830Y-137473632D01*
X132276866Y-137455219D01*
X132289654Y-137437976D01*
X132304070Y-137422070D01*
X132319976Y-137407654D01*
X132337219Y-137394866D01*
X132355632Y-137383830D01*
X132375038Y-137374651D01*
X132395250Y-137367419D01*
X132416074Y-137362203D01*
X132437309Y-137359053D01*
X132458750Y-137358000D01*
X132971250Y-137358000D01*
X132992691Y-137359053D01*
X132992691Y-137359053D01*
G37*
D19*
X132715000Y-137795500D03*
D20*
X120650000Y-130810000D03*
D21*
X120650000Y-128270000D03*
X120650000Y-125730000D03*
D22*
X140335000Y-149860000D03*
X140335000Y-147320000D03*
X140335000Y-144780000D03*
X140335000Y-142240000D03*
X140335000Y-139700000D03*
X140335000Y-137160000D03*
X140335000Y-134620000D03*
X140335000Y-132080000D03*
X140335000Y-129540000D03*
X140335000Y-127000000D03*
X140335000Y-124460000D03*
X140335000Y-121920000D03*
X140335000Y-119380000D03*
X140335000Y-116840000D03*
X125095000Y-116840000D03*
X125095000Y-119380000D03*
X125095000Y-121920000D03*
X125095000Y-124460000D03*
X125095000Y-127000000D03*
X125095000Y-129540000D03*
X125095000Y-132080000D03*
X125095000Y-134620000D03*
X125095000Y-137160000D03*
X125095000Y-139700000D03*
X125095000Y-142240000D03*
X125095000Y-144780000D03*
X125095000Y-147320000D03*
X125095000Y-149860000D03*
D10*
X136525000Y-142875000D03*
D23*
X128905000Y-135255000D03*
X136525000Y-140335000D03*
X128905000Y-137795000D03*
X136525000Y-137795000D03*
X128905000Y-140335000D03*
X136525000Y-135255000D03*
X128905000Y-142875000D03*
D24*
X117475000Y-139065000D03*
D25*
X120015000Y-139065000D03*
D26*
X132080000Y-117475000D03*
X137160000Y-122555000D03*
X132715000Y-127635000D03*
D27*
X117475000Y-121880000D02*
X117475000Y-117475000D01*
X111125000Y-128230000D02*
X117475000Y-121880000D01*
X139429447Y-105774447D02*
X140335000Y-106680000D01*
X138255190Y-104600190D02*
X139429447Y-105774447D01*
X119780680Y-104600190D02*
X138255190Y-104600190D01*
X117475000Y-106905870D02*
X119780680Y-104600190D01*
X117475000Y-117475000D02*
X117475000Y-106905870D01*
X161583601Y-120356399D02*
X158750000Y-123190000D01*
X161583601Y-105929471D02*
X161583601Y-120356399D01*
X160429130Y-104775000D02*
X161583601Y-105929471D01*
X140335000Y-106680000D02*
X142240000Y-104775000D01*
X142240000Y-104775000D02*
X160429130Y-104775000D01*
X159655553Y-133714447D02*
X158750000Y-134620000D01*
X160450010Y-132919990D02*
X159655553Y-133714447D01*
X160450010Y-131477965D02*
X160450010Y-132919990D01*
X158750000Y-129777955D02*
X160450010Y-131477965D01*
X158750000Y-123190000D02*
X158750000Y-129777955D01*
D28*
X147320000Y-118745000D02*
X147320000Y-115513900D01*
X147320000Y-115513900D02*
X152400000Y-110433900D01*
X152400000Y-109220000D02*
X152400000Y-110433900D01*
X136525000Y-140335000D02*
X135374700Y-140335000D01*
X135374700Y-140335000D02*
X134104700Y-141605000D01*
X134104700Y-141605000D02*
X133349500Y-141605000D01*
X133349500Y-142874500D02*
X133349500Y-141605000D01*
X140335000Y-149860000D02*
X133349500Y-142874500D01*
X133349500Y-142874500D02*
X128904000Y-147320000D01*
X128904000Y-147320000D02*
X125095000Y-147320000D01*
X111030000Y-137160000D02*
X111030000Y-141815500D01*
X111030000Y-141815500D02*
X113030000Y-143815500D01*
X147320000Y-127635000D02*
X147320000Y-136525000D01*
X113030000Y-143815500D02*
X113030000Y-145335000D01*
X113030000Y-145335000D02*
X115015000Y-147320000D01*
X153975500Y-118745000D02*
X153670000Y-118439500D01*
X153670000Y-118439500D02*
X153670000Y-108660900D01*
X153670000Y-108660900D02*
X152903000Y-107893900D01*
X152903000Y-107893900D02*
X152400000Y-107893900D01*
X153975500Y-118745000D02*
X153975500Y-127635000D01*
X152400000Y-106680000D02*
X152400000Y-107893900D01*
X153975500Y-136525000D02*
X154349400Y-136898900D01*
X154349400Y-136898900D02*
X165855300Y-136898900D01*
X165855300Y-136898900D02*
X169601000Y-133153200D01*
X169601000Y-133153200D02*
X169601000Y-129671300D01*
X169601000Y-129671300D02*
X170367300Y-128905000D01*
X170367300Y-128905000D02*
X171271200Y-128905000D01*
X171271200Y-128905000D02*
X172032300Y-128143900D01*
X172032300Y-128143900D02*
X172032300Y-127023200D01*
X172032300Y-127023200D02*
X171318000Y-126308900D01*
X171318000Y-126308900D02*
X170815000Y-126308900D01*
X170815000Y-125095000D02*
X170815000Y-126308900D01*
X137675300Y-137795000D02*
X139435200Y-136035100D01*
X139435200Y-136035100D02*
X142822100Y-136035100D01*
X142822100Y-136035100D02*
X144703600Y-137916600D01*
X144703600Y-137916600D02*
X152583900Y-137916600D01*
X152583900Y-137916600D02*
X153975500Y-136525000D01*
X136525000Y-137795000D02*
X137675300Y-137795000D01*
X119252500Y-137160000D02*
X119252500Y-138302500D01*
X119252500Y-138302500D02*
X120015000Y-139065000D01*
X120650000Y-125730000D02*
X119252500Y-127127500D01*
X119252500Y-127127500D02*
X119252500Y-137160000D01*
X119252500Y-137160000D02*
X114180300Y-137160000D01*
X113030000Y-137160000D02*
X114180300Y-137160000D01*
X117515000Y-147320000D02*
X117515000Y-141565000D01*
X117515000Y-141565000D02*
X120015000Y-139065000D01*
X120650000Y-125730000D02*
X120650000Y-124427200D01*
X121237200Y-123840000D02*
X120650000Y-124427200D01*
X153975500Y-127635000D02*
X153975500Y-136525000D01*
X121228601Y-112434201D02*
X121237200Y-112442800D01*
X121228601Y-108006399D02*
X121228601Y-112434201D01*
X122555000Y-106680000D02*
X121228601Y-108006399D01*
X121237200Y-112442800D02*
X121237200Y-123840000D01*
X117475000Y-139065000D02*
X116205500Y-139065000D01*
X116205500Y-139065000D02*
X113030000Y-142240500D01*
X127635000Y-109220000D02*
X128848900Y-109220000D01*
X140335000Y-119380000D02*
X138505900Y-119380000D01*
X138505900Y-119380000D02*
X128848900Y-109723000D01*
X128848900Y-109723000D02*
X128848900Y-109220000D01*
X170815000Y-127635000D02*
X169601100Y-127635000D01*
X154940000Y-106680000D02*
X154940000Y-107893900D01*
X154940000Y-107893900D02*
X155395300Y-107893900D01*
X155395300Y-107893900D02*
X156153900Y-108652500D01*
X156153900Y-108652500D02*
X156153900Y-134245900D01*
X156153900Y-134245900D02*
X157762200Y-135854200D01*
X157762200Y-135854200D02*
X162565800Y-135854200D01*
X162565800Y-135854200D02*
X164882400Y-133537600D01*
X164882400Y-133537600D02*
X164882400Y-129259100D01*
X164882400Y-129259100D02*
X167721000Y-126420500D01*
X167721000Y-126420500D02*
X168889600Y-126420500D01*
X168889600Y-126420500D02*
X169601100Y-127132000D01*
X169601100Y-127132000D02*
X169601100Y-127635000D01*
X154940000Y-110433900D02*
X154940000Y-133815200D01*
X154940000Y-133815200D02*
X157509300Y-136384500D01*
X157509300Y-136384500D02*
X162743200Y-136384500D01*
X162743200Y-136384500D02*
X165938700Y-133189000D01*
X165938700Y-133189000D02*
X165938700Y-130769600D01*
X165938700Y-130769600D02*
X167859400Y-128848900D01*
X167859400Y-128848900D02*
X168275000Y-128848900D01*
X125095000Y-109220000D02*
X125095000Y-108006100D01*
X154940000Y-109220000D02*
X154940000Y-110433900D01*
X168275000Y-127635000D02*
X168275000Y-128848900D01*
X125095000Y-108006100D02*
X125550300Y-108006100D01*
X125550300Y-108006100D02*
X126308900Y-107247500D01*
X126308900Y-107247500D02*
X126308900Y-106245300D01*
X126308900Y-106245300D02*
X127104000Y-105450200D01*
X127104000Y-105450200D02*
X130709000Y-105450200D01*
X130709000Y-105450200D02*
X140335000Y-115076200D01*
X140335000Y-115076200D02*
X140335000Y-116840000D01*
X152400500Y-136525000D02*
X149820000Y-136525000D01*
X152400500Y-127635000D02*
X149820000Y-127635000D01*
X149820000Y-118745000D02*
X152400500Y-118745000D01*
X149820000Y-118745000D02*
X149820000Y-122595000D01*
X149820000Y-122595000D02*
X140335000Y-132080000D01*
X149860000Y-109220000D02*
X149860000Y-110433900D01*
X140335000Y-127000000D02*
X141733100Y-125601900D01*
X141733100Y-125601900D02*
X141733100Y-118560800D01*
X141733100Y-118560800D02*
X149860000Y-110433900D01*
X128905000Y-140335000D02*
X130175500Y-140335000D01*
X130175500Y-140335000D02*
X132715000Y-137795500D01*
X132715000Y-136220500D02*
X135458800Y-138964300D01*
X135458800Y-138964300D02*
X139244200Y-138964300D01*
X139244200Y-138964300D02*
X139644900Y-138563600D01*
X139644900Y-138563600D02*
X140779400Y-138563600D01*
X140779400Y-138563600D02*
X147320000Y-145104200D01*
X147320000Y-145104200D02*
X147320000Y-146685000D01*
X128905000Y-137795000D02*
X131140500Y-137795000D01*
X131140500Y-137795000D02*
X132715000Y-136220500D01*
X127635000Y-106680000D02*
X127635000Y-107893900D01*
X125095000Y-134620000D02*
X126365000Y-133350000D01*
X126365000Y-133350000D02*
X126365000Y-108715400D01*
X126365000Y-108715400D02*
X127186500Y-107893900D01*
X127186500Y-107893900D02*
X127635000Y-107893900D01*
X120015000Y-147320000D02*
X125095000Y-142240000D01*
X128905000Y-142875000D02*
X130504500Y-142875000D01*
X130504500Y-142875000D02*
X131774500Y-141605000D01*
X136525000Y-142875000D02*
X137675300Y-142875000D01*
X137675300Y-142875000D02*
X137675300Y-142359700D01*
X137675300Y-142359700D02*
X140335000Y-139700000D01*
D29*
G36*
X119344233Y-103546514D02*
G01*
X119147057Y-103651906D01*
X118974231Y-103793741D01*
X118938689Y-103837049D01*
X116711860Y-106063879D01*
X116668552Y-106099421D01*
X116526717Y-106272247D01*
X116476649Y-106365918D01*
X116421324Y-106469424D01*
X116356423Y-106683372D01*
X116334509Y-106905870D01*
X116340001Y-106961631D01*
X116340000Y-116134043D01*
X116320506Y-116144463D01*
X116223815Y-116223815D01*
X116144463Y-116320506D01*
X116085498Y-116430820D01*
X116049188Y-116550518D01*
X116036928Y-116675000D01*
X116036928Y-118275000D01*
X116049188Y-118399482D01*
X116085498Y-118519180D01*
X116144463Y-118629494D01*
X116223815Y-118726185D01*
X116320506Y-118805537D01*
X116340001Y-118815957D01*
X116340000Y-121409868D01*
X112627675Y-125122194D01*
X112614854Y-125086991D01*
X112463664Y-124837954D01*
X112266795Y-124623198D01*
X112031812Y-124450975D01*
X111767745Y-124327904D01*
X111484742Y-124258715D01*
X111252000Y-124402768D01*
X111252000Y-125603000D01*
X111272000Y-125603000D01*
X111272000Y-125857000D01*
X111252000Y-125857000D01*
X111252000Y-125877000D01*
X110998000Y-125877000D01*
X110998000Y-125857000D01*
X109654845Y-125857000D01*
X109533524Y-126086890D01*
X109535446Y-126099261D01*
X109635146Y-126373009D01*
X109786336Y-126622046D01*
X109983205Y-126836802D01*
X109983593Y-126837086D01*
X109881614Y-126891595D01*
X109747038Y-127002038D01*
X109636595Y-127136614D01*
X109554528Y-127290150D01*
X109503992Y-127456746D01*
X109486928Y-127630000D01*
X109486928Y-128830000D01*
X109503992Y-129003254D01*
X109554528Y-129169850D01*
X109636595Y-129323386D01*
X109747038Y-129457962D01*
X109881614Y-129568405D01*
X110035150Y-129650472D01*
X110201746Y-129701008D01*
X110375000Y-129718072D01*
X111875000Y-129718072D01*
X112048254Y-129701008D01*
X112214850Y-129650472D01*
X112368386Y-129568405D01*
X112502962Y-129457962D01*
X112613405Y-129323386D01*
X112695472Y-129169850D01*
X112746008Y-129003254D01*
X112763072Y-128830000D01*
X112763072Y-128197059D01*
X118238141Y-122721991D01*
X118281449Y-122686449D01*
X118423284Y-122513623D01*
X118528676Y-122316447D01*
X118593577Y-122102499D01*
X118605767Y-121978736D01*
X118615491Y-121880001D01*
X118610000Y-121824249D01*
X118610000Y-118815957D01*
X118629494Y-118805537D01*
X118726185Y-118726185D01*
X118805537Y-118629494D01*
X118864502Y-118519180D01*
X118900812Y-118399482D01*
X118913072Y-118275000D01*
X118913072Y-118267785D01*
X118982298Y-118288097D01*
X119795395Y-117475000D01*
X118982298Y-116661903D01*
X118913072Y-116682215D01*
X118913072Y-116675000D01*
X118900812Y-116550518D01*
X118864502Y-116430820D01*
X118805537Y-116320506D01*
X118726185Y-116223815D01*
X118629494Y-116144463D01*
X118610000Y-116134043D01*
X118610000Y-110417771D01*
X118620863Y-110438094D01*
X118700215Y-110534785D01*
X118796906Y-110614137D01*
X118907220Y-110673102D01*
X119026918Y-110709412D01*
X119151400Y-110721672D01*
X120443602Y-110721672D01*
X120443602Y-112395638D01*
X120439804Y-112434201D01*
X120452200Y-112560064D01*
X120452200Y-116115222D01*
X120186816Y-116048700D01*
X119904488Y-116034783D01*
X119624870Y-116076213D01*
X119358708Y-116171397D01*
X119233486Y-116238329D01*
X119161903Y-116482298D01*
X119975000Y-117295395D01*
X119989143Y-117281253D01*
X120168748Y-117460858D01*
X120154605Y-117475000D01*
X120168748Y-117489143D01*
X119989143Y-117668748D01*
X119975000Y-117654605D01*
X119161903Y-118467702D01*
X119233486Y-118711671D01*
X119488996Y-118832571D01*
X119763184Y-118901300D01*
X120045512Y-118915217D01*
X120325130Y-118873787D01*
X120452201Y-118828344D01*
X120452201Y-123514841D01*
X120122185Y-123844858D01*
X120092237Y-123869436D01*
X120067659Y-123899384D01*
X120067655Y-123899388D01*
X120034690Y-123939556D01*
X119994139Y-123988967D01*
X119960175Y-124052510D01*
X119921246Y-124125341D01*
X119876359Y-124273314D01*
X119871705Y-124320571D01*
X119716265Y-124403655D01*
X119474537Y-124602037D01*
X119276155Y-124843765D01*
X119128745Y-125119551D01*
X119037970Y-125418796D01*
X119007319Y-125730000D01*
X119037970Y-126041204D01*
X119082347Y-126187496D01*
X118724690Y-126545153D01*
X118694736Y-126569736D01*
X118596638Y-126689268D01*
X118523746Y-126825641D01*
X118478859Y-126973614D01*
X118467500Y-127088940D01*
X118467500Y-127088947D01*
X118463703Y-127127500D01*
X118467500Y-127166053D01*
X118467501Y-136375000D01*
X114468072Y-136375000D01*
X114468072Y-136360000D01*
X114455812Y-136235518D01*
X114419502Y-136115820D01*
X114360537Y-136005506D01*
X114281185Y-135908815D01*
X114184494Y-135829463D01*
X114074180Y-135770498D01*
X113954482Y-135734188D01*
X113830000Y-135721928D01*
X112230000Y-135721928D01*
X112105518Y-135734188D01*
X111985820Y-135770498D01*
X111875506Y-135829463D01*
X111778815Y-135908815D01*
X111768193Y-135921758D01*
X111516004Y-135802429D01*
X111241816Y-135733700D01*
X110959488Y-135719783D01*
X110679870Y-135761213D01*
X110413708Y-135856397D01*
X110288486Y-135923329D01*
X110216903Y-136167298D01*
X111030000Y-136980395D01*
X111044143Y-136966253D01*
X111223748Y-137145858D01*
X111209605Y-137160000D01*
X111223748Y-137174143D01*
X111044143Y-137353748D01*
X111030000Y-137339605D01*
X110216903Y-138152702D01*
X110288486Y-138396671D01*
X110543996Y-138517571D01*
X110818184Y-138586300D01*
X111100512Y-138600217D01*
X111380130Y-138558787D01*
X111646292Y-138463603D01*
X111768309Y-138398384D01*
X111778815Y-138411185D01*
X111875506Y-138490537D01*
X111985820Y-138549502D01*
X112105518Y-138585812D01*
X112230000Y-138598072D01*
X113830000Y-138598072D01*
X113954482Y-138585812D01*
X114074180Y-138549502D01*
X114184494Y-138490537D01*
X114281185Y-138411185D01*
X114360537Y-138314494D01*
X114419502Y-138204180D01*
X114455812Y-138084482D01*
X114468072Y-137960000D01*
X114468072Y-137945000D01*
X115978163Y-137945000D01*
X115949188Y-138040518D01*
X115936928Y-138165000D01*
X115936928Y-138326148D01*
X115903640Y-138336246D01*
X115767267Y-138409138D01*
X115716428Y-138450861D01*
X115677687Y-138482655D01*
X115677684Y-138482658D01*
X115647736Y-138507236D01*
X115623158Y-138537184D01*
X112995415Y-141164928D01*
X112773750Y-141164928D01*
X112606592Y-141181392D01*
X112445858Y-141230150D01*
X112297725Y-141309329D01*
X112167885Y-141415885D01*
X112061329Y-141545725D01*
X111982150Y-141693858D01*
X111933392Y-141854592D01*
X111916928Y-142021750D01*
X111916928Y-142459250D01*
X111933392Y-142626408D01*
X111982150Y-142787142D01*
X112061329Y-142935275D01*
X112079100Y-142956930D01*
X112024463Y-143023506D01*
X111965498Y-143133820D01*
X111929188Y-143253518D01*
X111916928Y-143378000D01*
X111920000Y-143529750D01*
X112078750Y-143688500D01*
X112903000Y-143688500D01*
X112903000Y-143668500D01*
X113157000Y-143668500D01*
X113157000Y-143688500D01*
X113981250Y-143688500D01*
X114140000Y-143529750D01*
X114143072Y-143378000D01*
X114130812Y-143253518D01*
X114094502Y-143133820D01*
X114035537Y-143023506D01*
X113980900Y-142956930D01*
X113998671Y-142935275D01*
X114077850Y-142787142D01*
X114126608Y-142626408D01*
X114143072Y-142459250D01*
X114143072Y-142237585D01*
X116051991Y-140328667D01*
X116123815Y-140416185D01*
X116220506Y-140495537D01*
X116330820Y-140554502D01*
X116450518Y-140590812D01*
X116575000Y-140603072D01*
X117366771Y-140603072D01*
X116987185Y-140982658D01*
X116957237Y-141007236D01*
X116932659Y-141037184D01*
X116932655Y-141037188D01*
X116927628Y-141043314D01*
X116859139Y-141126767D01*
X116829942Y-141181392D01*
X116786246Y-141263141D01*
X116741359Y-141411114D01*
X116726203Y-141565000D01*
X116730001Y-141603563D01*
X116730000Y-145930768D01*
X116685986Y-145954294D01*
X116465055Y-146135608D01*
X116454502Y-146100820D01*
X116395537Y-145990506D01*
X116316185Y-145893815D01*
X116219494Y-145814463D01*
X116109180Y-145755498D01*
X115989482Y-145719188D01*
X115865000Y-145706928D01*
X115300750Y-145710000D01*
X115142000Y-145868750D01*
X115142000Y-147193000D01*
X115162000Y-147193000D01*
X115162000Y-147447000D01*
X115142000Y-147447000D01*
X115142000Y-148771250D01*
X115300750Y-148930000D01*
X115865000Y-148933072D01*
X115989482Y-148920812D01*
X116109180Y-148884502D01*
X116219494Y-148825537D01*
X116316185Y-148746185D01*
X116395537Y-148649494D01*
X116454502Y-148539180D01*
X116465055Y-148504392D01*
X116685987Y-148685706D01*
X116943967Y-148823599D01*
X117223890Y-148908513D01*
X117515000Y-148937185D01*
X117806111Y-148908513D01*
X118086034Y-148823599D01*
X118344014Y-148685706D01*
X118570134Y-148500134D01*
X118755706Y-148274014D01*
X118765000Y-148256626D01*
X118774294Y-148274014D01*
X118959866Y-148500134D01*
X119185987Y-148685706D01*
X119443967Y-148823599D01*
X119723890Y-148908513D01*
X120015000Y-148937185D01*
X120306111Y-148908513D01*
X120586034Y-148823599D01*
X120844014Y-148685706D01*
X121070134Y-148500134D01*
X121255706Y-148274014D01*
X121393599Y-148016033D01*
X121478513Y-147736110D01*
X121500000Y-147517949D01*
X121500000Y-147392017D01*
X123693090Y-147392017D01*
X123734078Y-147664133D01*
X123827364Y-147923023D01*
X123889344Y-148038980D01*
X124129435Y-148105960D01*
X124915395Y-147320000D01*
X125274605Y-147320000D01*
X126060565Y-148105960D01*
X126300656Y-148038980D01*
X126417756Y-147789952D01*
X126484023Y-147522865D01*
X126496910Y-147247983D01*
X126455922Y-146975867D01*
X126362636Y-146716977D01*
X126300656Y-146601020D01*
X126060565Y-146534040D01*
X125274605Y-147320000D01*
X124915395Y-147320000D01*
X124129435Y-146534040D01*
X123889344Y-146601020D01*
X123772244Y-146850048D01*
X123705977Y-147117135D01*
X123693090Y-147392017D01*
X121500000Y-147392017D01*
X121500000Y-147122050D01*
X121484140Y-146961018D01*
X123698000Y-144747158D01*
X123698000Y-144917592D01*
X123751686Y-145187490D01*
X123856995Y-145441727D01*
X124009880Y-145670535D01*
X124204465Y-145865120D01*
X124433273Y-146018005D01*
X124504943Y-146047692D01*
X124491977Y-146052364D01*
X124376020Y-146114344D01*
X124309040Y-146354435D01*
X125095000Y-147140395D01*
X125880960Y-146354435D01*
X125813980Y-146114344D01*
X125678240Y-146050515D01*
X125756727Y-146018005D01*
X125985535Y-145865120D01*
X126180120Y-145670535D01*
X126333005Y-145441727D01*
X126438314Y-145187490D01*
X126492000Y-144917592D01*
X126492000Y-144642408D01*
X126438314Y-144372510D01*
X126333005Y-144118273D01*
X126180120Y-143889465D01*
X125985535Y-143694880D01*
X125756727Y-143541995D01*
X125679485Y-143510000D01*
X125756727Y-143478005D01*
X125985535Y-143325120D01*
X126180120Y-143130535D01*
X126333005Y-142901727D01*
X126438314Y-142647490D01*
X126492000Y-142377592D01*
X126492000Y-142102408D01*
X126438314Y-141832510D01*
X126333005Y-141578273D01*
X126180120Y-141349465D01*
X125985535Y-141154880D01*
X125756727Y-141001995D01*
X125679485Y-140970000D01*
X125756727Y-140938005D01*
X125985535Y-140785120D01*
X126180120Y-140590535D01*
X126333005Y-140361727D01*
X126438314Y-140107490D01*
X126492000Y-139837592D01*
X126492000Y-139562408D01*
X126438314Y-139292510D01*
X126333005Y-139038273D01*
X126180120Y-138809465D01*
X125985535Y-138614880D01*
X125756727Y-138461995D01*
X125679485Y-138430000D01*
X125756727Y-138398005D01*
X125985535Y-138245120D01*
X126180120Y-138050535D01*
X126333005Y-137821727D01*
X126438314Y-137567490D01*
X126492000Y-137297592D01*
X126492000Y-137022408D01*
X126438314Y-136752510D01*
X126333005Y-136498273D01*
X126180120Y-136269465D01*
X125985535Y-136074880D01*
X125756727Y-135921995D01*
X125679485Y-135890000D01*
X125756727Y-135858005D01*
X125985535Y-135705120D01*
X126180120Y-135510535D01*
X126333005Y-135281727D01*
X126438314Y-135027490D01*
X126492000Y-134757592D01*
X126492000Y-134482408D01*
X126467238Y-134357920D01*
X126892817Y-133932341D01*
X126922764Y-133907764D01*
X127020862Y-133788233D01*
X127093754Y-133651860D01*
X127131747Y-133526614D01*
X127138641Y-133503888D01*
X127148969Y-133399025D01*
X127150000Y-133388561D01*
X127150000Y-133388554D01*
X127153797Y-133350001D01*
X127150000Y-133311448D01*
X127150000Y-110638909D01*
X127341223Y-110696916D01*
X127561381Y-110718600D01*
X127708619Y-110718600D01*
X127928777Y-110696916D01*
X128211264Y-110611225D01*
X128471606Y-110472069D01*
X128480507Y-110464764D01*
X137923558Y-119907816D01*
X137948136Y-119937764D01*
X137978084Y-119962342D01*
X137978087Y-119962345D01*
X138007459Y-119986450D01*
X138067667Y-120035862D01*
X138204040Y-120108754D01*
X138317572Y-120143194D01*
X138352012Y-120153641D01*
X138366390Y-120155057D01*
X138467339Y-120165000D01*
X138467346Y-120165000D01*
X138505899Y-120168797D01*
X138544452Y-120165000D01*
X139179364Y-120165000D01*
X139249880Y-120270535D01*
X139444465Y-120465120D01*
X139673273Y-120618005D01*
X139750515Y-120650000D01*
X139673273Y-120681995D01*
X139444465Y-120834880D01*
X139249880Y-121029465D01*
X139096995Y-121258273D01*
X138991686Y-121512510D01*
X138938000Y-121782408D01*
X138938000Y-122057592D01*
X138991686Y-122327490D01*
X139096995Y-122581727D01*
X139249880Y-122810535D01*
X139444465Y-123005120D01*
X139673273Y-123158005D01*
X139750515Y-123190000D01*
X139673273Y-123221995D01*
X139444465Y-123374880D01*
X139249880Y-123569465D01*
X139096995Y-123798273D01*
X138991686Y-124052510D01*
X138938000Y-124322408D01*
X138938000Y-124597592D01*
X138991686Y-124867490D01*
X139096995Y-125121727D01*
X139249880Y-125350535D01*
X139444465Y-125545120D01*
X139673273Y-125698005D01*
X139750515Y-125730000D01*
X139673273Y-125761995D01*
X139444465Y-125914880D01*
X139249880Y-126109465D01*
X139096995Y-126338273D01*
X138991686Y-126592510D01*
X138938000Y-126862408D01*
X138938000Y-127137592D01*
X138991686Y-127407490D01*
X139096995Y-127661727D01*
X139249880Y-127890535D01*
X139444465Y-128085120D01*
X139673273Y-128238005D01*
X139750515Y-128270000D01*
X139673273Y-128301995D01*
X139444465Y-128454880D01*
X139249880Y-128649465D01*
X139096995Y-128878273D01*
X138991686Y-129132510D01*
X138938000Y-129402408D01*
X138938000Y-129677592D01*
X138991686Y-129947490D01*
X139096995Y-130201727D01*
X139249880Y-130430535D01*
X139444465Y-130625120D01*
X139673273Y-130778005D01*
X139750515Y-130810000D01*
X139673273Y-130841995D01*
X139444465Y-130994880D01*
X139249880Y-131189465D01*
X139096995Y-131418273D01*
X138991686Y-131672510D01*
X138938000Y-131942408D01*
X138938000Y-132217592D01*
X138991686Y-132487490D01*
X139096995Y-132741727D01*
X139249880Y-132970535D01*
X139444465Y-133165120D01*
X139673273Y-133318005D01*
X139750515Y-133350000D01*
X139673273Y-133381995D01*
X139444465Y-133534880D01*
X139249880Y-133729465D01*
X139096995Y-133958273D01*
X138991686Y-134212510D01*
X138938000Y-134482408D01*
X138938000Y-134757592D01*
X138991686Y-135027490D01*
X139096995Y-135281727D01*
X139118681Y-135314182D01*
X138996967Y-135379238D01*
X138952212Y-135415968D01*
X138907387Y-135452755D01*
X138907384Y-135452758D01*
X138877436Y-135477336D01*
X138852858Y-135507284D01*
X137562703Y-136797440D01*
X137544608Y-136775392D01*
X137326101Y-136596068D01*
X137193142Y-136525000D01*
X137326101Y-136453932D01*
X137544608Y-136274608D01*
X137723932Y-136056101D01*
X137857182Y-135806808D01*
X137939236Y-135536309D01*
X137966943Y-135255000D01*
X137939236Y-134973691D01*
X137857182Y-134703192D01*
X137723932Y-134453899D01*
X137544608Y-134235392D01*
X137326101Y-134056068D01*
X137076808Y-133922818D01*
X136806309Y-133840764D01*
X136595492Y-133820000D01*
X136454508Y-133820000D01*
X136243691Y-133840764D01*
X135973192Y-133922818D01*
X135723899Y-134056068D01*
X135505392Y-134235392D01*
X135326068Y-134453899D01*
X135192818Y-134703192D01*
X135110764Y-134973691D01*
X135083057Y-135255000D01*
X135110764Y-135536309D01*
X135192818Y-135806808D01*
X135326068Y-136056101D01*
X135505392Y-136274608D01*
X135723899Y-136453932D01*
X135856858Y-136525000D01*
X135723899Y-136596068D01*
X135505392Y-136775392D01*
X135326068Y-136993899D01*
X135192818Y-137243192D01*
X135112529Y-137507872D01*
X133828072Y-136223415D01*
X133828072Y-136001750D01*
X133811608Y-135834592D01*
X133762850Y-135673858D01*
X133683671Y-135525725D01*
X133577115Y-135395885D01*
X133447275Y-135289329D01*
X133299142Y-135210150D01*
X133138408Y-135161392D01*
X132971250Y-135144928D01*
X132458750Y-135144928D01*
X132291592Y-135161392D01*
X132130858Y-135210150D01*
X131982725Y-135289329D01*
X131852885Y-135395885D01*
X131746329Y-135525725D01*
X131667150Y-135673858D01*
X131618392Y-135834592D01*
X131601928Y-136001750D01*
X131601928Y-136223414D01*
X130815343Y-137010000D01*
X130112538Y-137010000D01*
X130103932Y-136993899D01*
X129924608Y-136775392D01*
X129706101Y-136596068D01*
X129573142Y-136525000D01*
X129706101Y-136453932D01*
X129924608Y-136274608D01*
X130103932Y-136056101D01*
X130237182Y-135806808D01*
X130319236Y-135536309D01*
X130346943Y-135255000D01*
X130319236Y-134973691D01*
X130237182Y-134703192D01*
X130103932Y-134453899D01*
X129924608Y-134235392D01*
X129706101Y-134056068D01*
X129456808Y-133922818D01*
X129186309Y-133840764D01*
X128975492Y-133820000D01*
X128834508Y-133820000D01*
X128623691Y-133840764D01*
X128353192Y-133922818D01*
X128103899Y-134056068D01*
X127885392Y-134235392D01*
X127706068Y-134453899D01*
X127572818Y-134703192D01*
X127490764Y-134973691D01*
X127463057Y-135255000D01*
X127490764Y-135536309D01*
X127572818Y-135806808D01*
X127706068Y-136056101D01*
X127885392Y-136274608D01*
X128103899Y-136453932D01*
X128236858Y-136525000D01*
X128103899Y-136596068D01*
X127885392Y-136775392D01*
X127706068Y-136993899D01*
X127572818Y-137243192D01*
X127490764Y-137513691D01*
X127463057Y-137795000D01*
X127490764Y-138076309D01*
X127572818Y-138346808D01*
X127706068Y-138596101D01*
X127885392Y-138814608D01*
X128103899Y-138993932D01*
X128236858Y-139065000D01*
X128103899Y-139136068D01*
X127885392Y-139315392D01*
X127706068Y-139533899D01*
X127572818Y-139783192D01*
X127490764Y-140053691D01*
X127463057Y-140335000D01*
X127490764Y-140616309D01*
X127572818Y-140886808D01*
X127706068Y-141136101D01*
X127885392Y-141354608D01*
X128103899Y-141533932D01*
X128236858Y-141605000D01*
X128103899Y-141676068D01*
X127885392Y-141855392D01*
X127706068Y-142073899D01*
X127572818Y-142323192D01*
X127490764Y-142593691D01*
X127463057Y-142875000D01*
X127490764Y-143156309D01*
X127572818Y-143426808D01*
X127706068Y-143676101D01*
X127885392Y-143894608D01*
X128103899Y-144073932D01*
X128353192Y-144207182D01*
X128623691Y-144289236D01*
X128834508Y-144310000D01*
X128975492Y-144310000D01*
X129186309Y-144289236D01*
X129456808Y-144207182D01*
X129706101Y-144073932D01*
X129924608Y-143894608D01*
X130103932Y-143676101D01*
X130112538Y-143660000D01*
X130465947Y-143660000D01*
X130504500Y-143663797D01*
X130543053Y-143660000D01*
X130543061Y-143660000D01*
X130658387Y-143648641D01*
X130806360Y-143603754D01*
X130942733Y-143530862D01*
X131062264Y-143432764D01*
X131086847Y-143402810D01*
X131771586Y-142718072D01*
X131993250Y-142718072D01*
X132160408Y-142701608D01*
X132321142Y-142652850D01*
X132469275Y-142573671D01*
X132490930Y-142555900D01*
X132557506Y-142610537D01*
X132667820Y-142669502D01*
X132787518Y-142705812D01*
X132912000Y-142718072D01*
X133063750Y-142715000D01*
X133222500Y-142556250D01*
X133222500Y-141732000D01*
X133476500Y-141732000D01*
X133476500Y-142556250D01*
X133635250Y-142715000D01*
X133787000Y-142718072D01*
X133911482Y-142705812D01*
X134031180Y-142669502D01*
X134141494Y-142610537D01*
X134238185Y-142531185D01*
X134317537Y-142434494D01*
X134376502Y-142324180D01*
X134412812Y-142204482D01*
X134425072Y-142080000D01*
X134422000Y-141890750D01*
X134263250Y-141732000D01*
X133476500Y-141732000D01*
X133222500Y-141732000D01*
X133202500Y-141732000D01*
X133202500Y-141478000D01*
X133222500Y-141478000D01*
X133222500Y-140653750D01*
X133476500Y-140653750D01*
X133476500Y-141478000D01*
X134263250Y-141478000D01*
X134422000Y-141319250D01*
X134425072Y-141130000D01*
X134412812Y-141005518D01*
X134376502Y-140885820D01*
X134317537Y-140775506D01*
X134238185Y-140678815D01*
X134141494Y-140599463D01*
X134031180Y-140540498D01*
X133911482Y-140504188D01*
X133787000Y-140491928D01*
X133635250Y-140495000D01*
X133476500Y-140653750D01*
X133222500Y-140653750D01*
X133063750Y-140495000D01*
X132912000Y-140491928D01*
X132787518Y-140504188D01*
X132667820Y-140540498D01*
X132557506Y-140599463D01*
X132490930Y-140654100D01*
X132469275Y-140636329D01*
X132321142Y-140557150D01*
X132160408Y-140508392D01*
X131993250Y-140491928D01*
X131555750Y-140491928D01*
X131388592Y-140508392D01*
X131227858Y-140557150D01*
X131079725Y-140636329D01*
X130949885Y-140742885D01*
X130843329Y-140872725D01*
X130764150Y-141020858D01*
X130715392Y-141181592D01*
X130698928Y-141348750D01*
X130698928Y-141570414D01*
X130179343Y-142090000D01*
X130112538Y-142090000D01*
X130103932Y-142073899D01*
X129924608Y-141855392D01*
X129706101Y-141676068D01*
X129573142Y-141605000D01*
X129706101Y-141533932D01*
X129924608Y-141354608D01*
X130103932Y-141136101D01*
X130112538Y-141120000D01*
X130136947Y-141120000D01*
X130175500Y-141123797D01*
X130214053Y-141120000D01*
X130214061Y-141120000D01*
X130329387Y-141108641D01*
X130477360Y-141063754D01*
X130613733Y-140990862D01*
X130733264Y-140892764D01*
X130757847Y-140862810D01*
X132749586Y-138871072D01*
X132971250Y-138871072D01*
X133138408Y-138854608D01*
X133299142Y-138805850D01*
X133447275Y-138726671D01*
X133577115Y-138620115D01*
X133683671Y-138490275D01*
X133750183Y-138365840D01*
X134876458Y-139492116D01*
X134901036Y-139522064D01*
X134930984Y-139546642D01*
X134930987Y-139546645D01*
X134960359Y-139570750D01*
X135020567Y-139620162D01*
X135130905Y-139679138D01*
X135156940Y-139693054D01*
X135237314Y-139717435D01*
X135173754Y-139851913D01*
X135133096Y-139985961D01*
X135255085Y-140208000D01*
X136398000Y-140208000D01*
X136398000Y-140188000D01*
X136652000Y-140188000D01*
X136652000Y-140208000D01*
X137794915Y-140208000D01*
X137916904Y-139985961D01*
X137876246Y-139851913D01*
X137827747Y-139749300D01*
X138938000Y-139749300D01*
X138938000Y-139837592D01*
X138962762Y-139962081D01*
X137469563Y-141455280D01*
X137449482Y-141449188D01*
X137424920Y-141446769D01*
X137588519Y-141298414D01*
X137756037Y-141072420D01*
X137876246Y-140818087D01*
X137916904Y-140684039D01*
X137794915Y-140462000D01*
X136652000Y-140462000D01*
X136652000Y-140482000D01*
X136398000Y-140482000D01*
X136398000Y-140462000D01*
X135255085Y-140462000D01*
X135133096Y-140684039D01*
X135173754Y-140818087D01*
X135293963Y-141072420D01*
X135461481Y-141298414D01*
X135625080Y-141446769D01*
X135600518Y-141449188D01*
X135480820Y-141485498D01*
X135370506Y-141544463D01*
X135273815Y-141623815D01*
X135194463Y-141720506D01*
X135135498Y-141830820D01*
X135099188Y-141950518D01*
X135086928Y-142075000D01*
X135086928Y-143675000D01*
X135099188Y-143799482D01*
X135135498Y-143919180D01*
X135194463Y-144029494D01*
X135273815Y-144126185D01*
X135370506Y-144205537D01*
X135480820Y-144264502D01*
X135600518Y-144300812D01*
X135725000Y-144313072D01*
X137325000Y-144313072D01*
X137449482Y-144300812D01*
X137569180Y-144264502D01*
X137679494Y-144205537D01*
X137776185Y-144126185D01*
X137855537Y-144029494D01*
X137914502Y-143919180D01*
X137950812Y-143799482D01*
X137963072Y-143675000D01*
X137963072Y-143608028D01*
X137977160Y-143603754D01*
X138113533Y-143530862D01*
X138233064Y-143432764D01*
X138331162Y-143313233D01*
X138404054Y-143176860D01*
X138448941Y-143028887D01*
X138464098Y-142875000D01*
X138460300Y-142836439D01*
X138460300Y-142684857D01*
X138938000Y-142207157D01*
X138938000Y-142377592D01*
X138991686Y-142647490D01*
X139096995Y-142901727D01*
X139249880Y-143130535D01*
X139444465Y-143325120D01*
X139673273Y-143478005D01*
X139750515Y-143510000D01*
X139673273Y-143541995D01*
X139444465Y-143694880D01*
X139249880Y-143889465D01*
X139096995Y-144118273D01*
X138991686Y-144372510D01*
X138938000Y-144642408D01*
X138938000Y-144917592D01*
X138991686Y-145187490D01*
X139096995Y-145441727D01*
X139249880Y-145670535D01*
X139444465Y-145865120D01*
X139673273Y-146018005D01*
X139750515Y-146050000D01*
X139673273Y-146081995D01*
X139444465Y-146234880D01*
X139249880Y-146429465D01*
X139096995Y-146658273D01*
X138991686Y-146912510D01*
X138938000Y-147182408D01*
X138938000Y-147457592D01*
X138991686Y-147727490D01*
X139096995Y-147981727D01*
X139249880Y-148210535D01*
X139444465Y-148405120D01*
X139673273Y-148558005D01*
X139744943Y-148587692D01*
X139731977Y-148592364D01*
X139616020Y-148654344D01*
X139549040Y-148894435D01*
X140335000Y-149680395D01*
X141120960Y-148894435D01*
X141053980Y-148654344D01*
X140918240Y-148590515D01*
X140996727Y-148558005D01*
X141225535Y-148405120D01*
X141275557Y-148355098D01*
X169065000Y-148355098D01*
X169065000Y-148824902D01*
X169156654Y-149285679D01*
X169336440Y-149719721D01*
X169597450Y-150110349D01*
X169929651Y-150442550D01*
X170320279Y-150703560D01*
X170754321Y-150883346D01*
X171215098Y-150975000D01*
X171684902Y-150975000D01*
X172145679Y-150883346D01*
X172579721Y-150703560D01*
X172970349Y-150442550D01*
X173302550Y-150110349D01*
X173563560Y-149719721D01*
X173743346Y-149285679D01*
X173835000Y-148824902D01*
X173835000Y-148355098D01*
X173743346Y-147894321D01*
X173563560Y-147460279D01*
X173302550Y-147069651D01*
X172970349Y-146737450D01*
X172579721Y-146476440D01*
X172145679Y-146296654D01*
X171684902Y-146205000D01*
X171215098Y-146205000D01*
X170754321Y-146296654D01*
X170320279Y-146476440D01*
X169929651Y-146737450D01*
X169597450Y-147069651D01*
X169336440Y-147460279D01*
X169156654Y-147894321D01*
X169065000Y-148355098D01*
X141275557Y-148355098D01*
X141420120Y-148210535D01*
X141573005Y-147981727D01*
X141678314Y-147727490D01*
X141732000Y-147457592D01*
X141732000Y-147182408D01*
X141678314Y-146912510D01*
X141573005Y-146658273D01*
X141420120Y-146429465D01*
X141225535Y-146234880D01*
X140996727Y-146081995D01*
X140919485Y-146050000D01*
X140996727Y-146018005D01*
X141225535Y-145865120D01*
X141420120Y-145670535D01*
X141573005Y-145441727D01*
X141678314Y-145187490D01*
X141732000Y-144917592D01*
X141732000Y-144642408D01*
X141678314Y-144372510D01*
X141573005Y-144118273D01*
X141420120Y-143889465D01*
X141225535Y-143694880D01*
X140996727Y-143541995D01*
X140919485Y-143510000D01*
X140996727Y-143478005D01*
X141225535Y-143325120D01*
X141420120Y-143130535D01*
X141573005Y-142901727D01*
X141678314Y-142647490D01*
X141732000Y-142377592D01*
X141732000Y-142102408D01*
X141678314Y-141832510D01*
X141573005Y-141578273D01*
X141420120Y-141349465D01*
X141225535Y-141154880D01*
X140996727Y-141001995D01*
X140919485Y-140970000D01*
X140996727Y-140938005D01*
X141225535Y-140785120D01*
X141420120Y-140590535D01*
X141530693Y-140425051D01*
X146275895Y-145170253D01*
X146226614Y-145196595D01*
X146092038Y-145307038D01*
X145981595Y-145441614D01*
X145899528Y-145595150D01*
X145848992Y-145761746D01*
X145831928Y-145935000D01*
X145831928Y-147435000D01*
X145848992Y-147608254D01*
X145899528Y-147774850D01*
X145981595Y-147928386D01*
X146092038Y-148062962D01*
X146226614Y-148173405D01*
X146380150Y-148255472D01*
X146546746Y-148306008D01*
X146720000Y-148323072D01*
X147920000Y-148323072D01*
X148093254Y-148306008D01*
X148259850Y-148255472D01*
X148413386Y-148173405D01*
X148547962Y-148062962D01*
X148658405Y-147928386D01*
X148712777Y-147826663D01*
X148764866Y-147890134D01*
X148990987Y-148075706D01*
X149248967Y-148213599D01*
X149528890Y-148298513D01*
X149820000Y-148327185D01*
X150111111Y-148298513D01*
X150391034Y-148213599D01*
X150649014Y-148075706D01*
X150875134Y-147890134D01*
X151060706Y-147664014D01*
X151198599Y-147406033D01*
X151283513Y-147126110D01*
X151305000Y-146907949D01*
X151305000Y-146462050D01*
X151283513Y-146243889D01*
X151198599Y-145963966D01*
X151183117Y-145935000D01*
X155356928Y-145935000D01*
X155356928Y-147435000D01*
X155373992Y-147608254D01*
X155424528Y-147774850D01*
X155506595Y-147928386D01*
X155617038Y-148062962D01*
X155751614Y-148173405D01*
X155905150Y-148255472D01*
X156071746Y-148306008D01*
X156245000Y-148323072D01*
X157445000Y-148323072D01*
X157618254Y-148306008D01*
X157784850Y-148255472D01*
X157938386Y-148173405D01*
X158072962Y-148062962D01*
X158183405Y-147928386D01*
X158237777Y-147826663D01*
X158289866Y-147890134D01*
X158515987Y-148075706D01*
X158773967Y-148213599D01*
X159053890Y-148298513D01*
X159345000Y-148327185D01*
X159636111Y-148298513D01*
X159916034Y-148213599D01*
X160174014Y-148075706D01*
X160400134Y-147890134D01*
X160585706Y-147664014D01*
X160723599Y-147406033D01*
X160808513Y-147126110D01*
X160830000Y-146907949D01*
X160830000Y-146462050D01*
X160808513Y-146243889D01*
X160723599Y-145963966D01*
X160585706Y-145705986D01*
X160400134Y-145479866D01*
X160174013Y-145294294D01*
X159916033Y-145156401D01*
X159636110Y-145071487D01*
X159345000Y-145042815D01*
X159053889Y-145071487D01*
X158773966Y-145156401D01*
X158515986Y-145294294D01*
X158289866Y-145479866D01*
X158237777Y-145543337D01*
X158183405Y-145441614D01*
X158072962Y-145307038D01*
X157938386Y-145196595D01*
X157784850Y-145114528D01*
X157618254Y-145063992D01*
X157445000Y-145046928D01*
X156245000Y-145046928D01*
X156071746Y-145063992D01*
X155905150Y-145114528D01*
X155751614Y-145196595D01*
X155617038Y-145307038D01*
X155506595Y-145441614D01*
X155424528Y-145595150D01*
X155373992Y-145761746D01*
X155356928Y-145935000D01*
X151183117Y-145935000D01*
X151060706Y-145705986D01*
X150875134Y-145479866D01*
X150649013Y-145294294D01*
X150391033Y-145156401D01*
X150111110Y-145071487D01*
X149820000Y-145042815D01*
X149528889Y-145071487D01*
X149248966Y-145156401D01*
X148990986Y-145294294D01*
X148764866Y-145479866D01*
X148712777Y-145543337D01*
X148658405Y-145441614D01*
X148547962Y-145307038D01*
X148413386Y-145196595D01*
X148259850Y-145114528D01*
X148105194Y-145067614D01*
X148105000Y-145065646D01*
X148105000Y-145065639D01*
X148093641Y-144950313D01*
X148048754Y-144802340D01*
X147975862Y-144665967D01*
X147877764Y-144546436D01*
X147847817Y-144521859D01*
X141398306Y-138072349D01*
X141420120Y-138050535D01*
X141573005Y-137821727D01*
X141678314Y-137567490D01*
X141732000Y-137297592D01*
X141732000Y-137022408D01*
X141691758Y-136820100D01*
X142496943Y-136820100D01*
X144121253Y-138444410D01*
X144145836Y-138474364D01*
X144265367Y-138572462D01*
X144349174Y-138617257D01*
X144401740Y-138645354D01*
X144549713Y-138690242D01*
X144624626Y-138697620D01*
X144665039Y-138701600D01*
X144665044Y-138701600D01*
X144703600Y-138705397D01*
X144742156Y-138701600D01*
X152545347Y-138701600D01*
X152583900Y-138705397D01*
X152622453Y-138701600D01*
X152622461Y-138701600D01*
X152737787Y-138690241D01*
X152885760Y-138645354D01*
X153022133Y-138572462D01*
X153141664Y-138474364D01*
X153166247Y-138444410D01*
X153972585Y-137638072D01*
X154081884Y-137638072D01*
X154161072Y-137662094D01*
X154195512Y-137672541D01*
X154209890Y-137673957D01*
X154310839Y-137683900D01*
X154310846Y-137683900D01*
X154349399Y-137687697D01*
X154387952Y-137683900D01*
X165816747Y-137683900D01*
X165855300Y-137687697D01*
X165893853Y-137683900D01*
X165893861Y-137683900D01*
X166009187Y-137672541D01*
X166157160Y-137627654D01*
X166293533Y-137554762D01*
X166413064Y-137456664D01*
X166437647Y-137426710D01*
X169933847Y-133930510D01*
X169978394Y-133967069D01*
X170238736Y-134106225D01*
X170521223Y-134191916D01*
X170741381Y-134213600D01*
X170888619Y-134213600D01*
X171108777Y-134191916D01*
X171391264Y-134106225D01*
X171651606Y-133967069D01*
X171879797Y-133779797D01*
X172067069Y-133551606D01*
X172206225Y-133291264D01*
X172291916Y-133008777D01*
X172320851Y-132715000D01*
X172291916Y-132421223D01*
X172206225Y-132138736D01*
X172067069Y-131878394D01*
X171879797Y-131650203D01*
X171651606Y-131462931D01*
X171618060Y-131445000D01*
X171651606Y-131427069D01*
X171879797Y-131239797D01*
X172067069Y-131011606D01*
X172206225Y-130751264D01*
X172291916Y-130468777D01*
X172320851Y-130175000D01*
X172291916Y-129881223D01*
X172206225Y-129598736D01*
X172067069Y-129338394D01*
X172013382Y-129272976D01*
X172560116Y-128726241D01*
X172590064Y-128701664D01*
X172688162Y-128582133D01*
X172761054Y-128445760D01*
X172771699Y-128410668D01*
X172805942Y-128297787D01*
X172816285Y-128192764D01*
X172817300Y-128182461D01*
X172817300Y-128182456D01*
X172821097Y-128143900D01*
X172817300Y-128105345D01*
X172817300Y-127061756D01*
X172821097Y-127023200D01*
X172817300Y-126984644D01*
X172817300Y-126984639D01*
X172813320Y-126944226D01*
X172805942Y-126869313D01*
X172761054Y-126721340D01*
X172748654Y-126698141D01*
X172688162Y-126584967D01*
X172590064Y-126465436D01*
X172560110Y-126440853D01*
X172059764Y-125940507D01*
X172067069Y-125931606D01*
X172206225Y-125671264D01*
X172291916Y-125388777D01*
X172320851Y-125095000D01*
X172291916Y-124801223D01*
X172206225Y-124518736D01*
X172067069Y-124258394D01*
X171879797Y-124030203D01*
X171651606Y-123842931D01*
X171618060Y-123825000D01*
X171651606Y-123807069D01*
X171879797Y-123619797D01*
X172067069Y-123391606D01*
X172206225Y-123131264D01*
X172291916Y-122848777D01*
X172320851Y-122555000D01*
X172291916Y-122261223D01*
X172206225Y-121978736D01*
X172067069Y-121718394D01*
X171879797Y-121490203D01*
X171651606Y-121302931D01*
X171391264Y-121163775D01*
X171108777Y-121078084D01*
X170888619Y-121056400D01*
X170741381Y-121056400D01*
X170521223Y-121078084D01*
X170238736Y-121163775D01*
X169978394Y-121302931D01*
X169750203Y-121490203D01*
X169743586Y-121498265D01*
X169728102Y-121447220D01*
X169669137Y-121336906D01*
X169589785Y-121240215D01*
X169493094Y-121160863D01*
X169382780Y-121101898D01*
X169263082Y-121065588D01*
X169138600Y-121053328D01*
X167411400Y-121053328D01*
X167286918Y-121065588D01*
X167167220Y-121101898D01*
X167056906Y-121160863D01*
X166960215Y-121240215D01*
X166880863Y-121336906D01*
X166821898Y-121447220D01*
X166785588Y-121566918D01*
X166773328Y-121691400D01*
X166773328Y-123418600D01*
X166785588Y-123543082D01*
X166821898Y-123662780D01*
X166880863Y-123773094D01*
X166960215Y-123869785D01*
X167056906Y-123949137D01*
X167167220Y-124008102D01*
X167231574Y-124027624D01*
X167168146Y-124084707D01*
X166992316Y-124320056D01*
X166865778Y-124585186D01*
X166820042Y-124735974D01*
X166941183Y-124968000D01*
X168148000Y-124968000D01*
X168148000Y-124948000D01*
X168402000Y-124948000D01*
X168402000Y-124968000D01*
X168422000Y-124968000D01*
X168422000Y-125222000D01*
X168402000Y-125222000D01*
X168402000Y-125242000D01*
X168148000Y-125242000D01*
X168148000Y-125222000D01*
X166941183Y-125222000D01*
X166820042Y-125454026D01*
X166865778Y-125604814D01*
X166992316Y-125869944D01*
X167064620Y-125966723D01*
X164354585Y-128676758D01*
X164324637Y-128701336D01*
X164300059Y-128731284D01*
X164300055Y-128731288D01*
X164276917Y-128759482D01*
X164226539Y-128820867D01*
X164193595Y-128882502D01*
X164153646Y-128957241D01*
X164108759Y-129105214D01*
X164093603Y-129259100D01*
X164097401Y-129297663D01*
X164097400Y-133212442D01*
X162240643Y-135069200D01*
X160388072Y-135069200D01*
X160388072Y-134587060D01*
X160497541Y-134477591D01*
X160497545Y-134477586D01*
X161213150Y-133761982D01*
X161256459Y-133726439D01*
X161398294Y-133553613D01*
X161503686Y-133356437D01*
X161568587Y-133142489D01*
X161585010Y-132975742D01*
X161590501Y-132919990D01*
X161585010Y-132864238D01*
X161585010Y-131533708D01*
X161590500Y-131477964D01*
X161585010Y-131422220D01*
X161585010Y-131422213D01*
X161568587Y-131255466D01*
X161503686Y-131041518D01*
X161398294Y-130844342D01*
X161256459Y-130671516D01*
X161213150Y-130635974D01*
X159885000Y-129307824D01*
X159885000Y-124586339D01*
X159993386Y-124528405D01*
X160127962Y-124417962D01*
X160238405Y-124283386D01*
X160320472Y-124129850D01*
X160371008Y-123963254D01*
X160388072Y-123790000D01*
X160388072Y-123157059D01*
X162346742Y-121198390D01*
X162390050Y-121162848D01*
X162531885Y-120990022D01*
X162637277Y-120792846D01*
X162702178Y-120578898D01*
X162718601Y-120412151D01*
X162724092Y-120356399D01*
X162718601Y-120300648D01*
X162718601Y-105985223D01*
X162724092Y-105929471D01*
X162712336Y-105810098D01*
X169065000Y-105810098D01*
X169065000Y-106279902D01*
X169156654Y-106740679D01*
X169336440Y-107174721D01*
X169597450Y-107565349D01*
X169929651Y-107897550D01*
X170320279Y-108158560D01*
X170754321Y-108338346D01*
X171215098Y-108430000D01*
X171684902Y-108430000D01*
X172145679Y-108338346D01*
X172579721Y-108158560D01*
X172970349Y-107897550D01*
X173302550Y-107565349D01*
X173563560Y-107174721D01*
X173743346Y-106740679D01*
X173835000Y-106279902D01*
X173835000Y-105810098D01*
X173743346Y-105349321D01*
X173563560Y-104915279D01*
X173302550Y-104524651D01*
X172970349Y-104192450D01*
X172579721Y-103931440D01*
X172145679Y-103751654D01*
X171684902Y-103660000D01*
X171215098Y-103660000D01*
X170754321Y-103751654D01*
X170320279Y-103931440D01*
X169929651Y-104192450D01*
X169597450Y-104524651D01*
X169336440Y-104915279D01*
X169156654Y-105349321D01*
X169065000Y-105810098D01*
X162712336Y-105810098D01*
X162712037Y-105807068D01*
X162702178Y-105706972D01*
X162637277Y-105493024D01*
X162531885Y-105295848D01*
X162460604Y-105208992D01*
X162425590Y-105166327D01*
X162425588Y-105166325D01*
X162390050Y-105123022D01*
X162346747Y-105087484D01*
X161271125Y-104011864D01*
X161235579Y-103968551D01*
X161062753Y-103826716D01*
X160865577Y-103721324D01*
X160651629Y-103656423D01*
X160484882Y-103640000D01*
X160484881Y-103640000D01*
X160429130Y-103634509D01*
X160373379Y-103640000D01*
X142295752Y-103640000D01*
X142240000Y-103634509D01*
X142184248Y-103640000D01*
X142017501Y-103656423D01*
X141803553Y-103721324D01*
X141606377Y-103826716D01*
X141433551Y-103968551D01*
X141398009Y-104011859D01*
X140335000Y-105074869D01*
X140271439Y-105011308D01*
X140271435Y-105011303D01*
X139097186Y-103837054D01*
X139061639Y-103793741D01*
X138888813Y-103651906D01*
X138691637Y-103546514D01*
X138637198Y-103530000D01*
X172052721Y-103530000D01*
X172449545Y-103568909D01*
X172800208Y-103674780D01*
X173123625Y-103846744D01*
X173407484Y-104078254D01*
X173640965Y-104360486D01*
X173815183Y-104682695D01*
X173923502Y-105032614D01*
X173965001Y-105427452D01*
X173965000Y-149827723D01*
X173938185Y-150101205D01*
X173868133Y-150333226D01*
X173754350Y-150547222D01*
X173601169Y-150735039D01*
X173414424Y-150889529D01*
X173201231Y-151004802D01*
X172969701Y-151076472D01*
X172698276Y-151105000D01*
X140980372Y-151105000D01*
X141053980Y-151065656D01*
X141120960Y-150825565D01*
X140335000Y-150039605D01*
X139549040Y-150825565D01*
X139616020Y-151065656D01*
X139699690Y-151105000D01*
X125739840Y-151105000D01*
X125756727Y-151098005D01*
X125985535Y-150945120D01*
X126180120Y-150750535D01*
X126333005Y-150521727D01*
X126438314Y-150267490D01*
X126492000Y-149997592D01*
X126492000Y-149932017D01*
X138933090Y-149932017D01*
X138974078Y-150204133D01*
X139067364Y-150463023D01*
X139129344Y-150578980D01*
X139369435Y-150645960D01*
X140155395Y-149860000D01*
X140514605Y-149860000D01*
X141300565Y-150645960D01*
X141540656Y-150578980D01*
X141657756Y-150329952D01*
X141724023Y-150062865D01*
X141736910Y-149787983D01*
X141695922Y-149515867D01*
X141602636Y-149256977D01*
X141540656Y-149141020D01*
X141300565Y-149074040D01*
X140514605Y-149860000D01*
X140155395Y-149860000D01*
X139369435Y-149074040D01*
X139129344Y-149141020D01*
X139012244Y-149390048D01*
X138945977Y-149657135D01*
X138933090Y-149932017D01*
X126492000Y-149932017D01*
X126492000Y-149722408D01*
X126438314Y-149452510D01*
X126333005Y-149198273D01*
X126180120Y-148969465D01*
X125985535Y-148774880D01*
X125756727Y-148621995D01*
X125685057Y-148592308D01*
X125698023Y-148587636D01*
X125813980Y-148525656D01*
X125880960Y-148285565D01*
X125095000Y-147499605D01*
X124309040Y-148285565D01*
X124376020Y-148525656D01*
X124511760Y-148589485D01*
X124433273Y-148621995D01*
X124204465Y-148774880D01*
X124009880Y-148969465D01*
X123856995Y-149198273D01*
X123751686Y-149452510D01*
X123698000Y-149722408D01*
X123698000Y-149997592D01*
X123751686Y-150267490D01*
X123856995Y-150521727D01*
X124009880Y-150750535D01*
X124204465Y-150945120D01*
X124433273Y-151098005D01*
X124450160Y-151105000D01*
X107347277Y-151105000D01*
X107073795Y-151078185D01*
X106841774Y-151008133D01*
X106627778Y-150894350D01*
X106439961Y-150741169D01*
X106285471Y-150554424D01*
X106170198Y-150341231D01*
X106098528Y-150109701D01*
X106070000Y-149838276D01*
X106070000Y-148355098D01*
X106200000Y-148355098D01*
X106200000Y-148824902D01*
X106291654Y-149285679D01*
X106471440Y-149719721D01*
X106732450Y-150110349D01*
X107064651Y-150442550D01*
X107455279Y-150703560D01*
X107889321Y-150883346D01*
X108350098Y-150975000D01*
X108819902Y-150975000D01*
X109280679Y-150883346D01*
X109714721Y-150703560D01*
X110105349Y-150442550D01*
X110437550Y-150110349D01*
X110698560Y-149719721D01*
X110878346Y-149285679D01*
X110970000Y-148824902D01*
X110970000Y-148355098D01*
X110958046Y-148295000D01*
X113526928Y-148295000D01*
X113539188Y-148419482D01*
X113575498Y-148539180D01*
X113634463Y-148649494D01*
X113713815Y-148746185D01*
X113810506Y-148825537D01*
X113920820Y-148884502D01*
X114040518Y-148920812D01*
X114165000Y-148933072D01*
X114729250Y-148930000D01*
X114888000Y-148771250D01*
X114888000Y-147447000D01*
X113688750Y-147447000D01*
X113530000Y-147605750D01*
X113526928Y-148295000D01*
X110958046Y-148295000D01*
X110878346Y-147894321D01*
X110698560Y-147460279D01*
X110437550Y-147069651D01*
X110105349Y-146737450D01*
X109714721Y-146476440D01*
X109397397Y-146345000D01*
X113526928Y-146345000D01*
X113530000Y-147034250D01*
X113688750Y-147193000D01*
X114888000Y-147193000D01*
X114888000Y-145868750D01*
X114729250Y-145710000D01*
X114165000Y-145706928D01*
X114040518Y-145719188D01*
X113920820Y-145755498D01*
X113810506Y-145814463D01*
X113713815Y-145893815D01*
X113634463Y-145990506D01*
X113575498Y-146100820D01*
X113539188Y-146220518D01*
X113526928Y-146345000D01*
X109397397Y-146345000D01*
X109280679Y-146296654D01*
X108819902Y-146205000D01*
X108350098Y-146205000D01*
X107889321Y-146296654D01*
X107455279Y-146476440D01*
X107064651Y-146737450D01*
X106732450Y-147069651D01*
X106471440Y-147460279D01*
X106291654Y-147894321D01*
X106200000Y-148355098D01*
X106070000Y-148355098D01*
X106070000Y-144253000D01*
X111916928Y-144253000D01*
X111929188Y-144377482D01*
X111965498Y-144497180D01*
X112024463Y-144607494D01*
X112103815Y-144704185D01*
X112200506Y-144783537D01*
X112310820Y-144842502D01*
X112430518Y-144878812D01*
X112555000Y-144891072D01*
X112744250Y-144888000D01*
X112903000Y-144729250D01*
X112903000Y-143942500D01*
X113157000Y-143942500D01*
X113157000Y-144729250D01*
X113315750Y-144888000D01*
X113505000Y-144891072D01*
X113629482Y-144878812D01*
X113749180Y-144842502D01*
X113859494Y-144783537D01*
X113956185Y-144704185D01*
X114035537Y-144607494D01*
X114094502Y-144497180D01*
X114130812Y-144377482D01*
X114143072Y-144253000D01*
X114140000Y-144101250D01*
X113981250Y-143942500D01*
X113157000Y-143942500D01*
X112903000Y-143942500D01*
X112078750Y-143942500D01*
X111920000Y-144101250D01*
X111916928Y-144253000D01*
X106070000Y-144253000D01*
X106070000Y-137230512D01*
X109589783Y-137230512D01*
X109631213Y-137510130D01*
X109726397Y-137776292D01*
X109793329Y-137901514D01*
X110037298Y-137973097D01*
X110850395Y-137160000D01*
X110037298Y-136346903D01*
X109793329Y-136418486D01*
X109672429Y-136673996D01*
X109603700Y-136948184D01*
X109589783Y-137230512D01*
X106070000Y-137230512D01*
X106070000Y-125373110D01*
X109533524Y-125373110D01*
X109654845Y-125603000D01*
X110998000Y-125603000D01*
X110998000Y-124402768D01*
X110765258Y-124258715D01*
X110482255Y-124327904D01*
X110218188Y-124450975D01*
X109983205Y-124623198D01*
X109786336Y-124837954D01*
X109635146Y-125086991D01*
X109535446Y-125360739D01*
X109533524Y-125373110D01*
X106070000Y-125373110D01*
X106070000Y-105810098D01*
X106200000Y-105810098D01*
X106200000Y-106279902D01*
X106291654Y-106740679D01*
X106471440Y-107174721D01*
X106732450Y-107565349D01*
X107064651Y-107897550D01*
X107455279Y-108158560D01*
X107889321Y-108338346D01*
X108350098Y-108430000D01*
X108819902Y-108430000D01*
X109280679Y-108338346D01*
X109714721Y-108158560D01*
X110105349Y-107897550D01*
X110437550Y-107565349D01*
X110698560Y-107174721D01*
X110878346Y-106740679D01*
X110970000Y-106279902D01*
X110970000Y-105810098D01*
X110878346Y-105349321D01*
X110698560Y-104915279D01*
X110437550Y-104524651D01*
X110105349Y-104192450D01*
X109714721Y-103931440D01*
X109280679Y-103751654D01*
X108819902Y-103660000D01*
X108350098Y-103660000D01*
X107889321Y-103751654D01*
X107455279Y-103931440D01*
X107064651Y-104192450D01*
X106732450Y-104524651D01*
X106471440Y-104915279D01*
X106291654Y-105349321D01*
X106200000Y-105810098D01*
X106070000Y-105810098D01*
X106070000Y-104807277D01*
X106096815Y-104533796D01*
X106166867Y-104301774D01*
X106280650Y-104087778D01*
X106433832Y-103899959D01*
X106620577Y-103745470D01*
X106833769Y-103630199D01*
X107065300Y-103558528D01*
X107336725Y-103530000D01*
X119398672Y-103530000D01*
X119344233Y-103546514D01*
X119344233Y-103546514D01*
G37*
X119344233Y-103546514D02*
X119147057Y-103651906D01*
X118974231Y-103793741D01*
X118938689Y-103837049D01*
X116711860Y-106063879D01*
X116668552Y-106099421D01*
X116526717Y-106272247D01*
X116476649Y-106365918D01*
X116421324Y-106469424D01*
X116356423Y-106683372D01*
X116334509Y-106905870D01*
X116340001Y-106961631D01*
X116340000Y-116134043D01*
X116320506Y-116144463D01*
X116223815Y-116223815D01*
X116144463Y-116320506D01*
X116085498Y-116430820D01*
X116049188Y-116550518D01*
X116036928Y-116675000D01*
X116036928Y-118275000D01*
X116049188Y-118399482D01*
X116085498Y-118519180D01*
X116144463Y-118629494D01*
X116223815Y-118726185D01*
X116320506Y-118805537D01*
X116340001Y-118815957D01*
X116340000Y-121409868D01*
X112627675Y-125122194D01*
X112614854Y-125086991D01*
X112463664Y-124837954D01*
X112266795Y-124623198D01*
X112031812Y-124450975D01*
X111767745Y-124327904D01*
X111484742Y-124258715D01*
X111252000Y-124402768D01*
X111252000Y-125603000D01*
X111272000Y-125603000D01*
X111272000Y-125857000D01*
X111252000Y-125857000D01*
X111252000Y-125877000D01*
X110998000Y-125877000D01*
X110998000Y-125857000D01*
X109654845Y-125857000D01*
X109533524Y-126086890D01*
X109535446Y-126099261D01*
X109635146Y-126373009D01*
X109786336Y-126622046D01*
X109983205Y-126836802D01*
X109983593Y-126837086D01*
X109881614Y-126891595D01*
X109747038Y-127002038D01*
X109636595Y-127136614D01*
X109554528Y-127290150D01*
X109503992Y-127456746D01*
X109486928Y-127630000D01*
X109486928Y-128830000D01*
X109503992Y-129003254D01*
X109554528Y-129169850D01*
X109636595Y-129323386D01*
X109747038Y-129457962D01*
X109881614Y-129568405D01*
X110035150Y-129650472D01*
X110201746Y-129701008D01*
X110375000Y-129718072D01*
X111875000Y-129718072D01*
X112048254Y-129701008D01*
X112214850Y-129650472D01*
X112368386Y-129568405D01*
X112502962Y-129457962D01*
X112613405Y-129323386D01*
X112695472Y-129169850D01*
X112746008Y-129003254D01*
X112763072Y-128830000D01*
X112763072Y-128197059D01*
X118238141Y-122721991D01*
X118281449Y-122686449D01*
X118423284Y-122513623D01*
X118528676Y-122316447D01*
X118593577Y-122102499D01*
X118605767Y-121978736D01*
X118615491Y-121880001D01*
X118610000Y-121824249D01*
X118610000Y-118815957D01*
X118629494Y-118805537D01*
X118726185Y-118726185D01*
X118805537Y-118629494D01*
X118864502Y-118519180D01*
X118900812Y-118399482D01*
X118913072Y-118275000D01*
X118913072Y-118267785D01*
X118982298Y-118288097D01*
X119795395Y-117475000D01*
X118982298Y-116661903D01*
X118913072Y-116682215D01*
X118913072Y-116675000D01*
X118900812Y-116550518D01*
X118864502Y-116430820D01*
X118805537Y-116320506D01*
X118726185Y-116223815D01*
X118629494Y-116144463D01*
X118610000Y-116134043D01*
X118610000Y-110417771D01*
X118620863Y-110438094D01*
X118700215Y-110534785D01*
X118796906Y-110614137D01*
X118907220Y-110673102D01*
X119026918Y-110709412D01*
X119151400Y-110721672D01*
X120443602Y-110721672D01*
X120443602Y-112395638D01*
X120439804Y-112434201D01*
X120452200Y-112560064D01*
X120452200Y-116115222D01*
X120186816Y-116048700D01*
X119904488Y-116034783D01*
X119624870Y-116076213D01*
X119358708Y-116171397D01*
X119233486Y-116238329D01*
X119161903Y-116482298D01*
X119975000Y-117295395D01*
X119989143Y-117281253D01*
X120168748Y-117460858D01*
X120154605Y-117475000D01*
X120168748Y-117489143D01*
X119989143Y-117668748D01*
X119975000Y-117654605D01*
X119161903Y-118467702D01*
X119233486Y-118711671D01*
X119488996Y-118832571D01*
X119763184Y-118901300D01*
X120045512Y-118915217D01*
X120325130Y-118873787D01*
X120452201Y-118828344D01*
X120452201Y-123514841D01*
X120122185Y-123844858D01*
X120092237Y-123869436D01*
X120067659Y-123899384D01*
X120067655Y-123899388D01*
X120034690Y-123939556D01*
X119994139Y-123988967D01*
X119960175Y-124052510D01*
X119921246Y-124125341D01*
X119876359Y-124273314D01*
X119871705Y-124320571D01*
X119716265Y-124403655D01*
X119474537Y-124602037D01*
X119276155Y-124843765D01*
X119128745Y-125119551D01*
X119037970Y-125418796D01*
X119007319Y-125730000D01*
X119037970Y-126041204D01*
X119082347Y-126187496D01*
X118724690Y-126545153D01*
X118694736Y-126569736D01*
X118596638Y-126689268D01*
X118523746Y-126825641D01*
X118478859Y-126973614D01*
X118467500Y-127088940D01*
X118467500Y-127088947D01*
X118463703Y-127127500D01*
X118467500Y-127166053D01*
X118467501Y-136375000D01*
X114468072Y-136375000D01*
X114468072Y-136360000D01*
X114455812Y-136235518D01*
X114419502Y-136115820D01*
X114360537Y-136005506D01*
X114281185Y-135908815D01*
X114184494Y-135829463D01*
X114074180Y-135770498D01*
X113954482Y-135734188D01*
X113830000Y-135721928D01*
X112230000Y-135721928D01*
X112105518Y-135734188D01*
X111985820Y-135770498D01*
X111875506Y-135829463D01*
X111778815Y-135908815D01*
X111768193Y-135921758D01*
X111516004Y-135802429D01*
X111241816Y-135733700D01*
X110959488Y-135719783D01*
X110679870Y-135761213D01*
X110413708Y-135856397D01*
X110288486Y-135923329D01*
X110216903Y-136167298D01*
X111030000Y-136980395D01*
X111044143Y-136966253D01*
X111223748Y-137145858D01*
X111209605Y-137160000D01*
X111223748Y-137174143D01*
X111044143Y-137353748D01*
X111030000Y-137339605D01*
X110216903Y-138152702D01*
X110288486Y-138396671D01*
X110543996Y-138517571D01*
X110818184Y-138586300D01*
X111100512Y-138600217D01*
X111380130Y-138558787D01*
X111646292Y-138463603D01*
X111768309Y-138398384D01*
X111778815Y-138411185D01*
X111875506Y-138490537D01*
X111985820Y-138549502D01*
X112105518Y-138585812D01*
X112230000Y-138598072D01*
X113830000Y-138598072D01*
X113954482Y-138585812D01*
X114074180Y-138549502D01*
X114184494Y-138490537D01*
X114281185Y-138411185D01*
X114360537Y-138314494D01*
X114419502Y-138204180D01*
X114455812Y-138084482D01*
X114468072Y-137960000D01*
X114468072Y-137945000D01*
X115978163Y-137945000D01*
X115949188Y-138040518D01*
X115936928Y-138165000D01*
X115936928Y-138326148D01*
X115903640Y-138336246D01*
X115767267Y-138409138D01*
X115716428Y-138450861D01*
X115677687Y-138482655D01*
X115677684Y-138482658D01*
X115647736Y-138507236D01*
X115623158Y-138537184D01*
X112995415Y-141164928D01*
X112773750Y-141164928D01*
X112606592Y-141181392D01*
X112445858Y-141230150D01*
X112297725Y-141309329D01*
X112167885Y-141415885D01*
X112061329Y-141545725D01*
X111982150Y-141693858D01*
X111933392Y-141854592D01*
X111916928Y-142021750D01*
X111916928Y-142459250D01*
X111933392Y-142626408D01*
X111982150Y-142787142D01*
X112061329Y-142935275D01*
X112079100Y-142956930D01*
X112024463Y-143023506D01*
X111965498Y-143133820D01*
X111929188Y-143253518D01*
X111916928Y-143378000D01*
X111920000Y-143529750D01*
X112078750Y-143688500D01*
X112903000Y-143688500D01*
X112903000Y-143668500D01*
X113157000Y-143668500D01*
X113157000Y-143688500D01*
X113981250Y-143688500D01*
X114140000Y-143529750D01*
X114143072Y-143378000D01*
X114130812Y-143253518D01*
X114094502Y-143133820D01*
X114035537Y-143023506D01*
X113980900Y-142956930D01*
X113998671Y-142935275D01*
X114077850Y-142787142D01*
X114126608Y-142626408D01*
X114143072Y-142459250D01*
X114143072Y-142237585D01*
X116051991Y-140328667D01*
X116123815Y-140416185D01*
X116220506Y-140495537D01*
X116330820Y-140554502D01*
X116450518Y-140590812D01*
X116575000Y-140603072D01*
X117366771Y-140603072D01*
X116987185Y-140982658D01*
X116957237Y-141007236D01*
X116932659Y-141037184D01*
X116932655Y-141037188D01*
X116927628Y-141043314D01*
X116859139Y-141126767D01*
X116829942Y-141181392D01*
X116786246Y-141263141D01*
X116741359Y-141411114D01*
X116726203Y-141565000D01*
X116730001Y-141603563D01*
X116730000Y-145930768D01*
X116685986Y-145954294D01*
X116465055Y-146135608D01*
X116454502Y-146100820D01*
X116395537Y-145990506D01*
X116316185Y-145893815D01*
X116219494Y-145814463D01*
X116109180Y-145755498D01*
X115989482Y-145719188D01*
X115865000Y-145706928D01*
X115300750Y-145710000D01*
X115142000Y-145868750D01*
X115142000Y-147193000D01*
X115162000Y-147193000D01*
X115162000Y-147447000D01*
X115142000Y-147447000D01*
X115142000Y-148771250D01*
X115300750Y-148930000D01*
X115865000Y-148933072D01*
X115989482Y-148920812D01*
X116109180Y-148884502D01*
X116219494Y-148825537D01*
X116316185Y-148746185D01*
X116395537Y-148649494D01*
X116454502Y-148539180D01*
X116465055Y-148504392D01*
X116685987Y-148685706D01*
X116943967Y-148823599D01*
X117223890Y-148908513D01*
X117515000Y-148937185D01*
X117806111Y-148908513D01*
X118086034Y-148823599D01*
X118344014Y-148685706D01*
X118570134Y-148500134D01*
X118755706Y-148274014D01*
X118765000Y-148256626D01*
X118774294Y-148274014D01*
X118959866Y-148500134D01*
X119185987Y-148685706D01*
X119443967Y-148823599D01*
X119723890Y-148908513D01*
X120015000Y-148937185D01*
X120306111Y-148908513D01*
X120586034Y-148823599D01*
X120844014Y-148685706D01*
X121070134Y-148500134D01*
X121255706Y-148274014D01*
X121393599Y-148016033D01*
X121478513Y-147736110D01*
X121500000Y-147517949D01*
X121500000Y-147392017D01*
X123693090Y-147392017D01*
X123734078Y-147664133D01*
X123827364Y-147923023D01*
X123889344Y-148038980D01*
X124129435Y-148105960D01*
X124915395Y-147320000D01*
X125274605Y-147320000D01*
X126060565Y-148105960D01*
X126300656Y-148038980D01*
X126417756Y-147789952D01*
X126484023Y-147522865D01*
X126496910Y-147247983D01*
X126455922Y-146975867D01*
X126362636Y-146716977D01*
X126300656Y-146601020D01*
X126060565Y-146534040D01*
X125274605Y-147320000D01*
X124915395Y-147320000D01*
X124129435Y-146534040D01*
X123889344Y-146601020D01*
X123772244Y-146850048D01*
X123705977Y-147117135D01*
X123693090Y-147392017D01*
X121500000Y-147392017D01*
X121500000Y-147122050D01*
X121484140Y-146961018D01*
X123698000Y-144747158D01*
X123698000Y-144917592D01*
X123751686Y-145187490D01*
X123856995Y-145441727D01*
X124009880Y-145670535D01*
X124204465Y-145865120D01*
X124433273Y-146018005D01*
X124504943Y-146047692D01*
X124491977Y-146052364D01*
X124376020Y-146114344D01*
X124309040Y-146354435D01*
X125095000Y-147140395D01*
X125880960Y-146354435D01*
X125813980Y-146114344D01*
X125678240Y-146050515D01*
X125756727Y-146018005D01*
X125985535Y-145865120D01*
X126180120Y-145670535D01*
X126333005Y-145441727D01*
X126438314Y-145187490D01*
X126492000Y-144917592D01*
X126492000Y-144642408D01*
X126438314Y-144372510D01*
X126333005Y-144118273D01*
X126180120Y-143889465D01*
X125985535Y-143694880D01*
X125756727Y-143541995D01*
X125679485Y-143510000D01*
X125756727Y-143478005D01*
X125985535Y-143325120D01*
X126180120Y-143130535D01*
X126333005Y-142901727D01*
X126438314Y-142647490D01*
X126492000Y-142377592D01*
X126492000Y-142102408D01*
X126438314Y-141832510D01*
X126333005Y-141578273D01*
X126180120Y-141349465D01*
X125985535Y-141154880D01*
X125756727Y-141001995D01*
X125679485Y-140970000D01*
X125756727Y-140938005D01*
X125985535Y-140785120D01*
X126180120Y-140590535D01*
X126333005Y-140361727D01*
X126438314Y-140107490D01*
X126492000Y-139837592D01*
X126492000Y-139562408D01*
X126438314Y-139292510D01*
X126333005Y-139038273D01*
X126180120Y-138809465D01*
X125985535Y-138614880D01*
X125756727Y-138461995D01*
X125679485Y-138430000D01*
X125756727Y-138398005D01*
X125985535Y-138245120D01*
X126180120Y-138050535D01*
X126333005Y-137821727D01*
X126438314Y-137567490D01*
X126492000Y-137297592D01*
X126492000Y-137022408D01*
X126438314Y-136752510D01*
X126333005Y-136498273D01*
X126180120Y-136269465D01*
X125985535Y-136074880D01*
X125756727Y-135921995D01*
X125679485Y-135890000D01*
X125756727Y-135858005D01*
X125985535Y-135705120D01*
X126180120Y-135510535D01*
X126333005Y-135281727D01*
X126438314Y-135027490D01*
X126492000Y-134757592D01*
X126492000Y-134482408D01*
X126467238Y-134357920D01*
X126892817Y-133932341D01*
X126922764Y-133907764D01*
X127020862Y-133788233D01*
X127093754Y-133651860D01*
X127131747Y-133526614D01*
X127138641Y-133503888D01*
X127148969Y-133399025D01*
X127150000Y-133388561D01*
X127150000Y-133388554D01*
X127153797Y-133350001D01*
X127150000Y-133311448D01*
X127150000Y-110638909D01*
X127341223Y-110696916D01*
X127561381Y-110718600D01*
X127708619Y-110718600D01*
X127928777Y-110696916D01*
X128211264Y-110611225D01*
X128471606Y-110472069D01*
X128480507Y-110464764D01*
X137923558Y-119907816D01*
X137948136Y-119937764D01*
X137978084Y-119962342D01*
X137978087Y-119962345D01*
X138007459Y-119986450D01*
X138067667Y-120035862D01*
X138204040Y-120108754D01*
X138317572Y-120143194D01*
X138352012Y-120153641D01*
X138366390Y-120155057D01*
X138467339Y-120165000D01*
X138467346Y-120165000D01*
X138505899Y-120168797D01*
X138544452Y-120165000D01*
X139179364Y-120165000D01*
X139249880Y-120270535D01*
X139444465Y-120465120D01*
X139673273Y-120618005D01*
X139750515Y-120650000D01*
X139673273Y-120681995D01*
X139444465Y-120834880D01*
X139249880Y-121029465D01*
X139096995Y-121258273D01*
X138991686Y-121512510D01*
X138938000Y-121782408D01*
X138938000Y-122057592D01*
X138991686Y-122327490D01*
X139096995Y-122581727D01*
X139249880Y-122810535D01*
X139444465Y-123005120D01*
X139673273Y-123158005D01*
X139750515Y-123190000D01*
X139673273Y-123221995D01*
X139444465Y-123374880D01*
X139249880Y-123569465D01*
X139096995Y-123798273D01*
X138991686Y-124052510D01*
X138938000Y-124322408D01*
X138938000Y-124597592D01*
X138991686Y-124867490D01*
X139096995Y-125121727D01*
X139249880Y-125350535D01*
X139444465Y-125545120D01*
X139673273Y-125698005D01*
X139750515Y-125730000D01*
X139673273Y-125761995D01*
X139444465Y-125914880D01*
X139249880Y-126109465D01*
X139096995Y-126338273D01*
X138991686Y-126592510D01*
X138938000Y-126862408D01*
X138938000Y-127137592D01*
X138991686Y-127407490D01*
X139096995Y-127661727D01*
X139249880Y-127890535D01*
X139444465Y-128085120D01*
X139673273Y-128238005D01*
X139750515Y-128270000D01*
X139673273Y-128301995D01*
X139444465Y-128454880D01*
X139249880Y-128649465D01*
X139096995Y-128878273D01*
X138991686Y-129132510D01*
X138938000Y-129402408D01*
X138938000Y-129677592D01*
X138991686Y-129947490D01*
X139096995Y-130201727D01*
X139249880Y-130430535D01*
X139444465Y-130625120D01*
X139673273Y-130778005D01*
X139750515Y-130810000D01*
X139673273Y-130841995D01*
X139444465Y-130994880D01*
X139249880Y-131189465D01*
X139096995Y-131418273D01*
X138991686Y-131672510D01*
X138938000Y-131942408D01*
X138938000Y-132217592D01*
X138991686Y-132487490D01*
X139096995Y-132741727D01*
X139249880Y-132970535D01*
X139444465Y-133165120D01*
X139673273Y-133318005D01*
X139750515Y-133350000D01*
X139673273Y-133381995D01*
X139444465Y-133534880D01*
X139249880Y-133729465D01*
X139096995Y-133958273D01*
X138991686Y-134212510D01*
X138938000Y-134482408D01*
X138938000Y-134757592D01*
X138991686Y-135027490D01*
X139096995Y-135281727D01*
X139118681Y-135314182D01*
X138996967Y-135379238D01*
X138952212Y-135415968D01*
X138907387Y-135452755D01*
X138907384Y-135452758D01*
X138877436Y-135477336D01*
X138852858Y-135507284D01*
X137562703Y-136797440D01*
X137544608Y-136775392D01*
X137326101Y-136596068D01*
X137193142Y-136525000D01*
X137326101Y-136453932D01*
X137544608Y-136274608D01*
X137723932Y-136056101D01*
X137857182Y-135806808D01*
X137939236Y-135536309D01*
X137966943Y-135255000D01*
X137939236Y-134973691D01*
X137857182Y-134703192D01*
X137723932Y-134453899D01*
X137544608Y-134235392D01*
X137326101Y-134056068D01*
X137076808Y-133922818D01*
X136806309Y-133840764D01*
X136595492Y-133820000D01*
X136454508Y-133820000D01*
X136243691Y-133840764D01*
X135973192Y-133922818D01*
X135723899Y-134056068D01*
X135505392Y-134235392D01*
X135326068Y-134453899D01*
X135192818Y-134703192D01*
X135110764Y-134973691D01*
X135083057Y-135255000D01*
X135110764Y-135536309D01*
X135192818Y-135806808D01*
X135326068Y-136056101D01*
X135505392Y-136274608D01*
X135723899Y-136453932D01*
X135856858Y-136525000D01*
X135723899Y-136596068D01*
X135505392Y-136775392D01*
X135326068Y-136993899D01*
X135192818Y-137243192D01*
X135112529Y-137507872D01*
X133828072Y-136223415D01*
X133828072Y-136001750D01*
X133811608Y-135834592D01*
X133762850Y-135673858D01*
X133683671Y-135525725D01*
X133577115Y-135395885D01*
X133447275Y-135289329D01*
X133299142Y-135210150D01*
X133138408Y-135161392D01*
X132971250Y-135144928D01*
X132458750Y-135144928D01*
X132291592Y-135161392D01*
X132130858Y-135210150D01*
X131982725Y-135289329D01*
X131852885Y-135395885D01*
X131746329Y-135525725D01*
X131667150Y-135673858D01*
X131618392Y-135834592D01*
X131601928Y-136001750D01*
X131601928Y-136223414D01*
X130815343Y-137010000D01*
X130112538Y-137010000D01*
X130103932Y-136993899D01*
X129924608Y-136775392D01*
X129706101Y-136596068D01*
X129573142Y-136525000D01*
X129706101Y-136453932D01*
X129924608Y-136274608D01*
X130103932Y-136056101D01*
X130237182Y-135806808D01*
X130319236Y-135536309D01*
X130346943Y-135255000D01*
X130319236Y-134973691D01*
X130237182Y-134703192D01*
X130103932Y-134453899D01*
X129924608Y-134235392D01*
X129706101Y-134056068D01*
X129456808Y-133922818D01*
X129186309Y-133840764D01*
X128975492Y-133820000D01*
X128834508Y-133820000D01*
X128623691Y-133840764D01*
X128353192Y-133922818D01*
X128103899Y-134056068D01*
X127885392Y-134235392D01*
X127706068Y-134453899D01*
X127572818Y-134703192D01*
X127490764Y-134973691D01*
X127463057Y-135255000D01*
X127490764Y-135536309D01*
X127572818Y-135806808D01*
X127706068Y-136056101D01*
X127885392Y-136274608D01*
X128103899Y-136453932D01*
X128236858Y-136525000D01*
X128103899Y-136596068D01*
X127885392Y-136775392D01*
X127706068Y-136993899D01*
X127572818Y-137243192D01*
X127490764Y-137513691D01*
X127463057Y-137795000D01*
X127490764Y-138076309D01*
X127572818Y-138346808D01*
X127706068Y-138596101D01*
X127885392Y-138814608D01*
X128103899Y-138993932D01*
X128236858Y-139065000D01*
X128103899Y-139136068D01*
X127885392Y-139315392D01*
X127706068Y-139533899D01*
X127572818Y-139783192D01*
X127490764Y-140053691D01*
X127463057Y-140335000D01*
X127490764Y-140616309D01*
X127572818Y-140886808D01*
X127706068Y-141136101D01*
X127885392Y-141354608D01*
X128103899Y-141533932D01*
X128236858Y-141605000D01*
X128103899Y-141676068D01*
X127885392Y-141855392D01*
X127706068Y-142073899D01*
X127572818Y-142323192D01*
X127490764Y-142593691D01*
X127463057Y-142875000D01*
X127490764Y-143156309D01*
X127572818Y-143426808D01*
X127706068Y-143676101D01*
X127885392Y-143894608D01*
X128103899Y-144073932D01*
X128353192Y-144207182D01*
X128623691Y-144289236D01*
X128834508Y-144310000D01*
X128975492Y-144310000D01*
X129186309Y-144289236D01*
X129456808Y-144207182D01*
X129706101Y-144073932D01*
X129924608Y-143894608D01*
X130103932Y-143676101D01*
X130112538Y-143660000D01*
X130465947Y-143660000D01*
X130504500Y-143663797D01*
X130543053Y-143660000D01*
X130543061Y-143660000D01*
X130658387Y-143648641D01*
X130806360Y-143603754D01*
X130942733Y-143530862D01*
X131062264Y-143432764D01*
X131086847Y-143402810D01*
X131771586Y-142718072D01*
X131993250Y-142718072D01*
X132160408Y-142701608D01*
X132321142Y-142652850D01*
X132469275Y-142573671D01*
X132490930Y-142555900D01*
X132557506Y-142610537D01*
X132667820Y-142669502D01*
X132787518Y-142705812D01*
X132912000Y-142718072D01*
X133063750Y-142715000D01*
X133222500Y-142556250D01*
X133222500Y-141732000D01*
X133476500Y-141732000D01*
X133476500Y-142556250D01*
X133635250Y-142715000D01*
X133787000Y-142718072D01*
X133911482Y-142705812D01*
X134031180Y-142669502D01*
X134141494Y-142610537D01*
X134238185Y-142531185D01*
X134317537Y-142434494D01*
X134376502Y-142324180D01*
X134412812Y-142204482D01*
X134425072Y-142080000D01*
X134422000Y-141890750D01*
X134263250Y-141732000D01*
X133476500Y-141732000D01*
X133222500Y-141732000D01*
X133202500Y-141732000D01*
X133202500Y-141478000D01*
X133222500Y-141478000D01*
X133222500Y-140653750D01*
X133476500Y-140653750D01*
X133476500Y-141478000D01*
X134263250Y-141478000D01*
X134422000Y-141319250D01*
X134425072Y-141130000D01*
X134412812Y-141005518D01*
X134376502Y-140885820D01*
X134317537Y-140775506D01*
X134238185Y-140678815D01*
X134141494Y-140599463D01*
X134031180Y-140540498D01*
X133911482Y-140504188D01*
X133787000Y-140491928D01*
X133635250Y-140495000D01*
X133476500Y-140653750D01*
X133222500Y-140653750D01*
X133063750Y-140495000D01*
X132912000Y-140491928D01*
X132787518Y-140504188D01*
X132667820Y-140540498D01*
X132557506Y-140599463D01*
X132490930Y-140654100D01*
X132469275Y-140636329D01*
X132321142Y-140557150D01*
X132160408Y-140508392D01*
X131993250Y-140491928D01*
X131555750Y-140491928D01*
X131388592Y-140508392D01*
X131227858Y-140557150D01*
X131079725Y-140636329D01*
X130949885Y-140742885D01*
X130843329Y-140872725D01*
X130764150Y-141020858D01*
X130715392Y-141181592D01*
X130698928Y-141348750D01*
X130698928Y-141570414D01*
X130179343Y-142090000D01*
X130112538Y-142090000D01*
X130103932Y-142073899D01*
X129924608Y-141855392D01*
X129706101Y-141676068D01*
X129573142Y-141605000D01*
X129706101Y-141533932D01*
X129924608Y-141354608D01*
X130103932Y-141136101D01*
X130112538Y-141120000D01*
X130136947Y-141120000D01*
X130175500Y-141123797D01*
X130214053Y-141120000D01*
X130214061Y-141120000D01*
X130329387Y-141108641D01*
X130477360Y-141063754D01*
X130613733Y-140990862D01*
X130733264Y-140892764D01*
X130757847Y-140862810D01*
X132749586Y-138871072D01*
X132971250Y-138871072D01*
X133138408Y-138854608D01*
X133299142Y-138805850D01*
X133447275Y-138726671D01*
X133577115Y-138620115D01*
X133683671Y-138490275D01*
X133750183Y-138365840D01*
X134876458Y-139492116D01*
X134901036Y-139522064D01*
X134930984Y-139546642D01*
X134930987Y-139546645D01*
X134960359Y-139570750D01*
X135020567Y-139620162D01*
X135130905Y-139679138D01*
X135156940Y-139693054D01*
X135237314Y-139717435D01*
X135173754Y-139851913D01*
X135133096Y-139985961D01*
X135255085Y-140208000D01*
X136398000Y-140208000D01*
X136398000Y-140188000D01*
X136652000Y-140188000D01*
X136652000Y-140208000D01*
X137794915Y-140208000D01*
X137916904Y-139985961D01*
X137876246Y-139851913D01*
X137827747Y-139749300D01*
X138938000Y-139749300D01*
X138938000Y-139837592D01*
X138962762Y-139962081D01*
X137469563Y-141455280D01*
X137449482Y-141449188D01*
X137424920Y-141446769D01*
X137588519Y-141298414D01*
X137756037Y-141072420D01*
X137876246Y-140818087D01*
X137916904Y-140684039D01*
X137794915Y-140462000D01*
X136652000Y-140462000D01*
X136652000Y-140482000D01*
X136398000Y-140482000D01*
X136398000Y-140462000D01*
X135255085Y-140462000D01*
X135133096Y-140684039D01*
X135173754Y-140818087D01*
X135293963Y-141072420D01*
X135461481Y-141298414D01*
X135625080Y-141446769D01*
X135600518Y-141449188D01*
X135480820Y-141485498D01*
X135370506Y-141544463D01*
X135273815Y-141623815D01*
X135194463Y-141720506D01*
X135135498Y-141830820D01*
X135099188Y-141950518D01*
X135086928Y-142075000D01*
X135086928Y-143675000D01*
X135099188Y-143799482D01*
X135135498Y-143919180D01*
X135194463Y-144029494D01*
X135273815Y-144126185D01*
X135370506Y-144205537D01*
X135480820Y-144264502D01*
X135600518Y-144300812D01*
X135725000Y-144313072D01*
X137325000Y-144313072D01*
X137449482Y-144300812D01*
X137569180Y-144264502D01*
X137679494Y-144205537D01*
X137776185Y-144126185D01*
X137855537Y-144029494D01*
X137914502Y-143919180D01*
X137950812Y-143799482D01*
X137963072Y-143675000D01*
X137963072Y-143608028D01*
X137977160Y-143603754D01*
X138113533Y-143530862D01*
X138233064Y-143432764D01*
X138331162Y-143313233D01*
X138404054Y-143176860D01*
X138448941Y-143028887D01*
X138464098Y-142875000D01*
X138460300Y-142836439D01*
X138460300Y-142684857D01*
X138938000Y-142207157D01*
X138938000Y-142377592D01*
X138991686Y-142647490D01*
X139096995Y-142901727D01*
X139249880Y-143130535D01*
X139444465Y-143325120D01*
X139673273Y-143478005D01*
X139750515Y-143510000D01*
X139673273Y-143541995D01*
X139444465Y-143694880D01*
X139249880Y-143889465D01*
X139096995Y-144118273D01*
X138991686Y-144372510D01*
X138938000Y-144642408D01*
X138938000Y-144917592D01*
X138991686Y-145187490D01*
X139096995Y-145441727D01*
X139249880Y-145670535D01*
X139444465Y-145865120D01*
X139673273Y-146018005D01*
X139750515Y-146050000D01*
X139673273Y-146081995D01*
X139444465Y-146234880D01*
X139249880Y-146429465D01*
X139096995Y-146658273D01*
X138991686Y-146912510D01*
X138938000Y-147182408D01*
X138938000Y-147457592D01*
X138991686Y-147727490D01*
X139096995Y-147981727D01*
X139249880Y-148210535D01*
X139444465Y-148405120D01*
X139673273Y-148558005D01*
X139744943Y-148587692D01*
X139731977Y-148592364D01*
X139616020Y-148654344D01*
X139549040Y-148894435D01*
X140335000Y-149680395D01*
X141120960Y-148894435D01*
X141053980Y-148654344D01*
X140918240Y-148590515D01*
X140996727Y-148558005D01*
X141225535Y-148405120D01*
X141275557Y-148355098D01*
X169065000Y-148355098D01*
X169065000Y-148824902D01*
X169156654Y-149285679D01*
X169336440Y-149719721D01*
X169597450Y-150110349D01*
X169929651Y-150442550D01*
X170320279Y-150703560D01*
X170754321Y-150883346D01*
X171215098Y-150975000D01*
X171684902Y-150975000D01*
X172145679Y-150883346D01*
X172579721Y-150703560D01*
X172970349Y-150442550D01*
X173302550Y-150110349D01*
X173563560Y-149719721D01*
X173743346Y-149285679D01*
X173835000Y-148824902D01*
X173835000Y-148355098D01*
X173743346Y-147894321D01*
X173563560Y-147460279D01*
X173302550Y-147069651D01*
X172970349Y-146737450D01*
X172579721Y-146476440D01*
X172145679Y-146296654D01*
X171684902Y-146205000D01*
X171215098Y-146205000D01*
X170754321Y-146296654D01*
X170320279Y-146476440D01*
X169929651Y-146737450D01*
X169597450Y-147069651D01*
X169336440Y-147460279D01*
X169156654Y-147894321D01*
X169065000Y-148355098D01*
X141275557Y-148355098D01*
X141420120Y-148210535D01*
X141573005Y-147981727D01*
X141678314Y-147727490D01*
X141732000Y-147457592D01*
X141732000Y-147182408D01*
X141678314Y-146912510D01*
X141573005Y-146658273D01*
X141420120Y-146429465D01*
X141225535Y-146234880D01*
X140996727Y-146081995D01*
X140919485Y-146050000D01*
X140996727Y-146018005D01*
X141225535Y-145865120D01*
X141420120Y-145670535D01*
X141573005Y-145441727D01*
X141678314Y-145187490D01*
X141732000Y-144917592D01*
X141732000Y-144642408D01*
X141678314Y-144372510D01*
X141573005Y-144118273D01*
X141420120Y-143889465D01*
X141225535Y-143694880D01*
X140996727Y-143541995D01*
X140919485Y-143510000D01*
X140996727Y-143478005D01*
X141225535Y-143325120D01*
X141420120Y-143130535D01*
X141573005Y-142901727D01*
X141678314Y-142647490D01*
X141732000Y-142377592D01*
X141732000Y-142102408D01*
X141678314Y-141832510D01*
X141573005Y-141578273D01*
X141420120Y-141349465D01*
X141225535Y-141154880D01*
X140996727Y-141001995D01*
X140919485Y-140970000D01*
X140996727Y-140938005D01*
X141225535Y-140785120D01*
X141420120Y-140590535D01*
X141530693Y-140425051D01*
X146275895Y-145170253D01*
X146226614Y-145196595D01*
X146092038Y-145307038D01*
X145981595Y-145441614D01*
X145899528Y-145595150D01*
X145848992Y-145761746D01*
X145831928Y-145935000D01*
X145831928Y-147435000D01*
X145848992Y-147608254D01*
X145899528Y-147774850D01*
X145981595Y-147928386D01*
X146092038Y-148062962D01*
X146226614Y-148173405D01*
X146380150Y-148255472D01*
X146546746Y-148306008D01*
X146720000Y-148323072D01*
X147920000Y-148323072D01*
X148093254Y-148306008D01*
X148259850Y-148255472D01*
X148413386Y-148173405D01*
X148547962Y-148062962D01*
X148658405Y-147928386D01*
X148712777Y-147826663D01*
X148764866Y-147890134D01*
X148990987Y-148075706D01*
X149248967Y-148213599D01*
X149528890Y-148298513D01*
X149820000Y-148327185D01*
X150111111Y-148298513D01*
X150391034Y-148213599D01*
X150649014Y-148075706D01*
X150875134Y-147890134D01*
X151060706Y-147664014D01*
X151198599Y-147406033D01*
X151283513Y-147126110D01*
X151305000Y-146907949D01*
X151305000Y-146462050D01*
X151283513Y-146243889D01*
X151198599Y-145963966D01*
X151183117Y-145935000D01*
X155356928Y-145935000D01*
X155356928Y-147435000D01*
X155373992Y-147608254D01*
X155424528Y-147774850D01*
X155506595Y-147928386D01*
X155617038Y-148062962D01*
X155751614Y-148173405D01*
X155905150Y-148255472D01*
X156071746Y-148306008D01*
X156245000Y-148323072D01*
X157445000Y-148323072D01*
X157618254Y-148306008D01*
X157784850Y-148255472D01*
X157938386Y-148173405D01*
X158072962Y-148062962D01*
X158183405Y-147928386D01*
X158237777Y-147826663D01*
X158289866Y-147890134D01*
X158515987Y-148075706D01*
X158773967Y-148213599D01*
X159053890Y-148298513D01*
X159345000Y-148327185D01*
X159636111Y-148298513D01*
X159916034Y-148213599D01*
X160174014Y-148075706D01*
X160400134Y-147890134D01*
X160585706Y-147664014D01*
X160723599Y-147406033D01*
X160808513Y-147126110D01*
X160830000Y-146907949D01*
X160830000Y-146462050D01*
X160808513Y-146243889D01*
X160723599Y-145963966D01*
X160585706Y-145705986D01*
X160400134Y-145479866D01*
X160174013Y-145294294D01*
X159916033Y-145156401D01*
X159636110Y-145071487D01*
X159345000Y-145042815D01*
X159053889Y-145071487D01*
X158773966Y-145156401D01*
X158515986Y-145294294D01*
X158289866Y-145479866D01*
X158237777Y-145543337D01*
X158183405Y-145441614D01*
X158072962Y-145307038D01*
X157938386Y-145196595D01*
X157784850Y-145114528D01*
X157618254Y-145063992D01*
X157445000Y-145046928D01*
X156245000Y-145046928D01*
X156071746Y-145063992D01*
X155905150Y-145114528D01*
X155751614Y-145196595D01*
X155617038Y-145307038D01*
X155506595Y-145441614D01*
X155424528Y-145595150D01*
X155373992Y-145761746D01*
X155356928Y-145935000D01*
X151183117Y-145935000D01*
X151060706Y-145705986D01*
X150875134Y-145479866D01*
X150649013Y-145294294D01*
X150391033Y-145156401D01*
X150111110Y-145071487D01*
X149820000Y-145042815D01*
X149528889Y-145071487D01*
X149248966Y-145156401D01*
X148990986Y-145294294D01*
X148764866Y-145479866D01*
X148712777Y-145543337D01*
X148658405Y-145441614D01*
X148547962Y-145307038D01*
X148413386Y-145196595D01*
X148259850Y-145114528D01*
X148105194Y-145067614D01*
X148105000Y-145065646D01*
X148105000Y-145065639D01*
X148093641Y-144950313D01*
X148048754Y-144802340D01*
X147975862Y-144665967D01*
X147877764Y-144546436D01*
X147847817Y-144521859D01*
X141398306Y-138072349D01*
X141420120Y-138050535D01*
X141573005Y-137821727D01*
X141678314Y-137567490D01*
X141732000Y-137297592D01*
X141732000Y-137022408D01*
X141691758Y-136820100D01*
X142496943Y-136820100D01*
X144121253Y-138444410D01*
X144145836Y-138474364D01*
X144265367Y-138572462D01*
X144349174Y-138617257D01*
X144401740Y-138645354D01*
X144549713Y-138690242D01*
X144624626Y-138697620D01*
X144665039Y-138701600D01*
X144665044Y-138701600D01*
X144703600Y-138705397D01*
X144742156Y-138701600D01*
X152545347Y-138701600D01*
X152583900Y-138705397D01*
X152622453Y-138701600D01*
X152622461Y-138701600D01*
X152737787Y-138690241D01*
X152885760Y-138645354D01*
X153022133Y-138572462D01*
X153141664Y-138474364D01*
X153166247Y-138444410D01*
X153972585Y-137638072D01*
X154081884Y-137638072D01*
X154161072Y-137662094D01*
X154195512Y-137672541D01*
X154209890Y-137673957D01*
X154310839Y-137683900D01*
X154310846Y-137683900D01*
X154349399Y-137687697D01*
X154387952Y-137683900D01*
X165816747Y-137683900D01*
X165855300Y-137687697D01*
X165893853Y-137683900D01*
X165893861Y-137683900D01*
X166009187Y-137672541D01*
X166157160Y-137627654D01*
X166293533Y-137554762D01*
X166413064Y-137456664D01*
X166437647Y-137426710D01*
X169933847Y-133930510D01*
X169978394Y-133967069D01*
X170238736Y-134106225D01*
X170521223Y-134191916D01*
X170741381Y-134213600D01*
X170888619Y-134213600D01*
X171108777Y-134191916D01*
X171391264Y-134106225D01*
X171651606Y-133967069D01*
X171879797Y-133779797D01*
X172067069Y-133551606D01*
X172206225Y-133291264D01*
X172291916Y-133008777D01*
X172320851Y-132715000D01*
X172291916Y-132421223D01*
X172206225Y-132138736D01*
X172067069Y-131878394D01*
X171879797Y-131650203D01*
X171651606Y-131462931D01*
X171618060Y-131445000D01*
X171651606Y-131427069D01*
X171879797Y-131239797D01*
X172067069Y-131011606D01*
X172206225Y-130751264D01*
X172291916Y-130468777D01*
X172320851Y-130175000D01*
X172291916Y-129881223D01*
X172206225Y-129598736D01*
X172067069Y-129338394D01*
X172013382Y-129272976D01*
X172560116Y-128726241D01*
X172590064Y-128701664D01*
X172688162Y-128582133D01*
X172761054Y-128445760D01*
X172771699Y-128410668D01*
X172805942Y-128297787D01*
X172816285Y-128192764D01*
X172817300Y-128182461D01*
X172817300Y-128182456D01*
X172821097Y-128143900D01*
X172817300Y-128105345D01*
X172817300Y-127061756D01*
X172821097Y-127023200D01*
X172817300Y-126984644D01*
X172817300Y-126984639D01*
X172813320Y-126944226D01*
X172805942Y-126869313D01*
X172761054Y-126721340D01*
X172748654Y-126698141D01*
X172688162Y-126584967D01*
X172590064Y-126465436D01*
X172560110Y-126440853D01*
X172059764Y-125940507D01*
X172067069Y-125931606D01*
X172206225Y-125671264D01*
X172291916Y-125388777D01*
X172320851Y-125095000D01*
X172291916Y-124801223D01*
X172206225Y-124518736D01*
X172067069Y-124258394D01*
X171879797Y-124030203D01*
X171651606Y-123842931D01*
X171618060Y-123825000D01*
X171651606Y-123807069D01*
X171879797Y-123619797D01*
X172067069Y-123391606D01*
X172206225Y-123131264D01*
X172291916Y-122848777D01*
X172320851Y-122555000D01*
X172291916Y-122261223D01*
X172206225Y-121978736D01*
X172067069Y-121718394D01*
X171879797Y-121490203D01*
X171651606Y-121302931D01*
X171391264Y-121163775D01*
X171108777Y-121078084D01*
X170888619Y-121056400D01*
X170741381Y-121056400D01*
X170521223Y-121078084D01*
X170238736Y-121163775D01*
X169978394Y-121302931D01*
X169750203Y-121490203D01*
X169743586Y-121498265D01*
X169728102Y-121447220D01*
X169669137Y-121336906D01*
X169589785Y-121240215D01*
X169493094Y-121160863D01*
X169382780Y-121101898D01*
X169263082Y-121065588D01*
X169138600Y-121053328D01*
X167411400Y-121053328D01*
X167286918Y-121065588D01*
X167167220Y-121101898D01*
X167056906Y-121160863D01*
X166960215Y-121240215D01*
X166880863Y-121336906D01*
X166821898Y-121447220D01*
X166785588Y-121566918D01*
X166773328Y-121691400D01*
X166773328Y-123418600D01*
X166785588Y-123543082D01*
X166821898Y-123662780D01*
X166880863Y-123773094D01*
X166960215Y-123869785D01*
X167056906Y-123949137D01*
X167167220Y-124008102D01*
X167231574Y-124027624D01*
X167168146Y-124084707D01*
X166992316Y-124320056D01*
X166865778Y-124585186D01*
X166820042Y-124735974D01*
X166941183Y-124968000D01*
X168148000Y-124968000D01*
X168148000Y-124948000D01*
X168402000Y-124948000D01*
X168402000Y-124968000D01*
X168422000Y-124968000D01*
X168422000Y-125222000D01*
X168402000Y-125222000D01*
X168402000Y-125242000D01*
X168148000Y-125242000D01*
X168148000Y-125222000D01*
X166941183Y-125222000D01*
X166820042Y-125454026D01*
X166865778Y-125604814D01*
X166992316Y-125869944D01*
X167064620Y-125966723D01*
X164354585Y-128676758D01*
X164324637Y-128701336D01*
X164300059Y-128731284D01*
X164300055Y-128731288D01*
X164276917Y-128759482D01*
X164226539Y-128820867D01*
X164193595Y-128882502D01*
X164153646Y-128957241D01*
X164108759Y-129105214D01*
X164093603Y-129259100D01*
X164097401Y-129297663D01*
X164097400Y-133212442D01*
X162240643Y-135069200D01*
X160388072Y-135069200D01*
X160388072Y-134587060D01*
X160497541Y-134477591D01*
X160497545Y-134477586D01*
X161213150Y-133761982D01*
X161256459Y-133726439D01*
X161398294Y-133553613D01*
X161503686Y-133356437D01*
X161568587Y-133142489D01*
X161585010Y-132975742D01*
X161590501Y-132919990D01*
X161585010Y-132864238D01*
X161585010Y-131533708D01*
X161590500Y-131477964D01*
X161585010Y-131422220D01*
X161585010Y-131422213D01*
X161568587Y-131255466D01*
X161503686Y-131041518D01*
X161398294Y-130844342D01*
X161256459Y-130671516D01*
X161213150Y-130635974D01*
X159885000Y-129307824D01*
X159885000Y-124586339D01*
X159993386Y-124528405D01*
X160127962Y-124417962D01*
X160238405Y-124283386D01*
X160320472Y-124129850D01*
X160371008Y-123963254D01*
X160388072Y-123790000D01*
X160388072Y-123157059D01*
X162346742Y-121198390D01*
X162390050Y-121162848D01*
X162531885Y-120990022D01*
X162637277Y-120792846D01*
X162702178Y-120578898D01*
X162718601Y-120412151D01*
X162724092Y-120356399D01*
X162718601Y-120300648D01*
X162718601Y-105985223D01*
X162724092Y-105929471D01*
X162712336Y-105810098D01*
X169065000Y-105810098D01*
X169065000Y-106279902D01*
X169156654Y-106740679D01*
X169336440Y-107174721D01*
X169597450Y-107565349D01*
X169929651Y-107897550D01*
X170320279Y-108158560D01*
X170754321Y-108338346D01*
X171215098Y-108430000D01*
X171684902Y-108430000D01*
X172145679Y-108338346D01*
X172579721Y-108158560D01*
X172970349Y-107897550D01*
X173302550Y-107565349D01*
X173563560Y-107174721D01*
X173743346Y-106740679D01*
X173835000Y-106279902D01*
X173835000Y-105810098D01*
X173743346Y-105349321D01*
X173563560Y-104915279D01*
X173302550Y-104524651D01*
X172970349Y-104192450D01*
X172579721Y-103931440D01*
X172145679Y-103751654D01*
X171684902Y-103660000D01*
X171215098Y-103660000D01*
X170754321Y-103751654D01*
X170320279Y-103931440D01*
X169929651Y-104192450D01*
X169597450Y-104524651D01*
X169336440Y-104915279D01*
X169156654Y-105349321D01*
X169065000Y-105810098D01*
X162712336Y-105810098D01*
X162712037Y-105807068D01*
X162702178Y-105706972D01*
X162637277Y-105493024D01*
X162531885Y-105295848D01*
X162460604Y-105208992D01*
X162425590Y-105166327D01*
X162425588Y-105166325D01*
X162390050Y-105123022D01*
X162346747Y-105087484D01*
X161271125Y-104011864D01*
X161235579Y-103968551D01*
X161062753Y-103826716D01*
X160865577Y-103721324D01*
X160651629Y-103656423D01*
X160484882Y-103640000D01*
X160484881Y-103640000D01*
X160429130Y-103634509D01*
X160373379Y-103640000D01*
X142295752Y-103640000D01*
X142240000Y-103634509D01*
X142184248Y-103640000D01*
X142017501Y-103656423D01*
X141803553Y-103721324D01*
X141606377Y-103826716D01*
X141433551Y-103968551D01*
X141398009Y-104011859D01*
X140335000Y-105074869D01*
X140271439Y-105011308D01*
X140271435Y-105011303D01*
X139097186Y-103837054D01*
X139061639Y-103793741D01*
X138888813Y-103651906D01*
X138691637Y-103546514D01*
X138637198Y-103530000D01*
X172052721Y-103530000D01*
X172449545Y-103568909D01*
X172800208Y-103674780D01*
X173123625Y-103846744D01*
X173407484Y-104078254D01*
X173640965Y-104360486D01*
X173815183Y-104682695D01*
X173923502Y-105032614D01*
X173965001Y-105427452D01*
X173965000Y-149827723D01*
X173938185Y-150101205D01*
X173868133Y-150333226D01*
X173754350Y-150547222D01*
X173601169Y-150735039D01*
X173414424Y-150889529D01*
X173201231Y-151004802D01*
X172969701Y-151076472D01*
X172698276Y-151105000D01*
X140980372Y-151105000D01*
X141053980Y-151065656D01*
X141120960Y-150825565D01*
X140335000Y-150039605D01*
X139549040Y-150825565D01*
X139616020Y-151065656D01*
X139699690Y-151105000D01*
X125739840Y-151105000D01*
X125756727Y-151098005D01*
X125985535Y-150945120D01*
X126180120Y-150750535D01*
X126333005Y-150521727D01*
X126438314Y-150267490D01*
X126492000Y-149997592D01*
X126492000Y-149932017D01*
X138933090Y-149932017D01*
X138974078Y-150204133D01*
X139067364Y-150463023D01*
X139129344Y-150578980D01*
X139369435Y-150645960D01*
X140155395Y-149860000D01*
X140514605Y-149860000D01*
X141300565Y-150645960D01*
X141540656Y-150578980D01*
X141657756Y-150329952D01*
X141724023Y-150062865D01*
X141736910Y-149787983D01*
X141695922Y-149515867D01*
X141602636Y-149256977D01*
X141540656Y-149141020D01*
X141300565Y-149074040D01*
X140514605Y-149860000D01*
X140155395Y-149860000D01*
X139369435Y-149074040D01*
X139129344Y-149141020D01*
X139012244Y-149390048D01*
X138945977Y-149657135D01*
X138933090Y-149932017D01*
X126492000Y-149932017D01*
X126492000Y-149722408D01*
X126438314Y-149452510D01*
X126333005Y-149198273D01*
X126180120Y-148969465D01*
X125985535Y-148774880D01*
X125756727Y-148621995D01*
X125685057Y-148592308D01*
X125698023Y-148587636D01*
X125813980Y-148525656D01*
X125880960Y-148285565D01*
X125095000Y-147499605D01*
X124309040Y-148285565D01*
X124376020Y-148525656D01*
X124511760Y-148589485D01*
X124433273Y-148621995D01*
X124204465Y-148774880D01*
X124009880Y-148969465D01*
X123856995Y-149198273D01*
X123751686Y-149452510D01*
X123698000Y-149722408D01*
X123698000Y-149997592D01*
X123751686Y-150267490D01*
X123856995Y-150521727D01*
X124009880Y-150750535D01*
X124204465Y-150945120D01*
X124433273Y-151098005D01*
X124450160Y-151105000D01*
X107347277Y-151105000D01*
X107073795Y-151078185D01*
X106841774Y-151008133D01*
X106627778Y-150894350D01*
X106439961Y-150741169D01*
X106285471Y-150554424D01*
X106170198Y-150341231D01*
X106098528Y-150109701D01*
X106070000Y-149838276D01*
X106070000Y-148355098D01*
X106200000Y-148355098D01*
X106200000Y-148824902D01*
X106291654Y-149285679D01*
X106471440Y-149719721D01*
X106732450Y-150110349D01*
X107064651Y-150442550D01*
X107455279Y-150703560D01*
X107889321Y-150883346D01*
X108350098Y-150975000D01*
X108819902Y-150975000D01*
X109280679Y-150883346D01*
X109714721Y-150703560D01*
X110105349Y-150442550D01*
X110437550Y-150110349D01*
X110698560Y-149719721D01*
X110878346Y-149285679D01*
X110970000Y-148824902D01*
X110970000Y-148355098D01*
X110958046Y-148295000D01*
X113526928Y-148295000D01*
X113539188Y-148419482D01*
X113575498Y-148539180D01*
X113634463Y-148649494D01*
X113713815Y-148746185D01*
X113810506Y-148825537D01*
X113920820Y-148884502D01*
X114040518Y-148920812D01*
X114165000Y-148933072D01*
X114729250Y-148930000D01*
X114888000Y-148771250D01*
X114888000Y-147447000D01*
X113688750Y-147447000D01*
X113530000Y-147605750D01*
X113526928Y-148295000D01*
X110958046Y-148295000D01*
X110878346Y-147894321D01*
X110698560Y-147460279D01*
X110437550Y-147069651D01*
X110105349Y-146737450D01*
X109714721Y-146476440D01*
X109397397Y-146345000D01*
X113526928Y-146345000D01*
X113530000Y-147034250D01*
X113688750Y-147193000D01*
X114888000Y-147193000D01*
X114888000Y-145868750D01*
X114729250Y-145710000D01*
X114165000Y-145706928D01*
X114040518Y-145719188D01*
X113920820Y-145755498D01*
X113810506Y-145814463D01*
X113713815Y-145893815D01*
X113634463Y-145990506D01*
X113575498Y-146100820D01*
X113539188Y-146220518D01*
X113526928Y-146345000D01*
X109397397Y-146345000D01*
X109280679Y-146296654D01*
X108819902Y-146205000D01*
X108350098Y-146205000D01*
X107889321Y-146296654D01*
X107455279Y-146476440D01*
X107064651Y-146737450D01*
X106732450Y-147069651D01*
X106471440Y-147460279D01*
X106291654Y-147894321D01*
X106200000Y-148355098D01*
X106070000Y-148355098D01*
X106070000Y-144253000D01*
X111916928Y-144253000D01*
X111929188Y-144377482D01*
X111965498Y-144497180D01*
X112024463Y-144607494D01*
X112103815Y-144704185D01*
X112200506Y-144783537D01*
X112310820Y-144842502D01*
X112430518Y-144878812D01*
X112555000Y-144891072D01*
X112744250Y-144888000D01*
X112903000Y-144729250D01*
X112903000Y-143942500D01*
X113157000Y-143942500D01*
X113157000Y-144729250D01*
X113315750Y-144888000D01*
X113505000Y-144891072D01*
X113629482Y-144878812D01*
X113749180Y-144842502D01*
X113859494Y-144783537D01*
X113956185Y-144704185D01*
X114035537Y-144607494D01*
X114094502Y-144497180D01*
X114130812Y-144377482D01*
X114143072Y-144253000D01*
X114140000Y-144101250D01*
X113981250Y-143942500D01*
X113157000Y-143942500D01*
X112903000Y-143942500D01*
X112078750Y-143942500D01*
X111920000Y-144101250D01*
X111916928Y-144253000D01*
X106070000Y-144253000D01*
X106070000Y-137230512D01*
X109589783Y-137230512D01*
X109631213Y-137510130D01*
X109726397Y-137776292D01*
X109793329Y-137901514D01*
X110037298Y-137973097D01*
X110850395Y-137160000D01*
X110037298Y-136346903D01*
X109793329Y-136418486D01*
X109672429Y-136673996D01*
X109603700Y-136948184D01*
X109589783Y-137230512D01*
X106070000Y-137230512D01*
X106070000Y-125373110D01*
X109533524Y-125373110D01*
X109654845Y-125603000D01*
X110998000Y-125603000D01*
X110998000Y-124402768D01*
X110765258Y-124258715D01*
X110482255Y-124327904D01*
X110218188Y-124450975D01*
X109983205Y-124623198D01*
X109786336Y-124837954D01*
X109635146Y-125086991D01*
X109535446Y-125360739D01*
X109533524Y-125373110D01*
X106070000Y-125373110D01*
X106070000Y-105810098D01*
X106200000Y-105810098D01*
X106200000Y-106279902D01*
X106291654Y-106740679D01*
X106471440Y-107174721D01*
X106732450Y-107565349D01*
X107064651Y-107897550D01*
X107455279Y-108158560D01*
X107889321Y-108338346D01*
X108350098Y-108430000D01*
X108819902Y-108430000D01*
X109280679Y-108338346D01*
X109714721Y-108158560D01*
X110105349Y-107897550D01*
X110437550Y-107565349D01*
X110698560Y-107174721D01*
X110878346Y-106740679D01*
X110970000Y-106279902D01*
X110970000Y-105810098D01*
X110878346Y-105349321D01*
X110698560Y-104915279D01*
X110437550Y-104524651D01*
X110105349Y-104192450D01*
X109714721Y-103931440D01*
X109280679Y-103751654D01*
X108819902Y-103660000D01*
X108350098Y-103660000D01*
X107889321Y-103751654D01*
X107455279Y-103931440D01*
X107064651Y-104192450D01*
X106732450Y-104524651D01*
X106471440Y-104915279D01*
X106291654Y-105349321D01*
X106200000Y-105810098D01*
X106070000Y-105810098D01*
X106070000Y-104807277D01*
X106096815Y-104533796D01*
X106166867Y-104301774D01*
X106280650Y-104087778D01*
X106433832Y-103899959D01*
X106620577Y-103745470D01*
X106833769Y-103630199D01*
X107065300Y-103558528D01*
X107336725Y-103530000D01*
X119398672Y-103530000D01*
X119344233Y-103546514D01*
G36*
X122682000Y-109093000D02*
G01*
X122702000Y-109093000D01*
X122702000Y-109347000D01*
X122682000Y-109347000D01*
X122682000Y-110553817D01*
X122914026Y-110674958D01*
X123064814Y-110629222D01*
X123329944Y-110502684D01*
X123565293Y-110326854D01*
X123761817Y-110108488D01*
X123819137Y-110012090D01*
X123842931Y-110056606D01*
X124030203Y-110284797D01*
X124258394Y-110472069D01*
X124518736Y-110611225D01*
X124801223Y-110696916D01*
X125021381Y-110718600D01*
X125168619Y-110718600D01*
X125388777Y-110696916D01*
X125580001Y-110638909D01*
X125580001Y-115528792D01*
X125502490Y-115496686D01*
X125232592Y-115443000D01*
X124957408Y-115443000D01*
X124687510Y-115496686D01*
X124433273Y-115601995D01*
X124204465Y-115754880D01*
X124009880Y-115949465D01*
X123856995Y-116178273D01*
X123751686Y-116432510D01*
X123698000Y-116702408D01*
X123698000Y-116977592D01*
X123751686Y-117247490D01*
X123856995Y-117501727D01*
X124009880Y-117730535D01*
X124204465Y-117925120D01*
X124433273Y-118078005D01*
X124510515Y-118110000D01*
X124433273Y-118141995D01*
X124204465Y-118294880D01*
X124009880Y-118489465D01*
X123856995Y-118718273D01*
X123751686Y-118972510D01*
X123698000Y-119242408D01*
X123698000Y-119517592D01*
X123751686Y-119787490D01*
X123856995Y-120041727D01*
X124009880Y-120270535D01*
X124204465Y-120465120D01*
X124433273Y-120618005D01*
X124510515Y-120650000D01*
X124433273Y-120681995D01*
X124204465Y-120834880D01*
X124009880Y-121029465D01*
X123856995Y-121258273D01*
X123751686Y-121512510D01*
X123698000Y-121782408D01*
X123698000Y-122057592D01*
X123751686Y-122327490D01*
X123856995Y-122581727D01*
X124009880Y-122810535D01*
X124204465Y-123005120D01*
X124433273Y-123158005D01*
X124510515Y-123190000D01*
X124433273Y-123221995D01*
X124204465Y-123374880D01*
X124009880Y-123569465D01*
X123856995Y-123798273D01*
X123751686Y-124052510D01*
X123698000Y-124322408D01*
X123698000Y-124597592D01*
X123751686Y-124867490D01*
X123856995Y-125121727D01*
X124009880Y-125350535D01*
X124204465Y-125545120D01*
X124433273Y-125698005D01*
X124510515Y-125730000D01*
X124433273Y-125761995D01*
X124204465Y-125914880D01*
X124009880Y-126109465D01*
X123856995Y-126338273D01*
X123751686Y-126592510D01*
X123698000Y-126862408D01*
X123698000Y-127137592D01*
X123751686Y-127407490D01*
X123856995Y-127661727D01*
X124009880Y-127890535D01*
X124204465Y-128085120D01*
X124433273Y-128238005D01*
X124510515Y-128270000D01*
X124433273Y-128301995D01*
X124204465Y-128454880D01*
X124009880Y-128649465D01*
X123856995Y-128878273D01*
X123751686Y-129132510D01*
X123698000Y-129402408D01*
X123698000Y-129677592D01*
X123751686Y-129947490D01*
X123856995Y-130201727D01*
X124009880Y-130430535D01*
X124204465Y-130625120D01*
X124433273Y-130778005D01*
X124510515Y-130810000D01*
X124433273Y-130841995D01*
X124204465Y-130994880D01*
X124009880Y-131189465D01*
X123856995Y-131418273D01*
X123751686Y-131672510D01*
X123698000Y-131942408D01*
X123698000Y-132217592D01*
X123751686Y-132487490D01*
X123856995Y-132741727D01*
X124009880Y-132970535D01*
X124204465Y-133165120D01*
X124433273Y-133318005D01*
X124510515Y-133350000D01*
X124433273Y-133381995D01*
X124204465Y-133534880D01*
X124009880Y-133729465D01*
X123856995Y-133958273D01*
X123751686Y-134212510D01*
X123698000Y-134482408D01*
X123698000Y-134757592D01*
X123751686Y-135027490D01*
X123856995Y-135281727D01*
X124009880Y-135510535D01*
X124204465Y-135705120D01*
X124433273Y-135858005D01*
X124510515Y-135890000D01*
X124433273Y-135921995D01*
X124204465Y-136074880D01*
X124009880Y-136269465D01*
X123856995Y-136498273D01*
X123751686Y-136752510D01*
X123698000Y-137022408D01*
X123698000Y-137297592D01*
X123751686Y-137567490D01*
X123856995Y-137821727D01*
X124009880Y-138050535D01*
X124204465Y-138245120D01*
X124433273Y-138398005D01*
X124510515Y-138430000D01*
X124433273Y-138461995D01*
X124204465Y-138614880D01*
X124009880Y-138809465D01*
X123856995Y-139038273D01*
X123751686Y-139292510D01*
X123698000Y-139562408D01*
X123698000Y-139837592D01*
X123751686Y-140107490D01*
X123856995Y-140361727D01*
X124009880Y-140590535D01*
X124204465Y-140785120D01*
X124433273Y-140938005D01*
X124510515Y-140970000D01*
X124433273Y-141001995D01*
X124204465Y-141154880D01*
X124009880Y-141349465D01*
X123856995Y-141578273D01*
X123751686Y-141832510D01*
X123698000Y-142102408D01*
X123698000Y-142377592D01*
X123722762Y-142502080D01*
X120449775Y-145775068D01*
X120306110Y-145731487D01*
X120015000Y-145702815D01*
X119723889Y-145731487D01*
X119443966Y-145816401D01*
X119185986Y-145954294D01*
X118959866Y-146139866D01*
X118774294Y-146365987D01*
X118765000Y-146383374D01*
X118755706Y-146365986D01*
X118570134Y-146139866D01*
X118344013Y-145954294D01*
X118300000Y-145930769D01*
X118300000Y-141890157D01*
X119635560Y-140554597D01*
X119863816Y-140600000D01*
X120166184Y-140600000D01*
X120462743Y-140541011D01*
X120742095Y-140425299D01*
X120993505Y-140257312D01*
X121207312Y-140043505D01*
X121375299Y-139792095D01*
X121491011Y-139512743D01*
X121550000Y-139216184D01*
X121550000Y-138913816D01*
X121491011Y-138617257D01*
X121375299Y-138337905D01*
X121207312Y-138086495D01*
X120993505Y-137872688D01*
X120742095Y-137704701D01*
X120462743Y-137588989D01*
X120166184Y-137530000D01*
X120037500Y-137530000D01*
X120037500Y-137198561D01*
X120041298Y-137160000D01*
X120037500Y-137121439D01*
X120037500Y-132400572D01*
X121650000Y-132400572D01*
X121774482Y-132388312D01*
X121894180Y-132352002D01*
X122004494Y-132293037D01*
X122101185Y-132213685D01*
X122180537Y-132116994D01*
X122239502Y-132006680D01*
X122275812Y-131886982D01*
X122288072Y-131762500D01*
X122288072Y-129857500D01*
X122275812Y-129733018D01*
X122239502Y-129613320D01*
X122180537Y-129503006D01*
X122101185Y-129406315D01*
X122004494Y-129326963D01*
X121912781Y-129277941D01*
X122025969Y-129136923D01*
X122169571Y-128861094D01*
X122240563Y-128642980D01*
X122120594Y-128397000D01*
X120777000Y-128397000D01*
X120777000Y-128417000D01*
X120523000Y-128417000D01*
X120523000Y-128397000D01*
X120503000Y-128397000D01*
X120503000Y-128143000D01*
X120523000Y-128143000D01*
X120523000Y-128123000D01*
X120777000Y-128123000D01*
X120777000Y-128143000D01*
X122120594Y-128143000D01*
X122240563Y-127897020D01*
X122169571Y-127678906D01*
X122025969Y-127403077D01*
X121831315Y-127160563D01*
X121646101Y-127005163D01*
X121825463Y-126857963D01*
X122023845Y-126616235D01*
X122171255Y-126340449D01*
X122262030Y-126041204D01*
X122292681Y-125730000D01*
X122262030Y-125418796D01*
X122171255Y-125119551D01*
X122023845Y-124843765D01*
X121825463Y-124602037D01*
X121693566Y-124493792D01*
X121765015Y-124422343D01*
X121794964Y-124397764D01*
X121893062Y-124278233D01*
X121965954Y-124141860D01*
X121983291Y-124084707D01*
X122010841Y-123993888D01*
X122013858Y-123963254D01*
X122022200Y-123878561D01*
X122022200Y-123878554D01*
X122025997Y-123840001D01*
X122022200Y-123801448D01*
X122022200Y-112481356D01*
X122025997Y-112442800D01*
X122022200Y-112404240D01*
X122022200Y-112404239D01*
X122017828Y-112359849D01*
X122013601Y-112316929D01*
X122013601Y-110614147D01*
X122045186Y-110629222D01*
X122195974Y-110674958D01*
X122428000Y-110553817D01*
X122428000Y-109347000D01*
X122408000Y-109347000D01*
X122408000Y-109093000D01*
X122428000Y-109093000D01*
X122428000Y-109073000D01*
X122682000Y-109073000D01*
X122682000Y-109093000D01*
X122682000Y-109093000D01*
G37*
X122682000Y-109093000D02*
X122702000Y-109093000D01*
X122702000Y-109347000D01*
X122682000Y-109347000D01*
X122682000Y-110553817D01*
X122914026Y-110674958D01*
X123064814Y-110629222D01*
X123329944Y-110502684D01*
X123565293Y-110326854D01*
X123761817Y-110108488D01*
X123819137Y-110012090D01*
X123842931Y-110056606D01*
X124030203Y-110284797D01*
X124258394Y-110472069D01*
X124518736Y-110611225D01*
X124801223Y-110696916D01*
X125021381Y-110718600D01*
X125168619Y-110718600D01*
X125388777Y-110696916D01*
X125580001Y-110638909D01*
X125580001Y-115528792D01*
X125502490Y-115496686D01*
X125232592Y-115443000D01*
X124957408Y-115443000D01*
X124687510Y-115496686D01*
X124433273Y-115601995D01*
X124204465Y-115754880D01*
X124009880Y-115949465D01*
X123856995Y-116178273D01*
X123751686Y-116432510D01*
X123698000Y-116702408D01*
X123698000Y-116977592D01*
X123751686Y-117247490D01*
X123856995Y-117501727D01*
X124009880Y-117730535D01*
X124204465Y-117925120D01*
X124433273Y-118078005D01*
X124510515Y-118110000D01*
X124433273Y-118141995D01*
X124204465Y-118294880D01*
X124009880Y-118489465D01*
X123856995Y-118718273D01*
X123751686Y-118972510D01*
X123698000Y-119242408D01*
X123698000Y-119517592D01*
X123751686Y-119787490D01*
X123856995Y-120041727D01*
X124009880Y-120270535D01*
X124204465Y-120465120D01*
X124433273Y-120618005D01*
X124510515Y-120650000D01*
X124433273Y-120681995D01*
X124204465Y-120834880D01*
X124009880Y-121029465D01*
X123856995Y-121258273D01*
X123751686Y-121512510D01*
X123698000Y-121782408D01*
X123698000Y-122057592D01*
X123751686Y-122327490D01*
X123856995Y-122581727D01*
X124009880Y-122810535D01*
X124204465Y-123005120D01*
X124433273Y-123158005D01*
X124510515Y-123190000D01*
X124433273Y-123221995D01*
X124204465Y-123374880D01*
X124009880Y-123569465D01*
X123856995Y-123798273D01*
X123751686Y-124052510D01*
X123698000Y-124322408D01*
X123698000Y-124597592D01*
X123751686Y-124867490D01*
X123856995Y-125121727D01*
X124009880Y-125350535D01*
X124204465Y-125545120D01*
X124433273Y-125698005D01*
X124510515Y-125730000D01*
X124433273Y-125761995D01*
X124204465Y-125914880D01*
X124009880Y-126109465D01*
X123856995Y-126338273D01*
X123751686Y-126592510D01*
X123698000Y-126862408D01*
X123698000Y-127137592D01*
X123751686Y-127407490D01*
X123856995Y-127661727D01*
X124009880Y-127890535D01*
X124204465Y-128085120D01*
X124433273Y-128238005D01*
X124510515Y-128270000D01*
X124433273Y-128301995D01*
X124204465Y-128454880D01*
X124009880Y-128649465D01*
X123856995Y-128878273D01*
X123751686Y-129132510D01*
X123698000Y-129402408D01*
X123698000Y-129677592D01*
X123751686Y-129947490D01*
X123856995Y-130201727D01*
X124009880Y-130430535D01*
X124204465Y-130625120D01*
X124433273Y-130778005D01*
X124510515Y-130810000D01*
X124433273Y-130841995D01*
X124204465Y-130994880D01*
X124009880Y-131189465D01*
X123856995Y-131418273D01*
X123751686Y-131672510D01*
X123698000Y-131942408D01*
X123698000Y-132217592D01*
X123751686Y-132487490D01*
X123856995Y-132741727D01*
X124009880Y-132970535D01*
X124204465Y-133165120D01*
X124433273Y-133318005D01*
X124510515Y-133350000D01*
X124433273Y-133381995D01*
X124204465Y-133534880D01*
X124009880Y-133729465D01*
X123856995Y-133958273D01*
X123751686Y-134212510D01*
X123698000Y-134482408D01*
X123698000Y-134757592D01*
X123751686Y-135027490D01*
X123856995Y-135281727D01*
X124009880Y-135510535D01*
X124204465Y-135705120D01*
X124433273Y-135858005D01*
X124510515Y-135890000D01*
X124433273Y-135921995D01*
X124204465Y-136074880D01*
X124009880Y-136269465D01*
X123856995Y-136498273D01*
X123751686Y-136752510D01*
X123698000Y-137022408D01*
X123698000Y-137297592D01*
X123751686Y-137567490D01*
X123856995Y-137821727D01*
X124009880Y-138050535D01*
X124204465Y-138245120D01*
X124433273Y-138398005D01*
X124510515Y-138430000D01*
X124433273Y-138461995D01*
X124204465Y-138614880D01*
X124009880Y-138809465D01*
X123856995Y-139038273D01*
X123751686Y-139292510D01*
X123698000Y-139562408D01*
X123698000Y-139837592D01*
X123751686Y-140107490D01*
X123856995Y-140361727D01*
X124009880Y-140590535D01*
X124204465Y-140785120D01*
X124433273Y-140938005D01*
X124510515Y-140970000D01*
X124433273Y-141001995D01*
X124204465Y-141154880D01*
X124009880Y-141349465D01*
X123856995Y-141578273D01*
X123751686Y-141832510D01*
X123698000Y-142102408D01*
X123698000Y-142377592D01*
X123722762Y-142502080D01*
X120449775Y-145775068D01*
X120306110Y-145731487D01*
X120015000Y-145702815D01*
X119723889Y-145731487D01*
X119443966Y-145816401D01*
X119185986Y-145954294D01*
X118959866Y-146139866D01*
X118774294Y-146365987D01*
X118765000Y-146383374D01*
X118755706Y-146365986D01*
X118570134Y-146139866D01*
X118344013Y-145954294D01*
X118300000Y-145930769D01*
X118300000Y-141890157D01*
X119635560Y-140554597D01*
X119863816Y-140600000D01*
X120166184Y-140600000D01*
X120462743Y-140541011D01*
X120742095Y-140425299D01*
X120993505Y-140257312D01*
X121207312Y-140043505D01*
X121375299Y-139792095D01*
X121491011Y-139512743D01*
X121550000Y-139216184D01*
X121550000Y-138913816D01*
X121491011Y-138617257D01*
X121375299Y-138337905D01*
X121207312Y-138086495D01*
X120993505Y-137872688D01*
X120742095Y-137704701D01*
X120462743Y-137588989D01*
X120166184Y-137530000D01*
X120037500Y-137530000D01*
X120037500Y-137198561D01*
X120041298Y-137160000D01*
X120037500Y-137121439D01*
X120037500Y-132400572D01*
X121650000Y-132400572D01*
X121774482Y-132388312D01*
X121894180Y-132352002D01*
X122004494Y-132293037D01*
X122101185Y-132213685D01*
X122180537Y-132116994D01*
X122239502Y-132006680D01*
X122275812Y-131886982D01*
X122288072Y-131762500D01*
X122288072Y-129857500D01*
X122275812Y-129733018D01*
X122239502Y-129613320D01*
X122180537Y-129503006D01*
X122101185Y-129406315D01*
X122004494Y-129326963D01*
X121912781Y-129277941D01*
X122025969Y-129136923D01*
X122169571Y-128861094D01*
X122240563Y-128642980D01*
X122120594Y-128397000D01*
X120777000Y-128397000D01*
X120777000Y-128417000D01*
X120523000Y-128417000D01*
X120523000Y-128397000D01*
X120503000Y-128397000D01*
X120503000Y-128143000D01*
X120523000Y-128143000D01*
X120523000Y-128123000D01*
X120777000Y-128123000D01*
X120777000Y-128143000D01*
X122120594Y-128143000D01*
X122240563Y-127897020D01*
X122169571Y-127678906D01*
X122025969Y-127403077D01*
X121831315Y-127160563D01*
X121646101Y-127005163D01*
X121825463Y-126857963D01*
X122023845Y-126616235D01*
X122171255Y-126340449D01*
X122262030Y-126041204D01*
X122292681Y-125730000D01*
X122262030Y-125418796D01*
X122171255Y-125119551D01*
X122023845Y-124843765D01*
X121825463Y-124602037D01*
X121693566Y-124493792D01*
X121765015Y-124422343D01*
X121794964Y-124397764D01*
X121893062Y-124278233D01*
X121965954Y-124141860D01*
X121983291Y-124084707D01*
X122010841Y-123993888D01*
X122013858Y-123963254D01*
X122022200Y-123878561D01*
X122022200Y-123878554D01*
X122025997Y-123840001D01*
X122022200Y-123801448D01*
X122022200Y-112481356D01*
X122025997Y-112442800D01*
X122022200Y-112404240D01*
X122022200Y-112404239D01*
X122017828Y-112359849D01*
X122013601Y-112316929D01*
X122013601Y-110614147D01*
X122045186Y-110629222D01*
X122195974Y-110674958D01*
X122428000Y-110553817D01*
X122428000Y-109347000D01*
X122408000Y-109347000D01*
X122408000Y-109093000D01*
X122428000Y-109093000D01*
X122428000Y-109073000D01*
X122682000Y-109073000D01*
X122682000Y-109093000D01*
G36*
X147447000Y-127508000D02*
G01*
X147467000Y-127508000D01*
X147467000Y-127762000D01*
X147447000Y-127762000D01*
X147447000Y-129111250D01*
X147605750Y-129270000D01*
X148170000Y-129273072D01*
X148294482Y-129260812D01*
X148414180Y-129224502D01*
X148524494Y-129165537D01*
X148621185Y-129086185D01*
X148700537Y-128989494D01*
X148759502Y-128879180D01*
X148770055Y-128844392D01*
X148990987Y-129025706D01*
X149248967Y-129163599D01*
X149528890Y-129248513D01*
X149820000Y-129277185D01*
X150111111Y-129248513D01*
X150391034Y-129163599D01*
X150649014Y-129025706D01*
X150875134Y-128840134D01*
X151060706Y-128614014D01*
X151164408Y-128420000D01*
X151512599Y-128420000D01*
X151575885Y-128497115D01*
X151705725Y-128603671D01*
X151853858Y-128682850D01*
X152014592Y-128731608D01*
X152181750Y-128748072D01*
X152619250Y-128748072D01*
X152786408Y-128731608D01*
X152947142Y-128682850D01*
X153095275Y-128603671D01*
X153188000Y-128527574D01*
X153190500Y-128529626D01*
X153190501Y-135630373D01*
X153188000Y-135632426D01*
X153095275Y-135556329D01*
X152947142Y-135477150D01*
X152786408Y-135428392D01*
X152619250Y-135411928D01*
X152181750Y-135411928D01*
X152014592Y-135428392D01*
X151853858Y-135477150D01*
X151705725Y-135556329D01*
X151575885Y-135662885D01*
X151512599Y-135740000D01*
X151164409Y-135740000D01*
X151060706Y-135545986D01*
X150875134Y-135319866D01*
X150649013Y-135134294D01*
X150391033Y-134996401D01*
X150111110Y-134911487D01*
X149820000Y-134882815D01*
X149528889Y-134911487D01*
X149248966Y-134996401D01*
X148990986Y-135134294D01*
X148770055Y-135315608D01*
X148759502Y-135280820D01*
X148700537Y-135170506D01*
X148621185Y-135073815D01*
X148524494Y-134994463D01*
X148414180Y-134935498D01*
X148294482Y-134899188D01*
X148170000Y-134886928D01*
X147605750Y-134890000D01*
X147447000Y-135048750D01*
X147447000Y-136398000D01*
X147467000Y-136398000D01*
X147467000Y-136652000D01*
X147447000Y-136652000D01*
X147447000Y-136672000D01*
X147193000Y-136672000D01*
X147193000Y-136652000D01*
X145993750Y-136652000D01*
X145835000Y-136810750D01*
X145833620Y-137131600D01*
X145028757Y-137131600D01*
X143422157Y-135525000D01*
X145831928Y-135525000D01*
X145835000Y-136239250D01*
X145993750Y-136398000D01*
X147193000Y-136398000D01*
X147193000Y-135048750D01*
X147034250Y-134890000D01*
X146470000Y-134886928D01*
X146345518Y-134899188D01*
X146225820Y-134935498D01*
X146115506Y-134994463D01*
X146018815Y-135073815D01*
X145939463Y-135170506D01*
X145880498Y-135280820D01*
X145844188Y-135400518D01*
X145831928Y-135525000D01*
X143422157Y-135525000D01*
X143404447Y-135507290D01*
X143379864Y-135477336D01*
X143260333Y-135379238D01*
X143123960Y-135306346D01*
X142975987Y-135261459D01*
X142860661Y-135250100D01*
X142860653Y-135250100D01*
X142822100Y-135246303D01*
X142783547Y-135250100D01*
X141586105Y-135250100D01*
X141678314Y-135027490D01*
X141732000Y-134757592D01*
X141732000Y-134482408D01*
X141678314Y-134212510D01*
X141573005Y-133958273D01*
X141420120Y-133729465D01*
X141225535Y-133534880D01*
X140996727Y-133381995D01*
X140919485Y-133350000D01*
X140996727Y-133318005D01*
X141225535Y-133165120D01*
X141420120Y-132970535D01*
X141573005Y-132741727D01*
X141678314Y-132487490D01*
X141732000Y-132217592D01*
X141732000Y-131942408D01*
X141707238Y-131817919D01*
X145835000Y-127690157D01*
X145835000Y-127762002D01*
X145993748Y-127762002D01*
X145835000Y-127920750D01*
X145831928Y-128635000D01*
X145844188Y-128759482D01*
X145880498Y-128879180D01*
X145939463Y-128989494D01*
X146018815Y-129086185D01*
X146115506Y-129165537D01*
X146225820Y-129224502D01*
X146345518Y-129260812D01*
X146470000Y-129273072D01*
X147034250Y-129270000D01*
X147193000Y-129111250D01*
X147193000Y-127762000D01*
X147173000Y-127762000D01*
X147173000Y-127508000D01*
X147193000Y-127508000D01*
X147193000Y-127488000D01*
X147447000Y-127488000D01*
X147447000Y-127508000D01*
X147447000Y-127508000D01*
G37*
X147447000Y-127508000D02*
X147467000Y-127508000D01*
X147467000Y-127762000D01*
X147447000Y-127762000D01*
X147447000Y-129111250D01*
X147605750Y-129270000D01*
X148170000Y-129273072D01*
X148294482Y-129260812D01*
X148414180Y-129224502D01*
X148524494Y-129165537D01*
X148621185Y-129086185D01*
X148700537Y-128989494D01*
X148759502Y-128879180D01*
X148770055Y-128844392D01*
X148990987Y-129025706D01*
X149248967Y-129163599D01*
X149528890Y-129248513D01*
X149820000Y-129277185D01*
X150111111Y-129248513D01*
X150391034Y-129163599D01*
X150649014Y-129025706D01*
X150875134Y-128840134D01*
X151060706Y-128614014D01*
X151164408Y-128420000D01*
X151512599Y-128420000D01*
X151575885Y-128497115D01*
X151705725Y-128603671D01*
X151853858Y-128682850D01*
X152014592Y-128731608D01*
X152181750Y-128748072D01*
X152619250Y-128748072D01*
X152786408Y-128731608D01*
X152947142Y-128682850D01*
X153095275Y-128603671D01*
X153188000Y-128527574D01*
X153190500Y-128529626D01*
X153190501Y-135630373D01*
X153188000Y-135632426D01*
X153095275Y-135556329D01*
X152947142Y-135477150D01*
X152786408Y-135428392D01*
X152619250Y-135411928D01*
X152181750Y-135411928D01*
X152014592Y-135428392D01*
X151853858Y-135477150D01*
X151705725Y-135556329D01*
X151575885Y-135662885D01*
X151512599Y-135740000D01*
X151164409Y-135740000D01*
X151060706Y-135545986D01*
X150875134Y-135319866D01*
X150649013Y-135134294D01*
X150391033Y-134996401D01*
X150111110Y-134911487D01*
X149820000Y-134882815D01*
X149528889Y-134911487D01*
X149248966Y-134996401D01*
X148990986Y-135134294D01*
X148770055Y-135315608D01*
X148759502Y-135280820D01*
X148700537Y-135170506D01*
X148621185Y-135073815D01*
X148524494Y-134994463D01*
X148414180Y-134935498D01*
X148294482Y-134899188D01*
X148170000Y-134886928D01*
X147605750Y-134890000D01*
X147447000Y-135048750D01*
X147447000Y-136398000D01*
X147467000Y-136398000D01*
X147467000Y-136652000D01*
X147447000Y-136652000D01*
X147447000Y-136672000D01*
X147193000Y-136672000D01*
X147193000Y-136652000D01*
X145993750Y-136652000D01*
X145835000Y-136810750D01*
X145833620Y-137131600D01*
X145028757Y-137131600D01*
X143422157Y-135525000D01*
X145831928Y-135525000D01*
X145835000Y-136239250D01*
X145993750Y-136398000D01*
X147193000Y-136398000D01*
X147193000Y-135048750D01*
X147034250Y-134890000D01*
X146470000Y-134886928D01*
X146345518Y-134899188D01*
X146225820Y-134935498D01*
X146115506Y-134994463D01*
X146018815Y-135073815D01*
X145939463Y-135170506D01*
X145880498Y-135280820D01*
X145844188Y-135400518D01*
X145831928Y-135525000D01*
X143422157Y-135525000D01*
X143404447Y-135507290D01*
X143379864Y-135477336D01*
X143260333Y-135379238D01*
X143123960Y-135306346D01*
X142975987Y-135261459D01*
X142860661Y-135250100D01*
X142860653Y-135250100D01*
X142822100Y-135246303D01*
X142783547Y-135250100D01*
X141586105Y-135250100D01*
X141678314Y-135027490D01*
X141732000Y-134757592D01*
X141732000Y-134482408D01*
X141678314Y-134212510D01*
X141573005Y-133958273D01*
X141420120Y-133729465D01*
X141225535Y-133534880D01*
X140996727Y-133381995D01*
X140919485Y-133350000D01*
X140996727Y-133318005D01*
X141225535Y-133165120D01*
X141420120Y-132970535D01*
X141573005Y-132741727D01*
X141678314Y-132487490D01*
X141732000Y-132217592D01*
X141732000Y-131942408D01*
X141707238Y-131817919D01*
X145835000Y-127690157D01*
X145835000Y-127762002D01*
X145993748Y-127762002D01*
X145835000Y-127920750D01*
X145831928Y-128635000D01*
X145844188Y-128759482D01*
X145880498Y-128879180D01*
X145939463Y-128989494D01*
X146018815Y-129086185D01*
X146115506Y-129165537D01*
X146225820Y-129224502D01*
X146345518Y-129260812D01*
X146470000Y-129273072D01*
X147034250Y-129270000D01*
X147193000Y-129111250D01*
X147193000Y-127762000D01*
X147173000Y-127762000D01*
X147173000Y-127508000D01*
X147193000Y-127508000D01*
X147193000Y-127488000D01*
X147447000Y-127488000D01*
X147447000Y-127508000D01*
G36*
X158767931Y-110056606D02*
G01*
X158955203Y-110284797D01*
X159183394Y-110472069D01*
X159443736Y-110611225D01*
X159726223Y-110696916D01*
X159946381Y-110718600D01*
X160093619Y-110718600D01*
X160313777Y-110696916D01*
X160448601Y-110656018D01*
X160448602Y-119886266D01*
X160252675Y-120082193D01*
X160239854Y-120046991D01*
X160088664Y-119797954D01*
X159891795Y-119583198D01*
X159656812Y-119410975D01*
X159392745Y-119287904D01*
X159109742Y-119218715D01*
X158877000Y-119362768D01*
X158877000Y-120563000D01*
X158897000Y-120563000D01*
X158897000Y-120817000D01*
X158877000Y-120817000D01*
X158877000Y-120837000D01*
X158623000Y-120837000D01*
X158623000Y-120817000D01*
X157279845Y-120817000D01*
X157158524Y-121046890D01*
X157160446Y-121059261D01*
X157260146Y-121333009D01*
X157411336Y-121582046D01*
X157608205Y-121796802D01*
X157608593Y-121797086D01*
X157506614Y-121851595D01*
X157372038Y-121962038D01*
X157261595Y-122096614D01*
X157179528Y-122250150D01*
X157128992Y-122416746D01*
X157111928Y-122590000D01*
X157111928Y-123790000D01*
X157128992Y-123963254D01*
X157179528Y-124129850D01*
X157261595Y-124283386D01*
X157372038Y-124417962D01*
X157506614Y-124528405D01*
X157615000Y-124586339D01*
X157615001Y-129722194D01*
X157609509Y-129777955D01*
X157631423Y-130000453D01*
X157696324Y-130214401D01*
X157745384Y-130306185D01*
X157801717Y-130411578D01*
X157943552Y-130584404D01*
X157986860Y-130619946D01*
X158091951Y-130725037D01*
X157843188Y-130840975D01*
X157608205Y-131013198D01*
X157411336Y-131227954D01*
X157260146Y-131476991D01*
X157160446Y-131750739D01*
X157158524Y-131763110D01*
X157279845Y-131993000D01*
X158623000Y-131993000D01*
X158623000Y-131973000D01*
X158877000Y-131973000D01*
X158877000Y-131993000D01*
X158897000Y-131993000D01*
X158897000Y-132247000D01*
X158877000Y-132247000D01*
X158877000Y-132267000D01*
X158623000Y-132267000D01*
X158623000Y-132247000D01*
X157279845Y-132247000D01*
X157158524Y-132476890D01*
X157160446Y-132489261D01*
X157260146Y-132763009D01*
X157411336Y-133012046D01*
X157608205Y-133226802D01*
X157608593Y-133227086D01*
X157506614Y-133281595D01*
X157372038Y-133392038D01*
X157261595Y-133526614D01*
X157179528Y-133680150D01*
X157128992Y-133846746D01*
X157111928Y-134020000D01*
X157111928Y-134093771D01*
X156938900Y-133920743D01*
X156938900Y-120333110D01*
X157158524Y-120333110D01*
X157279845Y-120563000D01*
X158623000Y-120563000D01*
X158623000Y-119362768D01*
X158390258Y-119218715D01*
X158107255Y-119287904D01*
X157843188Y-119410975D01*
X157608205Y-119583198D01*
X157411336Y-119797954D01*
X157260146Y-120046991D01*
X157160446Y-120320739D01*
X157158524Y-120333110D01*
X156938900Y-120333110D01*
X156938900Y-110621892D01*
X157186223Y-110696916D01*
X157406381Y-110718600D01*
X157553619Y-110718600D01*
X157773777Y-110696916D01*
X158056264Y-110611225D01*
X158316606Y-110472069D01*
X158544797Y-110284797D01*
X158732069Y-110056606D01*
X158750000Y-110023060D01*
X158767931Y-110056606D01*
X158767931Y-110056606D01*
G37*
X158767931Y-110056606D02*
X158955203Y-110284797D01*
X159183394Y-110472069D01*
X159443736Y-110611225D01*
X159726223Y-110696916D01*
X159946381Y-110718600D01*
X160093619Y-110718600D01*
X160313777Y-110696916D01*
X160448601Y-110656018D01*
X160448602Y-119886266D01*
X160252675Y-120082193D01*
X160239854Y-120046991D01*
X160088664Y-119797954D01*
X159891795Y-119583198D01*
X159656812Y-119410975D01*
X159392745Y-119287904D01*
X159109742Y-119218715D01*
X158877000Y-119362768D01*
X158877000Y-120563000D01*
X158897000Y-120563000D01*
X158897000Y-120817000D01*
X158877000Y-120817000D01*
X158877000Y-120837000D01*
X158623000Y-120837000D01*
X158623000Y-120817000D01*
X157279845Y-120817000D01*
X157158524Y-121046890D01*
X157160446Y-121059261D01*
X157260146Y-121333009D01*
X157411336Y-121582046D01*
X157608205Y-121796802D01*
X157608593Y-121797086D01*
X157506614Y-121851595D01*
X157372038Y-121962038D01*
X157261595Y-122096614D01*
X157179528Y-122250150D01*
X157128992Y-122416746D01*
X157111928Y-122590000D01*
X157111928Y-123790000D01*
X157128992Y-123963254D01*
X157179528Y-124129850D01*
X157261595Y-124283386D01*
X157372038Y-124417962D01*
X157506614Y-124528405D01*
X157615000Y-124586339D01*
X157615001Y-129722194D01*
X157609509Y-129777955D01*
X157631423Y-130000453D01*
X157696324Y-130214401D01*
X157745384Y-130306185D01*
X157801717Y-130411578D01*
X157943552Y-130584404D01*
X157986860Y-130619946D01*
X158091951Y-130725037D01*
X157843188Y-130840975D01*
X157608205Y-131013198D01*
X157411336Y-131227954D01*
X157260146Y-131476991D01*
X157160446Y-131750739D01*
X157158524Y-131763110D01*
X157279845Y-131993000D01*
X158623000Y-131993000D01*
X158623000Y-131973000D01*
X158877000Y-131973000D01*
X158877000Y-131993000D01*
X158897000Y-131993000D01*
X158897000Y-132247000D01*
X158877000Y-132247000D01*
X158877000Y-132267000D01*
X158623000Y-132267000D01*
X158623000Y-132247000D01*
X157279845Y-132247000D01*
X157158524Y-132476890D01*
X157160446Y-132489261D01*
X157260146Y-132763009D01*
X157411336Y-133012046D01*
X157608205Y-133226802D01*
X157608593Y-133227086D01*
X157506614Y-133281595D01*
X157372038Y-133392038D01*
X157261595Y-133526614D01*
X157179528Y-133680150D01*
X157128992Y-133846746D01*
X157111928Y-134020000D01*
X157111928Y-134093771D01*
X156938900Y-133920743D01*
X156938900Y-120333110D01*
X157158524Y-120333110D01*
X157279845Y-120563000D01*
X158623000Y-120563000D01*
X158623000Y-119362768D01*
X158390258Y-119218715D01*
X158107255Y-119287904D01*
X157843188Y-119410975D01*
X157608205Y-119583198D01*
X157411336Y-119797954D01*
X157260146Y-120046991D01*
X157160446Y-120320739D01*
X157158524Y-120333110D01*
X156938900Y-120333110D01*
X156938900Y-110621892D01*
X157186223Y-110696916D01*
X157406381Y-110718600D01*
X157553619Y-110718600D01*
X157773777Y-110696916D01*
X158056264Y-110611225D01*
X158316606Y-110472069D01*
X158544797Y-110284797D01*
X158732069Y-110056606D01*
X158750000Y-110023060D01*
X158767931Y-110056606D01*
G36*
X152527000Y-109093000D02*
G01*
X152547000Y-109093000D01*
X152547000Y-109347000D01*
X152527000Y-109347000D01*
X152527000Y-110553817D01*
X152759026Y-110674958D01*
X152885001Y-110636748D01*
X152885000Y-117678300D01*
X152786408Y-117648392D01*
X152619250Y-117631928D01*
X152181750Y-117631928D01*
X152014592Y-117648392D01*
X151853858Y-117697150D01*
X151705725Y-117776329D01*
X151575885Y-117882885D01*
X151512599Y-117960000D01*
X151164409Y-117960000D01*
X151060706Y-117765986D01*
X150875134Y-117539866D01*
X150649013Y-117354294D01*
X150391033Y-117216401D01*
X150111110Y-117131487D01*
X149820000Y-117102815D01*
X149528889Y-117131487D01*
X149248966Y-117216401D01*
X148990986Y-117354294D01*
X148770055Y-117535608D01*
X148759502Y-117500820D01*
X148700537Y-117390506D01*
X148621185Y-117293815D01*
X148524494Y-117214463D01*
X148414180Y-117155498D01*
X148294482Y-117119188D01*
X148170000Y-117106928D01*
X147605750Y-117110000D01*
X147447000Y-117268750D01*
X147447000Y-118618000D01*
X147467000Y-118618000D01*
X147467000Y-118872000D01*
X147447000Y-118872000D01*
X147447000Y-120221250D01*
X147605750Y-120380000D01*
X148170000Y-120383072D01*
X148294482Y-120370812D01*
X148414180Y-120334502D01*
X148524494Y-120275537D01*
X148621185Y-120196185D01*
X148700537Y-120099494D01*
X148759502Y-119989180D01*
X148770055Y-119954392D01*
X148990987Y-120135706D01*
X149035000Y-120159232D01*
X149035001Y-122269842D01*
X141732000Y-129572843D01*
X141732000Y-129402408D01*
X141678314Y-129132510D01*
X141573005Y-128878273D01*
X141420120Y-128649465D01*
X141225535Y-128454880D01*
X140996727Y-128301995D01*
X140919485Y-128270000D01*
X140996727Y-128238005D01*
X141225535Y-128085120D01*
X141420120Y-127890535D01*
X141573005Y-127661727D01*
X141678314Y-127407490D01*
X141732000Y-127137592D01*
X141732000Y-126862408D01*
X141707238Y-126737920D01*
X142260917Y-126184241D01*
X142290864Y-126159664D01*
X142324532Y-126118641D01*
X142350589Y-126086890D01*
X142388962Y-126040133D01*
X142461854Y-125903760D01*
X142467882Y-125883888D01*
X142506742Y-125755787D01*
X142516861Y-125653038D01*
X142518100Y-125640461D01*
X142518100Y-125640456D01*
X142521897Y-125601900D01*
X142518100Y-125563345D01*
X142518100Y-119745000D01*
X145831928Y-119745000D01*
X145844188Y-119869482D01*
X145880498Y-119989180D01*
X145939463Y-120099494D01*
X146018815Y-120196185D01*
X146115506Y-120275537D01*
X146225820Y-120334502D01*
X146345518Y-120370812D01*
X146470000Y-120383072D01*
X147034250Y-120380000D01*
X147193000Y-120221250D01*
X147193000Y-118872000D01*
X145993750Y-118872000D01*
X145835000Y-119030750D01*
X145831928Y-119745000D01*
X142518100Y-119745000D01*
X142518100Y-118885957D01*
X143659057Y-117745000D01*
X145831928Y-117745000D01*
X145835000Y-118459250D01*
X145993750Y-118618000D01*
X147193000Y-118618000D01*
X147193000Y-117268750D01*
X147034250Y-117110000D01*
X146470000Y-117106928D01*
X146345518Y-117119188D01*
X146225820Y-117155498D01*
X146115506Y-117214463D01*
X146018815Y-117293815D01*
X145939463Y-117390506D01*
X145880498Y-117500820D01*
X145844188Y-117620518D01*
X145831928Y-117745000D01*
X143659057Y-117745000D01*
X150387816Y-111016242D01*
X150417764Y-110991664D01*
X150515862Y-110872133D01*
X150588754Y-110735760D01*
X150593028Y-110721672D01*
X150723600Y-110721672D01*
X150848082Y-110709412D01*
X150967780Y-110673102D01*
X151078094Y-110614137D01*
X151174785Y-110534785D01*
X151254137Y-110438094D01*
X151313102Y-110327780D01*
X151332624Y-110263426D01*
X151389707Y-110326854D01*
X151625056Y-110502684D01*
X151890186Y-110629222D01*
X152040974Y-110674958D01*
X152273000Y-110553817D01*
X152273000Y-109347000D01*
X152253000Y-109347000D01*
X152253000Y-109093000D01*
X152273000Y-109093000D01*
X152273000Y-109073000D01*
X152527000Y-109073000D01*
X152527000Y-109093000D01*
X152527000Y-109093000D01*
G37*
X152527000Y-109093000D02*
X152547000Y-109093000D01*
X152547000Y-109347000D01*
X152527000Y-109347000D01*
X152527000Y-110553817D01*
X152759026Y-110674958D01*
X152885001Y-110636748D01*
X152885000Y-117678300D01*
X152786408Y-117648392D01*
X152619250Y-117631928D01*
X152181750Y-117631928D01*
X152014592Y-117648392D01*
X151853858Y-117697150D01*
X151705725Y-117776329D01*
X151575885Y-117882885D01*
X151512599Y-117960000D01*
X151164409Y-117960000D01*
X151060706Y-117765986D01*
X150875134Y-117539866D01*
X150649013Y-117354294D01*
X150391033Y-117216401D01*
X150111110Y-117131487D01*
X149820000Y-117102815D01*
X149528889Y-117131487D01*
X149248966Y-117216401D01*
X148990986Y-117354294D01*
X148770055Y-117535608D01*
X148759502Y-117500820D01*
X148700537Y-117390506D01*
X148621185Y-117293815D01*
X148524494Y-117214463D01*
X148414180Y-117155498D01*
X148294482Y-117119188D01*
X148170000Y-117106928D01*
X147605750Y-117110000D01*
X147447000Y-117268750D01*
X147447000Y-118618000D01*
X147467000Y-118618000D01*
X147467000Y-118872000D01*
X147447000Y-118872000D01*
X147447000Y-120221250D01*
X147605750Y-120380000D01*
X148170000Y-120383072D01*
X148294482Y-120370812D01*
X148414180Y-120334502D01*
X148524494Y-120275537D01*
X148621185Y-120196185D01*
X148700537Y-120099494D01*
X148759502Y-119989180D01*
X148770055Y-119954392D01*
X148990987Y-120135706D01*
X149035000Y-120159232D01*
X149035001Y-122269842D01*
X141732000Y-129572843D01*
X141732000Y-129402408D01*
X141678314Y-129132510D01*
X141573005Y-128878273D01*
X141420120Y-128649465D01*
X141225535Y-128454880D01*
X140996727Y-128301995D01*
X140919485Y-128270000D01*
X140996727Y-128238005D01*
X141225535Y-128085120D01*
X141420120Y-127890535D01*
X141573005Y-127661727D01*
X141678314Y-127407490D01*
X141732000Y-127137592D01*
X141732000Y-126862408D01*
X141707238Y-126737920D01*
X142260917Y-126184241D01*
X142290864Y-126159664D01*
X142324532Y-126118641D01*
X142350589Y-126086890D01*
X142388962Y-126040133D01*
X142461854Y-125903760D01*
X142467882Y-125883888D01*
X142506742Y-125755787D01*
X142516861Y-125653038D01*
X142518100Y-125640461D01*
X142518100Y-125640456D01*
X142521897Y-125601900D01*
X142518100Y-125563345D01*
X142518100Y-119745000D01*
X145831928Y-119745000D01*
X145844188Y-119869482D01*
X145880498Y-119989180D01*
X145939463Y-120099494D01*
X146018815Y-120196185D01*
X146115506Y-120275537D01*
X146225820Y-120334502D01*
X146345518Y-120370812D01*
X146470000Y-120383072D01*
X147034250Y-120380000D01*
X147193000Y-120221250D01*
X147193000Y-118872000D01*
X145993750Y-118872000D01*
X145835000Y-119030750D01*
X145831928Y-119745000D01*
X142518100Y-119745000D01*
X142518100Y-118885957D01*
X143659057Y-117745000D01*
X145831928Y-117745000D01*
X145835000Y-118459250D01*
X145993750Y-118618000D01*
X147193000Y-118618000D01*
X147193000Y-117268750D01*
X147034250Y-117110000D01*
X146470000Y-117106928D01*
X146345518Y-117119188D01*
X146225820Y-117155498D01*
X146115506Y-117214463D01*
X146018815Y-117293815D01*
X145939463Y-117390506D01*
X145880498Y-117500820D01*
X145844188Y-117620518D01*
X145831928Y-117745000D01*
X143659057Y-117745000D01*
X150387816Y-111016242D01*
X150417764Y-110991664D01*
X150515862Y-110872133D01*
X150588754Y-110735760D01*
X150593028Y-110721672D01*
X150723600Y-110721672D01*
X150848082Y-110709412D01*
X150967780Y-110673102D01*
X151078094Y-110614137D01*
X151174785Y-110534785D01*
X151254137Y-110438094D01*
X151313102Y-110327780D01*
X151332624Y-110263426D01*
X151389707Y-110326854D01*
X151625056Y-110502684D01*
X151890186Y-110629222D01*
X152040974Y-110674958D01*
X152273000Y-110553817D01*
X152273000Y-109347000D01*
X152253000Y-109347000D01*
X152253000Y-109093000D01*
X152273000Y-109093000D01*
X152273000Y-109073000D01*
X152527000Y-109073000D01*
X152527000Y-109093000D01*
G36*
X138666303Y-106616435D02*
G01*
X138666308Y-106616439D01*
X138696928Y-106647059D01*
X138696928Y-107280000D01*
X138713992Y-107453254D01*
X138764528Y-107619850D01*
X138846595Y-107773386D01*
X138957038Y-107907962D01*
X139091614Y-108018405D01*
X139193593Y-108072914D01*
X139193205Y-108073198D01*
X138996336Y-108287954D01*
X138845146Y-108536991D01*
X138745446Y-108810739D01*
X138743524Y-108823110D01*
X138864845Y-109053000D01*
X140208000Y-109053000D01*
X140208000Y-109033000D01*
X140462000Y-109033000D01*
X140462000Y-109053000D01*
X141805155Y-109053000D01*
X141926476Y-108823110D01*
X141924554Y-108810739D01*
X141824854Y-108536991D01*
X141673664Y-108287954D01*
X141476795Y-108073198D01*
X141476407Y-108072914D01*
X141578386Y-108018405D01*
X141712962Y-107907962D01*
X141823405Y-107773386D01*
X141905472Y-107619850D01*
X141956008Y-107453254D01*
X141973072Y-107280000D01*
X141973072Y-106647059D01*
X142710132Y-105910000D01*
X148572329Y-105910000D01*
X148468775Y-106103736D01*
X148383084Y-106386223D01*
X148354149Y-106680000D01*
X148383084Y-106973777D01*
X148468775Y-107256264D01*
X148607931Y-107516606D01*
X148795203Y-107744797D01*
X148803265Y-107751414D01*
X148752220Y-107766898D01*
X148641906Y-107825863D01*
X148545215Y-107905215D01*
X148465863Y-108001906D01*
X148406898Y-108112220D01*
X148370588Y-108231918D01*
X148358328Y-108356400D01*
X148358328Y-110083600D01*
X148370588Y-110208082D01*
X148406898Y-110327780D01*
X148465863Y-110438094D01*
X148545215Y-110534785D01*
X148602195Y-110581547D01*
X141205285Y-117978458D01*
X141175337Y-118003036D01*
X141150759Y-118032984D01*
X141150755Y-118032988D01*
X141117790Y-118073156D01*
X141077239Y-118122567D01*
X141048400Y-118176522D01*
X140996727Y-118141995D01*
X140919485Y-118110000D01*
X140996727Y-118078005D01*
X141225535Y-117925120D01*
X141420120Y-117730535D01*
X141573005Y-117501727D01*
X141678314Y-117247490D01*
X141732000Y-116977592D01*
X141732000Y-116702408D01*
X141678314Y-116432510D01*
X141573005Y-116178273D01*
X141420120Y-115949465D01*
X141225535Y-115754880D01*
X141120000Y-115684364D01*
X141120000Y-115114756D01*
X141123797Y-115076200D01*
X141120000Y-115037640D01*
X141120000Y-115037639D01*
X141116020Y-114997226D01*
X141108642Y-114922313D01*
X141063754Y-114774340D01*
X140990862Y-114637967D01*
X140892764Y-114518436D01*
X140862811Y-114493854D01*
X135905847Y-109536890D01*
X138743524Y-109536890D01*
X138745446Y-109549261D01*
X138845146Y-109823009D01*
X138996336Y-110072046D01*
X139193205Y-110286802D01*
X139428188Y-110459025D01*
X139692255Y-110582096D01*
X139975258Y-110651285D01*
X140208000Y-110507232D01*
X140208000Y-109307000D01*
X140462000Y-109307000D01*
X140462000Y-110507232D01*
X140694742Y-110651285D01*
X140977745Y-110582096D01*
X141241812Y-110459025D01*
X141476795Y-110286802D01*
X141673664Y-110072046D01*
X141824854Y-109823009D01*
X141924554Y-109549261D01*
X141926476Y-109536890D01*
X141805155Y-109307000D01*
X140462000Y-109307000D01*
X140208000Y-109307000D01*
X138864845Y-109307000D01*
X138743524Y-109536890D01*
X135905847Y-109536890D01*
X132104147Y-105735190D01*
X137785059Y-105735190D01*
X138666303Y-106616435D01*
X138666303Y-106616435D01*
G37*
X138666303Y-106616435D02*
X138666308Y-106616439D01*
X138696928Y-106647059D01*
X138696928Y-107280000D01*
X138713992Y-107453254D01*
X138764528Y-107619850D01*
X138846595Y-107773386D01*
X138957038Y-107907962D01*
X139091614Y-108018405D01*
X139193593Y-108072914D01*
X139193205Y-108073198D01*
X138996336Y-108287954D01*
X138845146Y-108536991D01*
X138745446Y-108810739D01*
X138743524Y-108823110D01*
X138864845Y-109053000D01*
X140208000Y-109053000D01*
X140208000Y-109033000D01*
X140462000Y-109033000D01*
X140462000Y-109053000D01*
X141805155Y-109053000D01*
X141926476Y-108823110D01*
X141924554Y-108810739D01*
X141824854Y-108536991D01*
X141673664Y-108287954D01*
X141476795Y-108073198D01*
X141476407Y-108072914D01*
X141578386Y-108018405D01*
X141712962Y-107907962D01*
X141823405Y-107773386D01*
X141905472Y-107619850D01*
X141956008Y-107453254D01*
X141973072Y-107280000D01*
X141973072Y-106647059D01*
X142710132Y-105910000D01*
X148572329Y-105910000D01*
X148468775Y-106103736D01*
X148383084Y-106386223D01*
X148354149Y-106680000D01*
X148383084Y-106973777D01*
X148468775Y-107256264D01*
X148607931Y-107516606D01*
X148795203Y-107744797D01*
X148803265Y-107751414D01*
X148752220Y-107766898D01*
X148641906Y-107825863D01*
X148545215Y-107905215D01*
X148465863Y-108001906D01*
X148406898Y-108112220D01*
X148370588Y-108231918D01*
X148358328Y-108356400D01*
X148358328Y-110083600D01*
X148370588Y-110208082D01*
X148406898Y-110327780D01*
X148465863Y-110438094D01*
X148545215Y-110534785D01*
X148602195Y-110581547D01*
X141205285Y-117978458D01*
X141175337Y-118003036D01*
X141150759Y-118032984D01*
X141150755Y-118032988D01*
X141117790Y-118073156D01*
X141077239Y-118122567D01*
X141048400Y-118176522D01*
X140996727Y-118141995D01*
X140919485Y-118110000D01*
X140996727Y-118078005D01*
X141225535Y-117925120D01*
X141420120Y-117730535D01*
X141573005Y-117501727D01*
X141678314Y-117247490D01*
X141732000Y-116977592D01*
X141732000Y-116702408D01*
X141678314Y-116432510D01*
X141573005Y-116178273D01*
X141420120Y-115949465D01*
X141225535Y-115754880D01*
X141120000Y-115684364D01*
X141120000Y-115114756D01*
X141123797Y-115076200D01*
X141120000Y-115037640D01*
X141120000Y-115037639D01*
X141116020Y-114997226D01*
X141108642Y-114922313D01*
X141063754Y-114774340D01*
X140990862Y-114637967D01*
X140892764Y-114518436D01*
X140862811Y-114493854D01*
X135905847Y-109536890D01*
X138743524Y-109536890D01*
X138745446Y-109549261D01*
X138845146Y-109823009D01*
X138996336Y-110072046D01*
X139193205Y-110286802D01*
X139428188Y-110459025D01*
X139692255Y-110582096D01*
X139975258Y-110651285D01*
X140208000Y-110507232D01*
X140208000Y-109307000D01*
X140462000Y-109307000D01*
X140462000Y-110507232D01*
X140694742Y-110651285D01*
X140977745Y-110582096D01*
X141241812Y-110459025D01*
X141476795Y-110286802D01*
X141673664Y-110072046D01*
X141824854Y-109823009D01*
X141924554Y-109549261D01*
X141926476Y-109536890D01*
X141805155Y-109307000D01*
X140462000Y-109307000D01*
X140208000Y-109307000D01*
X138864845Y-109307000D01*
X138743524Y-109536890D01*
X135905847Y-109536890D01*
X132104147Y-105735190D01*
X137785059Y-105735190D01*
X138666303Y-106616435D01*
M02*
