G04 #@! TF.GenerationSoftware,KiCad,Pcbnew,(5.1.2)-2*
G04 #@! TF.CreationDate,2021-07-01T16:30:17+09:00*
G04 #@! TF.ProjectId,stepper_tokutyu,73746570-7065-4725-9f74-6f6b75747975,rev?*
G04 #@! TF.SameCoordinates,Original*
G04 #@! TF.FileFunction,Copper,L1,Top*
G04 #@! TF.FilePolarity,Positive*
%FSLAX46Y46*%
G04 Gerber Fmt 4.6, Leading zero omitted, Abs format (unit mm)*
G04 Created by KiCad (PCBNEW (5.1.2)-2) date 2021-07-01 16:30:17*
%MOMM*%
%LPD*%
G04 APERTURE LIST*
%ADD10R,1.600000X1.600000*%
%ADD11C,1.600000*%
%ADD12C,0.100000*%
%ADD13C,1.700000*%
%ADD14O,2.000000X1.700000*%
%ADD15O,1.727200X1.727200*%
%ADD16R,1.727200X1.727200*%
%ADD17O,1.700000X2.000000*%
%ADD18O,1.700000X1.950000*%
%ADD19R,2.000000X1.905000*%
%ADD20O,2.000000X1.905000*%
%ADD21C,1.524000*%
%ADD22O,1.600000X1.600000*%
%ADD23R,1.800000X1.800000*%
%ADD24C,1.800000*%
%ADD25C,0.800000*%
%ADD26C,0.300000*%
%ADD27C,1.000000*%
%ADD28C,0.254000*%
G04 APERTURE END LIST*
D10*
X117475000Y-117475000D03*
D11*
X119975000Y-117475000D03*
D10*
X113030000Y-137160000D03*
D11*
X111030000Y-137160000D03*
D12*
G36*
X111899504Y-127381204D02*
G01*
X111923773Y-127384804D01*
X111947571Y-127390765D01*
X111970671Y-127399030D01*
X111992849Y-127409520D01*
X112013893Y-127422133D01*
X112033598Y-127436747D01*
X112051777Y-127453223D01*
X112068253Y-127471402D01*
X112082867Y-127491107D01*
X112095480Y-127512151D01*
X112105970Y-127534329D01*
X112114235Y-127557429D01*
X112120196Y-127581227D01*
X112123796Y-127605496D01*
X112125000Y-127630000D01*
X112125000Y-128830000D01*
X112123796Y-128854504D01*
X112120196Y-128878773D01*
X112114235Y-128902571D01*
X112105970Y-128925671D01*
X112095480Y-128947849D01*
X112082867Y-128968893D01*
X112068253Y-128988598D01*
X112051777Y-129006777D01*
X112033598Y-129023253D01*
X112013893Y-129037867D01*
X111992849Y-129050480D01*
X111970671Y-129060970D01*
X111947571Y-129069235D01*
X111923773Y-129075196D01*
X111899504Y-129078796D01*
X111875000Y-129080000D01*
X110375000Y-129080000D01*
X110350496Y-129078796D01*
X110326227Y-129075196D01*
X110302429Y-129069235D01*
X110279329Y-129060970D01*
X110257151Y-129050480D01*
X110236107Y-129037867D01*
X110216402Y-129023253D01*
X110198223Y-129006777D01*
X110181747Y-128988598D01*
X110167133Y-128968893D01*
X110154520Y-128947849D01*
X110144030Y-128925671D01*
X110135765Y-128902571D01*
X110129804Y-128878773D01*
X110126204Y-128854504D01*
X110125000Y-128830000D01*
X110125000Y-127630000D01*
X110126204Y-127605496D01*
X110129804Y-127581227D01*
X110135765Y-127557429D01*
X110144030Y-127534329D01*
X110154520Y-127512151D01*
X110167133Y-127491107D01*
X110181747Y-127471402D01*
X110198223Y-127453223D01*
X110216402Y-127436747D01*
X110236107Y-127422133D01*
X110257151Y-127409520D01*
X110279329Y-127399030D01*
X110302429Y-127390765D01*
X110326227Y-127384804D01*
X110350496Y-127381204D01*
X110375000Y-127380000D01*
X111875000Y-127380000D01*
X111899504Y-127381204D01*
X111899504Y-127381204D01*
G37*
D13*
X111125000Y-128230000D03*
D14*
X111125000Y-125730000D03*
D15*
X170815000Y-132715000D03*
X168275000Y-132715000D03*
X170815000Y-130175000D03*
X168275000Y-130175000D03*
X170815000Y-127635000D03*
X168275000Y-127635000D03*
X170815000Y-125095000D03*
X168275000Y-125095000D03*
X170815000Y-122555000D03*
D16*
X168275000Y-122555000D03*
D12*
G36*
X141109504Y-105831204D02*
G01*
X141133773Y-105834804D01*
X141157571Y-105840765D01*
X141180671Y-105849030D01*
X141202849Y-105859520D01*
X141223893Y-105872133D01*
X141243598Y-105886747D01*
X141261777Y-105903223D01*
X141278253Y-105921402D01*
X141292867Y-105941107D01*
X141305480Y-105962151D01*
X141315970Y-105984329D01*
X141324235Y-106007429D01*
X141330196Y-106031227D01*
X141333796Y-106055496D01*
X141335000Y-106080000D01*
X141335000Y-107280000D01*
X141333796Y-107304504D01*
X141330196Y-107328773D01*
X141324235Y-107352571D01*
X141315970Y-107375671D01*
X141305480Y-107397849D01*
X141292867Y-107418893D01*
X141278253Y-107438598D01*
X141261777Y-107456777D01*
X141243598Y-107473253D01*
X141223893Y-107487867D01*
X141202849Y-107500480D01*
X141180671Y-107510970D01*
X141157571Y-107519235D01*
X141133773Y-107525196D01*
X141109504Y-107528796D01*
X141085000Y-107530000D01*
X139585000Y-107530000D01*
X139560496Y-107528796D01*
X139536227Y-107525196D01*
X139512429Y-107519235D01*
X139489329Y-107510970D01*
X139467151Y-107500480D01*
X139446107Y-107487867D01*
X139426402Y-107473253D01*
X139408223Y-107456777D01*
X139391747Y-107438598D01*
X139377133Y-107418893D01*
X139364520Y-107397849D01*
X139354030Y-107375671D01*
X139345765Y-107352571D01*
X139339804Y-107328773D01*
X139336204Y-107304504D01*
X139335000Y-107280000D01*
X139335000Y-106080000D01*
X139336204Y-106055496D01*
X139339804Y-106031227D01*
X139345765Y-106007429D01*
X139354030Y-105984329D01*
X139364520Y-105962151D01*
X139377133Y-105941107D01*
X139391747Y-105921402D01*
X139408223Y-105903223D01*
X139426402Y-105886747D01*
X139446107Y-105872133D01*
X139467151Y-105859520D01*
X139489329Y-105849030D01*
X139512429Y-105840765D01*
X139536227Y-105834804D01*
X139560496Y-105831204D01*
X139585000Y-105830000D01*
X141085000Y-105830000D01*
X141109504Y-105831204D01*
X141109504Y-105831204D01*
G37*
D13*
X140335000Y-106680000D03*
D14*
X140335000Y-109180000D03*
X158750000Y-120690000D03*
D12*
G36*
X159524504Y-122341204D02*
G01*
X159548773Y-122344804D01*
X159572571Y-122350765D01*
X159595671Y-122359030D01*
X159617849Y-122369520D01*
X159638893Y-122382133D01*
X159658598Y-122396747D01*
X159676777Y-122413223D01*
X159693253Y-122431402D01*
X159707867Y-122451107D01*
X159720480Y-122472151D01*
X159730970Y-122494329D01*
X159739235Y-122517429D01*
X159745196Y-122541227D01*
X159748796Y-122565496D01*
X159750000Y-122590000D01*
X159750000Y-123790000D01*
X159748796Y-123814504D01*
X159745196Y-123838773D01*
X159739235Y-123862571D01*
X159730970Y-123885671D01*
X159720480Y-123907849D01*
X159707867Y-123928893D01*
X159693253Y-123948598D01*
X159676777Y-123966777D01*
X159658598Y-123983253D01*
X159638893Y-123997867D01*
X159617849Y-124010480D01*
X159595671Y-124020970D01*
X159572571Y-124029235D01*
X159548773Y-124035196D01*
X159524504Y-124038796D01*
X159500000Y-124040000D01*
X158000000Y-124040000D01*
X157975496Y-124038796D01*
X157951227Y-124035196D01*
X157927429Y-124029235D01*
X157904329Y-124020970D01*
X157882151Y-124010480D01*
X157861107Y-123997867D01*
X157841402Y-123983253D01*
X157823223Y-123966777D01*
X157806747Y-123948598D01*
X157792133Y-123928893D01*
X157779520Y-123907849D01*
X157769030Y-123885671D01*
X157760765Y-123862571D01*
X157754804Y-123838773D01*
X157751204Y-123814504D01*
X157750000Y-123790000D01*
X157750000Y-122590000D01*
X157751204Y-122565496D01*
X157754804Y-122541227D01*
X157760765Y-122517429D01*
X157769030Y-122494329D01*
X157779520Y-122472151D01*
X157792133Y-122451107D01*
X157806747Y-122431402D01*
X157823223Y-122413223D01*
X157841402Y-122396747D01*
X157861107Y-122382133D01*
X157882151Y-122369520D01*
X157904329Y-122359030D01*
X157927429Y-122350765D01*
X157951227Y-122344804D01*
X157975496Y-122341204D01*
X158000000Y-122340000D01*
X159500000Y-122340000D01*
X159524504Y-122341204D01*
X159524504Y-122341204D01*
G37*
D13*
X158750000Y-123190000D03*
D17*
X149820000Y-136525000D03*
D12*
G36*
X147944504Y-135526204D02*
G01*
X147968773Y-135529804D01*
X147992571Y-135535765D01*
X148015671Y-135544030D01*
X148037849Y-135554520D01*
X148058893Y-135567133D01*
X148078598Y-135581747D01*
X148096777Y-135598223D01*
X148113253Y-135616402D01*
X148127867Y-135636107D01*
X148140480Y-135657151D01*
X148150970Y-135679329D01*
X148159235Y-135702429D01*
X148165196Y-135726227D01*
X148168796Y-135750496D01*
X148170000Y-135775000D01*
X148170000Y-137275000D01*
X148168796Y-137299504D01*
X148165196Y-137323773D01*
X148159235Y-137347571D01*
X148150970Y-137370671D01*
X148140480Y-137392849D01*
X148127867Y-137413893D01*
X148113253Y-137433598D01*
X148096777Y-137451777D01*
X148078598Y-137468253D01*
X148058893Y-137482867D01*
X148037849Y-137495480D01*
X148015671Y-137505970D01*
X147992571Y-137514235D01*
X147968773Y-137520196D01*
X147944504Y-137523796D01*
X147920000Y-137525000D01*
X146720000Y-137525000D01*
X146695496Y-137523796D01*
X146671227Y-137520196D01*
X146647429Y-137514235D01*
X146624329Y-137505970D01*
X146602151Y-137495480D01*
X146581107Y-137482867D01*
X146561402Y-137468253D01*
X146543223Y-137451777D01*
X146526747Y-137433598D01*
X146512133Y-137413893D01*
X146499520Y-137392849D01*
X146489030Y-137370671D01*
X146480765Y-137347571D01*
X146474804Y-137323773D01*
X146471204Y-137299504D01*
X146470000Y-137275000D01*
X146470000Y-135775000D01*
X146471204Y-135750496D01*
X146474804Y-135726227D01*
X146480765Y-135702429D01*
X146489030Y-135679329D01*
X146499520Y-135657151D01*
X146512133Y-135636107D01*
X146526747Y-135616402D01*
X146543223Y-135598223D01*
X146561402Y-135581747D01*
X146581107Y-135567133D01*
X146602151Y-135554520D01*
X146624329Y-135544030D01*
X146647429Y-135535765D01*
X146671227Y-135529804D01*
X146695496Y-135526204D01*
X146720000Y-135525000D01*
X147920000Y-135525000D01*
X147944504Y-135526204D01*
X147944504Y-135526204D01*
G37*
D13*
X147320000Y-136525000D03*
D12*
G36*
X147944504Y-126636204D02*
G01*
X147968773Y-126639804D01*
X147992571Y-126645765D01*
X148015671Y-126654030D01*
X148037849Y-126664520D01*
X148058893Y-126677133D01*
X148078598Y-126691747D01*
X148096777Y-126708223D01*
X148113253Y-126726402D01*
X148127867Y-126746107D01*
X148140480Y-126767151D01*
X148150970Y-126789329D01*
X148159235Y-126812429D01*
X148165196Y-126836227D01*
X148168796Y-126860496D01*
X148170000Y-126885000D01*
X148170000Y-128385000D01*
X148168796Y-128409504D01*
X148165196Y-128433773D01*
X148159235Y-128457571D01*
X148150970Y-128480671D01*
X148140480Y-128502849D01*
X148127867Y-128523893D01*
X148113253Y-128543598D01*
X148096777Y-128561777D01*
X148078598Y-128578253D01*
X148058893Y-128592867D01*
X148037849Y-128605480D01*
X148015671Y-128615970D01*
X147992571Y-128624235D01*
X147968773Y-128630196D01*
X147944504Y-128633796D01*
X147920000Y-128635000D01*
X146720000Y-128635000D01*
X146695496Y-128633796D01*
X146671227Y-128630196D01*
X146647429Y-128624235D01*
X146624329Y-128615970D01*
X146602151Y-128605480D01*
X146581107Y-128592867D01*
X146561402Y-128578253D01*
X146543223Y-128561777D01*
X146526747Y-128543598D01*
X146512133Y-128523893D01*
X146499520Y-128502849D01*
X146489030Y-128480671D01*
X146480765Y-128457571D01*
X146474804Y-128433773D01*
X146471204Y-128409504D01*
X146470000Y-128385000D01*
X146470000Y-126885000D01*
X146471204Y-126860496D01*
X146474804Y-126836227D01*
X146480765Y-126812429D01*
X146489030Y-126789329D01*
X146499520Y-126767151D01*
X146512133Y-126746107D01*
X146526747Y-126726402D01*
X146543223Y-126708223D01*
X146561402Y-126691747D01*
X146581107Y-126677133D01*
X146602151Y-126664520D01*
X146624329Y-126654030D01*
X146647429Y-126645765D01*
X146671227Y-126639804D01*
X146695496Y-126636204D01*
X146720000Y-126635000D01*
X147920000Y-126635000D01*
X147944504Y-126636204D01*
X147944504Y-126636204D01*
G37*
D13*
X147320000Y-127635000D03*
D17*
X149820000Y-127635000D03*
D12*
G36*
X159524504Y-133771204D02*
G01*
X159548773Y-133774804D01*
X159572571Y-133780765D01*
X159595671Y-133789030D01*
X159617849Y-133799520D01*
X159638893Y-133812133D01*
X159658598Y-133826747D01*
X159676777Y-133843223D01*
X159693253Y-133861402D01*
X159707867Y-133881107D01*
X159720480Y-133902151D01*
X159730970Y-133924329D01*
X159739235Y-133947429D01*
X159745196Y-133971227D01*
X159748796Y-133995496D01*
X159750000Y-134020000D01*
X159750000Y-135220000D01*
X159748796Y-135244504D01*
X159745196Y-135268773D01*
X159739235Y-135292571D01*
X159730970Y-135315671D01*
X159720480Y-135337849D01*
X159707867Y-135358893D01*
X159693253Y-135378598D01*
X159676777Y-135396777D01*
X159658598Y-135413253D01*
X159638893Y-135427867D01*
X159617849Y-135440480D01*
X159595671Y-135450970D01*
X159572571Y-135459235D01*
X159548773Y-135465196D01*
X159524504Y-135468796D01*
X159500000Y-135470000D01*
X158000000Y-135470000D01*
X157975496Y-135468796D01*
X157951227Y-135465196D01*
X157927429Y-135459235D01*
X157904329Y-135450970D01*
X157882151Y-135440480D01*
X157861107Y-135427867D01*
X157841402Y-135413253D01*
X157823223Y-135396777D01*
X157806747Y-135378598D01*
X157792133Y-135358893D01*
X157779520Y-135337849D01*
X157769030Y-135315671D01*
X157760765Y-135292571D01*
X157754804Y-135268773D01*
X157751204Y-135244504D01*
X157750000Y-135220000D01*
X157750000Y-134020000D01*
X157751204Y-133995496D01*
X157754804Y-133971227D01*
X157760765Y-133947429D01*
X157769030Y-133924329D01*
X157779520Y-133902151D01*
X157792133Y-133881107D01*
X157806747Y-133861402D01*
X157823223Y-133843223D01*
X157841402Y-133826747D01*
X157861107Y-133812133D01*
X157882151Y-133799520D01*
X157904329Y-133789030D01*
X157927429Y-133780765D01*
X157951227Y-133774804D01*
X157975496Y-133771204D01*
X158000000Y-133770000D01*
X159500000Y-133770000D01*
X159524504Y-133771204D01*
X159524504Y-133771204D01*
G37*
D13*
X158750000Y-134620000D03*
D14*
X158750000Y-132120000D03*
D17*
X149820000Y-118745000D03*
D12*
G36*
X147944504Y-117746204D02*
G01*
X147968773Y-117749804D01*
X147992571Y-117755765D01*
X148015671Y-117764030D01*
X148037849Y-117774520D01*
X148058893Y-117787133D01*
X148078598Y-117801747D01*
X148096777Y-117818223D01*
X148113253Y-117836402D01*
X148127867Y-117856107D01*
X148140480Y-117877151D01*
X148150970Y-117899329D01*
X148159235Y-117922429D01*
X148165196Y-117946227D01*
X148168796Y-117970496D01*
X148170000Y-117995000D01*
X148170000Y-119495000D01*
X148168796Y-119519504D01*
X148165196Y-119543773D01*
X148159235Y-119567571D01*
X148150970Y-119590671D01*
X148140480Y-119612849D01*
X148127867Y-119633893D01*
X148113253Y-119653598D01*
X148096777Y-119671777D01*
X148078598Y-119688253D01*
X148058893Y-119702867D01*
X148037849Y-119715480D01*
X148015671Y-119725970D01*
X147992571Y-119734235D01*
X147968773Y-119740196D01*
X147944504Y-119743796D01*
X147920000Y-119745000D01*
X146720000Y-119745000D01*
X146695496Y-119743796D01*
X146671227Y-119740196D01*
X146647429Y-119734235D01*
X146624329Y-119725970D01*
X146602151Y-119715480D01*
X146581107Y-119702867D01*
X146561402Y-119688253D01*
X146543223Y-119671777D01*
X146526747Y-119653598D01*
X146512133Y-119633893D01*
X146499520Y-119612849D01*
X146489030Y-119590671D01*
X146480765Y-119567571D01*
X146474804Y-119543773D01*
X146471204Y-119519504D01*
X146470000Y-119495000D01*
X146470000Y-117995000D01*
X146471204Y-117970496D01*
X146474804Y-117946227D01*
X146480765Y-117922429D01*
X146489030Y-117899329D01*
X146499520Y-117877151D01*
X146512133Y-117856107D01*
X146526747Y-117836402D01*
X146543223Y-117818223D01*
X146561402Y-117801747D01*
X146581107Y-117787133D01*
X146602151Y-117774520D01*
X146624329Y-117764030D01*
X146647429Y-117755765D01*
X146671227Y-117749804D01*
X146695496Y-117746204D01*
X146720000Y-117745000D01*
X147920000Y-117745000D01*
X147944504Y-117746204D01*
X147944504Y-117746204D01*
G37*
D13*
X147320000Y-118745000D03*
D16*
X149860000Y-109220000D03*
D15*
X149860000Y-106680000D03*
X152400000Y-109220000D03*
X152400000Y-106680000D03*
X154940000Y-109220000D03*
X154940000Y-106680000D03*
X157480000Y-109220000D03*
X157480000Y-106680000D03*
X160020000Y-109220000D03*
X160020000Y-106680000D03*
D17*
X149820000Y-146685000D03*
D12*
G36*
X147944504Y-145686204D02*
G01*
X147968773Y-145689804D01*
X147992571Y-145695765D01*
X148015671Y-145704030D01*
X148037849Y-145714520D01*
X148058893Y-145727133D01*
X148078598Y-145741747D01*
X148096777Y-145758223D01*
X148113253Y-145776402D01*
X148127867Y-145796107D01*
X148140480Y-145817151D01*
X148150970Y-145839329D01*
X148159235Y-145862429D01*
X148165196Y-145886227D01*
X148168796Y-145910496D01*
X148170000Y-145935000D01*
X148170000Y-147435000D01*
X148168796Y-147459504D01*
X148165196Y-147483773D01*
X148159235Y-147507571D01*
X148150970Y-147530671D01*
X148140480Y-147552849D01*
X148127867Y-147573893D01*
X148113253Y-147593598D01*
X148096777Y-147611777D01*
X148078598Y-147628253D01*
X148058893Y-147642867D01*
X148037849Y-147655480D01*
X148015671Y-147665970D01*
X147992571Y-147674235D01*
X147968773Y-147680196D01*
X147944504Y-147683796D01*
X147920000Y-147685000D01*
X146720000Y-147685000D01*
X146695496Y-147683796D01*
X146671227Y-147680196D01*
X146647429Y-147674235D01*
X146624329Y-147665970D01*
X146602151Y-147655480D01*
X146581107Y-147642867D01*
X146561402Y-147628253D01*
X146543223Y-147611777D01*
X146526747Y-147593598D01*
X146512133Y-147573893D01*
X146499520Y-147552849D01*
X146489030Y-147530671D01*
X146480765Y-147507571D01*
X146474804Y-147483773D01*
X146471204Y-147459504D01*
X146470000Y-147435000D01*
X146470000Y-145935000D01*
X146471204Y-145910496D01*
X146474804Y-145886227D01*
X146480765Y-145862429D01*
X146489030Y-145839329D01*
X146499520Y-145817151D01*
X146512133Y-145796107D01*
X146526747Y-145776402D01*
X146543223Y-145758223D01*
X146561402Y-145741747D01*
X146581107Y-145727133D01*
X146602151Y-145714520D01*
X146624329Y-145704030D01*
X146647429Y-145695765D01*
X146671227Y-145689804D01*
X146695496Y-145686204D01*
X146720000Y-145685000D01*
X147920000Y-145685000D01*
X147944504Y-145686204D01*
X147944504Y-145686204D01*
G37*
D13*
X147320000Y-146685000D03*
D12*
G36*
X157469504Y-145686204D02*
G01*
X157493773Y-145689804D01*
X157517571Y-145695765D01*
X157540671Y-145704030D01*
X157562849Y-145714520D01*
X157583893Y-145727133D01*
X157603598Y-145741747D01*
X157621777Y-145758223D01*
X157638253Y-145776402D01*
X157652867Y-145796107D01*
X157665480Y-145817151D01*
X157675970Y-145839329D01*
X157684235Y-145862429D01*
X157690196Y-145886227D01*
X157693796Y-145910496D01*
X157695000Y-145935000D01*
X157695000Y-147435000D01*
X157693796Y-147459504D01*
X157690196Y-147483773D01*
X157684235Y-147507571D01*
X157675970Y-147530671D01*
X157665480Y-147552849D01*
X157652867Y-147573893D01*
X157638253Y-147593598D01*
X157621777Y-147611777D01*
X157603598Y-147628253D01*
X157583893Y-147642867D01*
X157562849Y-147655480D01*
X157540671Y-147665970D01*
X157517571Y-147674235D01*
X157493773Y-147680196D01*
X157469504Y-147683796D01*
X157445000Y-147685000D01*
X156245000Y-147685000D01*
X156220496Y-147683796D01*
X156196227Y-147680196D01*
X156172429Y-147674235D01*
X156149329Y-147665970D01*
X156127151Y-147655480D01*
X156106107Y-147642867D01*
X156086402Y-147628253D01*
X156068223Y-147611777D01*
X156051747Y-147593598D01*
X156037133Y-147573893D01*
X156024520Y-147552849D01*
X156014030Y-147530671D01*
X156005765Y-147507571D01*
X155999804Y-147483773D01*
X155996204Y-147459504D01*
X155995000Y-147435000D01*
X155995000Y-145935000D01*
X155996204Y-145910496D01*
X155999804Y-145886227D01*
X156005765Y-145862429D01*
X156014030Y-145839329D01*
X156024520Y-145817151D01*
X156037133Y-145796107D01*
X156051747Y-145776402D01*
X156068223Y-145758223D01*
X156086402Y-145741747D01*
X156106107Y-145727133D01*
X156127151Y-145714520D01*
X156149329Y-145704030D01*
X156172429Y-145695765D01*
X156196227Y-145689804D01*
X156220496Y-145686204D01*
X156245000Y-145685000D01*
X157445000Y-145685000D01*
X157469504Y-145686204D01*
X157469504Y-145686204D01*
G37*
D13*
X156845000Y-146685000D03*
D17*
X159345000Y-146685000D03*
D16*
X120015000Y-109220000D03*
D15*
X120015000Y-106680000D03*
X122555000Y-109220000D03*
X122555000Y-106680000D03*
X125095000Y-109220000D03*
X125095000Y-106680000D03*
X127635000Y-109220000D03*
X127635000Y-106680000D03*
X130175000Y-109220000D03*
X130175000Y-106680000D03*
D12*
G36*
X115639504Y-146346204D02*
G01*
X115663773Y-146349804D01*
X115687571Y-146355765D01*
X115710671Y-146364030D01*
X115732849Y-146374520D01*
X115753893Y-146387133D01*
X115773598Y-146401747D01*
X115791777Y-146418223D01*
X115808253Y-146436402D01*
X115822867Y-146456107D01*
X115835480Y-146477151D01*
X115845970Y-146499329D01*
X115854235Y-146522429D01*
X115860196Y-146546227D01*
X115863796Y-146570496D01*
X115865000Y-146595000D01*
X115865000Y-148045000D01*
X115863796Y-148069504D01*
X115860196Y-148093773D01*
X115854235Y-148117571D01*
X115845970Y-148140671D01*
X115835480Y-148162849D01*
X115822867Y-148183893D01*
X115808253Y-148203598D01*
X115791777Y-148221777D01*
X115773598Y-148238253D01*
X115753893Y-148252867D01*
X115732849Y-148265480D01*
X115710671Y-148275970D01*
X115687571Y-148284235D01*
X115663773Y-148290196D01*
X115639504Y-148293796D01*
X115615000Y-148295000D01*
X114415000Y-148295000D01*
X114390496Y-148293796D01*
X114366227Y-148290196D01*
X114342429Y-148284235D01*
X114319329Y-148275970D01*
X114297151Y-148265480D01*
X114276107Y-148252867D01*
X114256402Y-148238253D01*
X114238223Y-148221777D01*
X114221747Y-148203598D01*
X114207133Y-148183893D01*
X114194520Y-148162849D01*
X114184030Y-148140671D01*
X114175765Y-148117571D01*
X114169804Y-148093773D01*
X114166204Y-148069504D01*
X114165000Y-148045000D01*
X114165000Y-146595000D01*
X114166204Y-146570496D01*
X114169804Y-146546227D01*
X114175765Y-146522429D01*
X114184030Y-146499329D01*
X114194520Y-146477151D01*
X114207133Y-146456107D01*
X114221747Y-146436402D01*
X114238223Y-146418223D01*
X114256402Y-146401747D01*
X114276107Y-146387133D01*
X114297151Y-146374520D01*
X114319329Y-146364030D01*
X114342429Y-146355765D01*
X114366227Y-146349804D01*
X114390496Y-146346204D01*
X114415000Y-146345000D01*
X115615000Y-146345000D01*
X115639504Y-146346204D01*
X115639504Y-146346204D01*
G37*
D13*
X115015000Y-147320000D03*
D18*
X117515000Y-147320000D03*
X120015000Y-147320000D03*
D19*
X120650000Y-130810000D03*
D20*
X120650000Y-128270000D03*
X120650000Y-125730000D03*
D21*
X140335000Y-149860000D03*
X140335000Y-147320000D03*
X140335000Y-144780000D03*
X140335000Y-142240000D03*
X140335000Y-139700000D03*
X140335000Y-137160000D03*
X140335000Y-134620000D03*
X140335000Y-132080000D03*
X140335000Y-129540000D03*
X140335000Y-127000000D03*
X140335000Y-124460000D03*
X140335000Y-121920000D03*
X140335000Y-119380000D03*
X140335000Y-116840000D03*
X125095000Y-116840000D03*
X125095000Y-119380000D03*
X125095000Y-121920000D03*
X125095000Y-124460000D03*
X125095000Y-127000000D03*
X125095000Y-129540000D03*
X125095000Y-132080000D03*
X125095000Y-134620000D03*
X125095000Y-137160000D03*
X125095000Y-139700000D03*
X125095000Y-142240000D03*
X125095000Y-144780000D03*
X125095000Y-147320000D03*
X125095000Y-149860000D03*
D10*
X136525000Y-142875000D03*
D22*
X128905000Y-135255000D03*
X136525000Y-140335000D03*
X128905000Y-137795000D03*
X136525000Y-137795000D03*
X128905000Y-140335000D03*
X136525000Y-135255000D03*
X128905000Y-142875000D03*
D23*
X117475000Y-139065000D03*
D24*
X120015000Y-139065000D03*
D25*
X132080000Y-117475000D03*
X137160000Y-122555000D03*
X132715000Y-127635000D03*
D26*
X111125000Y-128230000D02*
X113705000Y-130810000D01*
X113705000Y-130810000D02*
X120650000Y-130810000D01*
X111125000Y-126057400D02*
X111034600Y-126057400D01*
X111034600Y-126057400D02*
X109710900Y-127381100D01*
X109710900Y-127381100D02*
X109710900Y-135840900D01*
X109710900Y-135840900D02*
X111030000Y-137160000D01*
X120650000Y-128270000D02*
X118437400Y-126057400D01*
X118437400Y-126057400D02*
X111125000Y-126057400D01*
X158750000Y-120690000D02*
X149265000Y-120690000D01*
X149265000Y-120690000D02*
X147320000Y-118745000D01*
X111125000Y-125730000D02*
X111125000Y-126057400D01*
X115015000Y-147320000D02*
X116353400Y-145981600D01*
X116353400Y-145981600D02*
X123756600Y-145981600D01*
X123756600Y-145981600D02*
X125095000Y-147320000D01*
X136525000Y-140335000D02*
X137675300Y-140335000D01*
X137675300Y-140335000D02*
X139580300Y-138430000D01*
X139580300Y-138430000D02*
X145415000Y-138430000D01*
X145415000Y-138430000D02*
X147320000Y-136525000D01*
D27*
X119975000Y-117475000D02*
X119175000Y-116675000D01*
X119175000Y-116675000D02*
X119175000Y-116315000D01*
X119175000Y-116315000D02*
X118835000Y-115975000D01*
X116114998Y-115975000D02*
X117245000Y-115975000D01*
X111125000Y-120964998D02*
X116114998Y-115975000D01*
X111125000Y-125730000D02*
X111125000Y-120964998D01*
X118835000Y-115975000D02*
X117245000Y-115975000D01*
X160259620Y-104605490D02*
X161583601Y-105929471D01*
X161583601Y-127436399D02*
X158750000Y-130270000D01*
X115800000Y-108580870D02*
X119775380Y-104605490D01*
X115800000Y-115975000D02*
X115800000Y-108580870D01*
X117245000Y-115975000D02*
X115800000Y-115975000D01*
X158750000Y-130270000D02*
X158750000Y-132120000D01*
X161250000Y-120690000D02*
X161583601Y-120356399D01*
X158750000Y-120690000D02*
X161250000Y-120690000D01*
X161583601Y-105929471D02*
X161583601Y-120356399D01*
D26*
X161925000Y-125095000D02*
X161583601Y-124753601D01*
X168275000Y-125095000D02*
X161925000Y-125095000D01*
D27*
X161583601Y-120356399D02*
X161583601Y-124753601D01*
X161583601Y-124753601D02*
X161583601Y-127436399D01*
D26*
X123881399Y-105014581D02*
X124290490Y-104605490D01*
X123881399Y-107893601D02*
X123881399Y-105014581D01*
X122555000Y-109220000D02*
X123881399Y-107893601D01*
D27*
X119775380Y-104605490D02*
X124290490Y-104605490D01*
X143044510Y-106664010D02*
X143044510Y-104605490D01*
X140528520Y-109180000D02*
X143044510Y-106664010D01*
X140335000Y-109180000D02*
X140528520Y-109180000D01*
X124290490Y-104605490D02*
X143044510Y-104605490D01*
X143044510Y-104605490D02*
X160259620Y-104605490D01*
D26*
X136525000Y-137795000D02*
X135374700Y-137795000D01*
X120015000Y-139065000D02*
X120502600Y-138577400D01*
X120502600Y-138577400D02*
X125839400Y-138577400D01*
X125839400Y-138577400D02*
X126212700Y-138950700D01*
X126212700Y-138950700D02*
X134219000Y-138950700D01*
X134219000Y-138950700D02*
X135374700Y-137795000D01*
X117515000Y-147320000D02*
X118715300Y-147320000D01*
X118715300Y-147320000D02*
X118715300Y-147845100D01*
X118715300Y-147845100D02*
X120730200Y-149860000D01*
X120730200Y-149860000D02*
X125095000Y-149860000D01*
X146660400Y-121920000D02*
X140335000Y-121920000D01*
X152456300Y-127715900D02*
X146660400Y-121920000D01*
X170815000Y-130175000D02*
X169488601Y-131501399D01*
X169488601Y-131501399D02*
X166856801Y-131501399D01*
X166856801Y-131501399D02*
X162534300Y-135823900D01*
X162534300Y-135823900D02*
X157727700Y-135823900D01*
X157727700Y-135823900D02*
X152456300Y-130552500D01*
X152456300Y-130552500D02*
X152456300Y-127715900D01*
X167061100Y-130175000D02*
X163866700Y-133369400D01*
X163866700Y-133369400D02*
X158151600Y-133369400D01*
X158151600Y-133369400D02*
X153206700Y-128424500D01*
X153206700Y-128424500D02*
X153206700Y-127717200D01*
X153206700Y-127717200D02*
X144869500Y-119380000D01*
X144869500Y-119380000D02*
X140335000Y-119380000D01*
X156266100Y-109220000D02*
X156266100Y-109723000D01*
X156266100Y-109723000D02*
X148960000Y-117029100D01*
X148960000Y-117029100D02*
X146766500Y-117029100D01*
X146766500Y-117029100D02*
X144869500Y-118926100D01*
X144869500Y-118926100D02*
X144869500Y-119380000D01*
X168275000Y-130175000D02*
X167061100Y-130175000D01*
X157480000Y-109220000D02*
X156266100Y-109220000D01*
X126365000Y-110450100D02*
X126365000Y-108660900D01*
X126365000Y-108660900D02*
X125598000Y-107893900D01*
X125598000Y-107893900D02*
X125095000Y-107893900D01*
X125095000Y-116840000D02*
X126365000Y-115570000D01*
X126365000Y-115570000D02*
X126365000Y-110450100D01*
X126365000Y-110450100D02*
X143420200Y-110450100D01*
X143420200Y-110450100D02*
X148414800Y-105455500D01*
X148414800Y-105455500D02*
X153004600Y-105455500D01*
X153004600Y-105455500D02*
X153726100Y-106177000D01*
X153726100Y-106177000D02*
X153726100Y-106680000D01*
X125095000Y-106680000D02*
X125095000Y-107893900D01*
X154940000Y-106680000D02*
X153726100Y-106680000D01*
X153726100Y-109220000D02*
X153726100Y-109637600D01*
X153726100Y-109637600D02*
X149058800Y-114304900D01*
X149058800Y-114304900D02*
X142870100Y-114304900D01*
X142870100Y-114304900D02*
X140335000Y-116840000D01*
X154940000Y-109220000D02*
X153726100Y-109220000D01*
X151313700Y-127281000D02*
X148492700Y-124460000D01*
X151313700Y-130117600D02*
X151313700Y-127281000D01*
X157522900Y-136326800D02*
X151313700Y-130117600D01*
X168275000Y-121391400D02*
X169016400Y-120650000D01*
X168275000Y-122555000D02*
X168275000Y-121391400D01*
X172720000Y-135255000D02*
X171648200Y-136326800D01*
X148492700Y-124460000D02*
X140335000Y-124460000D01*
X171648200Y-136326800D02*
X157522900Y-136326800D01*
X172085000Y-120650000D02*
X172720000Y-121285000D01*
X172720000Y-121285000D02*
X172720000Y-135255000D01*
X169016400Y-120650000D02*
X172085000Y-120650000D01*
X149820000Y-136525000D02*
X148619700Y-136525000D01*
X140335000Y-142240000D02*
X143828500Y-142240000D01*
X143828500Y-142240000D02*
X148619700Y-137448800D01*
X148619700Y-137448800D02*
X148619700Y-136525000D01*
X140335000Y-134620000D02*
X142558500Y-134620000D01*
X149820000Y-127785000D02*
X149860000Y-127825000D01*
X149820000Y-127635000D02*
X149820000Y-127785000D01*
X149860000Y-127825000D02*
X149860000Y-129540000D01*
X147795750Y-131604250D02*
X145574250Y-131604250D01*
X149860000Y-129540000D02*
X147795750Y-131604250D01*
X142558500Y-134620000D02*
X145574250Y-131604250D01*
X157480000Y-106680000D02*
X156266100Y-106680000D01*
X125095000Y-121920000D02*
X133518000Y-121920000D01*
X133518000Y-121920000D02*
X147488000Y-107950000D01*
X147488000Y-107950000D02*
X155499100Y-107950000D01*
X155499100Y-107950000D02*
X156266100Y-107183000D01*
X156266100Y-107183000D02*
X156266100Y-106680000D01*
X130055300Y-140335000D02*
X131205600Y-141485300D01*
X131205600Y-141485300D02*
X137260300Y-141485300D01*
X137260300Y-141485300D02*
X139173300Y-143398300D01*
X128905000Y-140335000D02*
X130055300Y-140335000D01*
X159345000Y-146685000D02*
X159345000Y-144185000D01*
X159345000Y-144185000D02*
X158558300Y-143398300D01*
X139173300Y-143398300D02*
X140223300Y-143398300D01*
X149820000Y-143550000D02*
X149971700Y-143398300D01*
X149820000Y-146685000D02*
X149820000Y-143550000D01*
X158558300Y-143398300D02*
X149971700Y-143398300D01*
X149971700Y-143398300D02*
X140223300Y-143398300D01*
X156845000Y-146685000D02*
X155452200Y-148077800D01*
X155452200Y-148077800D02*
X148712800Y-148077800D01*
X148712800Y-148077800D02*
X147320000Y-146685000D01*
X120015000Y-109220000D02*
X120015000Y-110433900D01*
X140335000Y-129540000D02*
X133985000Y-123190000D01*
X133985000Y-123190000D02*
X124774300Y-123190000D01*
X124774300Y-123190000D02*
X121228900Y-119644600D01*
X121228900Y-119644600D02*
X121228900Y-111647800D01*
X121228900Y-111647800D02*
X120015000Y-110433900D01*
X136525000Y-135255000D02*
X138430000Y-135255000D01*
X138430000Y-135255000D02*
X140335000Y-137160000D01*
D28*
G36*
X172449545Y-103568909D02*
G01*
X172800208Y-103674780D01*
X173123625Y-103846744D01*
X173407484Y-104078254D01*
X173640965Y-104360486D01*
X173815183Y-104682695D01*
X173923502Y-105032614D01*
X173965001Y-105427452D01*
X173965000Y-149827723D01*
X173938185Y-150101205D01*
X173868133Y-150333226D01*
X173754350Y-150547222D01*
X173601169Y-150735039D01*
X173414424Y-150889529D01*
X173201231Y-151004802D01*
X172969701Y-151076472D01*
X172698276Y-151105000D01*
X140980372Y-151105000D01*
X141053980Y-151065656D01*
X141120960Y-150825565D01*
X140335000Y-150039605D01*
X139549040Y-150825565D01*
X139616020Y-151065656D01*
X139699690Y-151105000D01*
X125739840Y-151105000D01*
X125756727Y-151098005D01*
X125985535Y-150945120D01*
X126180120Y-150750535D01*
X126333005Y-150521727D01*
X126438314Y-150267490D01*
X126492000Y-149997592D01*
X126492000Y-149932017D01*
X138933090Y-149932017D01*
X138974078Y-150204133D01*
X139067364Y-150463023D01*
X139129344Y-150578980D01*
X139369435Y-150645960D01*
X140155395Y-149860000D01*
X140514605Y-149860000D01*
X141300565Y-150645960D01*
X141540656Y-150578980D01*
X141657756Y-150329952D01*
X141724023Y-150062865D01*
X141736910Y-149787983D01*
X141695922Y-149515867D01*
X141602636Y-149256977D01*
X141540656Y-149141020D01*
X141300565Y-149074040D01*
X140514605Y-149860000D01*
X140155395Y-149860000D01*
X139369435Y-149074040D01*
X139129344Y-149141020D01*
X139012244Y-149390048D01*
X138945977Y-149657135D01*
X138933090Y-149932017D01*
X126492000Y-149932017D01*
X126492000Y-149722408D01*
X126438314Y-149452510D01*
X126333005Y-149198273D01*
X126180120Y-148969465D01*
X125985535Y-148774880D01*
X125756727Y-148621995D01*
X125685057Y-148592308D01*
X125698023Y-148587636D01*
X125813980Y-148525656D01*
X125880960Y-148285565D01*
X125095000Y-147499605D01*
X124309040Y-148285565D01*
X124376020Y-148525656D01*
X124511760Y-148589485D01*
X124433273Y-148621995D01*
X124204465Y-148774880D01*
X124009880Y-148969465D01*
X123939364Y-149075000D01*
X121055358Y-149075000D01*
X120728048Y-148747691D01*
X120844014Y-148685706D01*
X121070134Y-148500134D01*
X121255706Y-148274014D01*
X121393599Y-148016033D01*
X121478513Y-147736110D01*
X121500000Y-147517949D01*
X121500000Y-147392017D01*
X123693090Y-147392017D01*
X123734078Y-147664133D01*
X123827364Y-147923023D01*
X123889344Y-148038980D01*
X124129435Y-148105960D01*
X124915395Y-147320000D01*
X125274605Y-147320000D01*
X126060565Y-148105960D01*
X126300656Y-148038980D01*
X126417756Y-147789952D01*
X126484023Y-147522865D01*
X126496910Y-147247983D01*
X126455922Y-146975867D01*
X126362636Y-146716977D01*
X126300656Y-146601020D01*
X126060565Y-146534040D01*
X125274605Y-147320000D01*
X124915395Y-147320000D01*
X124129435Y-146534040D01*
X123889344Y-146601020D01*
X123772244Y-146850048D01*
X123705977Y-147117135D01*
X123693090Y-147392017D01*
X121500000Y-147392017D01*
X121500000Y-147122050D01*
X121478513Y-146903889D01*
X121393599Y-146623966D01*
X121255706Y-146365986D01*
X121070134Y-146139866D01*
X120844013Y-145954294D01*
X120586033Y-145816401D01*
X120306110Y-145731487D01*
X120015000Y-145702815D01*
X119723889Y-145731487D01*
X119443966Y-145816401D01*
X119185986Y-145954294D01*
X118959866Y-146139866D01*
X118774294Y-146365987D01*
X118765000Y-146383374D01*
X118755706Y-146365986D01*
X118570134Y-146139866D01*
X118344013Y-145954294D01*
X118086033Y-145816401D01*
X117806110Y-145731487D01*
X117515000Y-145702815D01*
X117223889Y-145731487D01*
X116943966Y-145816401D01*
X116685986Y-145954294D01*
X116465055Y-146135608D01*
X116454502Y-146100820D01*
X116395537Y-145990506D01*
X116316185Y-145893815D01*
X116219494Y-145814463D01*
X116109180Y-145755498D01*
X115989482Y-145719188D01*
X115865000Y-145706928D01*
X115300750Y-145710000D01*
X115142000Y-145868750D01*
X115142000Y-147193000D01*
X115162000Y-147193000D01*
X115162000Y-147447000D01*
X115142000Y-147447000D01*
X115142000Y-148771250D01*
X115300750Y-148930000D01*
X115865000Y-148933072D01*
X115989482Y-148920812D01*
X116109180Y-148884502D01*
X116219494Y-148825537D01*
X116316185Y-148746185D01*
X116395537Y-148649494D01*
X116454502Y-148539180D01*
X116465055Y-148504392D01*
X116685987Y-148685706D01*
X116943967Y-148823599D01*
X117223890Y-148908513D01*
X117515000Y-148937185D01*
X117806111Y-148908513D01*
X118086034Y-148823599D01*
X118344014Y-148685706D01*
X118399891Y-148639849D01*
X120147858Y-150387816D01*
X120172436Y-150417764D01*
X120202384Y-150442342D01*
X120202387Y-150442345D01*
X120202637Y-150442550D01*
X120291967Y-150515862D01*
X120410054Y-150578980D01*
X120428340Y-150588754D01*
X120576313Y-150633642D01*
X120651226Y-150641020D01*
X120691639Y-150645000D01*
X120691644Y-150645000D01*
X120730200Y-150648797D01*
X120768756Y-150645000D01*
X123939364Y-150645000D01*
X124009880Y-150750535D01*
X124204465Y-150945120D01*
X124433273Y-151098005D01*
X124450160Y-151105000D01*
X107347277Y-151105000D01*
X107073795Y-151078185D01*
X106841774Y-151008133D01*
X106627778Y-150894350D01*
X106439961Y-150741169D01*
X106285471Y-150554424D01*
X106170198Y-150341231D01*
X106098528Y-150109701D01*
X106070000Y-149838276D01*
X106070000Y-148355098D01*
X106200000Y-148355098D01*
X106200000Y-148824902D01*
X106291654Y-149285679D01*
X106471440Y-149719721D01*
X106732450Y-150110349D01*
X107064651Y-150442550D01*
X107455279Y-150703560D01*
X107889321Y-150883346D01*
X108350098Y-150975000D01*
X108819902Y-150975000D01*
X109280679Y-150883346D01*
X109714721Y-150703560D01*
X110105349Y-150442550D01*
X110437550Y-150110349D01*
X110698560Y-149719721D01*
X110878346Y-149285679D01*
X110970000Y-148824902D01*
X110970000Y-148355098D01*
X110958046Y-148295000D01*
X113526928Y-148295000D01*
X113539188Y-148419482D01*
X113575498Y-148539180D01*
X113634463Y-148649494D01*
X113713815Y-148746185D01*
X113810506Y-148825537D01*
X113920820Y-148884502D01*
X114040518Y-148920812D01*
X114165000Y-148933072D01*
X114729250Y-148930000D01*
X114888000Y-148771250D01*
X114888000Y-147447000D01*
X113688750Y-147447000D01*
X113530000Y-147605750D01*
X113526928Y-148295000D01*
X110958046Y-148295000D01*
X110878346Y-147894321D01*
X110698560Y-147460279D01*
X110437550Y-147069651D01*
X110105349Y-146737450D01*
X109714721Y-146476440D01*
X109397397Y-146345000D01*
X113526928Y-146345000D01*
X113530000Y-147034250D01*
X113688750Y-147193000D01*
X114888000Y-147193000D01*
X114888000Y-145868750D01*
X114729250Y-145710000D01*
X114165000Y-145706928D01*
X114040518Y-145719188D01*
X113920820Y-145755498D01*
X113810506Y-145814463D01*
X113713815Y-145893815D01*
X113634463Y-145990506D01*
X113575498Y-146100820D01*
X113539188Y-146220518D01*
X113526928Y-146345000D01*
X109397397Y-146345000D01*
X109280679Y-146296654D01*
X108819902Y-146205000D01*
X108350098Y-146205000D01*
X107889321Y-146296654D01*
X107455279Y-146476440D01*
X107064651Y-146737450D01*
X106732450Y-147069651D01*
X106471440Y-147460279D01*
X106291654Y-147894321D01*
X106200000Y-148355098D01*
X106070000Y-148355098D01*
X106070000Y-137230512D01*
X109589783Y-137230512D01*
X109631213Y-137510130D01*
X109726397Y-137776292D01*
X109793329Y-137901514D01*
X110037298Y-137973097D01*
X110850395Y-137160000D01*
X110037298Y-136346903D01*
X109793329Y-136418486D01*
X109672429Y-136673996D01*
X109603700Y-136948184D01*
X109589783Y-137230512D01*
X106070000Y-137230512D01*
X106070000Y-136167298D01*
X110216903Y-136167298D01*
X111030000Y-136980395D01*
X111044143Y-136966253D01*
X111223748Y-137145858D01*
X111209605Y-137160000D01*
X111223748Y-137174143D01*
X111044143Y-137353748D01*
X111030000Y-137339605D01*
X110216903Y-138152702D01*
X110288486Y-138396671D01*
X110543996Y-138517571D01*
X110818184Y-138586300D01*
X111100512Y-138600217D01*
X111380130Y-138558787D01*
X111646292Y-138463603D01*
X111768309Y-138398384D01*
X111778815Y-138411185D01*
X111875506Y-138490537D01*
X111985820Y-138549502D01*
X112105518Y-138585812D01*
X112230000Y-138598072D01*
X113830000Y-138598072D01*
X113954482Y-138585812D01*
X114074180Y-138549502D01*
X114184494Y-138490537D01*
X114281185Y-138411185D01*
X114360537Y-138314494D01*
X114419502Y-138204180D01*
X114431387Y-138165000D01*
X115936928Y-138165000D01*
X115936928Y-139965000D01*
X115949188Y-140089482D01*
X115985498Y-140209180D01*
X116044463Y-140319494D01*
X116123815Y-140416185D01*
X116220506Y-140495537D01*
X116330820Y-140554502D01*
X116450518Y-140590812D01*
X116575000Y-140603072D01*
X118375000Y-140603072D01*
X118499482Y-140590812D01*
X118619180Y-140554502D01*
X118729494Y-140495537D01*
X118826185Y-140416185D01*
X118905537Y-140319494D01*
X118964502Y-140209180D01*
X118970056Y-140190873D01*
X119036495Y-140257312D01*
X119287905Y-140425299D01*
X119567257Y-140541011D01*
X119863816Y-140600000D01*
X120166184Y-140600000D01*
X120462743Y-140541011D01*
X120742095Y-140425299D01*
X120993505Y-140257312D01*
X121207312Y-140043505D01*
X121375299Y-139792095D01*
X121491011Y-139512743D01*
X121520916Y-139362400D01*
X123737784Y-139362400D01*
X123698000Y-139562408D01*
X123698000Y-139837592D01*
X123751686Y-140107490D01*
X123856995Y-140361727D01*
X124009880Y-140590535D01*
X124204465Y-140785120D01*
X124433273Y-140938005D01*
X124510515Y-140970000D01*
X124433273Y-141001995D01*
X124204465Y-141154880D01*
X124009880Y-141349465D01*
X123856995Y-141578273D01*
X123751686Y-141832510D01*
X123698000Y-142102408D01*
X123698000Y-142377592D01*
X123751686Y-142647490D01*
X123856995Y-142901727D01*
X124009880Y-143130535D01*
X124204465Y-143325120D01*
X124433273Y-143478005D01*
X124510515Y-143510000D01*
X124433273Y-143541995D01*
X124204465Y-143694880D01*
X124009880Y-143889465D01*
X123856995Y-144118273D01*
X123751686Y-144372510D01*
X123698000Y-144642408D01*
X123698000Y-144917592D01*
X123751686Y-145187490D01*
X123856995Y-145441727D01*
X124009880Y-145670535D01*
X124204465Y-145865120D01*
X124433273Y-146018005D01*
X124504943Y-146047692D01*
X124491977Y-146052364D01*
X124376020Y-146114344D01*
X124309040Y-146354435D01*
X125095000Y-147140395D01*
X125880960Y-146354435D01*
X125813980Y-146114344D01*
X125678240Y-146050515D01*
X125756727Y-146018005D01*
X125985535Y-145865120D01*
X126180120Y-145670535D01*
X126333005Y-145441727D01*
X126438314Y-145187490D01*
X126492000Y-144917592D01*
X126492000Y-144642408D01*
X126438314Y-144372510D01*
X126333005Y-144118273D01*
X126180120Y-143889465D01*
X125985535Y-143694880D01*
X125756727Y-143541995D01*
X125679485Y-143510000D01*
X125756727Y-143478005D01*
X125985535Y-143325120D01*
X126180120Y-143130535D01*
X126333005Y-142901727D01*
X126438314Y-142647490D01*
X126492000Y-142377592D01*
X126492000Y-142102408D01*
X126438314Y-141832510D01*
X126333005Y-141578273D01*
X126180120Y-141349465D01*
X125985535Y-141154880D01*
X125756727Y-141001995D01*
X125679485Y-140970000D01*
X125756727Y-140938005D01*
X125985535Y-140785120D01*
X126180120Y-140590535D01*
X126333005Y-140361727D01*
X126438314Y-140107490D01*
X126492000Y-139837592D01*
X126492000Y-139735700D01*
X127598203Y-139735700D01*
X127572818Y-139783192D01*
X127490764Y-140053691D01*
X127463057Y-140335000D01*
X127490764Y-140616309D01*
X127572818Y-140886808D01*
X127706068Y-141136101D01*
X127885392Y-141354608D01*
X128103899Y-141533932D01*
X128236858Y-141605000D01*
X128103899Y-141676068D01*
X127885392Y-141855392D01*
X127706068Y-142073899D01*
X127572818Y-142323192D01*
X127490764Y-142593691D01*
X127463057Y-142875000D01*
X127490764Y-143156309D01*
X127572818Y-143426808D01*
X127706068Y-143676101D01*
X127885392Y-143894608D01*
X128103899Y-144073932D01*
X128353192Y-144207182D01*
X128623691Y-144289236D01*
X128834508Y-144310000D01*
X128975492Y-144310000D01*
X129186309Y-144289236D01*
X129456808Y-144207182D01*
X129706101Y-144073932D01*
X129924608Y-143894608D01*
X130103932Y-143676101D01*
X130237182Y-143426808D01*
X130319236Y-143156309D01*
X130346943Y-142875000D01*
X130319236Y-142593691D01*
X130237182Y-142323192D01*
X130103932Y-142073899D01*
X129924608Y-141855392D01*
X129706101Y-141676068D01*
X129573142Y-141605000D01*
X129706101Y-141533932D01*
X129924608Y-141354608D01*
X129942703Y-141332560D01*
X130623253Y-142013110D01*
X130647836Y-142043064D01*
X130767367Y-142141162D01*
X130903740Y-142214054D01*
X131051713Y-142258942D01*
X131126626Y-142266320D01*
X131167039Y-142270300D01*
X131167044Y-142270300D01*
X131205600Y-142274097D01*
X131244156Y-142270300D01*
X135086928Y-142270300D01*
X135086928Y-143675000D01*
X135099188Y-143799482D01*
X135135498Y-143919180D01*
X135194463Y-144029494D01*
X135273815Y-144126185D01*
X135370506Y-144205537D01*
X135480820Y-144264502D01*
X135600518Y-144300812D01*
X135725000Y-144313072D01*
X137325000Y-144313072D01*
X137449482Y-144300812D01*
X137569180Y-144264502D01*
X137679494Y-144205537D01*
X137776185Y-144126185D01*
X137855537Y-144029494D01*
X137914502Y-143919180D01*
X137950812Y-143799482D01*
X137963072Y-143675000D01*
X137963072Y-143298229D01*
X138590953Y-143926110D01*
X138615536Y-143956064D01*
X138735067Y-144054162D01*
X138835351Y-144107764D01*
X138871440Y-144127054D01*
X139019413Y-144171942D01*
X139072595Y-144177179D01*
X138991686Y-144372510D01*
X138938000Y-144642408D01*
X138938000Y-144917592D01*
X138991686Y-145187490D01*
X139096995Y-145441727D01*
X139249880Y-145670535D01*
X139444465Y-145865120D01*
X139673273Y-146018005D01*
X139750515Y-146050000D01*
X139673273Y-146081995D01*
X139444465Y-146234880D01*
X139249880Y-146429465D01*
X139096995Y-146658273D01*
X138991686Y-146912510D01*
X138938000Y-147182408D01*
X138938000Y-147457592D01*
X138991686Y-147727490D01*
X139096995Y-147981727D01*
X139249880Y-148210535D01*
X139444465Y-148405120D01*
X139673273Y-148558005D01*
X139744943Y-148587692D01*
X139731977Y-148592364D01*
X139616020Y-148654344D01*
X139549040Y-148894435D01*
X140335000Y-149680395D01*
X141120960Y-148894435D01*
X141053980Y-148654344D01*
X140918240Y-148590515D01*
X140996727Y-148558005D01*
X141225535Y-148405120D01*
X141420120Y-148210535D01*
X141573005Y-147981727D01*
X141678314Y-147727490D01*
X141732000Y-147457592D01*
X141732000Y-147182408D01*
X141678314Y-146912510D01*
X141573005Y-146658273D01*
X141420120Y-146429465D01*
X141225535Y-146234880D01*
X140996727Y-146081995D01*
X140919485Y-146050000D01*
X140996727Y-146018005D01*
X141225535Y-145865120D01*
X141420120Y-145670535D01*
X141573005Y-145441727D01*
X141678314Y-145187490D01*
X141732000Y-144917592D01*
X141732000Y-144642408D01*
X141678314Y-144372510D01*
X141599940Y-144183300D01*
X149035001Y-144183300D01*
X149035000Y-145270768D01*
X148990986Y-145294294D01*
X148764866Y-145479866D01*
X148712777Y-145543337D01*
X148658405Y-145441614D01*
X148547962Y-145307038D01*
X148413386Y-145196595D01*
X148259850Y-145114528D01*
X148093254Y-145063992D01*
X147920000Y-145046928D01*
X146720000Y-145046928D01*
X146546746Y-145063992D01*
X146380150Y-145114528D01*
X146226614Y-145196595D01*
X146092038Y-145307038D01*
X145981595Y-145441614D01*
X145899528Y-145595150D01*
X145848992Y-145761746D01*
X145831928Y-145935000D01*
X145831928Y-147435000D01*
X145848992Y-147608254D01*
X145899528Y-147774850D01*
X145981595Y-147928386D01*
X146092038Y-148062962D01*
X146226614Y-148173405D01*
X146380150Y-148255472D01*
X146546746Y-148306008D01*
X146720000Y-148323072D01*
X147847915Y-148323072D01*
X148130453Y-148605610D01*
X148155036Y-148635564D01*
X148274567Y-148733662D01*
X148410940Y-148806554D01*
X148558913Y-148851442D01*
X148633826Y-148858820D01*
X148674239Y-148862800D01*
X148674244Y-148862800D01*
X148712800Y-148866597D01*
X148751356Y-148862800D01*
X155413647Y-148862800D01*
X155452200Y-148866597D01*
X155490753Y-148862800D01*
X155490761Y-148862800D01*
X155606087Y-148851441D01*
X155754060Y-148806554D01*
X155890433Y-148733662D01*
X156009964Y-148635564D01*
X156034547Y-148605610D01*
X156285059Y-148355098D01*
X169065000Y-148355098D01*
X169065000Y-148824902D01*
X169156654Y-149285679D01*
X169336440Y-149719721D01*
X169597450Y-150110349D01*
X169929651Y-150442550D01*
X170320279Y-150703560D01*
X170754321Y-150883346D01*
X171215098Y-150975000D01*
X171684902Y-150975000D01*
X172145679Y-150883346D01*
X172579721Y-150703560D01*
X172970349Y-150442550D01*
X173302550Y-150110349D01*
X173563560Y-149719721D01*
X173743346Y-149285679D01*
X173835000Y-148824902D01*
X173835000Y-148355098D01*
X173743346Y-147894321D01*
X173563560Y-147460279D01*
X173302550Y-147069651D01*
X172970349Y-146737450D01*
X172579721Y-146476440D01*
X172145679Y-146296654D01*
X171684902Y-146205000D01*
X171215098Y-146205000D01*
X170754321Y-146296654D01*
X170320279Y-146476440D01*
X169929651Y-146737450D01*
X169597450Y-147069651D01*
X169336440Y-147460279D01*
X169156654Y-147894321D01*
X169065000Y-148355098D01*
X156285059Y-148355098D01*
X156317085Y-148323072D01*
X157445000Y-148323072D01*
X157618254Y-148306008D01*
X157784850Y-148255472D01*
X157938386Y-148173405D01*
X158072962Y-148062962D01*
X158183405Y-147928386D01*
X158237777Y-147826663D01*
X158289866Y-147890134D01*
X158515987Y-148075706D01*
X158773967Y-148213599D01*
X159053890Y-148298513D01*
X159345000Y-148327185D01*
X159636111Y-148298513D01*
X159916034Y-148213599D01*
X160174014Y-148075706D01*
X160400134Y-147890134D01*
X160585706Y-147664014D01*
X160723599Y-147406033D01*
X160808513Y-147126110D01*
X160830000Y-146907949D01*
X160830000Y-146462050D01*
X160808513Y-146243889D01*
X160723599Y-145963966D01*
X160585706Y-145705986D01*
X160400134Y-145479866D01*
X160174013Y-145294294D01*
X160130000Y-145270769D01*
X160130000Y-144223556D01*
X160133797Y-144185000D01*
X160130000Y-144146444D01*
X160130000Y-144146439D01*
X160126020Y-144106026D01*
X160118642Y-144031113D01*
X160073754Y-143883140D01*
X160048842Y-143836533D01*
X160000862Y-143746767D01*
X159902764Y-143627236D01*
X159872810Y-143602653D01*
X159140645Y-142870488D01*
X159116064Y-142840536D01*
X158996533Y-142742438D01*
X158860160Y-142669546D01*
X158712187Y-142624659D01*
X158596861Y-142613300D01*
X158596853Y-142613300D01*
X158558300Y-142609503D01*
X158519747Y-142613300D01*
X150010252Y-142613300D01*
X149971699Y-142609503D01*
X149933146Y-142613300D01*
X144565357Y-142613300D01*
X149147517Y-138031141D01*
X149170959Y-138011903D01*
X149248967Y-138053599D01*
X149528890Y-138138513D01*
X149820000Y-138167185D01*
X150111111Y-138138513D01*
X150391034Y-138053599D01*
X150649014Y-137915706D01*
X150875134Y-137730134D01*
X151060706Y-137504014D01*
X151198599Y-137246033D01*
X151283513Y-136966110D01*
X151305000Y-136747949D01*
X151305000Y-136302050D01*
X151283513Y-136083889D01*
X151198599Y-135803966D01*
X151060706Y-135545986D01*
X150875134Y-135319866D01*
X150649013Y-135134294D01*
X150391033Y-134996401D01*
X150111110Y-134911487D01*
X149820000Y-134882815D01*
X149528889Y-134911487D01*
X149248966Y-134996401D01*
X148990986Y-135134294D01*
X148770055Y-135315608D01*
X148759502Y-135280820D01*
X148700537Y-135170506D01*
X148621185Y-135073815D01*
X148524494Y-134994463D01*
X148414180Y-134935498D01*
X148294482Y-134899188D01*
X148170000Y-134886928D01*
X147605750Y-134890000D01*
X147447000Y-135048750D01*
X147447000Y-136398000D01*
X147467000Y-136398000D01*
X147467000Y-136652000D01*
X147447000Y-136652000D01*
X147447000Y-136672000D01*
X147193000Y-136672000D01*
X147193000Y-136652000D01*
X145993750Y-136652000D01*
X145835000Y-136810750D01*
X145831928Y-137525000D01*
X145844188Y-137649482D01*
X145880498Y-137769180D01*
X145939463Y-137879494D01*
X146018815Y-137976185D01*
X146115506Y-138055537D01*
X146225820Y-138114502D01*
X146345518Y-138150812D01*
X146470000Y-138163072D01*
X146797051Y-138161291D01*
X143503343Y-141455000D01*
X141490636Y-141455000D01*
X141420120Y-141349465D01*
X141225535Y-141154880D01*
X140996727Y-141001995D01*
X140919485Y-140970000D01*
X140996727Y-140938005D01*
X141225535Y-140785120D01*
X141420120Y-140590535D01*
X141573005Y-140361727D01*
X141678314Y-140107490D01*
X141732000Y-139837592D01*
X141732000Y-139562408D01*
X141678314Y-139292510D01*
X141573005Y-139038273D01*
X141420120Y-138809465D01*
X141225535Y-138614880D01*
X140996727Y-138461995D01*
X140919485Y-138430000D01*
X140996727Y-138398005D01*
X141225535Y-138245120D01*
X141420120Y-138050535D01*
X141573005Y-137821727D01*
X141678314Y-137567490D01*
X141732000Y-137297592D01*
X141732000Y-137022408D01*
X141678314Y-136752510D01*
X141573005Y-136498273D01*
X141420120Y-136269465D01*
X141225535Y-136074880D01*
X140996727Y-135921995D01*
X140919485Y-135890000D01*
X140996727Y-135858005D01*
X141225535Y-135705120D01*
X141405655Y-135525000D01*
X145831928Y-135525000D01*
X145835000Y-136239250D01*
X145993750Y-136398000D01*
X147193000Y-136398000D01*
X147193000Y-135048750D01*
X147034250Y-134890000D01*
X146470000Y-134886928D01*
X146345518Y-134899188D01*
X146225820Y-134935498D01*
X146115506Y-134994463D01*
X146018815Y-135073815D01*
X145939463Y-135170506D01*
X145880498Y-135280820D01*
X145844188Y-135400518D01*
X145831928Y-135525000D01*
X141405655Y-135525000D01*
X141420120Y-135510535D01*
X141490636Y-135405000D01*
X142519947Y-135405000D01*
X142558500Y-135408797D01*
X142597053Y-135405000D01*
X142597061Y-135405000D01*
X142712387Y-135393641D01*
X142860360Y-135348754D01*
X142996733Y-135275862D01*
X143116264Y-135177764D01*
X143140847Y-135147810D01*
X145899407Y-132389250D01*
X147757197Y-132389250D01*
X147795750Y-132393047D01*
X147834303Y-132389250D01*
X147834311Y-132389250D01*
X147949637Y-132377891D01*
X148097610Y-132333004D01*
X148233983Y-132260112D01*
X148353514Y-132162014D01*
X148378097Y-132132060D01*
X150387816Y-130122342D01*
X150417764Y-130097764D01*
X150515862Y-129978233D01*
X150528700Y-129954214D01*
X150528700Y-130079047D01*
X150524903Y-130117600D01*
X150528700Y-130156153D01*
X150528700Y-130156160D01*
X150540059Y-130271486D01*
X150584946Y-130419459D01*
X150657838Y-130555832D01*
X150755936Y-130675364D01*
X150785890Y-130699947D01*
X156940553Y-136854610D01*
X156965136Y-136884564D01*
X157084667Y-136982662D01*
X157221040Y-137055554D01*
X157369013Y-137100442D01*
X157443926Y-137107820D01*
X157484339Y-137111800D01*
X157484344Y-137111800D01*
X157522900Y-137115597D01*
X157561456Y-137111800D01*
X171609647Y-137111800D01*
X171648200Y-137115597D01*
X171686753Y-137111800D01*
X171686761Y-137111800D01*
X171802087Y-137100441D01*
X171950060Y-137055554D01*
X172086433Y-136982662D01*
X172205964Y-136884564D01*
X172230547Y-136854610D01*
X173247815Y-135837343D01*
X173277764Y-135812764D01*
X173302346Y-135782812D01*
X173326450Y-135753441D01*
X173375862Y-135693233D01*
X173448754Y-135556860D01*
X173459317Y-135522040D01*
X173493641Y-135408888D01*
X173495928Y-135385667D01*
X173505000Y-135293561D01*
X173505000Y-135293554D01*
X173508797Y-135255001D01*
X173505000Y-135216448D01*
X173505000Y-121323556D01*
X173508797Y-121285000D01*
X173505000Y-121246440D01*
X173505000Y-121246439D01*
X173498241Y-121177812D01*
X173493642Y-121131113D01*
X173448754Y-120983140D01*
X173375862Y-120846767D01*
X173277764Y-120727236D01*
X173247811Y-120702654D01*
X172667347Y-120122190D01*
X172642764Y-120092236D01*
X172523233Y-119994138D01*
X172386860Y-119921246D01*
X172238887Y-119876359D01*
X172123561Y-119865000D01*
X172123553Y-119865000D01*
X172085000Y-119861203D01*
X172046447Y-119865000D01*
X169054955Y-119865000D01*
X169016400Y-119861203D01*
X168977844Y-119865000D01*
X168977839Y-119865000D01*
X168937426Y-119868980D01*
X168862513Y-119876358D01*
X168714540Y-119921246D01*
X168578167Y-119994138D01*
X168517959Y-120043550D01*
X168488587Y-120067655D01*
X168488584Y-120067658D01*
X168458636Y-120092236D01*
X168434057Y-120122185D01*
X167747185Y-120809058D01*
X167717237Y-120833636D01*
X167692659Y-120863584D01*
X167692655Y-120863588D01*
X167659690Y-120903756D01*
X167619139Y-120953167D01*
X167603118Y-120983141D01*
X167565602Y-121053328D01*
X167411400Y-121053328D01*
X167286918Y-121065588D01*
X167167220Y-121101898D01*
X167056906Y-121160863D01*
X166960215Y-121240215D01*
X166880863Y-121336906D01*
X166821898Y-121447220D01*
X166785588Y-121566918D01*
X166773328Y-121691400D01*
X166773328Y-123418600D01*
X166785588Y-123543082D01*
X166821898Y-123662780D01*
X166880863Y-123773094D01*
X166960215Y-123869785D01*
X167056906Y-123949137D01*
X167167220Y-124008102D01*
X167231574Y-124027624D01*
X167168146Y-124084707D01*
X166992316Y-124320056D01*
X166865778Y-124585186D01*
X166820042Y-124735974D01*
X166941183Y-124968000D01*
X168148000Y-124968000D01*
X168148000Y-124948000D01*
X168402000Y-124948000D01*
X168402000Y-124968000D01*
X168422000Y-124968000D01*
X168422000Y-125222000D01*
X168402000Y-125222000D01*
X168402000Y-125242000D01*
X168148000Y-125242000D01*
X168148000Y-125222000D01*
X166941183Y-125222000D01*
X166820042Y-125454026D01*
X166865778Y-125604814D01*
X166992316Y-125869944D01*
X167168146Y-126105293D01*
X167386512Y-126301817D01*
X167482910Y-126359137D01*
X167438394Y-126382931D01*
X167210203Y-126570203D01*
X167022931Y-126798394D01*
X166883775Y-127058736D01*
X166798084Y-127341223D01*
X166769149Y-127635000D01*
X166798084Y-127928777D01*
X166883775Y-128211264D01*
X167022931Y-128471606D01*
X167210203Y-128699797D01*
X167438394Y-128887069D01*
X167471940Y-128905000D01*
X167438394Y-128922931D01*
X167210203Y-129110203D01*
X167022931Y-129338394D01*
X166993836Y-129392827D01*
X166982126Y-129393980D01*
X166907213Y-129401358D01*
X166759240Y-129446246D01*
X166622867Y-129519138D01*
X166503336Y-129617236D01*
X166478753Y-129647190D01*
X163541543Y-132584400D01*
X160304904Y-132584400D01*
X160339554Y-132489261D01*
X160341476Y-132476890D01*
X160220155Y-132247000D01*
X158877000Y-132247000D01*
X158877000Y-132267000D01*
X158623000Y-132267000D01*
X158623000Y-132247000D01*
X158603000Y-132247000D01*
X158603000Y-131993000D01*
X158623000Y-131993000D01*
X158623000Y-130792768D01*
X158877000Y-130792768D01*
X158877000Y-131993000D01*
X160220155Y-131993000D01*
X160341476Y-131763110D01*
X160339554Y-131750739D01*
X160239854Y-131476991D01*
X160088664Y-131227954D01*
X159891795Y-131013198D01*
X159656812Y-130840975D01*
X159392745Y-130717904D01*
X159109742Y-130648715D01*
X158877000Y-130792768D01*
X158623000Y-130792768D01*
X158390258Y-130648715D01*
X158107255Y-130717904D01*
X157843188Y-130840975D01*
X157608205Y-131013198D01*
X157411336Y-131227954D01*
X157301398Y-131409041D01*
X153991700Y-128099343D01*
X153991700Y-127755752D01*
X153995497Y-127717199D01*
X153991700Y-127678646D01*
X153991700Y-127678639D01*
X153980341Y-127563313D01*
X153979947Y-127562012D01*
X153948014Y-127456746D01*
X153935454Y-127415340D01*
X153862562Y-127278967D01*
X153800836Y-127203755D01*
X153789045Y-127189387D01*
X153789042Y-127189384D01*
X153764464Y-127159436D01*
X153734516Y-127134858D01*
X149189658Y-122590000D01*
X157111928Y-122590000D01*
X157111928Y-123790000D01*
X157128992Y-123963254D01*
X157179528Y-124129850D01*
X157261595Y-124283386D01*
X157372038Y-124417962D01*
X157506614Y-124528405D01*
X157660150Y-124610472D01*
X157826746Y-124661008D01*
X158000000Y-124678072D01*
X159500000Y-124678072D01*
X159673254Y-124661008D01*
X159839850Y-124610472D01*
X159993386Y-124528405D01*
X160127962Y-124417962D01*
X160238405Y-124283386D01*
X160320472Y-124129850D01*
X160371008Y-123963254D01*
X160388072Y-123790000D01*
X160388072Y-122590000D01*
X160371008Y-122416746D01*
X160320472Y-122250150D01*
X160238405Y-122096614D01*
X160127962Y-121962038D01*
X159993386Y-121851595D01*
X159891407Y-121797086D01*
X159891795Y-121796802D01*
X160088664Y-121582046D01*
X160239854Y-121333009D01*
X160339554Y-121059261D01*
X160341476Y-121046890D01*
X160220155Y-120817000D01*
X158877000Y-120817000D01*
X158877000Y-120837000D01*
X158623000Y-120837000D01*
X158623000Y-120817000D01*
X157279845Y-120817000D01*
X157158524Y-121046890D01*
X157160446Y-121059261D01*
X157260146Y-121333009D01*
X157411336Y-121582046D01*
X157608205Y-121796802D01*
X157608593Y-121797086D01*
X157506614Y-121851595D01*
X157372038Y-121962038D01*
X157261595Y-122096614D01*
X157179528Y-122250150D01*
X157128992Y-122416746D01*
X157111928Y-122590000D01*
X149189658Y-122590000D01*
X146979953Y-120380296D01*
X147034250Y-120380000D01*
X147193000Y-120221250D01*
X147193000Y-118872000D01*
X147173000Y-118872000D01*
X147173000Y-118618000D01*
X147193000Y-118618000D01*
X147193000Y-118598000D01*
X147447000Y-118598000D01*
X147447000Y-118618000D01*
X147467000Y-118618000D01*
X147467000Y-118872000D01*
X147447000Y-118872000D01*
X147447000Y-120221250D01*
X147605750Y-120380000D01*
X148170000Y-120383072D01*
X148294482Y-120370812D01*
X148414180Y-120334502D01*
X148524494Y-120275537D01*
X148621185Y-120196185D01*
X148700537Y-120099494D01*
X148759502Y-119989180D01*
X148770055Y-119954392D01*
X148990987Y-120135706D01*
X149248967Y-120273599D01*
X149528890Y-120358513D01*
X149820000Y-120387185D01*
X150111111Y-120358513D01*
X150194853Y-120333110D01*
X157158524Y-120333110D01*
X157279845Y-120563000D01*
X158623000Y-120563000D01*
X158623000Y-119362768D01*
X158877000Y-119362768D01*
X158877000Y-120563000D01*
X160220155Y-120563000D01*
X160341476Y-120333110D01*
X160339554Y-120320739D01*
X160239854Y-120046991D01*
X160088664Y-119797954D01*
X159891795Y-119583198D01*
X159656812Y-119410975D01*
X159392745Y-119287904D01*
X159109742Y-119218715D01*
X158877000Y-119362768D01*
X158623000Y-119362768D01*
X158390258Y-119218715D01*
X158107255Y-119287904D01*
X157843188Y-119410975D01*
X157608205Y-119583198D01*
X157411336Y-119797954D01*
X157260146Y-120046991D01*
X157160446Y-120320739D01*
X157158524Y-120333110D01*
X150194853Y-120333110D01*
X150391034Y-120273599D01*
X150649014Y-120135706D01*
X150875134Y-119950134D01*
X151060706Y-119724014D01*
X151198599Y-119466033D01*
X151283513Y-119186110D01*
X151305000Y-118967949D01*
X151305000Y-118522050D01*
X151283513Y-118303889D01*
X151198599Y-118023966D01*
X151060706Y-117765986D01*
X150875134Y-117539866D01*
X150649013Y-117354294D01*
X150391033Y-117216401D01*
X150111110Y-117131487D01*
X149980622Y-117118635D01*
X156634493Y-110464764D01*
X156643394Y-110472069D01*
X156903736Y-110611225D01*
X157186223Y-110696916D01*
X157406381Y-110718600D01*
X157553619Y-110718600D01*
X157773777Y-110696916D01*
X158056264Y-110611225D01*
X158316606Y-110472069D01*
X158544797Y-110284797D01*
X158732069Y-110056606D01*
X158750000Y-110023060D01*
X158767931Y-110056606D01*
X158955203Y-110284797D01*
X159183394Y-110472069D01*
X159443736Y-110611225D01*
X159726223Y-110696916D01*
X159946381Y-110718600D01*
X160093619Y-110718600D01*
X160313777Y-110696916D01*
X160596264Y-110611225D01*
X160856606Y-110472069D01*
X161084797Y-110284797D01*
X161272069Y-110056606D01*
X161411225Y-109796264D01*
X161496916Y-109513777D01*
X161525851Y-109220000D01*
X161496916Y-108926223D01*
X161411225Y-108643736D01*
X161272069Y-108383394D01*
X161084797Y-108155203D01*
X160856606Y-107967931D01*
X160823060Y-107950000D01*
X160856606Y-107932069D01*
X161084797Y-107744797D01*
X161272069Y-107516606D01*
X161411225Y-107256264D01*
X161496916Y-106973777D01*
X161525851Y-106680000D01*
X161496916Y-106386223D01*
X161411225Y-106103736D01*
X161272069Y-105843394D01*
X161244744Y-105810098D01*
X169065000Y-105810098D01*
X169065000Y-106279902D01*
X169156654Y-106740679D01*
X169336440Y-107174721D01*
X169597450Y-107565349D01*
X169929651Y-107897550D01*
X170320279Y-108158560D01*
X170754321Y-108338346D01*
X171215098Y-108430000D01*
X171684902Y-108430000D01*
X172145679Y-108338346D01*
X172579721Y-108158560D01*
X172970349Y-107897550D01*
X173302550Y-107565349D01*
X173563560Y-107174721D01*
X173743346Y-106740679D01*
X173835000Y-106279902D01*
X173835000Y-105810098D01*
X173743346Y-105349321D01*
X173563560Y-104915279D01*
X173302550Y-104524651D01*
X172970349Y-104192450D01*
X172579721Y-103931440D01*
X172145679Y-103751654D01*
X171684902Y-103660000D01*
X171215098Y-103660000D01*
X170754321Y-103751654D01*
X170320279Y-103931440D01*
X169929651Y-104192450D01*
X169597450Y-104524651D01*
X169336440Y-104915279D01*
X169156654Y-105349321D01*
X169065000Y-105810098D01*
X161244744Y-105810098D01*
X161084797Y-105615203D01*
X160856606Y-105427931D01*
X160596264Y-105288775D01*
X160313777Y-105203084D01*
X160093619Y-105181400D01*
X159946381Y-105181400D01*
X159726223Y-105203084D01*
X159443736Y-105288775D01*
X159183394Y-105427931D01*
X158955203Y-105615203D01*
X158767931Y-105843394D01*
X158750000Y-105876940D01*
X158732069Y-105843394D01*
X158544797Y-105615203D01*
X158316606Y-105427931D01*
X158056264Y-105288775D01*
X157773777Y-105203084D01*
X157553619Y-105181400D01*
X157406381Y-105181400D01*
X157186223Y-105203084D01*
X156903736Y-105288775D01*
X156643394Y-105427931D01*
X156415203Y-105615203D01*
X156227931Y-105843394D01*
X156210000Y-105876940D01*
X156192069Y-105843394D01*
X156004797Y-105615203D01*
X155776606Y-105427931D01*
X155516264Y-105288775D01*
X155233777Y-105203084D01*
X155013619Y-105181400D01*
X154866381Y-105181400D01*
X154646223Y-105203084D01*
X154363736Y-105288775D01*
X154103394Y-105427931D01*
X154094493Y-105435236D01*
X153586947Y-104927689D01*
X153562364Y-104897736D01*
X153442833Y-104799638D01*
X153306460Y-104726746D01*
X153158487Y-104681859D01*
X153043161Y-104670500D01*
X153043153Y-104670500D01*
X153004600Y-104666703D01*
X152966047Y-104670500D01*
X148453352Y-104670500D01*
X148414799Y-104666703D01*
X148376246Y-104670500D01*
X148376239Y-104670500D01*
X148260913Y-104681859D01*
X148112940Y-104726746D01*
X147976567Y-104799638D01*
X147928063Y-104839445D01*
X147886987Y-104873155D01*
X147886984Y-104873158D01*
X147857036Y-104897736D01*
X147832458Y-104927684D01*
X143095043Y-109665100D01*
X141882365Y-109665100D01*
X141924554Y-109549261D01*
X141926476Y-109536890D01*
X141805155Y-109307000D01*
X140462000Y-109307000D01*
X140462000Y-109327000D01*
X140208000Y-109327000D01*
X140208000Y-109307000D01*
X138864845Y-109307000D01*
X138743524Y-109536890D01*
X138745446Y-109549261D01*
X138787635Y-109665100D01*
X131606013Y-109665100D01*
X131651916Y-109513777D01*
X131680851Y-109220000D01*
X131651916Y-108926223D01*
X131566225Y-108643736D01*
X131427069Y-108383394D01*
X131239797Y-108155203D01*
X131011606Y-107967931D01*
X130978060Y-107950000D01*
X131011606Y-107932069D01*
X131239797Y-107744797D01*
X131427069Y-107516606D01*
X131566225Y-107256264D01*
X131651916Y-106973777D01*
X131680851Y-106680000D01*
X131651916Y-106386223D01*
X131566225Y-106103736D01*
X131553538Y-106080000D01*
X138696928Y-106080000D01*
X138696928Y-107280000D01*
X138713992Y-107453254D01*
X138764528Y-107619850D01*
X138846595Y-107773386D01*
X138957038Y-107907962D01*
X139091614Y-108018405D01*
X139193593Y-108072914D01*
X139193205Y-108073198D01*
X138996336Y-108287954D01*
X138845146Y-108536991D01*
X138745446Y-108810739D01*
X138743524Y-108823110D01*
X138864845Y-109053000D01*
X140208000Y-109053000D01*
X140208000Y-109033000D01*
X140462000Y-109033000D01*
X140462000Y-109053000D01*
X141805155Y-109053000D01*
X141926476Y-108823110D01*
X141924554Y-108810739D01*
X141824854Y-108536991D01*
X141673664Y-108287954D01*
X141476795Y-108073198D01*
X141476407Y-108072914D01*
X141578386Y-108018405D01*
X141712962Y-107907962D01*
X141823405Y-107773386D01*
X141905472Y-107619850D01*
X141956008Y-107453254D01*
X141973072Y-107280000D01*
X141973072Y-106080000D01*
X141956008Y-105906746D01*
X141905472Y-105740150D01*
X141823405Y-105586614D01*
X141712962Y-105452038D01*
X141578386Y-105341595D01*
X141424850Y-105259528D01*
X141258254Y-105208992D01*
X141085000Y-105191928D01*
X139585000Y-105191928D01*
X139411746Y-105208992D01*
X139245150Y-105259528D01*
X139091614Y-105341595D01*
X138957038Y-105452038D01*
X138846595Y-105586614D01*
X138764528Y-105740150D01*
X138713992Y-105906746D01*
X138696928Y-106080000D01*
X131553538Y-106080000D01*
X131427069Y-105843394D01*
X131239797Y-105615203D01*
X131011606Y-105427931D01*
X130751264Y-105288775D01*
X130468777Y-105203084D01*
X130248619Y-105181400D01*
X130101381Y-105181400D01*
X129881223Y-105203084D01*
X129598736Y-105288775D01*
X129338394Y-105427931D01*
X129110203Y-105615203D01*
X128922931Y-105843394D01*
X128905000Y-105876940D01*
X128887069Y-105843394D01*
X128699797Y-105615203D01*
X128471606Y-105427931D01*
X128211264Y-105288775D01*
X127928777Y-105203084D01*
X127708619Y-105181400D01*
X127561381Y-105181400D01*
X127341223Y-105203084D01*
X127058736Y-105288775D01*
X126798394Y-105427931D01*
X126570203Y-105615203D01*
X126382931Y-105843394D01*
X126365000Y-105876940D01*
X126347069Y-105843394D01*
X126159797Y-105615203D01*
X125931606Y-105427931D01*
X125671264Y-105288775D01*
X125388777Y-105203084D01*
X125168619Y-105181400D01*
X125021381Y-105181400D01*
X124801223Y-105203084D01*
X124518736Y-105288775D01*
X124258394Y-105427931D01*
X124030203Y-105615203D01*
X123842931Y-105843394D01*
X123825000Y-105876940D01*
X123807069Y-105843394D01*
X123619797Y-105615203D01*
X123391606Y-105427931D01*
X123131264Y-105288775D01*
X122848777Y-105203084D01*
X122628619Y-105181400D01*
X122481381Y-105181400D01*
X122261223Y-105203084D01*
X121978736Y-105288775D01*
X121718394Y-105427931D01*
X121490203Y-105615203D01*
X121302931Y-105843394D01*
X121285000Y-105876940D01*
X121267069Y-105843394D01*
X121079797Y-105615203D01*
X120851606Y-105427931D01*
X120591264Y-105288775D01*
X120308777Y-105203084D01*
X120088619Y-105181400D01*
X119941381Y-105181400D01*
X119721223Y-105203084D01*
X119438736Y-105288775D01*
X119178394Y-105427931D01*
X118950203Y-105615203D01*
X118762931Y-105843394D01*
X118623775Y-106103736D01*
X118538084Y-106386223D01*
X118509149Y-106680000D01*
X118538084Y-106973777D01*
X118623775Y-107256264D01*
X118762931Y-107516606D01*
X118950203Y-107744797D01*
X118958265Y-107751414D01*
X118907220Y-107766898D01*
X118796906Y-107825863D01*
X118700215Y-107905215D01*
X118620863Y-108001906D01*
X118561898Y-108112220D01*
X118525588Y-108231918D01*
X118513328Y-108356400D01*
X118513328Y-110083600D01*
X118525588Y-110208082D01*
X118561898Y-110327780D01*
X118620863Y-110438094D01*
X118700215Y-110534785D01*
X118796906Y-110614137D01*
X118907220Y-110673102D01*
X119026918Y-110709412D01*
X119151400Y-110721672D01*
X119281973Y-110721672D01*
X119286246Y-110735759D01*
X119286247Y-110735760D01*
X119359139Y-110872133D01*
X119397640Y-110919046D01*
X119432655Y-110961712D01*
X119432659Y-110961716D01*
X119457237Y-110991664D01*
X119487185Y-111016242D01*
X120443901Y-111972958D01*
X120443900Y-116113142D01*
X120186816Y-116048700D01*
X119904488Y-116034783D01*
X119624870Y-116076213D01*
X119358708Y-116171397D01*
X119233486Y-116238329D01*
X119161903Y-116482298D01*
X119975000Y-117295395D01*
X119989143Y-117281253D01*
X120168748Y-117460858D01*
X120154605Y-117475000D01*
X120168748Y-117489143D01*
X119989143Y-117668748D01*
X119975000Y-117654605D01*
X119161903Y-118467702D01*
X119233486Y-118711671D01*
X119488996Y-118832571D01*
X119763184Y-118901300D01*
X120045512Y-118915217D01*
X120325130Y-118873787D01*
X120443900Y-118831313D01*
X120443900Y-119606047D01*
X120440103Y-119644600D01*
X120443900Y-119683153D01*
X120443900Y-119683160D01*
X120455259Y-119798486D01*
X120500146Y-119946459D01*
X120573038Y-120082832D01*
X120671136Y-120202364D01*
X120701090Y-120226947D01*
X124026744Y-123552601D01*
X124009880Y-123569465D01*
X123856995Y-123798273D01*
X123751686Y-124052510D01*
X123698000Y-124322408D01*
X123698000Y-124597592D01*
X123751686Y-124867490D01*
X123856995Y-125121727D01*
X124009880Y-125350535D01*
X124204465Y-125545120D01*
X124433273Y-125698005D01*
X124510515Y-125730000D01*
X124433273Y-125761995D01*
X124204465Y-125914880D01*
X124009880Y-126109465D01*
X123856995Y-126338273D01*
X123751686Y-126592510D01*
X123698000Y-126862408D01*
X123698000Y-127137592D01*
X123751686Y-127407490D01*
X123856995Y-127661727D01*
X124009880Y-127890535D01*
X124204465Y-128085120D01*
X124433273Y-128238005D01*
X124510515Y-128270000D01*
X124433273Y-128301995D01*
X124204465Y-128454880D01*
X124009880Y-128649465D01*
X123856995Y-128878273D01*
X123751686Y-129132510D01*
X123698000Y-129402408D01*
X123698000Y-129677592D01*
X123751686Y-129947490D01*
X123856995Y-130201727D01*
X124009880Y-130430535D01*
X124204465Y-130625120D01*
X124433273Y-130778005D01*
X124510515Y-130810000D01*
X124433273Y-130841995D01*
X124204465Y-130994880D01*
X124009880Y-131189465D01*
X123856995Y-131418273D01*
X123751686Y-131672510D01*
X123698000Y-131942408D01*
X123698000Y-132217592D01*
X123751686Y-132487490D01*
X123856995Y-132741727D01*
X124009880Y-132970535D01*
X124204465Y-133165120D01*
X124433273Y-133318005D01*
X124510515Y-133350000D01*
X124433273Y-133381995D01*
X124204465Y-133534880D01*
X124009880Y-133729465D01*
X123856995Y-133958273D01*
X123751686Y-134212510D01*
X123698000Y-134482408D01*
X123698000Y-134757592D01*
X123751686Y-135027490D01*
X123856995Y-135281727D01*
X124009880Y-135510535D01*
X124204465Y-135705120D01*
X124433273Y-135858005D01*
X124510515Y-135890000D01*
X124433273Y-135921995D01*
X124204465Y-136074880D01*
X124009880Y-136269465D01*
X123856995Y-136498273D01*
X123751686Y-136752510D01*
X123698000Y-137022408D01*
X123698000Y-137297592D01*
X123751686Y-137567490D01*
X123844847Y-137792400D01*
X120873346Y-137792400D01*
X120742095Y-137704701D01*
X120462743Y-137588989D01*
X120166184Y-137530000D01*
X119863816Y-137530000D01*
X119567257Y-137588989D01*
X119287905Y-137704701D01*
X119036495Y-137872688D01*
X118970056Y-137939127D01*
X118964502Y-137920820D01*
X118905537Y-137810506D01*
X118826185Y-137713815D01*
X118729494Y-137634463D01*
X118619180Y-137575498D01*
X118499482Y-137539188D01*
X118375000Y-137526928D01*
X116575000Y-137526928D01*
X116450518Y-137539188D01*
X116330820Y-137575498D01*
X116220506Y-137634463D01*
X116123815Y-137713815D01*
X116044463Y-137810506D01*
X115985498Y-137920820D01*
X115949188Y-138040518D01*
X115936928Y-138165000D01*
X114431387Y-138165000D01*
X114455812Y-138084482D01*
X114468072Y-137960000D01*
X114468072Y-136360000D01*
X114455812Y-136235518D01*
X114419502Y-136115820D01*
X114360537Y-136005506D01*
X114281185Y-135908815D01*
X114184494Y-135829463D01*
X114074180Y-135770498D01*
X113954482Y-135734188D01*
X113830000Y-135721928D01*
X112230000Y-135721928D01*
X112105518Y-135734188D01*
X111985820Y-135770498D01*
X111875506Y-135829463D01*
X111778815Y-135908815D01*
X111768193Y-135921758D01*
X111516004Y-135802429D01*
X111241816Y-135733700D01*
X110959488Y-135719783D01*
X110679870Y-135761213D01*
X110413708Y-135856397D01*
X110288486Y-135923329D01*
X110216903Y-136167298D01*
X106070000Y-136167298D01*
X106070000Y-127630000D01*
X109486928Y-127630000D01*
X109486928Y-128830000D01*
X109503992Y-129003254D01*
X109554528Y-129169850D01*
X109636595Y-129323386D01*
X109747038Y-129457962D01*
X109881614Y-129568405D01*
X110035150Y-129650472D01*
X110201746Y-129701008D01*
X110375000Y-129718072D01*
X111502915Y-129718072D01*
X113122658Y-131337816D01*
X113147236Y-131367764D01*
X113177184Y-131392342D01*
X113177187Y-131392345D01*
X113206559Y-131416450D01*
X113266767Y-131465862D01*
X113403140Y-131538754D01*
X113551113Y-131583642D01*
X113626026Y-131591020D01*
X113666439Y-131595000D01*
X113666444Y-131595000D01*
X113705000Y-131598797D01*
X113743555Y-131595000D01*
X119011928Y-131595000D01*
X119011928Y-131762500D01*
X119024188Y-131886982D01*
X119060498Y-132006680D01*
X119119463Y-132116994D01*
X119198815Y-132213685D01*
X119295506Y-132293037D01*
X119405820Y-132352002D01*
X119525518Y-132388312D01*
X119650000Y-132400572D01*
X121650000Y-132400572D01*
X121774482Y-132388312D01*
X121894180Y-132352002D01*
X122004494Y-132293037D01*
X122101185Y-132213685D01*
X122180537Y-132116994D01*
X122239502Y-132006680D01*
X122275812Y-131886982D01*
X122288072Y-131762500D01*
X122288072Y-129857500D01*
X122275812Y-129733018D01*
X122239502Y-129613320D01*
X122180537Y-129503006D01*
X122101185Y-129406315D01*
X122004494Y-129326963D01*
X121912781Y-129277941D01*
X122025969Y-129136923D01*
X122169571Y-128861094D01*
X122240563Y-128642980D01*
X122120594Y-128397000D01*
X120777000Y-128397000D01*
X120777000Y-128417000D01*
X120523000Y-128417000D01*
X120523000Y-128397000D01*
X119179406Y-128397000D01*
X119059437Y-128642980D01*
X119130429Y-128861094D01*
X119274031Y-129136923D01*
X119387219Y-129277941D01*
X119295506Y-129326963D01*
X119198815Y-129406315D01*
X119119463Y-129503006D01*
X119060498Y-129613320D01*
X119024188Y-129733018D01*
X119011928Y-129857500D01*
X119011928Y-130025000D01*
X114030158Y-130025000D01*
X112763072Y-128757915D01*
X112763072Y-127630000D01*
X112746008Y-127456746D01*
X112695472Y-127290150D01*
X112613405Y-127136614D01*
X112502962Y-127002038D01*
X112368386Y-126891595D01*
X112266407Y-126837086D01*
X112266795Y-126836802D01*
X112463664Y-126622046D01*
X112614854Y-126373009D01*
X112714554Y-126099261D01*
X112716476Y-126086890D01*
X112595155Y-125857000D01*
X111252000Y-125857000D01*
X111252000Y-125877000D01*
X110998000Y-125877000D01*
X110998000Y-125857000D01*
X109654845Y-125857000D01*
X109533524Y-126086890D01*
X109535446Y-126099261D01*
X109635146Y-126373009D01*
X109786336Y-126622046D01*
X109983205Y-126836802D01*
X109983593Y-126837086D01*
X109881614Y-126891595D01*
X109747038Y-127002038D01*
X109636595Y-127136614D01*
X109554528Y-127290150D01*
X109503992Y-127456746D01*
X109486928Y-127630000D01*
X106070000Y-127630000D01*
X106070000Y-125730000D01*
X119007319Y-125730000D01*
X119037970Y-126041204D01*
X119128745Y-126340449D01*
X119276155Y-126616235D01*
X119474537Y-126857963D01*
X119653899Y-127005163D01*
X119468685Y-127160563D01*
X119274031Y-127403077D01*
X119130429Y-127678906D01*
X119059437Y-127897020D01*
X119179406Y-128143000D01*
X120523000Y-128143000D01*
X120523000Y-128123000D01*
X120777000Y-128123000D01*
X120777000Y-128143000D01*
X122120594Y-128143000D01*
X122240563Y-127897020D01*
X122169571Y-127678906D01*
X122025969Y-127403077D01*
X121831315Y-127160563D01*
X121646101Y-127005163D01*
X121825463Y-126857963D01*
X122023845Y-126616235D01*
X122171255Y-126340449D01*
X122262030Y-126041204D01*
X122292681Y-125730000D01*
X122262030Y-125418796D01*
X122171255Y-125119551D01*
X122023845Y-124843765D01*
X121825463Y-124602037D01*
X121583735Y-124403655D01*
X121307949Y-124256245D01*
X121008704Y-124165470D01*
X120775486Y-124142500D01*
X120524514Y-124142500D01*
X120291296Y-124165470D01*
X119992051Y-124256245D01*
X119716265Y-124403655D01*
X119474537Y-124602037D01*
X119276155Y-124843765D01*
X119128745Y-125119551D01*
X119037970Y-125418796D01*
X119007319Y-125730000D01*
X106070000Y-125730000D01*
X106070000Y-125373110D01*
X109533524Y-125373110D01*
X109654845Y-125603000D01*
X110998000Y-125603000D01*
X110998000Y-124402768D01*
X111252000Y-124402768D01*
X111252000Y-125603000D01*
X112595155Y-125603000D01*
X112716476Y-125373110D01*
X112714554Y-125360739D01*
X112614854Y-125086991D01*
X112463664Y-124837954D01*
X112266795Y-124623198D01*
X112031812Y-124450975D01*
X111767745Y-124327904D01*
X111484742Y-124258715D01*
X111252000Y-124402768D01*
X110998000Y-124402768D01*
X110765258Y-124258715D01*
X110482255Y-124327904D01*
X110218188Y-124450975D01*
X109983205Y-124623198D01*
X109786336Y-124837954D01*
X109635146Y-125086991D01*
X109535446Y-125360739D01*
X109533524Y-125373110D01*
X106070000Y-125373110D01*
X106070000Y-116675000D01*
X116036928Y-116675000D01*
X116036928Y-118275000D01*
X116049188Y-118399482D01*
X116085498Y-118519180D01*
X116144463Y-118629494D01*
X116223815Y-118726185D01*
X116320506Y-118805537D01*
X116430820Y-118864502D01*
X116550518Y-118900812D01*
X116675000Y-118913072D01*
X118275000Y-118913072D01*
X118399482Y-118900812D01*
X118519180Y-118864502D01*
X118629494Y-118805537D01*
X118726185Y-118726185D01*
X118805537Y-118629494D01*
X118864502Y-118519180D01*
X118900812Y-118399482D01*
X118913072Y-118275000D01*
X118913072Y-118267785D01*
X118982298Y-118288097D01*
X119795395Y-117475000D01*
X118982298Y-116661903D01*
X118913072Y-116682215D01*
X118913072Y-116675000D01*
X118900812Y-116550518D01*
X118864502Y-116430820D01*
X118805537Y-116320506D01*
X118726185Y-116223815D01*
X118629494Y-116144463D01*
X118519180Y-116085498D01*
X118399482Y-116049188D01*
X118275000Y-116036928D01*
X116675000Y-116036928D01*
X116550518Y-116049188D01*
X116430820Y-116085498D01*
X116320506Y-116144463D01*
X116223815Y-116223815D01*
X116144463Y-116320506D01*
X116085498Y-116430820D01*
X116049188Y-116550518D01*
X116036928Y-116675000D01*
X106070000Y-116675000D01*
X106070000Y-105810098D01*
X106200000Y-105810098D01*
X106200000Y-106279902D01*
X106291654Y-106740679D01*
X106471440Y-107174721D01*
X106732450Y-107565349D01*
X107064651Y-107897550D01*
X107455279Y-108158560D01*
X107889321Y-108338346D01*
X108350098Y-108430000D01*
X108819902Y-108430000D01*
X109280679Y-108338346D01*
X109714721Y-108158560D01*
X110105349Y-107897550D01*
X110437550Y-107565349D01*
X110698560Y-107174721D01*
X110878346Y-106740679D01*
X110970000Y-106279902D01*
X110970000Y-105810098D01*
X110878346Y-105349321D01*
X110698560Y-104915279D01*
X110437550Y-104524651D01*
X110105349Y-104192450D01*
X109714721Y-103931440D01*
X109280679Y-103751654D01*
X108819902Y-103660000D01*
X108350098Y-103660000D01*
X107889321Y-103751654D01*
X107455279Y-103931440D01*
X107064651Y-104192450D01*
X106732450Y-104524651D01*
X106471440Y-104915279D01*
X106291654Y-105349321D01*
X106200000Y-105810098D01*
X106070000Y-105810098D01*
X106070000Y-104807277D01*
X106096815Y-104533796D01*
X106166867Y-104301774D01*
X106280650Y-104087778D01*
X106433832Y-103899959D01*
X106620577Y-103745470D01*
X106833769Y-103630199D01*
X107065300Y-103558528D01*
X107336725Y-103530000D01*
X172052721Y-103530000D01*
X172449545Y-103568909D01*
X172449545Y-103568909D01*
G37*
X172449545Y-103568909D02*
X172800208Y-103674780D01*
X173123625Y-103846744D01*
X173407484Y-104078254D01*
X173640965Y-104360486D01*
X173815183Y-104682695D01*
X173923502Y-105032614D01*
X173965001Y-105427452D01*
X173965000Y-149827723D01*
X173938185Y-150101205D01*
X173868133Y-150333226D01*
X173754350Y-150547222D01*
X173601169Y-150735039D01*
X173414424Y-150889529D01*
X173201231Y-151004802D01*
X172969701Y-151076472D01*
X172698276Y-151105000D01*
X140980372Y-151105000D01*
X141053980Y-151065656D01*
X141120960Y-150825565D01*
X140335000Y-150039605D01*
X139549040Y-150825565D01*
X139616020Y-151065656D01*
X139699690Y-151105000D01*
X125739840Y-151105000D01*
X125756727Y-151098005D01*
X125985535Y-150945120D01*
X126180120Y-150750535D01*
X126333005Y-150521727D01*
X126438314Y-150267490D01*
X126492000Y-149997592D01*
X126492000Y-149932017D01*
X138933090Y-149932017D01*
X138974078Y-150204133D01*
X139067364Y-150463023D01*
X139129344Y-150578980D01*
X139369435Y-150645960D01*
X140155395Y-149860000D01*
X140514605Y-149860000D01*
X141300565Y-150645960D01*
X141540656Y-150578980D01*
X141657756Y-150329952D01*
X141724023Y-150062865D01*
X141736910Y-149787983D01*
X141695922Y-149515867D01*
X141602636Y-149256977D01*
X141540656Y-149141020D01*
X141300565Y-149074040D01*
X140514605Y-149860000D01*
X140155395Y-149860000D01*
X139369435Y-149074040D01*
X139129344Y-149141020D01*
X139012244Y-149390048D01*
X138945977Y-149657135D01*
X138933090Y-149932017D01*
X126492000Y-149932017D01*
X126492000Y-149722408D01*
X126438314Y-149452510D01*
X126333005Y-149198273D01*
X126180120Y-148969465D01*
X125985535Y-148774880D01*
X125756727Y-148621995D01*
X125685057Y-148592308D01*
X125698023Y-148587636D01*
X125813980Y-148525656D01*
X125880960Y-148285565D01*
X125095000Y-147499605D01*
X124309040Y-148285565D01*
X124376020Y-148525656D01*
X124511760Y-148589485D01*
X124433273Y-148621995D01*
X124204465Y-148774880D01*
X124009880Y-148969465D01*
X123939364Y-149075000D01*
X121055358Y-149075000D01*
X120728048Y-148747691D01*
X120844014Y-148685706D01*
X121070134Y-148500134D01*
X121255706Y-148274014D01*
X121393599Y-148016033D01*
X121478513Y-147736110D01*
X121500000Y-147517949D01*
X121500000Y-147392017D01*
X123693090Y-147392017D01*
X123734078Y-147664133D01*
X123827364Y-147923023D01*
X123889344Y-148038980D01*
X124129435Y-148105960D01*
X124915395Y-147320000D01*
X125274605Y-147320000D01*
X126060565Y-148105960D01*
X126300656Y-148038980D01*
X126417756Y-147789952D01*
X126484023Y-147522865D01*
X126496910Y-147247983D01*
X126455922Y-146975867D01*
X126362636Y-146716977D01*
X126300656Y-146601020D01*
X126060565Y-146534040D01*
X125274605Y-147320000D01*
X124915395Y-147320000D01*
X124129435Y-146534040D01*
X123889344Y-146601020D01*
X123772244Y-146850048D01*
X123705977Y-147117135D01*
X123693090Y-147392017D01*
X121500000Y-147392017D01*
X121500000Y-147122050D01*
X121478513Y-146903889D01*
X121393599Y-146623966D01*
X121255706Y-146365986D01*
X121070134Y-146139866D01*
X120844013Y-145954294D01*
X120586033Y-145816401D01*
X120306110Y-145731487D01*
X120015000Y-145702815D01*
X119723889Y-145731487D01*
X119443966Y-145816401D01*
X119185986Y-145954294D01*
X118959866Y-146139866D01*
X118774294Y-146365987D01*
X118765000Y-146383374D01*
X118755706Y-146365986D01*
X118570134Y-146139866D01*
X118344013Y-145954294D01*
X118086033Y-145816401D01*
X117806110Y-145731487D01*
X117515000Y-145702815D01*
X117223889Y-145731487D01*
X116943966Y-145816401D01*
X116685986Y-145954294D01*
X116465055Y-146135608D01*
X116454502Y-146100820D01*
X116395537Y-145990506D01*
X116316185Y-145893815D01*
X116219494Y-145814463D01*
X116109180Y-145755498D01*
X115989482Y-145719188D01*
X115865000Y-145706928D01*
X115300750Y-145710000D01*
X115142000Y-145868750D01*
X115142000Y-147193000D01*
X115162000Y-147193000D01*
X115162000Y-147447000D01*
X115142000Y-147447000D01*
X115142000Y-148771250D01*
X115300750Y-148930000D01*
X115865000Y-148933072D01*
X115989482Y-148920812D01*
X116109180Y-148884502D01*
X116219494Y-148825537D01*
X116316185Y-148746185D01*
X116395537Y-148649494D01*
X116454502Y-148539180D01*
X116465055Y-148504392D01*
X116685987Y-148685706D01*
X116943967Y-148823599D01*
X117223890Y-148908513D01*
X117515000Y-148937185D01*
X117806111Y-148908513D01*
X118086034Y-148823599D01*
X118344014Y-148685706D01*
X118399891Y-148639849D01*
X120147858Y-150387816D01*
X120172436Y-150417764D01*
X120202384Y-150442342D01*
X120202387Y-150442345D01*
X120202637Y-150442550D01*
X120291967Y-150515862D01*
X120410054Y-150578980D01*
X120428340Y-150588754D01*
X120576313Y-150633642D01*
X120651226Y-150641020D01*
X120691639Y-150645000D01*
X120691644Y-150645000D01*
X120730200Y-150648797D01*
X120768756Y-150645000D01*
X123939364Y-150645000D01*
X124009880Y-150750535D01*
X124204465Y-150945120D01*
X124433273Y-151098005D01*
X124450160Y-151105000D01*
X107347277Y-151105000D01*
X107073795Y-151078185D01*
X106841774Y-151008133D01*
X106627778Y-150894350D01*
X106439961Y-150741169D01*
X106285471Y-150554424D01*
X106170198Y-150341231D01*
X106098528Y-150109701D01*
X106070000Y-149838276D01*
X106070000Y-148355098D01*
X106200000Y-148355098D01*
X106200000Y-148824902D01*
X106291654Y-149285679D01*
X106471440Y-149719721D01*
X106732450Y-150110349D01*
X107064651Y-150442550D01*
X107455279Y-150703560D01*
X107889321Y-150883346D01*
X108350098Y-150975000D01*
X108819902Y-150975000D01*
X109280679Y-150883346D01*
X109714721Y-150703560D01*
X110105349Y-150442550D01*
X110437550Y-150110349D01*
X110698560Y-149719721D01*
X110878346Y-149285679D01*
X110970000Y-148824902D01*
X110970000Y-148355098D01*
X110958046Y-148295000D01*
X113526928Y-148295000D01*
X113539188Y-148419482D01*
X113575498Y-148539180D01*
X113634463Y-148649494D01*
X113713815Y-148746185D01*
X113810506Y-148825537D01*
X113920820Y-148884502D01*
X114040518Y-148920812D01*
X114165000Y-148933072D01*
X114729250Y-148930000D01*
X114888000Y-148771250D01*
X114888000Y-147447000D01*
X113688750Y-147447000D01*
X113530000Y-147605750D01*
X113526928Y-148295000D01*
X110958046Y-148295000D01*
X110878346Y-147894321D01*
X110698560Y-147460279D01*
X110437550Y-147069651D01*
X110105349Y-146737450D01*
X109714721Y-146476440D01*
X109397397Y-146345000D01*
X113526928Y-146345000D01*
X113530000Y-147034250D01*
X113688750Y-147193000D01*
X114888000Y-147193000D01*
X114888000Y-145868750D01*
X114729250Y-145710000D01*
X114165000Y-145706928D01*
X114040518Y-145719188D01*
X113920820Y-145755498D01*
X113810506Y-145814463D01*
X113713815Y-145893815D01*
X113634463Y-145990506D01*
X113575498Y-146100820D01*
X113539188Y-146220518D01*
X113526928Y-146345000D01*
X109397397Y-146345000D01*
X109280679Y-146296654D01*
X108819902Y-146205000D01*
X108350098Y-146205000D01*
X107889321Y-146296654D01*
X107455279Y-146476440D01*
X107064651Y-146737450D01*
X106732450Y-147069651D01*
X106471440Y-147460279D01*
X106291654Y-147894321D01*
X106200000Y-148355098D01*
X106070000Y-148355098D01*
X106070000Y-137230512D01*
X109589783Y-137230512D01*
X109631213Y-137510130D01*
X109726397Y-137776292D01*
X109793329Y-137901514D01*
X110037298Y-137973097D01*
X110850395Y-137160000D01*
X110037298Y-136346903D01*
X109793329Y-136418486D01*
X109672429Y-136673996D01*
X109603700Y-136948184D01*
X109589783Y-137230512D01*
X106070000Y-137230512D01*
X106070000Y-136167298D01*
X110216903Y-136167298D01*
X111030000Y-136980395D01*
X111044143Y-136966253D01*
X111223748Y-137145858D01*
X111209605Y-137160000D01*
X111223748Y-137174143D01*
X111044143Y-137353748D01*
X111030000Y-137339605D01*
X110216903Y-138152702D01*
X110288486Y-138396671D01*
X110543996Y-138517571D01*
X110818184Y-138586300D01*
X111100512Y-138600217D01*
X111380130Y-138558787D01*
X111646292Y-138463603D01*
X111768309Y-138398384D01*
X111778815Y-138411185D01*
X111875506Y-138490537D01*
X111985820Y-138549502D01*
X112105518Y-138585812D01*
X112230000Y-138598072D01*
X113830000Y-138598072D01*
X113954482Y-138585812D01*
X114074180Y-138549502D01*
X114184494Y-138490537D01*
X114281185Y-138411185D01*
X114360537Y-138314494D01*
X114419502Y-138204180D01*
X114431387Y-138165000D01*
X115936928Y-138165000D01*
X115936928Y-139965000D01*
X115949188Y-140089482D01*
X115985498Y-140209180D01*
X116044463Y-140319494D01*
X116123815Y-140416185D01*
X116220506Y-140495537D01*
X116330820Y-140554502D01*
X116450518Y-140590812D01*
X116575000Y-140603072D01*
X118375000Y-140603072D01*
X118499482Y-140590812D01*
X118619180Y-140554502D01*
X118729494Y-140495537D01*
X118826185Y-140416185D01*
X118905537Y-140319494D01*
X118964502Y-140209180D01*
X118970056Y-140190873D01*
X119036495Y-140257312D01*
X119287905Y-140425299D01*
X119567257Y-140541011D01*
X119863816Y-140600000D01*
X120166184Y-140600000D01*
X120462743Y-140541011D01*
X120742095Y-140425299D01*
X120993505Y-140257312D01*
X121207312Y-140043505D01*
X121375299Y-139792095D01*
X121491011Y-139512743D01*
X121520916Y-139362400D01*
X123737784Y-139362400D01*
X123698000Y-139562408D01*
X123698000Y-139837592D01*
X123751686Y-140107490D01*
X123856995Y-140361727D01*
X124009880Y-140590535D01*
X124204465Y-140785120D01*
X124433273Y-140938005D01*
X124510515Y-140970000D01*
X124433273Y-141001995D01*
X124204465Y-141154880D01*
X124009880Y-141349465D01*
X123856995Y-141578273D01*
X123751686Y-141832510D01*
X123698000Y-142102408D01*
X123698000Y-142377592D01*
X123751686Y-142647490D01*
X123856995Y-142901727D01*
X124009880Y-143130535D01*
X124204465Y-143325120D01*
X124433273Y-143478005D01*
X124510515Y-143510000D01*
X124433273Y-143541995D01*
X124204465Y-143694880D01*
X124009880Y-143889465D01*
X123856995Y-144118273D01*
X123751686Y-144372510D01*
X123698000Y-144642408D01*
X123698000Y-144917592D01*
X123751686Y-145187490D01*
X123856995Y-145441727D01*
X124009880Y-145670535D01*
X124204465Y-145865120D01*
X124433273Y-146018005D01*
X124504943Y-146047692D01*
X124491977Y-146052364D01*
X124376020Y-146114344D01*
X124309040Y-146354435D01*
X125095000Y-147140395D01*
X125880960Y-146354435D01*
X125813980Y-146114344D01*
X125678240Y-146050515D01*
X125756727Y-146018005D01*
X125985535Y-145865120D01*
X126180120Y-145670535D01*
X126333005Y-145441727D01*
X126438314Y-145187490D01*
X126492000Y-144917592D01*
X126492000Y-144642408D01*
X126438314Y-144372510D01*
X126333005Y-144118273D01*
X126180120Y-143889465D01*
X125985535Y-143694880D01*
X125756727Y-143541995D01*
X125679485Y-143510000D01*
X125756727Y-143478005D01*
X125985535Y-143325120D01*
X126180120Y-143130535D01*
X126333005Y-142901727D01*
X126438314Y-142647490D01*
X126492000Y-142377592D01*
X126492000Y-142102408D01*
X126438314Y-141832510D01*
X126333005Y-141578273D01*
X126180120Y-141349465D01*
X125985535Y-141154880D01*
X125756727Y-141001995D01*
X125679485Y-140970000D01*
X125756727Y-140938005D01*
X125985535Y-140785120D01*
X126180120Y-140590535D01*
X126333005Y-140361727D01*
X126438314Y-140107490D01*
X126492000Y-139837592D01*
X126492000Y-139735700D01*
X127598203Y-139735700D01*
X127572818Y-139783192D01*
X127490764Y-140053691D01*
X127463057Y-140335000D01*
X127490764Y-140616309D01*
X127572818Y-140886808D01*
X127706068Y-141136101D01*
X127885392Y-141354608D01*
X128103899Y-141533932D01*
X128236858Y-141605000D01*
X128103899Y-141676068D01*
X127885392Y-141855392D01*
X127706068Y-142073899D01*
X127572818Y-142323192D01*
X127490764Y-142593691D01*
X127463057Y-142875000D01*
X127490764Y-143156309D01*
X127572818Y-143426808D01*
X127706068Y-143676101D01*
X127885392Y-143894608D01*
X128103899Y-144073932D01*
X128353192Y-144207182D01*
X128623691Y-144289236D01*
X128834508Y-144310000D01*
X128975492Y-144310000D01*
X129186309Y-144289236D01*
X129456808Y-144207182D01*
X129706101Y-144073932D01*
X129924608Y-143894608D01*
X130103932Y-143676101D01*
X130237182Y-143426808D01*
X130319236Y-143156309D01*
X130346943Y-142875000D01*
X130319236Y-142593691D01*
X130237182Y-142323192D01*
X130103932Y-142073899D01*
X129924608Y-141855392D01*
X129706101Y-141676068D01*
X129573142Y-141605000D01*
X129706101Y-141533932D01*
X129924608Y-141354608D01*
X129942703Y-141332560D01*
X130623253Y-142013110D01*
X130647836Y-142043064D01*
X130767367Y-142141162D01*
X130903740Y-142214054D01*
X131051713Y-142258942D01*
X131126626Y-142266320D01*
X131167039Y-142270300D01*
X131167044Y-142270300D01*
X131205600Y-142274097D01*
X131244156Y-142270300D01*
X135086928Y-142270300D01*
X135086928Y-143675000D01*
X135099188Y-143799482D01*
X135135498Y-143919180D01*
X135194463Y-144029494D01*
X135273815Y-144126185D01*
X135370506Y-144205537D01*
X135480820Y-144264502D01*
X135600518Y-144300812D01*
X135725000Y-144313072D01*
X137325000Y-144313072D01*
X137449482Y-144300812D01*
X137569180Y-144264502D01*
X137679494Y-144205537D01*
X137776185Y-144126185D01*
X137855537Y-144029494D01*
X137914502Y-143919180D01*
X137950812Y-143799482D01*
X137963072Y-143675000D01*
X137963072Y-143298229D01*
X138590953Y-143926110D01*
X138615536Y-143956064D01*
X138735067Y-144054162D01*
X138835351Y-144107764D01*
X138871440Y-144127054D01*
X139019413Y-144171942D01*
X139072595Y-144177179D01*
X138991686Y-144372510D01*
X138938000Y-144642408D01*
X138938000Y-144917592D01*
X138991686Y-145187490D01*
X139096995Y-145441727D01*
X139249880Y-145670535D01*
X139444465Y-145865120D01*
X139673273Y-146018005D01*
X139750515Y-146050000D01*
X139673273Y-146081995D01*
X139444465Y-146234880D01*
X139249880Y-146429465D01*
X139096995Y-146658273D01*
X138991686Y-146912510D01*
X138938000Y-147182408D01*
X138938000Y-147457592D01*
X138991686Y-147727490D01*
X139096995Y-147981727D01*
X139249880Y-148210535D01*
X139444465Y-148405120D01*
X139673273Y-148558005D01*
X139744943Y-148587692D01*
X139731977Y-148592364D01*
X139616020Y-148654344D01*
X139549040Y-148894435D01*
X140335000Y-149680395D01*
X141120960Y-148894435D01*
X141053980Y-148654344D01*
X140918240Y-148590515D01*
X140996727Y-148558005D01*
X141225535Y-148405120D01*
X141420120Y-148210535D01*
X141573005Y-147981727D01*
X141678314Y-147727490D01*
X141732000Y-147457592D01*
X141732000Y-147182408D01*
X141678314Y-146912510D01*
X141573005Y-146658273D01*
X141420120Y-146429465D01*
X141225535Y-146234880D01*
X140996727Y-146081995D01*
X140919485Y-146050000D01*
X140996727Y-146018005D01*
X141225535Y-145865120D01*
X141420120Y-145670535D01*
X141573005Y-145441727D01*
X141678314Y-145187490D01*
X141732000Y-144917592D01*
X141732000Y-144642408D01*
X141678314Y-144372510D01*
X141599940Y-144183300D01*
X149035001Y-144183300D01*
X149035000Y-145270768D01*
X148990986Y-145294294D01*
X148764866Y-145479866D01*
X148712777Y-145543337D01*
X148658405Y-145441614D01*
X148547962Y-145307038D01*
X148413386Y-145196595D01*
X148259850Y-145114528D01*
X148093254Y-145063992D01*
X147920000Y-145046928D01*
X146720000Y-145046928D01*
X146546746Y-145063992D01*
X146380150Y-145114528D01*
X146226614Y-145196595D01*
X146092038Y-145307038D01*
X145981595Y-145441614D01*
X145899528Y-145595150D01*
X145848992Y-145761746D01*
X145831928Y-145935000D01*
X145831928Y-147435000D01*
X145848992Y-147608254D01*
X145899528Y-147774850D01*
X145981595Y-147928386D01*
X146092038Y-148062962D01*
X146226614Y-148173405D01*
X146380150Y-148255472D01*
X146546746Y-148306008D01*
X146720000Y-148323072D01*
X147847915Y-148323072D01*
X148130453Y-148605610D01*
X148155036Y-148635564D01*
X148274567Y-148733662D01*
X148410940Y-148806554D01*
X148558913Y-148851442D01*
X148633826Y-148858820D01*
X148674239Y-148862800D01*
X148674244Y-148862800D01*
X148712800Y-148866597D01*
X148751356Y-148862800D01*
X155413647Y-148862800D01*
X155452200Y-148866597D01*
X155490753Y-148862800D01*
X155490761Y-148862800D01*
X155606087Y-148851441D01*
X155754060Y-148806554D01*
X155890433Y-148733662D01*
X156009964Y-148635564D01*
X156034547Y-148605610D01*
X156285059Y-148355098D01*
X169065000Y-148355098D01*
X169065000Y-148824902D01*
X169156654Y-149285679D01*
X169336440Y-149719721D01*
X169597450Y-150110349D01*
X169929651Y-150442550D01*
X170320279Y-150703560D01*
X170754321Y-150883346D01*
X171215098Y-150975000D01*
X171684902Y-150975000D01*
X172145679Y-150883346D01*
X172579721Y-150703560D01*
X172970349Y-150442550D01*
X173302550Y-150110349D01*
X173563560Y-149719721D01*
X173743346Y-149285679D01*
X173835000Y-148824902D01*
X173835000Y-148355098D01*
X173743346Y-147894321D01*
X173563560Y-147460279D01*
X173302550Y-147069651D01*
X172970349Y-146737450D01*
X172579721Y-146476440D01*
X172145679Y-146296654D01*
X171684902Y-146205000D01*
X171215098Y-146205000D01*
X170754321Y-146296654D01*
X170320279Y-146476440D01*
X169929651Y-146737450D01*
X169597450Y-147069651D01*
X169336440Y-147460279D01*
X169156654Y-147894321D01*
X169065000Y-148355098D01*
X156285059Y-148355098D01*
X156317085Y-148323072D01*
X157445000Y-148323072D01*
X157618254Y-148306008D01*
X157784850Y-148255472D01*
X157938386Y-148173405D01*
X158072962Y-148062962D01*
X158183405Y-147928386D01*
X158237777Y-147826663D01*
X158289866Y-147890134D01*
X158515987Y-148075706D01*
X158773967Y-148213599D01*
X159053890Y-148298513D01*
X159345000Y-148327185D01*
X159636111Y-148298513D01*
X159916034Y-148213599D01*
X160174014Y-148075706D01*
X160400134Y-147890134D01*
X160585706Y-147664014D01*
X160723599Y-147406033D01*
X160808513Y-147126110D01*
X160830000Y-146907949D01*
X160830000Y-146462050D01*
X160808513Y-146243889D01*
X160723599Y-145963966D01*
X160585706Y-145705986D01*
X160400134Y-145479866D01*
X160174013Y-145294294D01*
X160130000Y-145270769D01*
X160130000Y-144223556D01*
X160133797Y-144185000D01*
X160130000Y-144146444D01*
X160130000Y-144146439D01*
X160126020Y-144106026D01*
X160118642Y-144031113D01*
X160073754Y-143883140D01*
X160048842Y-143836533D01*
X160000862Y-143746767D01*
X159902764Y-143627236D01*
X159872810Y-143602653D01*
X159140645Y-142870488D01*
X159116064Y-142840536D01*
X158996533Y-142742438D01*
X158860160Y-142669546D01*
X158712187Y-142624659D01*
X158596861Y-142613300D01*
X158596853Y-142613300D01*
X158558300Y-142609503D01*
X158519747Y-142613300D01*
X150010252Y-142613300D01*
X149971699Y-142609503D01*
X149933146Y-142613300D01*
X144565357Y-142613300D01*
X149147517Y-138031141D01*
X149170959Y-138011903D01*
X149248967Y-138053599D01*
X149528890Y-138138513D01*
X149820000Y-138167185D01*
X150111111Y-138138513D01*
X150391034Y-138053599D01*
X150649014Y-137915706D01*
X150875134Y-137730134D01*
X151060706Y-137504014D01*
X151198599Y-137246033D01*
X151283513Y-136966110D01*
X151305000Y-136747949D01*
X151305000Y-136302050D01*
X151283513Y-136083889D01*
X151198599Y-135803966D01*
X151060706Y-135545986D01*
X150875134Y-135319866D01*
X150649013Y-135134294D01*
X150391033Y-134996401D01*
X150111110Y-134911487D01*
X149820000Y-134882815D01*
X149528889Y-134911487D01*
X149248966Y-134996401D01*
X148990986Y-135134294D01*
X148770055Y-135315608D01*
X148759502Y-135280820D01*
X148700537Y-135170506D01*
X148621185Y-135073815D01*
X148524494Y-134994463D01*
X148414180Y-134935498D01*
X148294482Y-134899188D01*
X148170000Y-134886928D01*
X147605750Y-134890000D01*
X147447000Y-135048750D01*
X147447000Y-136398000D01*
X147467000Y-136398000D01*
X147467000Y-136652000D01*
X147447000Y-136652000D01*
X147447000Y-136672000D01*
X147193000Y-136672000D01*
X147193000Y-136652000D01*
X145993750Y-136652000D01*
X145835000Y-136810750D01*
X145831928Y-137525000D01*
X145844188Y-137649482D01*
X145880498Y-137769180D01*
X145939463Y-137879494D01*
X146018815Y-137976185D01*
X146115506Y-138055537D01*
X146225820Y-138114502D01*
X146345518Y-138150812D01*
X146470000Y-138163072D01*
X146797051Y-138161291D01*
X143503343Y-141455000D01*
X141490636Y-141455000D01*
X141420120Y-141349465D01*
X141225535Y-141154880D01*
X140996727Y-141001995D01*
X140919485Y-140970000D01*
X140996727Y-140938005D01*
X141225535Y-140785120D01*
X141420120Y-140590535D01*
X141573005Y-140361727D01*
X141678314Y-140107490D01*
X141732000Y-139837592D01*
X141732000Y-139562408D01*
X141678314Y-139292510D01*
X141573005Y-139038273D01*
X141420120Y-138809465D01*
X141225535Y-138614880D01*
X140996727Y-138461995D01*
X140919485Y-138430000D01*
X140996727Y-138398005D01*
X141225535Y-138245120D01*
X141420120Y-138050535D01*
X141573005Y-137821727D01*
X141678314Y-137567490D01*
X141732000Y-137297592D01*
X141732000Y-137022408D01*
X141678314Y-136752510D01*
X141573005Y-136498273D01*
X141420120Y-136269465D01*
X141225535Y-136074880D01*
X140996727Y-135921995D01*
X140919485Y-135890000D01*
X140996727Y-135858005D01*
X141225535Y-135705120D01*
X141405655Y-135525000D01*
X145831928Y-135525000D01*
X145835000Y-136239250D01*
X145993750Y-136398000D01*
X147193000Y-136398000D01*
X147193000Y-135048750D01*
X147034250Y-134890000D01*
X146470000Y-134886928D01*
X146345518Y-134899188D01*
X146225820Y-134935498D01*
X146115506Y-134994463D01*
X146018815Y-135073815D01*
X145939463Y-135170506D01*
X145880498Y-135280820D01*
X145844188Y-135400518D01*
X145831928Y-135525000D01*
X141405655Y-135525000D01*
X141420120Y-135510535D01*
X141490636Y-135405000D01*
X142519947Y-135405000D01*
X142558500Y-135408797D01*
X142597053Y-135405000D01*
X142597061Y-135405000D01*
X142712387Y-135393641D01*
X142860360Y-135348754D01*
X142996733Y-135275862D01*
X143116264Y-135177764D01*
X143140847Y-135147810D01*
X145899407Y-132389250D01*
X147757197Y-132389250D01*
X147795750Y-132393047D01*
X147834303Y-132389250D01*
X147834311Y-132389250D01*
X147949637Y-132377891D01*
X148097610Y-132333004D01*
X148233983Y-132260112D01*
X148353514Y-132162014D01*
X148378097Y-132132060D01*
X150387816Y-130122342D01*
X150417764Y-130097764D01*
X150515862Y-129978233D01*
X150528700Y-129954214D01*
X150528700Y-130079047D01*
X150524903Y-130117600D01*
X150528700Y-130156153D01*
X150528700Y-130156160D01*
X150540059Y-130271486D01*
X150584946Y-130419459D01*
X150657838Y-130555832D01*
X150755936Y-130675364D01*
X150785890Y-130699947D01*
X156940553Y-136854610D01*
X156965136Y-136884564D01*
X157084667Y-136982662D01*
X157221040Y-137055554D01*
X157369013Y-137100442D01*
X157443926Y-137107820D01*
X157484339Y-137111800D01*
X157484344Y-137111800D01*
X157522900Y-137115597D01*
X157561456Y-137111800D01*
X171609647Y-137111800D01*
X171648200Y-137115597D01*
X171686753Y-137111800D01*
X171686761Y-137111800D01*
X171802087Y-137100441D01*
X171950060Y-137055554D01*
X172086433Y-136982662D01*
X172205964Y-136884564D01*
X172230547Y-136854610D01*
X173247815Y-135837343D01*
X173277764Y-135812764D01*
X173302346Y-135782812D01*
X173326450Y-135753441D01*
X173375862Y-135693233D01*
X173448754Y-135556860D01*
X173459317Y-135522040D01*
X173493641Y-135408888D01*
X173495928Y-135385667D01*
X173505000Y-135293561D01*
X173505000Y-135293554D01*
X173508797Y-135255001D01*
X173505000Y-135216448D01*
X173505000Y-121323556D01*
X173508797Y-121285000D01*
X173505000Y-121246440D01*
X173505000Y-121246439D01*
X173498241Y-121177812D01*
X173493642Y-121131113D01*
X173448754Y-120983140D01*
X173375862Y-120846767D01*
X173277764Y-120727236D01*
X173247811Y-120702654D01*
X172667347Y-120122190D01*
X172642764Y-120092236D01*
X172523233Y-119994138D01*
X172386860Y-119921246D01*
X172238887Y-119876359D01*
X172123561Y-119865000D01*
X172123553Y-119865000D01*
X172085000Y-119861203D01*
X172046447Y-119865000D01*
X169054955Y-119865000D01*
X169016400Y-119861203D01*
X168977844Y-119865000D01*
X168977839Y-119865000D01*
X168937426Y-119868980D01*
X168862513Y-119876358D01*
X168714540Y-119921246D01*
X168578167Y-119994138D01*
X168517959Y-120043550D01*
X168488587Y-120067655D01*
X168488584Y-120067658D01*
X168458636Y-120092236D01*
X168434057Y-120122185D01*
X167747185Y-120809058D01*
X167717237Y-120833636D01*
X167692659Y-120863584D01*
X167692655Y-120863588D01*
X167659690Y-120903756D01*
X167619139Y-120953167D01*
X167603118Y-120983141D01*
X167565602Y-121053328D01*
X167411400Y-121053328D01*
X167286918Y-121065588D01*
X167167220Y-121101898D01*
X167056906Y-121160863D01*
X166960215Y-121240215D01*
X166880863Y-121336906D01*
X166821898Y-121447220D01*
X166785588Y-121566918D01*
X166773328Y-121691400D01*
X166773328Y-123418600D01*
X166785588Y-123543082D01*
X166821898Y-123662780D01*
X166880863Y-123773094D01*
X166960215Y-123869785D01*
X167056906Y-123949137D01*
X167167220Y-124008102D01*
X167231574Y-124027624D01*
X167168146Y-124084707D01*
X166992316Y-124320056D01*
X166865778Y-124585186D01*
X166820042Y-124735974D01*
X166941183Y-124968000D01*
X168148000Y-124968000D01*
X168148000Y-124948000D01*
X168402000Y-124948000D01*
X168402000Y-124968000D01*
X168422000Y-124968000D01*
X168422000Y-125222000D01*
X168402000Y-125222000D01*
X168402000Y-125242000D01*
X168148000Y-125242000D01*
X168148000Y-125222000D01*
X166941183Y-125222000D01*
X166820042Y-125454026D01*
X166865778Y-125604814D01*
X166992316Y-125869944D01*
X167168146Y-126105293D01*
X167386512Y-126301817D01*
X167482910Y-126359137D01*
X167438394Y-126382931D01*
X167210203Y-126570203D01*
X167022931Y-126798394D01*
X166883775Y-127058736D01*
X166798084Y-127341223D01*
X166769149Y-127635000D01*
X166798084Y-127928777D01*
X166883775Y-128211264D01*
X167022931Y-128471606D01*
X167210203Y-128699797D01*
X167438394Y-128887069D01*
X167471940Y-128905000D01*
X167438394Y-128922931D01*
X167210203Y-129110203D01*
X167022931Y-129338394D01*
X166993836Y-129392827D01*
X166982126Y-129393980D01*
X166907213Y-129401358D01*
X166759240Y-129446246D01*
X166622867Y-129519138D01*
X166503336Y-129617236D01*
X166478753Y-129647190D01*
X163541543Y-132584400D01*
X160304904Y-132584400D01*
X160339554Y-132489261D01*
X160341476Y-132476890D01*
X160220155Y-132247000D01*
X158877000Y-132247000D01*
X158877000Y-132267000D01*
X158623000Y-132267000D01*
X158623000Y-132247000D01*
X158603000Y-132247000D01*
X158603000Y-131993000D01*
X158623000Y-131993000D01*
X158623000Y-130792768D01*
X158877000Y-130792768D01*
X158877000Y-131993000D01*
X160220155Y-131993000D01*
X160341476Y-131763110D01*
X160339554Y-131750739D01*
X160239854Y-131476991D01*
X160088664Y-131227954D01*
X159891795Y-131013198D01*
X159656812Y-130840975D01*
X159392745Y-130717904D01*
X159109742Y-130648715D01*
X158877000Y-130792768D01*
X158623000Y-130792768D01*
X158390258Y-130648715D01*
X158107255Y-130717904D01*
X157843188Y-130840975D01*
X157608205Y-131013198D01*
X157411336Y-131227954D01*
X157301398Y-131409041D01*
X153991700Y-128099343D01*
X153991700Y-127755752D01*
X153995497Y-127717199D01*
X153991700Y-127678646D01*
X153991700Y-127678639D01*
X153980341Y-127563313D01*
X153979947Y-127562012D01*
X153948014Y-127456746D01*
X153935454Y-127415340D01*
X153862562Y-127278967D01*
X153800836Y-127203755D01*
X153789045Y-127189387D01*
X153789042Y-127189384D01*
X153764464Y-127159436D01*
X153734516Y-127134858D01*
X149189658Y-122590000D01*
X157111928Y-122590000D01*
X157111928Y-123790000D01*
X157128992Y-123963254D01*
X157179528Y-124129850D01*
X157261595Y-124283386D01*
X157372038Y-124417962D01*
X157506614Y-124528405D01*
X157660150Y-124610472D01*
X157826746Y-124661008D01*
X158000000Y-124678072D01*
X159500000Y-124678072D01*
X159673254Y-124661008D01*
X159839850Y-124610472D01*
X159993386Y-124528405D01*
X160127962Y-124417962D01*
X160238405Y-124283386D01*
X160320472Y-124129850D01*
X160371008Y-123963254D01*
X160388072Y-123790000D01*
X160388072Y-122590000D01*
X160371008Y-122416746D01*
X160320472Y-122250150D01*
X160238405Y-122096614D01*
X160127962Y-121962038D01*
X159993386Y-121851595D01*
X159891407Y-121797086D01*
X159891795Y-121796802D01*
X160088664Y-121582046D01*
X160239854Y-121333009D01*
X160339554Y-121059261D01*
X160341476Y-121046890D01*
X160220155Y-120817000D01*
X158877000Y-120817000D01*
X158877000Y-120837000D01*
X158623000Y-120837000D01*
X158623000Y-120817000D01*
X157279845Y-120817000D01*
X157158524Y-121046890D01*
X157160446Y-121059261D01*
X157260146Y-121333009D01*
X157411336Y-121582046D01*
X157608205Y-121796802D01*
X157608593Y-121797086D01*
X157506614Y-121851595D01*
X157372038Y-121962038D01*
X157261595Y-122096614D01*
X157179528Y-122250150D01*
X157128992Y-122416746D01*
X157111928Y-122590000D01*
X149189658Y-122590000D01*
X146979953Y-120380296D01*
X147034250Y-120380000D01*
X147193000Y-120221250D01*
X147193000Y-118872000D01*
X147173000Y-118872000D01*
X147173000Y-118618000D01*
X147193000Y-118618000D01*
X147193000Y-118598000D01*
X147447000Y-118598000D01*
X147447000Y-118618000D01*
X147467000Y-118618000D01*
X147467000Y-118872000D01*
X147447000Y-118872000D01*
X147447000Y-120221250D01*
X147605750Y-120380000D01*
X148170000Y-120383072D01*
X148294482Y-120370812D01*
X148414180Y-120334502D01*
X148524494Y-120275537D01*
X148621185Y-120196185D01*
X148700537Y-120099494D01*
X148759502Y-119989180D01*
X148770055Y-119954392D01*
X148990987Y-120135706D01*
X149248967Y-120273599D01*
X149528890Y-120358513D01*
X149820000Y-120387185D01*
X150111111Y-120358513D01*
X150194853Y-120333110D01*
X157158524Y-120333110D01*
X157279845Y-120563000D01*
X158623000Y-120563000D01*
X158623000Y-119362768D01*
X158877000Y-119362768D01*
X158877000Y-120563000D01*
X160220155Y-120563000D01*
X160341476Y-120333110D01*
X160339554Y-120320739D01*
X160239854Y-120046991D01*
X160088664Y-119797954D01*
X159891795Y-119583198D01*
X159656812Y-119410975D01*
X159392745Y-119287904D01*
X159109742Y-119218715D01*
X158877000Y-119362768D01*
X158623000Y-119362768D01*
X158390258Y-119218715D01*
X158107255Y-119287904D01*
X157843188Y-119410975D01*
X157608205Y-119583198D01*
X157411336Y-119797954D01*
X157260146Y-120046991D01*
X157160446Y-120320739D01*
X157158524Y-120333110D01*
X150194853Y-120333110D01*
X150391034Y-120273599D01*
X150649014Y-120135706D01*
X150875134Y-119950134D01*
X151060706Y-119724014D01*
X151198599Y-119466033D01*
X151283513Y-119186110D01*
X151305000Y-118967949D01*
X151305000Y-118522050D01*
X151283513Y-118303889D01*
X151198599Y-118023966D01*
X151060706Y-117765986D01*
X150875134Y-117539866D01*
X150649013Y-117354294D01*
X150391033Y-117216401D01*
X150111110Y-117131487D01*
X149980622Y-117118635D01*
X156634493Y-110464764D01*
X156643394Y-110472069D01*
X156903736Y-110611225D01*
X157186223Y-110696916D01*
X157406381Y-110718600D01*
X157553619Y-110718600D01*
X157773777Y-110696916D01*
X158056264Y-110611225D01*
X158316606Y-110472069D01*
X158544797Y-110284797D01*
X158732069Y-110056606D01*
X158750000Y-110023060D01*
X158767931Y-110056606D01*
X158955203Y-110284797D01*
X159183394Y-110472069D01*
X159443736Y-110611225D01*
X159726223Y-110696916D01*
X159946381Y-110718600D01*
X160093619Y-110718600D01*
X160313777Y-110696916D01*
X160596264Y-110611225D01*
X160856606Y-110472069D01*
X161084797Y-110284797D01*
X161272069Y-110056606D01*
X161411225Y-109796264D01*
X161496916Y-109513777D01*
X161525851Y-109220000D01*
X161496916Y-108926223D01*
X161411225Y-108643736D01*
X161272069Y-108383394D01*
X161084797Y-108155203D01*
X160856606Y-107967931D01*
X160823060Y-107950000D01*
X160856606Y-107932069D01*
X161084797Y-107744797D01*
X161272069Y-107516606D01*
X161411225Y-107256264D01*
X161496916Y-106973777D01*
X161525851Y-106680000D01*
X161496916Y-106386223D01*
X161411225Y-106103736D01*
X161272069Y-105843394D01*
X161244744Y-105810098D01*
X169065000Y-105810098D01*
X169065000Y-106279902D01*
X169156654Y-106740679D01*
X169336440Y-107174721D01*
X169597450Y-107565349D01*
X169929651Y-107897550D01*
X170320279Y-108158560D01*
X170754321Y-108338346D01*
X171215098Y-108430000D01*
X171684902Y-108430000D01*
X172145679Y-108338346D01*
X172579721Y-108158560D01*
X172970349Y-107897550D01*
X173302550Y-107565349D01*
X173563560Y-107174721D01*
X173743346Y-106740679D01*
X173835000Y-106279902D01*
X173835000Y-105810098D01*
X173743346Y-105349321D01*
X173563560Y-104915279D01*
X173302550Y-104524651D01*
X172970349Y-104192450D01*
X172579721Y-103931440D01*
X172145679Y-103751654D01*
X171684902Y-103660000D01*
X171215098Y-103660000D01*
X170754321Y-103751654D01*
X170320279Y-103931440D01*
X169929651Y-104192450D01*
X169597450Y-104524651D01*
X169336440Y-104915279D01*
X169156654Y-105349321D01*
X169065000Y-105810098D01*
X161244744Y-105810098D01*
X161084797Y-105615203D01*
X160856606Y-105427931D01*
X160596264Y-105288775D01*
X160313777Y-105203084D01*
X160093619Y-105181400D01*
X159946381Y-105181400D01*
X159726223Y-105203084D01*
X159443736Y-105288775D01*
X159183394Y-105427931D01*
X158955203Y-105615203D01*
X158767931Y-105843394D01*
X158750000Y-105876940D01*
X158732069Y-105843394D01*
X158544797Y-105615203D01*
X158316606Y-105427931D01*
X158056264Y-105288775D01*
X157773777Y-105203084D01*
X157553619Y-105181400D01*
X157406381Y-105181400D01*
X157186223Y-105203084D01*
X156903736Y-105288775D01*
X156643394Y-105427931D01*
X156415203Y-105615203D01*
X156227931Y-105843394D01*
X156210000Y-105876940D01*
X156192069Y-105843394D01*
X156004797Y-105615203D01*
X155776606Y-105427931D01*
X155516264Y-105288775D01*
X155233777Y-105203084D01*
X155013619Y-105181400D01*
X154866381Y-105181400D01*
X154646223Y-105203084D01*
X154363736Y-105288775D01*
X154103394Y-105427931D01*
X154094493Y-105435236D01*
X153586947Y-104927689D01*
X153562364Y-104897736D01*
X153442833Y-104799638D01*
X153306460Y-104726746D01*
X153158487Y-104681859D01*
X153043161Y-104670500D01*
X153043153Y-104670500D01*
X153004600Y-104666703D01*
X152966047Y-104670500D01*
X148453352Y-104670500D01*
X148414799Y-104666703D01*
X148376246Y-104670500D01*
X148376239Y-104670500D01*
X148260913Y-104681859D01*
X148112940Y-104726746D01*
X147976567Y-104799638D01*
X147928063Y-104839445D01*
X147886987Y-104873155D01*
X147886984Y-104873158D01*
X147857036Y-104897736D01*
X147832458Y-104927684D01*
X143095043Y-109665100D01*
X141882365Y-109665100D01*
X141924554Y-109549261D01*
X141926476Y-109536890D01*
X141805155Y-109307000D01*
X140462000Y-109307000D01*
X140462000Y-109327000D01*
X140208000Y-109327000D01*
X140208000Y-109307000D01*
X138864845Y-109307000D01*
X138743524Y-109536890D01*
X138745446Y-109549261D01*
X138787635Y-109665100D01*
X131606013Y-109665100D01*
X131651916Y-109513777D01*
X131680851Y-109220000D01*
X131651916Y-108926223D01*
X131566225Y-108643736D01*
X131427069Y-108383394D01*
X131239797Y-108155203D01*
X131011606Y-107967931D01*
X130978060Y-107950000D01*
X131011606Y-107932069D01*
X131239797Y-107744797D01*
X131427069Y-107516606D01*
X131566225Y-107256264D01*
X131651916Y-106973777D01*
X131680851Y-106680000D01*
X131651916Y-106386223D01*
X131566225Y-106103736D01*
X131553538Y-106080000D01*
X138696928Y-106080000D01*
X138696928Y-107280000D01*
X138713992Y-107453254D01*
X138764528Y-107619850D01*
X138846595Y-107773386D01*
X138957038Y-107907962D01*
X139091614Y-108018405D01*
X139193593Y-108072914D01*
X139193205Y-108073198D01*
X138996336Y-108287954D01*
X138845146Y-108536991D01*
X138745446Y-108810739D01*
X138743524Y-108823110D01*
X138864845Y-109053000D01*
X140208000Y-109053000D01*
X140208000Y-109033000D01*
X140462000Y-109033000D01*
X140462000Y-109053000D01*
X141805155Y-109053000D01*
X141926476Y-108823110D01*
X141924554Y-108810739D01*
X141824854Y-108536991D01*
X141673664Y-108287954D01*
X141476795Y-108073198D01*
X141476407Y-108072914D01*
X141578386Y-108018405D01*
X141712962Y-107907962D01*
X141823405Y-107773386D01*
X141905472Y-107619850D01*
X141956008Y-107453254D01*
X141973072Y-107280000D01*
X141973072Y-106080000D01*
X141956008Y-105906746D01*
X141905472Y-105740150D01*
X141823405Y-105586614D01*
X141712962Y-105452038D01*
X141578386Y-105341595D01*
X141424850Y-105259528D01*
X141258254Y-105208992D01*
X141085000Y-105191928D01*
X139585000Y-105191928D01*
X139411746Y-105208992D01*
X139245150Y-105259528D01*
X139091614Y-105341595D01*
X138957038Y-105452038D01*
X138846595Y-105586614D01*
X138764528Y-105740150D01*
X138713992Y-105906746D01*
X138696928Y-106080000D01*
X131553538Y-106080000D01*
X131427069Y-105843394D01*
X131239797Y-105615203D01*
X131011606Y-105427931D01*
X130751264Y-105288775D01*
X130468777Y-105203084D01*
X130248619Y-105181400D01*
X130101381Y-105181400D01*
X129881223Y-105203084D01*
X129598736Y-105288775D01*
X129338394Y-105427931D01*
X129110203Y-105615203D01*
X128922931Y-105843394D01*
X128905000Y-105876940D01*
X128887069Y-105843394D01*
X128699797Y-105615203D01*
X128471606Y-105427931D01*
X128211264Y-105288775D01*
X127928777Y-105203084D01*
X127708619Y-105181400D01*
X127561381Y-105181400D01*
X127341223Y-105203084D01*
X127058736Y-105288775D01*
X126798394Y-105427931D01*
X126570203Y-105615203D01*
X126382931Y-105843394D01*
X126365000Y-105876940D01*
X126347069Y-105843394D01*
X126159797Y-105615203D01*
X125931606Y-105427931D01*
X125671264Y-105288775D01*
X125388777Y-105203084D01*
X125168619Y-105181400D01*
X125021381Y-105181400D01*
X124801223Y-105203084D01*
X124518736Y-105288775D01*
X124258394Y-105427931D01*
X124030203Y-105615203D01*
X123842931Y-105843394D01*
X123825000Y-105876940D01*
X123807069Y-105843394D01*
X123619797Y-105615203D01*
X123391606Y-105427931D01*
X123131264Y-105288775D01*
X122848777Y-105203084D01*
X122628619Y-105181400D01*
X122481381Y-105181400D01*
X122261223Y-105203084D01*
X121978736Y-105288775D01*
X121718394Y-105427931D01*
X121490203Y-105615203D01*
X121302931Y-105843394D01*
X121285000Y-105876940D01*
X121267069Y-105843394D01*
X121079797Y-105615203D01*
X120851606Y-105427931D01*
X120591264Y-105288775D01*
X120308777Y-105203084D01*
X120088619Y-105181400D01*
X119941381Y-105181400D01*
X119721223Y-105203084D01*
X119438736Y-105288775D01*
X119178394Y-105427931D01*
X118950203Y-105615203D01*
X118762931Y-105843394D01*
X118623775Y-106103736D01*
X118538084Y-106386223D01*
X118509149Y-106680000D01*
X118538084Y-106973777D01*
X118623775Y-107256264D01*
X118762931Y-107516606D01*
X118950203Y-107744797D01*
X118958265Y-107751414D01*
X118907220Y-107766898D01*
X118796906Y-107825863D01*
X118700215Y-107905215D01*
X118620863Y-108001906D01*
X118561898Y-108112220D01*
X118525588Y-108231918D01*
X118513328Y-108356400D01*
X118513328Y-110083600D01*
X118525588Y-110208082D01*
X118561898Y-110327780D01*
X118620863Y-110438094D01*
X118700215Y-110534785D01*
X118796906Y-110614137D01*
X118907220Y-110673102D01*
X119026918Y-110709412D01*
X119151400Y-110721672D01*
X119281973Y-110721672D01*
X119286246Y-110735759D01*
X119286247Y-110735760D01*
X119359139Y-110872133D01*
X119397640Y-110919046D01*
X119432655Y-110961712D01*
X119432659Y-110961716D01*
X119457237Y-110991664D01*
X119487185Y-111016242D01*
X120443901Y-111972958D01*
X120443900Y-116113142D01*
X120186816Y-116048700D01*
X119904488Y-116034783D01*
X119624870Y-116076213D01*
X119358708Y-116171397D01*
X119233486Y-116238329D01*
X119161903Y-116482298D01*
X119975000Y-117295395D01*
X119989143Y-117281253D01*
X120168748Y-117460858D01*
X120154605Y-117475000D01*
X120168748Y-117489143D01*
X119989143Y-117668748D01*
X119975000Y-117654605D01*
X119161903Y-118467702D01*
X119233486Y-118711671D01*
X119488996Y-118832571D01*
X119763184Y-118901300D01*
X120045512Y-118915217D01*
X120325130Y-118873787D01*
X120443900Y-118831313D01*
X120443900Y-119606047D01*
X120440103Y-119644600D01*
X120443900Y-119683153D01*
X120443900Y-119683160D01*
X120455259Y-119798486D01*
X120500146Y-119946459D01*
X120573038Y-120082832D01*
X120671136Y-120202364D01*
X120701090Y-120226947D01*
X124026744Y-123552601D01*
X124009880Y-123569465D01*
X123856995Y-123798273D01*
X123751686Y-124052510D01*
X123698000Y-124322408D01*
X123698000Y-124597592D01*
X123751686Y-124867490D01*
X123856995Y-125121727D01*
X124009880Y-125350535D01*
X124204465Y-125545120D01*
X124433273Y-125698005D01*
X124510515Y-125730000D01*
X124433273Y-125761995D01*
X124204465Y-125914880D01*
X124009880Y-126109465D01*
X123856995Y-126338273D01*
X123751686Y-126592510D01*
X123698000Y-126862408D01*
X123698000Y-127137592D01*
X123751686Y-127407490D01*
X123856995Y-127661727D01*
X124009880Y-127890535D01*
X124204465Y-128085120D01*
X124433273Y-128238005D01*
X124510515Y-128270000D01*
X124433273Y-128301995D01*
X124204465Y-128454880D01*
X124009880Y-128649465D01*
X123856995Y-128878273D01*
X123751686Y-129132510D01*
X123698000Y-129402408D01*
X123698000Y-129677592D01*
X123751686Y-129947490D01*
X123856995Y-130201727D01*
X124009880Y-130430535D01*
X124204465Y-130625120D01*
X124433273Y-130778005D01*
X124510515Y-130810000D01*
X124433273Y-130841995D01*
X124204465Y-130994880D01*
X124009880Y-131189465D01*
X123856995Y-131418273D01*
X123751686Y-131672510D01*
X123698000Y-131942408D01*
X123698000Y-132217592D01*
X123751686Y-132487490D01*
X123856995Y-132741727D01*
X124009880Y-132970535D01*
X124204465Y-133165120D01*
X124433273Y-133318005D01*
X124510515Y-133350000D01*
X124433273Y-133381995D01*
X124204465Y-133534880D01*
X124009880Y-133729465D01*
X123856995Y-133958273D01*
X123751686Y-134212510D01*
X123698000Y-134482408D01*
X123698000Y-134757592D01*
X123751686Y-135027490D01*
X123856995Y-135281727D01*
X124009880Y-135510535D01*
X124204465Y-135705120D01*
X124433273Y-135858005D01*
X124510515Y-135890000D01*
X124433273Y-135921995D01*
X124204465Y-136074880D01*
X124009880Y-136269465D01*
X123856995Y-136498273D01*
X123751686Y-136752510D01*
X123698000Y-137022408D01*
X123698000Y-137297592D01*
X123751686Y-137567490D01*
X123844847Y-137792400D01*
X120873346Y-137792400D01*
X120742095Y-137704701D01*
X120462743Y-137588989D01*
X120166184Y-137530000D01*
X119863816Y-137530000D01*
X119567257Y-137588989D01*
X119287905Y-137704701D01*
X119036495Y-137872688D01*
X118970056Y-137939127D01*
X118964502Y-137920820D01*
X118905537Y-137810506D01*
X118826185Y-137713815D01*
X118729494Y-137634463D01*
X118619180Y-137575498D01*
X118499482Y-137539188D01*
X118375000Y-137526928D01*
X116575000Y-137526928D01*
X116450518Y-137539188D01*
X116330820Y-137575498D01*
X116220506Y-137634463D01*
X116123815Y-137713815D01*
X116044463Y-137810506D01*
X115985498Y-137920820D01*
X115949188Y-138040518D01*
X115936928Y-138165000D01*
X114431387Y-138165000D01*
X114455812Y-138084482D01*
X114468072Y-137960000D01*
X114468072Y-136360000D01*
X114455812Y-136235518D01*
X114419502Y-136115820D01*
X114360537Y-136005506D01*
X114281185Y-135908815D01*
X114184494Y-135829463D01*
X114074180Y-135770498D01*
X113954482Y-135734188D01*
X113830000Y-135721928D01*
X112230000Y-135721928D01*
X112105518Y-135734188D01*
X111985820Y-135770498D01*
X111875506Y-135829463D01*
X111778815Y-135908815D01*
X111768193Y-135921758D01*
X111516004Y-135802429D01*
X111241816Y-135733700D01*
X110959488Y-135719783D01*
X110679870Y-135761213D01*
X110413708Y-135856397D01*
X110288486Y-135923329D01*
X110216903Y-136167298D01*
X106070000Y-136167298D01*
X106070000Y-127630000D01*
X109486928Y-127630000D01*
X109486928Y-128830000D01*
X109503992Y-129003254D01*
X109554528Y-129169850D01*
X109636595Y-129323386D01*
X109747038Y-129457962D01*
X109881614Y-129568405D01*
X110035150Y-129650472D01*
X110201746Y-129701008D01*
X110375000Y-129718072D01*
X111502915Y-129718072D01*
X113122658Y-131337816D01*
X113147236Y-131367764D01*
X113177184Y-131392342D01*
X113177187Y-131392345D01*
X113206559Y-131416450D01*
X113266767Y-131465862D01*
X113403140Y-131538754D01*
X113551113Y-131583642D01*
X113626026Y-131591020D01*
X113666439Y-131595000D01*
X113666444Y-131595000D01*
X113705000Y-131598797D01*
X113743555Y-131595000D01*
X119011928Y-131595000D01*
X119011928Y-131762500D01*
X119024188Y-131886982D01*
X119060498Y-132006680D01*
X119119463Y-132116994D01*
X119198815Y-132213685D01*
X119295506Y-132293037D01*
X119405820Y-132352002D01*
X119525518Y-132388312D01*
X119650000Y-132400572D01*
X121650000Y-132400572D01*
X121774482Y-132388312D01*
X121894180Y-132352002D01*
X122004494Y-132293037D01*
X122101185Y-132213685D01*
X122180537Y-132116994D01*
X122239502Y-132006680D01*
X122275812Y-131886982D01*
X122288072Y-131762500D01*
X122288072Y-129857500D01*
X122275812Y-129733018D01*
X122239502Y-129613320D01*
X122180537Y-129503006D01*
X122101185Y-129406315D01*
X122004494Y-129326963D01*
X121912781Y-129277941D01*
X122025969Y-129136923D01*
X122169571Y-128861094D01*
X122240563Y-128642980D01*
X122120594Y-128397000D01*
X120777000Y-128397000D01*
X120777000Y-128417000D01*
X120523000Y-128417000D01*
X120523000Y-128397000D01*
X119179406Y-128397000D01*
X119059437Y-128642980D01*
X119130429Y-128861094D01*
X119274031Y-129136923D01*
X119387219Y-129277941D01*
X119295506Y-129326963D01*
X119198815Y-129406315D01*
X119119463Y-129503006D01*
X119060498Y-129613320D01*
X119024188Y-129733018D01*
X119011928Y-129857500D01*
X119011928Y-130025000D01*
X114030158Y-130025000D01*
X112763072Y-128757915D01*
X112763072Y-127630000D01*
X112746008Y-127456746D01*
X112695472Y-127290150D01*
X112613405Y-127136614D01*
X112502962Y-127002038D01*
X112368386Y-126891595D01*
X112266407Y-126837086D01*
X112266795Y-126836802D01*
X112463664Y-126622046D01*
X112614854Y-126373009D01*
X112714554Y-126099261D01*
X112716476Y-126086890D01*
X112595155Y-125857000D01*
X111252000Y-125857000D01*
X111252000Y-125877000D01*
X110998000Y-125877000D01*
X110998000Y-125857000D01*
X109654845Y-125857000D01*
X109533524Y-126086890D01*
X109535446Y-126099261D01*
X109635146Y-126373009D01*
X109786336Y-126622046D01*
X109983205Y-126836802D01*
X109983593Y-126837086D01*
X109881614Y-126891595D01*
X109747038Y-127002038D01*
X109636595Y-127136614D01*
X109554528Y-127290150D01*
X109503992Y-127456746D01*
X109486928Y-127630000D01*
X106070000Y-127630000D01*
X106070000Y-125730000D01*
X119007319Y-125730000D01*
X119037970Y-126041204D01*
X119128745Y-126340449D01*
X119276155Y-126616235D01*
X119474537Y-126857963D01*
X119653899Y-127005163D01*
X119468685Y-127160563D01*
X119274031Y-127403077D01*
X119130429Y-127678906D01*
X119059437Y-127897020D01*
X119179406Y-128143000D01*
X120523000Y-128143000D01*
X120523000Y-128123000D01*
X120777000Y-128123000D01*
X120777000Y-128143000D01*
X122120594Y-128143000D01*
X122240563Y-127897020D01*
X122169571Y-127678906D01*
X122025969Y-127403077D01*
X121831315Y-127160563D01*
X121646101Y-127005163D01*
X121825463Y-126857963D01*
X122023845Y-126616235D01*
X122171255Y-126340449D01*
X122262030Y-126041204D01*
X122292681Y-125730000D01*
X122262030Y-125418796D01*
X122171255Y-125119551D01*
X122023845Y-124843765D01*
X121825463Y-124602037D01*
X121583735Y-124403655D01*
X121307949Y-124256245D01*
X121008704Y-124165470D01*
X120775486Y-124142500D01*
X120524514Y-124142500D01*
X120291296Y-124165470D01*
X119992051Y-124256245D01*
X119716265Y-124403655D01*
X119474537Y-124602037D01*
X119276155Y-124843765D01*
X119128745Y-125119551D01*
X119037970Y-125418796D01*
X119007319Y-125730000D01*
X106070000Y-125730000D01*
X106070000Y-125373110D01*
X109533524Y-125373110D01*
X109654845Y-125603000D01*
X110998000Y-125603000D01*
X110998000Y-124402768D01*
X111252000Y-124402768D01*
X111252000Y-125603000D01*
X112595155Y-125603000D01*
X112716476Y-125373110D01*
X112714554Y-125360739D01*
X112614854Y-125086991D01*
X112463664Y-124837954D01*
X112266795Y-124623198D01*
X112031812Y-124450975D01*
X111767745Y-124327904D01*
X111484742Y-124258715D01*
X111252000Y-124402768D01*
X110998000Y-124402768D01*
X110765258Y-124258715D01*
X110482255Y-124327904D01*
X110218188Y-124450975D01*
X109983205Y-124623198D01*
X109786336Y-124837954D01*
X109635146Y-125086991D01*
X109535446Y-125360739D01*
X109533524Y-125373110D01*
X106070000Y-125373110D01*
X106070000Y-116675000D01*
X116036928Y-116675000D01*
X116036928Y-118275000D01*
X116049188Y-118399482D01*
X116085498Y-118519180D01*
X116144463Y-118629494D01*
X116223815Y-118726185D01*
X116320506Y-118805537D01*
X116430820Y-118864502D01*
X116550518Y-118900812D01*
X116675000Y-118913072D01*
X118275000Y-118913072D01*
X118399482Y-118900812D01*
X118519180Y-118864502D01*
X118629494Y-118805537D01*
X118726185Y-118726185D01*
X118805537Y-118629494D01*
X118864502Y-118519180D01*
X118900812Y-118399482D01*
X118913072Y-118275000D01*
X118913072Y-118267785D01*
X118982298Y-118288097D01*
X119795395Y-117475000D01*
X118982298Y-116661903D01*
X118913072Y-116682215D01*
X118913072Y-116675000D01*
X118900812Y-116550518D01*
X118864502Y-116430820D01*
X118805537Y-116320506D01*
X118726185Y-116223815D01*
X118629494Y-116144463D01*
X118519180Y-116085498D01*
X118399482Y-116049188D01*
X118275000Y-116036928D01*
X116675000Y-116036928D01*
X116550518Y-116049188D01*
X116430820Y-116085498D01*
X116320506Y-116144463D01*
X116223815Y-116223815D01*
X116144463Y-116320506D01*
X116085498Y-116430820D01*
X116049188Y-116550518D01*
X116036928Y-116675000D01*
X106070000Y-116675000D01*
X106070000Y-105810098D01*
X106200000Y-105810098D01*
X106200000Y-106279902D01*
X106291654Y-106740679D01*
X106471440Y-107174721D01*
X106732450Y-107565349D01*
X107064651Y-107897550D01*
X107455279Y-108158560D01*
X107889321Y-108338346D01*
X108350098Y-108430000D01*
X108819902Y-108430000D01*
X109280679Y-108338346D01*
X109714721Y-108158560D01*
X110105349Y-107897550D01*
X110437550Y-107565349D01*
X110698560Y-107174721D01*
X110878346Y-106740679D01*
X110970000Y-106279902D01*
X110970000Y-105810098D01*
X110878346Y-105349321D01*
X110698560Y-104915279D01*
X110437550Y-104524651D01*
X110105349Y-104192450D01*
X109714721Y-103931440D01*
X109280679Y-103751654D01*
X108819902Y-103660000D01*
X108350098Y-103660000D01*
X107889321Y-103751654D01*
X107455279Y-103931440D01*
X107064651Y-104192450D01*
X106732450Y-104524651D01*
X106471440Y-104915279D01*
X106291654Y-105349321D01*
X106200000Y-105810098D01*
X106070000Y-105810098D01*
X106070000Y-104807277D01*
X106096815Y-104533796D01*
X106166867Y-104301774D01*
X106280650Y-104087778D01*
X106433832Y-103899959D01*
X106620577Y-103745470D01*
X106833769Y-103630199D01*
X107065300Y-103558528D01*
X107336725Y-103530000D01*
X172052721Y-103530000D01*
X172449545Y-103568909D01*
G36*
X138962762Y-136897919D02*
G01*
X138938000Y-137022408D01*
X138938000Y-137297592D01*
X138991686Y-137567490D01*
X139096995Y-137821727D01*
X139249880Y-138050535D01*
X139444465Y-138245120D01*
X139673273Y-138398005D01*
X139750515Y-138430000D01*
X139673273Y-138461995D01*
X139444465Y-138614880D01*
X139249880Y-138809465D01*
X139096995Y-139038273D01*
X138991686Y-139292510D01*
X138938000Y-139562408D01*
X138938000Y-139837592D01*
X138991686Y-140107490D01*
X139096995Y-140361727D01*
X139249880Y-140590535D01*
X139444465Y-140785120D01*
X139673273Y-140938005D01*
X139750515Y-140970000D01*
X139673273Y-141001995D01*
X139444465Y-141154880D01*
X139249880Y-141349465D01*
X139096995Y-141578273D01*
X138991686Y-141832510D01*
X138946223Y-142061066D01*
X137842645Y-140957488D01*
X137822158Y-140932524D01*
X137876246Y-140818087D01*
X137916904Y-140684039D01*
X137794915Y-140462000D01*
X136652000Y-140462000D01*
X136652000Y-140482000D01*
X136398000Y-140482000D01*
X136398000Y-140462000D01*
X135255085Y-140462000D01*
X135133096Y-140684039D01*
X135138028Y-140700300D01*
X131530757Y-140700300D01*
X130637647Y-139807190D01*
X130613064Y-139777236D01*
X130562453Y-139735700D01*
X134180447Y-139735700D01*
X134219000Y-139739497D01*
X134257553Y-139735700D01*
X134257561Y-139735700D01*
X134372887Y-139724341D01*
X134520860Y-139679454D01*
X134657233Y-139606562D01*
X134776764Y-139508464D01*
X134801347Y-139478510D01*
X135487297Y-138792560D01*
X135505392Y-138814608D01*
X135723899Y-138993932D01*
X135861682Y-139067579D01*
X135669869Y-139182615D01*
X135461481Y-139371586D01*
X135293963Y-139597580D01*
X135173754Y-139851913D01*
X135133096Y-139985961D01*
X135255085Y-140208000D01*
X136398000Y-140208000D01*
X136398000Y-140188000D01*
X136652000Y-140188000D01*
X136652000Y-140208000D01*
X137794915Y-140208000D01*
X137916904Y-139985961D01*
X137876246Y-139851913D01*
X137756037Y-139597580D01*
X137588519Y-139371586D01*
X137380131Y-139182615D01*
X137188318Y-139067579D01*
X137326101Y-138993932D01*
X137544608Y-138814608D01*
X137723932Y-138596101D01*
X137857182Y-138346808D01*
X137939236Y-138076309D01*
X137966943Y-137795000D01*
X137939236Y-137513691D01*
X137857182Y-137243192D01*
X137723932Y-136993899D01*
X137544608Y-136775392D01*
X137326101Y-136596068D01*
X137193142Y-136525000D01*
X137326101Y-136453932D01*
X137544608Y-136274608D01*
X137723932Y-136056101D01*
X137732538Y-136040000D01*
X138104843Y-136040000D01*
X138962762Y-136897919D01*
X138962762Y-136897919D01*
G37*
X138962762Y-136897919D02*
X138938000Y-137022408D01*
X138938000Y-137297592D01*
X138991686Y-137567490D01*
X139096995Y-137821727D01*
X139249880Y-138050535D01*
X139444465Y-138245120D01*
X139673273Y-138398005D01*
X139750515Y-138430000D01*
X139673273Y-138461995D01*
X139444465Y-138614880D01*
X139249880Y-138809465D01*
X139096995Y-139038273D01*
X138991686Y-139292510D01*
X138938000Y-139562408D01*
X138938000Y-139837592D01*
X138991686Y-140107490D01*
X139096995Y-140361727D01*
X139249880Y-140590535D01*
X139444465Y-140785120D01*
X139673273Y-140938005D01*
X139750515Y-140970000D01*
X139673273Y-141001995D01*
X139444465Y-141154880D01*
X139249880Y-141349465D01*
X139096995Y-141578273D01*
X138991686Y-141832510D01*
X138946223Y-142061066D01*
X137842645Y-140957488D01*
X137822158Y-140932524D01*
X137876246Y-140818087D01*
X137916904Y-140684039D01*
X137794915Y-140462000D01*
X136652000Y-140462000D01*
X136652000Y-140482000D01*
X136398000Y-140482000D01*
X136398000Y-140462000D01*
X135255085Y-140462000D01*
X135133096Y-140684039D01*
X135138028Y-140700300D01*
X131530757Y-140700300D01*
X130637647Y-139807190D01*
X130613064Y-139777236D01*
X130562453Y-139735700D01*
X134180447Y-139735700D01*
X134219000Y-139739497D01*
X134257553Y-139735700D01*
X134257561Y-139735700D01*
X134372887Y-139724341D01*
X134520860Y-139679454D01*
X134657233Y-139606562D01*
X134776764Y-139508464D01*
X134801347Y-139478510D01*
X135487297Y-138792560D01*
X135505392Y-138814608D01*
X135723899Y-138993932D01*
X135861682Y-139067579D01*
X135669869Y-139182615D01*
X135461481Y-139371586D01*
X135293963Y-139597580D01*
X135173754Y-139851913D01*
X135133096Y-139985961D01*
X135255085Y-140208000D01*
X136398000Y-140208000D01*
X136398000Y-140188000D01*
X136652000Y-140188000D01*
X136652000Y-140208000D01*
X137794915Y-140208000D01*
X137916904Y-139985961D01*
X137876246Y-139851913D01*
X137756037Y-139597580D01*
X137588519Y-139371586D01*
X137380131Y-139182615D01*
X137188318Y-139067579D01*
X137326101Y-138993932D01*
X137544608Y-138814608D01*
X137723932Y-138596101D01*
X137857182Y-138346808D01*
X137939236Y-138076309D01*
X137966943Y-137795000D01*
X137939236Y-137513691D01*
X137857182Y-137243192D01*
X137723932Y-136993899D01*
X137544608Y-136775392D01*
X137326101Y-136596068D01*
X137193142Y-136525000D01*
X137326101Y-136453932D01*
X137544608Y-136274608D01*
X137723932Y-136056101D01*
X137732538Y-136040000D01*
X138104843Y-136040000D01*
X138962762Y-136897919D01*
G36*
X138962762Y-129277920D02*
G01*
X138938000Y-129402408D01*
X138938000Y-129677592D01*
X138991686Y-129947490D01*
X139096995Y-130201727D01*
X139249880Y-130430535D01*
X139444465Y-130625120D01*
X139673273Y-130778005D01*
X139750515Y-130810000D01*
X139673273Y-130841995D01*
X139444465Y-130994880D01*
X139249880Y-131189465D01*
X139096995Y-131418273D01*
X138991686Y-131672510D01*
X138938000Y-131942408D01*
X138938000Y-132217592D01*
X138991686Y-132487490D01*
X139096995Y-132741727D01*
X139249880Y-132970535D01*
X139444465Y-133165120D01*
X139673273Y-133318005D01*
X139750515Y-133350000D01*
X139673273Y-133381995D01*
X139444465Y-133534880D01*
X139249880Y-133729465D01*
X139096995Y-133958273D01*
X138991686Y-134212510D01*
X138938000Y-134482408D01*
X138938000Y-134656395D01*
X138868233Y-134599138D01*
X138731860Y-134526246D01*
X138583887Y-134481359D01*
X138468561Y-134470000D01*
X138468553Y-134470000D01*
X138430000Y-134466203D01*
X138391447Y-134470000D01*
X137732538Y-134470000D01*
X137723932Y-134453899D01*
X137544608Y-134235392D01*
X137326101Y-134056068D01*
X137076808Y-133922818D01*
X136806309Y-133840764D01*
X136595492Y-133820000D01*
X136454508Y-133820000D01*
X136243691Y-133840764D01*
X135973192Y-133922818D01*
X135723899Y-134056068D01*
X135505392Y-134235392D01*
X135326068Y-134453899D01*
X135192818Y-134703192D01*
X135110764Y-134973691D01*
X135083057Y-135255000D01*
X135110764Y-135536309D01*
X135192818Y-135806808D01*
X135326068Y-136056101D01*
X135505392Y-136274608D01*
X135723899Y-136453932D01*
X135856858Y-136525000D01*
X135723899Y-136596068D01*
X135505392Y-136775392D01*
X135326068Y-136993899D01*
X135316424Y-137011942D01*
X135295726Y-137013980D01*
X135220813Y-137021358D01*
X135072840Y-137066246D01*
X134936467Y-137139138D01*
X134816936Y-137237236D01*
X134792353Y-137267190D01*
X133893843Y-138165700D01*
X130292120Y-138165700D01*
X130319236Y-138076309D01*
X130346943Y-137795000D01*
X130319236Y-137513691D01*
X130237182Y-137243192D01*
X130103932Y-136993899D01*
X129924608Y-136775392D01*
X129706101Y-136596068D01*
X129573142Y-136525000D01*
X129706101Y-136453932D01*
X129924608Y-136274608D01*
X130103932Y-136056101D01*
X130237182Y-135806808D01*
X130319236Y-135536309D01*
X130346943Y-135255000D01*
X130319236Y-134973691D01*
X130237182Y-134703192D01*
X130103932Y-134453899D01*
X129924608Y-134235392D01*
X129706101Y-134056068D01*
X129456808Y-133922818D01*
X129186309Y-133840764D01*
X128975492Y-133820000D01*
X128834508Y-133820000D01*
X128623691Y-133840764D01*
X128353192Y-133922818D01*
X128103899Y-134056068D01*
X127885392Y-134235392D01*
X127706068Y-134453899D01*
X127572818Y-134703192D01*
X127490764Y-134973691D01*
X127463057Y-135255000D01*
X127490764Y-135536309D01*
X127572818Y-135806808D01*
X127706068Y-136056101D01*
X127885392Y-136274608D01*
X128103899Y-136453932D01*
X128236858Y-136525000D01*
X128103899Y-136596068D01*
X127885392Y-136775392D01*
X127706068Y-136993899D01*
X127572818Y-137243192D01*
X127490764Y-137513691D01*
X127463057Y-137795000D01*
X127490764Y-138076309D01*
X127517880Y-138165700D01*
X126537857Y-138165700D01*
X126421747Y-138049590D01*
X126397164Y-138019636D01*
X126277633Y-137921538D01*
X126269292Y-137917080D01*
X126333005Y-137821727D01*
X126438314Y-137567490D01*
X126492000Y-137297592D01*
X126492000Y-137022408D01*
X126438314Y-136752510D01*
X126333005Y-136498273D01*
X126180120Y-136269465D01*
X125985535Y-136074880D01*
X125756727Y-135921995D01*
X125679485Y-135890000D01*
X125756727Y-135858005D01*
X125985535Y-135705120D01*
X126180120Y-135510535D01*
X126333005Y-135281727D01*
X126438314Y-135027490D01*
X126492000Y-134757592D01*
X126492000Y-134482408D01*
X126438314Y-134212510D01*
X126333005Y-133958273D01*
X126180120Y-133729465D01*
X125985535Y-133534880D01*
X125756727Y-133381995D01*
X125679485Y-133350000D01*
X125756727Y-133318005D01*
X125985535Y-133165120D01*
X126180120Y-132970535D01*
X126333005Y-132741727D01*
X126438314Y-132487490D01*
X126492000Y-132217592D01*
X126492000Y-131942408D01*
X126438314Y-131672510D01*
X126333005Y-131418273D01*
X126180120Y-131189465D01*
X125985535Y-130994880D01*
X125756727Y-130841995D01*
X125679485Y-130810000D01*
X125756727Y-130778005D01*
X125985535Y-130625120D01*
X126180120Y-130430535D01*
X126333005Y-130201727D01*
X126438314Y-129947490D01*
X126492000Y-129677592D01*
X126492000Y-129402408D01*
X126438314Y-129132510D01*
X126333005Y-128878273D01*
X126180120Y-128649465D01*
X125985535Y-128454880D01*
X125756727Y-128301995D01*
X125679485Y-128270000D01*
X125756727Y-128238005D01*
X125985535Y-128085120D01*
X126180120Y-127890535D01*
X126333005Y-127661727D01*
X126438314Y-127407490D01*
X126492000Y-127137592D01*
X126492000Y-126862408D01*
X126438314Y-126592510D01*
X126333005Y-126338273D01*
X126180120Y-126109465D01*
X125985535Y-125914880D01*
X125756727Y-125761995D01*
X125679485Y-125730000D01*
X125756727Y-125698005D01*
X125985535Y-125545120D01*
X126180120Y-125350535D01*
X126333005Y-125121727D01*
X126438314Y-124867490D01*
X126492000Y-124597592D01*
X126492000Y-124322408D01*
X126438314Y-124052510D01*
X126406208Y-123975000D01*
X133659843Y-123975000D01*
X138962762Y-129277920D01*
X138962762Y-129277920D01*
G37*
X138962762Y-129277920D02*
X138938000Y-129402408D01*
X138938000Y-129677592D01*
X138991686Y-129947490D01*
X139096995Y-130201727D01*
X139249880Y-130430535D01*
X139444465Y-130625120D01*
X139673273Y-130778005D01*
X139750515Y-130810000D01*
X139673273Y-130841995D01*
X139444465Y-130994880D01*
X139249880Y-131189465D01*
X139096995Y-131418273D01*
X138991686Y-131672510D01*
X138938000Y-131942408D01*
X138938000Y-132217592D01*
X138991686Y-132487490D01*
X139096995Y-132741727D01*
X139249880Y-132970535D01*
X139444465Y-133165120D01*
X139673273Y-133318005D01*
X139750515Y-133350000D01*
X139673273Y-133381995D01*
X139444465Y-133534880D01*
X139249880Y-133729465D01*
X139096995Y-133958273D01*
X138991686Y-134212510D01*
X138938000Y-134482408D01*
X138938000Y-134656395D01*
X138868233Y-134599138D01*
X138731860Y-134526246D01*
X138583887Y-134481359D01*
X138468561Y-134470000D01*
X138468553Y-134470000D01*
X138430000Y-134466203D01*
X138391447Y-134470000D01*
X137732538Y-134470000D01*
X137723932Y-134453899D01*
X137544608Y-134235392D01*
X137326101Y-134056068D01*
X137076808Y-133922818D01*
X136806309Y-133840764D01*
X136595492Y-133820000D01*
X136454508Y-133820000D01*
X136243691Y-133840764D01*
X135973192Y-133922818D01*
X135723899Y-134056068D01*
X135505392Y-134235392D01*
X135326068Y-134453899D01*
X135192818Y-134703192D01*
X135110764Y-134973691D01*
X135083057Y-135255000D01*
X135110764Y-135536309D01*
X135192818Y-135806808D01*
X135326068Y-136056101D01*
X135505392Y-136274608D01*
X135723899Y-136453932D01*
X135856858Y-136525000D01*
X135723899Y-136596068D01*
X135505392Y-136775392D01*
X135326068Y-136993899D01*
X135316424Y-137011942D01*
X135295726Y-137013980D01*
X135220813Y-137021358D01*
X135072840Y-137066246D01*
X134936467Y-137139138D01*
X134816936Y-137237236D01*
X134792353Y-137267190D01*
X133893843Y-138165700D01*
X130292120Y-138165700D01*
X130319236Y-138076309D01*
X130346943Y-137795000D01*
X130319236Y-137513691D01*
X130237182Y-137243192D01*
X130103932Y-136993899D01*
X129924608Y-136775392D01*
X129706101Y-136596068D01*
X129573142Y-136525000D01*
X129706101Y-136453932D01*
X129924608Y-136274608D01*
X130103932Y-136056101D01*
X130237182Y-135806808D01*
X130319236Y-135536309D01*
X130346943Y-135255000D01*
X130319236Y-134973691D01*
X130237182Y-134703192D01*
X130103932Y-134453899D01*
X129924608Y-134235392D01*
X129706101Y-134056068D01*
X129456808Y-133922818D01*
X129186309Y-133840764D01*
X128975492Y-133820000D01*
X128834508Y-133820000D01*
X128623691Y-133840764D01*
X128353192Y-133922818D01*
X128103899Y-134056068D01*
X127885392Y-134235392D01*
X127706068Y-134453899D01*
X127572818Y-134703192D01*
X127490764Y-134973691D01*
X127463057Y-135255000D01*
X127490764Y-135536309D01*
X127572818Y-135806808D01*
X127706068Y-136056101D01*
X127885392Y-136274608D01*
X128103899Y-136453932D01*
X128236858Y-136525000D01*
X128103899Y-136596068D01*
X127885392Y-136775392D01*
X127706068Y-136993899D01*
X127572818Y-137243192D01*
X127490764Y-137513691D01*
X127463057Y-137795000D01*
X127490764Y-138076309D01*
X127517880Y-138165700D01*
X126537857Y-138165700D01*
X126421747Y-138049590D01*
X126397164Y-138019636D01*
X126277633Y-137921538D01*
X126269292Y-137917080D01*
X126333005Y-137821727D01*
X126438314Y-137567490D01*
X126492000Y-137297592D01*
X126492000Y-137022408D01*
X126438314Y-136752510D01*
X126333005Y-136498273D01*
X126180120Y-136269465D01*
X125985535Y-136074880D01*
X125756727Y-135921995D01*
X125679485Y-135890000D01*
X125756727Y-135858005D01*
X125985535Y-135705120D01*
X126180120Y-135510535D01*
X126333005Y-135281727D01*
X126438314Y-135027490D01*
X126492000Y-134757592D01*
X126492000Y-134482408D01*
X126438314Y-134212510D01*
X126333005Y-133958273D01*
X126180120Y-133729465D01*
X125985535Y-133534880D01*
X125756727Y-133381995D01*
X125679485Y-133350000D01*
X125756727Y-133318005D01*
X125985535Y-133165120D01*
X126180120Y-132970535D01*
X126333005Y-132741727D01*
X126438314Y-132487490D01*
X126492000Y-132217592D01*
X126492000Y-131942408D01*
X126438314Y-131672510D01*
X126333005Y-131418273D01*
X126180120Y-131189465D01*
X125985535Y-130994880D01*
X125756727Y-130841995D01*
X125679485Y-130810000D01*
X125756727Y-130778005D01*
X125985535Y-130625120D01*
X126180120Y-130430535D01*
X126333005Y-130201727D01*
X126438314Y-129947490D01*
X126492000Y-129677592D01*
X126492000Y-129402408D01*
X126438314Y-129132510D01*
X126333005Y-128878273D01*
X126180120Y-128649465D01*
X125985535Y-128454880D01*
X125756727Y-128301995D01*
X125679485Y-128270000D01*
X125756727Y-128238005D01*
X125985535Y-128085120D01*
X126180120Y-127890535D01*
X126333005Y-127661727D01*
X126438314Y-127407490D01*
X126492000Y-127137592D01*
X126492000Y-126862408D01*
X126438314Y-126592510D01*
X126333005Y-126338273D01*
X126180120Y-126109465D01*
X125985535Y-125914880D01*
X125756727Y-125761995D01*
X125679485Y-125730000D01*
X125756727Y-125698005D01*
X125985535Y-125545120D01*
X126180120Y-125350535D01*
X126333005Y-125121727D01*
X126438314Y-124867490D01*
X126492000Y-124597592D01*
X126492000Y-124322408D01*
X126438314Y-124052510D01*
X126406208Y-123975000D01*
X133659843Y-123975000D01*
X138962762Y-129277920D01*
G36*
X149105583Y-126183041D02*
G01*
X148990986Y-126244294D01*
X148770055Y-126425608D01*
X148759502Y-126390820D01*
X148700537Y-126280506D01*
X148621185Y-126183815D01*
X148524494Y-126104463D01*
X148414180Y-126045498D01*
X148294482Y-126009188D01*
X148170000Y-125996928D01*
X147605750Y-126000000D01*
X147447000Y-126158750D01*
X147447000Y-127508000D01*
X147467000Y-127508000D01*
X147467000Y-127762000D01*
X147447000Y-127762000D01*
X147447000Y-129111250D01*
X147605750Y-129270000D01*
X148170000Y-129273072D01*
X148294482Y-129260812D01*
X148414180Y-129224502D01*
X148524494Y-129165537D01*
X148621185Y-129086185D01*
X148700537Y-128989494D01*
X148759502Y-128879180D01*
X148770055Y-128844392D01*
X148990987Y-129025706D01*
X149075001Y-129070612D01*
X149075001Y-129214841D01*
X147470593Y-130819250D01*
X145612806Y-130819250D01*
X145574250Y-130815453D01*
X145535694Y-130819250D01*
X145535689Y-130819250D01*
X145495276Y-130823230D01*
X145420363Y-130830608D01*
X145272390Y-130875496D01*
X145136017Y-130948388D01*
X145016486Y-131046486D01*
X144991905Y-131076438D01*
X142233343Y-133835000D01*
X141490636Y-133835000D01*
X141420120Y-133729465D01*
X141225535Y-133534880D01*
X140996727Y-133381995D01*
X140919485Y-133350000D01*
X140996727Y-133318005D01*
X141225535Y-133165120D01*
X141420120Y-132970535D01*
X141573005Y-132741727D01*
X141678314Y-132487490D01*
X141732000Y-132217592D01*
X141732000Y-131942408D01*
X141678314Y-131672510D01*
X141573005Y-131418273D01*
X141420120Y-131189465D01*
X141225535Y-130994880D01*
X140996727Y-130841995D01*
X140919485Y-130810000D01*
X140996727Y-130778005D01*
X141225535Y-130625120D01*
X141420120Y-130430535D01*
X141573005Y-130201727D01*
X141678314Y-129947490D01*
X141732000Y-129677592D01*
X141732000Y-129402408D01*
X141678314Y-129132510D01*
X141573005Y-128878273D01*
X141420120Y-128649465D01*
X141405655Y-128635000D01*
X145831928Y-128635000D01*
X145844188Y-128759482D01*
X145880498Y-128879180D01*
X145939463Y-128989494D01*
X146018815Y-129086185D01*
X146115506Y-129165537D01*
X146225820Y-129224502D01*
X146345518Y-129260812D01*
X146470000Y-129273072D01*
X147034250Y-129270000D01*
X147193000Y-129111250D01*
X147193000Y-127762000D01*
X145993750Y-127762000D01*
X145835000Y-127920750D01*
X145831928Y-128635000D01*
X141405655Y-128635000D01*
X141225535Y-128454880D01*
X140996727Y-128301995D01*
X140919485Y-128270000D01*
X140996727Y-128238005D01*
X141225535Y-128085120D01*
X141420120Y-127890535D01*
X141573005Y-127661727D01*
X141678314Y-127407490D01*
X141732000Y-127137592D01*
X141732000Y-126862408D01*
X141686766Y-126635000D01*
X145831928Y-126635000D01*
X145835000Y-127349250D01*
X145993750Y-127508000D01*
X147193000Y-127508000D01*
X147193000Y-126158750D01*
X147034250Y-126000000D01*
X146470000Y-125996928D01*
X146345518Y-126009188D01*
X146225820Y-126045498D01*
X146115506Y-126104463D01*
X146018815Y-126183815D01*
X145939463Y-126280506D01*
X145880498Y-126390820D01*
X145844188Y-126510518D01*
X145831928Y-126635000D01*
X141686766Y-126635000D01*
X141678314Y-126592510D01*
X141573005Y-126338273D01*
X141420120Y-126109465D01*
X141225535Y-125914880D01*
X140996727Y-125761995D01*
X140919485Y-125730000D01*
X140996727Y-125698005D01*
X141225535Y-125545120D01*
X141420120Y-125350535D01*
X141490636Y-125245000D01*
X148167543Y-125245000D01*
X149105583Y-126183041D01*
X149105583Y-126183041D01*
G37*
X149105583Y-126183041D02*
X148990986Y-126244294D01*
X148770055Y-126425608D01*
X148759502Y-126390820D01*
X148700537Y-126280506D01*
X148621185Y-126183815D01*
X148524494Y-126104463D01*
X148414180Y-126045498D01*
X148294482Y-126009188D01*
X148170000Y-125996928D01*
X147605750Y-126000000D01*
X147447000Y-126158750D01*
X147447000Y-127508000D01*
X147467000Y-127508000D01*
X147467000Y-127762000D01*
X147447000Y-127762000D01*
X147447000Y-129111250D01*
X147605750Y-129270000D01*
X148170000Y-129273072D01*
X148294482Y-129260812D01*
X148414180Y-129224502D01*
X148524494Y-129165537D01*
X148621185Y-129086185D01*
X148700537Y-128989494D01*
X148759502Y-128879180D01*
X148770055Y-128844392D01*
X148990987Y-129025706D01*
X149075001Y-129070612D01*
X149075001Y-129214841D01*
X147470593Y-130819250D01*
X145612806Y-130819250D01*
X145574250Y-130815453D01*
X145535694Y-130819250D01*
X145535689Y-130819250D01*
X145495276Y-130823230D01*
X145420363Y-130830608D01*
X145272390Y-130875496D01*
X145136017Y-130948388D01*
X145016486Y-131046486D01*
X144991905Y-131076438D01*
X142233343Y-133835000D01*
X141490636Y-133835000D01*
X141420120Y-133729465D01*
X141225535Y-133534880D01*
X140996727Y-133381995D01*
X140919485Y-133350000D01*
X140996727Y-133318005D01*
X141225535Y-133165120D01*
X141420120Y-132970535D01*
X141573005Y-132741727D01*
X141678314Y-132487490D01*
X141732000Y-132217592D01*
X141732000Y-131942408D01*
X141678314Y-131672510D01*
X141573005Y-131418273D01*
X141420120Y-131189465D01*
X141225535Y-130994880D01*
X140996727Y-130841995D01*
X140919485Y-130810000D01*
X140996727Y-130778005D01*
X141225535Y-130625120D01*
X141420120Y-130430535D01*
X141573005Y-130201727D01*
X141678314Y-129947490D01*
X141732000Y-129677592D01*
X141732000Y-129402408D01*
X141678314Y-129132510D01*
X141573005Y-128878273D01*
X141420120Y-128649465D01*
X141405655Y-128635000D01*
X145831928Y-128635000D01*
X145844188Y-128759482D01*
X145880498Y-128879180D01*
X145939463Y-128989494D01*
X146018815Y-129086185D01*
X146115506Y-129165537D01*
X146225820Y-129224502D01*
X146345518Y-129260812D01*
X146470000Y-129273072D01*
X147034250Y-129270000D01*
X147193000Y-129111250D01*
X147193000Y-127762000D01*
X145993750Y-127762000D01*
X145835000Y-127920750D01*
X145831928Y-128635000D01*
X141405655Y-128635000D01*
X141225535Y-128454880D01*
X140996727Y-128301995D01*
X140919485Y-128270000D01*
X140996727Y-128238005D01*
X141225535Y-128085120D01*
X141420120Y-127890535D01*
X141573005Y-127661727D01*
X141678314Y-127407490D01*
X141732000Y-127137592D01*
X141732000Y-126862408D01*
X141686766Y-126635000D01*
X145831928Y-126635000D01*
X145835000Y-127349250D01*
X145993750Y-127508000D01*
X147193000Y-127508000D01*
X147193000Y-126158750D01*
X147034250Y-126000000D01*
X146470000Y-125996928D01*
X146345518Y-126009188D01*
X146225820Y-126045498D01*
X146115506Y-126104463D01*
X146018815Y-126183815D01*
X145939463Y-126280506D01*
X145880498Y-126390820D01*
X145844188Y-126510518D01*
X145831928Y-126635000D01*
X141686766Y-126635000D01*
X141678314Y-126592510D01*
X141573005Y-126338273D01*
X141420120Y-126109465D01*
X141225535Y-125914880D01*
X140996727Y-125761995D01*
X140919485Y-125730000D01*
X140996727Y-125698005D01*
X141225535Y-125545120D01*
X141420120Y-125350535D01*
X141490636Y-125245000D01*
X148167543Y-125245000D01*
X149105583Y-126183041D01*
G36*
X139096995Y-117501727D02*
G01*
X139249880Y-117730535D01*
X139444465Y-117925120D01*
X139673273Y-118078005D01*
X139750515Y-118110000D01*
X139673273Y-118141995D01*
X139444465Y-118294880D01*
X139249880Y-118489465D01*
X139096995Y-118718273D01*
X138991686Y-118972510D01*
X138938000Y-119242408D01*
X138938000Y-119517592D01*
X138991686Y-119787490D01*
X139096995Y-120041727D01*
X139249880Y-120270535D01*
X139444465Y-120465120D01*
X139673273Y-120618005D01*
X139750515Y-120650000D01*
X139673273Y-120681995D01*
X139444465Y-120834880D01*
X139249880Y-121029465D01*
X139096995Y-121258273D01*
X138991686Y-121512510D01*
X138938000Y-121782408D01*
X138938000Y-122057592D01*
X138991686Y-122327490D01*
X139096995Y-122581727D01*
X139249880Y-122810535D01*
X139444465Y-123005120D01*
X139673273Y-123158005D01*
X139750515Y-123190000D01*
X139673273Y-123221995D01*
X139444465Y-123374880D01*
X139249880Y-123569465D01*
X139096995Y-123798273D01*
X138991686Y-124052510D01*
X138938000Y-124322408D01*
X138938000Y-124597592D01*
X138991686Y-124867490D01*
X139096995Y-125121727D01*
X139249880Y-125350535D01*
X139444465Y-125545120D01*
X139673273Y-125698005D01*
X139750515Y-125730000D01*
X139673273Y-125761995D01*
X139444465Y-125914880D01*
X139249880Y-126109465D01*
X139096995Y-126338273D01*
X138991686Y-126592510D01*
X138938000Y-126862408D01*
X138938000Y-127032842D01*
X134567345Y-122662188D01*
X134542764Y-122632236D01*
X134423233Y-122534138D01*
X134286860Y-122461246D01*
X134138887Y-122416359D01*
X134132434Y-122415723D01*
X139082185Y-117465972D01*
X139096995Y-117501727D01*
X139096995Y-117501727D01*
G37*
X139096995Y-117501727D02*
X139249880Y-117730535D01*
X139444465Y-117925120D01*
X139673273Y-118078005D01*
X139750515Y-118110000D01*
X139673273Y-118141995D01*
X139444465Y-118294880D01*
X139249880Y-118489465D01*
X139096995Y-118718273D01*
X138991686Y-118972510D01*
X138938000Y-119242408D01*
X138938000Y-119517592D01*
X138991686Y-119787490D01*
X139096995Y-120041727D01*
X139249880Y-120270535D01*
X139444465Y-120465120D01*
X139673273Y-120618005D01*
X139750515Y-120650000D01*
X139673273Y-120681995D01*
X139444465Y-120834880D01*
X139249880Y-121029465D01*
X139096995Y-121258273D01*
X138991686Y-121512510D01*
X138938000Y-121782408D01*
X138938000Y-122057592D01*
X138991686Y-122327490D01*
X139096995Y-122581727D01*
X139249880Y-122810535D01*
X139444465Y-123005120D01*
X139673273Y-123158005D01*
X139750515Y-123190000D01*
X139673273Y-123221995D01*
X139444465Y-123374880D01*
X139249880Y-123569465D01*
X139096995Y-123798273D01*
X138991686Y-124052510D01*
X138938000Y-124322408D01*
X138938000Y-124597592D01*
X138991686Y-124867490D01*
X139096995Y-125121727D01*
X139249880Y-125350535D01*
X139444465Y-125545120D01*
X139673273Y-125698005D01*
X139750515Y-125730000D01*
X139673273Y-125761995D01*
X139444465Y-125914880D01*
X139249880Y-126109465D01*
X139096995Y-126338273D01*
X138991686Y-126592510D01*
X138938000Y-126862408D01*
X138938000Y-127032842D01*
X134567345Y-122662188D01*
X134542764Y-122632236D01*
X134423233Y-122534138D01*
X134286860Y-122461246D01*
X134138887Y-122416359D01*
X134132434Y-122415723D01*
X139082185Y-117465972D01*
X139096995Y-117501727D01*
G36*
X122682000Y-109093000D02*
G01*
X122702000Y-109093000D01*
X122702000Y-109347000D01*
X122682000Y-109347000D01*
X122682000Y-110553817D01*
X122914026Y-110674958D01*
X123064814Y-110629222D01*
X123329944Y-110502684D01*
X123565293Y-110326854D01*
X123761817Y-110108488D01*
X123819137Y-110012090D01*
X123842931Y-110056606D01*
X124030203Y-110284797D01*
X124258394Y-110472069D01*
X124518736Y-110611225D01*
X124801223Y-110696916D01*
X125021381Y-110718600D01*
X125168619Y-110718600D01*
X125388777Y-110696916D01*
X125580001Y-110638909D01*
X125580000Y-115244842D01*
X125357080Y-115467762D01*
X125232592Y-115443000D01*
X124957408Y-115443000D01*
X124687510Y-115496686D01*
X124433273Y-115601995D01*
X124204465Y-115754880D01*
X124009880Y-115949465D01*
X123856995Y-116178273D01*
X123751686Y-116432510D01*
X123698000Y-116702408D01*
X123698000Y-116977592D01*
X123751686Y-117247490D01*
X123856995Y-117501727D01*
X124009880Y-117730535D01*
X124204465Y-117925120D01*
X124433273Y-118078005D01*
X124510515Y-118110000D01*
X124433273Y-118141995D01*
X124204465Y-118294880D01*
X124009880Y-118489465D01*
X123856995Y-118718273D01*
X123751686Y-118972510D01*
X123698000Y-119242408D01*
X123698000Y-119517592D01*
X123751686Y-119787490D01*
X123856995Y-120041727D01*
X124009880Y-120270535D01*
X124204465Y-120465120D01*
X124433273Y-120618005D01*
X124510515Y-120650000D01*
X124433273Y-120681995D01*
X124204465Y-120834880D01*
X124009880Y-121029465D01*
X123895341Y-121200884D01*
X122013900Y-119319443D01*
X122013900Y-111686356D01*
X122017697Y-111647800D01*
X122013900Y-111609244D01*
X122013900Y-111609239D01*
X122009920Y-111568826D01*
X122002542Y-111493913D01*
X121957654Y-111345940D01*
X121884762Y-111209567D01*
X121786664Y-111090036D01*
X121756710Y-111065453D01*
X121272805Y-110581548D01*
X121329785Y-110534785D01*
X121409137Y-110438094D01*
X121468102Y-110327780D01*
X121487624Y-110263426D01*
X121544707Y-110326854D01*
X121780056Y-110502684D01*
X122045186Y-110629222D01*
X122195974Y-110674958D01*
X122428000Y-110553817D01*
X122428000Y-109347000D01*
X122408000Y-109347000D01*
X122408000Y-109093000D01*
X122428000Y-109093000D01*
X122428000Y-109073000D01*
X122682000Y-109073000D01*
X122682000Y-109093000D01*
X122682000Y-109093000D01*
G37*
X122682000Y-109093000D02*
X122702000Y-109093000D01*
X122702000Y-109347000D01*
X122682000Y-109347000D01*
X122682000Y-110553817D01*
X122914026Y-110674958D01*
X123064814Y-110629222D01*
X123329944Y-110502684D01*
X123565293Y-110326854D01*
X123761817Y-110108488D01*
X123819137Y-110012090D01*
X123842931Y-110056606D01*
X124030203Y-110284797D01*
X124258394Y-110472069D01*
X124518736Y-110611225D01*
X124801223Y-110696916D01*
X125021381Y-110718600D01*
X125168619Y-110718600D01*
X125388777Y-110696916D01*
X125580001Y-110638909D01*
X125580000Y-115244842D01*
X125357080Y-115467762D01*
X125232592Y-115443000D01*
X124957408Y-115443000D01*
X124687510Y-115496686D01*
X124433273Y-115601995D01*
X124204465Y-115754880D01*
X124009880Y-115949465D01*
X123856995Y-116178273D01*
X123751686Y-116432510D01*
X123698000Y-116702408D01*
X123698000Y-116977592D01*
X123751686Y-117247490D01*
X123856995Y-117501727D01*
X124009880Y-117730535D01*
X124204465Y-117925120D01*
X124433273Y-118078005D01*
X124510515Y-118110000D01*
X124433273Y-118141995D01*
X124204465Y-118294880D01*
X124009880Y-118489465D01*
X123856995Y-118718273D01*
X123751686Y-118972510D01*
X123698000Y-119242408D01*
X123698000Y-119517592D01*
X123751686Y-119787490D01*
X123856995Y-120041727D01*
X124009880Y-120270535D01*
X124204465Y-120465120D01*
X124433273Y-120618005D01*
X124510515Y-120650000D01*
X124433273Y-120681995D01*
X124204465Y-120834880D01*
X124009880Y-121029465D01*
X123895341Y-121200884D01*
X122013900Y-119319443D01*
X122013900Y-111686356D01*
X122017697Y-111647800D01*
X122013900Y-111609244D01*
X122013900Y-111609239D01*
X122009920Y-111568826D01*
X122002542Y-111493913D01*
X121957654Y-111345940D01*
X121884762Y-111209567D01*
X121786664Y-111090036D01*
X121756710Y-111065453D01*
X121272805Y-110581548D01*
X121329785Y-110534785D01*
X121409137Y-110438094D01*
X121468102Y-110327780D01*
X121487624Y-110263426D01*
X121544707Y-110326854D01*
X121780056Y-110502684D01*
X122045186Y-110629222D01*
X122195974Y-110674958D01*
X122428000Y-110553817D01*
X122428000Y-109347000D01*
X122408000Y-109347000D01*
X122408000Y-109093000D01*
X122428000Y-109093000D01*
X122428000Y-109073000D01*
X122682000Y-109073000D01*
X122682000Y-109093000D01*
G36*
X133192843Y-121135000D02*
G01*
X126250636Y-121135000D01*
X126180120Y-121029465D01*
X125985535Y-120834880D01*
X125756727Y-120681995D01*
X125679485Y-120650000D01*
X125756727Y-120618005D01*
X125985535Y-120465120D01*
X126180120Y-120270535D01*
X126333005Y-120041727D01*
X126438314Y-119787490D01*
X126492000Y-119517592D01*
X126492000Y-119242408D01*
X126438314Y-118972510D01*
X126333005Y-118718273D01*
X126180120Y-118489465D01*
X125985535Y-118294880D01*
X125756727Y-118141995D01*
X125679485Y-118110000D01*
X125756727Y-118078005D01*
X125985535Y-117925120D01*
X126180120Y-117730535D01*
X126333005Y-117501727D01*
X126438314Y-117247490D01*
X126492000Y-116977592D01*
X126492000Y-116702408D01*
X126467238Y-116577920D01*
X126892817Y-116152341D01*
X126922764Y-116127764D01*
X126957452Y-116085498D01*
X126971450Y-116068441D01*
X127020862Y-116008233D01*
X127093754Y-115871860D01*
X127138641Y-115723887D01*
X127150000Y-115608561D01*
X127150000Y-115608554D01*
X127153797Y-115570001D01*
X127150000Y-115531448D01*
X127150000Y-111235100D01*
X143092742Y-111235100D01*
X133192843Y-121135000D01*
X133192843Y-121135000D01*
G37*
X133192843Y-121135000D02*
X126250636Y-121135000D01*
X126180120Y-121029465D01*
X125985535Y-120834880D01*
X125756727Y-120681995D01*
X125679485Y-120650000D01*
X125756727Y-120618005D01*
X125985535Y-120465120D01*
X126180120Y-120270535D01*
X126333005Y-120041727D01*
X126438314Y-119787490D01*
X126492000Y-119517592D01*
X126492000Y-119242408D01*
X126438314Y-118972510D01*
X126333005Y-118718273D01*
X126180120Y-118489465D01*
X125985535Y-118294880D01*
X125756727Y-118141995D01*
X125679485Y-118110000D01*
X125756727Y-118078005D01*
X125985535Y-117925120D01*
X126180120Y-117730535D01*
X126333005Y-117501727D01*
X126438314Y-117247490D01*
X126492000Y-116977592D01*
X126492000Y-116702408D01*
X126467238Y-116577920D01*
X126892817Y-116152341D01*
X126922764Y-116127764D01*
X126957452Y-116085498D01*
X126971450Y-116068441D01*
X127020862Y-116008233D01*
X127093754Y-115871860D01*
X127138641Y-115723887D01*
X127150000Y-115608561D01*
X127150000Y-115608554D01*
X127153797Y-115570001D01*
X127150000Y-115531448D01*
X127150000Y-111235100D01*
X143092742Y-111235100D01*
X133192843Y-121135000D01*
G36*
X152527000Y-109093000D02*
G01*
X152547000Y-109093000D01*
X152547000Y-109347000D01*
X152527000Y-109347000D01*
X152527000Y-109367000D01*
X152273000Y-109367000D01*
X152273000Y-109347000D01*
X152253000Y-109347000D01*
X152253000Y-109093000D01*
X152273000Y-109093000D01*
X152273000Y-109073000D01*
X152527000Y-109073000D01*
X152527000Y-109093000D01*
X152527000Y-109093000D01*
G37*
X152527000Y-109093000D02*
X152547000Y-109093000D01*
X152547000Y-109347000D01*
X152527000Y-109347000D01*
X152527000Y-109367000D01*
X152273000Y-109367000D01*
X152273000Y-109347000D01*
X152253000Y-109347000D01*
X152253000Y-109093000D01*
X152273000Y-109093000D01*
X152273000Y-109073000D01*
X152527000Y-109073000D01*
X152527000Y-109093000D01*
G36*
X123842931Y-107516606D02*
G01*
X124030203Y-107744797D01*
X124258394Y-107932069D01*
X124291940Y-107950000D01*
X124258394Y-107967931D01*
X124030203Y-108155203D01*
X123842931Y-108383394D01*
X123819137Y-108427910D01*
X123761817Y-108331512D01*
X123565293Y-108113146D01*
X123351567Y-107953470D01*
X123391606Y-107932069D01*
X123619797Y-107744797D01*
X123807069Y-107516606D01*
X123825000Y-107483060D01*
X123842931Y-107516606D01*
X123842931Y-107516606D01*
G37*
X123842931Y-107516606D02*
X124030203Y-107744797D01*
X124258394Y-107932069D01*
X124291940Y-107950000D01*
X124258394Y-107967931D01*
X124030203Y-108155203D01*
X123842931Y-108383394D01*
X123819137Y-108427910D01*
X123761817Y-108331512D01*
X123565293Y-108113146D01*
X123351567Y-107953470D01*
X123391606Y-107932069D01*
X123619797Y-107744797D01*
X123807069Y-107516606D01*
X123825000Y-107483060D01*
X123842931Y-107516606D01*
M02*
