M48
; DRILL file {KiCad (5.1.2)-2} date 2021/07/01 16:30:20
; FORMAT={2:4/ absolute / inch / suppress leading zeros}
; #@! TF.CreationDate,2021-07-01T16:30:20+09:00
; #@! TF.GenerationSoftware,Kicad,Pcbnew,(5.1.2)-2
FMAT,2
INCH,TZ
T1C0.0157
T2C0.0300
T3C0.0315
T4C0.0354
T5C0.0374
T6C0.0394
T7C0.0400
T8C0.0433
T9C0.1378
%
G90
G05
T1
X52000Y-46250
X52250Y-50250
X54000Y-48250
T2
X49250Y-46000
X49250Y-47000
X49250Y-48000
X49250Y-49000
X49250Y-50000
X49250Y-51000
X49250Y-52000
X49250Y-53000
X49250Y-54000
X49250Y-55000
X49250Y-56000
X49250Y-57000
X49250Y-58000
X49250Y-59000
X55250Y-46000
X55250Y-47000
X55250Y-48000
X55250Y-49000
X55250Y-50000
X55250Y-51000
X55250Y-52000
X55250Y-53000
X55250Y-54000
X55250Y-55000
X55250Y-56000
X55250Y-57000
X55250Y-58000
X55250Y-59000
T3
X43713Y-54000
X44500Y-54000
X50750Y-53250
X50750Y-54250
X50750Y-55250
X50750Y-56250
X53750Y-53250
X53750Y-54250
X53750Y-55250
X53750Y-56250
X46250Y-46250
X47234Y-46250
T4
X46250Y-54750
X47250Y-54750
T5
X45281Y-58000
X46266Y-58000
X47250Y-58000
T6
X58000Y-53750
X58984Y-53750
X58000Y-50250
X58984Y-50250
X43750Y-49500
X43750Y-50484
X62500Y-52016
X62500Y-53000
X55250Y-42000
X55250Y-42984
X62500Y-47516
X62500Y-48500
X58000Y-46750
X58984Y-46750
X58000Y-57750
X58984Y-57750
X61750Y-57750
X62734Y-57750
T7
X66250Y-48250
X66250Y-49250
X66250Y-50250
X66250Y-51250
X66250Y-52250
X67250Y-48250
X67250Y-49250
X67250Y-50250
X67250Y-51250
X67250Y-52250
X59000Y-42000
X59000Y-43000
X60000Y-42000
X60000Y-43000
X61000Y-42000
X61000Y-43000
X62000Y-42000
X62000Y-43000
X63000Y-42000
X63000Y-43000
X47250Y-42000
X47250Y-43000
X48250Y-42000
X48250Y-43000
X49250Y-42000
X49250Y-43000
X50250Y-42000
X50250Y-43000
X51250Y-42000
X51250Y-43000
T8
X47500Y-49500
X47500Y-50500
X47500Y-51500
T9
X67500Y-58500
X67500Y-41750
X42750Y-58500
X42750Y-41750
T0
M30
