M48
; DRILL file {KiCad (5.1.2)-2} date 2021/07/27 9:57:24
; FORMAT={2:4/ absolute / inch / suppress leading zeros}
; #@! TF.CreationDate,2021-07-27T09:57:24+09:00
; #@! TF.GenerationSoftware,Kicad,Pcbnew,(5.1.2)-2
FMAT,2
INCH,TZ
T1C0.0157
T2C0.0300
T3C0.0315
T4C0.0394
%
G90
G05
T1
X16250Y-53000
X17000Y-60000
X20250Y-61500
X23375Y-62125
X23375Y-63125
X23375Y-64125
X23375Y-65125
X25750Y-64250
X25750Y-65500
X28000Y-53750
X30000Y-53750
T2
X24500Y-55000
X24500Y-56000
X24500Y-57000
X24500Y-58000
X24500Y-59000
X24500Y-60000
X24500Y-61000
X24500Y-62000
X24500Y-63000
X24500Y-64000
X24500Y-65000
X24500Y-66000
X24500Y-67000
X24500Y-68000
X30500Y-55000
X30500Y-56000
X30500Y-57000
X30500Y-58000
X30500Y-59000
X30500Y-60000
X30500Y-61000
X30500Y-62000
X30500Y-63000
X30500Y-64000
X30500Y-65000
X30500Y-66000
X30500Y-67000
X30500Y-68000
T3
X17750Y-64000
X21750Y-64000
X18250Y-58750
X18250Y-59750
X18250Y-60750
X18250Y-61750
X21250Y-58750
X21250Y-59750
X21250Y-60750
X21250Y-61750
X33000Y-53750
X33000Y-54750
X33000Y-55750
X33000Y-56750
X33000Y-57750
X33000Y-58750
X33000Y-59750
X33000Y-60750
X33000Y-61750
X33000Y-62750
X33000Y-63750
X33000Y-64750
X33000Y-65750
X33000Y-66750
X33000Y-67750
X39000Y-53750
X39000Y-54750
X39000Y-55750
X39000Y-56750
X39000Y-57750
X39000Y-58750
X39000Y-59750
X39000Y-60750
X39000Y-61750
X39000Y-62750
X39000Y-63750
X39000Y-64750
X39000Y-65750
X39000Y-66750
X39000Y-67750
X16250Y-58250
X16250Y-62250
T4
X20750Y-66750
X21734Y-66750
X19000Y-53000
X19000Y-54000
X19000Y-55000
X19000Y-56000
X20000Y-53000
X20000Y-54000
X20000Y-55000
X20000Y-56000
X16766Y-66750
X17750Y-66750
T0
M30
