G04 #@! TF.GenerationSoftware,KiCad,Pcbnew,(5.1.2)-2*
G04 #@! TF.CreationDate,2021-07-27T09:57:18+09:00*
G04 #@! TF.ProjectId,RIOboard,52494f62-6f61-4726-942e-6b696361645f,rev?*
G04 #@! TF.SameCoordinates,Original*
G04 #@! TF.FileFunction,Copper,L2,Bot*
G04 #@! TF.FilePolarity,Positive*
%FSLAX46Y46*%
G04 Gerber Fmt 4.6, Leading zero omitted, Abs format (unit mm)*
G04 Created by KiCad (PCBNEW (5.1.2)-2) date 2021-07-27 09:57:18*
%MOMM*%
%LPD*%
G04 APERTURE LIST*
%ADD10R,1.600000X1.600000*%
%ADD11O,1.600000X1.600000*%
%ADD12C,1.524000*%
%ADD13C,1.600000*%
%ADD14C,0.100000*%
%ADD15C,1.700000*%
%ADD16O,1.700000X2.000000*%
%ADD17R,1.700000X1.700000*%
%ADD18O,1.700000X1.700000*%
%ADD19C,1.500000*%
%ADD20C,1.800000*%
%ADD21C,0.500000*%
%ADD22C,0.254000*%
G04 APERTURE END LIST*
D10*
X53975000Y-156845000D03*
D11*
X46355000Y-149225000D03*
X53975000Y-154305000D03*
X46355000Y-151765000D03*
X53975000Y-151765000D03*
X46355000Y-154305000D03*
X53975000Y-149225000D03*
X46355000Y-156845000D03*
D12*
X62230000Y-139700000D03*
X62230000Y-142240000D03*
X62230000Y-144780000D03*
X62230000Y-147320000D03*
X62230000Y-149860000D03*
X62230000Y-152400000D03*
X62230000Y-154940000D03*
X62230000Y-157480000D03*
X62230000Y-160020000D03*
X62230000Y-162560000D03*
X62230000Y-165100000D03*
X62230000Y-167640000D03*
X62230000Y-170180000D03*
X62230000Y-172720000D03*
X77470000Y-172720000D03*
X77470000Y-170180000D03*
X77470000Y-167640000D03*
X77470000Y-165100000D03*
X77470000Y-162560000D03*
X77470000Y-160020000D03*
X77470000Y-157480000D03*
X77470000Y-154940000D03*
X77470000Y-152400000D03*
X77470000Y-149860000D03*
X77470000Y-147320000D03*
X77470000Y-144780000D03*
X77470000Y-142240000D03*
X77470000Y-139700000D03*
D13*
X41275000Y-158115000D03*
D11*
X41275000Y-147955000D03*
D13*
X45085000Y-162560000D03*
D11*
X55245000Y-162560000D03*
D14*
G36*
X43209504Y-168546204D02*
G01*
X43233773Y-168549804D01*
X43257571Y-168555765D01*
X43280671Y-168564030D01*
X43302849Y-168574520D01*
X43323893Y-168587133D01*
X43343598Y-168601747D01*
X43361777Y-168618223D01*
X43378253Y-168636402D01*
X43392867Y-168656107D01*
X43405480Y-168677151D01*
X43415970Y-168699329D01*
X43424235Y-168722429D01*
X43430196Y-168746227D01*
X43433796Y-168770496D01*
X43435000Y-168795000D01*
X43435000Y-170295000D01*
X43433796Y-170319504D01*
X43430196Y-170343773D01*
X43424235Y-170367571D01*
X43415970Y-170390671D01*
X43405480Y-170412849D01*
X43392867Y-170433893D01*
X43378253Y-170453598D01*
X43361777Y-170471777D01*
X43343598Y-170488253D01*
X43323893Y-170502867D01*
X43302849Y-170515480D01*
X43280671Y-170525970D01*
X43257571Y-170534235D01*
X43233773Y-170540196D01*
X43209504Y-170543796D01*
X43185000Y-170545000D01*
X41985000Y-170545000D01*
X41960496Y-170543796D01*
X41936227Y-170540196D01*
X41912429Y-170534235D01*
X41889329Y-170525970D01*
X41867151Y-170515480D01*
X41846107Y-170502867D01*
X41826402Y-170488253D01*
X41808223Y-170471777D01*
X41791747Y-170453598D01*
X41777133Y-170433893D01*
X41764520Y-170412849D01*
X41754030Y-170390671D01*
X41745765Y-170367571D01*
X41739804Y-170343773D01*
X41736204Y-170319504D01*
X41735000Y-170295000D01*
X41735000Y-168795000D01*
X41736204Y-168770496D01*
X41739804Y-168746227D01*
X41745765Y-168722429D01*
X41754030Y-168699329D01*
X41764520Y-168677151D01*
X41777133Y-168656107D01*
X41791747Y-168636402D01*
X41808223Y-168618223D01*
X41826402Y-168601747D01*
X41846107Y-168587133D01*
X41867151Y-168574520D01*
X41889329Y-168564030D01*
X41912429Y-168555765D01*
X41936227Y-168549804D01*
X41960496Y-168546204D01*
X41985000Y-168545000D01*
X43185000Y-168545000D01*
X43209504Y-168546204D01*
X43209504Y-168546204D01*
G37*
D15*
X42585000Y-169545000D03*
D16*
X45085000Y-169545000D03*
D14*
G36*
X53329504Y-168546204D02*
G01*
X53353773Y-168549804D01*
X53377571Y-168555765D01*
X53400671Y-168564030D01*
X53422849Y-168574520D01*
X53443893Y-168587133D01*
X53463598Y-168601747D01*
X53481777Y-168618223D01*
X53498253Y-168636402D01*
X53512867Y-168656107D01*
X53525480Y-168677151D01*
X53535970Y-168699329D01*
X53544235Y-168722429D01*
X53550196Y-168746227D01*
X53553796Y-168770496D01*
X53555000Y-168795000D01*
X53555000Y-170295000D01*
X53553796Y-170319504D01*
X53550196Y-170343773D01*
X53544235Y-170367571D01*
X53535970Y-170390671D01*
X53525480Y-170412849D01*
X53512867Y-170433893D01*
X53498253Y-170453598D01*
X53481777Y-170471777D01*
X53463598Y-170488253D01*
X53443893Y-170502867D01*
X53422849Y-170515480D01*
X53400671Y-170525970D01*
X53377571Y-170534235D01*
X53353773Y-170540196D01*
X53329504Y-170543796D01*
X53305000Y-170545000D01*
X52105000Y-170545000D01*
X52080496Y-170543796D01*
X52056227Y-170540196D01*
X52032429Y-170534235D01*
X52009329Y-170525970D01*
X51987151Y-170515480D01*
X51966107Y-170502867D01*
X51946402Y-170488253D01*
X51928223Y-170471777D01*
X51911747Y-170453598D01*
X51897133Y-170433893D01*
X51884520Y-170412849D01*
X51874030Y-170390671D01*
X51865765Y-170367571D01*
X51859804Y-170343773D01*
X51856204Y-170319504D01*
X51855000Y-170295000D01*
X51855000Y-168795000D01*
X51856204Y-168770496D01*
X51859804Y-168746227D01*
X51865765Y-168722429D01*
X51874030Y-168699329D01*
X51884520Y-168677151D01*
X51897133Y-168656107D01*
X51911747Y-168636402D01*
X51928223Y-168618223D01*
X51946402Y-168601747D01*
X51966107Y-168587133D01*
X51987151Y-168574520D01*
X52009329Y-168564030D01*
X52032429Y-168555765D01*
X52056227Y-168549804D01*
X52080496Y-168546204D01*
X52105000Y-168545000D01*
X53305000Y-168545000D01*
X53329504Y-168546204D01*
X53329504Y-168546204D01*
G37*
D15*
X52705000Y-169545000D03*
D16*
X55205000Y-169545000D03*
D17*
X50800000Y-134620000D03*
D18*
X48260000Y-134620000D03*
X50800000Y-137160000D03*
X48260000Y-137160000D03*
X50800000Y-139700000D03*
X48260000Y-139700000D03*
X50800000Y-142240000D03*
X48260000Y-142240000D03*
D14*
G36*
X34681756Y-133236806D02*
G01*
X34718159Y-133242206D01*
X34753857Y-133251147D01*
X34788506Y-133263545D01*
X34821774Y-133279280D01*
X34853339Y-133298199D01*
X34882897Y-133320121D01*
X34910165Y-133344835D01*
X34934879Y-133372103D01*
X34956801Y-133401661D01*
X34975720Y-133433226D01*
X34991455Y-133466494D01*
X35003853Y-133501143D01*
X35012794Y-133536841D01*
X35018194Y-133573244D01*
X35020000Y-133610000D01*
X35020000Y-134360000D01*
X35018194Y-134396756D01*
X35012794Y-134433159D01*
X35003853Y-134468857D01*
X34991455Y-134503506D01*
X34975720Y-134536774D01*
X34956801Y-134568339D01*
X34934879Y-134597897D01*
X34910165Y-134625165D01*
X34882897Y-134649879D01*
X34853339Y-134671801D01*
X34821774Y-134690720D01*
X34788506Y-134706455D01*
X34753857Y-134718853D01*
X34718159Y-134727794D01*
X34681756Y-134733194D01*
X34645000Y-134735000D01*
X31395000Y-134735000D01*
X31358244Y-134733194D01*
X31321841Y-134727794D01*
X31286143Y-134718853D01*
X31251494Y-134706455D01*
X31218226Y-134690720D01*
X31186661Y-134671801D01*
X31157103Y-134649879D01*
X31129835Y-134625165D01*
X31105121Y-134597897D01*
X31083199Y-134568339D01*
X31064280Y-134536774D01*
X31048545Y-134503506D01*
X31036147Y-134468857D01*
X31027206Y-134433159D01*
X31021806Y-134396756D01*
X31020000Y-134360000D01*
X31020000Y-133610000D01*
X31021806Y-133573244D01*
X31027206Y-133536841D01*
X31036147Y-133501143D01*
X31048545Y-133466494D01*
X31064280Y-133433226D01*
X31083199Y-133401661D01*
X31105121Y-133372103D01*
X31129835Y-133344835D01*
X31157103Y-133320121D01*
X31186661Y-133298199D01*
X31218226Y-133279280D01*
X31251494Y-133263545D01*
X31286143Y-133251147D01*
X31321841Y-133242206D01*
X31358244Y-133236806D01*
X31395000Y-133235000D01*
X34645000Y-133235000D01*
X34681756Y-133236806D01*
X34681756Y-133236806D01*
G37*
D19*
X33020000Y-133985000D03*
D14*
G36*
X34681756Y-135776806D02*
G01*
X34718159Y-135782206D01*
X34753857Y-135791147D01*
X34788506Y-135803545D01*
X34821774Y-135819280D01*
X34853339Y-135838199D01*
X34882897Y-135860121D01*
X34910165Y-135884835D01*
X34934879Y-135912103D01*
X34956801Y-135941661D01*
X34975720Y-135973226D01*
X34991455Y-136006494D01*
X35003853Y-136041143D01*
X35012794Y-136076841D01*
X35018194Y-136113244D01*
X35020000Y-136150000D01*
X35020000Y-136900000D01*
X35018194Y-136936756D01*
X35012794Y-136973159D01*
X35003853Y-137008857D01*
X34991455Y-137043506D01*
X34975720Y-137076774D01*
X34956801Y-137108339D01*
X34934879Y-137137897D01*
X34910165Y-137165165D01*
X34882897Y-137189879D01*
X34853339Y-137211801D01*
X34821774Y-137230720D01*
X34788506Y-137246455D01*
X34753857Y-137258853D01*
X34718159Y-137267794D01*
X34681756Y-137273194D01*
X34645000Y-137275000D01*
X31395000Y-137275000D01*
X31358244Y-137273194D01*
X31321841Y-137267794D01*
X31286143Y-137258853D01*
X31251494Y-137246455D01*
X31218226Y-137230720D01*
X31186661Y-137211801D01*
X31157103Y-137189879D01*
X31129835Y-137165165D01*
X31105121Y-137137897D01*
X31083199Y-137108339D01*
X31064280Y-137076774D01*
X31048545Y-137043506D01*
X31036147Y-137008857D01*
X31027206Y-136973159D01*
X31021806Y-136936756D01*
X31020000Y-136900000D01*
X31020000Y-136150000D01*
X31021806Y-136113244D01*
X31027206Y-136076841D01*
X31036147Y-136041143D01*
X31048545Y-136006494D01*
X31064280Y-135973226D01*
X31083199Y-135941661D01*
X31105121Y-135912103D01*
X31129835Y-135884835D01*
X31157103Y-135860121D01*
X31186661Y-135838199D01*
X31218226Y-135819280D01*
X31251494Y-135803545D01*
X31286143Y-135791147D01*
X31321841Y-135782206D01*
X31358244Y-135776806D01*
X31395000Y-135775000D01*
X34645000Y-135775000D01*
X34681756Y-135776806D01*
X34681756Y-135776806D01*
G37*
D19*
X33020000Y-136525000D03*
D14*
G36*
X34681756Y-138316806D02*
G01*
X34718159Y-138322206D01*
X34753857Y-138331147D01*
X34788506Y-138343545D01*
X34821774Y-138359280D01*
X34853339Y-138378199D01*
X34882897Y-138400121D01*
X34910165Y-138424835D01*
X34934879Y-138452103D01*
X34956801Y-138481661D01*
X34975720Y-138513226D01*
X34991455Y-138546494D01*
X35003853Y-138581143D01*
X35012794Y-138616841D01*
X35018194Y-138653244D01*
X35020000Y-138690000D01*
X35020000Y-139440000D01*
X35018194Y-139476756D01*
X35012794Y-139513159D01*
X35003853Y-139548857D01*
X34991455Y-139583506D01*
X34975720Y-139616774D01*
X34956801Y-139648339D01*
X34934879Y-139677897D01*
X34910165Y-139705165D01*
X34882897Y-139729879D01*
X34853339Y-139751801D01*
X34821774Y-139770720D01*
X34788506Y-139786455D01*
X34753857Y-139798853D01*
X34718159Y-139807794D01*
X34681756Y-139813194D01*
X34645000Y-139815000D01*
X31395000Y-139815000D01*
X31358244Y-139813194D01*
X31321841Y-139807794D01*
X31286143Y-139798853D01*
X31251494Y-139786455D01*
X31218226Y-139770720D01*
X31186661Y-139751801D01*
X31157103Y-139729879D01*
X31129835Y-139705165D01*
X31105121Y-139677897D01*
X31083199Y-139648339D01*
X31064280Y-139616774D01*
X31048545Y-139583506D01*
X31036147Y-139548857D01*
X31027206Y-139513159D01*
X31021806Y-139476756D01*
X31020000Y-139440000D01*
X31020000Y-138690000D01*
X31021806Y-138653244D01*
X31027206Y-138616841D01*
X31036147Y-138581143D01*
X31048545Y-138546494D01*
X31064280Y-138513226D01*
X31083199Y-138481661D01*
X31105121Y-138452103D01*
X31129835Y-138424835D01*
X31157103Y-138400121D01*
X31186661Y-138378199D01*
X31218226Y-138359280D01*
X31251494Y-138343545D01*
X31286143Y-138331147D01*
X31321841Y-138322206D01*
X31358244Y-138316806D01*
X31395000Y-138315000D01*
X34645000Y-138315000D01*
X34681756Y-138316806D01*
X34681756Y-138316806D01*
G37*
D19*
X33020000Y-139065000D03*
D14*
G36*
X34681756Y-140856806D02*
G01*
X34718159Y-140862206D01*
X34753857Y-140871147D01*
X34788506Y-140883545D01*
X34821774Y-140899280D01*
X34853339Y-140918199D01*
X34882897Y-140940121D01*
X34910165Y-140964835D01*
X34934879Y-140992103D01*
X34956801Y-141021661D01*
X34975720Y-141053226D01*
X34991455Y-141086494D01*
X35003853Y-141121143D01*
X35012794Y-141156841D01*
X35018194Y-141193244D01*
X35020000Y-141230000D01*
X35020000Y-141980000D01*
X35018194Y-142016756D01*
X35012794Y-142053159D01*
X35003853Y-142088857D01*
X34991455Y-142123506D01*
X34975720Y-142156774D01*
X34956801Y-142188339D01*
X34934879Y-142217897D01*
X34910165Y-142245165D01*
X34882897Y-142269879D01*
X34853339Y-142291801D01*
X34821774Y-142310720D01*
X34788506Y-142326455D01*
X34753857Y-142338853D01*
X34718159Y-142347794D01*
X34681756Y-142353194D01*
X34645000Y-142355000D01*
X31395000Y-142355000D01*
X31358244Y-142353194D01*
X31321841Y-142347794D01*
X31286143Y-142338853D01*
X31251494Y-142326455D01*
X31218226Y-142310720D01*
X31186661Y-142291801D01*
X31157103Y-142269879D01*
X31129835Y-142245165D01*
X31105121Y-142217897D01*
X31083199Y-142188339D01*
X31064280Y-142156774D01*
X31048545Y-142123506D01*
X31036147Y-142088857D01*
X31027206Y-142053159D01*
X31021806Y-142016756D01*
X31020000Y-141980000D01*
X31020000Y-141230000D01*
X31021806Y-141193244D01*
X31027206Y-141156841D01*
X31036147Y-141121143D01*
X31048545Y-141086494D01*
X31064280Y-141053226D01*
X31083199Y-141021661D01*
X31105121Y-140992103D01*
X31129835Y-140964835D01*
X31157103Y-140940121D01*
X31186661Y-140918199D01*
X31218226Y-140899280D01*
X31251494Y-140883545D01*
X31286143Y-140871147D01*
X31321841Y-140862206D01*
X31358244Y-140856806D01*
X31395000Y-140855000D01*
X34645000Y-140855000D01*
X34681756Y-140856806D01*
X34681756Y-140856806D01*
G37*
D19*
X33020000Y-141605000D03*
D14*
G36*
X34681756Y-143396806D02*
G01*
X34718159Y-143402206D01*
X34753857Y-143411147D01*
X34788506Y-143423545D01*
X34821774Y-143439280D01*
X34853339Y-143458199D01*
X34882897Y-143480121D01*
X34910165Y-143504835D01*
X34934879Y-143532103D01*
X34956801Y-143561661D01*
X34975720Y-143593226D01*
X34991455Y-143626494D01*
X35003853Y-143661143D01*
X35012794Y-143696841D01*
X35018194Y-143733244D01*
X35020000Y-143770000D01*
X35020000Y-144520000D01*
X35018194Y-144556756D01*
X35012794Y-144593159D01*
X35003853Y-144628857D01*
X34991455Y-144663506D01*
X34975720Y-144696774D01*
X34956801Y-144728339D01*
X34934879Y-144757897D01*
X34910165Y-144785165D01*
X34882897Y-144809879D01*
X34853339Y-144831801D01*
X34821774Y-144850720D01*
X34788506Y-144866455D01*
X34753857Y-144878853D01*
X34718159Y-144887794D01*
X34681756Y-144893194D01*
X34645000Y-144895000D01*
X31395000Y-144895000D01*
X31358244Y-144893194D01*
X31321841Y-144887794D01*
X31286143Y-144878853D01*
X31251494Y-144866455D01*
X31218226Y-144850720D01*
X31186661Y-144831801D01*
X31157103Y-144809879D01*
X31129835Y-144785165D01*
X31105121Y-144757897D01*
X31083199Y-144728339D01*
X31064280Y-144696774D01*
X31048545Y-144663506D01*
X31036147Y-144628857D01*
X31027206Y-144593159D01*
X31021806Y-144556756D01*
X31020000Y-144520000D01*
X31020000Y-143770000D01*
X31021806Y-143733244D01*
X31027206Y-143696841D01*
X31036147Y-143661143D01*
X31048545Y-143626494D01*
X31064280Y-143593226D01*
X31083199Y-143561661D01*
X31105121Y-143532103D01*
X31129835Y-143504835D01*
X31157103Y-143480121D01*
X31186661Y-143458199D01*
X31218226Y-143439280D01*
X31251494Y-143423545D01*
X31286143Y-143411147D01*
X31321841Y-143402206D01*
X31358244Y-143396806D01*
X31395000Y-143395000D01*
X34645000Y-143395000D01*
X34681756Y-143396806D01*
X34681756Y-143396806D01*
G37*
D19*
X33020000Y-144145000D03*
D14*
G36*
X34681756Y-145936806D02*
G01*
X34718159Y-145942206D01*
X34753857Y-145951147D01*
X34788506Y-145963545D01*
X34821774Y-145979280D01*
X34853339Y-145998199D01*
X34882897Y-146020121D01*
X34910165Y-146044835D01*
X34934879Y-146072103D01*
X34956801Y-146101661D01*
X34975720Y-146133226D01*
X34991455Y-146166494D01*
X35003853Y-146201143D01*
X35012794Y-146236841D01*
X35018194Y-146273244D01*
X35020000Y-146310000D01*
X35020000Y-147060000D01*
X35018194Y-147096756D01*
X35012794Y-147133159D01*
X35003853Y-147168857D01*
X34991455Y-147203506D01*
X34975720Y-147236774D01*
X34956801Y-147268339D01*
X34934879Y-147297897D01*
X34910165Y-147325165D01*
X34882897Y-147349879D01*
X34853339Y-147371801D01*
X34821774Y-147390720D01*
X34788506Y-147406455D01*
X34753857Y-147418853D01*
X34718159Y-147427794D01*
X34681756Y-147433194D01*
X34645000Y-147435000D01*
X31395000Y-147435000D01*
X31358244Y-147433194D01*
X31321841Y-147427794D01*
X31286143Y-147418853D01*
X31251494Y-147406455D01*
X31218226Y-147390720D01*
X31186661Y-147371801D01*
X31157103Y-147349879D01*
X31129835Y-147325165D01*
X31105121Y-147297897D01*
X31083199Y-147268339D01*
X31064280Y-147236774D01*
X31048545Y-147203506D01*
X31036147Y-147168857D01*
X31027206Y-147133159D01*
X31021806Y-147096756D01*
X31020000Y-147060000D01*
X31020000Y-146310000D01*
X31021806Y-146273244D01*
X31027206Y-146236841D01*
X31036147Y-146201143D01*
X31048545Y-146166494D01*
X31064280Y-146133226D01*
X31083199Y-146101661D01*
X31105121Y-146072103D01*
X31129835Y-146044835D01*
X31157103Y-146020121D01*
X31186661Y-145998199D01*
X31218226Y-145979280D01*
X31251494Y-145963545D01*
X31286143Y-145951147D01*
X31321841Y-145942206D01*
X31358244Y-145936806D01*
X31395000Y-145935000D01*
X34645000Y-145935000D01*
X34681756Y-145936806D01*
X34681756Y-145936806D01*
G37*
D19*
X33020000Y-146685000D03*
D14*
G36*
X34681756Y-148476806D02*
G01*
X34718159Y-148482206D01*
X34753857Y-148491147D01*
X34788506Y-148503545D01*
X34821774Y-148519280D01*
X34853339Y-148538199D01*
X34882897Y-148560121D01*
X34910165Y-148584835D01*
X34934879Y-148612103D01*
X34956801Y-148641661D01*
X34975720Y-148673226D01*
X34991455Y-148706494D01*
X35003853Y-148741143D01*
X35012794Y-148776841D01*
X35018194Y-148813244D01*
X35020000Y-148850000D01*
X35020000Y-149600000D01*
X35018194Y-149636756D01*
X35012794Y-149673159D01*
X35003853Y-149708857D01*
X34991455Y-149743506D01*
X34975720Y-149776774D01*
X34956801Y-149808339D01*
X34934879Y-149837897D01*
X34910165Y-149865165D01*
X34882897Y-149889879D01*
X34853339Y-149911801D01*
X34821774Y-149930720D01*
X34788506Y-149946455D01*
X34753857Y-149958853D01*
X34718159Y-149967794D01*
X34681756Y-149973194D01*
X34645000Y-149975000D01*
X31395000Y-149975000D01*
X31358244Y-149973194D01*
X31321841Y-149967794D01*
X31286143Y-149958853D01*
X31251494Y-149946455D01*
X31218226Y-149930720D01*
X31186661Y-149911801D01*
X31157103Y-149889879D01*
X31129835Y-149865165D01*
X31105121Y-149837897D01*
X31083199Y-149808339D01*
X31064280Y-149776774D01*
X31048545Y-149743506D01*
X31036147Y-149708857D01*
X31027206Y-149673159D01*
X31021806Y-149636756D01*
X31020000Y-149600000D01*
X31020000Y-148850000D01*
X31021806Y-148813244D01*
X31027206Y-148776841D01*
X31036147Y-148741143D01*
X31048545Y-148706494D01*
X31064280Y-148673226D01*
X31083199Y-148641661D01*
X31105121Y-148612103D01*
X31129835Y-148584835D01*
X31157103Y-148560121D01*
X31186661Y-148538199D01*
X31218226Y-148519280D01*
X31251494Y-148503545D01*
X31286143Y-148491147D01*
X31321841Y-148482206D01*
X31358244Y-148476806D01*
X31395000Y-148475000D01*
X34645000Y-148475000D01*
X34681756Y-148476806D01*
X34681756Y-148476806D01*
G37*
D19*
X33020000Y-149225000D03*
D14*
G36*
X34681756Y-151016806D02*
G01*
X34718159Y-151022206D01*
X34753857Y-151031147D01*
X34788506Y-151043545D01*
X34821774Y-151059280D01*
X34853339Y-151078199D01*
X34882897Y-151100121D01*
X34910165Y-151124835D01*
X34934879Y-151152103D01*
X34956801Y-151181661D01*
X34975720Y-151213226D01*
X34991455Y-151246494D01*
X35003853Y-151281143D01*
X35012794Y-151316841D01*
X35018194Y-151353244D01*
X35020000Y-151390000D01*
X35020000Y-152140000D01*
X35018194Y-152176756D01*
X35012794Y-152213159D01*
X35003853Y-152248857D01*
X34991455Y-152283506D01*
X34975720Y-152316774D01*
X34956801Y-152348339D01*
X34934879Y-152377897D01*
X34910165Y-152405165D01*
X34882897Y-152429879D01*
X34853339Y-152451801D01*
X34821774Y-152470720D01*
X34788506Y-152486455D01*
X34753857Y-152498853D01*
X34718159Y-152507794D01*
X34681756Y-152513194D01*
X34645000Y-152515000D01*
X31395000Y-152515000D01*
X31358244Y-152513194D01*
X31321841Y-152507794D01*
X31286143Y-152498853D01*
X31251494Y-152486455D01*
X31218226Y-152470720D01*
X31186661Y-152451801D01*
X31157103Y-152429879D01*
X31129835Y-152405165D01*
X31105121Y-152377897D01*
X31083199Y-152348339D01*
X31064280Y-152316774D01*
X31048545Y-152283506D01*
X31036147Y-152248857D01*
X31027206Y-152213159D01*
X31021806Y-152176756D01*
X31020000Y-152140000D01*
X31020000Y-151390000D01*
X31021806Y-151353244D01*
X31027206Y-151316841D01*
X31036147Y-151281143D01*
X31048545Y-151246494D01*
X31064280Y-151213226D01*
X31083199Y-151181661D01*
X31105121Y-151152103D01*
X31129835Y-151124835D01*
X31157103Y-151100121D01*
X31186661Y-151078199D01*
X31218226Y-151059280D01*
X31251494Y-151043545D01*
X31286143Y-151031147D01*
X31321841Y-151022206D01*
X31358244Y-151016806D01*
X31395000Y-151015000D01*
X34645000Y-151015000D01*
X34681756Y-151016806D01*
X34681756Y-151016806D01*
G37*
D19*
X33020000Y-151765000D03*
D14*
G36*
X34681756Y-153556806D02*
G01*
X34718159Y-153562206D01*
X34753857Y-153571147D01*
X34788506Y-153583545D01*
X34821774Y-153599280D01*
X34853339Y-153618199D01*
X34882897Y-153640121D01*
X34910165Y-153664835D01*
X34934879Y-153692103D01*
X34956801Y-153721661D01*
X34975720Y-153753226D01*
X34991455Y-153786494D01*
X35003853Y-153821143D01*
X35012794Y-153856841D01*
X35018194Y-153893244D01*
X35020000Y-153930000D01*
X35020000Y-154680000D01*
X35018194Y-154716756D01*
X35012794Y-154753159D01*
X35003853Y-154788857D01*
X34991455Y-154823506D01*
X34975720Y-154856774D01*
X34956801Y-154888339D01*
X34934879Y-154917897D01*
X34910165Y-154945165D01*
X34882897Y-154969879D01*
X34853339Y-154991801D01*
X34821774Y-155010720D01*
X34788506Y-155026455D01*
X34753857Y-155038853D01*
X34718159Y-155047794D01*
X34681756Y-155053194D01*
X34645000Y-155055000D01*
X31395000Y-155055000D01*
X31358244Y-155053194D01*
X31321841Y-155047794D01*
X31286143Y-155038853D01*
X31251494Y-155026455D01*
X31218226Y-155010720D01*
X31186661Y-154991801D01*
X31157103Y-154969879D01*
X31129835Y-154945165D01*
X31105121Y-154917897D01*
X31083199Y-154888339D01*
X31064280Y-154856774D01*
X31048545Y-154823506D01*
X31036147Y-154788857D01*
X31027206Y-154753159D01*
X31021806Y-154716756D01*
X31020000Y-154680000D01*
X31020000Y-153930000D01*
X31021806Y-153893244D01*
X31027206Y-153856841D01*
X31036147Y-153821143D01*
X31048545Y-153786494D01*
X31064280Y-153753226D01*
X31083199Y-153721661D01*
X31105121Y-153692103D01*
X31129835Y-153664835D01*
X31157103Y-153640121D01*
X31186661Y-153618199D01*
X31218226Y-153599280D01*
X31251494Y-153583545D01*
X31286143Y-153571147D01*
X31321841Y-153562206D01*
X31358244Y-153556806D01*
X31395000Y-153555000D01*
X34645000Y-153555000D01*
X34681756Y-153556806D01*
X34681756Y-153556806D01*
G37*
D19*
X33020000Y-154305000D03*
D14*
G36*
X34681756Y-156096806D02*
G01*
X34718159Y-156102206D01*
X34753857Y-156111147D01*
X34788506Y-156123545D01*
X34821774Y-156139280D01*
X34853339Y-156158199D01*
X34882897Y-156180121D01*
X34910165Y-156204835D01*
X34934879Y-156232103D01*
X34956801Y-156261661D01*
X34975720Y-156293226D01*
X34991455Y-156326494D01*
X35003853Y-156361143D01*
X35012794Y-156396841D01*
X35018194Y-156433244D01*
X35020000Y-156470000D01*
X35020000Y-157220000D01*
X35018194Y-157256756D01*
X35012794Y-157293159D01*
X35003853Y-157328857D01*
X34991455Y-157363506D01*
X34975720Y-157396774D01*
X34956801Y-157428339D01*
X34934879Y-157457897D01*
X34910165Y-157485165D01*
X34882897Y-157509879D01*
X34853339Y-157531801D01*
X34821774Y-157550720D01*
X34788506Y-157566455D01*
X34753857Y-157578853D01*
X34718159Y-157587794D01*
X34681756Y-157593194D01*
X34645000Y-157595000D01*
X31395000Y-157595000D01*
X31358244Y-157593194D01*
X31321841Y-157587794D01*
X31286143Y-157578853D01*
X31251494Y-157566455D01*
X31218226Y-157550720D01*
X31186661Y-157531801D01*
X31157103Y-157509879D01*
X31129835Y-157485165D01*
X31105121Y-157457897D01*
X31083199Y-157428339D01*
X31064280Y-157396774D01*
X31048545Y-157363506D01*
X31036147Y-157328857D01*
X31027206Y-157293159D01*
X31021806Y-157256756D01*
X31020000Y-157220000D01*
X31020000Y-156470000D01*
X31021806Y-156433244D01*
X31027206Y-156396841D01*
X31036147Y-156361143D01*
X31048545Y-156326494D01*
X31064280Y-156293226D01*
X31083199Y-156261661D01*
X31105121Y-156232103D01*
X31129835Y-156204835D01*
X31157103Y-156180121D01*
X31186661Y-156158199D01*
X31218226Y-156139280D01*
X31251494Y-156123545D01*
X31286143Y-156111147D01*
X31321841Y-156102206D01*
X31358244Y-156096806D01*
X31395000Y-156095000D01*
X34645000Y-156095000D01*
X34681756Y-156096806D01*
X34681756Y-156096806D01*
G37*
D19*
X33020000Y-156845000D03*
D14*
G36*
X34681756Y-158636806D02*
G01*
X34718159Y-158642206D01*
X34753857Y-158651147D01*
X34788506Y-158663545D01*
X34821774Y-158679280D01*
X34853339Y-158698199D01*
X34882897Y-158720121D01*
X34910165Y-158744835D01*
X34934879Y-158772103D01*
X34956801Y-158801661D01*
X34975720Y-158833226D01*
X34991455Y-158866494D01*
X35003853Y-158901143D01*
X35012794Y-158936841D01*
X35018194Y-158973244D01*
X35020000Y-159010000D01*
X35020000Y-159760000D01*
X35018194Y-159796756D01*
X35012794Y-159833159D01*
X35003853Y-159868857D01*
X34991455Y-159903506D01*
X34975720Y-159936774D01*
X34956801Y-159968339D01*
X34934879Y-159997897D01*
X34910165Y-160025165D01*
X34882897Y-160049879D01*
X34853339Y-160071801D01*
X34821774Y-160090720D01*
X34788506Y-160106455D01*
X34753857Y-160118853D01*
X34718159Y-160127794D01*
X34681756Y-160133194D01*
X34645000Y-160135000D01*
X31395000Y-160135000D01*
X31358244Y-160133194D01*
X31321841Y-160127794D01*
X31286143Y-160118853D01*
X31251494Y-160106455D01*
X31218226Y-160090720D01*
X31186661Y-160071801D01*
X31157103Y-160049879D01*
X31129835Y-160025165D01*
X31105121Y-159997897D01*
X31083199Y-159968339D01*
X31064280Y-159936774D01*
X31048545Y-159903506D01*
X31036147Y-159868857D01*
X31027206Y-159833159D01*
X31021806Y-159796756D01*
X31020000Y-159760000D01*
X31020000Y-159010000D01*
X31021806Y-158973244D01*
X31027206Y-158936841D01*
X31036147Y-158901143D01*
X31048545Y-158866494D01*
X31064280Y-158833226D01*
X31083199Y-158801661D01*
X31105121Y-158772103D01*
X31129835Y-158744835D01*
X31157103Y-158720121D01*
X31186661Y-158698199D01*
X31218226Y-158679280D01*
X31251494Y-158663545D01*
X31286143Y-158651147D01*
X31321841Y-158642206D01*
X31358244Y-158636806D01*
X31395000Y-158635000D01*
X34645000Y-158635000D01*
X34681756Y-158636806D01*
X34681756Y-158636806D01*
G37*
D19*
X33020000Y-159385000D03*
D14*
G36*
X34681756Y-161176806D02*
G01*
X34718159Y-161182206D01*
X34753857Y-161191147D01*
X34788506Y-161203545D01*
X34821774Y-161219280D01*
X34853339Y-161238199D01*
X34882897Y-161260121D01*
X34910165Y-161284835D01*
X34934879Y-161312103D01*
X34956801Y-161341661D01*
X34975720Y-161373226D01*
X34991455Y-161406494D01*
X35003853Y-161441143D01*
X35012794Y-161476841D01*
X35018194Y-161513244D01*
X35020000Y-161550000D01*
X35020000Y-162300000D01*
X35018194Y-162336756D01*
X35012794Y-162373159D01*
X35003853Y-162408857D01*
X34991455Y-162443506D01*
X34975720Y-162476774D01*
X34956801Y-162508339D01*
X34934879Y-162537897D01*
X34910165Y-162565165D01*
X34882897Y-162589879D01*
X34853339Y-162611801D01*
X34821774Y-162630720D01*
X34788506Y-162646455D01*
X34753857Y-162658853D01*
X34718159Y-162667794D01*
X34681756Y-162673194D01*
X34645000Y-162675000D01*
X31395000Y-162675000D01*
X31358244Y-162673194D01*
X31321841Y-162667794D01*
X31286143Y-162658853D01*
X31251494Y-162646455D01*
X31218226Y-162630720D01*
X31186661Y-162611801D01*
X31157103Y-162589879D01*
X31129835Y-162565165D01*
X31105121Y-162537897D01*
X31083199Y-162508339D01*
X31064280Y-162476774D01*
X31048545Y-162443506D01*
X31036147Y-162408857D01*
X31027206Y-162373159D01*
X31021806Y-162336756D01*
X31020000Y-162300000D01*
X31020000Y-161550000D01*
X31021806Y-161513244D01*
X31027206Y-161476841D01*
X31036147Y-161441143D01*
X31048545Y-161406494D01*
X31064280Y-161373226D01*
X31083199Y-161341661D01*
X31105121Y-161312103D01*
X31129835Y-161284835D01*
X31157103Y-161260121D01*
X31186661Y-161238199D01*
X31218226Y-161219280D01*
X31251494Y-161203545D01*
X31286143Y-161191147D01*
X31321841Y-161182206D01*
X31358244Y-161176806D01*
X31395000Y-161175000D01*
X34645000Y-161175000D01*
X34681756Y-161176806D01*
X34681756Y-161176806D01*
G37*
D19*
X33020000Y-161925000D03*
D14*
G36*
X34681756Y-163716806D02*
G01*
X34718159Y-163722206D01*
X34753857Y-163731147D01*
X34788506Y-163743545D01*
X34821774Y-163759280D01*
X34853339Y-163778199D01*
X34882897Y-163800121D01*
X34910165Y-163824835D01*
X34934879Y-163852103D01*
X34956801Y-163881661D01*
X34975720Y-163913226D01*
X34991455Y-163946494D01*
X35003853Y-163981143D01*
X35012794Y-164016841D01*
X35018194Y-164053244D01*
X35020000Y-164090000D01*
X35020000Y-164840000D01*
X35018194Y-164876756D01*
X35012794Y-164913159D01*
X35003853Y-164948857D01*
X34991455Y-164983506D01*
X34975720Y-165016774D01*
X34956801Y-165048339D01*
X34934879Y-165077897D01*
X34910165Y-165105165D01*
X34882897Y-165129879D01*
X34853339Y-165151801D01*
X34821774Y-165170720D01*
X34788506Y-165186455D01*
X34753857Y-165198853D01*
X34718159Y-165207794D01*
X34681756Y-165213194D01*
X34645000Y-165215000D01*
X31395000Y-165215000D01*
X31358244Y-165213194D01*
X31321841Y-165207794D01*
X31286143Y-165198853D01*
X31251494Y-165186455D01*
X31218226Y-165170720D01*
X31186661Y-165151801D01*
X31157103Y-165129879D01*
X31129835Y-165105165D01*
X31105121Y-165077897D01*
X31083199Y-165048339D01*
X31064280Y-165016774D01*
X31048545Y-164983506D01*
X31036147Y-164948857D01*
X31027206Y-164913159D01*
X31021806Y-164876756D01*
X31020000Y-164840000D01*
X31020000Y-164090000D01*
X31021806Y-164053244D01*
X31027206Y-164016841D01*
X31036147Y-163981143D01*
X31048545Y-163946494D01*
X31064280Y-163913226D01*
X31083199Y-163881661D01*
X31105121Y-163852103D01*
X31129835Y-163824835D01*
X31157103Y-163800121D01*
X31186661Y-163778199D01*
X31218226Y-163759280D01*
X31251494Y-163743545D01*
X31286143Y-163731147D01*
X31321841Y-163722206D01*
X31358244Y-163716806D01*
X31395000Y-163715000D01*
X34645000Y-163715000D01*
X34681756Y-163716806D01*
X34681756Y-163716806D01*
G37*
D19*
X33020000Y-164465000D03*
D14*
G36*
X34681756Y-166256806D02*
G01*
X34718159Y-166262206D01*
X34753857Y-166271147D01*
X34788506Y-166283545D01*
X34821774Y-166299280D01*
X34853339Y-166318199D01*
X34882897Y-166340121D01*
X34910165Y-166364835D01*
X34934879Y-166392103D01*
X34956801Y-166421661D01*
X34975720Y-166453226D01*
X34991455Y-166486494D01*
X35003853Y-166521143D01*
X35012794Y-166556841D01*
X35018194Y-166593244D01*
X35020000Y-166630000D01*
X35020000Y-167380000D01*
X35018194Y-167416756D01*
X35012794Y-167453159D01*
X35003853Y-167488857D01*
X34991455Y-167523506D01*
X34975720Y-167556774D01*
X34956801Y-167588339D01*
X34934879Y-167617897D01*
X34910165Y-167645165D01*
X34882897Y-167669879D01*
X34853339Y-167691801D01*
X34821774Y-167710720D01*
X34788506Y-167726455D01*
X34753857Y-167738853D01*
X34718159Y-167747794D01*
X34681756Y-167753194D01*
X34645000Y-167755000D01*
X31395000Y-167755000D01*
X31358244Y-167753194D01*
X31321841Y-167747794D01*
X31286143Y-167738853D01*
X31251494Y-167726455D01*
X31218226Y-167710720D01*
X31186661Y-167691801D01*
X31157103Y-167669879D01*
X31129835Y-167645165D01*
X31105121Y-167617897D01*
X31083199Y-167588339D01*
X31064280Y-167556774D01*
X31048545Y-167523506D01*
X31036147Y-167488857D01*
X31027206Y-167453159D01*
X31021806Y-167416756D01*
X31020000Y-167380000D01*
X31020000Y-166630000D01*
X31021806Y-166593244D01*
X31027206Y-166556841D01*
X31036147Y-166521143D01*
X31048545Y-166486494D01*
X31064280Y-166453226D01*
X31083199Y-166421661D01*
X31105121Y-166392103D01*
X31129835Y-166364835D01*
X31157103Y-166340121D01*
X31186661Y-166318199D01*
X31218226Y-166299280D01*
X31251494Y-166283545D01*
X31286143Y-166271147D01*
X31321841Y-166262206D01*
X31358244Y-166256806D01*
X31395000Y-166255000D01*
X34645000Y-166255000D01*
X34681756Y-166256806D01*
X34681756Y-166256806D01*
G37*
D19*
X33020000Y-167005000D03*
D14*
G36*
X34681756Y-168796806D02*
G01*
X34718159Y-168802206D01*
X34753857Y-168811147D01*
X34788506Y-168823545D01*
X34821774Y-168839280D01*
X34853339Y-168858199D01*
X34882897Y-168880121D01*
X34910165Y-168904835D01*
X34934879Y-168932103D01*
X34956801Y-168961661D01*
X34975720Y-168993226D01*
X34991455Y-169026494D01*
X35003853Y-169061143D01*
X35012794Y-169096841D01*
X35018194Y-169133244D01*
X35020000Y-169170000D01*
X35020000Y-169920000D01*
X35018194Y-169956756D01*
X35012794Y-169993159D01*
X35003853Y-170028857D01*
X34991455Y-170063506D01*
X34975720Y-170096774D01*
X34956801Y-170128339D01*
X34934879Y-170157897D01*
X34910165Y-170185165D01*
X34882897Y-170209879D01*
X34853339Y-170231801D01*
X34821774Y-170250720D01*
X34788506Y-170266455D01*
X34753857Y-170278853D01*
X34718159Y-170287794D01*
X34681756Y-170293194D01*
X34645000Y-170295000D01*
X31395000Y-170295000D01*
X31358244Y-170293194D01*
X31321841Y-170287794D01*
X31286143Y-170278853D01*
X31251494Y-170266455D01*
X31218226Y-170250720D01*
X31186661Y-170231801D01*
X31157103Y-170209879D01*
X31129835Y-170185165D01*
X31105121Y-170157897D01*
X31083199Y-170128339D01*
X31064280Y-170096774D01*
X31048545Y-170063506D01*
X31036147Y-170028857D01*
X31027206Y-169993159D01*
X31021806Y-169956756D01*
X31020000Y-169920000D01*
X31020000Y-169170000D01*
X31021806Y-169133244D01*
X31027206Y-169096841D01*
X31036147Y-169061143D01*
X31048545Y-169026494D01*
X31064280Y-168993226D01*
X31083199Y-168961661D01*
X31105121Y-168932103D01*
X31129835Y-168904835D01*
X31157103Y-168880121D01*
X31186661Y-168858199D01*
X31218226Y-168839280D01*
X31251494Y-168823545D01*
X31286143Y-168811147D01*
X31321841Y-168802206D01*
X31358244Y-168796806D01*
X31395000Y-168795000D01*
X34645000Y-168795000D01*
X34681756Y-168796806D01*
X34681756Y-168796806D01*
G37*
D19*
X33020000Y-169545000D03*
D14*
G36*
X34681756Y-171336806D02*
G01*
X34718159Y-171342206D01*
X34753857Y-171351147D01*
X34788506Y-171363545D01*
X34821774Y-171379280D01*
X34853339Y-171398199D01*
X34882897Y-171420121D01*
X34910165Y-171444835D01*
X34934879Y-171472103D01*
X34956801Y-171501661D01*
X34975720Y-171533226D01*
X34991455Y-171566494D01*
X35003853Y-171601143D01*
X35012794Y-171636841D01*
X35018194Y-171673244D01*
X35020000Y-171710000D01*
X35020000Y-172460000D01*
X35018194Y-172496756D01*
X35012794Y-172533159D01*
X35003853Y-172568857D01*
X34991455Y-172603506D01*
X34975720Y-172636774D01*
X34956801Y-172668339D01*
X34934879Y-172697897D01*
X34910165Y-172725165D01*
X34882897Y-172749879D01*
X34853339Y-172771801D01*
X34821774Y-172790720D01*
X34788506Y-172806455D01*
X34753857Y-172818853D01*
X34718159Y-172827794D01*
X34681756Y-172833194D01*
X34645000Y-172835000D01*
X31395000Y-172835000D01*
X31358244Y-172833194D01*
X31321841Y-172827794D01*
X31286143Y-172818853D01*
X31251494Y-172806455D01*
X31218226Y-172790720D01*
X31186661Y-172771801D01*
X31157103Y-172749879D01*
X31129835Y-172725165D01*
X31105121Y-172697897D01*
X31083199Y-172668339D01*
X31064280Y-172636774D01*
X31048545Y-172603506D01*
X31036147Y-172568857D01*
X31027206Y-172533159D01*
X31021806Y-172496756D01*
X31020000Y-172460000D01*
X31020000Y-171710000D01*
X31021806Y-171673244D01*
X31027206Y-171636841D01*
X31036147Y-171601143D01*
X31048545Y-171566494D01*
X31064280Y-171533226D01*
X31083199Y-171501661D01*
X31105121Y-171472103D01*
X31129835Y-171444835D01*
X31157103Y-171420121D01*
X31186661Y-171398199D01*
X31218226Y-171379280D01*
X31251494Y-171363545D01*
X31286143Y-171351147D01*
X31321841Y-171342206D01*
X31358244Y-171336806D01*
X31395000Y-171335000D01*
X34645000Y-171335000D01*
X34681756Y-171336806D01*
X34681756Y-171336806D01*
G37*
D19*
X33020000Y-172085000D03*
D14*
G36*
X34681756Y-173876806D02*
G01*
X34718159Y-173882206D01*
X34753857Y-173891147D01*
X34788506Y-173903545D01*
X34821774Y-173919280D01*
X34853339Y-173938199D01*
X34882897Y-173960121D01*
X34910165Y-173984835D01*
X34934879Y-174012103D01*
X34956801Y-174041661D01*
X34975720Y-174073226D01*
X34991455Y-174106494D01*
X35003853Y-174141143D01*
X35012794Y-174176841D01*
X35018194Y-174213244D01*
X35020000Y-174250000D01*
X35020000Y-175000000D01*
X35018194Y-175036756D01*
X35012794Y-175073159D01*
X35003853Y-175108857D01*
X34991455Y-175143506D01*
X34975720Y-175176774D01*
X34956801Y-175208339D01*
X34934879Y-175237897D01*
X34910165Y-175265165D01*
X34882897Y-175289879D01*
X34853339Y-175311801D01*
X34821774Y-175330720D01*
X34788506Y-175346455D01*
X34753857Y-175358853D01*
X34718159Y-175367794D01*
X34681756Y-175373194D01*
X34645000Y-175375000D01*
X31395000Y-175375000D01*
X31358244Y-175373194D01*
X31321841Y-175367794D01*
X31286143Y-175358853D01*
X31251494Y-175346455D01*
X31218226Y-175330720D01*
X31186661Y-175311801D01*
X31157103Y-175289879D01*
X31129835Y-175265165D01*
X31105121Y-175237897D01*
X31083199Y-175208339D01*
X31064280Y-175176774D01*
X31048545Y-175143506D01*
X31036147Y-175108857D01*
X31027206Y-175073159D01*
X31021806Y-175036756D01*
X31020000Y-175000000D01*
X31020000Y-174250000D01*
X31021806Y-174213244D01*
X31027206Y-174176841D01*
X31036147Y-174141143D01*
X31048545Y-174106494D01*
X31064280Y-174073226D01*
X31083199Y-174041661D01*
X31105121Y-174012103D01*
X31129835Y-173984835D01*
X31157103Y-173960121D01*
X31186661Y-173938199D01*
X31218226Y-173919280D01*
X31251494Y-173903545D01*
X31286143Y-173891147D01*
X31321841Y-173882206D01*
X31358244Y-173876806D01*
X31395000Y-173875000D01*
X34645000Y-173875000D01*
X34681756Y-173876806D01*
X34681756Y-173876806D01*
G37*
D19*
X33020000Y-174625000D03*
D10*
X83820000Y-136525000D03*
D11*
X99060000Y-169545000D03*
X83820000Y-139065000D03*
X99060000Y-167005000D03*
X83820000Y-141605000D03*
X99060000Y-164465000D03*
X83820000Y-144145000D03*
X99060000Y-161925000D03*
X83820000Y-146685000D03*
X99060000Y-159385000D03*
X83820000Y-149225000D03*
X99060000Y-156845000D03*
X83820000Y-151765000D03*
X99060000Y-154305000D03*
X83820000Y-154305000D03*
X99060000Y-151765000D03*
X83820000Y-156845000D03*
X99060000Y-149225000D03*
X83820000Y-159385000D03*
X99060000Y-146685000D03*
X83820000Y-161925000D03*
X99060000Y-144145000D03*
X83820000Y-164465000D03*
X99060000Y-141605000D03*
X83820000Y-167005000D03*
X99060000Y-139065000D03*
X83820000Y-169545000D03*
X99060000Y-136525000D03*
X83820000Y-172085000D03*
X99060000Y-172085000D03*
D20*
X41275000Y-134620000D03*
X43180000Y-152400000D03*
X51435000Y-156210000D03*
X59372500Y-165417500D03*
X59372500Y-162877500D03*
X59372500Y-160337500D03*
X59372500Y-157797500D03*
X71120000Y-136525000D03*
X65405000Y-163195000D03*
X65405000Y-166370000D03*
X76200000Y-136525000D03*
D21*
X54774999Y-150965001D02*
X53975000Y-151765000D01*
X55714990Y-148966988D02*
X55714990Y-150025010D01*
X54198242Y-147450240D02*
X55714990Y-148966988D01*
X51398238Y-147450240D02*
X54198242Y-147450240D01*
X55714990Y-150025010D02*
X54774999Y-150965001D01*
X46859999Y-140204999D02*
X46859999Y-142912001D01*
X41275000Y-134620000D02*
X46859999Y-140204999D01*
X57827001Y-138387999D02*
X50081499Y-146133501D01*
X77470000Y-139700000D02*
X76157999Y-138387999D01*
X46859999Y-142912001D02*
X50081499Y-146133501D01*
X50081499Y-146133501D02*
X51398238Y-147450240D01*
X67110999Y-138387999D02*
X71513998Y-133985000D01*
X64812001Y-138387999D02*
X67110999Y-138387999D01*
X64812001Y-138387999D02*
X57827001Y-138387999D01*
X76157999Y-138387999D02*
X64812001Y-138387999D01*
X101307687Y-141897313D02*
X99060000Y-144145000D01*
X99708001Y-135174999D02*
X101307687Y-136774685D01*
X99614999Y-135174999D02*
X99708001Y-135174999D01*
X98425000Y-133985000D02*
X99614999Y-135174999D01*
X101307687Y-136774685D02*
X98518002Y-133985000D01*
X101307687Y-138137687D02*
X101307687Y-136774685D01*
X98518002Y-133985000D02*
X95250000Y-133985000D01*
X101307687Y-138137687D02*
X101307687Y-141897313D01*
X71513998Y-133985000D02*
X95250000Y-133985000D01*
X95250000Y-133985000D02*
X98425000Y-133985000D01*
X52705000Y-162560000D02*
X55245000Y-162560000D01*
X51435000Y-161290000D02*
X52705000Y-162560000D01*
X51435000Y-154940000D02*
X51435000Y-161290000D01*
X53975000Y-154305000D02*
X52070000Y-154305000D01*
X52070000Y-154305000D02*
X51435000Y-154940000D01*
X62230000Y-139700000D02*
X67945000Y-139700000D01*
X70485000Y-142240000D02*
X77470000Y-142240000D01*
X67945000Y-139700000D02*
X70485000Y-142240000D01*
X77470000Y-142240000D02*
X80010000Y-142240000D01*
X81915000Y-144145000D02*
X83820000Y-144145000D01*
X80010000Y-142240000D02*
X81915000Y-144145000D01*
X88900000Y-139065000D02*
X99060000Y-139065000D01*
X83820000Y-144145000D02*
X88900000Y-139065000D01*
X62230000Y-139700000D02*
X56515000Y-145415000D01*
X56515000Y-151765000D02*
X55880000Y-152400000D01*
X56515000Y-145415000D02*
X56515000Y-151765000D01*
X53975000Y-154305000D02*
X55880000Y-152400000D01*
X36830000Y-167005000D02*
X33020000Y-167005000D01*
X36830000Y-162560000D02*
X36830000Y-167005000D01*
X36830000Y-167005000D02*
X36830000Y-168910000D01*
X36830000Y-168910000D02*
X36195000Y-169545000D01*
X36195000Y-169545000D02*
X33020000Y-169545000D01*
X33020000Y-156845000D02*
X36195000Y-156845000D01*
X36195000Y-156845000D02*
X36830000Y-157480000D01*
X36830000Y-157480000D02*
X36830000Y-161925000D01*
X36830000Y-161925000D02*
X36830000Y-162560000D01*
X35120000Y-161925000D02*
X36830000Y-161925000D01*
X33020000Y-161925000D02*
X35120000Y-161925000D01*
X33020000Y-139065000D02*
X33020000Y-141605000D01*
X43180000Y-152400000D02*
X43180000Y-152400000D01*
X39924999Y-149144999D02*
X43180000Y-152400000D01*
X39924999Y-147306999D02*
X39924999Y-149144999D01*
X38701500Y-146083500D02*
X39924999Y-147306999D01*
X38701500Y-143476500D02*
X38701500Y-146083500D01*
X36830000Y-141605000D02*
X38701500Y-143476500D01*
X33020000Y-141605000D02*
X36830000Y-141605000D01*
X62230000Y-162560000D02*
X61468001Y-163321999D01*
X61468001Y-163321999D02*
X59372500Y-165417500D01*
X62230000Y-160020000D02*
X59372500Y-162877500D01*
X37630010Y-150660010D02*
X36195000Y-149225000D01*
X37630010Y-171615010D02*
X37630010Y-150660010D01*
X41275000Y-175260000D02*
X37630010Y-171615010D01*
X64135000Y-175260000D02*
X41275000Y-175260000D01*
X66675000Y-172720000D02*
X64135000Y-175260000D01*
X36195000Y-149225000D02*
X33020000Y-149225000D01*
X62230000Y-142240000D02*
X66675000Y-146685000D01*
X66675000Y-146685000D02*
X66675000Y-156845000D01*
X66675000Y-156845000D02*
X69850000Y-160020000D01*
X69850000Y-160020000D02*
X69850000Y-168910000D01*
X69850000Y-168910000D02*
X66675000Y-172085000D01*
X66675000Y-172085000D02*
X66675000Y-172720000D01*
X62230000Y-157480000D02*
X59372500Y-160337500D01*
X62230000Y-154940000D02*
X61468001Y-155701999D01*
X61468001Y-155701999D02*
X59372500Y-157797500D01*
X59372500Y-157797500D02*
X59055000Y-158115000D01*
X35120000Y-144145000D02*
X33020000Y-144145000D01*
X64092999Y-174032001D02*
X41178385Y-174032001D01*
X65405000Y-172720000D02*
X64092999Y-174032001D01*
X62230000Y-144780000D02*
X65405000Y-147955000D01*
X65405000Y-147955000D02*
X65405000Y-158115000D01*
X41178385Y-174032001D02*
X38430020Y-171283636D01*
X65405000Y-158115000D02*
X68580000Y-161290000D01*
X38430020Y-147455020D02*
X35120000Y-144145000D01*
X38430020Y-171283636D02*
X38430020Y-147455020D01*
X68580000Y-161290000D02*
X68580000Y-168910000D01*
X68580000Y-168910000D02*
X65405000Y-172085000D01*
X65405000Y-172085000D02*
X65405000Y-172720000D01*
X42545000Y-158115000D02*
X46355000Y-154305000D01*
X41275000Y-158115000D02*
X42545000Y-158115000D01*
X45085000Y-169695000D02*
X45085000Y-169545000D01*
X43684990Y-171095010D02*
X45085000Y-169695000D01*
X41653622Y-171095010D02*
X43684990Y-171095010D01*
X40005000Y-169446388D02*
X41653622Y-171095010D01*
X40005000Y-159385000D02*
X40005000Y-169446388D01*
X41275000Y-158115000D02*
X40005000Y-159385000D01*
X45085000Y-169545000D02*
X46355000Y-170815000D01*
X46635010Y-171095010D02*
X46355000Y-170815000D01*
X53804990Y-171095010D02*
X46635010Y-171095010D01*
X55205000Y-169695000D02*
X53804990Y-171095010D01*
X55205000Y-169545000D02*
X55205000Y-169695000D01*
X42545000Y-147955000D02*
X46355000Y-151765000D01*
X41275000Y-147955000D02*
X42545000Y-147955000D01*
X46355000Y-151765000D02*
X48260000Y-153670000D01*
X48260000Y-163830000D02*
X48280000Y-163850000D01*
X48260000Y-153670000D02*
X48260000Y-163830000D01*
X51799447Y-168639447D02*
X47645000Y-164485000D01*
X52705000Y-169545000D02*
X51799447Y-168639447D01*
X42585000Y-169545000D02*
X47645000Y-164485000D01*
X47645000Y-164485000D02*
X48280000Y-163850000D01*
X46355000Y-161290000D02*
X45085000Y-162560000D01*
X46355000Y-156845000D02*
X46355000Y-161290000D01*
X49530000Y-153670000D02*
X53975000Y-149225000D01*
X62230000Y-152400000D02*
X57150000Y-157480000D01*
X57150000Y-157480000D02*
X57150000Y-163195000D01*
X57150000Y-163195000D02*
X55880000Y-164465000D01*
X55880000Y-164465000D02*
X50800000Y-164465000D01*
X50800000Y-164465000D02*
X49530000Y-163195000D01*
X49530000Y-163195000D02*
X49530000Y-153670000D01*
X59690000Y-149860000D02*
X62230000Y-149860000D01*
X57785000Y-151765000D02*
X59690000Y-149860000D01*
X57785000Y-154335000D02*
X57785000Y-151765000D01*
X55275000Y-156845000D02*
X57785000Y-154335000D01*
X53975000Y-156845000D02*
X55275000Y-156845000D01*
X62991999Y-164338001D02*
X64261999Y-164338001D01*
X62230000Y-165100000D02*
X62991999Y-164338001D01*
X64261999Y-164338001D02*
X65405000Y-163195000D01*
X65405000Y-163195000D02*
X65405000Y-163195000D01*
X82520000Y-136525000D02*
X83820000Y-136525000D01*
X81069999Y-135074999D02*
X82520000Y-136525000D01*
X75503999Y-135074999D02*
X81069999Y-135074999D01*
X74053998Y-136525000D02*
X75503999Y-135074999D01*
X71120000Y-136525000D02*
X74053998Y-136525000D01*
X62991999Y-166878001D02*
X64896999Y-166878001D01*
X62230000Y-167640000D02*
X62991999Y-166878001D01*
X64896999Y-166878001D02*
X65405000Y-166370000D01*
X65405000Y-166370000D02*
X65405000Y-166370000D01*
X76200000Y-136525000D02*
X78740000Y-136525000D01*
X78740000Y-136525000D02*
X81280000Y-139065000D01*
X81280000Y-139065000D02*
X83820000Y-139065000D01*
X78231999Y-161798001D02*
X77470000Y-162560000D01*
X78782001Y-161247999D02*
X78231999Y-161798001D01*
X78782001Y-150591629D02*
X78782001Y-161247999D01*
X82688630Y-146685000D02*
X78782001Y-150591629D01*
X83820000Y-146685000D02*
X82688630Y-146685000D01*
X83820000Y-149225000D02*
X80010000Y-153035000D01*
X80010000Y-162560000D02*
X77470000Y-165100000D01*
X80010000Y-153035000D02*
X80010000Y-162560000D01*
X77470000Y-167640000D02*
X81280000Y-163830000D01*
X81280000Y-154305000D02*
X83820000Y-151765000D01*
X81280000Y-163830000D02*
X81280000Y-154305000D01*
X82469999Y-155655001D02*
X83820000Y-154305000D01*
X82469999Y-165180001D02*
X82469999Y-155655001D01*
X77470000Y-170180000D02*
X82469999Y-165180001D01*
D22*
G36*
X101206204Y-133401815D02*
G01*
X101438226Y-133471867D01*
X101652222Y-133585650D01*
X101840041Y-133738832D01*
X101994530Y-133925577D01*
X102109801Y-134138769D01*
X102181472Y-134370300D01*
X102210000Y-134641725D01*
X102210001Y-173957712D01*
X102183185Y-174231205D01*
X102113133Y-174463226D01*
X101999350Y-174677222D01*
X101846169Y-174865039D01*
X101659424Y-175019529D01*
X101446231Y-175134802D01*
X101214701Y-175206472D01*
X100943276Y-175235000D01*
X65411578Y-175235000D01*
X67270049Y-173376530D01*
X67303817Y-173348817D01*
X67414411Y-173214059D01*
X67496589Y-173060313D01*
X67547195Y-172893490D01*
X67560000Y-172763477D01*
X67560000Y-172763467D01*
X67564281Y-172720001D01*
X67560000Y-172676535D01*
X67560000Y-172451578D01*
X70445049Y-169566530D01*
X70478817Y-169538817D01*
X70518992Y-169489865D01*
X70589410Y-169404060D01*
X70589411Y-169404059D01*
X70671589Y-169250313D01*
X70722195Y-169083490D01*
X70735000Y-168953477D01*
X70735000Y-168953467D01*
X70739281Y-168910001D01*
X70735000Y-168866534D01*
X70735000Y-160063466D01*
X70739281Y-160019999D01*
X70735000Y-159976533D01*
X70735000Y-159976523D01*
X70722195Y-159846510D01*
X70671589Y-159679687D01*
X70589411Y-159525941D01*
X70478817Y-159391183D01*
X70445050Y-159363471D01*
X67560000Y-156478422D01*
X67560000Y-146728465D01*
X67564281Y-146684999D01*
X67560000Y-146641533D01*
X67560000Y-146641523D01*
X67547195Y-146511510D01*
X67496589Y-146344687D01*
X67414411Y-146190941D01*
X67361917Y-146126977D01*
X67331532Y-146089953D01*
X67331530Y-146089951D01*
X67303817Y-146056183D01*
X67270050Y-146028472D01*
X63625701Y-142384123D01*
X63627000Y-142377592D01*
X63627000Y-142102408D01*
X63573314Y-141832510D01*
X63468005Y-141578273D01*
X63315120Y-141349465D01*
X63120535Y-141154880D01*
X62891727Y-141001995D01*
X62814485Y-140970000D01*
X62891727Y-140938005D01*
X63120535Y-140785120D01*
X63315120Y-140590535D01*
X63318818Y-140585000D01*
X67578422Y-140585000D01*
X69828470Y-142835049D01*
X69856183Y-142868817D01*
X69889951Y-142896530D01*
X69889953Y-142896532D01*
X69927884Y-142927661D01*
X69990941Y-142979411D01*
X70144687Y-143061589D01*
X70311510Y-143112195D01*
X70441523Y-143125000D01*
X70441533Y-143125000D01*
X70484999Y-143129281D01*
X70528465Y-143125000D01*
X76381182Y-143125000D01*
X76384880Y-143130535D01*
X76579465Y-143325120D01*
X76808273Y-143478005D01*
X76885515Y-143510000D01*
X76808273Y-143541995D01*
X76579465Y-143694880D01*
X76384880Y-143889465D01*
X76231995Y-144118273D01*
X76126686Y-144372510D01*
X76073000Y-144642408D01*
X76073000Y-144917592D01*
X76126686Y-145187490D01*
X76231995Y-145441727D01*
X76384880Y-145670535D01*
X76579465Y-145865120D01*
X76808273Y-146018005D01*
X76885515Y-146050000D01*
X76808273Y-146081995D01*
X76579465Y-146234880D01*
X76384880Y-146429465D01*
X76231995Y-146658273D01*
X76126686Y-146912510D01*
X76073000Y-147182408D01*
X76073000Y-147457592D01*
X76126686Y-147727490D01*
X76231995Y-147981727D01*
X76384880Y-148210535D01*
X76579465Y-148405120D01*
X76808273Y-148558005D01*
X76885515Y-148590000D01*
X76808273Y-148621995D01*
X76579465Y-148774880D01*
X76384880Y-148969465D01*
X76231995Y-149198273D01*
X76126686Y-149452510D01*
X76073000Y-149722408D01*
X76073000Y-149997592D01*
X76126686Y-150267490D01*
X76231995Y-150521727D01*
X76384880Y-150750535D01*
X76579465Y-150945120D01*
X76808273Y-151098005D01*
X76885515Y-151130000D01*
X76808273Y-151161995D01*
X76579465Y-151314880D01*
X76384880Y-151509465D01*
X76231995Y-151738273D01*
X76126686Y-151992510D01*
X76073000Y-152262408D01*
X76073000Y-152537592D01*
X76126686Y-152807490D01*
X76231995Y-153061727D01*
X76384880Y-153290535D01*
X76579465Y-153485120D01*
X76808273Y-153638005D01*
X76885515Y-153670000D01*
X76808273Y-153701995D01*
X76579465Y-153854880D01*
X76384880Y-154049465D01*
X76231995Y-154278273D01*
X76126686Y-154532510D01*
X76073000Y-154802408D01*
X76073000Y-155077592D01*
X76126686Y-155347490D01*
X76231995Y-155601727D01*
X76384880Y-155830535D01*
X76579465Y-156025120D01*
X76808273Y-156178005D01*
X76885515Y-156210000D01*
X76808273Y-156241995D01*
X76579465Y-156394880D01*
X76384880Y-156589465D01*
X76231995Y-156818273D01*
X76126686Y-157072510D01*
X76073000Y-157342408D01*
X76073000Y-157617592D01*
X76126686Y-157887490D01*
X76231995Y-158141727D01*
X76384880Y-158370535D01*
X76579465Y-158565120D01*
X76808273Y-158718005D01*
X76885515Y-158750000D01*
X76808273Y-158781995D01*
X76579465Y-158934880D01*
X76384880Y-159129465D01*
X76231995Y-159358273D01*
X76126686Y-159612510D01*
X76073000Y-159882408D01*
X76073000Y-160157592D01*
X76126686Y-160427490D01*
X76231995Y-160681727D01*
X76384880Y-160910535D01*
X76579465Y-161105120D01*
X76808273Y-161258005D01*
X76885515Y-161290000D01*
X76808273Y-161321995D01*
X76579465Y-161474880D01*
X76384880Y-161669465D01*
X76231995Y-161898273D01*
X76126686Y-162152510D01*
X76073000Y-162422408D01*
X76073000Y-162697592D01*
X76126686Y-162967490D01*
X76231995Y-163221727D01*
X76384880Y-163450535D01*
X76579465Y-163645120D01*
X76808273Y-163798005D01*
X76885515Y-163830000D01*
X76808273Y-163861995D01*
X76579465Y-164014880D01*
X76384880Y-164209465D01*
X76231995Y-164438273D01*
X76126686Y-164692510D01*
X76073000Y-164962408D01*
X76073000Y-165237592D01*
X76126686Y-165507490D01*
X76231995Y-165761727D01*
X76384880Y-165990535D01*
X76579465Y-166185120D01*
X76808273Y-166338005D01*
X76885515Y-166370000D01*
X76808273Y-166401995D01*
X76579465Y-166554880D01*
X76384880Y-166749465D01*
X76231995Y-166978273D01*
X76126686Y-167232510D01*
X76073000Y-167502408D01*
X76073000Y-167777592D01*
X76126686Y-168047490D01*
X76231995Y-168301727D01*
X76384880Y-168530535D01*
X76579465Y-168725120D01*
X76808273Y-168878005D01*
X76885515Y-168910000D01*
X76808273Y-168941995D01*
X76579465Y-169094880D01*
X76384880Y-169289465D01*
X76231995Y-169518273D01*
X76126686Y-169772510D01*
X76073000Y-170042408D01*
X76073000Y-170317592D01*
X76126686Y-170587490D01*
X76231995Y-170841727D01*
X76384880Y-171070535D01*
X76579465Y-171265120D01*
X76808273Y-171418005D01*
X76885515Y-171450000D01*
X76808273Y-171481995D01*
X76579465Y-171634880D01*
X76384880Y-171829465D01*
X76231995Y-172058273D01*
X76126686Y-172312510D01*
X76073000Y-172582408D01*
X76073000Y-172857592D01*
X76126686Y-173127490D01*
X76231995Y-173381727D01*
X76384880Y-173610535D01*
X76579465Y-173805120D01*
X76808273Y-173958005D01*
X77062510Y-174063314D01*
X77332408Y-174117000D01*
X77607592Y-174117000D01*
X77877490Y-174063314D01*
X78131727Y-173958005D01*
X78360535Y-173805120D01*
X78555120Y-173610535D01*
X78708005Y-173381727D01*
X78813314Y-173127490D01*
X78867000Y-172857592D01*
X78867000Y-172582408D01*
X78813314Y-172312510D01*
X78708005Y-172058273D01*
X78555120Y-171829465D01*
X78360535Y-171634880D01*
X78131727Y-171481995D01*
X78054485Y-171450000D01*
X78131727Y-171418005D01*
X78360535Y-171265120D01*
X78555120Y-171070535D01*
X78708005Y-170841727D01*
X78813314Y-170587490D01*
X78867000Y-170317592D01*
X78867000Y-170042408D01*
X78865701Y-170035877D01*
X82533096Y-166368483D01*
X82487818Y-166453192D01*
X82405764Y-166723691D01*
X82378057Y-167005000D01*
X82405764Y-167286309D01*
X82487818Y-167556808D01*
X82621068Y-167806101D01*
X82800392Y-168024608D01*
X83018899Y-168203932D01*
X83151858Y-168275000D01*
X83018899Y-168346068D01*
X82800392Y-168525392D01*
X82621068Y-168743899D01*
X82487818Y-168993192D01*
X82405764Y-169263691D01*
X82378057Y-169545000D01*
X82405764Y-169826309D01*
X82487818Y-170096808D01*
X82621068Y-170346101D01*
X82800392Y-170564608D01*
X83018899Y-170743932D01*
X83151858Y-170815000D01*
X83018899Y-170886068D01*
X82800392Y-171065392D01*
X82621068Y-171283899D01*
X82487818Y-171533192D01*
X82405764Y-171803691D01*
X82378057Y-172085000D01*
X82405764Y-172366309D01*
X82487818Y-172636808D01*
X82621068Y-172886101D01*
X82800392Y-173104608D01*
X83018899Y-173283932D01*
X83268192Y-173417182D01*
X83538691Y-173499236D01*
X83749508Y-173520000D01*
X83890492Y-173520000D01*
X84101309Y-173499236D01*
X84371808Y-173417182D01*
X84621101Y-173283932D01*
X84839608Y-173104608D01*
X85018932Y-172886101D01*
X85152182Y-172636808D01*
X85234236Y-172366309D01*
X85261943Y-172085000D01*
X85234236Y-171803691D01*
X85152182Y-171533192D01*
X85018932Y-171283899D01*
X84839608Y-171065392D01*
X84621101Y-170886068D01*
X84488142Y-170815000D01*
X84621101Y-170743932D01*
X84839608Y-170564608D01*
X85018932Y-170346101D01*
X85152182Y-170096808D01*
X85234236Y-169826309D01*
X85261943Y-169545000D01*
X85234236Y-169263691D01*
X85152182Y-168993192D01*
X85018932Y-168743899D01*
X84839608Y-168525392D01*
X84621101Y-168346068D01*
X84488142Y-168275000D01*
X84621101Y-168203932D01*
X84839608Y-168024608D01*
X85018932Y-167806101D01*
X85152182Y-167556808D01*
X85234236Y-167286309D01*
X85261943Y-167005000D01*
X85234236Y-166723691D01*
X85152182Y-166453192D01*
X85018932Y-166203899D01*
X84839608Y-165985392D01*
X84621101Y-165806068D01*
X84488142Y-165735000D01*
X84621101Y-165663932D01*
X84839608Y-165484608D01*
X85018932Y-165266101D01*
X85152182Y-165016808D01*
X85234236Y-164746309D01*
X85261943Y-164465000D01*
X85234236Y-164183691D01*
X85152182Y-163913192D01*
X85018932Y-163663899D01*
X84839608Y-163445392D01*
X84621101Y-163266068D01*
X84488142Y-163195000D01*
X84621101Y-163123932D01*
X84839608Y-162944608D01*
X85018932Y-162726101D01*
X85152182Y-162476808D01*
X85234236Y-162206309D01*
X85261943Y-161925000D01*
X85234236Y-161643691D01*
X85152182Y-161373192D01*
X85018932Y-161123899D01*
X84839608Y-160905392D01*
X84621101Y-160726068D01*
X84488142Y-160655000D01*
X84621101Y-160583932D01*
X84839608Y-160404608D01*
X85018932Y-160186101D01*
X85152182Y-159936808D01*
X85234236Y-159666309D01*
X85261943Y-159385000D01*
X85234236Y-159103691D01*
X85152182Y-158833192D01*
X85018932Y-158583899D01*
X84839608Y-158365392D01*
X84621101Y-158186068D01*
X84488142Y-158115000D01*
X84621101Y-158043932D01*
X84839608Y-157864608D01*
X85018932Y-157646101D01*
X85152182Y-157396808D01*
X85234236Y-157126309D01*
X85261943Y-156845000D01*
X85234236Y-156563691D01*
X85152182Y-156293192D01*
X85018932Y-156043899D01*
X84839608Y-155825392D01*
X84621101Y-155646068D01*
X84488142Y-155575000D01*
X84621101Y-155503932D01*
X84839608Y-155324608D01*
X85018932Y-155106101D01*
X85152182Y-154856808D01*
X85234236Y-154586309D01*
X85261943Y-154305000D01*
X85234236Y-154023691D01*
X85152182Y-153753192D01*
X85018932Y-153503899D01*
X84839608Y-153285392D01*
X84621101Y-153106068D01*
X84488142Y-153035000D01*
X84621101Y-152963932D01*
X84839608Y-152784608D01*
X85018932Y-152566101D01*
X85152182Y-152316808D01*
X85234236Y-152046309D01*
X85261943Y-151765000D01*
X85234236Y-151483691D01*
X85152182Y-151213192D01*
X85018932Y-150963899D01*
X84839608Y-150745392D01*
X84621101Y-150566068D01*
X84488142Y-150495000D01*
X84621101Y-150423932D01*
X84839608Y-150244608D01*
X85018932Y-150026101D01*
X85152182Y-149776808D01*
X85234236Y-149506309D01*
X85261943Y-149225000D01*
X85234236Y-148943691D01*
X85152182Y-148673192D01*
X85018932Y-148423899D01*
X84839608Y-148205392D01*
X84621101Y-148026068D01*
X84488142Y-147955000D01*
X84621101Y-147883932D01*
X84839608Y-147704608D01*
X85018932Y-147486101D01*
X85152182Y-147236808D01*
X85234236Y-146966309D01*
X85261943Y-146685000D01*
X85234236Y-146403691D01*
X85152182Y-146133192D01*
X85018932Y-145883899D01*
X84839608Y-145665392D01*
X84621101Y-145486068D01*
X84488142Y-145415000D01*
X84621101Y-145343932D01*
X84839608Y-145164608D01*
X85018932Y-144946101D01*
X85152182Y-144696808D01*
X85234236Y-144426309D01*
X85261943Y-144145000D01*
X85244875Y-143971704D01*
X89266579Y-139950000D01*
X97929922Y-139950000D01*
X98040392Y-140084608D01*
X98258899Y-140263932D01*
X98391858Y-140335000D01*
X98258899Y-140406068D01*
X98040392Y-140585392D01*
X97861068Y-140803899D01*
X97727818Y-141053192D01*
X97645764Y-141323691D01*
X97618057Y-141605000D01*
X97645764Y-141886309D01*
X97727818Y-142156808D01*
X97861068Y-142406101D01*
X98040392Y-142624608D01*
X98258899Y-142803932D01*
X98391858Y-142875000D01*
X98258899Y-142946068D01*
X98040392Y-143125392D01*
X97861068Y-143343899D01*
X97727818Y-143593192D01*
X97645764Y-143863691D01*
X97618057Y-144145000D01*
X97645764Y-144426309D01*
X97727818Y-144696808D01*
X97861068Y-144946101D01*
X98040392Y-145164608D01*
X98258899Y-145343932D01*
X98391858Y-145415000D01*
X98258899Y-145486068D01*
X98040392Y-145665392D01*
X97861068Y-145883899D01*
X97727818Y-146133192D01*
X97645764Y-146403691D01*
X97618057Y-146685000D01*
X97645764Y-146966309D01*
X97727818Y-147236808D01*
X97861068Y-147486101D01*
X98040392Y-147704608D01*
X98258899Y-147883932D01*
X98391858Y-147955000D01*
X98258899Y-148026068D01*
X98040392Y-148205392D01*
X97861068Y-148423899D01*
X97727818Y-148673192D01*
X97645764Y-148943691D01*
X97618057Y-149225000D01*
X97645764Y-149506309D01*
X97727818Y-149776808D01*
X97861068Y-150026101D01*
X98040392Y-150244608D01*
X98258899Y-150423932D01*
X98391858Y-150495000D01*
X98258899Y-150566068D01*
X98040392Y-150745392D01*
X97861068Y-150963899D01*
X97727818Y-151213192D01*
X97645764Y-151483691D01*
X97618057Y-151765000D01*
X97645764Y-152046309D01*
X97727818Y-152316808D01*
X97861068Y-152566101D01*
X98040392Y-152784608D01*
X98258899Y-152963932D01*
X98391858Y-153035000D01*
X98258899Y-153106068D01*
X98040392Y-153285392D01*
X97861068Y-153503899D01*
X97727818Y-153753192D01*
X97645764Y-154023691D01*
X97618057Y-154305000D01*
X97645764Y-154586309D01*
X97727818Y-154856808D01*
X97861068Y-155106101D01*
X98040392Y-155324608D01*
X98258899Y-155503932D01*
X98391858Y-155575000D01*
X98258899Y-155646068D01*
X98040392Y-155825392D01*
X97861068Y-156043899D01*
X97727818Y-156293192D01*
X97645764Y-156563691D01*
X97618057Y-156845000D01*
X97645764Y-157126309D01*
X97727818Y-157396808D01*
X97861068Y-157646101D01*
X98040392Y-157864608D01*
X98258899Y-158043932D01*
X98391858Y-158115000D01*
X98258899Y-158186068D01*
X98040392Y-158365392D01*
X97861068Y-158583899D01*
X97727818Y-158833192D01*
X97645764Y-159103691D01*
X97618057Y-159385000D01*
X97645764Y-159666309D01*
X97727818Y-159936808D01*
X97861068Y-160186101D01*
X98040392Y-160404608D01*
X98258899Y-160583932D01*
X98391858Y-160655000D01*
X98258899Y-160726068D01*
X98040392Y-160905392D01*
X97861068Y-161123899D01*
X97727818Y-161373192D01*
X97645764Y-161643691D01*
X97618057Y-161925000D01*
X97645764Y-162206309D01*
X97727818Y-162476808D01*
X97861068Y-162726101D01*
X98040392Y-162944608D01*
X98258899Y-163123932D01*
X98391858Y-163195000D01*
X98258899Y-163266068D01*
X98040392Y-163445392D01*
X97861068Y-163663899D01*
X97727818Y-163913192D01*
X97645764Y-164183691D01*
X97618057Y-164465000D01*
X97645764Y-164746309D01*
X97727818Y-165016808D01*
X97861068Y-165266101D01*
X98040392Y-165484608D01*
X98258899Y-165663932D01*
X98391858Y-165735000D01*
X98258899Y-165806068D01*
X98040392Y-165985392D01*
X97861068Y-166203899D01*
X97727818Y-166453192D01*
X97645764Y-166723691D01*
X97618057Y-167005000D01*
X97645764Y-167286309D01*
X97727818Y-167556808D01*
X97861068Y-167806101D01*
X98040392Y-168024608D01*
X98258899Y-168203932D01*
X98391858Y-168275000D01*
X98258899Y-168346068D01*
X98040392Y-168525392D01*
X97861068Y-168743899D01*
X97727818Y-168993192D01*
X97645764Y-169263691D01*
X97618057Y-169545000D01*
X97645764Y-169826309D01*
X97727818Y-170096808D01*
X97861068Y-170346101D01*
X98040392Y-170564608D01*
X98258899Y-170743932D01*
X98391858Y-170815000D01*
X98258899Y-170886068D01*
X98040392Y-171065392D01*
X97861068Y-171283899D01*
X97727818Y-171533192D01*
X97645764Y-171803691D01*
X97618057Y-172085000D01*
X97645764Y-172366309D01*
X97727818Y-172636808D01*
X97861068Y-172886101D01*
X98040392Y-173104608D01*
X98258899Y-173283932D01*
X98508192Y-173417182D01*
X98778691Y-173499236D01*
X98989508Y-173520000D01*
X99130492Y-173520000D01*
X99341309Y-173499236D01*
X99611808Y-173417182D01*
X99861101Y-173283932D01*
X100079608Y-173104608D01*
X100258932Y-172886101D01*
X100392182Y-172636808D01*
X100474236Y-172366309D01*
X100501943Y-172085000D01*
X100474236Y-171803691D01*
X100392182Y-171533192D01*
X100258932Y-171283899D01*
X100079608Y-171065392D01*
X99861101Y-170886068D01*
X99728142Y-170815000D01*
X99861101Y-170743932D01*
X100079608Y-170564608D01*
X100258932Y-170346101D01*
X100392182Y-170096808D01*
X100474236Y-169826309D01*
X100501943Y-169545000D01*
X100474236Y-169263691D01*
X100392182Y-168993192D01*
X100258932Y-168743899D01*
X100079608Y-168525392D01*
X99861101Y-168346068D01*
X99728142Y-168275000D01*
X99861101Y-168203932D01*
X100079608Y-168024608D01*
X100258932Y-167806101D01*
X100392182Y-167556808D01*
X100474236Y-167286309D01*
X100501943Y-167005000D01*
X100474236Y-166723691D01*
X100392182Y-166453192D01*
X100258932Y-166203899D01*
X100079608Y-165985392D01*
X99861101Y-165806068D01*
X99728142Y-165735000D01*
X99861101Y-165663932D01*
X100079608Y-165484608D01*
X100258932Y-165266101D01*
X100392182Y-165016808D01*
X100474236Y-164746309D01*
X100501943Y-164465000D01*
X100474236Y-164183691D01*
X100392182Y-163913192D01*
X100258932Y-163663899D01*
X100079608Y-163445392D01*
X99861101Y-163266068D01*
X99728142Y-163195000D01*
X99861101Y-163123932D01*
X100079608Y-162944608D01*
X100258932Y-162726101D01*
X100392182Y-162476808D01*
X100474236Y-162206309D01*
X100501943Y-161925000D01*
X100474236Y-161643691D01*
X100392182Y-161373192D01*
X100258932Y-161123899D01*
X100079608Y-160905392D01*
X99861101Y-160726068D01*
X99728142Y-160655000D01*
X99861101Y-160583932D01*
X100079608Y-160404608D01*
X100258932Y-160186101D01*
X100392182Y-159936808D01*
X100474236Y-159666309D01*
X100501943Y-159385000D01*
X100474236Y-159103691D01*
X100392182Y-158833192D01*
X100258932Y-158583899D01*
X100079608Y-158365392D01*
X99861101Y-158186068D01*
X99728142Y-158115000D01*
X99861101Y-158043932D01*
X100079608Y-157864608D01*
X100258932Y-157646101D01*
X100392182Y-157396808D01*
X100474236Y-157126309D01*
X100501943Y-156845000D01*
X100474236Y-156563691D01*
X100392182Y-156293192D01*
X100258932Y-156043899D01*
X100079608Y-155825392D01*
X99861101Y-155646068D01*
X99728142Y-155575000D01*
X99861101Y-155503932D01*
X100079608Y-155324608D01*
X100258932Y-155106101D01*
X100392182Y-154856808D01*
X100474236Y-154586309D01*
X100501943Y-154305000D01*
X100474236Y-154023691D01*
X100392182Y-153753192D01*
X100258932Y-153503899D01*
X100079608Y-153285392D01*
X99861101Y-153106068D01*
X99728142Y-153035000D01*
X99861101Y-152963932D01*
X100079608Y-152784608D01*
X100258932Y-152566101D01*
X100392182Y-152316808D01*
X100474236Y-152046309D01*
X100501943Y-151765000D01*
X100474236Y-151483691D01*
X100392182Y-151213192D01*
X100258932Y-150963899D01*
X100079608Y-150745392D01*
X99861101Y-150566068D01*
X99728142Y-150495000D01*
X99861101Y-150423932D01*
X100079608Y-150244608D01*
X100258932Y-150026101D01*
X100392182Y-149776808D01*
X100474236Y-149506309D01*
X100501943Y-149225000D01*
X100474236Y-148943691D01*
X100392182Y-148673192D01*
X100258932Y-148423899D01*
X100079608Y-148205392D01*
X99861101Y-148026068D01*
X99728142Y-147955000D01*
X99861101Y-147883932D01*
X100079608Y-147704608D01*
X100258932Y-147486101D01*
X100392182Y-147236808D01*
X100474236Y-146966309D01*
X100501943Y-146685000D01*
X100474236Y-146403691D01*
X100392182Y-146133192D01*
X100258932Y-145883899D01*
X100079608Y-145665392D01*
X99861101Y-145486068D01*
X99728142Y-145415000D01*
X99861101Y-145343932D01*
X100079608Y-145164608D01*
X100258932Y-144946101D01*
X100392182Y-144696808D01*
X100474236Y-144426309D01*
X100501943Y-144145000D01*
X100484875Y-143971704D01*
X101902736Y-142553843D01*
X101936504Y-142526130D01*
X101966156Y-142490000D01*
X102047097Y-142391373D01*
X102059758Y-142367686D01*
X102129276Y-142237626D01*
X102179882Y-142070803D01*
X102192687Y-141940790D01*
X102192687Y-141940780D01*
X102196968Y-141897314D01*
X102192687Y-141853848D01*
X102192687Y-136818154D01*
X102196968Y-136774685D01*
X102192687Y-136731216D01*
X102192687Y-136731208D01*
X102179882Y-136601195D01*
X102129276Y-136434372D01*
X102129276Y-136434371D01*
X102047098Y-136280626D01*
X101964219Y-136179638D01*
X101964217Y-136179636D01*
X101936504Y-136145868D01*
X101902736Y-136118155D01*
X101138187Y-135353606D01*
X100364533Y-134579953D01*
X100336818Y-134546182D01*
X100303047Y-134518467D01*
X99174536Y-133389956D01*
X99162262Y-133375000D01*
X100932723Y-133375000D01*
X101206204Y-133401815D01*
X101206204Y-133401815D01*
G37*
X101206204Y-133401815D02*
X101438226Y-133471867D01*
X101652222Y-133585650D01*
X101840041Y-133738832D01*
X101994530Y-133925577D01*
X102109801Y-134138769D01*
X102181472Y-134370300D01*
X102210000Y-134641725D01*
X102210001Y-173957712D01*
X102183185Y-174231205D01*
X102113133Y-174463226D01*
X101999350Y-174677222D01*
X101846169Y-174865039D01*
X101659424Y-175019529D01*
X101446231Y-175134802D01*
X101214701Y-175206472D01*
X100943276Y-175235000D01*
X65411578Y-175235000D01*
X67270049Y-173376530D01*
X67303817Y-173348817D01*
X67414411Y-173214059D01*
X67496589Y-173060313D01*
X67547195Y-172893490D01*
X67560000Y-172763477D01*
X67560000Y-172763467D01*
X67564281Y-172720001D01*
X67560000Y-172676535D01*
X67560000Y-172451578D01*
X70445049Y-169566530D01*
X70478817Y-169538817D01*
X70518992Y-169489865D01*
X70589410Y-169404060D01*
X70589411Y-169404059D01*
X70671589Y-169250313D01*
X70722195Y-169083490D01*
X70735000Y-168953477D01*
X70735000Y-168953467D01*
X70739281Y-168910001D01*
X70735000Y-168866534D01*
X70735000Y-160063466D01*
X70739281Y-160019999D01*
X70735000Y-159976533D01*
X70735000Y-159976523D01*
X70722195Y-159846510D01*
X70671589Y-159679687D01*
X70589411Y-159525941D01*
X70478817Y-159391183D01*
X70445050Y-159363471D01*
X67560000Y-156478422D01*
X67560000Y-146728465D01*
X67564281Y-146684999D01*
X67560000Y-146641533D01*
X67560000Y-146641523D01*
X67547195Y-146511510D01*
X67496589Y-146344687D01*
X67414411Y-146190941D01*
X67361917Y-146126977D01*
X67331532Y-146089953D01*
X67331530Y-146089951D01*
X67303817Y-146056183D01*
X67270050Y-146028472D01*
X63625701Y-142384123D01*
X63627000Y-142377592D01*
X63627000Y-142102408D01*
X63573314Y-141832510D01*
X63468005Y-141578273D01*
X63315120Y-141349465D01*
X63120535Y-141154880D01*
X62891727Y-141001995D01*
X62814485Y-140970000D01*
X62891727Y-140938005D01*
X63120535Y-140785120D01*
X63315120Y-140590535D01*
X63318818Y-140585000D01*
X67578422Y-140585000D01*
X69828470Y-142835049D01*
X69856183Y-142868817D01*
X69889951Y-142896530D01*
X69889953Y-142896532D01*
X69927884Y-142927661D01*
X69990941Y-142979411D01*
X70144687Y-143061589D01*
X70311510Y-143112195D01*
X70441523Y-143125000D01*
X70441533Y-143125000D01*
X70484999Y-143129281D01*
X70528465Y-143125000D01*
X76381182Y-143125000D01*
X76384880Y-143130535D01*
X76579465Y-143325120D01*
X76808273Y-143478005D01*
X76885515Y-143510000D01*
X76808273Y-143541995D01*
X76579465Y-143694880D01*
X76384880Y-143889465D01*
X76231995Y-144118273D01*
X76126686Y-144372510D01*
X76073000Y-144642408D01*
X76073000Y-144917592D01*
X76126686Y-145187490D01*
X76231995Y-145441727D01*
X76384880Y-145670535D01*
X76579465Y-145865120D01*
X76808273Y-146018005D01*
X76885515Y-146050000D01*
X76808273Y-146081995D01*
X76579465Y-146234880D01*
X76384880Y-146429465D01*
X76231995Y-146658273D01*
X76126686Y-146912510D01*
X76073000Y-147182408D01*
X76073000Y-147457592D01*
X76126686Y-147727490D01*
X76231995Y-147981727D01*
X76384880Y-148210535D01*
X76579465Y-148405120D01*
X76808273Y-148558005D01*
X76885515Y-148590000D01*
X76808273Y-148621995D01*
X76579465Y-148774880D01*
X76384880Y-148969465D01*
X76231995Y-149198273D01*
X76126686Y-149452510D01*
X76073000Y-149722408D01*
X76073000Y-149997592D01*
X76126686Y-150267490D01*
X76231995Y-150521727D01*
X76384880Y-150750535D01*
X76579465Y-150945120D01*
X76808273Y-151098005D01*
X76885515Y-151130000D01*
X76808273Y-151161995D01*
X76579465Y-151314880D01*
X76384880Y-151509465D01*
X76231995Y-151738273D01*
X76126686Y-151992510D01*
X76073000Y-152262408D01*
X76073000Y-152537592D01*
X76126686Y-152807490D01*
X76231995Y-153061727D01*
X76384880Y-153290535D01*
X76579465Y-153485120D01*
X76808273Y-153638005D01*
X76885515Y-153670000D01*
X76808273Y-153701995D01*
X76579465Y-153854880D01*
X76384880Y-154049465D01*
X76231995Y-154278273D01*
X76126686Y-154532510D01*
X76073000Y-154802408D01*
X76073000Y-155077592D01*
X76126686Y-155347490D01*
X76231995Y-155601727D01*
X76384880Y-155830535D01*
X76579465Y-156025120D01*
X76808273Y-156178005D01*
X76885515Y-156210000D01*
X76808273Y-156241995D01*
X76579465Y-156394880D01*
X76384880Y-156589465D01*
X76231995Y-156818273D01*
X76126686Y-157072510D01*
X76073000Y-157342408D01*
X76073000Y-157617592D01*
X76126686Y-157887490D01*
X76231995Y-158141727D01*
X76384880Y-158370535D01*
X76579465Y-158565120D01*
X76808273Y-158718005D01*
X76885515Y-158750000D01*
X76808273Y-158781995D01*
X76579465Y-158934880D01*
X76384880Y-159129465D01*
X76231995Y-159358273D01*
X76126686Y-159612510D01*
X76073000Y-159882408D01*
X76073000Y-160157592D01*
X76126686Y-160427490D01*
X76231995Y-160681727D01*
X76384880Y-160910535D01*
X76579465Y-161105120D01*
X76808273Y-161258005D01*
X76885515Y-161290000D01*
X76808273Y-161321995D01*
X76579465Y-161474880D01*
X76384880Y-161669465D01*
X76231995Y-161898273D01*
X76126686Y-162152510D01*
X76073000Y-162422408D01*
X76073000Y-162697592D01*
X76126686Y-162967490D01*
X76231995Y-163221727D01*
X76384880Y-163450535D01*
X76579465Y-163645120D01*
X76808273Y-163798005D01*
X76885515Y-163830000D01*
X76808273Y-163861995D01*
X76579465Y-164014880D01*
X76384880Y-164209465D01*
X76231995Y-164438273D01*
X76126686Y-164692510D01*
X76073000Y-164962408D01*
X76073000Y-165237592D01*
X76126686Y-165507490D01*
X76231995Y-165761727D01*
X76384880Y-165990535D01*
X76579465Y-166185120D01*
X76808273Y-166338005D01*
X76885515Y-166370000D01*
X76808273Y-166401995D01*
X76579465Y-166554880D01*
X76384880Y-166749465D01*
X76231995Y-166978273D01*
X76126686Y-167232510D01*
X76073000Y-167502408D01*
X76073000Y-167777592D01*
X76126686Y-168047490D01*
X76231995Y-168301727D01*
X76384880Y-168530535D01*
X76579465Y-168725120D01*
X76808273Y-168878005D01*
X76885515Y-168910000D01*
X76808273Y-168941995D01*
X76579465Y-169094880D01*
X76384880Y-169289465D01*
X76231995Y-169518273D01*
X76126686Y-169772510D01*
X76073000Y-170042408D01*
X76073000Y-170317592D01*
X76126686Y-170587490D01*
X76231995Y-170841727D01*
X76384880Y-171070535D01*
X76579465Y-171265120D01*
X76808273Y-171418005D01*
X76885515Y-171450000D01*
X76808273Y-171481995D01*
X76579465Y-171634880D01*
X76384880Y-171829465D01*
X76231995Y-172058273D01*
X76126686Y-172312510D01*
X76073000Y-172582408D01*
X76073000Y-172857592D01*
X76126686Y-173127490D01*
X76231995Y-173381727D01*
X76384880Y-173610535D01*
X76579465Y-173805120D01*
X76808273Y-173958005D01*
X77062510Y-174063314D01*
X77332408Y-174117000D01*
X77607592Y-174117000D01*
X77877490Y-174063314D01*
X78131727Y-173958005D01*
X78360535Y-173805120D01*
X78555120Y-173610535D01*
X78708005Y-173381727D01*
X78813314Y-173127490D01*
X78867000Y-172857592D01*
X78867000Y-172582408D01*
X78813314Y-172312510D01*
X78708005Y-172058273D01*
X78555120Y-171829465D01*
X78360535Y-171634880D01*
X78131727Y-171481995D01*
X78054485Y-171450000D01*
X78131727Y-171418005D01*
X78360535Y-171265120D01*
X78555120Y-171070535D01*
X78708005Y-170841727D01*
X78813314Y-170587490D01*
X78867000Y-170317592D01*
X78867000Y-170042408D01*
X78865701Y-170035877D01*
X82533096Y-166368483D01*
X82487818Y-166453192D01*
X82405764Y-166723691D01*
X82378057Y-167005000D01*
X82405764Y-167286309D01*
X82487818Y-167556808D01*
X82621068Y-167806101D01*
X82800392Y-168024608D01*
X83018899Y-168203932D01*
X83151858Y-168275000D01*
X83018899Y-168346068D01*
X82800392Y-168525392D01*
X82621068Y-168743899D01*
X82487818Y-168993192D01*
X82405764Y-169263691D01*
X82378057Y-169545000D01*
X82405764Y-169826309D01*
X82487818Y-170096808D01*
X82621068Y-170346101D01*
X82800392Y-170564608D01*
X83018899Y-170743932D01*
X83151858Y-170815000D01*
X83018899Y-170886068D01*
X82800392Y-171065392D01*
X82621068Y-171283899D01*
X82487818Y-171533192D01*
X82405764Y-171803691D01*
X82378057Y-172085000D01*
X82405764Y-172366309D01*
X82487818Y-172636808D01*
X82621068Y-172886101D01*
X82800392Y-173104608D01*
X83018899Y-173283932D01*
X83268192Y-173417182D01*
X83538691Y-173499236D01*
X83749508Y-173520000D01*
X83890492Y-173520000D01*
X84101309Y-173499236D01*
X84371808Y-173417182D01*
X84621101Y-173283932D01*
X84839608Y-173104608D01*
X85018932Y-172886101D01*
X85152182Y-172636808D01*
X85234236Y-172366309D01*
X85261943Y-172085000D01*
X85234236Y-171803691D01*
X85152182Y-171533192D01*
X85018932Y-171283899D01*
X84839608Y-171065392D01*
X84621101Y-170886068D01*
X84488142Y-170815000D01*
X84621101Y-170743932D01*
X84839608Y-170564608D01*
X85018932Y-170346101D01*
X85152182Y-170096808D01*
X85234236Y-169826309D01*
X85261943Y-169545000D01*
X85234236Y-169263691D01*
X85152182Y-168993192D01*
X85018932Y-168743899D01*
X84839608Y-168525392D01*
X84621101Y-168346068D01*
X84488142Y-168275000D01*
X84621101Y-168203932D01*
X84839608Y-168024608D01*
X85018932Y-167806101D01*
X85152182Y-167556808D01*
X85234236Y-167286309D01*
X85261943Y-167005000D01*
X85234236Y-166723691D01*
X85152182Y-166453192D01*
X85018932Y-166203899D01*
X84839608Y-165985392D01*
X84621101Y-165806068D01*
X84488142Y-165735000D01*
X84621101Y-165663932D01*
X84839608Y-165484608D01*
X85018932Y-165266101D01*
X85152182Y-165016808D01*
X85234236Y-164746309D01*
X85261943Y-164465000D01*
X85234236Y-164183691D01*
X85152182Y-163913192D01*
X85018932Y-163663899D01*
X84839608Y-163445392D01*
X84621101Y-163266068D01*
X84488142Y-163195000D01*
X84621101Y-163123932D01*
X84839608Y-162944608D01*
X85018932Y-162726101D01*
X85152182Y-162476808D01*
X85234236Y-162206309D01*
X85261943Y-161925000D01*
X85234236Y-161643691D01*
X85152182Y-161373192D01*
X85018932Y-161123899D01*
X84839608Y-160905392D01*
X84621101Y-160726068D01*
X84488142Y-160655000D01*
X84621101Y-160583932D01*
X84839608Y-160404608D01*
X85018932Y-160186101D01*
X85152182Y-159936808D01*
X85234236Y-159666309D01*
X85261943Y-159385000D01*
X85234236Y-159103691D01*
X85152182Y-158833192D01*
X85018932Y-158583899D01*
X84839608Y-158365392D01*
X84621101Y-158186068D01*
X84488142Y-158115000D01*
X84621101Y-158043932D01*
X84839608Y-157864608D01*
X85018932Y-157646101D01*
X85152182Y-157396808D01*
X85234236Y-157126309D01*
X85261943Y-156845000D01*
X85234236Y-156563691D01*
X85152182Y-156293192D01*
X85018932Y-156043899D01*
X84839608Y-155825392D01*
X84621101Y-155646068D01*
X84488142Y-155575000D01*
X84621101Y-155503932D01*
X84839608Y-155324608D01*
X85018932Y-155106101D01*
X85152182Y-154856808D01*
X85234236Y-154586309D01*
X85261943Y-154305000D01*
X85234236Y-154023691D01*
X85152182Y-153753192D01*
X85018932Y-153503899D01*
X84839608Y-153285392D01*
X84621101Y-153106068D01*
X84488142Y-153035000D01*
X84621101Y-152963932D01*
X84839608Y-152784608D01*
X85018932Y-152566101D01*
X85152182Y-152316808D01*
X85234236Y-152046309D01*
X85261943Y-151765000D01*
X85234236Y-151483691D01*
X85152182Y-151213192D01*
X85018932Y-150963899D01*
X84839608Y-150745392D01*
X84621101Y-150566068D01*
X84488142Y-150495000D01*
X84621101Y-150423932D01*
X84839608Y-150244608D01*
X85018932Y-150026101D01*
X85152182Y-149776808D01*
X85234236Y-149506309D01*
X85261943Y-149225000D01*
X85234236Y-148943691D01*
X85152182Y-148673192D01*
X85018932Y-148423899D01*
X84839608Y-148205392D01*
X84621101Y-148026068D01*
X84488142Y-147955000D01*
X84621101Y-147883932D01*
X84839608Y-147704608D01*
X85018932Y-147486101D01*
X85152182Y-147236808D01*
X85234236Y-146966309D01*
X85261943Y-146685000D01*
X85234236Y-146403691D01*
X85152182Y-146133192D01*
X85018932Y-145883899D01*
X84839608Y-145665392D01*
X84621101Y-145486068D01*
X84488142Y-145415000D01*
X84621101Y-145343932D01*
X84839608Y-145164608D01*
X85018932Y-144946101D01*
X85152182Y-144696808D01*
X85234236Y-144426309D01*
X85261943Y-144145000D01*
X85244875Y-143971704D01*
X89266579Y-139950000D01*
X97929922Y-139950000D01*
X98040392Y-140084608D01*
X98258899Y-140263932D01*
X98391858Y-140335000D01*
X98258899Y-140406068D01*
X98040392Y-140585392D01*
X97861068Y-140803899D01*
X97727818Y-141053192D01*
X97645764Y-141323691D01*
X97618057Y-141605000D01*
X97645764Y-141886309D01*
X97727818Y-142156808D01*
X97861068Y-142406101D01*
X98040392Y-142624608D01*
X98258899Y-142803932D01*
X98391858Y-142875000D01*
X98258899Y-142946068D01*
X98040392Y-143125392D01*
X97861068Y-143343899D01*
X97727818Y-143593192D01*
X97645764Y-143863691D01*
X97618057Y-144145000D01*
X97645764Y-144426309D01*
X97727818Y-144696808D01*
X97861068Y-144946101D01*
X98040392Y-145164608D01*
X98258899Y-145343932D01*
X98391858Y-145415000D01*
X98258899Y-145486068D01*
X98040392Y-145665392D01*
X97861068Y-145883899D01*
X97727818Y-146133192D01*
X97645764Y-146403691D01*
X97618057Y-146685000D01*
X97645764Y-146966309D01*
X97727818Y-147236808D01*
X97861068Y-147486101D01*
X98040392Y-147704608D01*
X98258899Y-147883932D01*
X98391858Y-147955000D01*
X98258899Y-148026068D01*
X98040392Y-148205392D01*
X97861068Y-148423899D01*
X97727818Y-148673192D01*
X97645764Y-148943691D01*
X97618057Y-149225000D01*
X97645764Y-149506309D01*
X97727818Y-149776808D01*
X97861068Y-150026101D01*
X98040392Y-150244608D01*
X98258899Y-150423932D01*
X98391858Y-150495000D01*
X98258899Y-150566068D01*
X98040392Y-150745392D01*
X97861068Y-150963899D01*
X97727818Y-151213192D01*
X97645764Y-151483691D01*
X97618057Y-151765000D01*
X97645764Y-152046309D01*
X97727818Y-152316808D01*
X97861068Y-152566101D01*
X98040392Y-152784608D01*
X98258899Y-152963932D01*
X98391858Y-153035000D01*
X98258899Y-153106068D01*
X98040392Y-153285392D01*
X97861068Y-153503899D01*
X97727818Y-153753192D01*
X97645764Y-154023691D01*
X97618057Y-154305000D01*
X97645764Y-154586309D01*
X97727818Y-154856808D01*
X97861068Y-155106101D01*
X98040392Y-155324608D01*
X98258899Y-155503932D01*
X98391858Y-155575000D01*
X98258899Y-155646068D01*
X98040392Y-155825392D01*
X97861068Y-156043899D01*
X97727818Y-156293192D01*
X97645764Y-156563691D01*
X97618057Y-156845000D01*
X97645764Y-157126309D01*
X97727818Y-157396808D01*
X97861068Y-157646101D01*
X98040392Y-157864608D01*
X98258899Y-158043932D01*
X98391858Y-158115000D01*
X98258899Y-158186068D01*
X98040392Y-158365392D01*
X97861068Y-158583899D01*
X97727818Y-158833192D01*
X97645764Y-159103691D01*
X97618057Y-159385000D01*
X97645764Y-159666309D01*
X97727818Y-159936808D01*
X97861068Y-160186101D01*
X98040392Y-160404608D01*
X98258899Y-160583932D01*
X98391858Y-160655000D01*
X98258899Y-160726068D01*
X98040392Y-160905392D01*
X97861068Y-161123899D01*
X97727818Y-161373192D01*
X97645764Y-161643691D01*
X97618057Y-161925000D01*
X97645764Y-162206309D01*
X97727818Y-162476808D01*
X97861068Y-162726101D01*
X98040392Y-162944608D01*
X98258899Y-163123932D01*
X98391858Y-163195000D01*
X98258899Y-163266068D01*
X98040392Y-163445392D01*
X97861068Y-163663899D01*
X97727818Y-163913192D01*
X97645764Y-164183691D01*
X97618057Y-164465000D01*
X97645764Y-164746309D01*
X97727818Y-165016808D01*
X97861068Y-165266101D01*
X98040392Y-165484608D01*
X98258899Y-165663932D01*
X98391858Y-165735000D01*
X98258899Y-165806068D01*
X98040392Y-165985392D01*
X97861068Y-166203899D01*
X97727818Y-166453192D01*
X97645764Y-166723691D01*
X97618057Y-167005000D01*
X97645764Y-167286309D01*
X97727818Y-167556808D01*
X97861068Y-167806101D01*
X98040392Y-168024608D01*
X98258899Y-168203932D01*
X98391858Y-168275000D01*
X98258899Y-168346068D01*
X98040392Y-168525392D01*
X97861068Y-168743899D01*
X97727818Y-168993192D01*
X97645764Y-169263691D01*
X97618057Y-169545000D01*
X97645764Y-169826309D01*
X97727818Y-170096808D01*
X97861068Y-170346101D01*
X98040392Y-170564608D01*
X98258899Y-170743932D01*
X98391858Y-170815000D01*
X98258899Y-170886068D01*
X98040392Y-171065392D01*
X97861068Y-171283899D01*
X97727818Y-171533192D01*
X97645764Y-171803691D01*
X97618057Y-172085000D01*
X97645764Y-172366309D01*
X97727818Y-172636808D01*
X97861068Y-172886101D01*
X98040392Y-173104608D01*
X98258899Y-173283932D01*
X98508192Y-173417182D01*
X98778691Y-173499236D01*
X98989508Y-173520000D01*
X99130492Y-173520000D01*
X99341309Y-173499236D01*
X99611808Y-173417182D01*
X99861101Y-173283932D01*
X100079608Y-173104608D01*
X100258932Y-172886101D01*
X100392182Y-172636808D01*
X100474236Y-172366309D01*
X100501943Y-172085000D01*
X100474236Y-171803691D01*
X100392182Y-171533192D01*
X100258932Y-171283899D01*
X100079608Y-171065392D01*
X99861101Y-170886068D01*
X99728142Y-170815000D01*
X99861101Y-170743932D01*
X100079608Y-170564608D01*
X100258932Y-170346101D01*
X100392182Y-170096808D01*
X100474236Y-169826309D01*
X100501943Y-169545000D01*
X100474236Y-169263691D01*
X100392182Y-168993192D01*
X100258932Y-168743899D01*
X100079608Y-168525392D01*
X99861101Y-168346068D01*
X99728142Y-168275000D01*
X99861101Y-168203932D01*
X100079608Y-168024608D01*
X100258932Y-167806101D01*
X100392182Y-167556808D01*
X100474236Y-167286309D01*
X100501943Y-167005000D01*
X100474236Y-166723691D01*
X100392182Y-166453192D01*
X100258932Y-166203899D01*
X100079608Y-165985392D01*
X99861101Y-165806068D01*
X99728142Y-165735000D01*
X99861101Y-165663932D01*
X100079608Y-165484608D01*
X100258932Y-165266101D01*
X100392182Y-165016808D01*
X100474236Y-164746309D01*
X100501943Y-164465000D01*
X100474236Y-164183691D01*
X100392182Y-163913192D01*
X100258932Y-163663899D01*
X100079608Y-163445392D01*
X99861101Y-163266068D01*
X99728142Y-163195000D01*
X99861101Y-163123932D01*
X100079608Y-162944608D01*
X100258932Y-162726101D01*
X100392182Y-162476808D01*
X100474236Y-162206309D01*
X100501943Y-161925000D01*
X100474236Y-161643691D01*
X100392182Y-161373192D01*
X100258932Y-161123899D01*
X100079608Y-160905392D01*
X99861101Y-160726068D01*
X99728142Y-160655000D01*
X99861101Y-160583932D01*
X100079608Y-160404608D01*
X100258932Y-160186101D01*
X100392182Y-159936808D01*
X100474236Y-159666309D01*
X100501943Y-159385000D01*
X100474236Y-159103691D01*
X100392182Y-158833192D01*
X100258932Y-158583899D01*
X100079608Y-158365392D01*
X99861101Y-158186068D01*
X99728142Y-158115000D01*
X99861101Y-158043932D01*
X100079608Y-157864608D01*
X100258932Y-157646101D01*
X100392182Y-157396808D01*
X100474236Y-157126309D01*
X100501943Y-156845000D01*
X100474236Y-156563691D01*
X100392182Y-156293192D01*
X100258932Y-156043899D01*
X100079608Y-155825392D01*
X99861101Y-155646068D01*
X99728142Y-155575000D01*
X99861101Y-155503932D01*
X100079608Y-155324608D01*
X100258932Y-155106101D01*
X100392182Y-154856808D01*
X100474236Y-154586309D01*
X100501943Y-154305000D01*
X100474236Y-154023691D01*
X100392182Y-153753192D01*
X100258932Y-153503899D01*
X100079608Y-153285392D01*
X99861101Y-153106068D01*
X99728142Y-153035000D01*
X99861101Y-152963932D01*
X100079608Y-152784608D01*
X100258932Y-152566101D01*
X100392182Y-152316808D01*
X100474236Y-152046309D01*
X100501943Y-151765000D01*
X100474236Y-151483691D01*
X100392182Y-151213192D01*
X100258932Y-150963899D01*
X100079608Y-150745392D01*
X99861101Y-150566068D01*
X99728142Y-150495000D01*
X99861101Y-150423932D01*
X100079608Y-150244608D01*
X100258932Y-150026101D01*
X100392182Y-149776808D01*
X100474236Y-149506309D01*
X100501943Y-149225000D01*
X100474236Y-148943691D01*
X100392182Y-148673192D01*
X100258932Y-148423899D01*
X100079608Y-148205392D01*
X99861101Y-148026068D01*
X99728142Y-147955000D01*
X99861101Y-147883932D01*
X100079608Y-147704608D01*
X100258932Y-147486101D01*
X100392182Y-147236808D01*
X100474236Y-146966309D01*
X100501943Y-146685000D01*
X100474236Y-146403691D01*
X100392182Y-146133192D01*
X100258932Y-145883899D01*
X100079608Y-145665392D01*
X99861101Y-145486068D01*
X99728142Y-145415000D01*
X99861101Y-145343932D01*
X100079608Y-145164608D01*
X100258932Y-144946101D01*
X100392182Y-144696808D01*
X100474236Y-144426309D01*
X100501943Y-144145000D01*
X100484875Y-143971704D01*
X101902736Y-142553843D01*
X101936504Y-142526130D01*
X101966156Y-142490000D01*
X102047097Y-142391373D01*
X102059758Y-142367686D01*
X102129276Y-142237626D01*
X102179882Y-142070803D01*
X102192687Y-141940790D01*
X102192687Y-141940780D01*
X102196968Y-141897314D01*
X102192687Y-141853848D01*
X102192687Y-136818154D01*
X102196968Y-136774685D01*
X102192687Y-136731216D01*
X102192687Y-136731208D01*
X102179882Y-136601195D01*
X102129276Y-136434372D01*
X102129276Y-136434371D01*
X102047098Y-136280626D01*
X101964219Y-136179638D01*
X101964217Y-136179636D01*
X101936504Y-136145868D01*
X101902736Y-136118155D01*
X101138187Y-135353606D01*
X100364533Y-134579953D01*
X100336818Y-134546182D01*
X100303047Y-134518467D01*
X99174536Y-133389956D01*
X99162262Y-133375000D01*
X100932723Y-133375000D01*
X101206204Y-133401815D01*
G36*
X36745010Y-171571541D02*
G01*
X36740729Y-171615010D01*
X36745010Y-171658479D01*
X36745010Y-171658486D01*
X36753500Y-171744687D01*
X36757815Y-171788500D01*
X36773167Y-171839106D01*
X36808421Y-171955322D01*
X36890599Y-172109068D01*
X37001193Y-172243827D01*
X37034966Y-172271544D01*
X39998421Y-175235000D01*
X35627273Y-175235000D01*
X35638606Y-175197641D01*
X35658072Y-175000000D01*
X35658072Y-174250000D01*
X35638606Y-174052359D01*
X35580956Y-173862314D01*
X35487339Y-173687167D01*
X35361350Y-173533650D01*
X35207833Y-173407661D01*
X35109310Y-173355000D01*
X35207833Y-173302339D01*
X35361350Y-173176350D01*
X35487339Y-173022833D01*
X35580956Y-172847686D01*
X35638606Y-172657641D01*
X35658072Y-172460000D01*
X35658072Y-171710000D01*
X35638606Y-171512359D01*
X35580956Y-171322314D01*
X35487339Y-171147167D01*
X35361350Y-170993650D01*
X35207833Y-170867661D01*
X35109310Y-170815000D01*
X35207833Y-170762339D01*
X35361350Y-170636350D01*
X35487339Y-170482833D01*
X35515579Y-170430000D01*
X36151531Y-170430000D01*
X36195000Y-170434281D01*
X36238469Y-170430000D01*
X36238477Y-170430000D01*
X36368490Y-170417195D01*
X36535313Y-170366589D01*
X36689059Y-170284411D01*
X36745010Y-170238493D01*
X36745010Y-171571541D01*
X36745010Y-171571541D01*
G37*
X36745010Y-171571541D02*
X36740729Y-171615010D01*
X36745010Y-171658479D01*
X36745010Y-171658486D01*
X36753500Y-171744687D01*
X36757815Y-171788500D01*
X36773167Y-171839106D01*
X36808421Y-171955322D01*
X36890599Y-172109068D01*
X37001193Y-172243827D01*
X37034966Y-172271544D01*
X39998421Y-175235000D01*
X35627273Y-175235000D01*
X35638606Y-175197641D01*
X35658072Y-175000000D01*
X35658072Y-174250000D01*
X35638606Y-174052359D01*
X35580956Y-173862314D01*
X35487339Y-173687167D01*
X35361350Y-173533650D01*
X35207833Y-173407661D01*
X35109310Y-173355000D01*
X35207833Y-173302339D01*
X35361350Y-173176350D01*
X35487339Y-173022833D01*
X35580956Y-172847686D01*
X35638606Y-172657641D01*
X35658072Y-172460000D01*
X35658072Y-171710000D01*
X35638606Y-171512359D01*
X35580956Y-171322314D01*
X35487339Y-171147167D01*
X35361350Y-170993650D01*
X35207833Y-170867661D01*
X35109310Y-170815000D01*
X35207833Y-170762339D01*
X35361350Y-170636350D01*
X35487339Y-170482833D01*
X35515579Y-170430000D01*
X36151531Y-170430000D01*
X36195000Y-170434281D01*
X36238469Y-170430000D01*
X36238477Y-170430000D01*
X36368490Y-170417195D01*
X36535313Y-170366589D01*
X36689059Y-170284411D01*
X36745010Y-170238493D01*
X36745010Y-171571541D01*
G36*
X64520000Y-148321579D02*
G01*
X64520001Y-158071521D01*
X64515719Y-158115000D01*
X64532805Y-158288490D01*
X64583412Y-158455313D01*
X64665590Y-158609059D01*
X64748468Y-158710046D01*
X64748469Y-158710047D01*
X64776184Y-158743817D01*
X64809951Y-158771529D01*
X67695000Y-161656579D01*
X67695001Y-168543420D01*
X64809956Y-171428466D01*
X64776183Y-171456183D01*
X64665589Y-171590942D01*
X64583411Y-171744688D01*
X64552130Y-171847805D01*
X64536779Y-171898412D01*
X64532805Y-171911511D01*
X64520000Y-172041524D01*
X64520000Y-172041531D01*
X64515719Y-172085000D01*
X64520000Y-172128469D01*
X64520000Y-172353421D01*
X63726421Y-173147001D01*
X63565232Y-173147001D01*
X63573314Y-173127490D01*
X63627000Y-172857592D01*
X63627000Y-172582408D01*
X63573314Y-172312510D01*
X63468005Y-172058273D01*
X63315120Y-171829465D01*
X63120535Y-171634880D01*
X62891727Y-171481995D01*
X62814485Y-171450000D01*
X62891727Y-171418005D01*
X63120535Y-171265120D01*
X63315120Y-171070535D01*
X63468005Y-170841727D01*
X63573314Y-170587490D01*
X63627000Y-170317592D01*
X63627000Y-170042408D01*
X63573314Y-169772510D01*
X63468005Y-169518273D01*
X63315120Y-169289465D01*
X63120535Y-169094880D01*
X62891727Y-168941995D01*
X62814485Y-168910000D01*
X62891727Y-168878005D01*
X63120535Y-168725120D01*
X63315120Y-168530535D01*
X63468005Y-168301727D01*
X63573314Y-168047490D01*
X63627000Y-167777592D01*
X63627000Y-167763001D01*
X64756854Y-167763001D01*
X64957257Y-167846011D01*
X65253816Y-167905000D01*
X65556184Y-167905000D01*
X65852743Y-167846011D01*
X66132095Y-167730299D01*
X66383505Y-167562312D01*
X66597312Y-167348505D01*
X66765299Y-167097095D01*
X66881011Y-166817743D01*
X66940000Y-166521184D01*
X66940000Y-166218816D01*
X66881011Y-165922257D01*
X66765299Y-165642905D01*
X66597312Y-165391495D01*
X66383505Y-165177688D01*
X66132095Y-165009701D01*
X65852743Y-164893989D01*
X65556184Y-164835000D01*
X65253816Y-164835000D01*
X64957672Y-164893907D01*
X65143518Y-164708060D01*
X65253816Y-164730000D01*
X65556184Y-164730000D01*
X65852743Y-164671011D01*
X66132095Y-164555299D01*
X66383505Y-164387312D01*
X66597312Y-164173505D01*
X66765299Y-163922095D01*
X66881011Y-163642743D01*
X66940000Y-163346184D01*
X66940000Y-163043816D01*
X66881011Y-162747257D01*
X66765299Y-162467905D01*
X66597312Y-162216495D01*
X66383505Y-162002688D01*
X66132095Y-161834701D01*
X65852743Y-161718989D01*
X65556184Y-161660000D01*
X65253816Y-161660000D01*
X64957257Y-161718989D01*
X64677905Y-161834701D01*
X64426495Y-162002688D01*
X64212688Y-162216495D01*
X64044701Y-162467905D01*
X63928989Y-162747257D01*
X63870000Y-163043816D01*
X63870000Y-163346184D01*
X63891247Y-163453001D01*
X63312654Y-163453001D01*
X63315120Y-163450535D01*
X63468005Y-163221727D01*
X63573314Y-162967490D01*
X63627000Y-162697592D01*
X63627000Y-162422408D01*
X63573314Y-162152510D01*
X63468005Y-161898273D01*
X63315120Y-161669465D01*
X63120535Y-161474880D01*
X62891727Y-161321995D01*
X62814485Y-161290000D01*
X62891727Y-161258005D01*
X63120535Y-161105120D01*
X63315120Y-160910535D01*
X63468005Y-160681727D01*
X63573314Y-160427490D01*
X63627000Y-160157592D01*
X63627000Y-159882408D01*
X63573314Y-159612510D01*
X63468005Y-159358273D01*
X63315120Y-159129465D01*
X63120535Y-158934880D01*
X62891727Y-158781995D01*
X62814485Y-158750000D01*
X62891727Y-158718005D01*
X63120535Y-158565120D01*
X63315120Y-158370535D01*
X63468005Y-158141727D01*
X63573314Y-157887490D01*
X63627000Y-157617592D01*
X63627000Y-157342408D01*
X63573314Y-157072510D01*
X63468005Y-156818273D01*
X63315120Y-156589465D01*
X63120535Y-156394880D01*
X62891727Y-156241995D01*
X62814485Y-156210000D01*
X62891727Y-156178005D01*
X63120535Y-156025120D01*
X63315120Y-155830535D01*
X63468005Y-155601727D01*
X63573314Y-155347490D01*
X63627000Y-155077592D01*
X63627000Y-154802408D01*
X63573314Y-154532510D01*
X63468005Y-154278273D01*
X63315120Y-154049465D01*
X63120535Y-153854880D01*
X62891727Y-153701995D01*
X62814485Y-153670000D01*
X62891727Y-153638005D01*
X63120535Y-153485120D01*
X63315120Y-153290535D01*
X63468005Y-153061727D01*
X63573314Y-152807490D01*
X63627000Y-152537592D01*
X63627000Y-152262408D01*
X63573314Y-151992510D01*
X63468005Y-151738273D01*
X63315120Y-151509465D01*
X63120535Y-151314880D01*
X62891727Y-151161995D01*
X62814485Y-151130000D01*
X62891727Y-151098005D01*
X63120535Y-150945120D01*
X63315120Y-150750535D01*
X63468005Y-150521727D01*
X63573314Y-150267490D01*
X63627000Y-149997592D01*
X63627000Y-149722408D01*
X63573314Y-149452510D01*
X63468005Y-149198273D01*
X63315120Y-148969465D01*
X63120535Y-148774880D01*
X62891727Y-148621995D01*
X62814485Y-148590000D01*
X62891727Y-148558005D01*
X63120535Y-148405120D01*
X63315120Y-148210535D01*
X63468005Y-147981727D01*
X63573314Y-147727490D01*
X63627000Y-147457592D01*
X63627000Y-147428579D01*
X64520000Y-148321579D01*
X64520000Y-148321579D01*
G37*
X64520000Y-148321579D02*
X64520001Y-158071521D01*
X64515719Y-158115000D01*
X64532805Y-158288490D01*
X64583412Y-158455313D01*
X64665590Y-158609059D01*
X64748468Y-158710046D01*
X64748469Y-158710047D01*
X64776184Y-158743817D01*
X64809951Y-158771529D01*
X67695000Y-161656579D01*
X67695001Y-168543420D01*
X64809956Y-171428466D01*
X64776183Y-171456183D01*
X64665589Y-171590942D01*
X64583411Y-171744688D01*
X64552130Y-171847805D01*
X64536779Y-171898412D01*
X64532805Y-171911511D01*
X64520000Y-172041524D01*
X64520000Y-172041531D01*
X64515719Y-172085000D01*
X64520000Y-172128469D01*
X64520000Y-172353421D01*
X63726421Y-173147001D01*
X63565232Y-173147001D01*
X63573314Y-173127490D01*
X63627000Y-172857592D01*
X63627000Y-172582408D01*
X63573314Y-172312510D01*
X63468005Y-172058273D01*
X63315120Y-171829465D01*
X63120535Y-171634880D01*
X62891727Y-171481995D01*
X62814485Y-171450000D01*
X62891727Y-171418005D01*
X63120535Y-171265120D01*
X63315120Y-171070535D01*
X63468005Y-170841727D01*
X63573314Y-170587490D01*
X63627000Y-170317592D01*
X63627000Y-170042408D01*
X63573314Y-169772510D01*
X63468005Y-169518273D01*
X63315120Y-169289465D01*
X63120535Y-169094880D01*
X62891727Y-168941995D01*
X62814485Y-168910000D01*
X62891727Y-168878005D01*
X63120535Y-168725120D01*
X63315120Y-168530535D01*
X63468005Y-168301727D01*
X63573314Y-168047490D01*
X63627000Y-167777592D01*
X63627000Y-167763001D01*
X64756854Y-167763001D01*
X64957257Y-167846011D01*
X65253816Y-167905000D01*
X65556184Y-167905000D01*
X65852743Y-167846011D01*
X66132095Y-167730299D01*
X66383505Y-167562312D01*
X66597312Y-167348505D01*
X66765299Y-167097095D01*
X66881011Y-166817743D01*
X66940000Y-166521184D01*
X66940000Y-166218816D01*
X66881011Y-165922257D01*
X66765299Y-165642905D01*
X66597312Y-165391495D01*
X66383505Y-165177688D01*
X66132095Y-165009701D01*
X65852743Y-164893989D01*
X65556184Y-164835000D01*
X65253816Y-164835000D01*
X64957672Y-164893907D01*
X65143518Y-164708060D01*
X65253816Y-164730000D01*
X65556184Y-164730000D01*
X65852743Y-164671011D01*
X66132095Y-164555299D01*
X66383505Y-164387312D01*
X66597312Y-164173505D01*
X66765299Y-163922095D01*
X66881011Y-163642743D01*
X66940000Y-163346184D01*
X66940000Y-163043816D01*
X66881011Y-162747257D01*
X66765299Y-162467905D01*
X66597312Y-162216495D01*
X66383505Y-162002688D01*
X66132095Y-161834701D01*
X65852743Y-161718989D01*
X65556184Y-161660000D01*
X65253816Y-161660000D01*
X64957257Y-161718989D01*
X64677905Y-161834701D01*
X64426495Y-162002688D01*
X64212688Y-162216495D01*
X64044701Y-162467905D01*
X63928989Y-162747257D01*
X63870000Y-163043816D01*
X63870000Y-163346184D01*
X63891247Y-163453001D01*
X63312654Y-163453001D01*
X63315120Y-163450535D01*
X63468005Y-163221727D01*
X63573314Y-162967490D01*
X63627000Y-162697592D01*
X63627000Y-162422408D01*
X63573314Y-162152510D01*
X63468005Y-161898273D01*
X63315120Y-161669465D01*
X63120535Y-161474880D01*
X62891727Y-161321995D01*
X62814485Y-161290000D01*
X62891727Y-161258005D01*
X63120535Y-161105120D01*
X63315120Y-160910535D01*
X63468005Y-160681727D01*
X63573314Y-160427490D01*
X63627000Y-160157592D01*
X63627000Y-159882408D01*
X63573314Y-159612510D01*
X63468005Y-159358273D01*
X63315120Y-159129465D01*
X63120535Y-158934880D01*
X62891727Y-158781995D01*
X62814485Y-158750000D01*
X62891727Y-158718005D01*
X63120535Y-158565120D01*
X63315120Y-158370535D01*
X63468005Y-158141727D01*
X63573314Y-157887490D01*
X63627000Y-157617592D01*
X63627000Y-157342408D01*
X63573314Y-157072510D01*
X63468005Y-156818273D01*
X63315120Y-156589465D01*
X63120535Y-156394880D01*
X62891727Y-156241995D01*
X62814485Y-156210000D01*
X62891727Y-156178005D01*
X63120535Y-156025120D01*
X63315120Y-155830535D01*
X63468005Y-155601727D01*
X63573314Y-155347490D01*
X63627000Y-155077592D01*
X63627000Y-154802408D01*
X63573314Y-154532510D01*
X63468005Y-154278273D01*
X63315120Y-154049465D01*
X63120535Y-153854880D01*
X62891727Y-153701995D01*
X62814485Y-153670000D01*
X62891727Y-153638005D01*
X63120535Y-153485120D01*
X63315120Y-153290535D01*
X63468005Y-153061727D01*
X63573314Y-152807490D01*
X63627000Y-152537592D01*
X63627000Y-152262408D01*
X63573314Y-151992510D01*
X63468005Y-151738273D01*
X63315120Y-151509465D01*
X63120535Y-151314880D01*
X62891727Y-151161995D01*
X62814485Y-151130000D01*
X62891727Y-151098005D01*
X63120535Y-150945120D01*
X63315120Y-150750535D01*
X63468005Y-150521727D01*
X63573314Y-150267490D01*
X63627000Y-149997592D01*
X63627000Y-149722408D01*
X63573314Y-149452510D01*
X63468005Y-149198273D01*
X63315120Y-148969465D01*
X63120535Y-148774880D01*
X62891727Y-148621995D01*
X62814485Y-148590000D01*
X62891727Y-148558005D01*
X63120535Y-148405120D01*
X63315120Y-148210535D01*
X63468005Y-147981727D01*
X63573314Y-147727490D01*
X63627000Y-147457592D01*
X63627000Y-147428579D01*
X64520000Y-148321579D01*
G36*
X58012201Y-163604595D02*
G01*
X58180188Y-163856005D01*
X58393995Y-164069812D01*
X58510263Y-164147500D01*
X58393995Y-164225188D01*
X58180188Y-164438995D01*
X58012201Y-164690405D01*
X57896489Y-164969757D01*
X57837500Y-165266316D01*
X57837500Y-165568684D01*
X57896489Y-165865243D01*
X58012201Y-166144595D01*
X58180188Y-166396005D01*
X58393995Y-166609812D01*
X58645405Y-166777799D01*
X58924757Y-166893511D01*
X59221316Y-166952500D01*
X59523684Y-166952500D01*
X59820243Y-166893511D01*
X60099595Y-166777799D01*
X60351005Y-166609812D01*
X60564812Y-166396005D01*
X60732799Y-166144595D01*
X60848511Y-165865243D01*
X60907500Y-165568684D01*
X60907500Y-165557739D01*
X60991995Y-165761727D01*
X61144880Y-165990535D01*
X61339465Y-166185120D01*
X61568273Y-166338005D01*
X61645515Y-166370000D01*
X61568273Y-166401995D01*
X61339465Y-166554880D01*
X61144880Y-166749465D01*
X60991995Y-166978273D01*
X60886686Y-167232510D01*
X60833000Y-167502408D01*
X60833000Y-167777592D01*
X60886686Y-168047490D01*
X60991995Y-168301727D01*
X61144880Y-168530535D01*
X61339465Y-168725120D01*
X61568273Y-168878005D01*
X61645515Y-168910000D01*
X61568273Y-168941995D01*
X61339465Y-169094880D01*
X61144880Y-169289465D01*
X60991995Y-169518273D01*
X60886686Y-169772510D01*
X60833000Y-170042408D01*
X60833000Y-170317592D01*
X60886686Y-170587490D01*
X60991995Y-170841727D01*
X61144880Y-171070535D01*
X61339465Y-171265120D01*
X61568273Y-171418005D01*
X61645515Y-171450000D01*
X61568273Y-171481995D01*
X61339465Y-171634880D01*
X61144880Y-171829465D01*
X60991995Y-172058273D01*
X60886686Y-172312510D01*
X60833000Y-172582408D01*
X60833000Y-172857592D01*
X60886686Y-173127490D01*
X60894768Y-173147001D01*
X41544964Y-173147001D01*
X39315020Y-170917058D01*
X39315020Y-170000678D01*
X39348468Y-170041434D01*
X39348471Y-170041437D01*
X39376184Y-170075205D01*
X39409951Y-170102917D01*
X40997092Y-171690059D01*
X41024805Y-171723827D01*
X41058573Y-171751540D01*
X41058575Y-171751542D01*
X41159563Y-171834421D01*
X41313308Y-171916599D01*
X41440963Y-171955323D01*
X41480132Y-171967205D01*
X41610145Y-171980010D01*
X41610153Y-171980010D01*
X41653622Y-171984291D01*
X41697091Y-171980010D01*
X43641521Y-171980010D01*
X43684990Y-171984291D01*
X43728459Y-171980010D01*
X43728467Y-171980010D01*
X43858480Y-171967205D01*
X44025303Y-171916599D01*
X44179049Y-171834421D01*
X44313807Y-171723827D01*
X44341524Y-171690054D01*
X44865966Y-171165612D01*
X45085000Y-171187185D01*
X45376111Y-171158513D01*
X45430450Y-171142029D01*
X45759953Y-171471532D01*
X45759959Y-171471537D01*
X45978476Y-171690054D01*
X46006193Y-171723827D01*
X46140951Y-171834421D01*
X46294697Y-171916599D01*
X46422348Y-171955322D01*
X46461519Y-171967205D01*
X46476316Y-171968662D01*
X46591533Y-171980010D01*
X46591541Y-171980010D01*
X46635010Y-171984291D01*
X46678479Y-171980010D01*
X53761521Y-171980010D01*
X53804990Y-171984291D01*
X53848459Y-171980010D01*
X53848467Y-171980010D01*
X53978480Y-171967205D01*
X54145303Y-171916599D01*
X54299049Y-171834421D01*
X54433807Y-171723827D01*
X54461524Y-171690054D01*
X54985966Y-171165612D01*
X55205000Y-171187185D01*
X55496111Y-171158513D01*
X55776034Y-171073599D01*
X56034014Y-170935706D01*
X56260134Y-170750134D01*
X56445706Y-170524014D01*
X56583599Y-170266033D01*
X56668513Y-169986110D01*
X56690000Y-169767949D01*
X56690000Y-169322050D01*
X56668513Y-169103889D01*
X56583599Y-168823966D01*
X56445706Y-168565986D01*
X56260134Y-168339866D01*
X56034013Y-168154294D01*
X55776033Y-168016401D01*
X55496110Y-167931487D01*
X55205000Y-167902815D01*
X54913889Y-167931487D01*
X54633966Y-168016401D01*
X54375986Y-168154294D01*
X54149866Y-168339866D01*
X54097777Y-168403337D01*
X54043405Y-168301614D01*
X53932962Y-168167038D01*
X53798386Y-168056595D01*
X53644850Y-167974528D01*
X53478254Y-167923992D01*
X53305000Y-167906928D01*
X52318507Y-167906928D01*
X48898699Y-164487121D01*
X48908817Y-164478817D01*
X48936527Y-164445052D01*
X48936532Y-164445047D01*
X49019411Y-164344059D01*
X49101589Y-164190314D01*
X49141656Y-164058234D01*
X50143470Y-165060049D01*
X50171183Y-165093817D01*
X50204951Y-165121530D01*
X50204953Y-165121532D01*
X50229323Y-165141532D01*
X50305941Y-165204411D01*
X50459687Y-165286589D01*
X50626510Y-165337195D01*
X50756523Y-165350000D01*
X50756533Y-165350000D01*
X50799999Y-165354281D01*
X50843465Y-165350000D01*
X55836531Y-165350000D01*
X55880000Y-165354281D01*
X55923469Y-165350000D01*
X55923477Y-165350000D01*
X56053490Y-165337195D01*
X56220313Y-165286589D01*
X56374059Y-165204411D01*
X56508817Y-165093817D01*
X56536534Y-165060044D01*
X57745049Y-163851530D01*
X57778817Y-163823817D01*
X57806533Y-163790046D01*
X57889410Y-163689060D01*
X57889411Y-163689059D01*
X57971589Y-163535313D01*
X57976626Y-163518709D01*
X58012201Y-163604595D01*
X58012201Y-163604595D01*
G37*
X58012201Y-163604595D02*
X58180188Y-163856005D01*
X58393995Y-164069812D01*
X58510263Y-164147500D01*
X58393995Y-164225188D01*
X58180188Y-164438995D01*
X58012201Y-164690405D01*
X57896489Y-164969757D01*
X57837500Y-165266316D01*
X57837500Y-165568684D01*
X57896489Y-165865243D01*
X58012201Y-166144595D01*
X58180188Y-166396005D01*
X58393995Y-166609812D01*
X58645405Y-166777799D01*
X58924757Y-166893511D01*
X59221316Y-166952500D01*
X59523684Y-166952500D01*
X59820243Y-166893511D01*
X60099595Y-166777799D01*
X60351005Y-166609812D01*
X60564812Y-166396005D01*
X60732799Y-166144595D01*
X60848511Y-165865243D01*
X60907500Y-165568684D01*
X60907500Y-165557739D01*
X60991995Y-165761727D01*
X61144880Y-165990535D01*
X61339465Y-166185120D01*
X61568273Y-166338005D01*
X61645515Y-166370000D01*
X61568273Y-166401995D01*
X61339465Y-166554880D01*
X61144880Y-166749465D01*
X60991995Y-166978273D01*
X60886686Y-167232510D01*
X60833000Y-167502408D01*
X60833000Y-167777592D01*
X60886686Y-168047490D01*
X60991995Y-168301727D01*
X61144880Y-168530535D01*
X61339465Y-168725120D01*
X61568273Y-168878005D01*
X61645515Y-168910000D01*
X61568273Y-168941995D01*
X61339465Y-169094880D01*
X61144880Y-169289465D01*
X60991995Y-169518273D01*
X60886686Y-169772510D01*
X60833000Y-170042408D01*
X60833000Y-170317592D01*
X60886686Y-170587490D01*
X60991995Y-170841727D01*
X61144880Y-171070535D01*
X61339465Y-171265120D01*
X61568273Y-171418005D01*
X61645515Y-171450000D01*
X61568273Y-171481995D01*
X61339465Y-171634880D01*
X61144880Y-171829465D01*
X60991995Y-172058273D01*
X60886686Y-172312510D01*
X60833000Y-172582408D01*
X60833000Y-172857592D01*
X60886686Y-173127490D01*
X60894768Y-173147001D01*
X41544964Y-173147001D01*
X39315020Y-170917058D01*
X39315020Y-170000678D01*
X39348468Y-170041434D01*
X39348471Y-170041437D01*
X39376184Y-170075205D01*
X39409951Y-170102917D01*
X40997092Y-171690059D01*
X41024805Y-171723827D01*
X41058573Y-171751540D01*
X41058575Y-171751542D01*
X41159563Y-171834421D01*
X41313308Y-171916599D01*
X41440963Y-171955323D01*
X41480132Y-171967205D01*
X41610145Y-171980010D01*
X41610153Y-171980010D01*
X41653622Y-171984291D01*
X41697091Y-171980010D01*
X43641521Y-171980010D01*
X43684990Y-171984291D01*
X43728459Y-171980010D01*
X43728467Y-171980010D01*
X43858480Y-171967205D01*
X44025303Y-171916599D01*
X44179049Y-171834421D01*
X44313807Y-171723827D01*
X44341524Y-171690054D01*
X44865966Y-171165612D01*
X45085000Y-171187185D01*
X45376111Y-171158513D01*
X45430450Y-171142029D01*
X45759953Y-171471532D01*
X45759959Y-171471537D01*
X45978476Y-171690054D01*
X46006193Y-171723827D01*
X46140951Y-171834421D01*
X46294697Y-171916599D01*
X46422348Y-171955322D01*
X46461519Y-171967205D01*
X46476316Y-171968662D01*
X46591533Y-171980010D01*
X46591541Y-171980010D01*
X46635010Y-171984291D01*
X46678479Y-171980010D01*
X53761521Y-171980010D01*
X53804990Y-171984291D01*
X53848459Y-171980010D01*
X53848467Y-171980010D01*
X53978480Y-171967205D01*
X54145303Y-171916599D01*
X54299049Y-171834421D01*
X54433807Y-171723827D01*
X54461524Y-171690054D01*
X54985966Y-171165612D01*
X55205000Y-171187185D01*
X55496111Y-171158513D01*
X55776034Y-171073599D01*
X56034014Y-170935706D01*
X56260134Y-170750134D01*
X56445706Y-170524014D01*
X56583599Y-170266033D01*
X56668513Y-169986110D01*
X56690000Y-169767949D01*
X56690000Y-169322050D01*
X56668513Y-169103889D01*
X56583599Y-168823966D01*
X56445706Y-168565986D01*
X56260134Y-168339866D01*
X56034013Y-168154294D01*
X55776033Y-168016401D01*
X55496110Y-167931487D01*
X55205000Y-167902815D01*
X54913889Y-167931487D01*
X54633966Y-168016401D01*
X54375986Y-168154294D01*
X54149866Y-168339866D01*
X54097777Y-168403337D01*
X54043405Y-168301614D01*
X53932962Y-168167038D01*
X53798386Y-168056595D01*
X53644850Y-167974528D01*
X53478254Y-167923992D01*
X53305000Y-167906928D01*
X52318507Y-167906928D01*
X48898699Y-164487121D01*
X48908817Y-164478817D01*
X48936527Y-164445052D01*
X48936532Y-164445047D01*
X49019411Y-164344059D01*
X49101589Y-164190314D01*
X49141656Y-164058234D01*
X50143470Y-165060049D01*
X50171183Y-165093817D01*
X50204951Y-165121530D01*
X50204953Y-165121532D01*
X50229323Y-165141532D01*
X50305941Y-165204411D01*
X50459687Y-165286589D01*
X50626510Y-165337195D01*
X50756523Y-165350000D01*
X50756533Y-165350000D01*
X50799999Y-165354281D01*
X50843465Y-165350000D01*
X55836531Y-165350000D01*
X55880000Y-165354281D01*
X55923469Y-165350000D01*
X55923477Y-165350000D01*
X56053490Y-165337195D01*
X56220313Y-165286589D01*
X56374059Y-165204411D01*
X56508817Y-165093817D01*
X56536534Y-165060044D01*
X57745049Y-163851530D01*
X57778817Y-163823817D01*
X57806533Y-163790046D01*
X57889410Y-163689060D01*
X57889411Y-163689059D01*
X57971589Y-163535313D01*
X57976626Y-163518709D01*
X58012201Y-163604595D01*
G36*
X51204400Y-169295979D02*
G01*
X51204405Y-169295983D01*
X51216928Y-169308506D01*
X51216928Y-170210010D01*
X47001589Y-170210010D01*
X46569061Y-169777482D01*
X46570000Y-169767949D01*
X46570000Y-169322050D01*
X46548513Y-169103889D01*
X46463599Y-168823966D01*
X46325706Y-168565986D01*
X46140134Y-168339866D01*
X45914013Y-168154294D01*
X45656033Y-168016401D01*
X45432873Y-167948706D01*
X47645000Y-165736579D01*
X51204400Y-169295979D01*
X51204400Y-169295979D01*
G37*
X51204400Y-169295979D02*
X51204405Y-169295983D01*
X51216928Y-169308506D01*
X51216928Y-170210010D01*
X47001589Y-170210010D01*
X46569061Y-169777482D01*
X46570000Y-169767949D01*
X46570000Y-169322050D01*
X46548513Y-169103889D01*
X46463599Y-168823966D01*
X46325706Y-168565986D01*
X46140134Y-168339866D01*
X45914013Y-168154294D01*
X45656033Y-168016401D01*
X45432873Y-167948706D01*
X47645000Y-165736579D01*
X51204400Y-169295979D01*
G36*
X44940764Y-157126309D02*
G01*
X45022818Y-157396808D01*
X45156068Y-157646101D01*
X45335392Y-157864608D01*
X45470000Y-157975078D01*
X45470001Y-160923420D01*
X45261439Y-161131983D01*
X45226335Y-161125000D01*
X44943665Y-161125000D01*
X44666426Y-161180147D01*
X44405273Y-161288320D01*
X44170241Y-161445363D01*
X43970363Y-161645241D01*
X43813320Y-161880273D01*
X43705147Y-162141426D01*
X43650000Y-162418665D01*
X43650000Y-162701335D01*
X43705147Y-162978574D01*
X43813320Y-163239727D01*
X43970363Y-163474759D01*
X44170241Y-163674637D01*
X44405273Y-163831680D01*
X44666426Y-163939853D01*
X44943665Y-163995000D01*
X45226335Y-163995000D01*
X45503574Y-163939853D01*
X45764727Y-163831680D01*
X45999759Y-163674637D01*
X46199637Y-163474759D01*
X46356680Y-163239727D01*
X46464853Y-162978574D01*
X46520000Y-162701335D01*
X46520000Y-162418665D01*
X46513017Y-162383561D01*
X46950049Y-161946530D01*
X46983817Y-161918817D01*
X47011533Y-161885046D01*
X47094410Y-161784060D01*
X47111808Y-161751511D01*
X47176589Y-161630313D01*
X47227195Y-161463490D01*
X47240000Y-161333477D01*
X47240000Y-161333467D01*
X47244281Y-161290001D01*
X47240000Y-161246535D01*
X47240000Y-157975078D01*
X47374608Y-157864608D01*
X47375000Y-157864130D01*
X47375001Y-163503420D01*
X47049958Y-163828464D01*
X47049953Y-163828468D01*
X47049949Y-163828472D01*
X47016183Y-163856183D01*
X46988472Y-163889949D01*
X42971494Y-167906928D01*
X41985000Y-167906928D01*
X41811746Y-167923992D01*
X41645150Y-167974528D01*
X41491614Y-168056595D01*
X41357038Y-168167038D01*
X41246595Y-168301614D01*
X41164528Y-168455150D01*
X41113992Y-168621746D01*
X41096928Y-168795000D01*
X41096928Y-169286738D01*
X40890000Y-169079810D01*
X40890000Y-159751578D01*
X41098561Y-159543017D01*
X41133665Y-159550000D01*
X41416335Y-159550000D01*
X41693574Y-159494853D01*
X41954727Y-159386680D01*
X42189759Y-159229637D01*
X42389637Y-159029759D01*
X42409521Y-159000000D01*
X42501531Y-159000000D01*
X42545000Y-159004281D01*
X42588469Y-159000000D01*
X42588477Y-159000000D01*
X42718490Y-158987195D01*
X42885313Y-158936589D01*
X43039059Y-158854411D01*
X43173817Y-158743817D01*
X43201534Y-158710044D01*
X44926822Y-156984756D01*
X44940764Y-157126309D01*
X44940764Y-157126309D01*
G37*
X44940764Y-157126309D02*
X45022818Y-157396808D01*
X45156068Y-157646101D01*
X45335392Y-157864608D01*
X45470000Y-157975078D01*
X45470001Y-160923420D01*
X45261439Y-161131983D01*
X45226335Y-161125000D01*
X44943665Y-161125000D01*
X44666426Y-161180147D01*
X44405273Y-161288320D01*
X44170241Y-161445363D01*
X43970363Y-161645241D01*
X43813320Y-161880273D01*
X43705147Y-162141426D01*
X43650000Y-162418665D01*
X43650000Y-162701335D01*
X43705147Y-162978574D01*
X43813320Y-163239727D01*
X43970363Y-163474759D01*
X44170241Y-163674637D01*
X44405273Y-163831680D01*
X44666426Y-163939853D01*
X44943665Y-163995000D01*
X45226335Y-163995000D01*
X45503574Y-163939853D01*
X45764727Y-163831680D01*
X45999759Y-163674637D01*
X46199637Y-163474759D01*
X46356680Y-163239727D01*
X46464853Y-162978574D01*
X46520000Y-162701335D01*
X46520000Y-162418665D01*
X46513017Y-162383561D01*
X46950049Y-161946530D01*
X46983817Y-161918817D01*
X47011533Y-161885046D01*
X47094410Y-161784060D01*
X47111808Y-161751511D01*
X47176589Y-161630313D01*
X47227195Y-161463490D01*
X47240000Y-161333477D01*
X47240000Y-161333467D01*
X47244281Y-161290001D01*
X47240000Y-161246535D01*
X47240000Y-157975078D01*
X47374608Y-157864608D01*
X47375000Y-157864130D01*
X47375001Y-163503420D01*
X47049958Y-163828464D01*
X47049953Y-163828468D01*
X47049949Y-163828472D01*
X47016183Y-163856183D01*
X46988472Y-163889949D01*
X42971494Y-167906928D01*
X41985000Y-167906928D01*
X41811746Y-167923992D01*
X41645150Y-167974528D01*
X41491614Y-168056595D01*
X41357038Y-168167038D01*
X41246595Y-168301614D01*
X41164528Y-168455150D01*
X41113992Y-168621746D01*
X41096928Y-168795000D01*
X41096928Y-169286738D01*
X40890000Y-169079810D01*
X40890000Y-159751578D01*
X41098561Y-159543017D01*
X41133665Y-159550000D01*
X41416335Y-159550000D01*
X41693574Y-159494853D01*
X41954727Y-159386680D01*
X42189759Y-159229637D01*
X42389637Y-159029759D01*
X42409521Y-159000000D01*
X42501531Y-159000000D01*
X42545000Y-159004281D01*
X42588469Y-159000000D01*
X42588477Y-159000000D01*
X42718490Y-158987195D01*
X42885313Y-158936589D01*
X43039059Y-158854411D01*
X43173817Y-158743817D01*
X43201534Y-158710044D01*
X44926822Y-156984756D01*
X44940764Y-157126309D01*
G36*
X35945001Y-168543421D02*
G01*
X35828422Y-168660000D01*
X35515579Y-168660000D01*
X35487339Y-168607167D01*
X35361350Y-168453650D01*
X35207833Y-168327661D01*
X35109310Y-168275000D01*
X35207833Y-168222339D01*
X35361350Y-168096350D01*
X35487339Y-167942833D01*
X35515579Y-167890000D01*
X35945000Y-167890000D01*
X35945001Y-168543421D01*
X35945001Y-168543421D01*
G37*
X35945001Y-168543421D02*
X35828422Y-168660000D01*
X35515579Y-168660000D01*
X35487339Y-168607167D01*
X35361350Y-168453650D01*
X35207833Y-168327661D01*
X35109310Y-168275000D01*
X35207833Y-168222339D01*
X35361350Y-168096350D01*
X35487339Y-167942833D01*
X35515579Y-167890000D01*
X35945000Y-167890000D01*
X35945001Y-168543421D01*
G36*
X81584999Y-164813422D02*
G01*
X78867000Y-167531422D01*
X78867000Y-167502408D01*
X78865701Y-167495877D01*
X81584999Y-164776580D01*
X81584999Y-164813422D01*
X81584999Y-164813422D01*
G37*
X81584999Y-164813422D02*
X78867000Y-167531422D01*
X78867000Y-167502408D01*
X78865701Y-167495877D01*
X81584999Y-164776580D01*
X81584999Y-164813422D01*
G36*
X35945001Y-166120000D02*
G01*
X35515579Y-166120000D01*
X35487339Y-166067167D01*
X35361350Y-165913650D01*
X35207833Y-165787661D01*
X35109310Y-165735000D01*
X35207833Y-165682339D01*
X35361350Y-165556350D01*
X35487339Y-165402833D01*
X35580956Y-165227686D01*
X35638606Y-165037641D01*
X35658072Y-164840000D01*
X35658072Y-164090000D01*
X35638606Y-163892359D01*
X35580956Y-163702314D01*
X35487339Y-163527167D01*
X35361350Y-163373650D01*
X35207833Y-163247661D01*
X35109310Y-163195000D01*
X35207833Y-163142339D01*
X35361350Y-163016350D01*
X35487339Y-162862833D01*
X35515579Y-162810000D01*
X35945000Y-162810000D01*
X35945001Y-166120000D01*
X35945001Y-166120000D01*
G37*
X35945001Y-166120000D02*
X35515579Y-166120000D01*
X35487339Y-166067167D01*
X35361350Y-165913650D01*
X35207833Y-165787661D01*
X35109310Y-165735000D01*
X35207833Y-165682339D01*
X35361350Y-165556350D01*
X35487339Y-165402833D01*
X35580956Y-165227686D01*
X35638606Y-165037641D01*
X35658072Y-164840000D01*
X35658072Y-164090000D01*
X35638606Y-163892359D01*
X35580956Y-163702314D01*
X35487339Y-163527167D01*
X35361350Y-163373650D01*
X35207833Y-163247661D01*
X35109310Y-163195000D01*
X35207833Y-163142339D01*
X35361350Y-163016350D01*
X35487339Y-162862833D01*
X35515579Y-162810000D01*
X35945000Y-162810000D01*
X35945001Y-166120000D01*
G36*
X64212688Y-165391495D02*
G01*
X64044701Y-165642905D01*
X63928989Y-165922257D01*
X63914917Y-165993001D01*
X63312654Y-165993001D01*
X63315120Y-165990535D01*
X63468005Y-165761727D01*
X63573314Y-165507490D01*
X63627000Y-165237592D01*
X63627000Y-165223001D01*
X64218530Y-165223001D01*
X64261999Y-165227282D01*
X64305468Y-165223001D01*
X64305476Y-165223001D01*
X64389453Y-165214730D01*
X64212688Y-165391495D01*
X64212688Y-165391495D01*
G37*
X64212688Y-165391495D02*
X64044701Y-165642905D01*
X63928989Y-165922257D01*
X63914917Y-165993001D01*
X63312654Y-165993001D01*
X63315120Y-165990535D01*
X63468005Y-165761727D01*
X63573314Y-165507490D01*
X63627000Y-165237592D01*
X63627000Y-165223001D01*
X64218530Y-165223001D01*
X64261999Y-165227282D01*
X64305468Y-165223001D01*
X64305476Y-165223001D01*
X64389453Y-165214730D01*
X64212688Y-165391495D01*
G36*
X80395000Y-163463421D02*
G01*
X78867000Y-164991421D01*
X78867000Y-164962408D01*
X78865701Y-164955877D01*
X80395000Y-163426579D01*
X80395000Y-163463421D01*
X80395000Y-163463421D01*
G37*
X80395000Y-163463421D02*
X78867000Y-164991421D01*
X78867000Y-164962408D01*
X78865701Y-164955877D01*
X80395000Y-163426579D01*
X80395000Y-163463421D01*
G36*
X50456495Y-157402312D02*
G01*
X50550000Y-157464790D01*
X50550001Y-161246521D01*
X50545719Y-161290000D01*
X50562805Y-161463490D01*
X50613412Y-161630313D01*
X50695590Y-161784059D01*
X50778468Y-161885046D01*
X50778469Y-161885047D01*
X50806184Y-161918817D01*
X50839951Y-161946529D01*
X52048468Y-163155047D01*
X52076183Y-163188817D01*
X52109951Y-163216530D01*
X52109953Y-163216532D01*
X52136692Y-163238476D01*
X52210941Y-163299411D01*
X52364687Y-163381589D01*
X52531510Y-163432195D01*
X52661523Y-163445000D01*
X52661533Y-163445000D01*
X52704999Y-163449281D01*
X52748465Y-163445000D01*
X54114922Y-163445000D01*
X54225392Y-163579608D01*
X54225870Y-163580000D01*
X51166579Y-163580000D01*
X50415000Y-162828422D01*
X50415000Y-157360817D01*
X50456495Y-157402312D01*
X50456495Y-157402312D01*
G37*
X50456495Y-157402312D02*
X50550000Y-157464790D01*
X50550001Y-161246521D01*
X50545719Y-161290000D01*
X50562805Y-161463490D01*
X50613412Y-161630313D01*
X50695590Y-161784059D01*
X50778468Y-161885046D01*
X50778469Y-161885047D01*
X50806184Y-161918817D01*
X50839951Y-161946529D01*
X52048468Y-163155047D01*
X52076183Y-163188817D01*
X52109951Y-163216530D01*
X52109953Y-163216532D01*
X52136692Y-163238476D01*
X52210941Y-163299411D01*
X52364687Y-163381589D01*
X52531510Y-163432195D01*
X52661523Y-163445000D01*
X52661533Y-163445000D01*
X52704999Y-163449281D01*
X52748465Y-163445000D01*
X54114922Y-163445000D01*
X54225392Y-163579608D01*
X54225870Y-163580000D01*
X51166579Y-163580000D01*
X50415000Y-162828422D01*
X50415000Y-157360817D01*
X50456495Y-157402312D01*
G36*
X79125001Y-162193420D02*
G01*
X78867000Y-162451421D01*
X78867000Y-162422408D01*
X78865701Y-162415878D01*
X78888531Y-162393048D01*
X78888536Y-162393042D01*
X79125001Y-162156577D01*
X79125001Y-162193420D01*
X79125001Y-162193420D01*
G37*
X79125001Y-162193420D02*
X78867000Y-162451421D01*
X78867000Y-162422408D01*
X78865701Y-162415878D01*
X78888531Y-162393048D01*
X78888536Y-162393042D01*
X79125001Y-162156577D01*
X79125001Y-162193420D01*
G36*
X58180188Y-161316005D02*
G01*
X58393995Y-161529812D01*
X58510263Y-161607500D01*
X58393995Y-161685188D01*
X58180188Y-161898995D01*
X58035000Y-162116284D01*
X58035000Y-161098716D01*
X58180188Y-161316005D01*
X58180188Y-161316005D01*
G37*
X58180188Y-161316005D02*
X58393995Y-161529812D01*
X58510263Y-161607500D01*
X58393995Y-161685188D01*
X58180188Y-161898995D01*
X58035000Y-162116284D01*
X58035000Y-161098716D01*
X58180188Y-161316005D01*
G36*
X61144880Y-150750535D02*
G01*
X61339465Y-150945120D01*
X61568273Y-151098005D01*
X61645515Y-151130000D01*
X61568273Y-151161995D01*
X61339465Y-151314880D01*
X61144880Y-151509465D01*
X60991995Y-151738273D01*
X60886686Y-151992510D01*
X60833000Y-152262408D01*
X60833000Y-152537592D01*
X60834299Y-152544122D01*
X56554956Y-156823466D01*
X56521183Y-156851183D01*
X56410589Y-156985942D01*
X56328411Y-157139688D01*
X56301015Y-157230000D01*
X56281779Y-157293412D01*
X56277805Y-157306511D01*
X56265000Y-157436524D01*
X56265000Y-157436531D01*
X56260719Y-157480000D01*
X56265000Y-157523469D01*
X56265001Y-161540871D01*
X56264608Y-161540392D01*
X56046101Y-161361068D01*
X55796808Y-161227818D01*
X55526309Y-161145764D01*
X55315492Y-161125000D01*
X55174508Y-161125000D01*
X54963691Y-161145764D01*
X54693192Y-161227818D01*
X54443899Y-161361068D01*
X54225392Y-161540392D01*
X54114922Y-161675000D01*
X53071579Y-161675000D01*
X52320000Y-160923422D01*
X52320000Y-157464790D01*
X52413505Y-157402312D01*
X52536928Y-157278889D01*
X52536928Y-157645000D01*
X52549188Y-157769482D01*
X52585498Y-157889180D01*
X52644463Y-157999494D01*
X52723815Y-158096185D01*
X52820506Y-158175537D01*
X52930820Y-158234502D01*
X53050518Y-158270812D01*
X53175000Y-158283072D01*
X54775000Y-158283072D01*
X54899482Y-158270812D01*
X55019180Y-158234502D01*
X55129494Y-158175537D01*
X55226185Y-158096185D01*
X55305537Y-157999494D01*
X55364502Y-157889180D01*
X55400812Y-157769482D01*
X55405545Y-157721425D01*
X55448490Y-157717195D01*
X55615313Y-157666589D01*
X55769059Y-157584411D01*
X55903817Y-157473817D01*
X55931534Y-157440044D01*
X58380050Y-154991529D01*
X58413817Y-154963817D01*
X58453397Y-154915590D01*
X58507470Y-154849701D01*
X58524411Y-154829059D01*
X58606589Y-154675313D01*
X58657195Y-154508490D01*
X58670000Y-154378477D01*
X58670000Y-154378467D01*
X58674281Y-154335001D01*
X58670000Y-154291534D01*
X58670000Y-152131578D01*
X60056579Y-150745000D01*
X61141182Y-150745000D01*
X61144880Y-150750535D01*
X61144880Y-150750535D01*
G37*
X61144880Y-150750535D02*
X61339465Y-150945120D01*
X61568273Y-151098005D01*
X61645515Y-151130000D01*
X61568273Y-151161995D01*
X61339465Y-151314880D01*
X61144880Y-151509465D01*
X60991995Y-151738273D01*
X60886686Y-151992510D01*
X60833000Y-152262408D01*
X60833000Y-152537592D01*
X60834299Y-152544122D01*
X56554956Y-156823466D01*
X56521183Y-156851183D01*
X56410589Y-156985942D01*
X56328411Y-157139688D01*
X56301015Y-157230000D01*
X56281779Y-157293412D01*
X56277805Y-157306511D01*
X56265000Y-157436524D01*
X56265000Y-157436531D01*
X56260719Y-157480000D01*
X56265000Y-157523469D01*
X56265001Y-161540871D01*
X56264608Y-161540392D01*
X56046101Y-161361068D01*
X55796808Y-161227818D01*
X55526309Y-161145764D01*
X55315492Y-161125000D01*
X55174508Y-161125000D01*
X54963691Y-161145764D01*
X54693192Y-161227818D01*
X54443899Y-161361068D01*
X54225392Y-161540392D01*
X54114922Y-161675000D01*
X53071579Y-161675000D01*
X52320000Y-160923422D01*
X52320000Y-157464790D01*
X52413505Y-157402312D01*
X52536928Y-157278889D01*
X52536928Y-157645000D01*
X52549188Y-157769482D01*
X52585498Y-157889180D01*
X52644463Y-157999494D01*
X52723815Y-158096185D01*
X52820506Y-158175537D01*
X52930820Y-158234502D01*
X53050518Y-158270812D01*
X53175000Y-158283072D01*
X54775000Y-158283072D01*
X54899482Y-158270812D01*
X55019180Y-158234502D01*
X55129494Y-158175537D01*
X55226185Y-158096185D01*
X55305537Y-157999494D01*
X55364502Y-157889180D01*
X55400812Y-157769482D01*
X55405545Y-157721425D01*
X55448490Y-157717195D01*
X55615313Y-157666589D01*
X55769059Y-157584411D01*
X55903817Y-157473817D01*
X55931534Y-157440044D01*
X58380050Y-154991529D01*
X58413817Y-154963817D01*
X58453397Y-154915590D01*
X58507470Y-154849701D01*
X58524411Y-154829059D01*
X58606589Y-154675313D01*
X58657195Y-154508490D01*
X58670000Y-154378477D01*
X58670000Y-154378467D01*
X58674281Y-154335001D01*
X58670000Y-154291534D01*
X58670000Y-152131578D01*
X60056579Y-150745000D01*
X61141182Y-150745000D01*
X61144880Y-150750535D01*
G36*
X35945000Y-157846579D02*
G01*
X35945001Y-161040000D01*
X35515579Y-161040000D01*
X35487339Y-160987167D01*
X35361350Y-160833650D01*
X35207833Y-160707661D01*
X35109310Y-160655000D01*
X35207833Y-160602339D01*
X35361350Y-160476350D01*
X35487339Y-160322833D01*
X35580956Y-160147686D01*
X35638606Y-159957641D01*
X35658072Y-159760000D01*
X35658072Y-159010000D01*
X35638606Y-158812359D01*
X35580956Y-158622314D01*
X35487339Y-158447167D01*
X35361350Y-158293650D01*
X35207833Y-158167661D01*
X35109310Y-158115000D01*
X35207833Y-158062339D01*
X35361350Y-157936350D01*
X35487339Y-157782833D01*
X35515579Y-157730000D01*
X35828422Y-157730000D01*
X35945000Y-157846579D01*
X35945000Y-157846579D01*
G37*
X35945000Y-157846579D02*
X35945001Y-161040000D01*
X35515579Y-161040000D01*
X35487339Y-160987167D01*
X35361350Y-160833650D01*
X35207833Y-160707661D01*
X35109310Y-160655000D01*
X35207833Y-160602339D01*
X35361350Y-160476350D01*
X35487339Y-160322833D01*
X35580956Y-160147686D01*
X35638606Y-159957641D01*
X35658072Y-159760000D01*
X35658072Y-159010000D01*
X35638606Y-158812359D01*
X35580956Y-158622314D01*
X35487339Y-158447167D01*
X35361350Y-158293650D01*
X35207833Y-158167661D01*
X35109310Y-158115000D01*
X35207833Y-158062339D01*
X35361350Y-157936350D01*
X35487339Y-157782833D01*
X35515579Y-157730000D01*
X35828422Y-157730000D01*
X35945000Y-157846579D01*
G36*
X68965000Y-160386579D02*
G01*
X68965000Y-160423421D01*
X66290000Y-157748422D01*
X66290000Y-157711578D01*
X68965000Y-160386579D01*
X68965000Y-160386579D01*
G37*
X68965000Y-160386579D02*
X68965000Y-160423421D01*
X66290000Y-157748422D01*
X66290000Y-157711578D01*
X68965000Y-160386579D01*
G36*
X58180188Y-158776005D02*
G01*
X58393995Y-158989812D01*
X58510263Y-159067500D01*
X58393995Y-159145188D01*
X58180188Y-159358995D01*
X58035000Y-159576284D01*
X58035000Y-158558716D01*
X58180188Y-158776005D01*
X58180188Y-158776005D01*
G37*
X58180188Y-158776005D02*
X58393995Y-158989812D01*
X58510263Y-159067500D01*
X58393995Y-159145188D01*
X58180188Y-159358995D01*
X58035000Y-159576284D01*
X58035000Y-158558716D01*
X58180188Y-158776005D01*
G36*
X44930125Y-151591704D02*
G01*
X44913057Y-151765000D01*
X44940764Y-152046309D01*
X45022818Y-152316808D01*
X45156068Y-152566101D01*
X45335392Y-152784608D01*
X45553899Y-152963932D01*
X45686858Y-153035000D01*
X45553899Y-153106068D01*
X45335392Y-153285392D01*
X45156068Y-153503899D01*
X45022818Y-153753192D01*
X44940764Y-154023691D01*
X44913057Y-154305000D01*
X44930125Y-154478296D01*
X42298909Y-157109513D01*
X42189759Y-157000363D01*
X41954727Y-156843320D01*
X41693574Y-156735147D01*
X41416335Y-156680000D01*
X41133665Y-156680000D01*
X40856426Y-156735147D01*
X40595273Y-156843320D01*
X40360241Y-157000363D01*
X40160363Y-157200241D01*
X40003320Y-157435273D01*
X39895147Y-157696426D01*
X39840000Y-157973665D01*
X39840000Y-158256335D01*
X39846983Y-158291439D01*
X39409956Y-158728466D01*
X39376183Y-158756183D01*
X39315020Y-158830710D01*
X39315020Y-149789275D01*
X39329950Y-149801528D01*
X41666939Y-152138518D01*
X41645000Y-152248816D01*
X41645000Y-152551184D01*
X41703989Y-152847743D01*
X41819701Y-153127095D01*
X41987688Y-153378505D01*
X42201495Y-153592312D01*
X42452905Y-153760299D01*
X42732257Y-153876011D01*
X43028816Y-153935000D01*
X43331184Y-153935000D01*
X43627743Y-153876011D01*
X43907095Y-153760299D01*
X44158505Y-153592312D01*
X44372312Y-153378505D01*
X44540299Y-153127095D01*
X44656011Y-152847743D01*
X44715000Y-152551184D01*
X44715000Y-152248816D01*
X44656011Y-151952257D01*
X44540299Y-151672905D01*
X44372312Y-151421495D01*
X44158505Y-151207688D01*
X43907095Y-151039701D01*
X43627743Y-150923989D01*
X43331184Y-150865000D01*
X43028816Y-150865000D01*
X42918518Y-150886939D01*
X41414756Y-149383178D01*
X41556309Y-149369236D01*
X41826808Y-149287182D01*
X42076101Y-149153932D01*
X42294608Y-148974608D01*
X42302912Y-148964490D01*
X44930125Y-151591704D01*
X44930125Y-151591704D01*
G37*
X44930125Y-151591704D02*
X44913057Y-151765000D01*
X44940764Y-152046309D01*
X45022818Y-152316808D01*
X45156068Y-152566101D01*
X45335392Y-152784608D01*
X45553899Y-152963932D01*
X45686858Y-153035000D01*
X45553899Y-153106068D01*
X45335392Y-153285392D01*
X45156068Y-153503899D01*
X45022818Y-153753192D01*
X44940764Y-154023691D01*
X44913057Y-154305000D01*
X44930125Y-154478296D01*
X42298909Y-157109513D01*
X42189759Y-157000363D01*
X41954727Y-156843320D01*
X41693574Y-156735147D01*
X41416335Y-156680000D01*
X41133665Y-156680000D01*
X40856426Y-156735147D01*
X40595273Y-156843320D01*
X40360241Y-157000363D01*
X40160363Y-157200241D01*
X40003320Y-157435273D01*
X39895147Y-157696426D01*
X39840000Y-157973665D01*
X39840000Y-158256335D01*
X39846983Y-158291439D01*
X39409956Y-158728466D01*
X39376183Y-158756183D01*
X39315020Y-158830710D01*
X39315020Y-149789275D01*
X39329950Y-149801528D01*
X41666939Y-152138518D01*
X41645000Y-152248816D01*
X41645000Y-152551184D01*
X41703989Y-152847743D01*
X41819701Y-153127095D01*
X41987688Y-153378505D01*
X42201495Y-153592312D01*
X42452905Y-153760299D01*
X42732257Y-153876011D01*
X43028816Y-153935000D01*
X43331184Y-153935000D01*
X43627743Y-153876011D01*
X43907095Y-153760299D01*
X44158505Y-153592312D01*
X44372312Y-153378505D01*
X44540299Y-153127095D01*
X44656011Y-152847743D01*
X44715000Y-152551184D01*
X44715000Y-152248816D01*
X44656011Y-151952257D01*
X44540299Y-151672905D01*
X44372312Y-151421495D01*
X44158505Y-151207688D01*
X43907095Y-151039701D01*
X43627743Y-150923989D01*
X43331184Y-150865000D01*
X43028816Y-150865000D01*
X42918518Y-150886939D01*
X41414756Y-149383178D01*
X41556309Y-149369236D01*
X41826808Y-149287182D01*
X42076101Y-149153932D01*
X42294608Y-148974608D01*
X42302912Y-148964490D01*
X44930125Y-151591704D01*
G36*
X60833000Y-155077592D02*
G01*
X60834299Y-155084122D01*
X59633982Y-156284440D01*
X59603251Y-156278327D01*
X60833000Y-155048579D01*
X60833000Y-155077592D01*
X60833000Y-155077592D01*
G37*
X60833000Y-155077592D02*
X60834299Y-155084122D01*
X59633982Y-156284440D01*
X59603251Y-156278327D01*
X60833000Y-155048579D01*
X60833000Y-155077592D01*
G36*
X36745011Y-151026590D02*
G01*
X36745011Y-156151508D01*
X36689059Y-156105589D01*
X36535313Y-156023411D01*
X36368490Y-155972805D01*
X36238477Y-155960000D01*
X36238469Y-155960000D01*
X36195000Y-155955719D01*
X36151531Y-155960000D01*
X35515579Y-155960000D01*
X35487339Y-155907167D01*
X35361350Y-155753650D01*
X35207833Y-155627661D01*
X35109310Y-155575000D01*
X35207833Y-155522339D01*
X35361350Y-155396350D01*
X35487339Y-155242833D01*
X35580956Y-155067686D01*
X35638606Y-154877641D01*
X35658072Y-154680000D01*
X35658072Y-153930000D01*
X35638606Y-153732359D01*
X35580956Y-153542314D01*
X35487339Y-153367167D01*
X35361350Y-153213650D01*
X35207833Y-153087661D01*
X35109310Y-153035000D01*
X35207833Y-152982339D01*
X35361350Y-152856350D01*
X35487339Y-152702833D01*
X35580956Y-152527686D01*
X35638606Y-152337641D01*
X35658072Y-152140000D01*
X35658072Y-151390000D01*
X35638606Y-151192359D01*
X35580956Y-151002314D01*
X35487339Y-150827167D01*
X35361350Y-150673650D01*
X35207833Y-150547661D01*
X35109310Y-150495000D01*
X35207833Y-150442339D01*
X35361350Y-150316350D01*
X35487339Y-150162833D01*
X35515579Y-150110000D01*
X35828422Y-150110000D01*
X36745011Y-151026590D01*
X36745011Y-151026590D01*
G37*
X36745011Y-151026590D02*
X36745011Y-156151508D01*
X36689059Y-156105589D01*
X36535313Y-156023411D01*
X36368490Y-155972805D01*
X36238477Y-155960000D01*
X36238469Y-155960000D01*
X36195000Y-155955719D01*
X36151531Y-155960000D01*
X35515579Y-155960000D01*
X35487339Y-155907167D01*
X35361350Y-155753650D01*
X35207833Y-155627661D01*
X35109310Y-155575000D01*
X35207833Y-155522339D01*
X35361350Y-155396350D01*
X35487339Y-155242833D01*
X35580956Y-155067686D01*
X35638606Y-154877641D01*
X35658072Y-154680000D01*
X35658072Y-153930000D01*
X35638606Y-153732359D01*
X35580956Y-153542314D01*
X35487339Y-153367167D01*
X35361350Y-153213650D01*
X35207833Y-153087661D01*
X35109310Y-153035000D01*
X35207833Y-152982339D01*
X35361350Y-152856350D01*
X35487339Y-152702833D01*
X35580956Y-152527686D01*
X35638606Y-152337641D01*
X35658072Y-152140000D01*
X35658072Y-151390000D01*
X35638606Y-151192359D01*
X35580956Y-151002314D01*
X35487339Y-150827167D01*
X35361350Y-150673650D01*
X35207833Y-150547661D01*
X35109310Y-150495000D01*
X35207833Y-150442339D01*
X35361350Y-150316350D01*
X35487339Y-150162833D01*
X35515579Y-150110000D01*
X35828422Y-150110000D01*
X36745011Y-151026590D01*
G36*
X47375000Y-155825870D02*
G01*
X47374608Y-155825392D01*
X47156101Y-155646068D01*
X47023142Y-155575000D01*
X47156101Y-155503932D01*
X47374608Y-155324608D01*
X47375000Y-155324130D01*
X47375000Y-155825870D01*
X47375000Y-155825870D01*
G37*
X47375000Y-155825870D02*
X47374608Y-155825392D01*
X47156101Y-155646068D01*
X47023142Y-155575000D01*
X47156101Y-155503932D01*
X47374608Y-155324608D01*
X47375000Y-155324130D01*
X47375000Y-155825870D01*
G36*
X56900000Y-153968421D02*
G01*
X55248011Y-155620410D01*
X55226185Y-155593815D01*
X55129494Y-155514463D01*
X55019180Y-155455498D01*
X54899482Y-155419188D01*
X54881518Y-155417419D01*
X54994608Y-155324608D01*
X55173932Y-155106101D01*
X55307182Y-154856808D01*
X55389236Y-154586309D01*
X55416943Y-154305000D01*
X55399875Y-154131704D01*
X56536532Y-152995047D01*
X56536536Y-152995042D01*
X56900001Y-152631578D01*
X56900000Y-153968421D01*
X56900000Y-153968421D01*
G37*
X56900000Y-153968421D02*
X55248011Y-155620410D01*
X55226185Y-155593815D01*
X55129494Y-155514463D01*
X55019180Y-155455498D01*
X54899482Y-155419188D01*
X54881518Y-155417419D01*
X54994608Y-155324608D01*
X55173932Y-155106101D01*
X55307182Y-154856808D01*
X55389236Y-154586309D01*
X55416943Y-154305000D01*
X55399875Y-154131704D01*
X56536532Y-152995047D01*
X56536536Y-152995042D01*
X56900001Y-152631578D01*
X56900000Y-153968421D01*
G36*
X52955392Y-155324608D02*
G01*
X53068482Y-155417419D01*
X53050518Y-155419188D01*
X52930820Y-155455498D01*
X52820506Y-155514463D01*
X52811449Y-155521895D01*
X52795299Y-155482905D01*
X52627312Y-155231495D01*
X52585817Y-155190000D01*
X52844922Y-155190000D01*
X52955392Y-155324608D01*
X52955392Y-155324608D01*
G37*
X52955392Y-155324608D02*
X53068482Y-155417419D01*
X53050518Y-155419188D01*
X52930820Y-155455498D01*
X52820506Y-155514463D01*
X52811449Y-155521895D01*
X52795299Y-155482905D01*
X52627312Y-155231495D01*
X52585817Y-155190000D01*
X52844922Y-155190000D01*
X52955392Y-155324608D01*
G36*
X52560764Y-152046309D02*
G01*
X52642818Y-152316808D01*
X52776068Y-152566101D01*
X52955392Y-152784608D01*
X53173899Y-152963932D01*
X53306858Y-153035000D01*
X53173899Y-153106068D01*
X52955392Y-153285392D01*
X52844922Y-153420000D01*
X52113469Y-153420000D01*
X52070000Y-153415719D01*
X52026531Y-153420000D01*
X52026523Y-153420000D01*
X51896510Y-153432805D01*
X51729686Y-153483411D01*
X51575941Y-153565589D01*
X51474953Y-153648468D01*
X51474951Y-153648470D01*
X51441183Y-153676183D01*
X51413470Y-153709951D01*
X50839956Y-154283466D01*
X50806183Y-154311183D01*
X50695589Y-154445942D01*
X50613411Y-154599688D01*
X50590470Y-154675313D01*
X50572671Y-154733989D01*
X50562805Y-154766511D01*
X50550000Y-154896524D01*
X50550000Y-154896531D01*
X50545719Y-154940000D01*
X50547389Y-154956955D01*
X50456495Y-155017688D01*
X50415000Y-155059183D01*
X50415000Y-154036578D01*
X52546822Y-151904756D01*
X52560764Y-152046309D01*
X52560764Y-152046309D01*
G37*
X52560764Y-152046309D02*
X52642818Y-152316808D01*
X52776068Y-152566101D01*
X52955392Y-152784608D01*
X53173899Y-152963932D01*
X53306858Y-153035000D01*
X53173899Y-153106068D01*
X52955392Y-153285392D01*
X52844922Y-153420000D01*
X52113469Y-153420000D01*
X52070000Y-153415719D01*
X52026531Y-153420000D01*
X52026523Y-153420000D01*
X51896510Y-153432805D01*
X51729686Y-153483411D01*
X51575941Y-153565589D01*
X51474953Y-153648468D01*
X51474951Y-153648470D01*
X51441183Y-153676183D01*
X51413470Y-153709951D01*
X50839956Y-154283466D01*
X50806183Y-154311183D01*
X50695589Y-154445942D01*
X50613411Y-154599688D01*
X50590470Y-154675313D01*
X50572671Y-154733989D01*
X50562805Y-154766511D01*
X50550000Y-154896524D01*
X50550000Y-154896531D01*
X50545719Y-154940000D01*
X50547389Y-154956955D01*
X50456495Y-155017688D01*
X50415000Y-155059183D01*
X50415000Y-154036578D01*
X52546822Y-151904756D01*
X52560764Y-152046309D01*
G36*
X82395125Y-154478296D02*
G01*
X82165000Y-154708422D01*
X82165000Y-154671578D01*
X82391822Y-154444756D01*
X82395125Y-154478296D01*
X82395125Y-154478296D01*
G37*
X82395125Y-154478296D02*
X82165000Y-154708422D01*
X82165000Y-154671578D01*
X82391822Y-154444756D01*
X82395125Y-154478296D01*
G36*
X82395125Y-151938296D02*
G01*
X80895000Y-153438422D01*
X80895000Y-153401578D01*
X82391822Y-151904756D01*
X82395125Y-151938296D01*
X82395125Y-151938296D01*
G37*
X82395125Y-151938296D02*
X80895000Y-153438422D01*
X80895000Y-153401578D01*
X82391822Y-151904756D01*
X82395125Y-151938296D01*
G36*
X40296495Y-133427688D02*
G01*
X40082688Y-133641495D01*
X39914701Y-133892905D01*
X39798989Y-134172257D01*
X39740000Y-134468816D01*
X39740000Y-134771184D01*
X39798989Y-135067743D01*
X39914701Y-135347095D01*
X40082688Y-135598505D01*
X40296495Y-135812312D01*
X40547905Y-135980299D01*
X40827257Y-136096011D01*
X41123816Y-136155000D01*
X41426184Y-136155000D01*
X41536482Y-136133060D01*
X45974999Y-140571578D01*
X45975000Y-142868522D01*
X45970718Y-142912001D01*
X45987804Y-143085491D01*
X46038411Y-143252314D01*
X46120589Y-143406060D01*
X46203467Y-143507047D01*
X46203470Y-143507050D01*
X46231183Y-143540818D01*
X46264950Y-143568530D01*
X49424971Y-146728552D01*
X49452682Y-146762318D01*
X49486448Y-146790029D01*
X49486452Y-146790033D01*
X49486457Y-146790037D01*
X50741708Y-148045289D01*
X50769421Y-148079057D01*
X50803189Y-148106770D01*
X50803191Y-148106772D01*
X50829773Y-148128587D01*
X50904179Y-148189651D01*
X51057925Y-148271829D01*
X51224748Y-148322435D01*
X51354761Y-148335240D01*
X51354771Y-148335240D01*
X51398237Y-148339521D01*
X51441703Y-148335240D01*
X52848829Y-148335240D01*
X52776068Y-148423899D01*
X52642818Y-148673192D01*
X52560764Y-148943691D01*
X52533057Y-149225000D01*
X52550125Y-149398296D01*
X48934951Y-153013470D01*
X48901184Y-153041183D01*
X48895000Y-153048718D01*
X48888817Y-153041183D01*
X48855050Y-153013471D01*
X47779875Y-151938296D01*
X47796943Y-151765000D01*
X47769236Y-151483691D01*
X47687182Y-151213192D01*
X47553932Y-150963899D01*
X47374608Y-150745392D01*
X47156101Y-150566068D01*
X47023142Y-150495000D01*
X47156101Y-150423932D01*
X47374608Y-150244608D01*
X47553932Y-150026101D01*
X47687182Y-149776808D01*
X47769236Y-149506309D01*
X47796943Y-149225000D01*
X47769236Y-148943691D01*
X47687182Y-148673192D01*
X47553932Y-148423899D01*
X47374608Y-148205392D01*
X47156101Y-148026068D01*
X46906808Y-147892818D01*
X46636309Y-147810764D01*
X46425492Y-147790000D01*
X46284508Y-147790000D01*
X46073691Y-147810764D01*
X45803192Y-147892818D01*
X45553899Y-148026068D01*
X45335392Y-148205392D01*
X45156068Y-148423899D01*
X45022818Y-148673192D01*
X44940764Y-148943691D01*
X44926822Y-149085244D01*
X43201534Y-147359956D01*
X43173817Y-147326183D01*
X43039059Y-147215589D01*
X42885313Y-147133411D01*
X42718490Y-147082805D01*
X42588477Y-147070000D01*
X42588469Y-147070000D01*
X42545000Y-147065719D01*
X42501531Y-147070000D01*
X42405078Y-147070000D01*
X42294608Y-146935392D01*
X42076101Y-146756068D01*
X41826808Y-146622818D01*
X41556309Y-146540764D01*
X41345492Y-146520000D01*
X41204508Y-146520000D01*
X40993691Y-146540764D01*
X40723192Y-146622818D01*
X40573878Y-146702628D01*
X40553816Y-146678182D01*
X40520049Y-146650470D01*
X39586500Y-145716922D01*
X39586500Y-143519969D01*
X39590781Y-143476500D01*
X39586500Y-143433031D01*
X39586500Y-143433023D01*
X39573695Y-143303010D01*
X39544621Y-143207167D01*
X39523089Y-143136186D01*
X39440911Y-142982441D01*
X39358032Y-142881453D01*
X39358030Y-142881451D01*
X39330317Y-142847683D01*
X39296550Y-142819971D01*
X37486534Y-141009956D01*
X37458817Y-140976183D01*
X37324059Y-140865589D01*
X37170313Y-140783411D01*
X37003490Y-140732805D01*
X36873477Y-140720000D01*
X36873469Y-140720000D01*
X36830000Y-140715719D01*
X36786531Y-140720000D01*
X35515579Y-140720000D01*
X35487339Y-140667167D01*
X35361350Y-140513650D01*
X35207833Y-140387661D01*
X35109310Y-140335000D01*
X35207833Y-140282339D01*
X35361350Y-140156350D01*
X35487339Y-140002833D01*
X35580956Y-139827686D01*
X35638606Y-139637641D01*
X35658072Y-139440000D01*
X35658072Y-138690000D01*
X35638606Y-138492359D01*
X35580956Y-138302314D01*
X35487339Y-138127167D01*
X35361350Y-137973650D01*
X35207833Y-137847661D01*
X35109310Y-137795000D01*
X35207833Y-137742339D01*
X35361350Y-137616350D01*
X35487339Y-137462833D01*
X35580956Y-137287686D01*
X35638606Y-137097641D01*
X35658072Y-136900000D01*
X35658072Y-136150000D01*
X35638606Y-135952359D01*
X35580956Y-135762314D01*
X35487339Y-135587167D01*
X35361350Y-135433650D01*
X35207833Y-135307661D01*
X35109310Y-135255000D01*
X35207833Y-135202339D01*
X35361350Y-135076350D01*
X35487339Y-134922833D01*
X35580956Y-134747686D01*
X35638606Y-134557641D01*
X35658072Y-134360000D01*
X35658072Y-133610000D01*
X35638606Y-133412359D01*
X35627273Y-133375000D01*
X40375348Y-133375000D01*
X40296495Y-133427688D01*
X40296495Y-133427688D01*
G37*
X40296495Y-133427688D02*
X40082688Y-133641495D01*
X39914701Y-133892905D01*
X39798989Y-134172257D01*
X39740000Y-134468816D01*
X39740000Y-134771184D01*
X39798989Y-135067743D01*
X39914701Y-135347095D01*
X40082688Y-135598505D01*
X40296495Y-135812312D01*
X40547905Y-135980299D01*
X40827257Y-136096011D01*
X41123816Y-136155000D01*
X41426184Y-136155000D01*
X41536482Y-136133060D01*
X45974999Y-140571578D01*
X45975000Y-142868522D01*
X45970718Y-142912001D01*
X45987804Y-143085491D01*
X46038411Y-143252314D01*
X46120589Y-143406060D01*
X46203467Y-143507047D01*
X46203470Y-143507050D01*
X46231183Y-143540818D01*
X46264950Y-143568530D01*
X49424971Y-146728552D01*
X49452682Y-146762318D01*
X49486448Y-146790029D01*
X49486452Y-146790033D01*
X49486457Y-146790037D01*
X50741708Y-148045289D01*
X50769421Y-148079057D01*
X50803189Y-148106770D01*
X50803191Y-148106772D01*
X50829773Y-148128587D01*
X50904179Y-148189651D01*
X51057925Y-148271829D01*
X51224748Y-148322435D01*
X51354761Y-148335240D01*
X51354771Y-148335240D01*
X51398237Y-148339521D01*
X51441703Y-148335240D01*
X52848829Y-148335240D01*
X52776068Y-148423899D01*
X52642818Y-148673192D01*
X52560764Y-148943691D01*
X52533057Y-149225000D01*
X52550125Y-149398296D01*
X48934951Y-153013470D01*
X48901184Y-153041183D01*
X48895000Y-153048718D01*
X48888817Y-153041183D01*
X48855050Y-153013471D01*
X47779875Y-151938296D01*
X47796943Y-151765000D01*
X47769236Y-151483691D01*
X47687182Y-151213192D01*
X47553932Y-150963899D01*
X47374608Y-150745392D01*
X47156101Y-150566068D01*
X47023142Y-150495000D01*
X47156101Y-150423932D01*
X47374608Y-150244608D01*
X47553932Y-150026101D01*
X47687182Y-149776808D01*
X47769236Y-149506309D01*
X47796943Y-149225000D01*
X47769236Y-148943691D01*
X47687182Y-148673192D01*
X47553932Y-148423899D01*
X47374608Y-148205392D01*
X47156101Y-148026068D01*
X46906808Y-147892818D01*
X46636309Y-147810764D01*
X46425492Y-147790000D01*
X46284508Y-147790000D01*
X46073691Y-147810764D01*
X45803192Y-147892818D01*
X45553899Y-148026068D01*
X45335392Y-148205392D01*
X45156068Y-148423899D01*
X45022818Y-148673192D01*
X44940764Y-148943691D01*
X44926822Y-149085244D01*
X43201534Y-147359956D01*
X43173817Y-147326183D01*
X43039059Y-147215589D01*
X42885313Y-147133411D01*
X42718490Y-147082805D01*
X42588477Y-147070000D01*
X42588469Y-147070000D01*
X42545000Y-147065719D01*
X42501531Y-147070000D01*
X42405078Y-147070000D01*
X42294608Y-146935392D01*
X42076101Y-146756068D01*
X41826808Y-146622818D01*
X41556309Y-146540764D01*
X41345492Y-146520000D01*
X41204508Y-146520000D01*
X40993691Y-146540764D01*
X40723192Y-146622818D01*
X40573878Y-146702628D01*
X40553816Y-146678182D01*
X40520049Y-146650470D01*
X39586500Y-145716922D01*
X39586500Y-143519969D01*
X39590781Y-143476500D01*
X39586500Y-143433031D01*
X39586500Y-143433023D01*
X39573695Y-143303010D01*
X39544621Y-143207167D01*
X39523089Y-143136186D01*
X39440911Y-142982441D01*
X39358032Y-142881453D01*
X39358030Y-142881451D01*
X39330317Y-142847683D01*
X39296550Y-142819971D01*
X37486534Y-141009956D01*
X37458817Y-140976183D01*
X37324059Y-140865589D01*
X37170313Y-140783411D01*
X37003490Y-140732805D01*
X36873477Y-140720000D01*
X36873469Y-140720000D01*
X36830000Y-140715719D01*
X36786531Y-140720000D01*
X35515579Y-140720000D01*
X35487339Y-140667167D01*
X35361350Y-140513650D01*
X35207833Y-140387661D01*
X35109310Y-140335000D01*
X35207833Y-140282339D01*
X35361350Y-140156350D01*
X35487339Y-140002833D01*
X35580956Y-139827686D01*
X35638606Y-139637641D01*
X35658072Y-139440000D01*
X35658072Y-138690000D01*
X35638606Y-138492359D01*
X35580956Y-138302314D01*
X35487339Y-138127167D01*
X35361350Y-137973650D01*
X35207833Y-137847661D01*
X35109310Y-137795000D01*
X35207833Y-137742339D01*
X35361350Y-137616350D01*
X35487339Y-137462833D01*
X35580956Y-137287686D01*
X35638606Y-137097641D01*
X35658072Y-136900000D01*
X35658072Y-136150000D01*
X35638606Y-135952359D01*
X35580956Y-135762314D01*
X35487339Y-135587167D01*
X35361350Y-135433650D01*
X35207833Y-135307661D01*
X35109310Y-135255000D01*
X35207833Y-135202339D01*
X35361350Y-135076350D01*
X35487339Y-134922833D01*
X35580956Y-134747686D01*
X35638606Y-134557641D01*
X35658072Y-134360000D01*
X35658072Y-133610000D01*
X35638606Y-133412359D01*
X35627273Y-133375000D01*
X40375348Y-133375000D01*
X40296495Y-133427688D01*
G36*
X83018899Y-147883932D02*
G01*
X83151858Y-147955000D01*
X83018899Y-148026068D01*
X82800392Y-148205392D01*
X82621068Y-148423899D01*
X82487818Y-148673192D01*
X82405764Y-148943691D01*
X82378057Y-149225000D01*
X82395125Y-149398296D01*
X79667001Y-152126421D01*
X79667001Y-150958207D01*
X82866416Y-147758793D01*
X83018899Y-147883932D01*
X83018899Y-147883932D01*
G37*
X83018899Y-147883932D02*
X83151858Y-147955000D01*
X83018899Y-148026068D01*
X82800392Y-148205392D01*
X82621068Y-148423899D01*
X82487818Y-148673192D01*
X82405764Y-148943691D01*
X82378057Y-149225000D01*
X82395125Y-149398296D01*
X79667001Y-152126421D01*
X79667001Y-150958207D01*
X82866416Y-147758793D01*
X83018899Y-147883932D01*
G36*
X55630001Y-151398420D02*
G01*
X55403178Y-151625244D01*
X55399875Y-151591704D01*
X55431531Y-151560048D01*
X55431535Y-151560043D01*
X55630001Y-151361577D01*
X55630001Y-151398420D01*
X55630001Y-151398420D01*
G37*
X55630001Y-151398420D02*
X55403178Y-151625244D01*
X55399875Y-151591704D01*
X55431531Y-151560048D01*
X55431535Y-151560043D01*
X55630001Y-151361577D01*
X55630001Y-151398420D01*
G36*
X60833000Y-142377592D02*
G01*
X60886686Y-142647490D01*
X60991995Y-142901727D01*
X61144880Y-143130535D01*
X61339465Y-143325120D01*
X61568273Y-143478005D01*
X61645515Y-143510000D01*
X61568273Y-143541995D01*
X61339465Y-143694880D01*
X61144880Y-143889465D01*
X60991995Y-144118273D01*
X60886686Y-144372510D01*
X60833000Y-144642408D01*
X60833000Y-144917592D01*
X60886686Y-145187490D01*
X60991995Y-145441727D01*
X61144880Y-145670535D01*
X61339465Y-145865120D01*
X61568273Y-146018005D01*
X61645515Y-146050000D01*
X61568273Y-146081995D01*
X61339465Y-146234880D01*
X61144880Y-146429465D01*
X60991995Y-146658273D01*
X60886686Y-146912510D01*
X60833000Y-147182408D01*
X60833000Y-147457592D01*
X60886686Y-147727490D01*
X60991995Y-147981727D01*
X61144880Y-148210535D01*
X61339465Y-148405120D01*
X61568273Y-148558005D01*
X61645515Y-148590000D01*
X61568273Y-148621995D01*
X61339465Y-148774880D01*
X61144880Y-148969465D01*
X61141182Y-148975000D01*
X59733469Y-148975000D01*
X59690000Y-148970719D01*
X59646531Y-148975000D01*
X59646523Y-148975000D01*
X59516510Y-148987805D01*
X59349687Y-149038411D01*
X59195941Y-149120589D01*
X59094953Y-149203468D01*
X59094951Y-149203470D01*
X59061183Y-149231183D01*
X59033470Y-149264951D01*
X57400000Y-150898422D01*
X57400000Y-145781578D01*
X60833000Y-142348579D01*
X60833000Y-142377592D01*
X60833000Y-142377592D01*
G37*
X60833000Y-142377592D02*
X60886686Y-142647490D01*
X60991995Y-142901727D01*
X61144880Y-143130535D01*
X61339465Y-143325120D01*
X61568273Y-143478005D01*
X61645515Y-143510000D01*
X61568273Y-143541995D01*
X61339465Y-143694880D01*
X61144880Y-143889465D01*
X60991995Y-144118273D01*
X60886686Y-144372510D01*
X60833000Y-144642408D01*
X60833000Y-144917592D01*
X60886686Y-145187490D01*
X60991995Y-145441727D01*
X61144880Y-145670535D01*
X61339465Y-145865120D01*
X61568273Y-146018005D01*
X61645515Y-146050000D01*
X61568273Y-146081995D01*
X61339465Y-146234880D01*
X61144880Y-146429465D01*
X60991995Y-146658273D01*
X60886686Y-146912510D01*
X60833000Y-147182408D01*
X60833000Y-147457592D01*
X60886686Y-147727490D01*
X60991995Y-147981727D01*
X61144880Y-148210535D01*
X61339465Y-148405120D01*
X61568273Y-148558005D01*
X61645515Y-148590000D01*
X61568273Y-148621995D01*
X61339465Y-148774880D01*
X61144880Y-148969465D01*
X61141182Y-148975000D01*
X59733469Y-148975000D01*
X59690000Y-148970719D01*
X59646531Y-148975000D01*
X59646523Y-148975000D01*
X59516510Y-148987805D01*
X59349687Y-149038411D01*
X59195941Y-149120589D01*
X59094953Y-149203468D01*
X59094951Y-149203470D01*
X59061183Y-149231183D01*
X59033470Y-149264951D01*
X57400000Y-150898422D01*
X57400000Y-145781578D01*
X60833000Y-142348579D01*
X60833000Y-142377592D01*
G36*
X81258470Y-144740049D02*
G01*
X81286183Y-144773817D01*
X81319951Y-144801530D01*
X81319953Y-144801532D01*
X81420940Y-144884410D01*
X81420941Y-144884411D01*
X81574687Y-144966589D01*
X81741510Y-145017195D01*
X81871523Y-145030000D01*
X81871531Y-145030000D01*
X81915000Y-145034281D01*
X81958469Y-145030000D01*
X82689922Y-145030000D01*
X82800392Y-145164608D01*
X83018899Y-145343932D01*
X83151858Y-145415000D01*
X83018899Y-145486068D01*
X82800392Y-145665392D01*
X82693076Y-145796157D01*
X82688630Y-145795719D01*
X82645161Y-145800000D01*
X82645153Y-145800000D01*
X82515140Y-145812805D01*
X82348317Y-145863411D01*
X82238116Y-145922314D01*
X82194571Y-145945589D01*
X82093583Y-146028468D01*
X82093581Y-146028470D01*
X82059813Y-146056183D01*
X82032100Y-146089951D01*
X78771204Y-149350848D01*
X78708005Y-149198273D01*
X78555120Y-148969465D01*
X78360535Y-148774880D01*
X78131727Y-148621995D01*
X78054485Y-148590000D01*
X78131727Y-148558005D01*
X78360535Y-148405120D01*
X78555120Y-148210535D01*
X78708005Y-147981727D01*
X78813314Y-147727490D01*
X78867000Y-147457592D01*
X78867000Y-147182408D01*
X78813314Y-146912510D01*
X78708005Y-146658273D01*
X78555120Y-146429465D01*
X78360535Y-146234880D01*
X78131727Y-146081995D01*
X78054485Y-146050000D01*
X78131727Y-146018005D01*
X78360535Y-145865120D01*
X78555120Y-145670535D01*
X78708005Y-145441727D01*
X78813314Y-145187490D01*
X78867000Y-144917592D01*
X78867000Y-144642408D01*
X78813314Y-144372510D01*
X78708005Y-144118273D01*
X78555120Y-143889465D01*
X78360535Y-143694880D01*
X78131727Y-143541995D01*
X78054485Y-143510000D01*
X78131727Y-143478005D01*
X78360535Y-143325120D01*
X78555120Y-143130535D01*
X78558818Y-143125000D01*
X79643422Y-143125000D01*
X81258470Y-144740049D01*
X81258470Y-144740049D01*
G37*
X81258470Y-144740049D02*
X81286183Y-144773817D01*
X81319951Y-144801530D01*
X81319953Y-144801532D01*
X81420940Y-144884410D01*
X81420941Y-144884411D01*
X81574687Y-144966589D01*
X81741510Y-145017195D01*
X81871523Y-145030000D01*
X81871531Y-145030000D01*
X81915000Y-145034281D01*
X81958469Y-145030000D01*
X82689922Y-145030000D01*
X82800392Y-145164608D01*
X83018899Y-145343932D01*
X83151858Y-145415000D01*
X83018899Y-145486068D01*
X82800392Y-145665392D01*
X82693076Y-145796157D01*
X82688630Y-145795719D01*
X82645161Y-145800000D01*
X82645153Y-145800000D01*
X82515140Y-145812805D01*
X82348317Y-145863411D01*
X82238116Y-145922314D01*
X82194571Y-145945589D01*
X82093583Y-146028468D01*
X82093581Y-146028470D01*
X82059813Y-146056183D01*
X82032100Y-146089951D01*
X78771204Y-149350848D01*
X78708005Y-149198273D01*
X78555120Y-148969465D01*
X78360535Y-148774880D01*
X78131727Y-148621995D01*
X78054485Y-148590000D01*
X78131727Y-148558005D01*
X78360535Y-148405120D01*
X78555120Y-148210535D01*
X78708005Y-147981727D01*
X78813314Y-147727490D01*
X78867000Y-147457592D01*
X78867000Y-147182408D01*
X78813314Y-146912510D01*
X78708005Y-146658273D01*
X78555120Y-146429465D01*
X78360535Y-146234880D01*
X78131727Y-146081995D01*
X78054485Y-146050000D01*
X78131727Y-146018005D01*
X78360535Y-145865120D01*
X78555120Y-145670535D01*
X78708005Y-145441727D01*
X78813314Y-145187490D01*
X78867000Y-144917592D01*
X78867000Y-144642408D01*
X78813314Y-144372510D01*
X78708005Y-144118273D01*
X78555120Y-143889465D01*
X78360535Y-143694880D01*
X78131727Y-143541995D01*
X78054485Y-143510000D01*
X78131727Y-143478005D01*
X78360535Y-143325120D01*
X78555120Y-143130535D01*
X78558818Y-143125000D01*
X79643422Y-143125000D01*
X81258470Y-144740049D01*
G36*
X37545021Y-147821600D02*
G01*
X37545021Y-149323442D01*
X36851534Y-148629956D01*
X36823817Y-148596183D01*
X36689059Y-148485589D01*
X36535313Y-148403411D01*
X36368490Y-148352805D01*
X36238477Y-148340000D01*
X36238469Y-148340000D01*
X36195000Y-148335719D01*
X36151531Y-148340000D01*
X35515579Y-148340000D01*
X35487339Y-148287167D01*
X35361350Y-148133650D01*
X35207833Y-148007661D01*
X35109310Y-147955000D01*
X35207833Y-147902339D01*
X35361350Y-147776350D01*
X35487339Y-147622833D01*
X35580956Y-147447686D01*
X35638606Y-147257641D01*
X35658072Y-147060000D01*
X35658072Y-146310000D01*
X35638606Y-146112359D01*
X35580956Y-145922314D01*
X35506573Y-145783151D01*
X37545021Y-147821600D01*
X37545021Y-147821600D01*
G37*
X37545021Y-147821600D02*
X37545021Y-149323442D01*
X36851534Y-148629956D01*
X36823817Y-148596183D01*
X36689059Y-148485589D01*
X36535313Y-148403411D01*
X36368490Y-148352805D01*
X36238477Y-148340000D01*
X36238469Y-148340000D01*
X36195000Y-148335719D01*
X36151531Y-148340000D01*
X35515579Y-148340000D01*
X35487339Y-148287167D01*
X35361350Y-148133650D01*
X35207833Y-148007661D01*
X35109310Y-147955000D01*
X35207833Y-147902339D01*
X35361350Y-147776350D01*
X35487339Y-147622833D01*
X35580956Y-147447686D01*
X35638606Y-147257641D01*
X35658072Y-147060000D01*
X35658072Y-146310000D01*
X35638606Y-146112359D01*
X35580956Y-145922314D01*
X35506573Y-145783151D01*
X37545021Y-147821600D01*
G36*
X60886686Y-139292510D02*
G01*
X60833000Y-139562408D01*
X60833000Y-139837592D01*
X60834299Y-139844122D01*
X55919956Y-144758466D01*
X55886183Y-144786183D01*
X55775589Y-144920942D01*
X55693411Y-145074688D01*
X55679571Y-145120313D01*
X55644371Y-145236350D01*
X55642805Y-145241511D01*
X55630000Y-145371524D01*
X55630000Y-145371531D01*
X55625719Y-145415000D01*
X55630000Y-145458469D01*
X55630000Y-147630420D01*
X54854776Y-146855196D01*
X54827059Y-146821423D01*
X54692301Y-146710829D01*
X54538555Y-146628651D01*
X54371732Y-146578045D01*
X54241719Y-146565240D01*
X54241711Y-146565240D01*
X54198242Y-146560959D01*
X54154773Y-146565240D01*
X51764817Y-146565240D01*
X51333077Y-146133501D01*
X58193580Y-139272999D01*
X60894768Y-139272999D01*
X60886686Y-139292510D01*
X60886686Y-139292510D01*
G37*
X60886686Y-139292510D02*
X60833000Y-139562408D01*
X60833000Y-139837592D01*
X60834299Y-139844122D01*
X55919956Y-144758466D01*
X55886183Y-144786183D01*
X55775589Y-144920942D01*
X55693411Y-145074688D01*
X55679571Y-145120313D01*
X55644371Y-145236350D01*
X55642805Y-145241511D01*
X55630000Y-145371524D01*
X55630000Y-145371531D01*
X55625719Y-145415000D01*
X55630000Y-145458469D01*
X55630000Y-147630420D01*
X54854776Y-146855196D01*
X54827059Y-146821423D01*
X54692301Y-146710829D01*
X54538555Y-146628651D01*
X54371732Y-146578045D01*
X54241719Y-146565240D01*
X54241711Y-146565240D01*
X54198242Y-146560959D01*
X54154773Y-146565240D01*
X51764817Y-146565240D01*
X51333077Y-146133501D01*
X58193580Y-139272999D01*
X60894768Y-139272999D01*
X60886686Y-139292510D01*
G36*
X65790000Y-147051579D02*
G01*
X65790000Y-147088421D01*
X63625701Y-144924123D01*
X63627000Y-144917592D01*
X63627000Y-144888578D01*
X65790000Y-147051579D01*
X65790000Y-147051579D01*
G37*
X65790000Y-147051579D02*
X65790000Y-147088421D01*
X63625701Y-144924123D01*
X63627000Y-144917592D01*
X63627000Y-144888578D01*
X65790000Y-147051579D01*
G36*
X37816500Y-143843079D02*
G01*
X37816501Y-145589922D01*
X35776532Y-143549954D01*
X35748817Y-143516183D01*
X35614059Y-143405589D01*
X35582977Y-143388975D01*
X35580956Y-143382314D01*
X35487339Y-143207167D01*
X35361350Y-143053650D01*
X35207833Y-142927661D01*
X35109310Y-142875000D01*
X35207833Y-142822339D01*
X35361350Y-142696350D01*
X35487339Y-142542833D01*
X35515579Y-142490000D01*
X36463422Y-142490000D01*
X37816500Y-143843079D01*
X37816500Y-143843079D01*
G37*
X37816500Y-143843079D02*
X37816501Y-145589922D01*
X35776532Y-143549954D01*
X35748817Y-143516183D01*
X35614059Y-143405589D01*
X35582977Y-143388975D01*
X35580956Y-143382314D01*
X35487339Y-143207167D01*
X35361350Y-143053650D01*
X35207833Y-142927661D01*
X35109310Y-142875000D01*
X35207833Y-142822339D01*
X35361350Y-142696350D01*
X35487339Y-142542833D01*
X35515579Y-142490000D01*
X36463422Y-142490000D01*
X37816500Y-143843079D01*
G36*
X35171849Y-145448428D02*
G01*
X35109310Y-145415000D01*
X35128282Y-145404860D01*
X35171849Y-145448428D01*
X35171849Y-145448428D01*
G37*
X35171849Y-145448428D02*
X35109310Y-145415000D01*
X35128282Y-145404860D01*
X35171849Y-145448428D01*
G36*
X49559294Y-143069014D02*
G01*
X49744866Y-143295134D01*
X49970986Y-143480706D01*
X50228966Y-143618599D01*
X50508889Y-143703513D01*
X50727050Y-143725000D01*
X50872950Y-143725000D01*
X51091111Y-143703513D01*
X51333409Y-143630012D01*
X50081499Y-144881923D01*
X48821168Y-143621592D01*
X48831034Y-143618599D01*
X49089014Y-143480706D01*
X49315134Y-143295134D01*
X49500706Y-143069014D01*
X49530000Y-143014209D01*
X49559294Y-143069014D01*
X49559294Y-143069014D01*
G37*
X49559294Y-143069014D02*
X49744866Y-143295134D01*
X49970986Y-143480706D01*
X50228966Y-143618599D01*
X50508889Y-143703513D01*
X50727050Y-143725000D01*
X50872950Y-143725000D01*
X51091111Y-143703513D01*
X51333409Y-143630012D01*
X50081499Y-144881923D01*
X48821168Y-143621592D01*
X48831034Y-143618599D01*
X49089014Y-143480706D01*
X49315134Y-143295134D01*
X49500706Y-143069014D01*
X49530000Y-143014209D01*
X49559294Y-143069014D01*
G36*
X80623468Y-139660047D02*
G01*
X80651183Y-139693817D01*
X80684951Y-139721530D01*
X80684953Y-139721532D01*
X80756452Y-139780210D01*
X80785941Y-139804411D01*
X80939687Y-139886589D01*
X81106510Y-139937195D01*
X81236523Y-139950000D01*
X81236533Y-139950000D01*
X81279999Y-139954281D01*
X81323465Y-139950000D01*
X82689922Y-139950000D01*
X82800392Y-140084608D01*
X83018899Y-140263932D01*
X83151858Y-140335000D01*
X83018899Y-140406068D01*
X82800392Y-140585392D01*
X82621068Y-140803899D01*
X82487818Y-141053192D01*
X82405764Y-141323691D01*
X82378057Y-141605000D01*
X82405764Y-141886309D01*
X82487818Y-142156808D01*
X82621068Y-142406101D01*
X82800392Y-142624608D01*
X83018899Y-142803932D01*
X83151858Y-142875000D01*
X83018899Y-142946068D01*
X82800392Y-143125392D01*
X82689922Y-143260000D01*
X82281579Y-143260000D01*
X80666534Y-141644956D01*
X80638817Y-141611183D01*
X80504059Y-141500589D01*
X80350313Y-141418411D01*
X80183490Y-141367805D01*
X80053477Y-141355000D01*
X80053469Y-141355000D01*
X80010000Y-141350719D01*
X79966531Y-141355000D01*
X78558818Y-141355000D01*
X78555120Y-141349465D01*
X78360535Y-141154880D01*
X78131727Y-141001995D01*
X78054485Y-140970000D01*
X78131727Y-140938005D01*
X78360535Y-140785120D01*
X78555120Y-140590535D01*
X78708005Y-140361727D01*
X78813314Y-140107490D01*
X78867000Y-139837592D01*
X78867000Y-139562408D01*
X78813314Y-139292510D01*
X78708005Y-139038273D01*
X78555120Y-138809465D01*
X78360535Y-138614880D01*
X78131727Y-138461995D01*
X77877490Y-138356686D01*
X77607592Y-138303000D01*
X77332408Y-138303000D01*
X77325877Y-138304299D01*
X76912799Y-137891221D01*
X76927095Y-137885299D01*
X77178505Y-137717312D01*
X77392312Y-137503505D01*
X77454790Y-137410000D01*
X78373422Y-137410000D01*
X80623468Y-139660047D01*
X80623468Y-139660047D01*
G37*
X80623468Y-139660047D02*
X80651183Y-139693817D01*
X80684951Y-139721530D01*
X80684953Y-139721532D01*
X80756452Y-139780210D01*
X80785941Y-139804411D01*
X80939687Y-139886589D01*
X81106510Y-139937195D01*
X81236523Y-139950000D01*
X81236533Y-139950000D01*
X81279999Y-139954281D01*
X81323465Y-139950000D01*
X82689922Y-139950000D01*
X82800392Y-140084608D01*
X83018899Y-140263932D01*
X83151858Y-140335000D01*
X83018899Y-140406068D01*
X82800392Y-140585392D01*
X82621068Y-140803899D01*
X82487818Y-141053192D01*
X82405764Y-141323691D01*
X82378057Y-141605000D01*
X82405764Y-141886309D01*
X82487818Y-142156808D01*
X82621068Y-142406101D01*
X82800392Y-142624608D01*
X83018899Y-142803932D01*
X83151858Y-142875000D01*
X83018899Y-142946068D01*
X82800392Y-143125392D01*
X82689922Y-143260000D01*
X82281579Y-143260000D01*
X80666534Y-141644956D01*
X80638817Y-141611183D01*
X80504059Y-141500589D01*
X80350313Y-141418411D01*
X80183490Y-141367805D01*
X80053477Y-141355000D01*
X80053469Y-141355000D01*
X80010000Y-141350719D01*
X79966531Y-141355000D01*
X78558818Y-141355000D01*
X78555120Y-141349465D01*
X78360535Y-141154880D01*
X78131727Y-141001995D01*
X78054485Y-140970000D01*
X78131727Y-140938005D01*
X78360535Y-140785120D01*
X78555120Y-140590535D01*
X78708005Y-140361727D01*
X78813314Y-140107490D01*
X78867000Y-139837592D01*
X78867000Y-139562408D01*
X78813314Y-139292510D01*
X78708005Y-139038273D01*
X78555120Y-138809465D01*
X78360535Y-138614880D01*
X78131727Y-138461995D01*
X77877490Y-138356686D01*
X77607592Y-138303000D01*
X77332408Y-138303000D01*
X77325877Y-138304299D01*
X76912799Y-137891221D01*
X76927095Y-137885299D01*
X77178505Y-137717312D01*
X77392312Y-137503505D01*
X77454790Y-137410000D01*
X78373422Y-137410000D01*
X80623468Y-139660047D01*
G36*
X70857468Y-133389951D02*
G01*
X66744421Y-137502999D01*
X57870470Y-137502999D01*
X57827001Y-137498718D01*
X57783532Y-137502999D01*
X57783524Y-137502999D01*
X57670863Y-137514095D01*
X57653510Y-137515804D01*
X57602904Y-137531156D01*
X57486688Y-137566410D01*
X57332942Y-137648588D01*
X57332940Y-137648589D01*
X57332941Y-137648589D01*
X57231954Y-137731467D01*
X57231952Y-137731469D01*
X57198184Y-137759182D01*
X57170471Y-137792950D01*
X52190012Y-142773409D01*
X52263513Y-142531111D01*
X52292185Y-142240000D01*
X52263513Y-141948889D01*
X52178599Y-141668966D01*
X52040706Y-141410986D01*
X51855134Y-141184866D01*
X51629014Y-140999294D01*
X51574209Y-140970000D01*
X51629014Y-140940706D01*
X51855134Y-140755134D01*
X52040706Y-140529014D01*
X52178599Y-140271034D01*
X52263513Y-139991111D01*
X52292185Y-139700000D01*
X52263513Y-139408889D01*
X52178599Y-139128966D01*
X52040706Y-138870986D01*
X51855134Y-138644866D01*
X51629014Y-138459294D01*
X51574209Y-138430000D01*
X51629014Y-138400706D01*
X51855134Y-138215134D01*
X52040706Y-137989014D01*
X52178599Y-137731034D01*
X52263513Y-137451111D01*
X52292185Y-137160000D01*
X52263513Y-136868889D01*
X52178599Y-136588966D01*
X52040706Y-136330986D01*
X51855134Y-136104866D01*
X51825313Y-136080393D01*
X51894180Y-136059502D01*
X52004494Y-136000537D01*
X52101185Y-135921185D01*
X52180537Y-135824494D01*
X52239502Y-135714180D01*
X52275812Y-135594482D01*
X52288072Y-135470000D01*
X52288072Y-133770000D01*
X52275812Y-133645518D01*
X52239502Y-133525820D01*
X52180537Y-133415506D01*
X52147295Y-133375000D01*
X70869738Y-133375000D01*
X70857468Y-133389951D01*
X70857468Y-133389951D01*
G37*
X70857468Y-133389951D02*
X66744421Y-137502999D01*
X57870470Y-137502999D01*
X57827001Y-137498718D01*
X57783532Y-137502999D01*
X57783524Y-137502999D01*
X57670863Y-137514095D01*
X57653510Y-137515804D01*
X57602904Y-137531156D01*
X57486688Y-137566410D01*
X57332942Y-137648588D01*
X57332940Y-137648589D01*
X57332941Y-137648589D01*
X57231954Y-137731467D01*
X57231952Y-137731469D01*
X57198184Y-137759182D01*
X57170471Y-137792950D01*
X52190012Y-142773409D01*
X52263513Y-142531111D01*
X52292185Y-142240000D01*
X52263513Y-141948889D01*
X52178599Y-141668966D01*
X52040706Y-141410986D01*
X51855134Y-141184866D01*
X51629014Y-140999294D01*
X51574209Y-140970000D01*
X51629014Y-140940706D01*
X51855134Y-140755134D01*
X52040706Y-140529014D01*
X52178599Y-140271034D01*
X52263513Y-139991111D01*
X52292185Y-139700000D01*
X52263513Y-139408889D01*
X52178599Y-139128966D01*
X52040706Y-138870986D01*
X51855134Y-138644866D01*
X51629014Y-138459294D01*
X51574209Y-138430000D01*
X51629014Y-138400706D01*
X51855134Y-138215134D01*
X52040706Y-137989014D01*
X52178599Y-137731034D01*
X52263513Y-137451111D01*
X52292185Y-137160000D01*
X52263513Y-136868889D01*
X52178599Y-136588966D01*
X52040706Y-136330986D01*
X51855134Y-136104866D01*
X51825313Y-136080393D01*
X51894180Y-136059502D01*
X52004494Y-136000537D01*
X52101185Y-135921185D01*
X52180537Y-135824494D01*
X52239502Y-135714180D01*
X52275812Y-135594482D01*
X52288072Y-135470000D01*
X52288072Y-133770000D01*
X52275812Y-133645518D01*
X52239502Y-133525820D01*
X52180537Y-133415506D01*
X52147295Y-133375000D01*
X70869738Y-133375000D01*
X70857468Y-133389951D01*
G36*
X49559294Y-140529014D02*
G01*
X49744866Y-140755134D01*
X49970986Y-140940706D01*
X50025791Y-140970000D01*
X49970986Y-140999294D01*
X49744866Y-141184866D01*
X49559294Y-141410986D01*
X49530000Y-141465791D01*
X49500706Y-141410986D01*
X49315134Y-141184866D01*
X49089014Y-140999294D01*
X49034209Y-140970000D01*
X49089014Y-140940706D01*
X49315134Y-140755134D01*
X49500706Y-140529014D01*
X49530000Y-140474209D01*
X49559294Y-140529014D01*
X49559294Y-140529014D01*
G37*
X49559294Y-140529014D02*
X49744866Y-140755134D01*
X49970986Y-140940706D01*
X50025791Y-140970000D01*
X49970986Y-140999294D01*
X49744866Y-141184866D01*
X49559294Y-141410986D01*
X49530000Y-141465791D01*
X49500706Y-141410986D01*
X49315134Y-141184866D01*
X49089014Y-140999294D01*
X49034209Y-140970000D01*
X49089014Y-140940706D01*
X49315134Y-140755134D01*
X49500706Y-140529014D01*
X49530000Y-140474209D01*
X49559294Y-140529014D01*
G36*
X98425460Y-135237039D02*
G01*
X98258899Y-135326068D01*
X98040392Y-135505392D01*
X97861068Y-135723899D01*
X97727818Y-135973192D01*
X97645764Y-136243691D01*
X97618057Y-136525000D01*
X97645764Y-136806309D01*
X97727818Y-137076808D01*
X97861068Y-137326101D01*
X98040392Y-137544608D01*
X98258899Y-137723932D01*
X98391858Y-137795000D01*
X98258899Y-137866068D01*
X98040392Y-138045392D01*
X97929922Y-138180000D01*
X88943469Y-138180000D01*
X88900000Y-138175719D01*
X88856531Y-138180000D01*
X88856523Y-138180000D01*
X88726510Y-138192805D01*
X88559687Y-138243411D01*
X88449486Y-138302314D01*
X88405941Y-138325589D01*
X88304953Y-138408468D01*
X88304951Y-138408470D01*
X88271183Y-138436183D01*
X88243470Y-138469951D01*
X85248178Y-141465244D01*
X85234236Y-141323691D01*
X85152182Y-141053192D01*
X85018932Y-140803899D01*
X84839608Y-140585392D01*
X84621101Y-140406068D01*
X84488142Y-140335000D01*
X84621101Y-140263932D01*
X84839608Y-140084608D01*
X85018932Y-139866101D01*
X85152182Y-139616808D01*
X85234236Y-139346309D01*
X85261943Y-139065000D01*
X85234236Y-138783691D01*
X85152182Y-138513192D01*
X85018932Y-138263899D01*
X84839608Y-138045392D01*
X84726518Y-137952581D01*
X84744482Y-137950812D01*
X84864180Y-137914502D01*
X84974494Y-137855537D01*
X85071185Y-137776185D01*
X85150537Y-137679494D01*
X85209502Y-137569180D01*
X85245812Y-137449482D01*
X85258072Y-137325000D01*
X85258072Y-135725000D01*
X85245812Y-135600518D01*
X85209502Y-135480820D01*
X85150537Y-135370506D01*
X85071185Y-135273815D01*
X84974494Y-135194463D01*
X84864180Y-135135498D01*
X84744482Y-135099188D01*
X84620000Y-135086928D01*
X83020000Y-135086928D01*
X82895518Y-135099188D01*
X82775820Y-135135498D01*
X82665506Y-135194463D01*
X82568815Y-135273815D01*
X82546989Y-135300410D01*
X82116578Y-134870000D01*
X98058422Y-134870000D01*
X98425460Y-135237039D01*
X98425460Y-135237039D01*
G37*
X98425460Y-135237039D02*
X98258899Y-135326068D01*
X98040392Y-135505392D01*
X97861068Y-135723899D01*
X97727818Y-135973192D01*
X97645764Y-136243691D01*
X97618057Y-136525000D01*
X97645764Y-136806309D01*
X97727818Y-137076808D01*
X97861068Y-137326101D01*
X98040392Y-137544608D01*
X98258899Y-137723932D01*
X98391858Y-137795000D01*
X98258899Y-137866068D01*
X98040392Y-138045392D01*
X97929922Y-138180000D01*
X88943469Y-138180000D01*
X88900000Y-138175719D01*
X88856531Y-138180000D01*
X88856523Y-138180000D01*
X88726510Y-138192805D01*
X88559687Y-138243411D01*
X88449486Y-138302314D01*
X88405941Y-138325589D01*
X88304953Y-138408468D01*
X88304951Y-138408470D01*
X88271183Y-138436183D01*
X88243470Y-138469951D01*
X85248178Y-141465244D01*
X85234236Y-141323691D01*
X85152182Y-141053192D01*
X85018932Y-140803899D01*
X84839608Y-140585392D01*
X84621101Y-140406068D01*
X84488142Y-140335000D01*
X84621101Y-140263932D01*
X84839608Y-140084608D01*
X85018932Y-139866101D01*
X85152182Y-139616808D01*
X85234236Y-139346309D01*
X85261943Y-139065000D01*
X85234236Y-138783691D01*
X85152182Y-138513192D01*
X85018932Y-138263899D01*
X84839608Y-138045392D01*
X84726518Y-137952581D01*
X84744482Y-137950812D01*
X84864180Y-137914502D01*
X84974494Y-137855537D01*
X85071185Y-137776185D01*
X85150537Y-137679494D01*
X85209502Y-137569180D01*
X85245812Y-137449482D01*
X85258072Y-137325000D01*
X85258072Y-135725000D01*
X85245812Y-135600518D01*
X85209502Y-135480820D01*
X85150537Y-135370506D01*
X85071185Y-135273815D01*
X84974494Y-135194463D01*
X84864180Y-135135498D01*
X84744482Y-135099188D01*
X84620000Y-135086928D01*
X83020000Y-135086928D01*
X82895518Y-135099188D01*
X82775820Y-135135498D01*
X82665506Y-135194463D01*
X82568815Y-135273815D01*
X82546989Y-135300410D01*
X82116578Y-134870000D01*
X98058422Y-134870000D01*
X98425460Y-135237039D01*
G36*
X76074299Y-139555877D02*
G01*
X76073000Y-139562408D01*
X76073000Y-139837592D01*
X76126686Y-140107490D01*
X76231995Y-140361727D01*
X76384880Y-140590535D01*
X76579465Y-140785120D01*
X76808273Y-140938005D01*
X76885515Y-140970000D01*
X76808273Y-141001995D01*
X76579465Y-141154880D01*
X76384880Y-141349465D01*
X76381182Y-141355000D01*
X70851579Y-141355000D01*
X68769577Y-139272999D01*
X75791421Y-139272999D01*
X76074299Y-139555877D01*
X76074299Y-139555877D01*
G37*
X76074299Y-139555877D02*
X76073000Y-139562408D01*
X76073000Y-139837592D01*
X76126686Y-140107490D01*
X76231995Y-140361727D01*
X76384880Y-140590535D01*
X76579465Y-140785120D01*
X76808273Y-140938005D01*
X76885515Y-140970000D01*
X76808273Y-141001995D01*
X76579465Y-141154880D01*
X76384880Y-141349465D01*
X76381182Y-141355000D01*
X70851579Y-141355000D01*
X68769577Y-139272999D01*
X75791421Y-139272999D01*
X76074299Y-139555877D01*
G36*
X100422688Y-141153757D02*
G01*
X100392182Y-141053192D01*
X100258932Y-140803899D01*
X100079608Y-140585392D01*
X99861101Y-140406068D01*
X99728142Y-140335000D01*
X99861101Y-140263932D01*
X100079608Y-140084608D01*
X100258932Y-139866101D01*
X100392182Y-139616808D01*
X100422687Y-139516244D01*
X100422688Y-141153757D01*
X100422688Y-141153757D01*
G37*
X100422688Y-141153757D02*
X100392182Y-141053192D01*
X100258932Y-140803899D01*
X100079608Y-140585392D01*
X99861101Y-140406068D01*
X99728142Y-140335000D01*
X99861101Y-140263932D01*
X100079608Y-140084608D01*
X100258932Y-139866101D01*
X100392182Y-139616808D01*
X100422687Y-139516244D01*
X100422688Y-141153757D01*
G36*
X47430986Y-133379294D02*
G01*
X47204866Y-133564866D01*
X47019294Y-133790986D01*
X46881401Y-134048966D01*
X46796487Y-134328889D01*
X46767815Y-134620000D01*
X46796487Y-134911111D01*
X46881401Y-135191034D01*
X47019294Y-135449014D01*
X47204866Y-135675134D01*
X47430986Y-135860706D01*
X47485791Y-135890000D01*
X47430986Y-135919294D01*
X47204866Y-136104866D01*
X47019294Y-136330986D01*
X46881401Y-136588966D01*
X46796487Y-136868889D01*
X46767815Y-137160000D01*
X46796487Y-137451111D01*
X46881401Y-137731034D01*
X47019294Y-137989014D01*
X47204866Y-138215134D01*
X47430986Y-138400706D01*
X47485791Y-138430000D01*
X47430986Y-138459294D01*
X47204866Y-138644866D01*
X47019294Y-138870986D01*
X46935093Y-139028514D01*
X42788060Y-134881482D01*
X42810000Y-134771184D01*
X42810000Y-134468816D01*
X42751011Y-134172257D01*
X42635299Y-133892905D01*
X42467312Y-133641495D01*
X42253505Y-133427688D01*
X42174652Y-133375000D01*
X47439020Y-133375000D01*
X47430986Y-133379294D01*
X47430986Y-133379294D01*
G37*
X47430986Y-133379294D02*
X47204866Y-133564866D01*
X47019294Y-133790986D01*
X46881401Y-134048966D01*
X46796487Y-134328889D01*
X46767815Y-134620000D01*
X46796487Y-134911111D01*
X46881401Y-135191034D01*
X47019294Y-135449014D01*
X47204866Y-135675134D01*
X47430986Y-135860706D01*
X47485791Y-135890000D01*
X47430986Y-135919294D01*
X47204866Y-136104866D01*
X47019294Y-136330986D01*
X46881401Y-136588966D01*
X46796487Y-136868889D01*
X46767815Y-137160000D01*
X46796487Y-137451111D01*
X46881401Y-137731034D01*
X47019294Y-137989014D01*
X47204866Y-138215134D01*
X47430986Y-138400706D01*
X47485791Y-138430000D01*
X47430986Y-138459294D01*
X47204866Y-138644866D01*
X47019294Y-138870986D01*
X46935093Y-139028514D01*
X42788060Y-134881482D01*
X42810000Y-134771184D01*
X42810000Y-134468816D01*
X42751011Y-134172257D01*
X42635299Y-133892905D01*
X42467312Y-133641495D01*
X42253505Y-133427688D01*
X42174652Y-133375000D01*
X47439020Y-133375000D01*
X47430986Y-133379294D01*
G36*
X49559294Y-137989014D02*
G01*
X49744866Y-138215134D01*
X49970986Y-138400706D01*
X50025791Y-138430000D01*
X49970986Y-138459294D01*
X49744866Y-138644866D01*
X49559294Y-138870986D01*
X49530000Y-138925791D01*
X49500706Y-138870986D01*
X49315134Y-138644866D01*
X49089014Y-138459294D01*
X49034209Y-138430000D01*
X49089014Y-138400706D01*
X49315134Y-138215134D01*
X49500706Y-137989014D01*
X49530000Y-137934209D01*
X49559294Y-137989014D01*
X49559294Y-137989014D01*
G37*
X49559294Y-137989014D02*
X49744866Y-138215134D01*
X49970986Y-138400706D01*
X50025791Y-138430000D01*
X49970986Y-138459294D01*
X49744866Y-138644866D01*
X49559294Y-138870986D01*
X49530000Y-138925791D01*
X49500706Y-138870986D01*
X49315134Y-138644866D01*
X49089014Y-138459294D01*
X49034209Y-138430000D01*
X49089014Y-138400706D01*
X49315134Y-138215134D01*
X49500706Y-137989014D01*
X49530000Y-137934209D01*
X49559294Y-137989014D01*
G36*
X100422688Y-137141265D02*
G01*
X100422687Y-138094210D01*
X100422687Y-138613755D01*
X100392182Y-138513192D01*
X100258932Y-138263899D01*
X100079608Y-138045392D01*
X99861101Y-137866068D01*
X99728142Y-137795000D01*
X99861101Y-137723932D01*
X100079608Y-137544608D01*
X100258932Y-137326101D01*
X100380356Y-137098933D01*
X100422688Y-137141265D01*
X100422688Y-137141265D01*
G37*
X100422688Y-137141265D02*
X100422687Y-138094210D01*
X100422687Y-138613755D01*
X100392182Y-138513192D01*
X100258932Y-138263899D01*
X100079608Y-138045392D01*
X99861101Y-137866068D01*
X99728142Y-137795000D01*
X99861101Y-137723932D01*
X100079608Y-137544608D01*
X100258932Y-137326101D01*
X100380356Y-137098933D01*
X100422688Y-137141265D01*
G36*
X81863470Y-137120049D02*
G01*
X81891183Y-137153817D01*
X81924951Y-137181530D01*
X81924953Y-137181532D01*
X81996452Y-137240210D01*
X82025941Y-137264411D01*
X82179687Y-137346589D01*
X82346510Y-137397195D01*
X82389455Y-137401425D01*
X82394188Y-137449482D01*
X82430498Y-137569180D01*
X82489463Y-137679494D01*
X82568815Y-137776185D01*
X82665506Y-137855537D01*
X82775820Y-137914502D01*
X82895518Y-137950812D01*
X82913482Y-137952581D01*
X82800392Y-138045392D01*
X82689922Y-138180000D01*
X81646579Y-138180000D01*
X79426577Y-135959999D01*
X80703421Y-135959999D01*
X81863470Y-137120049D01*
X81863470Y-137120049D01*
G37*
X81863470Y-137120049D02*
X81891183Y-137153817D01*
X81924951Y-137181530D01*
X81924953Y-137181532D01*
X81996452Y-137240210D01*
X82025941Y-137264411D01*
X82179687Y-137346589D01*
X82346510Y-137397195D01*
X82389455Y-137401425D01*
X82394188Y-137449482D01*
X82430498Y-137569180D01*
X82489463Y-137679494D01*
X82568815Y-137776185D01*
X82665506Y-137855537D01*
X82775820Y-137914502D01*
X82895518Y-137950812D01*
X82913482Y-137952581D01*
X82800392Y-138045392D01*
X82689922Y-138180000D01*
X81646579Y-138180000D01*
X79426577Y-135959999D01*
X80703421Y-135959999D01*
X81863470Y-137120049D01*
G36*
X74839701Y-137252095D02*
G01*
X75007350Y-137502999D01*
X72312650Y-137502999D01*
X72374790Y-137410000D01*
X74010529Y-137410000D01*
X74053998Y-137414281D01*
X74097467Y-137410000D01*
X74097475Y-137410000D01*
X74227488Y-137397195D01*
X74394311Y-137346589D01*
X74548057Y-137264411D01*
X74682815Y-137153817D01*
X74710532Y-137120044D01*
X74763191Y-137067385D01*
X74839701Y-137252095D01*
X74839701Y-137252095D01*
G37*
X74839701Y-137252095D02*
X75007350Y-137502999D01*
X72312650Y-137502999D01*
X72374790Y-137410000D01*
X74010529Y-137410000D01*
X74053998Y-137414281D01*
X74097467Y-137410000D01*
X74097475Y-137410000D01*
X74227488Y-137397195D01*
X74394311Y-137346589D01*
X74548057Y-137264411D01*
X74682815Y-137153817D01*
X74710532Y-137120044D01*
X74763191Y-137067385D01*
X74839701Y-137252095D01*
G36*
X69759701Y-137252095D02*
G01*
X69927350Y-137502999D01*
X69247577Y-137502999D01*
X69683191Y-137067385D01*
X69759701Y-137252095D01*
X69759701Y-137252095D01*
G37*
X69759701Y-137252095D02*
X69927350Y-137502999D01*
X69247577Y-137502999D01*
X69683191Y-137067385D01*
X69759701Y-137252095D01*
G36*
X49360498Y-135714180D02*
G01*
X49419463Y-135824494D01*
X49498815Y-135921185D01*
X49595506Y-136000537D01*
X49705820Y-136059502D01*
X49774687Y-136080393D01*
X49744866Y-136104866D01*
X49559294Y-136330986D01*
X49530000Y-136385791D01*
X49500706Y-136330986D01*
X49315134Y-136104866D01*
X49089014Y-135919294D01*
X49034209Y-135890000D01*
X49089014Y-135860706D01*
X49315134Y-135675134D01*
X49339607Y-135645313D01*
X49360498Y-135714180D01*
X49360498Y-135714180D01*
G37*
X49360498Y-135714180D02*
X49419463Y-135824494D01*
X49498815Y-135921185D01*
X49595506Y-136000537D01*
X49705820Y-136059502D01*
X49774687Y-136080393D01*
X49744866Y-136104866D01*
X49559294Y-136330986D01*
X49530000Y-136385791D01*
X49500706Y-136330986D01*
X49315134Y-136104866D01*
X49089014Y-135919294D01*
X49034209Y-135890000D01*
X49089014Y-135860706D01*
X49315134Y-135675134D01*
X49339607Y-135645313D01*
X49360498Y-135714180D01*
G36*
X73687420Y-135640000D02*
G01*
X72374790Y-135640000D01*
X72312312Y-135546495D01*
X72098505Y-135332688D01*
X71847095Y-135164701D01*
X71662385Y-135088191D01*
X71880577Y-134870000D01*
X74457419Y-134870000D01*
X73687420Y-135640000D01*
X73687420Y-135640000D01*
G37*
X73687420Y-135640000D02*
X72374790Y-135640000D01*
X72312312Y-135546495D01*
X72098505Y-135332688D01*
X71847095Y-135164701D01*
X71662385Y-135088191D01*
X71880577Y-134870000D01*
X74457419Y-134870000D01*
X73687420Y-135640000D01*
G36*
X49419463Y-133415506D02*
G01*
X49360498Y-133525820D01*
X49339607Y-133594687D01*
X49315134Y-133564866D01*
X49089014Y-133379294D01*
X49080980Y-133375000D01*
X49452705Y-133375000D01*
X49419463Y-133415506D01*
X49419463Y-133415506D01*
G37*
X49419463Y-133415506D02*
X49360498Y-133525820D01*
X49339607Y-133594687D01*
X49315134Y-133564866D01*
X49089014Y-133379294D01*
X49080980Y-133375000D01*
X49452705Y-133375000D01*
X49419463Y-133415506D01*
M02*
