G04 #@! TF.GenerationSoftware,KiCad,Pcbnew,(5.1.2)-2*
G04 #@! TF.CreationDate,2021-05-31T16:07:44+09:00*
G04 #@! TF.ProjectId,enc_can_2,656e635f-6361-46e5-9f32-2e6b69636164,rev?*
G04 #@! TF.SameCoordinates,Original*
G04 #@! TF.FileFunction,Copper,L1,Top*
G04 #@! TF.FilePolarity,Positive*
%FSLAX46Y46*%
G04 Gerber Fmt 4.6, Leading zero omitted, Abs format (unit mm)*
G04 Created by KiCad (PCBNEW (5.1.2)-2) date 2021-05-31 16:07:44*
%MOMM*%
%LPD*%
G04 APERTURE LIST*
%ADD10R,1.600000X1.600000*%
%ADD11O,1.600000X1.600000*%
%ADD12C,1.600000*%
%ADD13C,0.100000*%
%ADD14C,1.700000*%
%ADD15O,1.700000X2.000000*%
%ADD16O,1.950000X1.700000*%
%ADD17C,0.875000*%
%ADD18C,1.500000*%
%ADD19R,2.200000X1.200000*%
%ADD20R,6.400000X5.800000*%
%ADD21C,0.250000*%
%ADD22C,0.254000*%
G04 APERTURE END LIST*
D10*
X134620000Y-91440000D03*
D11*
X149860000Y-124460000D03*
X134620000Y-93980000D03*
X149860000Y-121920000D03*
X134620000Y-96520000D03*
X149860000Y-119380000D03*
X134620000Y-99060000D03*
X149860000Y-116840000D03*
X134620000Y-101600000D03*
X149860000Y-114300000D03*
X134620000Y-104140000D03*
X149860000Y-111760000D03*
X134620000Y-106680000D03*
X149860000Y-109220000D03*
X134620000Y-109220000D03*
X149860000Y-106680000D03*
X134620000Y-111760000D03*
X149860000Y-104140000D03*
X134620000Y-114300000D03*
X149860000Y-101600000D03*
X134620000Y-116840000D03*
X149860000Y-99060000D03*
X134620000Y-119380000D03*
X149860000Y-96520000D03*
X134620000Y-121920000D03*
X149860000Y-93980000D03*
X134620000Y-124460000D03*
X149860000Y-91440000D03*
X134620000Y-127000000D03*
X149860000Y-127000000D03*
D10*
X112435000Y-108585000D03*
D12*
X114935000Y-108585000D03*
D10*
X125730000Y-120015000D03*
D12*
X127730000Y-120015000D03*
D13*
G36*
X118734504Y-90441204D02*
G01*
X118758773Y-90444804D01*
X118782571Y-90450765D01*
X118805671Y-90459030D01*
X118827849Y-90469520D01*
X118848893Y-90482133D01*
X118868598Y-90496747D01*
X118886777Y-90513223D01*
X118903253Y-90531402D01*
X118917867Y-90551107D01*
X118930480Y-90572151D01*
X118940970Y-90594329D01*
X118949235Y-90617429D01*
X118955196Y-90641227D01*
X118958796Y-90665496D01*
X118960000Y-90690000D01*
X118960000Y-92190000D01*
X118958796Y-92214504D01*
X118955196Y-92238773D01*
X118949235Y-92262571D01*
X118940970Y-92285671D01*
X118930480Y-92307849D01*
X118917867Y-92328893D01*
X118903253Y-92348598D01*
X118886777Y-92366777D01*
X118868598Y-92383253D01*
X118848893Y-92397867D01*
X118827849Y-92410480D01*
X118805671Y-92420970D01*
X118782571Y-92429235D01*
X118758773Y-92435196D01*
X118734504Y-92438796D01*
X118710000Y-92440000D01*
X117510000Y-92440000D01*
X117485496Y-92438796D01*
X117461227Y-92435196D01*
X117437429Y-92429235D01*
X117414329Y-92420970D01*
X117392151Y-92410480D01*
X117371107Y-92397867D01*
X117351402Y-92383253D01*
X117333223Y-92366777D01*
X117316747Y-92348598D01*
X117302133Y-92328893D01*
X117289520Y-92307849D01*
X117279030Y-92285671D01*
X117270765Y-92262571D01*
X117264804Y-92238773D01*
X117261204Y-92214504D01*
X117260000Y-92190000D01*
X117260000Y-90690000D01*
X117261204Y-90665496D01*
X117264804Y-90641227D01*
X117270765Y-90617429D01*
X117279030Y-90594329D01*
X117289520Y-90572151D01*
X117302133Y-90551107D01*
X117316747Y-90531402D01*
X117333223Y-90513223D01*
X117351402Y-90496747D01*
X117371107Y-90482133D01*
X117392151Y-90469520D01*
X117414329Y-90459030D01*
X117437429Y-90450765D01*
X117461227Y-90444804D01*
X117485496Y-90441204D01*
X117510000Y-90440000D01*
X118710000Y-90440000D01*
X118734504Y-90441204D01*
X118734504Y-90441204D01*
G37*
D14*
X118110000Y-91440000D03*
D15*
X120610000Y-91440000D03*
D13*
G36*
X129019504Y-89996204D02*
G01*
X129043773Y-89999804D01*
X129067571Y-90005765D01*
X129090671Y-90014030D01*
X129112849Y-90024520D01*
X129133893Y-90037133D01*
X129153598Y-90051747D01*
X129171777Y-90068223D01*
X129188253Y-90086402D01*
X129202867Y-90106107D01*
X129215480Y-90127151D01*
X129225970Y-90149329D01*
X129234235Y-90172429D01*
X129240196Y-90196227D01*
X129243796Y-90220496D01*
X129245000Y-90245000D01*
X129245000Y-91445000D01*
X129243796Y-91469504D01*
X129240196Y-91493773D01*
X129234235Y-91517571D01*
X129225970Y-91540671D01*
X129215480Y-91562849D01*
X129202867Y-91583893D01*
X129188253Y-91603598D01*
X129171777Y-91621777D01*
X129153598Y-91638253D01*
X129133893Y-91652867D01*
X129112849Y-91665480D01*
X129090671Y-91675970D01*
X129067571Y-91684235D01*
X129043773Y-91690196D01*
X129019504Y-91693796D01*
X128995000Y-91695000D01*
X127545000Y-91695000D01*
X127520496Y-91693796D01*
X127496227Y-91690196D01*
X127472429Y-91684235D01*
X127449329Y-91675970D01*
X127427151Y-91665480D01*
X127406107Y-91652867D01*
X127386402Y-91638253D01*
X127368223Y-91621777D01*
X127351747Y-91603598D01*
X127337133Y-91583893D01*
X127324520Y-91562849D01*
X127314030Y-91540671D01*
X127305765Y-91517571D01*
X127299804Y-91493773D01*
X127296204Y-91469504D01*
X127295000Y-91445000D01*
X127295000Y-90245000D01*
X127296204Y-90220496D01*
X127299804Y-90196227D01*
X127305765Y-90172429D01*
X127314030Y-90149329D01*
X127324520Y-90127151D01*
X127337133Y-90106107D01*
X127351747Y-90086402D01*
X127368223Y-90068223D01*
X127386402Y-90051747D01*
X127406107Y-90037133D01*
X127427151Y-90024520D01*
X127449329Y-90014030D01*
X127472429Y-90005765D01*
X127496227Y-89999804D01*
X127520496Y-89996204D01*
X127545000Y-89995000D01*
X128995000Y-89995000D01*
X129019504Y-89996204D01*
X129019504Y-89996204D01*
G37*
D14*
X128270000Y-90845000D03*
D16*
X128270000Y-93345000D03*
X128270000Y-95845000D03*
X128270000Y-98345000D03*
D13*
G36*
X157594504Y-122341204D02*
G01*
X157618773Y-122344804D01*
X157642571Y-122350765D01*
X157665671Y-122359030D01*
X157687849Y-122369520D01*
X157708893Y-122382133D01*
X157728598Y-122396747D01*
X157746777Y-122413223D01*
X157763253Y-122431402D01*
X157777867Y-122451107D01*
X157790480Y-122472151D01*
X157800970Y-122494329D01*
X157809235Y-122517429D01*
X157815196Y-122541227D01*
X157818796Y-122565496D01*
X157820000Y-122590000D01*
X157820000Y-123790000D01*
X157818796Y-123814504D01*
X157815196Y-123838773D01*
X157809235Y-123862571D01*
X157800970Y-123885671D01*
X157790480Y-123907849D01*
X157777867Y-123928893D01*
X157763253Y-123948598D01*
X157746777Y-123966777D01*
X157728598Y-123983253D01*
X157708893Y-123997867D01*
X157687849Y-124010480D01*
X157665671Y-124020970D01*
X157642571Y-124029235D01*
X157618773Y-124035196D01*
X157594504Y-124038796D01*
X157570000Y-124040000D01*
X156120000Y-124040000D01*
X156095496Y-124038796D01*
X156071227Y-124035196D01*
X156047429Y-124029235D01*
X156024329Y-124020970D01*
X156002151Y-124010480D01*
X155981107Y-123997867D01*
X155961402Y-123983253D01*
X155943223Y-123966777D01*
X155926747Y-123948598D01*
X155912133Y-123928893D01*
X155899520Y-123907849D01*
X155889030Y-123885671D01*
X155880765Y-123862571D01*
X155874804Y-123838773D01*
X155871204Y-123814504D01*
X155870000Y-123790000D01*
X155870000Y-122590000D01*
X155871204Y-122565496D01*
X155874804Y-122541227D01*
X155880765Y-122517429D01*
X155889030Y-122494329D01*
X155899520Y-122472151D01*
X155912133Y-122451107D01*
X155926747Y-122431402D01*
X155943223Y-122413223D01*
X155961402Y-122396747D01*
X155981107Y-122382133D01*
X156002151Y-122369520D01*
X156024329Y-122359030D01*
X156047429Y-122350765D01*
X156071227Y-122344804D01*
X156095496Y-122341204D01*
X156120000Y-122340000D01*
X157570000Y-122340000D01*
X157594504Y-122341204D01*
X157594504Y-122341204D01*
G37*
D14*
X156845000Y-123190000D03*
D16*
X156845000Y-120690000D03*
X156845000Y-118190000D03*
X156845000Y-115690000D03*
X156845000Y-98545000D03*
X156845000Y-101045000D03*
X156845000Y-103545000D03*
D13*
G36*
X157594504Y-105196204D02*
G01*
X157618773Y-105199804D01*
X157642571Y-105205765D01*
X157665671Y-105214030D01*
X157687849Y-105224520D01*
X157708893Y-105237133D01*
X157728598Y-105251747D01*
X157746777Y-105268223D01*
X157763253Y-105286402D01*
X157777867Y-105306107D01*
X157790480Y-105327151D01*
X157800970Y-105349329D01*
X157809235Y-105372429D01*
X157815196Y-105396227D01*
X157818796Y-105420496D01*
X157820000Y-105445000D01*
X157820000Y-106645000D01*
X157818796Y-106669504D01*
X157815196Y-106693773D01*
X157809235Y-106717571D01*
X157800970Y-106740671D01*
X157790480Y-106762849D01*
X157777867Y-106783893D01*
X157763253Y-106803598D01*
X157746777Y-106821777D01*
X157728598Y-106838253D01*
X157708893Y-106852867D01*
X157687849Y-106865480D01*
X157665671Y-106875970D01*
X157642571Y-106884235D01*
X157618773Y-106890196D01*
X157594504Y-106893796D01*
X157570000Y-106895000D01*
X156120000Y-106895000D01*
X156095496Y-106893796D01*
X156071227Y-106890196D01*
X156047429Y-106884235D01*
X156024329Y-106875970D01*
X156002151Y-106865480D01*
X155981107Y-106852867D01*
X155961402Y-106838253D01*
X155943223Y-106821777D01*
X155926747Y-106803598D01*
X155912133Y-106783893D01*
X155899520Y-106762849D01*
X155889030Y-106740671D01*
X155880765Y-106717571D01*
X155874804Y-106693773D01*
X155871204Y-106669504D01*
X155870000Y-106645000D01*
X155870000Y-105445000D01*
X155871204Y-105420496D01*
X155874804Y-105396227D01*
X155880765Y-105372429D01*
X155889030Y-105349329D01*
X155899520Y-105327151D01*
X155912133Y-105306107D01*
X155926747Y-105286402D01*
X155943223Y-105268223D01*
X155961402Y-105251747D01*
X155981107Y-105237133D01*
X156002151Y-105224520D01*
X156024329Y-105214030D01*
X156047429Y-105205765D01*
X156071227Y-105199804D01*
X156095496Y-105196204D01*
X156120000Y-105195000D01*
X157570000Y-105195000D01*
X157594504Y-105196204D01*
X157594504Y-105196204D01*
G37*
D14*
X156845000Y-106045000D03*
D15*
X129500000Y-128270000D03*
D13*
G36*
X127624504Y-127271204D02*
G01*
X127648773Y-127274804D01*
X127672571Y-127280765D01*
X127695671Y-127289030D01*
X127717849Y-127299520D01*
X127738893Y-127312133D01*
X127758598Y-127326747D01*
X127776777Y-127343223D01*
X127793253Y-127361402D01*
X127807867Y-127381107D01*
X127820480Y-127402151D01*
X127830970Y-127424329D01*
X127839235Y-127447429D01*
X127845196Y-127471227D01*
X127848796Y-127495496D01*
X127850000Y-127520000D01*
X127850000Y-129020000D01*
X127848796Y-129044504D01*
X127845196Y-129068773D01*
X127839235Y-129092571D01*
X127830970Y-129115671D01*
X127820480Y-129137849D01*
X127807867Y-129158893D01*
X127793253Y-129178598D01*
X127776777Y-129196777D01*
X127758598Y-129213253D01*
X127738893Y-129227867D01*
X127717849Y-129240480D01*
X127695671Y-129250970D01*
X127672571Y-129259235D01*
X127648773Y-129265196D01*
X127624504Y-129268796D01*
X127600000Y-129270000D01*
X126400000Y-129270000D01*
X126375496Y-129268796D01*
X126351227Y-129265196D01*
X126327429Y-129259235D01*
X126304329Y-129250970D01*
X126282151Y-129240480D01*
X126261107Y-129227867D01*
X126241402Y-129213253D01*
X126223223Y-129196777D01*
X126206747Y-129178598D01*
X126192133Y-129158893D01*
X126179520Y-129137849D01*
X126169030Y-129115671D01*
X126160765Y-129092571D01*
X126154804Y-129068773D01*
X126151204Y-129044504D01*
X126150000Y-129020000D01*
X126150000Y-127520000D01*
X126151204Y-127495496D01*
X126154804Y-127471227D01*
X126160765Y-127447429D01*
X126169030Y-127424329D01*
X126179520Y-127402151D01*
X126192133Y-127381107D01*
X126206747Y-127361402D01*
X126223223Y-127343223D01*
X126241402Y-127326747D01*
X126261107Y-127312133D01*
X126282151Y-127299520D01*
X126304329Y-127289030D01*
X126327429Y-127280765D01*
X126351227Y-127274804D01*
X126375496Y-127271204D01*
X126400000Y-127270000D01*
X127600000Y-127270000D01*
X127624504Y-127271204D01*
X127624504Y-127271204D01*
G37*
D14*
X127000000Y-128270000D03*
D13*
G36*
X118139504Y-127271204D02*
G01*
X118163773Y-127274804D01*
X118187571Y-127280765D01*
X118210671Y-127289030D01*
X118232849Y-127299520D01*
X118253893Y-127312133D01*
X118273598Y-127326747D01*
X118291777Y-127343223D01*
X118308253Y-127361402D01*
X118322867Y-127381107D01*
X118335480Y-127402151D01*
X118345970Y-127424329D01*
X118354235Y-127447429D01*
X118360196Y-127471227D01*
X118363796Y-127495496D01*
X118365000Y-127520000D01*
X118365000Y-129020000D01*
X118363796Y-129044504D01*
X118360196Y-129068773D01*
X118354235Y-129092571D01*
X118345970Y-129115671D01*
X118335480Y-129137849D01*
X118322867Y-129158893D01*
X118308253Y-129178598D01*
X118291777Y-129196777D01*
X118273598Y-129213253D01*
X118253893Y-129227867D01*
X118232849Y-129240480D01*
X118210671Y-129250970D01*
X118187571Y-129259235D01*
X118163773Y-129265196D01*
X118139504Y-129268796D01*
X118115000Y-129270000D01*
X116915000Y-129270000D01*
X116890496Y-129268796D01*
X116866227Y-129265196D01*
X116842429Y-129259235D01*
X116819329Y-129250970D01*
X116797151Y-129240480D01*
X116776107Y-129227867D01*
X116756402Y-129213253D01*
X116738223Y-129196777D01*
X116721747Y-129178598D01*
X116707133Y-129158893D01*
X116694520Y-129137849D01*
X116684030Y-129115671D01*
X116675765Y-129092571D01*
X116669804Y-129068773D01*
X116666204Y-129044504D01*
X116665000Y-129020000D01*
X116665000Y-127520000D01*
X116666204Y-127495496D01*
X116669804Y-127471227D01*
X116675765Y-127447429D01*
X116684030Y-127424329D01*
X116694520Y-127402151D01*
X116707133Y-127381107D01*
X116721747Y-127361402D01*
X116738223Y-127343223D01*
X116756402Y-127326747D01*
X116776107Y-127312133D01*
X116797151Y-127299520D01*
X116819329Y-127289030D01*
X116842429Y-127280765D01*
X116866227Y-127274804D01*
X116890496Y-127271204D01*
X116915000Y-127270000D01*
X118115000Y-127270000D01*
X118139504Y-127271204D01*
X118139504Y-127271204D01*
G37*
D14*
X117515000Y-128270000D03*
D15*
X120015000Y-128270000D03*
D13*
G36*
X127392691Y-110651053D02*
G01*
X127413926Y-110654203D01*
X127434750Y-110659419D01*
X127454962Y-110666651D01*
X127474368Y-110675830D01*
X127492781Y-110686866D01*
X127510024Y-110699654D01*
X127525930Y-110714070D01*
X127540346Y-110729976D01*
X127553134Y-110747219D01*
X127564170Y-110765632D01*
X127573349Y-110785038D01*
X127580581Y-110805250D01*
X127585797Y-110826074D01*
X127588947Y-110847309D01*
X127590000Y-110868750D01*
X127590000Y-111381250D01*
X127588947Y-111402691D01*
X127585797Y-111423926D01*
X127580581Y-111444750D01*
X127573349Y-111464962D01*
X127564170Y-111484368D01*
X127553134Y-111502781D01*
X127540346Y-111520024D01*
X127525930Y-111535930D01*
X127510024Y-111550346D01*
X127492781Y-111563134D01*
X127474368Y-111574170D01*
X127454962Y-111583349D01*
X127434750Y-111590581D01*
X127413926Y-111595797D01*
X127392691Y-111598947D01*
X127371250Y-111600000D01*
X126933750Y-111600000D01*
X126912309Y-111598947D01*
X126891074Y-111595797D01*
X126870250Y-111590581D01*
X126850038Y-111583349D01*
X126830632Y-111574170D01*
X126812219Y-111563134D01*
X126794976Y-111550346D01*
X126779070Y-111535930D01*
X126764654Y-111520024D01*
X126751866Y-111502781D01*
X126740830Y-111484368D01*
X126731651Y-111464962D01*
X126724419Y-111444750D01*
X126719203Y-111423926D01*
X126716053Y-111402691D01*
X126715000Y-111381250D01*
X126715000Y-110868750D01*
X126716053Y-110847309D01*
X126719203Y-110826074D01*
X126724419Y-110805250D01*
X126731651Y-110785038D01*
X126740830Y-110765632D01*
X126751866Y-110747219D01*
X126764654Y-110729976D01*
X126779070Y-110714070D01*
X126794976Y-110699654D01*
X126812219Y-110686866D01*
X126830632Y-110675830D01*
X126850038Y-110666651D01*
X126870250Y-110659419D01*
X126891074Y-110654203D01*
X126912309Y-110651053D01*
X126933750Y-110650000D01*
X127371250Y-110650000D01*
X127392691Y-110651053D01*
X127392691Y-110651053D01*
G37*
D17*
X127152500Y-111125000D03*
D13*
G36*
X125817691Y-110651053D02*
G01*
X125838926Y-110654203D01*
X125859750Y-110659419D01*
X125879962Y-110666651D01*
X125899368Y-110675830D01*
X125917781Y-110686866D01*
X125935024Y-110699654D01*
X125950930Y-110714070D01*
X125965346Y-110729976D01*
X125978134Y-110747219D01*
X125989170Y-110765632D01*
X125998349Y-110785038D01*
X126005581Y-110805250D01*
X126010797Y-110826074D01*
X126013947Y-110847309D01*
X126015000Y-110868750D01*
X126015000Y-111381250D01*
X126013947Y-111402691D01*
X126010797Y-111423926D01*
X126005581Y-111444750D01*
X125998349Y-111464962D01*
X125989170Y-111484368D01*
X125978134Y-111502781D01*
X125965346Y-111520024D01*
X125950930Y-111535930D01*
X125935024Y-111550346D01*
X125917781Y-111563134D01*
X125899368Y-111574170D01*
X125879962Y-111583349D01*
X125859750Y-111590581D01*
X125838926Y-111595797D01*
X125817691Y-111598947D01*
X125796250Y-111600000D01*
X125358750Y-111600000D01*
X125337309Y-111598947D01*
X125316074Y-111595797D01*
X125295250Y-111590581D01*
X125275038Y-111583349D01*
X125255632Y-111574170D01*
X125237219Y-111563134D01*
X125219976Y-111550346D01*
X125204070Y-111535930D01*
X125189654Y-111520024D01*
X125176866Y-111502781D01*
X125165830Y-111484368D01*
X125156651Y-111464962D01*
X125149419Y-111444750D01*
X125144203Y-111423926D01*
X125141053Y-111402691D01*
X125140000Y-111381250D01*
X125140000Y-110868750D01*
X125141053Y-110847309D01*
X125144203Y-110826074D01*
X125149419Y-110805250D01*
X125156651Y-110785038D01*
X125165830Y-110765632D01*
X125176866Y-110747219D01*
X125189654Y-110729976D01*
X125204070Y-110714070D01*
X125219976Y-110699654D01*
X125237219Y-110686866D01*
X125255632Y-110675830D01*
X125275038Y-110666651D01*
X125295250Y-110659419D01*
X125316074Y-110654203D01*
X125337309Y-110651053D01*
X125358750Y-110650000D01*
X125796250Y-110650000D01*
X125817691Y-110651053D01*
X125817691Y-110651053D01*
G37*
D17*
X125577500Y-111125000D03*
D13*
G36*
X127392691Y-107476053D02*
G01*
X127413926Y-107479203D01*
X127434750Y-107484419D01*
X127454962Y-107491651D01*
X127474368Y-107500830D01*
X127492781Y-107511866D01*
X127510024Y-107524654D01*
X127525930Y-107539070D01*
X127540346Y-107554976D01*
X127553134Y-107572219D01*
X127564170Y-107590632D01*
X127573349Y-107610038D01*
X127580581Y-107630250D01*
X127585797Y-107651074D01*
X127588947Y-107672309D01*
X127590000Y-107693750D01*
X127590000Y-108206250D01*
X127588947Y-108227691D01*
X127585797Y-108248926D01*
X127580581Y-108269750D01*
X127573349Y-108289962D01*
X127564170Y-108309368D01*
X127553134Y-108327781D01*
X127540346Y-108345024D01*
X127525930Y-108360930D01*
X127510024Y-108375346D01*
X127492781Y-108388134D01*
X127474368Y-108399170D01*
X127454962Y-108408349D01*
X127434750Y-108415581D01*
X127413926Y-108420797D01*
X127392691Y-108423947D01*
X127371250Y-108425000D01*
X126933750Y-108425000D01*
X126912309Y-108423947D01*
X126891074Y-108420797D01*
X126870250Y-108415581D01*
X126850038Y-108408349D01*
X126830632Y-108399170D01*
X126812219Y-108388134D01*
X126794976Y-108375346D01*
X126779070Y-108360930D01*
X126764654Y-108345024D01*
X126751866Y-108327781D01*
X126740830Y-108309368D01*
X126731651Y-108289962D01*
X126724419Y-108269750D01*
X126719203Y-108248926D01*
X126716053Y-108227691D01*
X126715000Y-108206250D01*
X126715000Y-107693750D01*
X126716053Y-107672309D01*
X126719203Y-107651074D01*
X126724419Y-107630250D01*
X126731651Y-107610038D01*
X126740830Y-107590632D01*
X126751866Y-107572219D01*
X126764654Y-107554976D01*
X126779070Y-107539070D01*
X126794976Y-107524654D01*
X126812219Y-107511866D01*
X126830632Y-107500830D01*
X126850038Y-107491651D01*
X126870250Y-107484419D01*
X126891074Y-107479203D01*
X126912309Y-107476053D01*
X126933750Y-107475000D01*
X127371250Y-107475000D01*
X127392691Y-107476053D01*
X127392691Y-107476053D01*
G37*
D17*
X127152500Y-107950000D03*
D13*
G36*
X125817691Y-107476053D02*
G01*
X125838926Y-107479203D01*
X125859750Y-107484419D01*
X125879962Y-107491651D01*
X125899368Y-107500830D01*
X125917781Y-107511866D01*
X125935024Y-107524654D01*
X125950930Y-107539070D01*
X125965346Y-107554976D01*
X125978134Y-107572219D01*
X125989170Y-107590632D01*
X125998349Y-107610038D01*
X126005581Y-107630250D01*
X126010797Y-107651074D01*
X126013947Y-107672309D01*
X126015000Y-107693750D01*
X126015000Y-108206250D01*
X126013947Y-108227691D01*
X126010797Y-108248926D01*
X126005581Y-108269750D01*
X125998349Y-108289962D01*
X125989170Y-108309368D01*
X125978134Y-108327781D01*
X125965346Y-108345024D01*
X125950930Y-108360930D01*
X125935024Y-108375346D01*
X125917781Y-108388134D01*
X125899368Y-108399170D01*
X125879962Y-108408349D01*
X125859750Y-108415581D01*
X125838926Y-108420797D01*
X125817691Y-108423947D01*
X125796250Y-108425000D01*
X125358750Y-108425000D01*
X125337309Y-108423947D01*
X125316074Y-108420797D01*
X125295250Y-108415581D01*
X125275038Y-108408349D01*
X125255632Y-108399170D01*
X125237219Y-108388134D01*
X125219976Y-108375346D01*
X125204070Y-108360930D01*
X125189654Y-108345024D01*
X125176866Y-108327781D01*
X125165830Y-108309368D01*
X125156651Y-108289962D01*
X125149419Y-108269750D01*
X125144203Y-108248926D01*
X125141053Y-108227691D01*
X125140000Y-108206250D01*
X125140000Y-107693750D01*
X125141053Y-107672309D01*
X125144203Y-107651074D01*
X125149419Y-107630250D01*
X125156651Y-107610038D01*
X125165830Y-107590632D01*
X125176866Y-107572219D01*
X125189654Y-107554976D01*
X125204070Y-107539070D01*
X125219976Y-107524654D01*
X125237219Y-107511866D01*
X125255632Y-107500830D01*
X125275038Y-107491651D01*
X125295250Y-107484419D01*
X125316074Y-107479203D01*
X125337309Y-107476053D01*
X125358750Y-107475000D01*
X125796250Y-107475000D01*
X125817691Y-107476053D01*
X125817691Y-107476053D01*
G37*
D17*
X125577500Y-107950000D03*
D18*
X111125000Y-99695000D03*
X113665000Y-99695000D03*
X116205000Y-99695000D03*
D19*
X110100000Y-117735000D03*
X110100000Y-122295000D03*
D20*
X116400000Y-120015000D03*
D10*
X130175000Y-113030000D03*
D11*
X122555000Y-105410000D03*
X130175000Y-110490000D03*
X122555000Y-107950000D03*
X130175000Y-107950000D03*
X122555000Y-110490000D03*
X130175000Y-105410000D03*
X122555000Y-113030000D03*
D21*
X134620000Y-91440000D02*
X133494700Y-91440000D01*
X128270000Y-90845000D02*
X132899700Y-90845000D01*
X132899700Y-90845000D02*
X133494700Y-91440000D01*
X128270000Y-98345000D02*
X129570300Y-98345000D01*
X156845000Y-98545000D02*
X155544700Y-98545000D01*
X155544700Y-98545000D02*
X154928400Y-97928700D01*
X154928400Y-97928700D02*
X129986600Y-97928700D01*
X129986600Y-97928700D02*
X129570300Y-98345000D01*
X149860000Y-119380000D02*
X150985300Y-119380000D01*
X156845000Y-118190000D02*
X152175300Y-118190000D01*
X152175300Y-118190000D02*
X150985300Y-119380000D01*
X156845000Y-120690000D02*
X156845000Y-119514700D01*
X156845000Y-103545000D02*
X156845000Y-104720300D01*
X156845000Y-104720300D02*
X157726500Y-104720300D01*
X157726500Y-104720300D02*
X158169600Y-105163400D01*
X158169600Y-105163400D02*
X158169600Y-118704300D01*
X158169600Y-118704300D02*
X157359200Y-119514700D01*
X157359200Y-119514700D02*
X156845000Y-119514700D01*
X114935000Y-108585000D02*
X117980800Y-111630800D01*
X117980800Y-111630800D02*
X123234900Y-111630800D01*
X123234900Y-111630800D02*
X124567600Y-110298100D01*
X124567600Y-110298100D02*
X126325600Y-110298100D01*
X126325600Y-110298100D02*
X127152500Y-111125000D01*
X127730000Y-111702500D02*
X127152500Y-111125000D01*
X116400000Y-120015000D02*
X119925300Y-120015000D01*
X127730000Y-120015000D02*
X127730000Y-120155800D01*
X127730000Y-120155800D02*
X126745400Y-121140400D01*
X126745400Y-121140400D02*
X121050700Y-121140400D01*
X121050700Y-121140400D02*
X119925300Y-120015000D01*
X127730000Y-111702500D02*
X127730000Y-120015000D01*
X129049600Y-110490000D02*
X129049600Y-104630400D01*
X129049600Y-104630400D02*
X134620000Y-99060000D01*
X129049600Y-110490000D02*
X128942500Y-110490000D01*
X128942500Y-110490000D02*
X127730000Y-111702500D01*
X130175000Y-110490000D02*
X129049600Y-110490000D01*
X120610000Y-91590000D02*
X120610000Y-91440000D01*
X122365000Y-93345000D02*
X120610000Y-91590000D01*
X128270000Y-93345000D02*
X122365000Y-93345000D01*
X149860000Y-116840000D02*
X149860000Y-117965300D01*
X156845000Y-123190000D02*
X154305000Y-120650000D01*
X154305000Y-120650000D02*
X149498300Y-120650000D01*
X149498300Y-120650000D02*
X148734700Y-119886400D01*
X148734700Y-119886400D02*
X148734700Y-118809200D01*
X148734700Y-118809200D02*
X149578600Y-117965300D01*
X149578600Y-117965300D02*
X149860000Y-117965300D01*
X134620000Y-101600000D02*
X134620000Y-102725300D01*
X130175000Y-113030000D02*
X130175000Y-111904700D01*
X130175000Y-111904700D02*
X130456300Y-111904700D01*
X130456300Y-111904700D02*
X133494700Y-108866300D01*
X133494700Y-108866300D02*
X133494700Y-103569200D01*
X133494700Y-103569200D02*
X134338600Y-102725300D01*
X134338600Y-102725300D02*
X134620000Y-102725300D01*
X149860000Y-106680000D02*
X150985300Y-106680000D01*
X156845000Y-106045000D02*
X151620300Y-106045000D01*
X151620300Y-106045000D02*
X150985300Y-106680000D01*
X110100000Y-122295000D02*
X110100000Y-121369700D01*
X125730000Y-120015000D02*
X124604700Y-120015000D01*
X124604700Y-120015000D02*
X121379300Y-116789600D01*
X121379300Y-116789600D02*
X113059500Y-116789600D01*
X113059500Y-116789600D02*
X112874600Y-116974500D01*
X112874600Y-116974500D02*
X112874600Y-118595100D01*
X112874600Y-118595100D02*
X110100000Y-121369700D01*
X149860000Y-99060000D02*
X148734700Y-99060000D01*
X130175000Y-107950000D02*
X130175000Y-106824700D01*
X130175000Y-106824700D02*
X130456400Y-106824700D01*
X130456400Y-106824700D02*
X131300300Y-105980800D01*
X131300300Y-105980800D02*
X131300300Y-103292800D01*
X131300300Y-103292800D02*
X134407800Y-100185300D01*
X134407800Y-100185300D02*
X147609400Y-100185300D01*
X147609400Y-100185300D02*
X148734700Y-99060000D01*
X112435000Y-108585000D02*
X112435000Y-109710300D01*
X110100000Y-117735000D02*
X110100000Y-112045300D01*
X110100000Y-112045300D02*
X112435000Y-109710300D01*
X113665000Y-95885000D02*
X118110000Y-91440000D01*
X113665000Y-99695000D02*
X113665000Y-95885000D01*
X122555000Y-110490000D02*
X123680300Y-110490000D01*
X123680300Y-110490000D02*
X123680300Y-109847200D01*
X123680300Y-109847200D02*
X125577500Y-107950000D01*
X129500000Y-128420000D02*
X129500000Y-128270000D01*
X128324990Y-129595010D02*
X129500000Y-128420000D01*
X122440010Y-129595010D02*
X128324990Y-129595010D01*
X121115000Y-128270000D02*
X122440010Y-129595010D01*
X120015000Y-128270000D02*
X121115000Y-128270000D01*
X122555000Y-107950000D02*
X123680300Y-107950000D01*
X123680300Y-107950000D02*
X124496000Y-107134300D01*
X124496000Y-107134300D02*
X126336800Y-107134300D01*
X126336800Y-107134300D02*
X127152500Y-107950000D01*
X122555000Y-113030000D02*
X123680300Y-113030000D01*
X123680300Y-113030000D02*
X123680300Y-113022200D01*
X123680300Y-113022200D02*
X125577500Y-111125000D01*
D22*
G36*
X159626204Y-87681815D02*
G01*
X159858226Y-87751867D01*
X160072222Y-87865650D01*
X160260041Y-88018832D01*
X160414530Y-88205577D01*
X160529801Y-88418769D01*
X160601472Y-88650300D01*
X160630000Y-88921725D01*
X160630001Y-130777712D01*
X160603185Y-131051205D01*
X160533133Y-131283226D01*
X160419350Y-131497222D01*
X160266169Y-131685039D01*
X160079424Y-131839529D01*
X159866231Y-131954802D01*
X159634701Y-132026472D01*
X159363276Y-132055000D01*
X109887277Y-132055000D01*
X109613795Y-132028185D01*
X109381774Y-131958133D01*
X109167778Y-131844350D01*
X108979961Y-131691169D01*
X108825471Y-131504424D01*
X108710198Y-131291231D01*
X108638528Y-131059701D01*
X108610000Y-130788276D01*
X108610000Y-129305098D01*
X108740000Y-129305098D01*
X108740000Y-129774902D01*
X108831654Y-130235679D01*
X109011440Y-130669721D01*
X109272450Y-131060349D01*
X109604651Y-131392550D01*
X109995279Y-131653560D01*
X110429321Y-131833346D01*
X110890098Y-131925000D01*
X111359902Y-131925000D01*
X111820679Y-131833346D01*
X112254721Y-131653560D01*
X112645349Y-131392550D01*
X112977550Y-131060349D01*
X113238560Y-130669721D01*
X113418346Y-130235679D01*
X113510000Y-129774902D01*
X113510000Y-129305098D01*
X113418346Y-128844321D01*
X113238560Y-128410279D01*
X112977550Y-128019651D01*
X112645349Y-127687450D01*
X112394744Y-127520000D01*
X116026928Y-127520000D01*
X116026928Y-129020000D01*
X116043992Y-129193254D01*
X116094528Y-129359850D01*
X116176595Y-129513386D01*
X116287038Y-129647962D01*
X116421614Y-129758405D01*
X116575150Y-129840472D01*
X116741746Y-129891008D01*
X116915000Y-129908072D01*
X118115000Y-129908072D01*
X118288254Y-129891008D01*
X118454850Y-129840472D01*
X118608386Y-129758405D01*
X118742962Y-129647962D01*
X118853405Y-129513386D01*
X118907777Y-129411663D01*
X118959866Y-129475134D01*
X119185987Y-129660706D01*
X119443967Y-129798599D01*
X119723890Y-129883513D01*
X120015000Y-129912185D01*
X120306111Y-129883513D01*
X120586034Y-129798599D01*
X120844014Y-129660706D01*
X121070134Y-129475134D01*
X121149106Y-129378907D01*
X121876211Y-130106013D01*
X121900009Y-130135011D01*
X121929007Y-130158809D01*
X122015733Y-130229984D01*
X122074811Y-130261562D01*
X122147763Y-130300556D01*
X122291024Y-130344013D01*
X122402677Y-130355010D01*
X122402686Y-130355010D01*
X122440009Y-130358686D01*
X122477332Y-130355010D01*
X128287668Y-130355010D01*
X128324990Y-130358686D01*
X128362312Y-130355010D01*
X128362323Y-130355010D01*
X128473976Y-130344013D01*
X128617237Y-130300556D01*
X128749266Y-130229984D01*
X128864991Y-130135011D01*
X128888794Y-130106007D01*
X129134005Y-129860797D01*
X129208890Y-129883513D01*
X129500000Y-129912185D01*
X129791111Y-129883513D01*
X130071034Y-129798599D01*
X130329014Y-129660706D01*
X130555134Y-129475134D01*
X130694679Y-129305098D01*
X155730000Y-129305098D01*
X155730000Y-129774902D01*
X155821654Y-130235679D01*
X156001440Y-130669721D01*
X156262450Y-131060349D01*
X156594651Y-131392550D01*
X156985279Y-131653560D01*
X157419321Y-131833346D01*
X157880098Y-131925000D01*
X158349902Y-131925000D01*
X158810679Y-131833346D01*
X159244721Y-131653560D01*
X159635349Y-131392550D01*
X159967550Y-131060349D01*
X160228560Y-130669721D01*
X160408346Y-130235679D01*
X160500000Y-129774902D01*
X160500000Y-129305098D01*
X160408346Y-128844321D01*
X160228560Y-128410279D01*
X159967550Y-128019651D01*
X159635349Y-127687450D01*
X159244721Y-127426440D01*
X158810679Y-127246654D01*
X158349902Y-127155000D01*
X157880098Y-127155000D01*
X157419321Y-127246654D01*
X156985279Y-127426440D01*
X156594651Y-127687450D01*
X156262450Y-128019651D01*
X156001440Y-128410279D01*
X155821654Y-128844321D01*
X155730000Y-129305098D01*
X130694679Y-129305098D01*
X130740706Y-129249014D01*
X130878599Y-128991033D01*
X130963513Y-128711110D01*
X130985000Y-128492949D01*
X130985000Y-128047050D01*
X130963513Y-127828889D01*
X130878599Y-127548966D01*
X130740706Y-127290986D01*
X130555134Y-127064866D01*
X130329013Y-126879294D01*
X130071033Y-126741401D01*
X129791110Y-126656487D01*
X129500000Y-126627815D01*
X129208889Y-126656487D01*
X128928966Y-126741401D01*
X128670986Y-126879294D01*
X128444866Y-127064866D01*
X128392777Y-127128337D01*
X128338405Y-127026614D01*
X128227962Y-126892038D01*
X128093386Y-126781595D01*
X127939850Y-126699528D01*
X127773254Y-126648992D01*
X127600000Y-126631928D01*
X126400000Y-126631928D01*
X126226746Y-126648992D01*
X126060150Y-126699528D01*
X125906614Y-126781595D01*
X125772038Y-126892038D01*
X125661595Y-127026614D01*
X125579528Y-127180150D01*
X125528992Y-127346746D01*
X125511928Y-127520000D01*
X125511928Y-128835010D01*
X122754812Y-128835010D01*
X121678804Y-127759003D01*
X121655001Y-127729999D01*
X121539276Y-127635026D01*
X121407247Y-127564454D01*
X121397390Y-127561464D01*
X121393599Y-127548966D01*
X121255706Y-127290986D01*
X121070134Y-127064866D01*
X120844013Y-126879294D01*
X120586033Y-126741401D01*
X120306110Y-126656487D01*
X120015000Y-126627815D01*
X119723889Y-126656487D01*
X119443966Y-126741401D01*
X119185986Y-126879294D01*
X118959866Y-127064866D01*
X118907777Y-127128337D01*
X118853405Y-127026614D01*
X118742962Y-126892038D01*
X118608386Y-126781595D01*
X118454850Y-126699528D01*
X118288254Y-126648992D01*
X118115000Y-126631928D01*
X116915000Y-126631928D01*
X116741746Y-126648992D01*
X116575150Y-126699528D01*
X116421614Y-126781595D01*
X116287038Y-126892038D01*
X116176595Y-127026614D01*
X116094528Y-127180150D01*
X116043992Y-127346746D01*
X116026928Y-127520000D01*
X112394744Y-127520000D01*
X112254721Y-127426440D01*
X111820679Y-127246654D01*
X111359902Y-127155000D01*
X110890098Y-127155000D01*
X110429321Y-127246654D01*
X109995279Y-127426440D01*
X109604651Y-127687450D01*
X109272450Y-128019651D01*
X109011440Y-128410279D01*
X108831654Y-128844321D01*
X108740000Y-129305098D01*
X108610000Y-129305098D01*
X108610000Y-123396398D01*
X108645506Y-123425537D01*
X108755820Y-123484502D01*
X108875518Y-123520812D01*
X109000000Y-123533072D01*
X111200000Y-123533072D01*
X111324482Y-123520812D01*
X111444180Y-123484502D01*
X111554494Y-123425537D01*
X111651185Y-123346185D01*
X111730537Y-123249494D01*
X111789502Y-123139180D01*
X111825812Y-123019482D01*
X111836102Y-122915000D01*
X112561928Y-122915000D01*
X112574188Y-123039482D01*
X112610498Y-123159180D01*
X112669463Y-123269494D01*
X112748815Y-123366185D01*
X112845506Y-123445537D01*
X112955820Y-123504502D01*
X113075518Y-123540812D01*
X113200000Y-123553072D01*
X116114250Y-123550000D01*
X116273000Y-123391250D01*
X116273000Y-120142000D01*
X116527000Y-120142000D01*
X116527000Y-123391250D01*
X116685750Y-123550000D01*
X119600000Y-123553072D01*
X119724482Y-123540812D01*
X119844180Y-123504502D01*
X119954494Y-123445537D01*
X120051185Y-123366185D01*
X120130537Y-123269494D01*
X120189502Y-123159180D01*
X120225812Y-123039482D01*
X120238072Y-122915000D01*
X120235000Y-120300750D01*
X120076250Y-120142000D01*
X116527000Y-120142000D01*
X116273000Y-120142000D01*
X112723750Y-120142000D01*
X112565000Y-120300750D01*
X112561928Y-122915000D01*
X111836102Y-122915000D01*
X111838072Y-122895000D01*
X111838072Y-121695000D01*
X111825812Y-121570518D01*
X111789502Y-121450820D01*
X111730537Y-121340506D01*
X111651185Y-121243815D01*
X111554494Y-121164463D01*
X111444180Y-121105498D01*
X111440208Y-121104293D01*
X112690126Y-119854376D01*
X112723750Y-119888000D01*
X116273000Y-119888000D01*
X116273000Y-119868000D01*
X116527000Y-119868000D01*
X116527000Y-119888000D01*
X120076250Y-119888000D01*
X120235000Y-119729250D01*
X120237561Y-117549600D01*
X121064499Y-117549600D01*
X124040905Y-120526008D01*
X124064699Y-120555001D01*
X124093692Y-120578795D01*
X124093696Y-120578799D01*
X124144750Y-120620697D01*
X124180424Y-120649974D01*
X124291928Y-120709575D01*
X124291928Y-120815000D01*
X124304188Y-120939482D01*
X124340498Y-121059180D01*
X124399463Y-121169494D01*
X124478815Y-121266185D01*
X124575506Y-121345537D01*
X124685820Y-121404502D01*
X124805518Y-121440812D01*
X124930000Y-121453072D01*
X126530000Y-121453072D01*
X126654482Y-121440812D01*
X126774180Y-121404502D01*
X126884494Y-121345537D01*
X126981185Y-121266185D01*
X126991807Y-121253242D01*
X127243996Y-121372571D01*
X127518184Y-121441300D01*
X127800512Y-121455217D01*
X128080130Y-121413787D01*
X128346292Y-121318603D01*
X128471514Y-121251671D01*
X128543097Y-121007702D01*
X127730000Y-120194605D01*
X127715858Y-120208748D01*
X127536253Y-120029143D01*
X127550395Y-120015000D01*
X127909605Y-120015000D01*
X128722702Y-120828097D01*
X128966671Y-120756514D01*
X129087571Y-120501004D01*
X129156300Y-120226816D01*
X129170217Y-119944488D01*
X129128787Y-119664870D01*
X129033603Y-119398708D01*
X128966671Y-119273486D01*
X128722702Y-119201903D01*
X127909605Y-120015000D01*
X127550395Y-120015000D01*
X127536253Y-120000858D01*
X127715858Y-119821253D01*
X127730000Y-119835395D01*
X128543097Y-119022298D01*
X128471514Y-118778329D01*
X128216004Y-118657429D01*
X127941816Y-118588700D01*
X127659488Y-118574783D01*
X127379870Y-118616213D01*
X127113708Y-118711397D01*
X126991691Y-118776616D01*
X126981185Y-118763815D01*
X126884494Y-118684463D01*
X126774180Y-118625498D01*
X126654482Y-118589188D01*
X126530000Y-118576928D01*
X124930000Y-118576928D01*
X124805518Y-118589188D01*
X124685820Y-118625498D01*
X124575506Y-118684463D01*
X124478815Y-118763815D01*
X124456053Y-118791551D01*
X121943104Y-116278603D01*
X121919301Y-116249599D01*
X121803576Y-116154626D01*
X121671547Y-116084054D01*
X121528286Y-116040597D01*
X121416633Y-116029600D01*
X121416622Y-116029600D01*
X121379300Y-116025924D01*
X121341978Y-116029600D01*
X113096822Y-116029600D01*
X113059499Y-116025924D01*
X113022176Y-116029600D01*
X113022167Y-116029600D01*
X112910514Y-116040597D01*
X112767253Y-116084054D01*
X112635224Y-116154626D01*
X112519499Y-116249599D01*
X112495696Y-116278603D01*
X112363603Y-116410696D01*
X112334599Y-116434499D01*
X112283365Y-116496928D01*
X112239626Y-116550224D01*
X112192308Y-116638750D01*
X112169054Y-116682254D01*
X112125597Y-116825515D01*
X112114600Y-116937168D01*
X112114600Y-116937178D01*
X112110924Y-116974500D01*
X112114600Y-117011823D01*
X112114601Y-118280297D01*
X111759397Y-118635501D01*
X111789502Y-118579180D01*
X111825812Y-118459482D01*
X111838072Y-118335000D01*
X111838072Y-117135000D01*
X111825812Y-117010518D01*
X111789502Y-116890820D01*
X111730537Y-116780506D01*
X111651185Y-116683815D01*
X111554494Y-116604463D01*
X111444180Y-116545498D01*
X111324482Y-116509188D01*
X111200000Y-116496928D01*
X110860000Y-116496928D01*
X110860000Y-112360101D01*
X112946003Y-110274099D01*
X112975001Y-110250301D01*
X113069974Y-110134576D01*
X113129575Y-110023072D01*
X113235000Y-110023072D01*
X113359482Y-110010812D01*
X113479180Y-109974502D01*
X113589494Y-109915537D01*
X113686185Y-109836185D01*
X113765537Y-109739494D01*
X113824502Y-109629180D01*
X113840117Y-109577702D01*
X114121903Y-109577702D01*
X114193486Y-109821671D01*
X114448996Y-109942571D01*
X114723184Y-110011300D01*
X115005512Y-110025217D01*
X115285130Y-109983787D01*
X115551292Y-109888603D01*
X115676514Y-109821671D01*
X115748097Y-109577702D01*
X114935000Y-108764605D01*
X114121903Y-109577702D01*
X113840117Y-109577702D01*
X113860812Y-109509482D01*
X113873072Y-109385000D01*
X113873072Y-109377785D01*
X113942298Y-109398097D01*
X114755395Y-108585000D01*
X115114605Y-108585000D01*
X115927702Y-109398097D01*
X116171671Y-109326514D01*
X116292571Y-109071004D01*
X116361300Y-108796816D01*
X116375217Y-108514488D01*
X116333787Y-108234870D01*
X116238603Y-107968708D01*
X116171671Y-107843486D01*
X115927702Y-107771903D01*
X115114605Y-108585000D01*
X114755395Y-108585000D01*
X113942298Y-107771903D01*
X113873072Y-107792215D01*
X113873072Y-107785000D01*
X113860812Y-107660518D01*
X113840118Y-107592298D01*
X114121903Y-107592298D01*
X114935000Y-108405395D01*
X115748097Y-107592298D01*
X115676514Y-107348329D01*
X115421004Y-107227429D01*
X115146816Y-107158700D01*
X114864488Y-107144783D01*
X114584870Y-107186213D01*
X114318708Y-107281397D01*
X114193486Y-107348329D01*
X114121903Y-107592298D01*
X113840118Y-107592298D01*
X113824502Y-107540820D01*
X113765537Y-107430506D01*
X113686185Y-107333815D01*
X113589494Y-107254463D01*
X113479180Y-107195498D01*
X113359482Y-107159188D01*
X113235000Y-107146928D01*
X111635000Y-107146928D01*
X111510518Y-107159188D01*
X111390820Y-107195498D01*
X111280506Y-107254463D01*
X111183815Y-107333815D01*
X111104463Y-107430506D01*
X111045498Y-107540820D01*
X111009188Y-107660518D01*
X110996928Y-107785000D01*
X110996928Y-109385000D01*
X111009188Y-109509482D01*
X111045498Y-109629180D01*
X111104463Y-109739494D01*
X111183815Y-109836185D01*
X111211551Y-109858947D01*
X109588998Y-111481501D01*
X109560000Y-111505299D01*
X109536202Y-111534297D01*
X109536201Y-111534298D01*
X109465026Y-111621024D01*
X109394454Y-111753054D01*
X109350998Y-111896315D01*
X109336324Y-112045300D01*
X109340001Y-112082632D01*
X109340000Y-116496928D01*
X109000000Y-116496928D01*
X108875518Y-116509188D01*
X108755820Y-116545498D01*
X108645506Y-116604463D01*
X108610000Y-116633602D01*
X108610000Y-105410000D01*
X121113057Y-105410000D01*
X121140764Y-105691309D01*
X121222818Y-105961808D01*
X121356068Y-106211101D01*
X121535392Y-106429608D01*
X121753899Y-106608932D01*
X121886858Y-106680000D01*
X121753899Y-106751068D01*
X121535392Y-106930392D01*
X121356068Y-107148899D01*
X121222818Y-107398192D01*
X121140764Y-107668691D01*
X121113057Y-107950000D01*
X121140764Y-108231309D01*
X121222818Y-108501808D01*
X121356068Y-108751101D01*
X121535392Y-108969608D01*
X121753899Y-109148932D01*
X121886858Y-109220000D01*
X121753899Y-109291068D01*
X121535392Y-109470392D01*
X121356068Y-109688899D01*
X121222818Y-109938192D01*
X121140764Y-110208691D01*
X121113057Y-110490000D01*
X121140764Y-110771309D01*
X121222818Y-111041808D01*
X121356068Y-111291101D01*
X121535392Y-111509608D01*
X121753899Y-111688932D01*
X121886858Y-111760000D01*
X121753899Y-111831068D01*
X121535392Y-112010392D01*
X121356068Y-112228899D01*
X121222818Y-112478192D01*
X121140764Y-112748691D01*
X121113057Y-113030000D01*
X121140764Y-113311309D01*
X121222818Y-113581808D01*
X121356068Y-113831101D01*
X121535392Y-114049608D01*
X121753899Y-114228932D01*
X122003192Y-114362182D01*
X122273691Y-114444236D01*
X122484508Y-114465000D01*
X122625492Y-114465000D01*
X122836309Y-114444236D01*
X123106808Y-114362182D01*
X123356101Y-114228932D01*
X123574608Y-114049608D01*
X123753932Y-113831101D01*
X123779139Y-113783942D01*
X123829286Y-113779003D01*
X123972547Y-113735546D01*
X124104576Y-113664974D01*
X124220301Y-113570001D01*
X124279801Y-113497500D01*
X125539230Y-112238072D01*
X125796250Y-112238072D01*
X125963408Y-112221608D01*
X126124142Y-112172850D01*
X126272275Y-112093671D01*
X126293930Y-112075900D01*
X126360506Y-112130537D01*
X126470820Y-112189502D01*
X126590518Y-112225812D01*
X126715000Y-112238072D01*
X126866750Y-112235000D01*
X127025500Y-112076250D01*
X127025500Y-111252000D01*
X127279500Y-111252000D01*
X127279500Y-112076250D01*
X127438250Y-112235000D01*
X127590000Y-112238072D01*
X127714482Y-112225812D01*
X127834180Y-112189502D01*
X127944494Y-112130537D01*
X128041185Y-112051185D01*
X128120537Y-111954494D01*
X128179502Y-111844180D01*
X128215812Y-111724482D01*
X128228072Y-111600000D01*
X128225000Y-111410750D01*
X128066250Y-111252000D01*
X127279500Y-111252000D01*
X127025500Y-111252000D01*
X127005500Y-111252000D01*
X127005500Y-110998000D01*
X127025500Y-110998000D01*
X127025500Y-110173750D01*
X127279500Y-110173750D01*
X127279500Y-110998000D01*
X128066250Y-110998000D01*
X128225000Y-110839250D01*
X128228072Y-110650000D01*
X128215812Y-110525518D01*
X128179502Y-110405820D01*
X128120537Y-110295506D01*
X128041185Y-110198815D01*
X127944494Y-110119463D01*
X127834180Y-110060498D01*
X127714482Y-110024188D01*
X127590000Y-110011928D01*
X127438250Y-110015000D01*
X127279500Y-110173750D01*
X127025500Y-110173750D01*
X126866750Y-110015000D01*
X126715000Y-110011928D01*
X126590518Y-110024188D01*
X126470820Y-110060498D01*
X126360506Y-110119463D01*
X126293930Y-110174100D01*
X126272275Y-110156329D01*
X126124142Y-110077150D01*
X125963408Y-110028392D01*
X125796250Y-110011928D01*
X125358750Y-110011928D01*
X125191592Y-110028392D01*
X125030858Y-110077150D01*
X124882725Y-110156329D01*
X124752885Y-110262885D01*
X124646329Y-110392725D01*
X124567150Y-110540858D01*
X124518392Y-110701592D01*
X124501928Y-110868750D01*
X124501928Y-111125770D01*
X123593855Y-112033844D01*
X123574608Y-112010392D01*
X123356101Y-111831068D01*
X123223142Y-111760000D01*
X123356101Y-111688932D01*
X123574608Y-111509608D01*
X123753932Y-111291101D01*
X123779139Y-111243942D01*
X123829286Y-111239003D01*
X123972547Y-111195546D01*
X124104576Y-111124974D01*
X124220301Y-111030001D01*
X124315274Y-110914276D01*
X124385846Y-110782247D01*
X124429303Y-110638986D01*
X124443977Y-110490000D01*
X124440300Y-110452667D01*
X124440300Y-110162001D01*
X125539230Y-109063072D01*
X125796250Y-109063072D01*
X125963408Y-109046608D01*
X126124142Y-108997850D01*
X126272275Y-108918671D01*
X126365000Y-108842574D01*
X126457725Y-108918671D01*
X126605858Y-108997850D01*
X126766592Y-109046608D01*
X126933750Y-109063072D01*
X127371250Y-109063072D01*
X127538408Y-109046608D01*
X127699142Y-108997850D01*
X127847275Y-108918671D01*
X127977115Y-108812115D01*
X128083671Y-108682275D01*
X128162850Y-108534142D01*
X128211608Y-108373408D01*
X128228072Y-108206250D01*
X128228072Y-107693750D01*
X128211608Y-107526592D01*
X128162850Y-107365858D01*
X128083671Y-107217725D01*
X127977115Y-107087885D01*
X127847275Y-106981329D01*
X127699142Y-106902150D01*
X127538408Y-106853392D01*
X127371250Y-106836928D01*
X127114229Y-106836928D01*
X126900603Y-106623302D01*
X126876801Y-106594299D01*
X126761076Y-106499326D01*
X126629047Y-106428754D01*
X126485786Y-106385297D01*
X126374133Y-106374300D01*
X126374122Y-106374300D01*
X126336800Y-106370624D01*
X126299478Y-106374300D01*
X124533322Y-106374300D01*
X124495999Y-106370624D01*
X124458677Y-106374300D01*
X124458667Y-106374300D01*
X124347014Y-106385297D01*
X124203753Y-106428754D01*
X124071723Y-106499326D01*
X124031357Y-106532454D01*
X123955999Y-106594299D01*
X123932201Y-106623298D01*
X123597370Y-106958128D01*
X123574608Y-106930392D01*
X123356101Y-106751068D01*
X123223142Y-106680000D01*
X123356101Y-106608932D01*
X123574608Y-106429608D01*
X123753932Y-106211101D01*
X123887182Y-105961808D01*
X123969236Y-105691309D01*
X123996943Y-105410000D01*
X123969236Y-105128691D01*
X123887182Y-104858192D01*
X123753932Y-104608899D01*
X123574608Y-104390392D01*
X123356101Y-104211068D01*
X123106808Y-104077818D01*
X122836309Y-103995764D01*
X122625492Y-103975000D01*
X122484508Y-103975000D01*
X122273691Y-103995764D01*
X122003192Y-104077818D01*
X121753899Y-104211068D01*
X121535392Y-104390392D01*
X121356068Y-104608899D01*
X121222818Y-104858192D01*
X121140764Y-105128691D01*
X121113057Y-105410000D01*
X108610000Y-105410000D01*
X108610000Y-99558589D01*
X109740000Y-99558589D01*
X109740000Y-99831411D01*
X109793225Y-100098989D01*
X109897629Y-100351043D01*
X110049201Y-100577886D01*
X110242114Y-100770799D01*
X110468957Y-100922371D01*
X110721011Y-101026775D01*
X110988589Y-101080000D01*
X111261411Y-101080000D01*
X111528989Y-101026775D01*
X111781043Y-100922371D01*
X112007886Y-100770799D01*
X112200799Y-100577886D01*
X112352371Y-100351043D01*
X112395000Y-100248127D01*
X112437629Y-100351043D01*
X112589201Y-100577886D01*
X112782114Y-100770799D01*
X113008957Y-100922371D01*
X113261011Y-101026775D01*
X113528589Y-101080000D01*
X113801411Y-101080000D01*
X114068989Y-101026775D01*
X114321043Y-100922371D01*
X114547886Y-100770799D01*
X114740799Y-100577886D01*
X114892371Y-100351043D01*
X114935000Y-100248127D01*
X114977629Y-100351043D01*
X115129201Y-100577886D01*
X115322114Y-100770799D01*
X115548957Y-100922371D01*
X115801011Y-101026775D01*
X116068589Y-101080000D01*
X116341411Y-101080000D01*
X116608989Y-101026775D01*
X116861043Y-100922371D01*
X117087886Y-100770799D01*
X117280799Y-100577886D01*
X117432371Y-100351043D01*
X117536775Y-100098989D01*
X117590000Y-99831411D01*
X117590000Y-99558589D01*
X117536775Y-99291011D01*
X117432371Y-99038957D01*
X117280799Y-98812114D01*
X117087886Y-98619201D01*
X116861043Y-98467629D01*
X116608989Y-98363225D01*
X116341411Y-98310000D01*
X116068589Y-98310000D01*
X115801011Y-98363225D01*
X115548957Y-98467629D01*
X115322114Y-98619201D01*
X115129201Y-98812114D01*
X114977629Y-99038957D01*
X114935000Y-99141873D01*
X114892371Y-99038957D01*
X114740799Y-98812114D01*
X114547886Y-98619201D01*
X114425000Y-98537091D01*
X114425000Y-96199801D01*
X114779801Y-95845000D01*
X126652815Y-95845000D01*
X126681487Y-96136111D01*
X126766401Y-96416034D01*
X126904294Y-96674014D01*
X127089866Y-96900134D01*
X127315986Y-97085706D01*
X127333374Y-97095000D01*
X127315986Y-97104294D01*
X127089866Y-97289866D01*
X126904294Y-97515986D01*
X126766401Y-97773966D01*
X126681487Y-98053889D01*
X126652815Y-98345000D01*
X126681487Y-98636111D01*
X126766401Y-98916034D01*
X126904294Y-99174014D01*
X127089866Y-99400134D01*
X127315986Y-99585706D01*
X127573966Y-99723599D01*
X127853889Y-99808513D01*
X128072050Y-99830000D01*
X128467950Y-99830000D01*
X128686111Y-99808513D01*
X128966034Y-99723599D01*
X129224014Y-99585706D01*
X129450134Y-99400134D01*
X129635706Y-99174014D01*
X129676205Y-99098246D01*
X129719286Y-99094003D01*
X129862547Y-99050546D01*
X129994576Y-98979974D01*
X130110301Y-98885001D01*
X130134104Y-98855997D01*
X130301401Y-98688700D01*
X133234848Y-98688700D01*
X133228096Y-98710961D01*
X133350085Y-98933000D01*
X134493000Y-98933000D01*
X134493000Y-98913000D01*
X134747000Y-98913000D01*
X134747000Y-98933000D01*
X135889915Y-98933000D01*
X136011904Y-98710961D01*
X136005152Y-98688700D01*
X148031198Y-98688700D01*
X147294599Y-99425300D01*
X136006972Y-99425300D01*
X136011904Y-99409039D01*
X135889915Y-99187000D01*
X134747000Y-99187000D01*
X134747000Y-99207000D01*
X134493000Y-99207000D01*
X134493000Y-99187000D01*
X133350085Y-99187000D01*
X133228096Y-99409039D01*
X133268754Y-99543087D01*
X133388963Y-99797420D01*
X133530259Y-99988039D01*
X130789298Y-102729001D01*
X130760300Y-102752799D01*
X130736502Y-102781797D01*
X130736501Y-102781798D01*
X130665326Y-102868524D01*
X130594754Y-103000554D01*
X130577269Y-103058198D01*
X130551298Y-103143814D01*
X130546935Y-103188110D01*
X130536624Y-103292800D01*
X130540301Y-103330132D01*
X130540301Y-104021242D01*
X130456309Y-103995764D01*
X130245492Y-103975000D01*
X130104508Y-103975000D01*
X129893691Y-103995764D01*
X129623192Y-104077818D01*
X129373899Y-104211068D01*
X129155392Y-104390392D01*
X128976068Y-104608899D01*
X128842818Y-104858192D01*
X128760764Y-105128691D01*
X128733057Y-105410000D01*
X128760764Y-105691309D01*
X128842818Y-105961808D01*
X128976068Y-106211101D01*
X129155392Y-106429608D01*
X129373899Y-106608932D01*
X129436160Y-106642211D01*
X129425997Y-106675714D01*
X129421058Y-106725861D01*
X129373899Y-106751068D01*
X129155392Y-106930392D01*
X128976068Y-107148899D01*
X128842818Y-107398192D01*
X128760764Y-107668691D01*
X128733057Y-107950000D01*
X128760764Y-108231309D01*
X128842818Y-108501808D01*
X128976068Y-108751101D01*
X129155392Y-108969608D01*
X129373899Y-109148932D01*
X129511682Y-109222579D01*
X129319869Y-109337615D01*
X129111481Y-109526586D01*
X128943963Y-109752580D01*
X128823754Y-110006913D01*
X128783096Y-110140961D01*
X128905085Y-110363000D01*
X130048000Y-110363000D01*
X130048000Y-110343000D01*
X130302000Y-110343000D01*
X130302000Y-110363000D01*
X130322000Y-110363000D01*
X130322000Y-110617000D01*
X130302000Y-110617000D01*
X130302000Y-110637000D01*
X130048000Y-110637000D01*
X130048000Y-110617000D01*
X128905085Y-110617000D01*
X128783096Y-110839039D01*
X128823754Y-110973087D01*
X128943963Y-111227420D01*
X129111481Y-111453414D01*
X129275080Y-111601769D01*
X129250518Y-111604188D01*
X129130820Y-111640498D01*
X129020506Y-111699463D01*
X128923815Y-111778815D01*
X128844463Y-111875506D01*
X128785498Y-111985820D01*
X128749188Y-112105518D01*
X128736928Y-112230000D01*
X128736928Y-113830000D01*
X128749188Y-113954482D01*
X128785498Y-114074180D01*
X128844463Y-114184494D01*
X128923815Y-114281185D01*
X129020506Y-114360537D01*
X129130820Y-114419502D01*
X129250518Y-114455812D01*
X129375000Y-114468072D01*
X130975000Y-114468072D01*
X131099482Y-114455812D01*
X131219180Y-114419502D01*
X131329494Y-114360537D01*
X131426185Y-114281185D01*
X131505537Y-114184494D01*
X131564502Y-114074180D01*
X131600812Y-113954482D01*
X131613072Y-113830000D01*
X131613072Y-112230000D01*
X131600812Y-112105518D01*
X131564502Y-111985820D01*
X131524611Y-111911190D01*
X133418850Y-110016952D01*
X133421068Y-110021101D01*
X133600392Y-110239608D01*
X133818899Y-110418932D01*
X133951858Y-110490000D01*
X133818899Y-110561068D01*
X133600392Y-110740392D01*
X133421068Y-110958899D01*
X133287818Y-111208192D01*
X133205764Y-111478691D01*
X133178057Y-111760000D01*
X133205764Y-112041309D01*
X133287818Y-112311808D01*
X133421068Y-112561101D01*
X133600392Y-112779608D01*
X133818899Y-112958932D01*
X133951858Y-113030000D01*
X133818899Y-113101068D01*
X133600392Y-113280392D01*
X133421068Y-113498899D01*
X133287818Y-113748192D01*
X133205764Y-114018691D01*
X133178057Y-114300000D01*
X133205764Y-114581309D01*
X133287818Y-114851808D01*
X133421068Y-115101101D01*
X133600392Y-115319608D01*
X133818899Y-115498932D01*
X133951858Y-115570000D01*
X133818899Y-115641068D01*
X133600392Y-115820392D01*
X133421068Y-116038899D01*
X133287818Y-116288192D01*
X133205764Y-116558691D01*
X133178057Y-116840000D01*
X133205764Y-117121309D01*
X133287818Y-117391808D01*
X133421068Y-117641101D01*
X133600392Y-117859608D01*
X133818899Y-118038932D01*
X133951858Y-118110000D01*
X133818899Y-118181068D01*
X133600392Y-118360392D01*
X133421068Y-118578899D01*
X133287818Y-118828192D01*
X133205764Y-119098691D01*
X133178057Y-119380000D01*
X133205764Y-119661309D01*
X133287818Y-119931808D01*
X133421068Y-120181101D01*
X133600392Y-120399608D01*
X133818899Y-120578932D01*
X133951858Y-120650000D01*
X133818899Y-120721068D01*
X133600392Y-120900392D01*
X133421068Y-121118899D01*
X133287818Y-121368192D01*
X133205764Y-121638691D01*
X133178057Y-121920000D01*
X133205764Y-122201309D01*
X133287818Y-122471808D01*
X133421068Y-122721101D01*
X133600392Y-122939608D01*
X133818899Y-123118932D01*
X133951858Y-123190000D01*
X133818899Y-123261068D01*
X133600392Y-123440392D01*
X133421068Y-123658899D01*
X133287818Y-123908192D01*
X133205764Y-124178691D01*
X133178057Y-124460000D01*
X133205764Y-124741309D01*
X133287818Y-125011808D01*
X133421068Y-125261101D01*
X133600392Y-125479608D01*
X133818899Y-125658932D01*
X133951858Y-125730000D01*
X133818899Y-125801068D01*
X133600392Y-125980392D01*
X133421068Y-126198899D01*
X133287818Y-126448192D01*
X133205764Y-126718691D01*
X133178057Y-127000000D01*
X133205764Y-127281309D01*
X133287818Y-127551808D01*
X133421068Y-127801101D01*
X133600392Y-128019608D01*
X133818899Y-128198932D01*
X134068192Y-128332182D01*
X134338691Y-128414236D01*
X134549508Y-128435000D01*
X134690492Y-128435000D01*
X134901309Y-128414236D01*
X135171808Y-128332182D01*
X135421101Y-128198932D01*
X135639608Y-128019608D01*
X135818932Y-127801101D01*
X135952182Y-127551808D01*
X136034236Y-127281309D01*
X136061943Y-127000000D01*
X136034236Y-126718691D01*
X135952182Y-126448192D01*
X135818932Y-126198899D01*
X135639608Y-125980392D01*
X135421101Y-125801068D01*
X135288142Y-125730000D01*
X135421101Y-125658932D01*
X135639608Y-125479608D01*
X135818932Y-125261101D01*
X135952182Y-125011808D01*
X136034236Y-124741309D01*
X136061943Y-124460000D01*
X136034236Y-124178691D01*
X135952182Y-123908192D01*
X135818932Y-123658899D01*
X135639608Y-123440392D01*
X135421101Y-123261068D01*
X135288142Y-123190000D01*
X135421101Y-123118932D01*
X135639608Y-122939608D01*
X135818932Y-122721101D01*
X135952182Y-122471808D01*
X136034236Y-122201309D01*
X136061943Y-121920000D01*
X136034236Y-121638691D01*
X135952182Y-121368192D01*
X135818932Y-121118899D01*
X135639608Y-120900392D01*
X135421101Y-120721068D01*
X135288142Y-120650000D01*
X135421101Y-120578932D01*
X135639608Y-120399608D01*
X135818932Y-120181101D01*
X135952182Y-119931808D01*
X136034236Y-119661309D01*
X136061943Y-119380000D01*
X136034236Y-119098691D01*
X135952182Y-118828192D01*
X135818932Y-118578899D01*
X135639608Y-118360392D01*
X135421101Y-118181068D01*
X135288142Y-118110000D01*
X135421101Y-118038932D01*
X135639608Y-117859608D01*
X135818932Y-117641101D01*
X135952182Y-117391808D01*
X136034236Y-117121309D01*
X136061943Y-116840000D01*
X136034236Y-116558691D01*
X135952182Y-116288192D01*
X135818932Y-116038899D01*
X135639608Y-115820392D01*
X135421101Y-115641068D01*
X135288142Y-115570000D01*
X135421101Y-115498932D01*
X135639608Y-115319608D01*
X135818932Y-115101101D01*
X135952182Y-114851808D01*
X136034236Y-114581309D01*
X136061943Y-114300000D01*
X136034236Y-114018691D01*
X135952182Y-113748192D01*
X135818932Y-113498899D01*
X135639608Y-113280392D01*
X135421101Y-113101068D01*
X135288142Y-113030000D01*
X135421101Y-112958932D01*
X135639608Y-112779608D01*
X135818932Y-112561101D01*
X135952182Y-112311808D01*
X136034236Y-112041309D01*
X136061943Y-111760000D01*
X136034236Y-111478691D01*
X135952182Y-111208192D01*
X135818932Y-110958899D01*
X135639608Y-110740392D01*
X135421101Y-110561068D01*
X135288142Y-110490000D01*
X135421101Y-110418932D01*
X135639608Y-110239608D01*
X135818932Y-110021101D01*
X135952182Y-109771808D01*
X136034236Y-109501309D01*
X136061943Y-109220000D01*
X136034236Y-108938691D01*
X135952182Y-108668192D01*
X135818932Y-108418899D01*
X135639608Y-108200392D01*
X135421101Y-108021068D01*
X135288142Y-107950000D01*
X135421101Y-107878932D01*
X135639608Y-107699608D01*
X135818932Y-107481101D01*
X135952182Y-107231808D01*
X136034236Y-106961309D01*
X136061943Y-106680000D01*
X136034236Y-106398691D01*
X135952182Y-106128192D01*
X135818932Y-105878899D01*
X135639608Y-105660392D01*
X135421101Y-105481068D01*
X135288142Y-105410000D01*
X135421101Y-105338932D01*
X135639608Y-105159608D01*
X135818932Y-104941101D01*
X135952182Y-104691808D01*
X136034236Y-104421309D01*
X136061943Y-104140000D01*
X136034236Y-103858691D01*
X135952182Y-103588192D01*
X135818932Y-103338899D01*
X135639608Y-103120392D01*
X135421101Y-102941068D01*
X135358840Y-102907789D01*
X135369003Y-102874286D01*
X135373942Y-102824139D01*
X135421101Y-102798932D01*
X135639608Y-102619608D01*
X135818932Y-102401101D01*
X135952182Y-102151808D01*
X136034236Y-101881309D01*
X136061943Y-101600000D01*
X136034236Y-101318691D01*
X135952182Y-101048192D01*
X135897185Y-100945300D01*
X147572078Y-100945300D01*
X147609400Y-100948976D01*
X147646722Y-100945300D01*
X147646733Y-100945300D01*
X147758386Y-100934303D01*
X147901647Y-100890846D01*
X148033676Y-100820274D01*
X148149401Y-100725301D01*
X148173204Y-100696298D01*
X148817630Y-100051872D01*
X148840392Y-100079608D01*
X149058899Y-100258932D01*
X149191858Y-100330000D01*
X149058899Y-100401068D01*
X148840392Y-100580392D01*
X148661068Y-100798899D01*
X148527818Y-101048192D01*
X148445764Y-101318691D01*
X148418057Y-101600000D01*
X148445764Y-101881309D01*
X148527818Y-102151808D01*
X148661068Y-102401101D01*
X148840392Y-102619608D01*
X149058899Y-102798932D01*
X149191858Y-102870000D01*
X149058899Y-102941068D01*
X148840392Y-103120392D01*
X148661068Y-103338899D01*
X148527818Y-103588192D01*
X148445764Y-103858691D01*
X148418057Y-104140000D01*
X148445764Y-104421309D01*
X148527818Y-104691808D01*
X148661068Y-104941101D01*
X148840392Y-105159608D01*
X149058899Y-105338932D01*
X149191858Y-105410000D01*
X149058899Y-105481068D01*
X148840392Y-105660392D01*
X148661068Y-105878899D01*
X148527818Y-106128192D01*
X148445764Y-106398691D01*
X148418057Y-106680000D01*
X148445764Y-106961309D01*
X148527818Y-107231808D01*
X148661068Y-107481101D01*
X148840392Y-107699608D01*
X149058899Y-107878932D01*
X149191858Y-107950000D01*
X149058899Y-108021068D01*
X148840392Y-108200392D01*
X148661068Y-108418899D01*
X148527818Y-108668192D01*
X148445764Y-108938691D01*
X148418057Y-109220000D01*
X148445764Y-109501309D01*
X148527818Y-109771808D01*
X148661068Y-110021101D01*
X148840392Y-110239608D01*
X149058899Y-110418932D01*
X149191858Y-110490000D01*
X149058899Y-110561068D01*
X148840392Y-110740392D01*
X148661068Y-110958899D01*
X148527818Y-111208192D01*
X148445764Y-111478691D01*
X148418057Y-111760000D01*
X148445764Y-112041309D01*
X148527818Y-112311808D01*
X148661068Y-112561101D01*
X148840392Y-112779608D01*
X149058899Y-112958932D01*
X149191858Y-113030000D01*
X149058899Y-113101068D01*
X148840392Y-113280392D01*
X148661068Y-113498899D01*
X148527818Y-113748192D01*
X148445764Y-114018691D01*
X148418057Y-114300000D01*
X148445764Y-114581309D01*
X148527818Y-114851808D01*
X148661068Y-115101101D01*
X148840392Y-115319608D01*
X149058899Y-115498932D01*
X149191858Y-115570000D01*
X149058899Y-115641068D01*
X148840392Y-115820392D01*
X148661068Y-116038899D01*
X148527818Y-116288192D01*
X148445764Y-116558691D01*
X148418057Y-116840000D01*
X148445764Y-117121309D01*
X148527818Y-117391808D01*
X148661068Y-117641101D01*
X148736312Y-117732786D01*
X148223698Y-118245401D01*
X148194700Y-118269199D01*
X148170902Y-118298197D01*
X148170901Y-118298198D01*
X148099726Y-118384924D01*
X148029154Y-118516954D01*
X148010962Y-118576928D01*
X147985698Y-118660214D01*
X147977437Y-118744086D01*
X147971024Y-118809200D01*
X147974701Y-118846532D01*
X147974700Y-119849077D01*
X147971024Y-119886400D01*
X147974700Y-119923722D01*
X147974700Y-119923732D01*
X147985697Y-120035385D01*
X148017127Y-120138996D01*
X148029154Y-120178646D01*
X148099726Y-120310676D01*
X148138362Y-120357753D01*
X148194699Y-120426401D01*
X148223702Y-120450203D01*
X148765340Y-120991843D01*
X148661068Y-121118899D01*
X148527818Y-121368192D01*
X148445764Y-121638691D01*
X148418057Y-121920000D01*
X148445764Y-122201309D01*
X148527818Y-122471808D01*
X148661068Y-122721101D01*
X148840392Y-122939608D01*
X149058899Y-123118932D01*
X149191858Y-123190000D01*
X149058899Y-123261068D01*
X148840392Y-123440392D01*
X148661068Y-123658899D01*
X148527818Y-123908192D01*
X148445764Y-124178691D01*
X148418057Y-124460000D01*
X148445764Y-124741309D01*
X148527818Y-125011808D01*
X148661068Y-125261101D01*
X148840392Y-125479608D01*
X149058899Y-125658932D01*
X149191858Y-125730000D01*
X149058899Y-125801068D01*
X148840392Y-125980392D01*
X148661068Y-126198899D01*
X148527818Y-126448192D01*
X148445764Y-126718691D01*
X148418057Y-127000000D01*
X148445764Y-127281309D01*
X148527818Y-127551808D01*
X148661068Y-127801101D01*
X148840392Y-128019608D01*
X149058899Y-128198932D01*
X149308192Y-128332182D01*
X149578691Y-128414236D01*
X149789508Y-128435000D01*
X149930492Y-128435000D01*
X150141309Y-128414236D01*
X150411808Y-128332182D01*
X150661101Y-128198932D01*
X150879608Y-128019608D01*
X151058932Y-127801101D01*
X151192182Y-127551808D01*
X151274236Y-127281309D01*
X151301943Y-127000000D01*
X151274236Y-126718691D01*
X151192182Y-126448192D01*
X151058932Y-126198899D01*
X150879608Y-125980392D01*
X150661101Y-125801068D01*
X150528142Y-125730000D01*
X150661101Y-125658932D01*
X150879608Y-125479608D01*
X151058932Y-125261101D01*
X151192182Y-125011808D01*
X151274236Y-124741309D01*
X151301943Y-124460000D01*
X151274236Y-124178691D01*
X151192182Y-123908192D01*
X151058932Y-123658899D01*
X150879608Y-123440392D01*
X150661101Y-123261068D01*
X150528142Y-123190000D01*
X150661101Y-123118932D01*
X150879608Y-122939608D01*
X151058932Y-122721101D01*
X151192182Y-122471808D01*
X151274236Y-122201309D01*
X151301943Y-121920000D01*
X151274236Y-121638691D01*
X151204864Y-121410000D01*
X153990199Y-121410000D01*
X155231928Y-122651730D01*
X155231928Y-123790000D01*
X155248992Y-123963254D01*
X155299528Y-124129850D01*
X155381595Y-124283386D01*
X155492038Y-124417962D01*
X155626614Y-124528405D01*
X155780150Y-124610472D01*
X155946746Y-124661008D01*
X156120000Y-124678072D01*
X157570000Y-124678072D01*
X157743254Y-124661008D01*
X157909850Y-124610472D01*
X158063386Y-124528405D01*
X158197962Y-124417962D01*
X158308405Y-124283386D01*
X158390472Y-124129850D01*
X158441008Y-123963254D01*
X158458072Y-123790000D01*
X158458072Y-122590000D01*
X158441008Y-122416746D01*
X158390472Y-122250150D01*
X158308405Y-122096614D01*
X158197962Y-121962038D01*
X158063386Y-121851595D01*
X157958039Y-121795286D01*
X157979429Y-121779049D01*
X158172496Y-121561193D01*
X158319352Y-121309858D01*
X158411476Y-121046890D01*
X158290155Y-120817000D01*
X156972000Y-120817000D01*
X156972000Y-120837000D01*
X156718000Y-120837000D01*
X156718000Y-120817000D01*
X156698000Y-120817000D01*
X156698000Y-120563000D01*
X156718000Y-120563000D01*
X156718000Y-120543000D01*
X156972000Y-120543000D01*
X156972000Y-120563000D01*
X158290155Y-120563000D01*
X158411476Y-120333110D01*
X158319352Y-120070142D01*
X158172496Y-119818807D01*
X157979429Y-119600951D01*
X157773278Y-119444462D01*
X157799014Y-119430706D01*
X158025134Y-119245134D01*
X158210706Y-119019014D01*
X158348599Y-118761034D01*
X158433513Y-118481111D01*
X158462185Y-118190000D01*
X158433513Y-117898889D01*
X158348599Y-117618966D01*
X158210706Y-117360986D01*
X158025134Y-117134866D01*
X157799014Y-116949294D01*
X157781626Y-116940000D01*
X157799014Y-116930706D01*
X158025134Y-116745134D01*
X158210706Y-116519014D01*
X158348599Y-116261034D01*
X158433513Y-115981111D01*
X158462185Y-115690000D01*
X158433513Y-115398889D01*
X158348599Y-115118966D01*
X158210706Y-114860986D01*
X158025134Y-114634866D01*
X157799014Y-114449294D01*
X157541034Y-114311401D01*
X157261111Y-114226487D01*
X157042950Y-114205000D01*
X156647050Y-114205000D01*
X156428889Y-114226487D01*
X156148966Y-114311401D01*
X155890986Y-114449294D01*
X155664866Y-114634866D01*
X155479294Y-114860986D01*
X155341401Y-115118966D01*
X155256487Y-115398889D01*
X155227815Y-115690000D01*
X155256487Y-115981111D01*
X155341401Y-116261034D01*
X155479294Y-116519014D01*
X155664866Y-116745134D01*
X155890986Y-116930706D01*
X155908374Y-116940000D01*
X155890986Y-116949294D01*
X155664866Y-117134866D01*
X155479294Y-117360986D01*
X155442405Y-117430000D01*
X152212622Y-117430000D01*
X152175299Y-117426324D01*
X152137976Y-117430000D01*
X152137967Y-117430000D01*
X152026314Y-117440997D01*
X151883053Y-117484454D01*
X151751023Y-117555026D01*
X151684679Y-117609474D01*
X151635299Y-117649999D01*
X151611501Y-117678997D01*
X150902370Y-118388128D01*
X150879608Y-118360392D01*
X150661101Y-118181068D01*
X150598840Y-118147789D01*
X150609003Y-118114286D01*
X150613942Y-118064139D01*
X150661101Y-118038932D01*
X150879608Y-117859608D01*
X151058932Y-117641101D01*
X151192182Y-117391808D01*
X151274236Y-117121309D01*
X151301943Y-116840000D01*
X151274236Y-116558691D01*
X151192182Y-116288192D01*
X151058932Y-116038899D01*
X150879608Y-115820392D01*
X150661101Y-115641068D01*
X150528142Y-115570000D01*
X150661101Y-115498932D01*
X150879608Y-115319608D01*
X151058932Y-115101101D01*
X151192182Y-114851808D01*
X151274236Y-114581309D01*
X151301943Y-114300000D01*
X151274236Y-114018691D01*
X151192182Y-113748192D01*
X151058932Y-113498899D01*
X150879608Y-113280392D01*
X150661101Y-113101068D01*
X150528142Y-113030000D01*
X150661101Y-112958932D01*
X150879608Y-112779608D01*
X151058932Y-112561101D01*
X151192182Y-112311808D01*
X151274236Y-112041309D01*
X151301943Y-111760000D01*
X151274236Y-111478691D01*
X151192182Y-111208192D01*
X151058932Y-110958899D01*
X150879608Y-110740392D01*
X150661101Y-110561068D01*
X150528142Y-110490000D01*
X150661101Y-110418932D01*
X150879608Y-110239608D01*
X151058932Y-110021101D01*
X151192182Y-109771808D01*
X151274236Y-109501309D01*
X151301943Y-109220000D01*
X151274236Y-108938691D01*
X151192182Y-108668192D01*
X151058932Y-108418899D01*
X150879608Y-108200392D01*
X150661101Y-108021068D01*
X150528142Y-107950000D01*
X150661101Y-107878932D01*
X150879608Y-107699608D01*
X151058932Y-107481101D01*
X151084139Y-107433942D01*
X151134286Y-107429003D01*
X151277547Y-107385546D01*
X151409576Y-107314974D01*
X151525301Y-107220001D01*
X151549103Y-107190998D01*
X151935102Y-106805000D01*
X155247687Y-106805000D01*
X155248992Y-106818254D01*
X155299528Y-106984850D01*
X155381595Y-107138386D01*
X155492038Y-107272962D01*
X155626614Y-107383405D01*
X155780150Y-107465472D01*
X155946746Y-107516008D01*
X156120000Y-107533072D01*
X157570000Y-107533072D01*
X157743254Y-107516008D01*
X157909850Y-107465472D01*
X158063386Y-107383405D01*
X158197962Y-107272962D01*
X158308405Y-107138386D01*
X158390472Y-106984850D01*
X158441008Y-106818254D01*
X158458072Y-106645000D01*
X158458072Y-105445000D01*
X158441008Y-105271746D01*
X158390472Y-105105150D01*
X158308405Y-104951614D01*
X158197962Y-104817038D01*
X158063386Y-104706595D01*
X157958039Y-104650286D01*
X157979429Y-104634049D01*
X158172496Y-104416193D01*
X158319352Y-104164858D01*
X158411476Y-103901890D01*
X158290155Y-103672000D01*
X156972000Y-103672000D01*
X156972000Y-103692000D01*
X156718000Y-103692000D01*
X156718000Y-103672000D01*
X155399845Y-103672000D01*
X155278524Y-103901890D01*
X155370648Y-104164858D01*
X155517504Y-104416193D01*
X155710571Y-104634049D01*
X155731961Y-104650286D01*
X155626614Y-104706595D01*
X155492038Y-104817038D01*
X155381595Y-104951614D01*
X155299528Y-105105150D01*
X155248992Y-105271746D01*
X155247687Y-105285000D01*
X151657633Y-105285000D01*
X151620300Y-105281323D01*
X151582967Y-105285000D01*
X151471314Y-105295997D01*
X151328053Y-105339454D01*
X151196024Y-105410026D01*
X151080299Y-105504999D01*
X151056500Y-105533998D01*
X150902370Y-105688128D01*
X150879608Y-105660392D01*
X150661101Y-105481068D01*
X150528142Y-105410000D01*
X150661101Y-105338932D01*
X150879608Y-105159608D01*
X151058932Y-104941101D01*
X151192182Y-104691808D01*
X151274236Y-104421309D01*
X151301943Y-104140000D01*
X151274236Y-103858691D01*
X151192182Y-103588192D01*
X151058932Y-103338899D01*
X150879608Y-103120392D01*
X150661101Y-102941068D01*
X150528142Y-102870000D01*
X150661101Y-102798932D01*
X150879608Y-102619608D01*
X151058932Y-102401101D01*
X151192182Y-102151808D01*
X151274236Y-101881309D01*
X151301943Y-101600000D01*
X151274236Y-101318691D01*
X151192182Y-101048192D01*
X151058932Y-100798899D01*
X150879608Y-100580392D01*
X150661101Y-100401068D01*
X150528142Y-100330000D01*
X150661101Y-100258932D01*
X150879608Y-100079608D01*
X151058932Y-99861101D01*
X151192182Y-99611808D01*
X151274236Y-99341309D01*
X151301943Y-99060000D01*
X151274236Y-98778691D01*
X151246938Y-98688700D01*
X154613599Y-98688700D01*
X154980900Y-99056002D01*
X155004699Y-99085001D01*
X155120424Y-99179974D01*
X155252453Y-99250546D01*
X155395714Y-99294003D01*
X155438795Y-99298246D01*
X155479294Y-99374014D01*
X155664866Y-99600134D01*
X155890986Y-99785706D01*
X155908374Y-99795000D01*
X155890986Y-99804294D01*
X155664866Y-99989866D01*
X155479294Y-100215986D01*
X155341401Y-100473966D01*
X155256487Y-100753889D01*
X155227815Y-101045000D01*
X155256487Y-101336111D01*
X155341401Y-101616034D01*
X155479294Y-101874014D01*
X155664866Y-102100134D01*
X155890986Y-102285706D01*
X155916722Y-102299462D01*
X155710571Y-102455951D01*
X155517504Y-102673807D01*
X155370648Y-102925142D01*
X155278524Y-103188110D01*
X155399845Y-103418000D01*
X156718000Y-103418000D01*
X156718000Y-103398000D01*
X156972000Y-103398000D01*
X156972000Y-103418000D01*
X158290155Y-103418000D01*
X158411476Y-103188110D01*
X158319352Y-102925142D01*
X158172496Y-102673807D01*
X157979429Y-102455951D01*
X157773278Y-102299462D01*
X157799014Y-102285706D01*
X158025134Y-102100134D01*
X158210706Y-101874014D01*
X158348599Y-101616034D01*
X158433513Y-101336111D01*
X158462185Y-101045000D01*
X158433513Y-100753889D01*
X158348599Y-100473966D01*
X158210706Y-100215986D01*
X158025134Y-99989866D01*
X157799014Y-99804294D01*
X157781626Y-99795000D01*
X157799014Y-99785706D01*
X158025134Y-99600134D01*
X158210706Y-99374014D01*
X158348599Y-99116034D01*
X158433513Y-98836111D01*
X158462185Y-98545000D01*
X158433513Y-98253889D01*
X158348599Y-97973966D01*
X158210706Y-97715986D01*
X158025134Y-97489866D01*
X157799014Y-97304294D01*
X157541034Y-97166401D01*
X157261111Y-97081487D01*
X157042950Y-97060000D01*
X156647050Y-97060000D01*
X156428889Y-97081487D01*
X156148966Y-97166401D01*
X155890986Y-97304294D01*
X155664866Y-97489866D01*
X155619566Y-97545064D01*
X155492203Y-97417702D01*
X155468401Y-97388699D01*
X155352676Y-97293726D01*
X155220647Y-97223154D01*
X155077386Y-97179697D01*
X154965733Y-97168700D01*
X154965722Y-97168700D01*
X154928400Y-97165024D01*
X154891078Y-97168700D01*
X151140392Y-97168700D01*
X151192182Y-97071808D01*
X151274236Y-96801309D01*
X151301943Y-96520000D01*
X151274236Y-96238691D01*
X151192182Y-95968192D01*
X151058932Y-95718899D01*
X150879608Y-95500392D01*
X150661101Y-95321068D01*
X150523318Y-95247421D01*
X150715131Y-95132385D01*
X150923519Y-94943414D01*
X151091037Y-94717420D01*
X151211246Y-94463087D01*
X151251904Y-94329039D01*
X151129915Y-94107000D01*
X149987000Y-94107000D01*
X149987000Y-94127000D01*
X149733000Y-94127000D01*
X149733000Y-94107000D01*
X148590085Y-94107000D01*
X148468096Y-94329039D01*
X148508754Y-94463087D01*
X148628963Y-94717420D01*
X148796481Y-94943414D01*
X149004869Y-95132385D01*
X149196682Y-95247421D01*
X149058899Y-95321068D01*
X148840392Y-95500392D01*
X148661068Y-95718899D01*
X148527818Y-95968192D01*
X148445764Y-96238691D01*
X148418057Y-96520000D01*
X148445764Y-96801309D01*
X148527818Y-97071808D01*
X148579608Y-97168700D01*
X135900392Y-97168700D01*
X135952182Y-97071808D01*
X136034236Y-96801309D01*
X136061943Y-96520000D01*
X136034236Y-96238691D01*
X135952182Y-95968192D01*
X135818932Y-95718899D01*
X135639608Y-95500392D01*
X135421101Y-95321068D01*
X135288142Y-95250000D01*
X135421101Y-95178932D01*
X135639608Y-94999608D01*
X135818932Y-94781101D01*
X135952182Y-94531808D01*
X136034236Y-94261309D01*
X136061943Y-93980000D01*
X136034236Y-93698691D01*
X135952182Y-93428192D01*
X135818932Y-93178899D01*
X135639608Y-92960392D01*
X135526518Y-92867581D01*
X135544482Y-92865812D01*
X135664180Y-92829502D01*
X135774494Y-92770537D01*
X135871185Y-92691185D01*
X135950537Y-92594494D01*
X136009502Y-92484180D01*
X136045812Y-92364482D01*
X136058072Y-92240000D01*
X136058072Y-91440000D01*
X148418057Y-91440000D01*
X148445764Y-91721309D01*
X148527818Y-91991808D01*
X148661068Y-92241101D01*
X148840392Y-92459608D01*
X149058899Y-92638932D01*
X149196682Y-92712579D01*
X149004869Y-92827615D01*
X148796481Y-93016586D01*
X148628963Y-93242580D01*
X148508754Y-93496913D01*
X148468096Y-93630961D01*
X148590085Y-93853000D01*
X149733000Y-93853000D01*
X149733000Y-93833000D01*
X149987000Y-93833000D01*
X149987000Y-93853000D01*
X151129915Y-93853000D01*
X151251904Y-93630961D01*
X151211246Y-93496913D01*
X151091037Y-93242580D01*
X150923519Y-93016586D01*
X150715131Y-92827615D01*
X150523318Y-92712579D01*
X150661101Y-92638932D01*
X150879608Y-92459608D01*
X151058932Y-92241101D01*
X151192182Y-91991808D01*
X151274236Y-91721309D01*
X151301943Y-91440000D01*
X151274236Y-91158691D01*
X151192182Y-90888192D01*
X151058932Y-90638899D01*
X150879608Y-90420392D01*
X150661101Y-90241068D01*
X150411808Y-90107818D01*
X150141309Y-90025764D01*
X149930492Y-90005000D01*
X149789508Y-90005000D01*
X149578691Y-90025764D01*
X149308192Y-90107818D01*
X149058899Y-90241068D01*
X148840392Y-90420392D01*
X148661068Y-90638899D01*
X148527818Y-90888192D01*
X148445764Y-91158691D01*
X148418057Y-91440000D01*
X136058072Y-91440000D01*
X136058072Y-90640000D01*
X136045812Y-90515518D01*
X136009502Y-90395820D01*
X135950537Y-90285506D01*
X135871185Y-90188815D01*
X135774494Y-90109463D01*
X135664180Y-90050498D01*
X135544482Y-90014188D01*
X135420000Y-90001928D01*
X133820000Y-90001928D01*
X133695518Y-90014188D01*
X133575820Y-90050498D01*
X133465506Y-90109463D01*
X133368815Y-90188815D01*
X133340368Y-90223478D01*
X133323976Y-90210026D01*
X133191947Y-90139454D01*
X133048686Y-90095997D01*
X132937033Y-90085000D01*
X132937022Y-90085000D01*
X132899700Y-90081324D01*
X132862378Y-90085000D01*
X129867313Y-90085000D01*
X129866008Y-90071746D01*
X129824557Y-89935098D01*
X155730000Y-89935098D01*
X155730000Y-90404902D01*
X155821654Y-90865679D01*
X156001440Y-91299721D01*
X156262450Y-91690349D01*
X156594651Y-92022550D01*
X156985279Y-92283560D01*
X157419321Y-92463346D01*
X157880098Y-92555000D01*
X158349902Y-92555000D01*
X158810679Y-92463346D01*
X159244721Y-92283560D01*
X159635349Y-92022550D01*
X159967550Y-91690349D01*
X160228560Y-91299721D01*
X160408346Y-90865679D01*
X160500000Y-90404902D01*
X160500000Y-89935098D01*
X160408346Y-89474321D01*
X160228560Y-89040279D01*
X159967550Y-88649651D01*
X159635349Y-88317450D01*
X159244721Y-88056440D01*
X158810679Y-87876654D01*
X158349902Y-87785000D01*
X157880098Y-87785000D01*
X157419321Y-87876654D01*
X156985279Y-88056440D01*
X156594651Y-88317450D01*
X156262450Y-88649651D01*
X156001440Y-89040279D01*
X155821654Y-89474321D01*
X155730000Y-89935098D01*
X129824557Y-89935098D01*
X129815472Y-89905150D01*
X129733405Y-89751614D01*
X129622962Y-89617038D01*
X129488386Y-89506595D01*
X129334850Y-89424528D01*
X129168254Y-89373992D01*
X128995000Y-89356928D01*
X127545000Y-89356928D01*
X127371746Y-89373992D01*
X127205150Y-89424528D01*
X127051614Y-89506595D01*
X126917038Y-89617038D01*
X126806595Y-89751614D01*
X126724528Y-89905150D01*
X126673992Y-90071746D01*
X126656928Y-90245000D01*
X126656928Y-91445000D01*
X126673992Y-91618254D01*
X126724528Y-91784850D01*
X126806595Y-91938386D01*
X126917038Y-92072962D01*
X127051614Y-92183405D01*
X127156961Y-92239714D01*
X127135571Y-92255951D01*
X126942504Y-92473807D01*
X126795648Y-92725142D01*
X126703524Y-92988110D01*
X126824845Y-93218000D01*
X128143000Y-93218000D01*
X128143000Y-93198000D01*
X128397000Y-93198000D01*
X128397000Y-93218000D01*
X129715155Y-93218000D01*
X129836476Y-92988110D01*
X129744352Y-92725142D01*
X129597496Y-92473807D01*
X129404429Y-92255951D01*
X129383039Y-92239714D01*
X129488386Y-92183405D01*
X129622962Y-92072962D01*
X129733405Y-91938386D01*
X129815472Y-91784850D01*
X129866008Y-91618254D01*
X129867313Y-91605000D01*
X132584899Y-91605000D01*
X132930900Y-91951002D01*
X132954699Y-91980001D01*
X132983697Y-92003799D01*
X133070423Y-92074974D01*
X133181928Y-92134575D01*
X133181928Y-92240000D01*
X133194188Y-92364482D01*
X133230498Y-92484180D01*
X133289463Y-92594494D01*
X133368815Y-92691185D01*
X133465506Y-92770537D01*
X133575820Y-92829502D01*
X133695518Y-92865812D01*
X133713482Y-92867581D01*
X133600392Y-92960392D01*
X133421068Y-93178899D01*
X133287818Y-93428192D01*
X133205764Y-93698691D01*
X133178057Y-93980000D01*
X133205764Y-94261309D01*
X133287818Y-94531808D01*
X133421068Y-94781101D01*
X133600392Y-94999608D01*
X133818899Y-95178932D01*
X133951858Y-95250000D01*
X133818899Y-95321068D01*
X133600392Y-95500392D01*
X133421068Y-95718899D01*
X133287818Y-95968192D01*
X133205764Y-96238691D01*
X133178057Y-96520000D01*
X133205764Y-96801309D01*
X133287818Y-97071808D01*
X133339608Y-97168700D01*
X130023922Y-97168700D01*
X129986599Y-97165024D01*
X129949276Y-97168700D01*
X129949267Y-97168700D01*
X129837614Y-97179697D01*
X129694353Y-97223154D01*
X129562324Y-97293726D01*
X129497178Y-97347190D01*
X129450134Y-97289866D01*
X129224014Y-97104294D01*
X129206626Y-97095000D01*
X129224014Y-97085706D01*
X129450134Y-96900134D01*
X129635706Y-96674014D01*
X129773599Y-96416034D01*
X129858513Y-96136111D01*
X129887185Y-95845000D01*
X129858513Y-95553889D01*
X129773599Y-95273966D01*
X129635706Y-95015986D01*
X129450134Y-94789866D01*
X129224014Y-94604294D01*
X129198278Y-94590538D01*
X129404429Y-94434049D01*
X129597496Y-94216193D01*
X129744352Y-93964858D01*
X129836476Y-93701890D01*
X129715155Y-93472000D01*
X128397000Y-93472000D01*
X128397000Y-93492000D01*
X128143000Y-93492000D01*
X128143000Y-93472000D01*
X126824845Y-93472000D01*
X126703524Y-93701890D01*
X126795648Y-93964858D01*
X126942504Y-94216193D01*
X127135571Y-94434049D01*
X127341722Y-94590538D01*
X127315986Y-94604294D01*
X127089866Y-94789866D01*
X126904294Y-95015986D01*
X126766401Y-95273966D01*
X126681487Y-95553889D01*
X126652815Y-95845000D01*
X114779801Y-95845000D01*
X117546730Y-93078072D01*
X118710000Y-93078072D01*
X118883254Y-93061008D01*
X119049850Y-93010472D01*
X119203386Y-92928405D01*
X119337962Y-92817962D01*
X119448405Y-92683386D01*
X119502914Y-92581407D01*
X119503198Y-92581795D01*
X119717954Y-92778664D01*
X119966991Y-92929854D01*
X120240739Y-93029554D01*
X120253110Y-93031476D01*
X120483000Y-92910155D01*
X120483000Y-91567000D01*
X120737000Y-91567000D01*
X120737000Y-92910155D01*
X120966890Y-93031476D01*
X120979261Y-93029554D01*
X121253009Y-92929854D01*
X121502046Y-92778664D01*
X121716802Y-92581795D01*
X121889025Y-92346812D01*
X122012096Y-92082745D01*
X122081285Y-91799742D01*
X121937232Y-91567000D01*
X120737000Y-91567000D01*
X120483000Y-91567000D01*
X120463000Y-91567000D01*
X120463000Y-91313000D01*
X120483000Y-91313000D01*
X120483000Y-89969845D01*
X120737000Y-89969845D01*
X120737000Y-91313000D01*
X121937232Y-91313000D01*
X122081285Y-91080258D01*
X122012096Y-90797255D01*
X121889025Y-90533188D01*
X121716802Y-90298205D01*
X121502046Y-90101336D01*
X121253009Y-89950146D01*
X120979261Y-89850446D01*
X120966890Y-89848524D01*
X120737000Y-89969845D01*
X120483000Y-89969845D01*
X120253110Y-89848524D01*
X120240739Y-89850446D01*
X119966991Y-89950146D01*
X119717954Y-90101336D01*
X119503198Y-90298205D01*
X119502914Y-90298593D01*
X119448405Y-90196614D01*
X119337962Y-90062038D01*
X119203386Y-89951595D01*
X119049850Y-89869528D01*
X118883254Y-89818992D01*
X118710000Y-89801928D01*
X117510000Y-89801928D01*
X117336746Y-89818992D01*
X117170150Y-89869528D01*
X117016614Y-89951595D01*
X116882038Y-90062038D01*
X116771595Y-90196614D01*
X116689528Y-90350150D01*
X116638992Y-90516746D01*
X116621928Y-90690000D01*
X116621928Y-91853270D01*
X113153998Y-95321201D01*
X113125000Y-95344999D01*
X113101202Y-95373997D01*
X113101201Y-95373998D01*
X113030026Y-95460724D01*
X112959454Y-95592754D01*
X112915998Y-95736015D01*
X112901324Y-95885000D01*
X112905001Y-95922332D01*
X112905000Y-98537091D01*
X112782114Y-98619201D01*
X112589201Y-98812114D01*
X112437629Y-99038957D01*
X112395000Y-99141873D01*
X112352371Y-99038957D01*
X112200799Y-98812114D01*
X112007886Y-98619201D01*
X111781043Y-98467629D01*
X111528989Y-98363225D01*
X111261411Y-98310000D01*
X110988589Y-98310000D01*
X110721011Y-98363225D01*
X110468957Y-98467629D01*
X110242114Y-98619201D01*
X110049201Y-98812114D01*
X109897629Y-99038957D01*
X109793225Y-99291011D01*
X109740000Y-99558589D01*
X108610000Y-99558589D01*
X108610000Y-89935098D01*
X108740000Y-89935098D01*
X108740000Y-90404902D01*
X108831654Y-90865679D01*
X109011440Y-91299721D01*
X109272450Y-91690349D01*
X109604651Y-92022550D01*
X109995279Y-92283560D01*
X110429321Y-92463346D01*
X110890098Y-92555000D01*
X111359902Y-92555000D01*
X111820679Y-92463346D01*
X112254721Y-92283560D01*
X112645349Y-92022550D01*
X112977550Y-91690349D01*
X113238560Y-91299721D01*
X113418346Y-90865679D01*
X113510000Y-90404902D01*
X113510000Y-89935098D01*
X113418346Y-89474321D01*
X113238560Y-89040279D01*
X112977550Y-88649651D01*
X112645349Y-88317450D01*
X112254721Y-88056440D01*
X111820679Y-87876654D01*
X111359902Y-87785000D01*
X110890098Y-87785000D01*
X110429321Y-87876654D01*
X109995279Y-88056440D01*
X109604651Y-88317450D01*
X109272450Y-88649651D01*
X109011440Y-89040279D01*
X108831654Y-89474321D01*
X108740000Y-89935098D01*
X108610000Y-89935098D01*
X108610000Y-88932277D01*
X108636815Y-88658796D01*
X108706867Y-88426774D01*
X108820650Y-88212778D01*
X108973832Y-88024959D01*
X109160577Y-87870470D01*
X109373769Y-87755199D01*
X109605300Y-87683528D01*
X109876725Y-87655000D01*
X159352723Y-87655000D01*
X159626204Y-87681815D01*
X159626204Y-87681815D01*
G37*
X159626204Y-87681815D02*
X159858226Y-87751867D01*
X160072222Y-87865650D01*
X160260041Y-88018832D01*
X160414530Y-88205577D01*
X160529801Y-88418769D01*
X160601472Y-88650300D01*
X160630000Y-88921725D01*
X160630001Y-130777712D01*
X160603185Y-131051205D01*
X160533133Y-131283226D01*
X160419350Y-131497222D01*
X160266169Y-131685039D01*
X160079424Y-131839529D01*
X159866231Y-131954802D01*
X159634701Y-132026472D01*
X159363276Y-132055000D01*
X109887277Y-132055000D01*
X109613795Y-132028185D01*
X109381774Y-131958133D01*
X109167778Y-131844350D01*
X108979961Y-131691169D01*
X108825471Y-131504424D01*
X108710198Y-131291231D01*
X108638528Y-131059701D01*
X108610000Y-130788276D01*
X108610000Y-129305098D01*
X108740000Y-129305098D01*
X108740000Y-129774902D01*
X108831654Y-130235679D01*
X109011440Y-130669721D01*
X109272450Y-131060349D01*
X109604651Y-131392550D01*
X109995279Y-131653560D01*
X110429321Y-131833346D01*
X110890098Y-131925000D01*
X111359902Y-131925000D01*
X111820679Y-131833346D01*
X112254721Y-131653560D01*
X112645349Y-131392550D01*
X112977550Y-131060349D01*
X113238560Y-130669721D01*
X113418346Y-130235679D01*
X113510000Y-129774902D01*
X113510000Y-129305098D01*
X113418346Y-128844321D01*
X113238560Y-128410279D01*
X112977550Y-128019651D01*
X112645349Y-127687450D01*
X112394744Y-127520000D01*
X116026928Y-127520000D01*
X116026928Y-129020000D01*
X116043992Y-129193254D01*
X116094528Y-129359850D01*
X116176595Y-129513386D01*
X116287038Y-129647962D01*
X116421614Y-129758405D01*
X116575150Y-129840472D01*
X116741746Y-129891008D01*
X116915000Y-129908072D01*
X118115000Y-129908072D01*
X118288254Y-129891008D01*
X118454850Y-129840472D01*
X118608386Y-129758405D01*
X118742962Y-129647962D01*
X118853405Y-129513386D01*
X118907777Y-129411663D01*
X118959866Y-129475134D01*
X119185987Y-129660706D01*
X119443967Y-129798599D01*
X119723890Y-129883513D01*
X120015000Y-129912185D01*
X120306111Y-129883513D01*
X120586034Y-129798599D01*
X120844014Y-129660706D01*
X121070134Y-129475134D01*
X121149106Y-129378907D01*
X121876211Y-130106013D01*
X121900009Y-130135011D01*
X121929007Y-130158809D01*
X122015733Y-130229984D01*
X122074811Y-130261562D01*
X122147763Y-130300556D01*
X122291024Y-130344013D01*
X122402677Y-130355010D01*
X122402686Y-130355010D01*
X122440009Y-130358686D01*
X122477332Y-130355010D01*
X128287668Y-130355010D01*
X128324990Y-130358686D01*
X128362312Y-130355010D01*
X128362323Y-130355010D01*
X128473976Y-130344013D01*
X128617237Y-130300556D01*
X128749266Y-130229984D01*
X128864991Y-130135011D01*
X128888794Y-130106007D01*
X129134005Y-129860797D01*
X129208890Y-129883513D01*
X129500000Y-129912185D01*
X129791111Y-129883513D01*
X130071034Y-129798599D01*
X130329014Y-129660706D01*
X130555134Y-129475134D01*
X130694679Y-129305098D01*
X155730000Y-129305098D01*
X155730000Y-129774902D01*
X155821654Y-130235679D01*
X156001440Y-130669721D01*
X156262450Y-131060349D01*
X156594651Y-131392550D01*
X156985279Y-131653560D01*
X157419321Y-131833346D01*
X157880098Y-131925000D01*
X158349902Y-131925000D01*
X158810679Y-131833346D01*
X159244721Y-131653560D01*
X159635349Y-131392550D01*
X159967550Y-131060349D01*
X160228560Y-130669721D01*
X160408346Y-130235679D01*
X160500000Y-129774902D01*
X160500000Y-129305098D01*
X160408346Y-128844321D01*
X160228560Y-128410279D01*
X159967550Y-128019651D01*
X159635349Y-127687450D01*
X159244721Y-127426440D01*
X158810679Y-127246654D01*
X158349902Y-127155000D01*
X157880098Y-127155000D01*
X157419321Y-127246654D01*
X156985279Y-127426440D01*
X156594651Y-127687450D01*
X156262450Y-128019651D01*
X156001440Y-128410279D01*
X155821654Y-128844321D01*
X155730000Y-129305098D01*
X130694679Y-129305098D01*
X130740706Y-129249014D01*
X130878599Y-128991033D01*
X130963513Y-128711110D01*
X130985000Y-128492949D01*
X130985000Y-128047050D01*
X130963513Y-127828889D01*
X130878599Y-127548966D01*
X130740706Y-127290986D01*
X130555134Y-127064866D01*
X130329013Y-126879294D01*
X130071033Y-126741401D01*
X129791110Y-126656487D01*
X129500000Y-126627815D01*
X129208889Y-126656487D01*
X128928966Y-126741401D01*
X128670986Y-126879294D01*
X128444866Y-127064866D01*
X128392777Y-127128337D01*
X128338405Y-127026614D01*
X128227962Y-126892038D01*
X128093386Y-126781595D01*
X127939850Y-126699528D01*
X127773254Y-126648992D01*
X127600000Y-126631928D01*
X126400000Y-126631928D01*
X126226746Y-126648992D01*
X126060150Y-126699528D01*
X125906614Y-126781595D01*
X125772038Y-126892038D01*
X125661595Y-127026614D01*
X125579528Y-127180150D01*
X125528992Y-127346746D01*
X125511928Y-127520000D01*
X125511928Y-128835010D01*
X122754812Y-128835010D01*
X121678804Y-127759003D01*
X121655001Y-127729999D01*
X121539276Y-127635026D01*
X121407247Y-127564454D01*
X121397390Y-127561464D01*
X121393599Y-127548966D01*
X121255706Y-127290986D01*
X121070134Y-127064866D01*
X120844013Y-126879294D01*
X120586033Y-126741401D01*
X120306110Y-126656487D01*
X120015000Y-126627815D01*
X119723889Y-126656487D01*
X119443966Y-126741401D01*
X119185986Y-126879294D01*
X118959866Y-127064866D01*
X118907777Y-127128337D01*
X118853405Y-127026614D01*
X118742962Y-126892038D01*
X118608386Y-126781595D01*
X118454850Y-126699528D01*
X118288254Y-126648992D01*
X118115000Y-126631928D01*
X116915000Y-126631928D01*
X116741746Y-126648992D01*
X116575150Y-126699528D01*
X116421614Y-126781595D01*
X116287038Y-126892038D01*
X116176595Y-127026614D01*
X116094528Y-127180150D01*
X116043992Y-127346746D01*
X116026928Y-127520000D01*
X112394744Y-127520000D01*
X112254721Y-127426440D01*
X111820679Y-127246654D01*
X111359902Y-127155000D01*
X110890098Y-127155000D01*
X110429321Y-127246654D01*
X109995279Y-127426440D01*
X109604651Y-127687450D01*
X109272450Y-128019651D01*
X109011440Y-128410279D01*
X108831654Y-128844321D01*
X108740000Y-129305098D01*
X108610000Y-129305098D01*
X108610000Y-123396398D01*
X108645506Y-123425537D01*
X108755820Y-123484502D01*
X108875518Y-123520812D01*
X109000000Y-123533072D01*
X111200000Y-123533072D01*
X111324482Y-123520812D01*
X111444180Y-123484502D01*
X111554494Y-123425537D01*
X111651185Y-123346185D01*
X111730537Y-123249494D01*
X111789502Y-123139180D01*
X111825812Y-123019482D01*
X111836102Y-122915000D01*
X112561928Y-122915000D01*
X112574188Y-123039482D01*
X112610498Y-123159180D01*
X112669463Y-123269494D01*
X112748815Y-123366185D01*
X112845506Y-123445537D01*
X112955820Y-123504502D01*
X113075518Y-123540812D01*
X113200000Y-123553072D01*
X116114250Y-123550000D01*
X116273000Y-123391250D01*
X116273000Y-120142000D01*
X116527000Y-120142000D01*
X116527000Y-123391250D01*
X116685750Y-123550000D01*
X119600000Y-123553072D01*
X119724482Y-123540812D01*
X119844180Y-123504502D01*
X119954494Y-123445537D01*
X120051185Y-123366185D01*
X120130537Y-123269494D01*
X120189502Y-123159180D01*
X120225812Y-123039482D01*
X120238072Y-122915000D01*
X120235000Y-120300750D01*
X120076250Y-120142000D01*
X116527000Y-120142000D01*
X116273000Y-120142000D01*
X112723750Y-120142000D01*
X112565000Y-120300750D01*
X112561928Y-122915000D01*
X111836102Y-122915000D01*
X111838072Y-122895000D01*
X111838072Y-121695000D01*
X111825812Y-121570518D01*
X111789502Y-121450820D01*
X111730537Y-121340506D01*
X111651185Y-121243815D01*
X111554494Y-121164463D01*
X111444180Y-121105498D01*
X111440208Y-121104293D01*
X112690126Y-119854376D01*
X112723750Y-119888000D01*
X116273000Y-119888000D01*
X116273000Y-119868000D01*
X116527000Y-119868000D01*
X116527000Y-119888000D01*
X120076250Y-119888000D01*
X120235000Y-119729250D01*
X120237561Y-117549600D01*
X121064499Y-117549600D01*
X124040905Y-120526008D01*
X124064699Y-120555001D01*
X124093692Y-120578795D01*
X124093696Y-120578799D01*
X124144750Y-120620697D01*
X124180424Y-120649974D01*
X124291928Y-120709575D01*
X124291928Y-120815000D01*
X124304188Y-120939482D01*
X124340498Y-121059180D01*
X124399463Y-121169494D01*
X124478815Y-121266185D01*
X124575506Y-121345537D01*
X124685820Y-121404502D01*
X124805518Y-121440812D01*
X124930000Y-121453072D01*
X126530000Y-121453072D01*
X126654482Y-121440812D01*
X126774180Y-121404502D01*
X126884494Y-121345537D01*
X126981185Y-121266185D01*
X126991807Y-121253242D01*
X127243996Y-121372571D01*
X127518184Y-121441300D01*
X127800512Y-121455217D01*
X128080130Y-121413787D01*
X128346292Y-121318603D01*
X128471514Y-121251671D01*
X128543097Y-121007702D01*
X127730000Y-120194605D01*
X127715858Y-120208748D01*
X127536253Y-120029143D01*
X127550395Y-120015000D01*
X127909605Y-120015000D01*
X128722702Y-120828097D01*
X128966671Y-120756514D01*
X129087571Y-120501004D01*
X129156300Y-120226816D01*
X129170217Y-119944488D01*
X129128787Y-119664870D01*
X129033603Y-119398708D01*
X128966671Y-119273486D01*
X128722702Y-119201903D01*
X127909605Y-120015000D01*
X127550395Y-120015000D01*
X127536253Y-120000858D01*
X127715858Y-119821253D01*
X127730000Y-119835395D01*
X128543097Y-119022298D01*
X128471514Y-118778329D01*
X128216004Y-118657429D01*
X127941816Y-118588700D01*
X127659488Y-118574783D01*
X127379870Y-118616213D01*
X127113708Y-118711397D01*
X126991691Y-118776616D01*
X126981185Y-118763815D01*
X126884494Y-118684463D01*
X126774180Y-118625498D01*
X126654482Y-118589188D01*
X126530000Y-118576928D01*
X124930000Y-118576928D01*
X124805518Y-118589188D01*
X124685820Y-118625498D01*
X124575506Y-118684463D01*
X124478815Y-118763815D01*
X124456053Y-118791551D01*
X121943104Y-116278603D01*
X121919301Y-116249599D01*
X121803576Y-116154626D01*
X121671547Y-116084054D01*
X121528286Y-116040597D01*
X121416633Y-116029600D01*
X121416622Y-116029600D01*
X121379300Y-116025924D01*
X121341978Y-116029600D01*
X113096822Y-116029600D01*
X113059499Y-116025924D01*
X113022176Y-116029600D01*
X113022167Y-116029600D01*
X112910514Y-116040597D01*
X112767253Y-116084054D01*
X112635224Y-116154626D01*
X112519499Y-116249599D01*
X112495696Y-116278603D01*
X112363603Y-116410696D01*
X112334599Y-116434499D01*
X112283365Y-116496928D01*
X112239626Y-116550224D01*
X112192308Y-116638750D01*
X112169054Y-116682254D01*
X112125597Y-116825515D01*
X112114600Y-116937168D01*
X112114600Y-116937178D01*
X112110924Y-116974500D01*
X112114600Y-117011823D01*
X112114601Y-118280297D01*
X111759397Y-118635501D01*
X111789502Y-118579180D01*
X111825812Y-118459482D01*
X111838072Y-118335000D01*
X111838072Y-117135000D01*
X111825812Y-117010518D01*
X111789502Y-116890820D01*
X111730537Y-116780506D01*
X111651185Y-116683815D01*
X111554494Y-116604463D01*
X111444180Y-116545498D01*
X111324482Y-116509188D01*
X111200000Y-116496928D01*
X110860000Y-116496928D01*
X110860000Y-112360101D01*
X112946003Y-110274099D01*
X112975001Y-110250301D01*
X113069974Y-110134576D01*
X113129575Y-110023072D01*
X113235000Y-110023072D01*
X113359482Y-110010812D01*
X113479180Y-109974502D01*
X113589494Y-109915537D01*
X113686185Y-109836185D01*
X113765537Y-109739494D01*
X113824502Y-109629180D01*
X113840117Y-109577702D01*
X114121903Y-109577702D01*
X114193486Y-109821671D01*
X114448996Y-109942571D01*
X114723184Y-110011300D01*
X115005512Y-110025217D01*
X115285130Y-109983787D01*
X115551292Y-109888603D01*
X115676514Y-109821671D01*
X115748097Y-109577702D01*
X114935000Y-108764605D01*
X114121903Y-109577702D01*
X113840117Y-109577702D01*
X113860812Y-109509482D01*
X113873072Y-109385000D01*
X113873072Y-109377785D01*
X113942298Y-109398097D01*
X114755395Y-108585000D01*
X115114605Y-108585000D01*
X115927702Y-109398097D01*
X116171671Y-109326514D01*
X116292571Y-109071004D01*
X116361300Y-108796816D01*
X116375217Y-108514488D01*
X116333787Y-108234870D01*
X116238603Y-107968708D01*
X116171671Y-107843486D01*
X115927702Y-107771903D01*
X115114605Y-108585000D01*
X114755395Y-108585000D01*
X113942298Y-107771903D01*
X113873072Y-107792215D01*
X113873072Y-107785000D01*
X113860812Y-107660518D01*
X113840118Y-107592298D01*
X114121903Y-107592298D01*
X114935000Y-108405395D01*
X115748097Y-107592298D01*
X115676514Y-107348329D01*
X115421004Y-107227429D01*
X115146816Y-107158700D01*
X114864488Y-107144783D01*
X114584870Y-107186213D01*
X114318708Y-107281397D01*
X114193486Y-107348329D01*
X114121903Y-107592298D01*
X113840118Y-107592298D01*
X113824502Y-107540820D01*
X113765537Y-107430506D01*
X113686185Y-107333815D01*
X113589494Y-107254463D01*
X113479180Y-107195498D01*
X113359482Y-107159188D01*
X113235000Y-107146928D01*
X111635000Y-107146928D01*
X111510518Y-107159188D01*
X111390820Y-107195498D01*
X111280506Y-107254463D01*
X111183815Y-107333815D01*
X111104463Y-107430506D01*
X111045498Y-107540820D01*
X111009188Y-107660518D01*
X110996928Y-107785000D01*
X110996928Y-109385000D01*
X111009188Y-109509482D01*
X111045498Y-109629180D01*
X111104463Y-109739494D01*
X111183815Y-109836185D01*
X111211551Y-109858947D01*
X109588998Y-111481501D01*
X109560000Y-111505299D01*
X109536202Y-111534297D01*
X109536201Y-111534298D01*
X109465026Y-111621024D01*
X109394454Y-111753054D01*
X109350998Y-111896315D01*
X109336324Y-112045300D01*
X109340001Y-112082632D01*
X109340000Y-116496928D01*
X109000000Y-116496928D01*
X108875518Y-116509188D01*
X108755820Y-116545498D01*
X108645506Y-116604463D01*
X108610000Y-116633602D01*
X108610000Y-105410000D01*
X121113057Y-105410000D01*
X121140764Y-105691309D01*
X121222818Y-105961808D01*
X121356068Y-106211101D01*
X121535392Y-106429608D01*
X121753899Y-106608932D01*
X121886858Y-106680000D01*
X121753899Y-106751068D01*
X121535392Y-106930392D01*
X121356068Y-107148899D01*
X121222818Y-107398192D01*
X121140764Y-107668691D01*
X121113057Y-107950000D01*
X121140764Y-108231309D01*
X121222818Y-108501808D01*
X121356068Y-108751101D01*
X121535392Y-108969608D01*
X121753899Y-109148932D01*
X121886858Y-109220000D01*
X121753899Y-109291068D01*
X121535392Y-109470392D01*
X121356068Y-109688899D01*
X121222818Y-109938192D01*
X121140764Y-110208691D01*
X121113057Y-110490000D01*
X121140764Y-110771309D01*
X121222818Y-111041808D01*
X121356068Y-111291101D01*
X121535392Y-111509608D01*
X121753899Y-111688932D01*
X121886858Y-111760000D01*
X121753899Y-111831068D01*
X121535392Y-112010392D01*
X121356068Y-112228899D01*
X121222818Y-112478192D01*
X121140764Y-112748691D01*
X121113057Y-113030000D01*
X121140764Y-113311309D01*
X121222818Y-113581808D01*
X121356068Y-113831101D01*
X121535392Y-114049608D01*
X121753899Y-114228932D01*
X122003192Y-114362182D01*
X122273691Y-114444236D01*
X122484508Y-114465000D01*
X122625492Y-114465000D01*
X122836309Y-114444236D01*
X123106808Y-114362182D01*
X123356101Y-114228932D01*
X123574608Y-114049608D01*
X123753932Y-113831101D01*
X123779139Y-113783942D01*
X123829286Y-113779003D01*
X123972547Y-113735546D01*
X124104576Y-113664974D01*
X124220301Y-113570001D01*
X124279801Y-113497500D01*
X125539230Y-112238072D01*
X125796250Y-112238072D01*
X125963408Y-112221608D01*
X126124142Y-112172850D01*
X126272275Y-112093671D01*
X126293930Y-112075900D01*
X126360506Y-112130537D01*
X126470820Y-112189502D01*
X126590518Y-112225812D01*
X126715000Y-112238072D01*
X126866750Y-112235000D01*
X127025500Y-112076250D01*
X127025500Y-111252000D01*
X127279500Y-111252000D01*
X127279500Y-112076250D01*
X127438250Y-112235000D01*
X127590000Y-112238072D01*
X127714482Y-112225812D01*
X127834180Y-112189502D01*
X127944494Y-112130537D01*
X128041185Y-112051185D01*
X128120537Y-111954494D01*
X128179502Y-111844180D01*
X128215812Y-111724482D01*
X128228072Y-111600000D01*
X128225000Y-111410750D01*
X128066250Y-111252000D01*
X127279500Y-111252000D01*
X127025500Y-111252000D01*
X127005500Y-111252000D01*
X127005500Y-110998000D01*
X127025500Y-110998000D01*
X127025500Y-110173750D01*
X127279500Y-110173750D01*
X127279500Y-110998000D01*
X128066250Y-110998000D01*
X128225000Y-110839250D01*
X128228072Y-110650000D01*
X128215812Y-110525518D01*
X128179502Y-110405820D01*
X128120537Y-110295506D01*
X128041185Y-110198815D01*
X127944494Y-110119463D01*
X127834180Y-110060498D01*
X127714482Y-110024188D01*
X127590000Y-110011928D01*
X127438250Y-110015000D01*
X127279500Y-110173750D01*
X127025500Y-110173750D01*
X126866750Y-110015000D01*
X126715000Y-110011928D01*
X126590518Y-110024188D01*
X126470820Y-110060498D01*
X126360506Y-110119463D01*
X126293930Y-110174100D01*
X126272275Y-110156329D01*
X126124142Y-110077150D01*
X125963408Y-110028392D01*
X125796250Y-110011928D01*
X125358750Y-110011928D01*
X125191592Y-110028392D01*
X125030858Y-110077150D01*
X124882725Y-110156329D01*
X124752885Y-110262885D01*
X124646329Y-110392725D01*
X124567150Y-110540858D01*
X124518392Y-110701592D01*
X124501928Y-110868750D01*
X124501928Y-111125770D01*
X123593855Y-112033844D01*
X123574608Y-112010392D01*
X123356101Y-111831068D01*
X123223142Y-111760000D01*
X123356101Y-111688932D01*
X123574608Y-111509608D01*
X123753932Y-111291101D01*
X123779139Y-111243942D01*
X123829286Y-111239003D01*
X123972547Y-111195546D01*
X124104576Y-111124974D01*
X124220301Y-111030001D01*
X124315274Y-110914276D01*
X124385846Y-110782247D01*
X124429303Y-110638986D01*
X124443977Y-110490000D01*
X124440300Y-110452667D01*
X124440300Y-110162001D01*
X125539230Y-109063072D01*
X125796250Y-109063072D01*
X125963408Y-109046608D01*
X126124142Y-108997850D01*
X126272275Y-108918671D01*
X126365000Y-108842574D01*
X126457725Y-108918671D01*
X126605858Y-108997850D01*
X126766592Y-109046608D01*
X126933750Y-109063072D01*
X127371250Y-109063072D01*
X127538408Y-109046608D01*
X127699142Y-108997850D01*
X127847275Y-108918671D01*
X127977115Y-108812115D01*
X128083671Y-108682275D01*
X128162850Y-108534142D01*
X128211608Y-108373408D01*
X128228072Y-108206250D01*
X128228072Y-107693750D01*
X128211608Y-107526592D01*
X128162850Y-107365858D01*
X128083671Y-107217725D01*
X127977115Y-107087885D01*
X127847275Y-106981329D01*
X127699142Y-106902150D01*
X127538408Y-106853392D01*
X127371250Y-106836928D01*
X127114229Y-106836928D01*
X126900603Y-106623302D01*
X126876801Y-106594299D01*
X126761076Y-106499326D01*
X126629047Y-106428754D01*
X126485786Y-106385297D01*
X126374133Y-106374300D01*
X126374122Y-106374300D01*
X126336800Y-106370624D01*
X126299478Y-106374300D01*
X124533322Y-106374300D01*
X124495999Y-106370624D01*
X124458677Y-106374300D01*
X124458667Y-106374300D01*
X124347014Y-106385297D01*
X124203753Y-106428754D01*
X124071723Y-106499326D01*
X124031357Y-106532454D01*
X123955999Y-106594299D01*
X123932201Y-106623298D01*
X123597370Y-106958128D01*
X123574608Y-106930392D01*
X123356101Y-106751068D01*
X123223142Y-106680000D01*
X123356101Y-106608932D01*
X123574608Y-106429608D01*
X123753932Y-106211101D01*
X123887182Y-105961808D01*
X123969236Y-105691309D01*
X123996943Y-105410000D01*
X123969236Y-105128691D01*
X123887182Y-104858192D01*
X123753932Y-104608899D01*
X123574608Y-104390392D01*
X123356101Y-104211068D01*
X123106808Y-104077818D01*
X122836309Y-103995764D01*
X122625492Y-103975000D01*
X122484508Y-103975000D01*
X122273691Y-103995764D01*
X122003192Y-104077818D01*
X121753899Y-104211068D01*
X121535392Y-104390392D01*
X121356068Y-104608899D01*
X121222818Y-104858192D01*
X121140764Y-105128691D01*
X121113057Y-105410000D01*
X108610000Y-105410000D01*
X108610000Y-99558589D01*
X109740000Y-99558589D01*
X109740000Y-99831411D01*
X109793225Y-100098989D01*
X109897629Y-100351043D01*
X110049201Y-100577886D01*
X110242114Y-100770799D01*
X110468957Y-100922371D01*
X110721011Y-101026775D01*
X110988589Y-101080000D01*
X111261411Y-101080000D01*
X111528989Y-101026775D01*
X111781043Y-100922371D01*
X112007886Y-100770799D01*
X112200799Y-100577886D01*
X112352371Y-100351043D01*
X112395000Y-100248127D01*
X112437629Y-100351043D01*
X112589201Y-100577886D01*
X112782114Y-100770799D01*
X113008957Y-100922371D01*
X113261011Y-101026775D01*
X113528589Y-101080000D01*
X113801411Y-101080000D01*
X114068989Y-101026775D01*
X114321043Y-100922371D01*
X114547886Y-100770799D01*
X114740799Y-100577886D01*
X114892371Y-100351043D01*
X114935000Y-100248127D01*
X114977629Y-100351043D01*
X115129201Y-100577886D01*
X115322114Y-100770799D01*
X115548957Y-100922371D01*
X115801011Y-101026775D01*
X116068589Y-101080000D01*
X116341411Y-101080000D01*
X116608989Y-101026775D01*
X116861043Y-100922371D01*
X117087886Y-100770799D01*
X117280799Y-100577886D01*
X117432371Y-100351043D01*
X117536775Y-100098989D01*
X117590000Y-99831411D01*
X117590000Y-99558589D01*
X117536775Y-99291011D01*
X117432371Y-99038957D01*
X117280799Y-98812114D01*
X117087886Y-98619201D01*
X116861043Y-98467629D01*
X116608989Y-98363225D01*
X116341411Y-98310000D01*
X116068589Y-98310000D01*
X115801011Y-98363225D01*
X115548957Y-98467629D01*
X115322114Y-98619201D01*
X115129201Y-98812114D01*
X114977629Y-99038957D01*
X114935000Y-99141873D01*
X114892371Y-99038957D01*
X114740799Y-98812114D01*
X114547886Y-98619201D01*
X114425000Y-98537091D01*
X114425000Y-96199801D01*
X114779801Y-95845000D01*
X126652815Y-95845000D01*
X126681487Y-96136111D01*
X126766401Y-96416034D01*
X126904294Y-96674014D01*
X127089866Y-96900134D01*
X127315986Y-97085706D01*
X127333374Y-97095000D01*
X127315986Y-97104294D01*
X127089866Y-97289866D01*
X126904294Y-97515986D01*
X126766401Y-97773966D01*
X126681487Y-98053889D01*
X126652815Y-98345000D01*
X126681487Y-98636111D01*
X126766401Y-98916034D01*
X126904294Y-99174014D01*
X127089866Y-99400134D01*
X127315986Y-99585706D01*
X127573966Y-99723599D01*
X127853889Y-99808513D01*
X128072050Y-99830000D01*
X128467950Y-99830000D01*
X128686111Y-99808513D01*
X128966034Y-99723599D01*
X129224014Y-99585706D01*
X129450134Y-99400134D01*
X129635706Y-99174014D01*
X129676205Y-99098246D01*
X129719286Y-99094003D01*
X129862547Y-99050546D01*
X129994576Y-98979974D01*
X130110301Y-98885001D01*
X130134104Y-98855997D01*
X130301401Y-98688700D01*
X133234848Y-98688700D01*
X133228096Y-98710961D01*
X133350085Y-98933000D01*
X134493000Y-98933000D01*
X134493000Y-98913000D01*
X134747000Y-98913000D01*
X134747000Y-98933000D01*
X135889915Y-98933000D01*
X136011904Y-98710961D01*
X136005152Y-98688700D01*
X148031198Y-98688700D01*
X147294599Y-99425300D01*
X136006972Y-99425300D01*
X136011904Y-99409039D01*
X135889915Y-99187000D01*
X134747000Y-99187000D01*
X134747000Y-99207000D01*
X134493000Y-99207000D01*
X134493000Y-99187000D01*
X133350085Y-99187000D01*
X133228096Y-99409039D01*
X133268754Y-99543087D01*
X133388963Y-99797420D01*
X133530259Y-99988039D01*
X130789298Y-102729001D01*
X130760300Y-102752799D01*
X130736502Y-102781797D01*
X130736501Y-102781798D01*
X130665326Y-102868524D01*
X130594754Y-103000554D01*
X130577269Y-103058198D01*
X130551298Y-103143814D01*
X130546935Y-103188110D01*
X130536624Y-103292800D01*
X130540301Y-103330132D01*
X130540301Y-104021242D01*
X130456309Y-103995764D01*
X130245492Y-103975000D01*
X130104508Y-103975000D01*
X129893691Y-103995764D01*
X129623192Y-104077818D01*
X129373899Y-104211068D01*
X129155392Y-104390392D01*
X128976068Y-104608899D01*
X128842818Y-104858192D01*
X128760764Y-105128691D01*
X128733057Y-105410000D01*
X128760764Y-105691309D01*
X128842818Y-105961808D01*
X128976068Y-106211101D01*
X129155392Y-106429608D01*
X129373899Y-106608932D01*
X129436160Y-106642211D01*
X129425997Y-106675714D01*
X129421058Y-106725861D01*
X129373899Y-106751068D01*
X129155392Y-106930392D01*
X128976068Y-107148899D01*
X128842818Y-107398192D01*
X128760764Y-107668691D01*
X128733057Y-107950000D01*
X128760764Y-108231309D01*
X128842818Y-108501808D01*
X128976068Y-108751101D01*
X129155392Y-108969608D01*
X129373899Y-109148932D01*
X129511682Y-109222579D01*
X129319869Y-109337615D01*
X129111481Y-109526586D01*
X128943963Y-109752580D01*
X128823754Y-110006913D01*
X128783096Y-110140961D01*
X128905085Y-110363000D01*
X130048000Y-110363000D01*
X130048000Y-110343000D01*
X130302000Y-110343000D01*
X130302000Y-110363000D01*
X130322000Y-110363000D01*
X130322000Y-110617000D01*
X130302000Y-110617000D01*
X130302000Y-110637000D01*
X130048000Y-110637000D01*
X130048000Y-110617000D01*
X128905085Y-110617000D01*
X128783096Y-110839039D01*
X128823754Y-110973087D01*
X128943963Y-111227420D01*
X129111481Y-111453414D01*
X129275080Y-111601769D01*
X129250518Y-111604188D01*
X129130820Y-111640498D01*
X129020506Y-111699463D01*
X128923815Y-111778815D01*
X128844463Y-111875506D01*
X128785498Y-111985820D01*
X128749188Y-112105518D01*
X128736928Y-112230000D01*
X128736928Y-113830000D01*
X128749188Y-113954482D01*
X128785498Y-114074180D01*
X128844463Y-114184494D01*
X128923815Y-114281185D01*
X129020506Y-114360537D01*
X129130820Y-114419502D01*
X129250518Y-114455812D01*
X129375000Y-114468072D01*
X130975000Y-114468072D01*
X131099482Y-114455812D01*
X131219180Y-114419502D01*
X131329494Y-114360537D01*
X131426185Y-114281185D01*
X131505537Y-114184494D01*
X131564502Y-114074180D01*
X131600812Y-113954482D01*
X131613072Y-113830000D01*
X131613072Y-112230000D01*
X131600812Y-112105518D01*
X131564502Y-111985820D01*
X131524611Y-111911190D01*
X133418850Y-110016952D01*
X133421068Y-110021101D01*
X133600392Y-110239608D01*
X133818899Y-110418932D01*
X133951858Y-110490000D01*
X133818899Y-110561068D01*
X133600392Y-110740392D01*
X133421068Y-110958899D01*
X133287818Y-111208192D01*
X133205764Y-111478691D01*
X133178057Y-111760000D01*
X133205764Y-112041309D01*
X133287818Y-112311808D01*
X133421068Y-112561101D01*
X133600392Y-112779608D01*
X133818899Y-112958932D01*
X133951858Y-113030000D01*
X133818899Y-113101068D01*
X133600392Y-113280392D01*
X133421068Y-113498899D01*
X133287818Y-113748192D01*
X133205764Y-114018691D01*
X133178057Y-114300000D01*
X133205764Y-114581309D01*
X133287818Y-114851808D01*
X133421068Y-115101101D01*
X133600392Y-115319608D01*
X133818899Y-115498932D01*
X133951858Y-115570000D01*
X133818899Y-115641068D01*
X133600392Y-115820392D01*
X133421068Y-116038899D01*
X133287818Y-116288192D01*
X133205764Y-116558691D01*
X133178057Y-116840000D01*
X133205764Y-117121309D01*
X133287818Y-117391808D01*
X133421068Y-117641101D01*
X133600392Y-117859608D01*
X133818899Y-118038932D01*
X133951858Y-118110000D01*
X133818899Y-118181068D01*
X133600392Y-118360392D01*
X133421068Y-118578899D01*
X133287818Y-118828192D01*
X133205764Y-119098691D01*
X133178057Y-119380000D01*
X133205764Y-119661309D01*
X133287818Y-119931808D01*
X133421068Y-120181101D01*
X133600392Y-120399608D01*
X133818899Y-120578932D01*
X133951858Y-120650000D01*
X133818899Y-120721068D01*
X133600392Y-120900392D01*
X133421068Y-121118899D01*
X133287818Y-121368192D01*
X133205764Y-121638691D01*
X133178057Y-121920000D01*
X133205764Y-122201309D01*
X133287818Y-122471808D01*
X133421068Y-122721101D01*
X133600392Y-122939608D01*
X133818899Y-123118932D01*
X133951858Y-123190000D01*
X133818899Y-123261068D01*
X133600392Y-123440392D01*
X133421068Y-123658899D01*
X133287818Y-123908192D01*
X133205764Y-124178691D01*
X133178057Y-124460000D01*
X133205764Y-124741309D01*
X133287818Y-125011808D01*
X133421068Y-125261101D01*
X133600392Y-125479608D01*
X133818899Y-125658932D01*
X133951858Y-125730000D01*
X133818899Y-125801068D01*
X133600392Y-125980392D01*
X133421068Y-126198899D01*
X133287818Y-126448192D01*
X133205764Y-126718691D01*
X133178057Y-127000000D01*
X133205764Y-127281309D01*
X133287818Y-127551808D01*
X133421068Y-127801101D01*
X133600392Y-128019608D01*
X133818899Y-128198932D01*
X134068192Y-128332182D01*
X134338691Y-128414236D01*
X134549508Y-128435000D01*
X134690492Y-128435000D01*
X134901309Y-128414236D01*
X135171808Y-128332182D01*
X135421101Y-128198932D01*
X135639608Y-128019608D01*
X135818932Y-127801101D01*
X135952182Y-127551808D01*
X136034236Y-127281309D01*
X136061943Y-127000000D01*
X136034236Y-126718691D01*
X135952182Y-126448192D01*
X135818932Y-126198899D01*
X135639608Y-125980392D01*
X135421101Y-125801068D01*
X135288142Y-125730000D01*
X135421101Y-125658932D01*
X135639608Y-125479608D01*
X135818932Y-125261101D01*
X135952182Y-125011808D01*
X136034236Y-124741309D01*
X136061943Y-124460000D01*
X136034236Y-124178691D01*
X135952182Y-123908192D01*
X135818932Y-123658899D01*
X135639608Y-123440392D01*
X135421101Y-123261068D01*
X135288142Y-123190000D01*
X135421101Y-123118932D01*
X135639608Y-122939608D01*
X135818932Y-122721101D01*
X135952182Y-122471808D01*
X136034236Y-122201309D01*
X136061943Y-121920000D01*
X136034236Y-121638691D01*
X135952182Y-121368192D01*
X135818932Y-121118899D01*
X135639608Y-120900392D01*
X135421101Y-120721068D01*
X135288142Y-120650000D01*
X135421101Y-120578932D01*
X135639608Y-120399608D01*
X135818932Y-120181101D01*
X135952182Y-119931808D01*
X136034236Y-119661309D01*
X136061943Y-119380000D01*
X136034236Y-119098691D01*
X135952182Y-118828192D01*
X135818932Y-118578899D01*
X135639608Y-118360392D01*
X135421101Y-118181068D01*
X135288142Y-118110000D01*
X135421101Y-118038932D01*
X135639608Y-117859608D01*
X135818932Y-117641101D01*
X135952182Y-117391808D01*
X136034236Y-117121309D01*
X136061943Y-116840000D01*
X136034236Y-116558691D01*
X135952182Y-116288192D01*
X135818932Y-116038899D01*
X135639608Y-115820392D01*
X135421101Y-115641068D01*
X135288142Y-115570000D01*
X135421101Y-115498932D01*
X135639608Y-115319608D01*
X135818932Y-115101101D01*
X135952182Y-114851808D01*
X136034236Y-114581309D01*
X136061943Y-114300000D01*
X136034236Y-114018691D01*
X135952182Y-113748192D01*
X135818932Y-113498899D01*
X135639608Y-113280392D01*
X135421101Y-113101068D01*
X135288142Y-113030000D01*
X135421101Y-112958932D01*
X135639608Y-112779608D01*
X135818932Y-112561101D01*
X135952182Y-112311808D01*
X136034236Y-112041309D01*
X136061943Y-111760000D01*
X136034236Y-111478691D01*
X135952182Y-111208192D01*
X135818932Y-110958899D01*
X135639608Y-110740392D01*
X135421101Y-110561068D01*
X135288142Y-110490000D01*
X135421101Y-110418932D01*
X135639608Y-110239608D01*
X135818932Y-110021101D01*
X135952182Y-109771808D01*
X136034236Y-109501309D01*
X136061943Y-109220000D01*
X136034236Y-108938691D01*
X135952182Y-108668192D01*
X135818932Y-108418899D01*
X135639608Y-108200392D01*
X135421101Y-108021068D01*
X135288142Y-107950000D01*
X135421101Y-107878932D01*
X135639608Y-107699608D01*
X135818932Y-107481101D01*
X135952182Y-107231808D01*
X136034236Y-106961309D01*
X136061943Y-106680000D01*
X136034236Y-106398691D01*
X135952182Y-106128192D01*
X135818932Y-105878899D01*
X135639608Y-105660392D01*
X135421101Y-105481068D01*
X135288142Y-105410000D01*
X135421101Y-105338932D01*
X135639608Y-105159608D01*
X135818932Y-104941101D01*
X135952182Y-104691808D01*
X136034236Y-104421309D01*
X136061943Y-104140000D01*
X136034236Y-103858691D01*
X135952182Y-103588192D01*
X135818932Y-103338899D01*
X135639608Y-103120392D01*
X135421101Y-102941068D01*
X135358840Y-102907789D01*
X135369003Y-102874286D01*
X135373942Y-102824139D01*
X135421101Y-102798932D01*
X135639608Y-102619608D01*
X135818932Y-102401101D01*
X135952182Y-102151808D01*
X136034236Y-101881309D01*
X136061943Y-101600000D01*
X136034236Y-101318691D01*
X135952182Y-101048192D01*
X135897185Y-100945300D01*
X147572078Y-100945300D01*
X147609400Y-100948976D01*
X147646722Y-100945300D01*
X147646733Y-100945300D01*
X147758386Y-100934303D01*
X147901647Y-100890846D01*
X148033676Y-100820274D01*
X148149401Y-100725301D01*
X148173204Y-100696298D01*
X148817630Y-100051872D01*
X148840392Y-100079608D01*
X149058899Y-100258932D01*
X149191858Y-100330000D01*
X149058899Y-100401068D01*
X148840392Y-100580392D01*
X148661068Y-100798899D01*
X148527818Y-101048192D01*
X148445764Y-101318691D01*
X148418057Y-101600000D01*
X148445764Y-101881309D01*
X148527818Y-102151808D01*
X148661068Y-102401101D01*
X148840392Y-102619608D01*
X149058899Y-102798932D01*
X149191858Y-102870000D01*
X149058899Y-102941068D01*
X148840392Y-103120392D01*
X148661068Y-103338899D01*
X148527818Y-103588192D01*
X148445764Y-103858691D01*
X148418057Y-104140000D01*
X148445764Y-104421309D01*
X148527818Y-104691808D01*
X148661068Y-104941101D01*
X148840392Y-105159608D01*
X149058899Y-105338932D01*
X149191858Y-105410000D01*
X149058899Y-105481068D01*
X148840392Y-105660392D01*
X148661068Y-105878899D01*
X148527818Y-106128192D01*
X148445764Y-106398691D01*
X148418057Y-106680000D01*
X148445764Y-106961309D01*
X148527818Y-107231808D01*
X148661068Y-107481101D01*
X148840392Y-107699608D01*
X149058899Y-107878932D01*
X149191858Y-107950000D01*
X149058899Y-108021068D01*
X148840392Y-108200392D01*
X148661068Y-108418899D01*
X148527818Y-108668192D01*
X148445764Y-108938691D01*
X148418057Y-109220000D01*
X148445764Y-109501309D01*
X148527818Y-109771808D01*
X148661068Y-110021101D01*
X148840392Y-110239608D01*
X149058899Y-110418932D01*
X149191858Y-110490000D01*
X149058899Y-110561068D01*
X148840392Y-110740392D01*
X148661068Y-110958899D01*
X148527818Y-111208192D01*
X148445764Y-111478691D01*
X148418057Y-111760000D01*
X148445764Y-112041309D01*
X148527818Y-112311808D01*
X148661068Y-112561101D01*
X148840392Y-112779608D01*
X149058899Y-112958932D01*
X149191858Y-113030000D01*
X149058899Y-113101068D01*
X148840392Y-113280392D01*
X148661068Y-113498899D01*
X148527818Y-113748192D01*
X148445764Y-114018691D01*
X148418057Y-114300000D01*
X148445764Y-114581309D01*
X148527818Y-114851808D01*
X148661068Y-115101101D01*
X148840392Y-115319608D01*
X149058899Y-115498932D01*
X149191858Y-115570000D01*
X149058899Y-115641068D01*
X148840392Y-115820392D01*
X148661068Y-116038899D01*
X148527818Y-116288192D01*
X148445764Y-116558691D01*
X148418057Y-116840000D01*
X148445764Y-117121309D01*
X148527818Y-117391808D01*
X148661068Y-117641101D01*
X148736312Y-117732786D01*
X148223698Y-118245401D01*
X148194700Y-118269199D01*
X148170902Y-118298197D01*
X148170901Y-118298198D01*
X148099726Y-118384924D01*
X148029154Y-118516954D01*
X148010962Y-118576928D01*
X147985698Y-118660214D01*
X147977437Y-118744086D01*
X147971024Y-118809200D01*
X147974701Y-118846532D01*
X147974700Y-119849077D01*
X147971024Y-119886400D01*
X147974700Y-119923722D01*
X147974700Y-119923732D01*
X147985697Y-120035385D01*
X148017127Y-120138996D01*
X148029154Y-120178646D01*
X148099726Y-120310676D01*
X148138362Y-120357753D01*
X148194699Y-120426401D01*
X148223702Y-120450203D01*
X148765340Y-120991843D01*
X148661068Y-121118899D01*
X148527818Y-121368192D01*
X148445764Y-121638691D01*
X148418057Y-121920000D01*
X148445764Y-122201309D01*
X148527818Y-122471808D01*
X148661068Y-122721101D01*
X148840392Y-122939608D01*
X149058899Y-123118932D01*
X149191858Y-123190000D01*
X149058899Y-123261068D01*
X148840392Y-123440392D01*
X148661068Y-123658899D01*
X148527818Y-123908192D01*
X148445764Y-124178691D01*
X148418057Y-124460000D01*
X148445764Y-124741309D01*
X148527818Y-125011808D01*
X148661068Y-125261101D01*
X148840392Y-125479608D01*
X149058899Y-125658932D01*
X149191858Y-125730000D01*
X149058899Y-125801068D01*
X148840392Y-125980392D01*
X148661068Y-126198899D01*
X148527818Y-126448192D01*
X148445764Y-126718691D01*
X148418057Y-127000000D01*
X148445764Y-127281309D01*
X148527818Y-127551808D01*
X148661068Y-127801101D01*
X148840392Y-128019608D01*
X149058899Y-128198932D01*
X149308192Y-128332182D01*
X149578691Y-128414236D01*
X149789508Y-128435000D01*
X149930492Y-128435000D01*
X150141309Y-128414236D01*
X150411808Y-128332182D01*
X150661101Y-128198932D01*
X150879608Y-128019608D01*
X151058932Y-127801101D01*
X151192182Y-127551808D01*
X151274236Y-127281309D01*
X151301943Y-127000000D01*
X151274236Y-126718691D01*
X151192182Y-126448192D01*
X151058932Y-126198899D01*
X150879608Y-125980392D01*
X150661101Y-125801068D01*
X150528142Y-125730000D01*
X150661101Y-125658932D01*
X150879608Y-125479608D01*
X151058932Y-125261101D01*
X151192182Y-125011808D01*
X151274236Y-124741309D01*
X151301943Y-124460000D01*
X151274236Y-124178691D01*
X151192182Y-123908192D01*
X151058932Y-123658899D01*
X150879608Y-123440392D01*
X150661101Y-123261068D01*
X150528142Y-123190000D01*
X150661101Y-123118932D01*
X150879608Y-122939608D01*
X151058932Y-122721101D01*
X151192182Y-122471808D01*
X151274236Y-122201309D01*
X151301943Y-121920000D01*
X151274236Y-121638691D01*
X151204864Y-121410000D01*
X153990199Y-121410000D01*
X155231928Y-122651730D01*
X155231928Y-123790000D01*
X155248992Y-123963254D01*
X155299528Y-124129850D01*
X155381595Y-124283386D01*
X155492038Y-124417962D01*
X155626614Y-124528405D01*
X155780150Y-124610472D01*
X155946746Y-124661008D01*
X156120000Y-124678072D01*
X157570000Y-124678072D01*
X157743254Y-124661008D01*
X157909850Y-124610472D01*
X158063386Y-124528405D01*
X158197962Y-124417962D01*
X158308405Y-124283386D01*
X158390472Y-124129850D01*
X158441008Y-123963254D01*
X158458072Y-123790000D01*
X158458072Y-122590000D01*
X158441008Y-122416746D01*
X158390472Y-122250150D01*
X158308405Y-122096614D01*
X158197962Y-121962038D01*
X158063386Y-121851595D01*
X157958039Y-121795286D01*
X157979429Y-121779049D01*
X158172496Y-121561193D01*
X158319352Y-121309858D01*
X158411476Y-121046890D01*
X158290155Y-120817000D01*
X156972000Y-120817000D01*
X156972000Y-120837000D01*
X156718000Y-120837000D01*
X156718000Y-120817000D01*
X156698000Y-120817000D01*
X156698000Y-120563000D01*
X156718000Y-120563000D01*
X156718000Y-120543000D01*
X156972000Y-120543000D01*
X156972000Y-120563000D01*
X158290155Y-120563000D01*
X158411476Y-120333110D01*
X158319352Y-120070142D01*
X158172496Y-119818807D01*
X157979429Y-119600951D01*
X157773278Y-119444462D01*
X157799014Y-119430706D01*
X158025134Y-119245134D01*
X158210706Y-119019014D01*
X158348599Y-118761034D01*
X158433513Y-118481111D01*
X158462185Y-118190000D01*
X158433513Y-117898889D01*
X158348599Y-117618966D01*
X158210706Y-117360986D01*
X158025134Y-117134866D01*
X157799014Y-116949294D01*
X157781626Y-116940000D01*
X157799014Y-116930706D01*
X158025134Y-116745134D01*
X158210706Y-116519014D01*
X158348599Y-116261034D01*
X158433513Y-115981111D01*
X158462185Y-115690000D01*
X158433513Y-115398889D01*
X158348599Y-115118966D01*
X158210706Y-114860986D01*
X158025134Y-114634866D01*
X157799014Y-114449294D01*
X157541034Y-114311401D01*
X157261111Y-114226487D01*
X157042950Y-114205000D01*
X156647050Y-114205000D01*
X156428889Y-114226487D01*
X156148966Y-114311401D01*
X155890986Y-114449294D01*
X155664866Y-114634866D01*
X155479294Y-114860986D01*
X155341401Y-115118966D01*
X155256487Y-115398889D01*
X155227815Y-115690000D01*
X155256487Y-115981111D01*
X155341401Y-116261034D01*
X155479294Y-116519014D01*
X155664866Y-116745134D01*
X155890986Y-116930706D01*
X155908374Y-116940000D01*
X155890986Y-116949294D01*
X155664866Y-117134866D01*
X155479294Y-117360986D01*
X155442405Y-117430000D01*
X152212622Y-117430000D01*
X152175299Y-117426324D01*
X152137976Y-117430000D01*
X152137967Y-117430000D01*
X152026314Y-117440997D01*
X151883053Y-117484454D01*
X151751023Y-117555026D01*
X151684679Y-117609474D01*
X151635299Y-117649999D01*
X151611501Y-117678997D01*
X150902370Y-118388128D01*
X150879608Y-118360392D01*
X150661101Y-118181068D01*
X150598840Y-118147789D01*
X150609003Y-118114286D01*
X150613942Y-118064139D01*
X150661101Y-118038932D01*
X150879608Y-117859608D01*
X151058932Y-117641101D01*
X151192182Y-117391808D01*
X151274236Y-117121309D01*
X151301943Y-116840000D01*
X151274236Y-116558691D01*
X151192182Y-116288192D01*
X151058932Y-116038899D01*
X150879608Y-115820392D01*
X150661101Y-115641068D01*
X150528142Y-115570000D01*
X150661101Y-115498932D01*
X150879608Y-115319608D01*
X151058932Y-115101101D01*
X151192182Y-114851808D01*
X151274236Y-114581309D01*
X151301943Y-114300000D01*
X151274236Y-114018691D01*
X151192182Y-113748192D01*
X151058932Y-113498899D01*
X150879608Y-113280392D01*
X150661101Y-113101068D01*
X150528142Y-113030000D01*
X150661101Y-112958932D01*
X150879608Y-112779608D01*
X151058932Y-112561101D01*
X151192182Y-112311808D01*
X151274236Y-112041309D01*
X151301943Y-111760000D01*
X151274236Y-111478691D01*
X151192182Y-111208192D01*
X151058932Y-110958899D01*
X150879608Y-110740392D01*
X150661101Y-110561068D01*
X150528142Y-110490000D01*
X150661101Y-110418932D01*
X150879608Y-110239608D01*
X151058932Y-110021101D01*
X151192182Y-109771808D01*
X151274236Y-109501309D01*
X151301943Y-109220000D01*
X151274236Y-108938691D01*
X151192182Y-108668192D01*
X151058932Y-108418899D01*
X150879608Y-108200392D01*
X150661101Y-108021068D01*
X150528142Y-107950000D01*
X150661101Y-107878932D01*
X150879608Y-107699608D01*
X151058932Y-107481101D01*
X151084139Y-107433942D01*
X151134286Y-107429003D01*
X151277547Y-107385546D01*
X151409576Y-107314974D01*
X151525301Y-107220001D01*
X151549103Y-107190998D01*
X151935102Y-106805000D01*
X155247687Y-106805000D01*
X155248992Y-106818254D01*
X155299528Y-106984850D01*
X155381595Y-107138386D01*
X155492038Y-107272962D01*
X155626614Y-107383405D01*
X155780150Y-107465472D01*
X155946746Y-107516008D01*
X156120000Y-107533072D01*
X157570000Y-107533072D01*
X157743254Y-107516008D01*
X157909850Y-107465472D01*
X158063386Y-107383405D01*
X158197962Y-107272962D01*
X158308405Y-107138386D01*
X158390472Y-106984850D01*
X158441008Y-106818254D01*
X158458072Y-106645000D01*
X158458072Y-105445000D01*
X158441008Y-105271746D01*
X158390472Y-105105150D01*
X158308405Y-104951614D01*
X158197962Y-104817038D01*
X158063386Y-104706595D01*
X157958039Y-104650286D01*
X157979429Y-104634049D01*
X158172496Y-104416193D01*
X158319352Y-104164858D01*
X158411476Y-103901890D01*
X158290155Y-103672000D01*
X156972000Y-103672000D01*
X156972000Y-103692000D01*
X156718000Y-103692000D01*
X156718000Y-103672000D01*
X155399845Y-103672000D01*
X155278524Y-103901890D01*
X155370648Y-104164858D01*
X155517504Y-104416193D01*
X155710571Y-104634049D01*
X155731961Y-104650286D01*
X155626614Y-104706595D01*
X155492038Y-104817038D01*
X155381595Y-104951614D01*
X155299528Y-105105150D01*
X155248992Y-105271746D01*
X155247687Y-105285000D01*
X151657633Y-105285000D01*
X151620300Y-105281323D01*
X151582967Y-105285000D01*
X151471314Y-105295997D01*
X151328053Y-105339454D01*
X151196024Y-105410026D01*
X151080299Y-105504999D01*
X151056500Y-105533998D01*
X150902370Y-105688128D01*
X150879608Y-105660392D01*
X150661101Y-105481068D01*
X150528142Y-105410000D01*
X150661101Y-105338932D01*
X150879608Y-105159608D01*
X151058932Y-104941101D01*
X151192182Y-104691808D01*
X151274236Y-104421309D01*
X151301943Y-104140000D01*
X151274236Y-103858691D01*
X151192182Y-103588192D01*
X151058932Y-103338899D01*
X150879608Y-103120392D01*
X150661101Y-102941068D01*
X150528142Y-102870000D01*
X150661101Y-102798932D01*
X150879608Y-102619608D01*
X151058932Y-102401101D01*
X151192182Y-102151808D01*
X151274236Y-101881309D01*
X151301943Y-101600000D01*
X151274236Y-101318691D01*
X151192182Y-101048192D01*
X151058932Y-100798899D01*
X150879608Y-100580392D01*
X150661101Y-100401068D01*
X150528142Y-100330000D01*
X150661101Y-100258932D01*
X150879608Y-100079608D01*
X151058932Y-99861101D01*
X151192182Y-99611808D01*
X151274236Y-99341309D01*
X151301943Y-99060000D01*
X151274236Y-98778691D01*
X151246938Y-98688700D01*
X154613599Y-98688700D01*
X154980900Y-99056002D01*
X155004699Y-99085001D01*
X155120424Y-99179974D01*
X155252453Y-99250546D01*
X155395714Y-99294003D01*
X155438795Y-99298246D01*
X155479294Y-99374014D01*
X155664866Y-99600134D01*
X155890986Y-99785706D01*
X155908374Y-99795000D01*
X155890986Y-99804294D01*
X155664866Y-99989866D01*
X155479294Y-100215986D01*
X155341401Y-100473966D01*
X155256487Y-100753889D01*
X155227815Y-101045000D01*
X155256487Y-101336111D01*
X155341401Y-101616034D01*
X155479294Y-101874014D01*
X155664866Y-102100134D01*
X155890986Y-102285706D01*
X155916722Y-102299462D01*
X155710571Y-102455951D01*
X155517504Y-102673807D01*
X155370648Y-102925142D01*
X155278524Y-103188110D01*
X155399845Y-103418000D01*
X156718000Y-103418000D01*
X156718000Y-103398000D01*
X156972000Y-103398000D01*
X156972000Y-103418000D01*
X158290155Y-103418000D01*
X158411476Y-103188110D01*
X158319352Y-102925142D01*
X158172496Y-102673807D01*
X157979429Y-102455951D01*
X157773278Y-102299462D01*
X157799014Y-102285706D01*
X158025134Y-102100134D01*
X158210706Y-101874014D01*
X158348599Y-101616034D01*
X158433513Y-101336111D01*
X158462185Y-101045000D01*
X158433513Y-100753889D01*
X158348599Y-100473966D01*
X158210706Y-100215986D01*
X158025134Y-99989866D01*
X157799014Y-99804294D01*
X157781626Y-99795000D01*
X157799014Y-99785706D01*
X158025134Y-99600134D01*
X158210706Y-99374014D01*
X158348599Y-99116034D01*
X158433513Y-98836111D01*
X158462185Y-98545000D01*
X158433513Y-98253889D01*
X158348599Y-97973966D01*
X158210706Y-97715986D01*
X158025134Y-97489866D01*
X157799014Y-97304294D01*
X157541034Y-97166401D01*
X157261111Y-97081487D01*
X157042950Y-97060000D01*
X156647050Y-97060000D01*
X156428889Y-97081487D01*
X156148966Y-97166401D01*
X155890986Y-97304294D01*
X155664866Y-97489866D01*
X155619566Y-97545064D01*
X155492203Y-97417702D01*
X155468401Y-97388699D01*
X155352676Y-97293726D01*
X155220647Y-97223154D01*
X155077386Y-97179697D01*
X154965733Y-97168700D01*
X154965722Y-97168700D01*
X154928400Y-97165024D01*
X154891078Y-97168700D01*
X151140392Y-97168700D01*
X151192182Y-97071808D01*
X151274236Y-96801309D01*
X151301943Y-96520000D01*
X151274236Y-96238691D01*
X151192182Y-95968192D01*
X151058932Y-95718899D01*
X150879608Y-95500392D01*
X150661101Y-95321068D01*
X150523318Y-95247421D01*
X150715131Y-95132385D01*
X150923519Y-94943414D01*
X151091037Y-94717420D01*
X151211246Y-94463087D01*
X151251904Y-94329039D01*
X151129915Y-94107000D01*
X149987000Y-94107000D01*
X149987000Y-94127000D01*
X149733000Y-94127000D01*
X149733000Y-94107000D01*
X148590085Y-94107000D01*
X148468096Y-94329039D01*
X148508754Y-94463087D01*
X148628963Y-94717420D01*
X148796481Y-94943414D01*
X149004869Y-95132385D01*
X149196682Y-95247421D01*
X149058899Y-95321068D01*
X148840392Y-95500392D01*
X148661068Y-95718899D01*
X148527818Y-95968192D01*
X148445764Y-96238691D01*
X148418057Y-96520000D01*
X148445764Y-96801309D01*
X148527818Y-97071808D01*
X148579608Y-97168700D01*
X135900392Y-97168700D01*
X135952182Y-97071808D01*
X136034236Y-96801309D01*
X136061943Y-96520000D01*
X136034236Y-96238691D01*
X135952182Y-95968192D01*
X135818932Y-95718899D01*
X135639608Y-95500392D01*
X135421101Y-95321068D01*
X135288142Y-95250000D01*
X135421101Y-95178932D01*
X135639608Y-94999608D01*
X135818932Y-94781101D01*
X135952182Y-94531808D01*
X136034236Y-94261309D01*
X136061943Y-93980000D01*
X136034236Y-93698691D01*
X135952182Y-93428192D01*
X135818932Y-93178899D01*
X135639608Y-92960392D01*
X135526518Y-92867581D01*
X135544482Y-92865812D01*
X135664180Y-92829502D01*
X135774494Y-92770537D01*
X135871185Y-92691185D01*
X135950537Y-92594494D01*
X136009502Y-92484180D01*
X136045812Y-92364482D01*
X136058072Y-92240000D01*
X136058072Y-91440000D01*
X148418057Y-91440000D01*
X148445764Y-91721309D01*
X148527818Y-91991808D01*
X148661068Y-92241101D01*
X148840392Y-92459608D01*
X149058899Y-92638932D01*
X149196682Y-92712579D01*
X149004869Y-92827615D01*
X148796481Y-93016586D01*
X148628963Y-93242580D01*
X148508754Y-93496913D01*
X148468096Y-93630961D01*
X148590085Y-93853000D01*
X149733000Y-93853000D01*
X149733000Y-93833000D01*
X149987000Y-93833000D01*
X149987000Y-93853000D01*
X151129915Y-93853000D01*
X151251904Y-93630961D01*
X151211246Y-93496913D01*
X151091037Y-93242580D01*
X150923519Y-93016586D01*
X150715131Y-92827615D01*
X150523318Y-92712579D01*
X150661101Y-92638932D01*
X150879608Y-92459608D01*
X151058932Y-92241101D01*
X151192182Y-91991808D01*
X151274236Y-91721309D01*
X151301943Y-91440000D01*
X151274236Y-91158691D01*
X151192182Y-90888192D01*
X151058932Y-90638899D01*
X150879608Y-90420392D01*
X150661101Y-90241068D01*
X150411808Y-90107818D01*
X150141309Y-90025764D01*
X149930492Y-90005000D01*
X149789508Y-90005000D01*
X149578691Y-90025764D01*
X149308192Y-90107818D01*
X149058899Y-90241068D01*
X148840392Y-90420392D01*
X148661068Y-90638899D01*
X148527818Y-90888192D01*
X148445764Y-91158691D01*
X148418057Y-91440000D01*
X136058072Y-91440000D01*
X136058072Y-90640000D01*
X136045812Y-90515518D01*
X136009502Y-90395820D01*
X135950537Y-90285506D01*
X135871185Y-90188815D01*
X135774494Y-90109463D01*
X135664180Y-90050498D01*
X135544482Y-90014188D01*
X135420000Y-90001928D01*
X133820000Y-90001928D01*
X133695518Y-90014188D01*
X133575820Y-90050498D01*
X133465506Y-90109463D01*
X133368815Y-90188815D01*
X133340368Y-90223478D01*
X133323976Y-90210026D01*
X133191947Y-90139454D01*
X133048686Y-90095997D01*
X132937033Y-90085000D01*
X132937022Y-90085000D01*
X132899700Y-90081324D01*
X132862378Y-90085000D01*
X129867313Y-90085000D01*
X129866008Y-90071746D01*
X129824557Y-89935098D01*
X155730000Y-89935098D01*
X155730000Y-90404902D01*
X155821654Y-90865679D01*
X156001440Y-91299721D01*
X156262450Y-91690349D01*
X156594651Y-92022550D01*
X156985279Y-92283560D01*
X157419321Y-92463346D01*
X157880098Y-92555000D01*
X158349902Y-92555000D01*
X158810679Y-92463346D01*
X159244721Y-92283560D01*
X159635349Y-92022550D01*
X159967550Y-91690349D01*
X160228560Y-91299721D01*
X160408346Y-90865679D01*
X160500000Y-90404902D01*
X160500000Y-89935098D01*
X160408346Y-89474321D01*
X160228560Y-89040279D01*
X159967550Y-88649651D01*
X159635349Y-88317450D01*
X159244721Y-88056440D01*
X158810679Y-87876654D01*
X158349902Y-87785000D01*
X157880098Y-87785000D01*
X157419321Y-87876654D01*
X156985279Y-88056440D01*
X156594651Y-88317450D01*
X156262450Y-88649651D01*
X156001440Y-89040279D01*
X155821654Y-89474321D01*
X155730000Y-89935098D01*
X129824557Y-89935098D01*
X129815472Y-89905150D01*
X129733405Y-89751614D01*
X129622962Y-89617038D01*
X129488386Y-89506595D01*
X129334850Y-89424528D01*
X129168254Y-89373992D01*
X128995000Y-89356928D01*
X127545000Y-89356928D01*
X127371746Y-89373992D01*
X127205150Y-89424528D01*
X127051614Y-89506595D01*
X126917038Y-89617038D01*
X126806595Y-89751614D01*
X126724528Y-89905150D01*
X126673992Y-90071746D01*
X126656928Y-90245000D01*
X126656928Y-91445000D01*
X126673992Y-91618254D01*
X126724528Y-91784850D01*
X126806595Y-91938386D01*
X126917038Y-92072962D01*
X127051614Y-92183405D01*
X127156961Y-92239714D01*
X127135571Y-92255951D01*
X126942504Y-92473807D01*
X126795648Y-92725142D01*
X126703524Y-92988110D01*
X126824845Y-93218000D01*
X128143000Y-93218000D01*
X128143000Y-93198000D01*
X128397000Y-93198000D01*
X128397000Y-93218000D01*
X129715155Y-93218000D01*
X129836476Y-92988110D01*
X129744352Y-92725142D01*
X129597496Y-92473807D01*
X129404429Y-92255951D01*
X129383039Y-92239714D01*
X129488386Y-92183405D01*
X129622962Y-92072962D01*
X129733405Y-91938386D01*
X129815472Y-91784850D01*
X129866008Y-91618254D01*
X129867313Y-91605000D01*
X132584899Y-91605000D01*
X132930900Y-91951002D01*
X132954699Y-91980001D01*
X132983697Y-92003799D01*
X133070423Y-92074974D01*
X133181928Y-92134575D01*
X133181928Y-92240000D01*
X133194188Y-92364482D01*
X133230498Y-92484180D01*
X133289463Y-92594494D01*
X133368815Y-92691185D01*
X133465506Y-92770537D01*
X133575820Y-92829502D01*
X133695518Y-92865812D01*
X133713482Y-92867581D01*
X133600392Y-92960392D01*
X133421068Y-93178899D01*
X133287818Y-93428192D01*
X133205764Y-93698691D01*
X133178057Y-93980000D01*
X133205764Y-94261309D01*
X133287818Y-94531808D01*
X133421068Y-94781101D01*
X133600392Y-94999608D01*
X133818899Y-95178932D01*
X133951858Y-95250000D01*
X133818899Y-95321068D01*
X133600392Y-95500392D01*
X133421068Y-95718899D01*
X133287818Y-95968192D01*
X133205764Y-96238691D01*
X133178057Y-96520000D01*
X133205764Y-96801309D01*
X133287818Y-97071808D01*
X133339608Y-97168700D01*
X130023922Y-97168700D01*
X129986599Y-97165024D01*
X129949276Y-97168700D01*
X129949267Y-97168700D01*
X129837614Y-97179697D01*
X129694353Y-97223154D01*
X129562324Y-97293726D01*
X129497178Y-97347190D01*
X129450134Y-97289866D01*
X129224014Y-97104294D01*
X129206626Y-97095000D01*
X129224014Y-97085706D01*
X129450134Y-96900134D01*
X129635706Y-96674014D01*
X129773599Y-96416034D01*
X129858513Y-96136111D01*
X129887185Y-95845000D01*
X129858513Y-95553889D01*
X129773599Y-95273966D01*
X129635706Y-95015986D01*
X129450134Y-94789866D01*
X129224014Y-94604294D01*
X129198278Y-94590538D01*
X129404429Y-94434049D01*
X129597496Y-94216193D01*
X129744352Y-93964858D01*
X129836476Y-93701890D01*
X129715155Y-93472000D01*
X128397000Y-93472000D01*
X128397000Y-93492000D01*
X128143000Y-93492000D01*
X128143000Y-93472000D01*
X126824845Y-93472000D01*
X126703524Y-93701890D01*
X126795648Y-93964858D01*
X126942504Y-94216193D01*
X127135571Y-94434049D01*
X127341722Y-94590538D01*
X127315986Y-94604294D01*
X127089866Y-94789866D01*
X126904294Y-95015986D01*
X126766401Y-95273966D01*
X126681487Y-95553889D01*
X126652815Y-95845000D01*
X114779801Y-95845000D01*
X117546730Y-93078072D01*
X118710000Y-93078072D01*
X118883254Y-93061008D01*
X119049850Y-93010472D01*
X119203386Y-92928405D01*
X119337962Y-92817962D01*
X119448405Y-92683386D01*
X119502914Y-92581407D01*
X119503198Y-92581795D01*
X119717954Y-92778664D01*
X119966991Y-92929854D01*
X120240739Y-93029554D01*
X120253110Y-93031476D01*
X120483000Y-92910155D01*
X120483000Y-91567000D01*
X120737000Y-91567000D01*
X120737000Y-92910155D01*
X120966890Y-93031476D01*
X120979261Y-93029554D01*
X121253009Y-92929854D01*
X121502046Y-92778664D01*
X121716802Y-92581795D01*
X121889025Y-92346812D01*
X122012096Y-92082745D01*
X122081285Y-91799742D01*
X121937232Y-91567000D01*
X120737000Y-91567000D01*
X120483000Y-91567000D01*
X120463000Y-91567000D01*
X120463000Y-91313000D01*
X120483000Y-91313000D01*
X120483000Y-89969845D01*
X120737000Y-89969845D01*
X120737000Y-91313000D01*
X121937232Y-91313000D01*
X122081285Y-91080258D01*
X122012096Y-90797255D01*
X121889025Y-90533188D01*
X121716802Y-90298205D01*
X121502046Y-90101336D01*
X121253009Y-89950146D01*
X120979261Y-89850446D01*
X120966890Y-89848524D01*
X120737000Y-89969845D01*
X120483000Y-89969845D01*
X120253110Y-89848524D01*
X120240739Y-89850446D01*
X119966991Y-89950146D01*
X119717954Y-90101336D01*
X119503198Y-90298205D01*
X119502914Y-90298593D01*
X119448405Y-90196614D01*
X119337962Y-90062038D01*
X119203386Y-89951595D01*
X119049850Y-89869528D01*
X118883254Y-89818992D01*
X118710000Y-89801928D01*
X117510000Y-89801928D01*
X117336746Y-89818992D01*
X117170150Y-89869528D01*
X117016614Y-89951595D01*
X116882038Y-90062038D01*
X116771595Y-90196614D01*
X116689528Y-90350150D01*
X116638992Y-90516746D01*
X116621928Y-90690000D01*
X116621928Y-91853270D01*
X113153998Y-95321201D01*
X113125000Y-95344999D01*
X113101202Y-95373997D01*
X113101201Y-95373998D01*
X113030026Y-95460724D01*
X112959454Y-95592754D01*
X112915998Y-95736015D01*
X112901324Y-95885000D01*
X112905001Y-95922332D01*
X112905000Y-98537091D01*
X112782114Y-98619201D01*
X112589201Y-98812114D01*
X112437629Y-99038957D01*
X112395000Y-99141873D01*
X112352371Y-99038957D01*
X112200799Y-98812114D01*
X112007886Y-98619201D01*
X111781043Y-98467629D01*
X111528989Y-98363225D01*
X111261411Y-98310000D01*
X110988589Y-98310000D01*
X110721011Y-98363225D01*
X110468957Y-98467629D01*
X110242114Y-98619201D01*
X110049201Y-98812114D01*
X109897629Y-99038957D01*
X109793225Y-99291011D01*
X109740000Y-99558589D01*
X108610000Y-99558589D01*
X108610000Y-89935098D01*
X108740000Y-89935098D01*
X108740000Y-90404902D01*
X108831654Y-90865679D01*
X109011440Y-91299721D01*
X109272450Y-91690349D01*
X109604651Y-92022550D01*
X109995279Y-92283560D01*
X110429321Y-92463346D01*
X110890098Y-92555000D01*
X111359902Y-92555000D01*
X111820679Y-92463346D01*
X112254721Y-92283560D01*
X112645349Y-92022550D01*
X112977550Y-91690349D01*
X113238560Y-91299721D01*
X113418346Y-90865679D01*
X113510000Y-90404902D01*
X113510000Y-89935098D01*
X113418346Y-89474321D01*
X113238560Y-89040279D01*
X112977550Y-88649651D01*
X112645349Y-88317450D01*
X112254721Y-88056440D01*
X111820679Y-87876654D01*
X111359902Y-87785000D01*
X110890098Y-87785000D01*
X110429321Y-87876654D01*
X109995279Y-88056440D01*
X109604651Y-88317450D01*
X109272450Y-88649651D01*
X109011440Y-89040279D01*
X108831654Y-89474321D01*
X108740000Y-89935098D01*
X108610000Y-89935098D01*
X108610000Y-88932277D01*
X108636815Y-88658796D01*
X108706867Y-88426774D01*
X108820650Y-88212778D01*
X108973832Y-88024959D01*
X109160577Y-87870470D01*
X109373769Y-87755199D01*
X109605300Y-87683528D01*
X109876725Y-87655000D01*
X159352723Y-87655000D01*
X159626204Y-87681815D01*
M02*
