G04 #@! TF.GenerationSoftware,KiCad,Pcbnew,(5.1.2)-2*
G04 #@! TF.CreationDate,2021-05-31T16:07:44+09:00*
G04 #@! TF.ProjectId,enc_can_2,656e635f-6361-46e5-9f32-2e6b69636164,rev?*
G04 #@! TF.SameCoordinates,Original*
G04 #@! TF.FileFunction,Legend,Top*
G04 #@! TF.FilePolarity,Positive*
%FSLAX46Y46*%
G04 Gerber Fmt 4.6, Leading zero omitted, Abs format (unit mm)*
G04 Created by KiCad (PCBNEW (5.1.2)-2) date 2021-05-31 16:07:44*
%MOMM*%
%LPD*%
G04 APERTURE LIST*
%ADD10C,0.120000*%
%ADD11C,0.150000*%
G04 APERTURE END LIST*
D10*
X161115000Y-129540000D02*
G75*
G03X161115000Y-129540000I-3000000J0D01*
G01*
X114125000Y-129540000D02*
G75*
G03X114125000Y-129540000I-3000000J0D01*
G01*
X161115000Y-90170000D02*
G75*
G03X161115000Y-90170000I-3000000J0D01*
G01*
X114125000Y-90170000D02*
G75*
G03X114125000Y-90170000I-3000000J0D01*
G01*
X135890000Y-92710000D02*
X135890000Y-90170000D01*
X135890000Y-90170000D02*
X133220000Y-90170000D01*
X133220000Y-92710000D02*
X133220000Y-130940000D01*
X133220000Y-87500000D02*
X133220000Y-90170000D01*
X148590000Y-90170000D02*
X151260000Y-90170000D01*
X148590000Y-90170000D02*
X148590000Y-128270000D01*
X148590000Y-128270000D02*
X151260000Y-128270000D01*
X135890000Y-92710000D02*
X133220000Y-92710000D01*
X135890000Y-92710000D02*
X135890000Y-128270000D01*
X135890000Y-128270000D02*
X133220000Y-128270000D01*
X133220000Y-130940000D02*
X151260000Y-130940000D01*
X151260000Y-130940000D02*
X151260000Y-87500000D01*
X151260000Y-87500000D02*
X133220000Y-87500000D01*
X117805000Y-108585000D02*
G75*
G03X117805000Y-108585000I-4120000J0D01*
G01*
X113685000Y-104505000D02*
X113685000Y-112665000D01*
X113725000Y-104505000D02*
X113725000Y-112665000D01*
X113765000Y-104505000D02*
X113765000Y-112665000D01*
X113805000Y-104506000D02*
X113805000Y-112664000D01*
X113845000Y-104508000D02*
X113845000Y-112662000D01*
X113885000Y-104509000D02*
X113885000Y-112661000D01*
X113925000Y-104511000D02*
X113925000Y-107545000D01*
X113925000Y-109625000D02*
X113925000Y-112659000D01*
X113965000Y-104514000D02*
X113965000Y-107545000D01*
X113965000Y-109625000D02*
X113965000Y-112656000D01*
X114005000Y-104517000D02*
X114005000Y-107545000D01*
X114005000Y-109625000D02*
X114005000Y-112653000D01*
X114045000Y-104520000D02*
X114045000Y-107545000D01*
X114045000Y-109625000D02*
X114045000Y-112650000D01*
X114085000Y-104524000D02*
X114085000Y-107545000D01*
X114085000Y-109625000D02*
X114085000Y-112646000D01*
X114125000Y-104528000D02*
X114125000Y-107545000D01*
X114125000Y-109625000D02*
X114125000Y-112642000D01*
X114165000Y-104533000D02*
X114165000Y-107545000D01*
X114165000Y-109625000D02*
X114165000Y-112637000D01*
X114205000Y-104537000D02*
X114205000Y-107545000D01*
X114205000Y-109625000D02*
X114205000Y-112633000D01*
X114245000Y-104543000D02*
X114245000Y-107545000D01*
X114245000Y-109625000D02*
X114245000Y-112627000D01*
X114285000Y-104548000D02*
X114285000Y-107545000D01*
X114285000Y-109625000D02*
X114285000Y-112622000D01*
X114325000Y-104555000D02*
X114325000Y-107545000D01*
X114325000Y-109625000D02*
X114325000Y-112615000D01*
X114365000Y-104561000D02*
X114365000Y-107545000D01*
X114365000Y-109625000D02*
X114365000Y-112609000D01*
X114406000Y-104568000D02*
X114406000Y-107545000D01*
X114406000Y-109625000D02*
X114406000Y-112602000D01*
X114446000Y-104575000D02*
X114446000Y-107545000D01*
X114446000Y-109625000D02*
X114446000Y-112595000D01*
X114486000Y-104583000D02*
X114486000Y-107545000D01*
X114486000Y-109625000D02*
X114486000Y-112587000D01*
X114526000Y-104591000D02*
X114526000Y-107545000D01*
X114526000Y-109625000D02*
X114526000Y-112579000D01*
X114566000Y-104600000D02*
X114566000Y-107545000D01*
X114566000Y-109625000D02*
X114566000Y-112570000D01*
X114606000Y-104609000D02*
X114606000Y-107545000D01*
X114606000Y-109625000D02*
X114606000Y-112561000D01*
X114646000Y-104618000D02*
X114646000Y-107545000D01*
X114646000Y-109625000D02*
X114646000Y-112552000D01*
X114686000Y-104628000D02*
X114686000Y-107545000D01*
X114686000Y-109625000D02*
X114686000Y-112542000D01*
X114726000Y-104638000D02*
X114726000Y-107545000D01*
X114726000Y-109625000D02*
X114726000Y-112532000D01*
X114766000Y-104649000D02*
X114766000Y-107545000D01*
X114766000Y-109625000D02*
X114766000Y-112521000D01*
X114806000Y-104660000D02*
X114806000Y-107545000D01*
X114806000Y-109625000D02*
X114806000Y-112510000D01*
X114846000Y-104671000D02*
X114846000Y-107545000D01*
X114846000Y-109625000D02*
X114846000Y-112499000D01*
X114886000Y-104683000D02*
X114886000Y-107545000D01*
X114886000Y-109625000D02*
X114886000Y-112487000D01*
X114926000Y-104696000D02*
X114926000Y-107545000D01*
X114926000Y-109625000D02*
X114926000Y-112474000D01*
X114966000Y-104708000D02*
X114966000Y-107545000D01*
X114966000Y-109625000D02*
X114966000Y-112462000D01*
X115006000Y-104722000D02*
X115006000Y-107545000D01*
X115006000Y-109625000D02*
X115006000Y-112448000D01*
X115046000Y-104735000D02*
X115046000Y-107545000D01*
X115046000Y-109625000D02*
X115046000Y-112435000D01*
X115086000Y-104750000D02*
X115086000Y-107545000D01*
X115086000Y-109625000D02*
X115086000Y-112420000D01*
X115126000Y-104764000D02*
X115126000Y-107545000D01*
X115126000Y-109625000D02*
X115126000Y-112406000D01*
X115166000Y-104780000D02*
X115166000Y-107545000D01*
X115166000Y-109625000D02*
X115166000Y-112390000D01*
X115206000Y-104795000D02*
X115206000Y-107545000D01*
X115206000Y-109625000D02*
X115206000Y-112375000D01*
X115246000Y-104811000D02*
X115246000Y-107545000D01*
X115246000Y-109625000D02*
X115246000Y-112359000D01*
X115286000Y-104828000D02*
X115286000Y-107545000D01*
X115286000Y-109625000D02*
X115286000Y-112342000D01*
X115326000Y-104845000D02*
X115326000Y-107545000D01*
X115326000Y-109625000D02*
X115326000Y-112325000D01*
X115366000Y-104863000D02*
X115366000Y-107545000D01*
X115366000Y-109625000D02*
X115366000Y-112307000D01*
X115406000Y-104881000D02*
X115406000Y-107545000D01*
X115406000Y-109625000D02*
X115406000Y-112289000D01*
X115446000Y-104899000D02*
X115446000Y-107545000D01*
X115446000Y-109625000D02*
X115446000Y-112271000D01*
X115486000Y-104919000D02*
X115486000Y-107545000D01*
X115486000Y-109625000D02*
X115486000Y-112251000D01*
X115526000Y-104938000D02*
X115526000Y-107545000D01*
X115526000Y-109625000D02*
X115526000Y-112232000D01*
X115566000Y-104958000D02*
X115566000Y-107545000D01*
X115566000Y-109625000D02*
X115566000Y-112212000D01*
X115606000Y-104979000D02*
X115606000Y-107545000D01*
X115606000Y-109625000D02*
X115606000Y-112191000D01*
X115646000Y-105001000D02*
X115646000Y-107545000D01*
X115646000Y-109625000D02*
X115646000Y-112169000D01*
X115686000Y-105023000D02*
X115686000Y-107545000D01*
X115686000Y-109625000D02*
X115686000Y-112147000D01*
X115726000Y-105045000D02*
X115726000Y-107545000D01*
X115726000Y-109625000D02*
X115726000Y-112125000D01*
X115766000Y-105068000D02*
X115766000Y-107545000D01*
X115766000Y-109625000D02*
X115766000Y-112102000D01*
X115806000Y-105092000D02*
X115806000Y-107545000D01*
X115806000Y-109625000D02*
X115806000Y-112078000D01*
X115846000Y-105116000D02*
X115846000Y-107545000D01*
X115846000Y-109625000D02*
X115846000Y-112054000D01*
X115886000Y-105141000D02*
X115886000Y-107545000D01*
X115886000Y-109625000D02*
X115886000Y-112029000D01*
X115926000Y-105167000D02*
X115926000Y-107545000D01*
X115926000Y-109625000D02*
X115926000Y-112003000D01*
X115966000Y-105193000D02*
X115966000Y-107545000D01*
X115966000Y-109625000D02*
X115966000Y-111977000D01*
X116006000Y-105220000D02*
X116006000Y-111950000D01*
X116046000Y-105247000D02*
X116046000Y-111923000D01*
X116086000Y-105276000D02*
X116086000Y-111894000D01*
X116126000Y-105305000D02*
X116126000Y-111865000D01*
X116166000Y-105335000D02*
X116166000Y-111835000D01*
X116206000Y-105365000D02*
X116206000Y-111805000D01*
X116246000Y-105396000D02*
X116246000Y-111774000D01*
X116286000Y-105429000D02*
X116286000Y-111741000D01*
X116326000Y-105461000D02*
X116326000Y-111709000D01*
X116366000Y-105495000D02*
X116366000Y-111675000D01*
X116406000Y-105530000D02*
X116406000Y-111640000D01*
X116446000Y-105566000D02*
X116446000Y-111604000D01*
X116486000Y-105602000D02*
X116486000Y-111568000D01*
X116526000Y-105640000D02*
X116526000Y-111530000D01*
X116566000Y-105678000D02*
X116566000Y-111492000D01*
X116606000Y-105718000D02*
X116606000Y-111452000D01*
X116646000Y-105759000D02*
X116646000Y-111411000D01*
X116686000Y-105801000D02*
X116686000Y-111369000D01*
X116726000Y-105844000D02*
X116726000Y-111326000D01*
X116766000Y-105888000D02*
X116766000Y-111282000D01*
X116806000Y-105934000D02*
X116806000Y-111236000D01*
X116846000Y-105981000D02*
X116846000Y-111189000D01*
X116886000Y-106029000D02*
X116886000Y-111141000D01*
X116926000Y-106080000D02*
X116926000Y-111090000D01*
X116966000Y-106131000D02*
X116966000Y-111039000D01*
X117006000Y-106185000D02*
X117006000Y-110985000D01*
X117046000Y-106240000D02*
X117046000Y-110930000D01*
X117086000Y-106298000D02*
X117086000Y-110872000D01*
X117126000Y-106357000D02*
X117126000Y-110813000D01*
X117166000Y-106419000D02*
X117166000Y-110751000D01*
X117206000Y-106483000D02*
X117206000Y-110687000D01*
X117246000Y-106551000D02*
X117246000Y-110619000D01*
X117286000Y-106621000D02*
X117286000Y-110549000D01*
X117326000Y-106695000D02*
X117326000Y-110475000D01*
X117366000Y-106772000D02*
X117366000Y-110398000D01*
X117406000Y-106854000D02*
X117406000Y-110316000D01*
X117446000Y-106940000D02*
X117446000Y-110230000D01*
X117486000Y-107033000D02*
X117486000Y-110137000D01*
X117526000Y-107132000D02*
X117526000Y-110038000D01*
X117566000Y-107239000D02*
X117566000Y-109931000D01*
X117606000Y-107356000D02*
X117606000Y-109814000D01*
X117646000Y-107487000D02*
X117646000Y-109683000D01*
X117686000Y-107637000D02*
X117686000Y-109533000D01*
X117726000Y-107817000D02*
X117726000Y-109353000D01*
X117766000Y-108052000D02*
X117766000Y-109118000D01*
X109275302Y-106270000D02*
X110075302Y-106270000D01*
X109675302Y-105870000D02*
X109675302Y-106670000D01*
X129350000Y-120015000D02*
G75*
G03X129350000Y-120015000I-2620000J0D01*
G01*
X126730000Y-121055000D02*
X126730000Y-122595000D01*
X126730000Y-117435000D02*
X126730000Y-118975000D01*
X126770000Y-121055000D02*
X126770000Y-122595000D01*
X126770000Y-117435000D02*
X126770000Y-118975000D01*
X126810000Y-117436000D02*
X126810000Y-118975000D01*
X126810000Y-121055000D02*
X126810000Y-122594000D01*
X126850000Y-117437000D02*
X126850000Y-118975000D01*
X126850000Y-121055000D02*
X126850000Y-122593000D01*
X126890000Y-117439000D02*
X126890000Y-118975000D01*
X126890000Y-121055000D02*
X126890000Y-122591000D01*
X126930000Y-117442000D02*
X126930000Y-118975000D01*
X126930000Y-121055000D02*
X126930000Y-122588000D01*
X126970000Y-117446000D02*
X126970000Y-118975000D01*
X126970000Y-121055000D02*
X126970000Y-122584000D01*
X127010000Y-117450000D02*
X127010000Y-118975000D01*
X127010000Y-121055000D02*
X127010000Y-122580000D01*
X127050000Y-117454000D02*
X127050000Y-118975000D01*
X127050000Y-121055000D02*
X127050000Y-122576000D01*
X127090000Y-117459000D02*
X127090000Y-118975000D01*
X127090000Y-121055000D02*
X127090000Y-122571000D01*
X127130000Y-117465000D02*
X127130000Y-118975000D01*
X127130000Y-121055000D02*
X127130000Y-122565000D01*
X127170000Y-117472000D02*
X127170000Y-118975000D01*
X127170000Y-121055000D02*
X127170000Y-122558000D01*
X127210000Y-117479000D02*
X127210000Y-118975000D01*
X127210000Y-121055000D02*
X127210000Y-122551000D01*
X127250000Y-117487000D02*
X127250000Y-118975000D01*
X127250000Y-121055000D02*
X127250000Y-122543000D01*
X127290000Y-117495000D02*
X127290000Y-118975000D01*
X127290000Y-121055000D02*
X127290000Y-122535000D01*
X127330000Y-117504000D02*
X127330000Y-118975000D01*
X127330000Y-121055000D02*
X127330000Y-122526000D01*
X127370000Y-117514000D02*
X127370000Y-118975000D01*
X127370000Y-121055000D02*
X127370000Y-122516000D01*
X127410000Y-117524000D02*
X127410000Y-118975000D01*
X127410000Y-121055000D02*
X127410000Y-122506000D01*
X127451000Y-117535000D02*
X127451000Y-118975000D01*
X127451000Y-121055000D02*
X127451000Y-122495000D01*
X127491000Y-117547000D02*
X127491000Y-118975000D01*
X127491000Y-121055000D02*
X127491000Y-122483000D01*
X127531000Y-117560000D02*
X127531000Y-118975000D01*
X127531000Y-121055000D02*
X127531000Y-122470000D01*
X127571000Y-117573000D02*
X127571000Y-118975000D01*
X127571000Y-121055000D02*
X127571000Y-122457000D01*
X127611000Y-117587000D02*
X127611000Y-118975000D01*
X127611000Y-121055000D02*
X127611000Y-122443000D01*
X127651000Y-117601000D02*
X127651000Y-118975000D01*
X127651000Y-121055000D02*
X127651000Y-122429000D01*
X127691000Y-117617000D02*
X127691000Y-118975000D01*
X127691000Y-121055000D02*
X127691000Y-122413000D01*
X127731000Y-117633000D02*
X127731000Y-118975000D01*
X127731000Y-121055000D02*
X127731000Y-122397000D01*
X127771000Y-117650000D02*
X127771000Y-118975000D01*
X127771000Y-121055000D02*
X127771000Y-122380000D01*
X127811000Y-117667000D02*
X127811000Y-118975000D01*
X127811000Y-121055000D02*
X127811000Y-122363000D01*
X127851000Y-117686000D02*
X127851000Y-118975000D01*
X127851000Y-121055000D02*
X127851000Y-122344000D01*
X127891000Y-117705000D02*
X127891000Y-118975000D01*
X127891000Y-121055000D02*
X127891000Y-122325000D01*
X127931000Y-117725000D02*
X127931000Y-118975000D01*
X127931000Y-121055000D02*
X127931000Y-122305000D01*
X127971000Y-117747000D02*
X127971000Y-118975000D01*
X127971000Y-121055000D02*
X127971000Y-122283000D01*
X128011000Y-117768000D02*
X128011000Y-118975000D01*
X128011000Y-121055000D02*
X128011000Y-122262000D01*
X128051000Y-117791000D02*
X128051000Y-118975000D01*
X128051000Y-121055000D02*
X128051000Y-122239000D01*
X128091000Y-117815000D02*
X128091000Y-118975000D01*
X128091000Y-121055000D02*
X128091000Y-122215000D01*
X128131000Y-117840000D02*
X128131000Y-118975000D01*
X128131000Y-121055000D02*
X128131000Y-122190000D01*
X128171000Y-117866000D02*
X128171000Y-118975000D01*
X128171000Y-121055000D02*
X128171000Y-122164000D01*
X128211000Y-117893000D02*
X128211000Y-118975000D01*
X128211000Y-121055000D02*
X128211000Y-122137000D01*
X128251000Y-117920000D02*
X128251000Y-118975000D01*
X128251000Y-121055000D02*
X128251000Y-122110000D01*
X128291000Y-117950000D02*
X128291000Y-118975000D01*
X128291000Y-121055000D02*
X128291000Y-122080000D01*
X128331000Y-117980000D02*
X128331000Y-118975000D01*
X128331000Y-121055000D02*
X128331000Y-122050000D01*
X128371000Y-118011000D02*
X128371000Y-118975000D01*
X128371000Y-121055000D02*
X128371000Y-122019000D01*
X128411000Y-118044000D02*
X128411000Y-118975000D01*
X128411000Y-121055000D02*
X128411000Y-121986000D01*
X128451000Y-118078000D02*
X128451000Y-118975000D01*
X128451000Y-121055000D02*
X128451000Y-121952000D01*
X128491000Y-118114000D02*
X128491000Y-118975000D01*
X128491000Y-121055000D02*
X128491000Y-121916000D01*
X128531000Y-118151000D02*
X128531000Y-118975000D01*
X128531000Y-121055000D02*
X128531000Y-121879000D01*
X128571000Y-118189000D02*
X128571000Y-118975000D01*
X128571000Y-121055000D02*
X128571000Y-121841000D01*
X128611000Y-118230000D02*
X128611000Y-118975000D01*
X128611000Y-121055000D02*
X128611000Y-121800000D01*
X128651000Y-118272000D02*
X128651000Y-118975000D01*
X128651000Y-121055000D02*
X128651000Y-121758000D01*
X128691000Y-118316000D02*
X128691000Y-118975000D01*
X128691000Y-121055000D02*
X128691000Y-121714000D01*
X128731000Y-118362000D02*
X128731000Y-118975000D01*
X128731000Y-121055000D02*
X128731000Y-121668000D01*
X128771000Y-118410000D02*
X128771000Y-121620000D01*
X128811000Y-118461000D02*
X128811000Y-121569000D01*
X128851000Y-118515000D02*
X128851000Y-121515000D01*
X128891000Y-118572000D02*
X128891000Y-121458000D01*
X128931000Y-118632000D02*
X128931000Y-121398000D01*
X128971000Y-118696000D02*
X128971000Y-121334000D01*
X129011000Y-118764000D02*
X129011000Y-121266000D01*
X129051000Y-118837000D02*
X129051000Y-121193000D01*
X129091000Y-118917000D02*
X129091000Y-121113000D01*
X129131000Y-119004000D02*
X129131000Y-121026000D01*
X129171000Y-119100000D02*
X129171000Y-120930000D01*
X129211000Y-119210000D02*
X129211000Y-120820000D01*
X129251000Y-119338000D02*
X129251000Y-120692000D01*
X129291000Y-119497000D02*
X129291000Y-120533000D01*
X129331000Y-119731000D02*
X129331000Y-120299000D01*
X123925225Y-118540000D02*
X124425225Y-118540000D01*
X124175225Y-118290000D02*
X124175225Y-118790000D01*
X115550000Y-88980000D02*
X115550000Y-94950000D01*
X115550000Y-94950000D02*
X123170000Y-94950000D01*
X123170000Y-94950000D02*
X123170000Y-88980000D01*
X123170000Y-88980000D02*
X115550000Y-88980000D01*
X118860000Y-88990000D02*
X118860000Y-89740000D01*
X118860000Y-89740000D02*
X119860000Y-89740000D01*
X119860000Y-89740000D02*
X119860000Y-88990000D01*
X119860000Y-88990000D02*
X118860000Y-88990000D01*
X115560000Y-88990000D02*
X115560000Y-89740000D01*
X115560000Y-89740000D02*
X117360000Y-89740000D01*
X117360000Y-89740000D02*
X117360000Y-88990000D01*
X117360000Y-88990000D02*
X115560000Y-88990000D01*
X121360000Y-88990000D02*
X121360000Y-89740000D01*
X121360000Y-89740000D02*
X123160000Y-89740000D01*
X123160000Y-89740000D02*
X123160000Y-88990000D01*
X123160000Y-88990000D02*
X121360000Y-88990000D01*
X115560000Y-91240000D02*
X116310000Y-91240000D01*
X116310000Y-91240000D02*
X116310000Y-94190000D01*
X116310000Y-94190000D02*
X119360000Y-94190000D01*
X123160000Y-91240000D02*
X122410000Y-91240000D01*
X122410000Y-91240000D02*
X122410000Y-94190000D01*
X122410000Y-94190000D02*
X119360000Y-94190000D01*
X116510000Y-88690000D02*
X115260000Y-88690000D01*
X115260000Y-88690000D02*
X115260000Y-89940000D01*
X130730000Y-88285000D02*
X124760000Y-88285000D01*
X124760000Y-88285000D02*
X124760000Y-100905000D01*
X124760000Y-100905000D02*
X130730000Y-100905000D01*
X130730000Y-100905000D02*
X130730000Y-88285000D01*
X130720000Y-91595000D02*
X129970000Y-91595000D01*
X129970000Y-91595000D02*
X129970000Y-97595000D01*
X129970000Y-97595000D02*
X130720000Y-97595000D01*
X130720000Y-97595000D02*
X130720000Y-91595000D01*
X130720000Y-88295000D02*
X129970000Y-88295000D01*
X129970000Y-88295000D02*
X129970000Y-90095000D01*
X129970000Y-90095000D02*
X130720000Y-90095000D01*
X130720000Y-90095000D02*
X130720000Y-88295000D01*
X130720000Y-99095000D02*
X129970000Y-99095000D01*
X129970000Y-99095000D02*
X129970000Y-100895000D01*
X129970000Y-100895000D02*
X130720000Y-100895000D01*
X130720000Y-100895000D02*
X130720000Y-99095000D01*
X128470000Y-88295000D02*
X128470000Y-89045000D01*
X128470000Y-89045000D02*
X125520000Y-89045000D01*
X125520000Y-89045000D02*
X125520000Y-94595000D01*
X128470000Y-100895000D02*
X128470000Y-100145000D01*
X128470000Y-100145000D02*
X125520000Y-100145000D01*
X125520000Y-100145000D02*
X125520000Y-94595000D01*
X131020000Y-89245000D02*
X131020000Y-87995000D01*
X131020000Y-87995000D02*
X129770000Y-87995000D01*
X154385000Y-125750000D02*
X160355000Y-125750000D01*
X160355000Y-125750000D02*
X160355000Y-113130000D01*
X160355000Y-113130000D02*
X154385000Y-113130000D01*
X154385000Y-113130000D02*
X154385000Y-125750000D01*
X154395000Y-122440000D02*
X155145000Y-122440000D01*
X155145000Y-122440000D02*
X155145000Y-116440000D01*
X155145000Y-116440000D02*
X154395000Y-116440000D01*
X154395000Y-116440000D02*
X154395000Y-122440000D01*
X154395000Y-125740000D02*
X155145000Y-125740000D01*
X155145000Y-125740000D02*
X155145000Y-123940000D01*
X155145000Y-123940000D02*
X154395000Y-123940000D01*
X154395000Y-123940000D02*
X154395000Y-125740000D01*
X154395000Y-114940000D02*
X155145000Y-114940000D01*
X155145000Y-114940000D02*
X155145000Y-113140000D01*
X155145000Y-113140000D02*
X154395000Y-113140000D01*
X154395000Y-113140000D02*
X154395000Y-114940000D01*
X156645000Y-125740000D02*
X156645000Y-124990000D01*
X156645000Y-124990000D02*
X159595000Y-124990000D01*
X159595000Y-124990000D02*
X159595000Y-119440000D01*
X156645000Y-113140000D02*
X156645000Y-113890000D01*
X156645000Y-113890000D02*
X159595000Y-113890000D01*
X159595000Y-113890000D02*
X159595000Y-119440000D01*
X154095000Y-124790000D02*
X154095000Y-126040000D01*
X154095000Y-126040000D02*
X155345000Y-126040000D01*
X154095000Y-108895000D02*
X155345000Y-108895000D01*
X154095000Y-107645000D02*
X154095000Y-108895000D01*
X159595000Y-96745000D02*
X159595000Y-102295000D01*
X156645000Y-96745000D02*
X159595000Y-96745000D01*
X156645000Y-95995000D02*
X156645000Y-96745000D01*
X159595000Y-107845000D02*
X159595000Y-102295000D01*
X156645000Y-107845000D02*
X159595000Y-107845000D01*
X156645000Y-108595000D02*
X156645000Y-107845000D01*
X154395000Y-95995000D02*
X154395000Y-97795000D01*
X155145000Y-95995000D02*
X154395000Y-95995000D01*
X155145000Y-97795000D02*
X155145000Y-95995000D01*
X154395000Y-97795000D02*
X155145000Y-97795000D01*
X154395000Y-106795000D02*
X154395000Y-108595000D01*
X155145000Y-106795000D02*
X154395000Y-106795000D01*
X155145000Y-108595000D02*
X155145000Y-106795000D01*
X154395000Y-108595000D02*
X155145000Y-108595000D01*
X154395000Y-99295000D02*
X154395000Y-105295000D01*
X155145000Y-99295000D02*
X154395000Y-99295000D01*
X155145000Y-105295000D02*
X155145000Y-99295000D01*
X154395000Y-105295000D02*
X155145000Y-105295000D01*
X154385000Y-95985000D02*
X154385000Y-108605000D01*
X160355000Y-95985000D02*
X154385000Y-95985000D01*
X160355000Y-108605000D02*
X160355000Y-95985000D01*
X154385000Y-108605000D02*
X160355000Y-108605000D01*
X124150000Y-125520000D02*
X124150000Y-126770000D01*
X125400000Y-125520000D02*
X124150000Y-125520000D01*
X131300000Y-131020000D02*
X128250000Y-131020000D01*
X131300000Y-128070000D02*
X131300000Y-131020000D01*
X132050000Y-128070000D02*
X131300000Y-128070000D01*
X125200000Y-131020000D02*
X128250000Y-131020000D01*
X125200000Y-128070000D02*
X125200000Y-131020000D01*
X124450000Y-128070000D02*
X125200000Y-128070000D01*
X132050000Y-125820000D02*
X130250000Y-125820000D01*
X132050000Y-126570000D02*
X132050000Y-125820000D01*
X130250000Y-126570000D02*
X132050000Y-126570000D01*
X130250000Y-125820000D02*
X130250000Y-126570000D01*
X126250000Y-125820000D02*
X124450000Y-125820000D01*
X126250000Y-126570000D02*
X126250000Y-125820000D01*
X124450000Y-126570000D02*
X126250000Y-126570000D01*
X124450000Y-125820000D02*
X124450000Y-126570000D01*
X128750000Y-125820000D02*
X127750000Y-125820000D01*
X128750000Y-126570000D02*
X128750000Y-125820000D01*
X127750000Y-126570000D02*
X128750000Y-126570000D01*
X127750000Y-125820000D02*
X127750000Y-126570000D01*
X132060000Y-125810000D02*
X124440000Y-125810000D01*
X132060000Y-131780000D02*
X132060000Y-125810000D01*
X124440000Y-131780000D02*
X132060000Y-131780000D01*
X124440000Y-125810000D02*
X124440000Y-131780000D01*
X114955000Y-125810000D02*
X114955000Y-131780000D01*
X114955000Y-131780000D02*
X122575000Y-131780000D01*
X122575000Y-131780000D02*
X122575000Y-125810000D01*
X122575000Y-125810000D02*
X114955000Y-125810000D01*
X118265000Y-125820000D02*
X118265000Y-126570000D01*
X118265000Y-126570000D02*
X119265000Y-126570000D01*
X119265000Y-126570000D02*
X119265000Y-125820000D01*
X119265000Y-125820000D02*
X118265000Y-125820000D01*
X114965000Y-125820000D02*
X114965000Y-126570000D01*
X114965000Y-126570000D02*
X116765000Y-126570000D01*
X116765000Y-126570000D02*
X116765000Y-125820000D01*
X116765000Y-125820000D02*
X114965000Y-125820000D01*
X120765000Y-125820000D02*
X120765000Y-126570000D01*
X120765000Y-126570000D02*
X122565000Y-126570000D01*
X122565000Y-126570000D02*
X122565000Y-125820000D01*
X122565000Y-125820000D02*
X120765000Y-125820000D01*
X114965000Y-128070000D02*
X115715000Y-128070000D01*
X115715000Y-128070000D02*
X115715000Y-131020000D01*
X115715000Y-131020000D02*
X118765000Y-131020000D01*
X122565000Y-128070000D02*
X121815000Y-128070000D01*
X121815000Y-128070000D02*
X121815000Y-131020000D01*
X121815000Y-131020000D02*
X118765000Y-131020000D01*
X115915000Y-125520000D02*
X114665000Y-125520000D01*
X114665000Y-125520000D02*
X114665000Y-126770000D01*
X126527779Y-111635000D02*
X126202221Y-111635000D01*
X126527779Y-110615000D02*
X126202221Y-110615000D01*
X126202221Y-108460000D02*
X126527779Y-108460000D01*
X126202221Y-107440000D02*
X126527779Y-107440000D01*
X108585000Y-97790000D02*
X108585000Y-101600000D01*
X108585000Y-101600000D02*
X118745000Y-101600000D01*
X118745000Y-101600000D02*
X118745000Y-97790000D01*
X108585000Y-97790000D02*
X118745000Y-97790000D01*
X113330000Y-116565000D02*
X111830000Y-116565000D01*
X111830000Y-116565000D02*
X111830000Y-116835000D01*
X111830000Y-116835000D02*
X109000000Y-116835000D01*
X113330000Y-123465000D02*
X111830000Y-123465000D01*
X111830000Y-123465000D02*
X111830000Y-123195000D01*
X111830000Y-123195000D02*
X110730000Y-123195000D01*
X125365000Y-114360000D02*
G75*
G02X127365000Y-114360000I1000000J0D01*
G01*
X127365000Y-114360000D02*
X129015000Y-114360000D01*
X129015000Y-114360000D02*
X129015000Y-104080000D01*
X129015000Y-104080000D02*
X123715000Y-104080000D01*
X123715000Y-104080000D02*
X123715000Y-114360000D01*
X123715000Y-114360000D02*
X125365000Y-114360000D01*
X131505000Y-114420000D02*
X131505000Y-104020000D01*
X131505000Y-104020000D02*
X121225000Y-104020000D01*
X121225000Y-104020000D02*
X121225000Y-114420000D01*
X121225000Y-114420000D02*
X131505000Y-114420000D01*
D11*
X156781666Y-131592380D02*
X156448333Y-131116190D01*
X156210238Y-131592380D02*
X156210238Y-130592380D01*
X156591190Y-130592380D01*
X156686428Y-130640000D01*
X156734047Y-130687619D01*
X156781666Y-130782857D01*
X156781666Y-130925714D01*
X156734047Y-131020952D01*
X156686428Y-131068571D01*
X156591190Y-131116190D01*
X156210238Y-131116190D01*
X157210238Y-131068571D02*
X157543571Y-131068571D01*
X157686428Y-131592380D02*
X157210238Y-131592380D01*
X157210238Y-130592380D01*
X157686428Y-130592380D01*
X158448333Y-131068571D02*
X158115000Y-131068571D01*
X158115000Y-131592380D02*
X158115000Y-130592380D01*
X158591190Y-130592380D01*
X159115000Y-130592380D02*
X159115000Y-130830476D01*
X158876904Y-130735238D02*
X159115000Y-130830476D01*
X159353095Y-130735238D01*
X158972142Y-131020952D02*
X159115000Y-130830476D01*
X159257857Y-131020952D01*
X159876904Y-130592380D02*
X159876904Y-130830476D01*
X159638809Y-130735238D02*
X159876904Y-130830476D01*
X160115000Y-130735238D01*
X159734047Y-131020952D02*
X159876904Y-130830476D01*
X160019761Y-131020952D01*
X109791666Y-131592380D02*
X109458333Y-131116190D01*
X109220238Y-131592380D02*
X109220238Y-130592380D01*
X109601190Y-130592380D01*
X109696428Y-130640000D01*
X109744047Y-130687619D01*
X109791666Y-130782857D01*
X109791666Y-130925714D01*
X109744047Y-131020952D01*
X109696428Y-131068571D01*
X109601190Y-131116190D01*
X109220238Y-131116190D01*
X110220238Y-131068571D02*
X110553571Y-131068571D01*
X110696428Y-131592380D02*
X110220238Y-131592380D01*
X110220238Y-130592380D01*
X110696428Y-130592380D01*
X111458333Y-131068571D02*
X111125000Y-131068571D01*
X111125000Y-131592380D02*
X111125000Y-130592380D01*
X111601190Y-130592380D01*
X112125000Y-130592380D02*
X112125000Y-130830476D01*
X111886904Y-130735238D02*
X112125000Y-130830476D01*
X112363095Y-130735238D01*
X111982142Y-131020952D02*
X112125000Y-130830476D01*
X112267857Y-131020952D01*
X112886904Y-130592380D02*
X112886904Y-130830476D01*
X112648809Y-130735238D02*
X112886904Y-130830476D01*
X113125000Y-130735238D01*
X112744047Y-131020952D02*
X112886904Y-130830476D01*
X113029761Y-131020952D01*
X156781666Y-92222380D02*
X156448333Y-91746190D01*
X156210238Y-92222380D02*
X156210238Y-91222380D01*
X156591190Y-91222380D01*
X156686428Y-91270000D01*
X156734047Y-91317619D01*
X156781666Y-91412857D01*
X156781666Y-91555714D01*
X156734047Y-91650952D01*
X156686428Y-91698571D01*
X156591190Y-91746190D01*
X156210238Y-91746190D01*
X157210238Y-91698571D02*
X157543571Y-91698571D01*
X157686428Y-92222380D02*
X157210238Y-92222380D01*
X157210238Y-91222380D01*
X157686428Y-91222380D01*
X158448333Y-91698571D02*
X158115000Y-91698571D01*
X158115000Y-92222380D02*
X158115000Y-91222380D01*
X158591190Y-91222380D01*
X159115000Y-91222380D02*
X159115000Y-91460476D01*
X158876904Y-91365238D02*
X159115000Y-91460476D01*
X159353095Y-91365238D01*
X158972142Y-91650952D02*
X159115000Y-91460476D01*
X159257857Y-91650952D01*
X159876904Y-91222380D02*
X159876904Y-91460476D01*
X159638809Y-91365238D02*
X159876904Y-91460476D01*
X160115000Y-91365238D01*
X159734047Y-91650952D02*
X159876904Y-91460476D01*
X160019761Y-91650952D01*
X109791666Y-92222380D02*
X109458333Y-91746190D01*
X109220238Y-92222380D02*
X109220238Y-91222380D01*
X109601190Y-91222380D01*
X109696428Y-91270000D01*
X109744047Y-91317619D01*
X109791666Y-91412857D01*
X109791666Y-91555714D01*
X109744047Y-91650952D01*
X109696428Y-91698571D01*
X109601190Y-91746190D01*
X109220238Y-91746190D01*
X110220238Y-91698571D02*
X110553571Y-91698571D01*
X110696428Y-92222380D02*
X110220238Y-92222380D01*
X110220238Y-91222380D01*
X110696428Y-91222380D01*
X111458333Y-91698571D02*
X111125000Y-91698571D01*
X111125000Y-92222380D02*
X111125000Y-91222380D01*
X111601190Y-91222380D01*
X112125000Y-91222380D02*
X112125000Y-91460476D01*
X111886904Y-91365238D02*
X112125000Y-91460476D01*
X112363095Y-91365238D01*
X111982142Y-91650952D02*
X112125000Y-91460476D01*
X112267857Y-91650952D01*
X112886904Y-91222380D02*
X112886904Y-91460476D01*
X112648809Y-91365238D02*
X112886904Y-91460476D01*
X113125000Y-91365238D01*
X112744047Y-91650952D02*
X112886904Y-91460476D01*
X113029761Y-91650952D01*
X141525714Y-86526666D02*
X142001904Y-86526666D01*
X141430476Y-86812380D02*
X141763809Y-85812380D01*
X142097142Y-86812380D01*
X142954285Y-86812380D02*
X142382857Y-86812380D01*
X142668571Y-86812380D02*
X142668571Y-85812380D01*
X142573333Y-85955238D01*
X142478095Y-86050476D01*
X142382857Y-86098095D01*
X113518333Y-103692142D02*
X113470714Y-103739761D01*
X113327857Y-103787380D01*
X113232619Y-103787380D01*
X113089761Y-103739761D01*
X112994523Y-103644523D01*
X112946904Y-103549285D01*
X112899285Y-103358809D01*
X112899285Y-103215952D01*
X112946904Y-103025476D01*
X112994523Y-102930238D01*
X113089761Y-102835000D01*
X113232619Y-102787380D01*
X113327857Y-102787380D01*
X113470714Y-102835000D01*
X113518333Y-102882619D01*
X114470714Y-103787380D02*
X113899285Y-103787380D01*
X114185000Y-103787380D02*
X114185000Y-102787380D01*
X114089761Y-102930238D01*
X113994523Y-103025476D01*
X113899285Y-103073095D01*
X126563333Y-116622142D02*
X126515714Y-116669761D01*
X126372857Y-116717380D01*
X126277619Y-116717380D01*
X126134761Y-116669761D01*
X126039523Y-116574523D01*
X125991904Y-116479285D01*
X125944285Y-116288809D01*
X125944285Y-116145952D01*
X125991904Y-115955476D01*
X126039523Y-115860238D01*
X126134761Y-115765000D01*
X126277619Y-115717380D01*
X126372857Y-115717380D01*
X126515714Y-115765000D01*
X126563333Y-115812619D01*
X126944285Y-115812619D02*
X126991904Y-115765000D01*
X127087142Y-115717380D01*
X127325238Y-115717380D01*
X127420476Y-115765000D01*
X127468095Y-115812619D01*
X127515714Y-115907857D01*
X127515714Y-116003095D01*
X127468095Y-116145952D01*
X126896666Y-116717380D01*
X127515714Y-116717380D01*
X119026666Y-87342380D02*
X119026666Y-88056666D01*
X118979047Y-88199523D01*
X118883809Y-88294761D01*
X118740952Y-88342380D01*
X118645714Y-88342380D01*
X120026666Y-88342380D02*
X119455238Y-88342380D01*
X119740952Y-88342380D02*
X119740952Y-87342380D01*
X119645714Y-87485238D01*
X119550476Y-87580476D01*
X119455238Y-87628095D01*
X131272380Y-94928333D02*
X131986666Y-94928333D01*
X132129523Y-94975952D01*
X132224761Y-95071190D01*
X132272380Y-95214047D01*
X132272380Y-95309285D01*
X131367619Y-94499761D02*
X131320000Y-94452142D01*
X131272380Y-94356904D01*
X131272380Y-94118809D01*
X131320000Y-94023571D01*
X131367619Y-93975952D01*
X131462857Y-93928333D01*
X131558095Y-93928333D01*
X131700952Y-93975952D01*
X132272380Y-94547380D01*
X132272380Y-93928333D01*
X152747380Y-119773333D02*
X153461666Y-119773333D01*
X153604523Y-119820952D01*
X153699761Y-119916190D01*
X153747380Y-120059047D01*
X153747380Y-120154285D01*
X152747380Y-119392380D02*
X152747380Y-118773333D01*
X153128333Y-119106666D01*
X153128333Y-118963809D01*
X153175952Y-118868571D01*
X153223571Y-118820952D01*
X153318809Y-118773333D01*
X153556904Y-118773333D01*
X153652142Y-118820952D01*
X153699761Y-118868571D01*
X153747380Y-118963809D01*
X153747380Y-119249523D01*
X153699761Y-119344761D01*
X153652142Y-119392380D01*
X152747380Y-102628333D02*
X153461666Y-102628333D01*
X153604523Y-102675952D01*
X153699761Y-102771190D01*
X153747380Y-102914047D01*
X153747380Y-103009285D01*
X153080714Y-101723571D02*
X153747380Y-101723571D01*
X152699761Y-101961666D02*
X153414047Y-102199761D01*
X153414047Y-101580714D01*
X127440476Y-124172380D02*
X127440476Y-124886666D01*
X127392857Y-125029523D01*
X127297619Y-125124761D01*
X127154761Y-125172380D01*
X127059523Y-125172380D01*
X128440476Y-125172380D02*
X127869047Y-125172380D01*
X128154761Y-125172380D02*
X128154761Y-124172380D01*
X128059523Y-124315238D01*
X127964285Y-124410476D01*
X127869047Y-124458095D01*
X129059523Y-124172380D02*
X129154761Y-124172380D01*
X129250000Y-124220000D01*
X129297619Y-124267619D01*
X129345238Y-124362857D01*
X129392857Y-124553333D01*
X129392857Y-124791428D01*
X129345238Y-124981904D01*
X129297619Y-125077142D01*
X129250000Y-125124761D01*
X129154761Y-125172380D01*
X129059523Y-125172380D01*
X128964285Y-125124761D01*
X128916666Y-125077142D01*
X128869047Y-124981904D01*
X128821428Y-124791428D01*
X128821428Y-124553333D01*
X128869047Y-124362857D01*
X128916666Y-124267619D01*
X128964285Y-124220000D01*
X129059523Y-124172380D01*
X117955476Y-124172380D02*
X117955476Y-124886666D01*
X117907857Y-125029523D01*
X117812619Y-125124761D01*
X117669761Y-125172380D01*
X117574523Y-125172380D01*
X118955476Y-125172380D02*
X118384047Y-125172380D01*
X118669761Y-125172380D02*
X118669761Y-124172380D01*
X118574523Y-124315238D01*
X118479285Y-124410476D01*
X118384047Y-124458095D01*
X119907857Y-125172380D02*
X119336428Y-125172380D01*
X119622142Y-125172380D02*
X119622142Y-124172380D01*
X119526904Y-124315238D01*
X119431666Y-124410476D01*
X119336428Y-124458095D01*
X125722142Y-113007380D02*
X125388809Y-112531190D01*
X125150714Y-113007380D02*
X125150714Y-112007380D01*
X125531666Y-112007380D01*
X125626904Y-112055000D01*
X125674523Y-112102619D01*
X125722142Y-112197857D01*
X125722142Y-112340714D01*
X125674523Y-112435952D01*
X125626904Y-112483571D01*
X125531666Y-112531190D01*
X125150714Y-112531190D01*
X126674523Y-113007380D02*
X126103095Y-113007380D01*
X126388809Y-113007380D02*
X126388809Y-112007380D01*
X126293571Y-112150238D01*
X126198333Y-112245476D01*
X126103095Y-112293095D01*
X127007857Y-112007380D02*
X127674523Y-112007380D01*
X127245952Y-113007380D01*
X125722142Y-106972380D02*
X125388809Y-106496190D01*
X125150714Y-106972380D02*
X125150714Y-105972380D01*
X125531666Y-105972380D01*
X125626904Y-106020000D01*
X125674523Y-106067619D01*
X125722142Y-106162857D01*
X125722142Y-106305714D01*
X125674523Y-106400952D01*
X125626904Y-106448571D01*
X125531666Y-106496190D01*
X125150714Y-106496190D01*
X126674523Y-106972380D02*
X126103095Y-106972380D01*
X126388809Y-106972380D02*
X126388809Y-105972380D01*
X126293571Y-106115238D01*
X126198333Y-106210476D01*
X126103095Y-106258095D01*
X127150714Y-106972380D02*
X127341190Y-106972380D01*
X127436428Y-106924761D01*
X127484047Y-106877142D01*
X127579285Y-106734285D01*
X127626904Y-106543809D01*
X127626904Y-106162857D01*
X127579285Y-106067619D01*
X127531666Y-106020000D01*
X127436428Y-105972380D01*
X127245952Y-105972380D01*
X127150714Y-106020000D01*
X127103095Y-106067619D01*
X127055476Y-106162857D01*
X127055476Y-106400952D01*
X127103095Y-106496190D01*
X127150714Y-106543809D01*
X127245952Y-106591428D01*
X127436428Y-106591428D01*
X127531666Y-106543809D01*
X127579285Y-106496190D01*
X127626904Y-106400952D01*
X112331666Y-101369761D02*
X112474523Y-101417380D01*
X112712619Y-101417380D01*
X112807857Y-101369761D01*
X112855476Y-101322142D01*
X112903095Y-101226904D01*
X112903095Y-101131666D01*
X112855476Y-101036428D01*
X112807857Y-100988809D01*
X112712619Y-100941190D01*
X112522142Y-100893571D01*
X112426904Y-100845952D01*
X112379285Y-100798333D01*
X112331666Y-100703095D01*
X112331666Y-100607857D01*
X112379285Y-100512619D01*
X112426904Y-100465000D01*
X112522142Y-100417380D01*
X112760238Y-100417380D01*
X112903095Y-100465000D01*
X113236428Y-100417380D02*
X113474523Y-101417380D01*
X113665000Y-100703095D01*
X113855476Y-101417380D01*
X114093571Y-100417380D01*
X114998333Y-101417380D02*
X114426904Y-101417380D01*
X114712619Y-101417380D02*
X114712619Y-100417380D01*
X114617380Y-100560238D01*
X114522142Y-100655476D01*
X114426904Y-100703095D01*
X113538095Y-114967380D02*
X113538095Y-115776904D01*
X113585714Y-115872142D01*
X113633333Y-115919761D01*
X113728571Y-115967380D01*
X113919047Y-115967380D01*
X114014285Y-115919761D01*
X114061904Y-115872142D01*
X114109523Y-115776904D01*
X114109523Y-114967380D01*
X114538095Y-115062619D02*
X114585714Y-115015000D01*
X114680952Y-114967380D01*
X114919047Y-114967380D01*
X115014285Y-115015000D01*
X115061904Y-115062619D01*
X115109523Y-115157857D01*
X115109523Y-115253095D01*
X115061904Y-115395952D01*
X114490476Y-115967380D01*
X115109523Y-115967380D01*
X125603095Y-114812380D02*
X125603095Y-115621904D01*
X125650714Y-115717142D01*
X125698333Y-115764761D01*
X125793571Y-115812380D01*
X125984047Y-115812380D01*
X126079285Y-115764761D01*
X126126904Y-115717142D01*
X126174523Y-115621904D01*
X126174523Y-114812380D01*
X127079285Y-115145714D02*
X127079285Y-115812380D01*
X126841190Y-114764761D02*
X126603095Y-115479047D01*
X127222142Y-115479047D01*
M02*
