M48
; DRILL file {KiCad (5.1.2)-2} date 2021/05/31 16:07:46
; FORMAT={2:4/ absolute / inch / suppress leading zeros}
; #@! TF.CreationDate,2021-05-31T16:07:46+09:00
; #@! TF.GenerationSoftware,Kicad,Pcbnew,(5.1.2)-2
FMAT,2
INCH,TZ
T1C0.0315
T2C0.0374
T3C0.0394
T4C0.1378
%
G90
G05
T1
X53000Y-36000
X53000Y-37000
X53000Y-38000
X53000Y-39000
X53000Y-40000
X53000Y-41000
X53000Y-42000
X53000Y-43000
X53000Y-44000
X53000Y-45000
X53000Y-46000
X53000Y-47000
X53000Y-48000
X53000Y-49000
X53000Y-50000
X59000Y-36000
X59000Y-37000
X59000Y-38000
X59000Y-39000
X59000Y-40000
X59000Y-41000
X59000Y-42000
X59000Y-43000
X59000Y-44000
X59000Y-45000
X59000Y-46000
X59000Y-47000
X59000Y-48000
X59000Y-49000
X59000Y-50000
X48250Y-41500
X48250Y-42500
X48250Y-43500
X48250Y-44500
X51250Y-41500
X51250Y-42500
X51250Y-43500
X51250Y-44500
X44266Y-42750
X45250Y-42750
X49500Y-47250
X50287Y-47250
T2
X61750Y-38797
X61750Y-39781
X61750Y-40766
X61750Y-41750
X61750Y-45547
X61750Y-46531
X61750Y-47516
X61750Y-48500
X50500Y-35766
X50500Y-36750
X50500Y-37734
X50500Y-38719
T3
X50000Y-50500
X50984Y-50500
X43750Y-39250
X44750Y-39250
X45750Y-39250
X46266Y-50500
X47250Y-50500
X46500Y-36000
X47484Y-36000
T4
X43750Y-35500
X62250Y-35500
X43750Y-51000
X62250Y-51000
T0
M30
